<svg width="44" height="44" fill="none" xmlns="http://www.w3.org/2000/svg"><g clip-path="url(#a)"><path fill-rule="evenodd" clip-rule="evenodd" d="M24.8 9.423a1.444 1.444 0 0 1 0 2.043l-5.238 5.237h9.994a9.148 9.148 0 1 1 0 18.297H27.63a1.444 1.444 0 1 1 0-2.889h1.926a6.26 6.26 0 0 0 0-12.519H19.56l5.238 5.239a1.444 1.444 0 0 1-2.042 2.042l-7.7-7.699a1.444 1.444 0 0 1 .017-2.069l7.683-7.682a1.444 1.444 0 0 1 2.042 0Zm-9.63 2.043a1.444 1.444 0 1 0-2.043-2.043l-7.704 7.704a1.445 1.445 0 0 0 0 2.043l7.704 7.703a1.444 1.444 0 0 0 2.043-2.043l-6.683-6.682 6.683-6.682Z" fill="#fff"/></g><defs><clipPath id="a"><path fill="#fff" d="M0 0h44v44H0z"/></clipPath></defs></svg>