<svg width="1302" height="569" viewBox="0 0 1302 569" fill="none" xmlns="http://www.w3.org/2000/svg">
<g opacity="0.3" filter="url(#filter0_ii_231_2760)">
<path d="M366.55 156.577C362.535 156.577 358.837 157.611 355.561 159.574C353.236 141.698 337.704 127.853 318.79 127.853C315.62 127.853 312.661 128.266 309.703 128.989C307.484 118.657 298.185 110.907 286.985 110.907C281.913 110.907 277.264 112.457 273.46 115.144C267.437 94.7886 248.312 79.9098 225.594 79.9098C222.107 79.9098 218.725 80.2197 215.45 80.943C203.404 52.7352 174.98 33 141.802 33C97.7397 33 62.025 67.924 62.025 111.011C62.025 117.417 62.7647 123.616 64.244 129.506C57.9042 125.373 50.1906 122.996 41.9488 122.996C18.8083 122.996 0 141.388 0 164.017C0 186.645 18.8083 205.037 41.9488 205.037C45.2244 205.037 48.3943 204.624 51.3529 204.004C50.6133 205.45 50.1906 207 49.8736 208.653C48.6057 217.229 54.7342 225.289 63.5044 226.529C68.048 227.149 72.4858 225.909 75.8671 223.222C82.207 237.791 95.8377 248.847 113.061 251.327C125.529 253.083 137.681 249.983 147.296 243.371C148.564 260.936 162.195 276.022 180.792 278.605C199.917 281.291 217.88 270.029 223.692 252.67C231.828 258.869 241.655 263.209 252.644 264.759C286.351 269.512 317.627 246.677 322.594 213.716C322.699 213.2 322.699 212.683 322.805 212.166C326.081 216.713 331.153 220.019 337.175 220.846C348.798 222.499 359.682 214.646 361.373 203.177C361.69 201.214 361.69 199.354 361.373 197.494C363.063 197.907 364.754 198.114 366.656 198.114C378.384 198.114 388 188.815 388 177.242C388 165.67 378.385 156.577 366.55 156.577Z" fill="#E7F7FF"/>
</g>
<g opacity="0.3" filter="url(#filter1_ii_231_2760)">
<path d="M1064.55 128.577C1060.53 128.577 1056.84 129.611 1053.56 131.574C1051.24 113.698 1035.7 99.8528 1016.79 99.8528C1013.62 99.8528 1010.66 100.266 1007.7 100.989C1005.48 90.6568 996.185 82.9074 984.985 82.9074C979.913 82.9074 975.264 84.4573 971.46 87.1438C965.437 66.7886 946.312 51.9098 923.594 51.9098C920.107 51.9098 916.725 52.2197 913.45 52.943C901.404 24.7352 872.98 5 839.802 5C795.74 5 760.025 39.924 760.025 83.0107C760.025 89.4169 760.765 95.6164 762.244 101.506C755.904 97.373 748.191 94.9965 739.949 94.9965C716.808 94.9965 698 113.388 698 136.017C698 158.645 716.808 177.037 739.949 177.037C743.224 177.037 746.394 176.624 749.353 176.004C748.613 177.45 748.191 179 747.874 180.653C746.606 189.229 752.734 197.289 761.504 198.529C766.048 199.149 770.486 197.909 773.867 195.222C780.207 209.791 793.838 220.847 811.061 223.327C823.529 225.083 835.681 221.983 845.296 215.371C846.564 232.936 860.195 248.022 878.792 250.605C897.917 253.291 915.88 242.029 921.692 224.67C929.828 230.869 939.655 235.209 950.644 236.759C984.351 241.512 1015.63 218.677 1020.59 185.716C1020.7 185.2 1020.7 184.683 1020.81 184.166C1024.08 188.713 1029.15 192.019 1035.18 192.846C1046.8 194.499 1057.68 186.646 1059.37 175.177C1059.69 173.214 1059.69 171.354 1059.37 169.494C1061.06 169.907 1062.75 170.114 1064.66 170.114C1076.38 170.114 1086 160.815 1086 149.242C1086 137.67 1076.38 128.577 1064.55 128.577Z" fill="#E7F7FF"/>
</g>
<g opacity="0.3" filter="url(#filter2_ii_231_2760)">
<path d="M828.55 156.577C824.535 156.577 820.837 157.611 817.561 159.574C815.236 141.698 799.704 127.853 780.79 127.853C777.62 127.853 774.661 128.266 771.703 128.989C769.484 118.657 760.185 110.907 748.985 110.907C743.913 110.907 739.264 112.457 735.46 115.144C729.437 94.7886 710.312 79.9098 687.594 79.9098C684.107 79.9098 680.725 80.2197 677.45 80.943C665.404 52.7352 636.98 33 603.802 33C559.74 33 524.025 67.924 524.025 111.011C524.025 117.417 524.765 123.616 526.244 129.506C519.904 125.373 512.191 122.996 503.949 122.996C480.808 122.996 462 141.388 462 164.017C462 186.645 480.808 205.037 503.949 205.037C507.224 205.037 510.394 204.624 513.353 204.004C512.613 205.45 512.191 207 511.874 208.653C510.606 217.229 516.734 225.289 525.504 226.529C530.048 227.149 534.486 225.909 537.867 223.222C544.207 237.791 557.838 248.847 575.061 251.327C587.529 253.083 599.681 249.983 609.296 243.371C610.564 260.936 624.195 276.022 642.792 278.605C661.917 281.291 679.88 270.029 685.692 252.67C693.828 258.869 703.655 263.209 714.644 264.759C748.351 269.512 779.627 246.677 784.594 213.716C784.699 213.2 784.699 212.683 784.805 212.166C788.081 216.713 793.153 220.019 799.175 220.846C810.798 222.499 821.682 214.646 823.373 203.177C823.69 201.214 823.69 199.354 823.373 197.494C825.063 197.907 826.754 198.114 828.656 198.114C840.384 198.114 850 188.815 850 177.242C850 165.67 840.385 156.577 828.55 156.577Z" fill="#E7F7FF"/>
</g>
<g opacity="0.3" filter="url(#filter3_ii_231_2760)">
<path d="M582.55 151.577C578.535 151.577 574.837 152.611 571.561 154.574C569.236 136.698 553.704 122.853 534.79 122.853C531.62 122.853 528.661 123.266 525.703 123.989C523.484 113.657 514.185 105.907 502.985 105.907C497.913 105.907 493.264 107.457 489.46 110.144C483.437 89.7886 464.312 74.9098 441.594 74.9098C438.107 74.9098 434.725 75.2197 431.45 75.943C419.404 47.7352 390.98 28 357.802 28C313.74 28 278.025 62.924 278.025 106.011C278.025 112.417 278.765 118.616 280.244 124.506C273.904 120.373 266.191 117.996 257.949 117.996C234.808 117.996 216 136.388 216 159.017C216 181.645 234.808 200.037 257.949 200.037C261.224 200.037 264.394 199.624 267.353 199.004C266.613 200.45 266.191 202 265.874 203.653C264.606 212.229 270.734 220.289 279.504 221.529C284.048 222.149 288.486 220.909 291.867 218.222C298.207 232.791 311.838 243.847 329.061 246.327C341.529 248.083 353.681 244.983 363.296 238.371C364.564 255.936 378.195 271.022 396.792 273.605C415.917 276.291 433.88 265.029 439.692 247.67C447.828 253.869 457.655 258.209 468.644 259.759C502.351 264.512 533.627 241.677 538.594 208.716C538.699 208.2 538.699 207.683 538.805 207.166C542.081 211.713 547.153 215.019 553.175 215.846C564.798 217.499 575.682 209.646 577.373 198.177C577.69 196.214 577.69 194.354 577.373 192.494C579.063 192.907 580.754 193.114 582.656 193.114C594.384 193.114 604 183.815 604 172.242C604 160.67 594.385 151.577 582.55 151.577Z" fill="#E7F7FF"/>
</g>
<g opacity="0.3" filter="url(#filter4_ii_231_2760)">
<path d="M1280.55 123.577C1276.53 123.577 1272.84 124.611 1269.56 126.574C1267.24 108.698 1251.7 94.8528 1232.79 94.8528C1229.62 94.8528 1226.66 95.2661 1223.7 95.9894C1221.48 85.6568 1212.19 77.9074 1200.98 77.9074C1195.91 77.9074 1191.26 79.4573 1187.46 82.1438C1181.44 61.7886 1162.31 46.9098 1139.59 46.9098C1136.11 46.9098 1132.73 47.2197 1129.45 47.943C1117.4 19.7352 1088.98 0 1055.8 0C1011.74 0 976.025 34.924 976.025 78.0107C976.025 84.4169 976.765 90.6164 978.244 96.506C971.904 92.373 964.191 89.9965 955.949 89.9965C932.808 89.9965 914 108.388 914 131.017C914 153.645 932.808 172.037 955.949 172.037C959.224 172.037 962.394 171.624 965.353 171.004C964.613 172.45 964.191 174 963.874 175.653C962.606 184.229 968.734 192.289 977.504 193.529C982.048 194.149 986.486 192.909 989.867 190.222C996.207 204.791 1009.84 215.847 1027.06 218.327C1039.53 220.083 1051.68 216.983 1061.3 210.371C1062.56 227.936 1076.19 243.022 1094.79 245.605C1113.92 248.291 1131.88 237.029 1137.69 219.67C1145.83 225.869 1155.65 230.209 1166.64 231.759C1200.35 236.512 1231.63 213.677 1236.59 180.716C1236.7 180.2 1236.7 179.683 1236.81 179.166C1240.08 183.713 1245.15 187.019 1251.18 187.846C1262.8 189.499 1273.68 181.646 1275.37 170.177C1275.69 168.214 1275.69 166.354 1275.37 164.494C1277.06 164.907 1278.75 165.114 1280.66 165.114C1292.38 165.114 1302 155.815 1302 144.242C1302 132.67 1292.38 123.577 1280.55 123.577Z" fill="#E7F7FF"/>
</g>
<g opacity="0.5">
<mask id="mask0_231_2760" style="mask-type:luminance" maskUnits="userSpaceOnUse" x="669" y="281" width="504" height="288">
<path d="M1173 281H669V569H1173V281Z" fill="white"/>
</mask>
<g mask="url(#mask0_231_2760)">
<path opacity="0.8373" d="M1129.3 536.87C1129.18 537.04 1128.96 537.08 1128.79 536.96C1128.62 536.84 1128.58 536.62 1128.7 536.45C1128.82 536.28 1132.77 531.28 1132.77 531.28C1132.77 531.28 1129.41 536.71 1129.3 536.87Z" fill="#6BC7FF"/>
<path opacity="0.5797" d="M702.94 330.16C702.52 330.75 701.7 330.9 701.11 330.48C700.52 330.06 700.37 329.24 700.79 328.65C701.21 328.06 715.45 310.03 715.45 310.03C715.45 310.03 703.36 329.56 702.94 330.16Z" fill="#6BC7FF"/>
<path opacity="0.4412" d="M833.23 563.451C833.13 563.591 832.93 563.631 832.79 563.531C832.65 563.431 832.61 563.231 832.71 563.091C832.81 562.951 836.22 558.631 836.22 558.631C836.22 558.631 833.33 563.311 833.23 563.451Z" fill="#6BC7FF"/>
<path opacity="0.9478" d="M823.15 470.75C822.99 470.97 822.69 471.03 822.47 470.87C822.25 470.71 822.19 470.41 822.35 470.19C822.51 469.97 827.83 463.23 827.83 463.23C827.83 463.23 823.31 470.53 823.15 470.75Z" fill="#6BC7FF"/>
<path opacity="0.9413" d="M1053.56 482.741C1053.18 483.281 1052.43 483.421 1051.88 483.031C1051.34 482.651 1051.2 481.901 1051.58 481.351C1051.96 480.811 1065 464.301 1065 464.301C1065 464.301 1053.94 482.201 1053.56 482.741Z" fill="#6BC7FF"/>
<path opacity="0.707" d="M890.01 417.06C889.85 417.29 889.54 417.34 889.32 417.18C889.09 417.02 889.04 416.71 889.2 416.49C889.36 416.26 894.75 409.44 894.75 409.44C894.75 409.44 890.17 416.83 890.01 417.06Z" fill="#6BC7FF"/>
<path opacity="0.9224" d="M1098.01 501.57C1097.87 501.76 1097.61 501.81 1097.41 501.68C1097.22 501.54 1097.17 501.28 1097.3 501.08C1097.44 500.89 1102.1 494.98 1102.1 494.98C1102.1 494.98 1098.15 501.37 1098.01 501.57Z" fill="#6BC7FF"/>
<path opacity="0.5347" d="M1129.14 501.071C1128.95 501.341 1128.59 501.401 1128.32 501.211C1128.05 501.021 1127.99 500.661 1128.18 500.391C1128.37 500.121 1134.74 492.051 1134.74 492.051C1134.74 492.051 1129.33 500.811 1129.14 501.071Z" fill="#6BC7FF"/>
<path opacity="0.6339" d="M874.96 334.78C874.76 335.07 874.36 335.14 874.07 334.94C873.78 334.74 873.71 334.34 873.91 334.05C874.11 333.76 881.04 324.99 881.04 324.99C881.04 324.99 875.17 334.49 874.96 334.78Z" fill="#6BC7FF"/>
<path opacity="0.9527" d="M773.54 437.781C772.96 438.601 771.83 438.801 771.01 438.231C770.19 437.651 769.99 436.521 770.56 435.701C771.14 434.881 790.8 409.971 790.8 409.971C790.8 409.971 774.12 436.961 773.54 437.781Z" fill="#6BC7FF"/>
<path opacity="0.6446" d="M1038.29 442.701C1037.68 443.571 1036.48 443.781 1035.61 443.171C1034.74 442.561 1034.53 441.361 1035.14 440.491C1035.75 439.621 1056.57 413.261 1056.57 413.261C1056.57 413.261 1038.89 441.831 1038.29 442.701Z" fill="#6BC7FF"/>
<path opacity="0.9529" d="M764.03 549.61C763.91 549.78 763.67 549.83 763.49 549.7C763.32 549.58 763.27 549.34 763.4 549.16C763.52 548.99 767.69 543.71 767.69 543.71C767.69 543.71 764.15 549.44 764.03 549.61Z" fill="#6BC7FF"/>
<path opacity="0.7683" d="M718.94 362.94C718.43 363.67 717.43 363.84 716.71 363.33C715.98 362.82 715.81 361.82 716.32 361.1C716.83 360.37 734.2 338.38 734.2 338.38C734.2 338.38 719.45 362.21 718.94 362.94Z" fill="#6BC7FF"/>
<path opacity="0.9756" d="M710 389.351C709.58 389.941 708.77 390.091 708.18 389.671C707.59 389.251 707.44 388.441 707.86 387.851C708.28 387.261 722.46 369.301 722.46 369.301C722.46 369.301 710.41 388.761 710 389.351Z" fill="#6BC7FF"/>
<path opacity="0.4332" d="M1114.87 566.871C1114.69 567.131 1114.33 567.191 1114.07 567.011C1113.81 566.831 1113.75 566.471 1113.93 566.211C1114.11 565.951 1120.32 558.101 1120.32 558.101C1120.32 558.101 1115.05 566.611 1114.87 566.871Z" fill="#6BC7FF"/>
<path opacity="0.9173" d="M801.13 502.581C801 502.761 800.76 502.801 800.58 502.681C800.4 502.551 800.36 502.311 800.48 502.131C800.61 501.951 804.9 496.511 804.9 496.511C804.9 496.511 801.25 502.401 801.13 502.581Z" fill="#6BC7FF"/>
<path opacity="0.6496" d="M822.34 417.011C821.56 418.121 820.04 418.381 818.93 417.611C817.82 416.841 817.56 415.311 818.33 414.201C819.11 413.091 845.59 379.561 845.59 379.561C845.59 379.561 823.11 415.911 822.34 417.011Z" fill="#6BC7FF"/>
<path opacity="0.9437" d="M964.91 564.461C964.77 564.651 964.51 564.701 964.32 564.561C964.13 564.421 964.08 564.161 964.22 563.971C964.36 563.781 968.97 557.931 968.97 557.931C968.97 557.931 965.04 564.271 964.91 564.461Z" fill="#6BC7FF"/>
<path opacity="0.4054" d="M735.15 299.6C734.98 299.85 734.63 299.91 734.38 299.73C734.13 299.56 734.07 299.21 734.25 298.96C734.42 298.71 740.39 291.16 740.39 291.16C740.39 291.16 735.33 299.35 735.15 299.6Z" fill="#6BC7FF"/>
<path opacity="0.9971" d="M837.28 443.501C837.14 443.691 836.88 443.741 836.69 443.601C836.5 443.461 836.45 443.201 836.59 443.011C836.73 442.821 841.34 436.971 841.34 436.971C841.34 436.971 837.42 443.311 837.28 443.501Z" fill="#6BC7FF"/>
<path opacity="0.756" d="M1135.02 403.01C1134.92 403.16 1134.72 403.19 1134.57 403.09C1134.42 402.99 1134.39 402.79 1134.49 402.64C1134.59 402.49 1138.08 398.08 1138.08 398.08C1138.08 398.08 1135.12 402.86 1135.02 403.01Z" fill="#6BC7FF"/>
<path opacity="0.5198" d="M853.73 482.431C853.41 482.891 852.78 483.001 852.32 482.681C851.86 482.361 851.75 481.731 852.07 481.271C852.39 480.811 863.36 466.931 863.36 466.931C863.36 466.931 854.05 481.971 853.73 482.431Z" fill="#6BC7FF"/>
<path opacity="0.615" d="M962.29 313.241C962.18 313.391 961.97 313.431 961.82 313.321C961.67 313.211 961.63 313.001 961.74 312.851C961.85 312.701 965.51 308.061 965.51 308.061C965.51 308.061 962.39 313.091 962.29 313.241Z" fill="#6BC7FF"/>
<path opacity="0.7368" d="M1002.92 467.331C1002.75 467.571 1002.41 467.631 1002.17 467.461C1001.93 467.291 1001.87 466.951 1002.04 466.711C1002.21 466.471 1008.04 459.091 1008.04 459.091C1008.04 459.091 1003.1 467.081 1002.92 467.331Z" fill="#6BC7FF"/>
<path opacity="0.9021" d="M1121.83 298.871C1121.56 299.261 1121.03 299.351 1120.64 299.081C1120.25 298.811 1120.16 298.281 1120.43 297.891C1120.7 297.501 1129.95 285.801 1129.95 285.801C1129.95 285.801 1122.1 298.481 1121.83 298.871Z" fill="#6BC7FF"/>
<path opacity="0.5801" d="M730 490.361C729.42 491.181 728.29 491.381 727.47 490.801C726.65 490.221 726.45 489.091 727.03 488.271C727.61 487.451 747.26 462.561 747.26 462.561C747.26 462.561 730.58 489.541 730 490.361Z" fill="#6BC7FF"/>
<path opacity="0.6016" d="M668.1 469.14C668 469.28 667.81 469.31 667.68 469.21C667.54 469.11 667.51 468.93 667.61 468.79C667.71 468.65 670.99 464.5 670.99 464.5C670.99 464.5 668.19 469 668.1 469.14Z" fill="#6BC7FF"/>
<path opacity="0.7342" d="M1010.81 508.85C1010.27 509.62 1009.2 509.81 1008.43 509.27C1007.66 508.73 1007.47 507.66 1008.01 506.89C1008.55 506.12 1027.07 482.66 1027.07 482.66C1027.07 482.66 1011.35 508.07 1010.81 508.85Z" fill="#6BC7FF"/>
<path opacity="0.4242" d="M676.43 568.331C676.33 568.481 676.12 568.521 675.97 568.411C675.82 568.311 675.78 568.101 675.89 567.951C676 567.801 679.58 563.261 679.58 563.261C679.58 563.261 676.54 568.181 676.43 568.331Z" fill="#6BC7FF"/>
<path opacity="0.5318" d="M1122.38 456.61C1122.11 456.99 1121.58 457.09 1121.2 456.82C1120.82 456.55 1120.72 456.02 1120.99 455.64C1121.26 455.26 1130.42 443.66 1130.42 443.66C1130.42 443.66 1122.65 456.23 1122.38 456.61Z" fill="#6BC7FF"/>
<path opacity="0.8217" d="M1153.54 446.23C1153.11 446.85 1152.26 446.99 1151.64 446.56C1151.02 446.13 1150.88 445.28 1151.31 444.66C1151.74 444.04 1166.48 425.38 1166.48 425.38C1166.48 425.38 1153.97 445.61 1153.54 446.23Z" fill="#6BC7FF"/>
<path opacity="0.5206" d="M938.1 293.921C937.88 294.241 937.44 294.311 937.13 294.091C936.81 293.871 936.74 293.431 936.96 293.121C937.18 292.801 944.75 283.221 944.75 283.221C944.75 283.221 938.32 293.611 938.1 293.921Z" fill="#6BC7FF"/>
<path opacity="0.4455" d="M829.86 346.21C829.63 346.55 829.16 346.63 828.83 346.39C828.49 346.16 828.41 345.69 828.65 345.36C828.88 345.02 836.91 334.86 836.91 334.86C836.91 334.86 830.09 345.88 829.86 346.21Z" fill="#6BC7FF"/>
<path opacity="0.9553" d="M807.47 433.29C807.33 433.49 807.05 433.54 806.84 433.4C806.64 433.26 806.59 432.98 806.73 432.77C806.87 432.57 811.74 426.4 811.74 426.4C811.74 426.4 807.62 433.08 807.47 433.29Z" fill="#6BC7FF"/>
<path opacity="0.6781" d="M1008.02 433.901C1007.5 434.641 1006.49 434.811 1005.76 434.301C1005.02 433.781 1004.85 432.771 1005.36 432.041C1005.88 431.301 1023.48 409.011 1023.48 409.011C1023.48 409.011 1008.53 433.161 1008.02 433.901Z" fill="#6BC7FF"/>
<path opacity="0.4437" d="M828.3 510.19C827.75 510.97 826.68 511.16 825.9 510.61C825.12 510.06 824.93 508.99 825.48 508.21C826.03 507.43 844.66 483.83 844.66 483.83C844.66 483.83 828.85 509.42 828.3 510.19Z" fill="#6BC7FF"/>
<path opacity="0.8458" d="M976.99 483.85C976.87 484.02 976.64 484.06 976.47 483.94C976.3 483.82 976.26 483.59 976.38 483.42C976.5 483.25 980.53 478.15 980.53 478.15C980.53 478.15 977.11 483.68 976.99 483.85Z" fill="#6BC7FF"/>
<path opacity="0.5613" d="M970.99 524.19C970.76 524.52 970.3 524.6 969.96 524.37C969.62 524.14 969.55 523.68 969.78 523.34C970.01 523 977.99 512.91 977.99 512.91C977.99 512.91 971.22 523.85 970.99 524.19Z" fill="#6BC7FF"/>
<path opacity="0.9492" d="M715.51 513.37C715.29 513.68 714.86 513.76 714.54 513.54C714.23 513.32 714.15 512.89 714.37 512.57C714.59 512.26 722.11 502.73 722.11 502.73C722.11 502.73 715.73 513.06 715.51 513.37Z" fill="#6BC7FF"/>
<path opacity="0.6955" d="M666.18 337.13C666.03 337.34 665.74 337.39 665.53 337.24C665.32 337.09 665.27 336.8 665.42 336.59C665.57 336.38 670.6 330 670.6 330C670.6 330 666.33 336.92 666.18 337.13Z" fill="#6BC7FF"/>
<path opacity="0.897" d="M745.71 522.651C745.55 522.881 745.23 522.931 745 522.771C744.77 522.611 744.72 522.291 744.88 522.061C745.04 521.831 750.52 514.891 750.52 514.891C750.52 514.891 745.87 522.421 745.71 522.651Z" fill="#6BC7FF"/>
<path opacity="0.7336" d="M1043.99 404.96C1043.62 405.48 1042.9 405.61 1042.38 405.24C1041.86 404.87 1041.73 404.15 1042.1 403.63C1042.47 403.11 1055.02 387.21 1055.02 387.21C1055.02 387.21 1044.36 404.43 1043.99 404.96Z" fill="#6BC7FF"/>
<path opacity="0.7994" d="M1021.86 372.981C1021.55 373.421 1020.95 373.521 1020.51 373.221C1020.07 372.911 1019.97 372.311 1020.27 371.871C1020.58 371.431 1031.05 358.181 1031.05 358.181C1031.05 358.181 1022.17 372.541 1021.86 372.981Z" fill="#6BC7FF"/>
<path opacity="0.5793" d="M749.74 451.45C749.41 451.92 748.76 452.04 748.29 451.71C747.82 451.38 747.7 450.73 748.03 450.26C748.36 449.79 759.65 435.5 759.65 435.5C759.65 435.5 750.07 450.98 749.74 451.45Z" fill="#6BC7FF"/>
<path opacity="0.5547" d="M808.83 321.171C808.26 321.991 807.13 322.191 806.31 321.611C805.49 321.041 805.29 319.911 805.87 319.091C806.44 318.271 826.06 293.431 826.06 293.431C826.06 293.431 809.41 320.351 808.83 321.171Z" fill="#6BC7FF"/>
<path opacity="0.9014" d="M754.68 384.88C754.09 385.72 752.93 385.92 752.09 385.34C751.25 384.75 751.05 383.59 751.63 382.75C752.22 381.91 772.35 356.42 772.35 356.42C772.35 356.42 755.27 384.04 754.68 384.88Z" fill="#3298D6"/>
<path opacity="0.7701" d="M776.76 337.191C776.37 337.741 775.62 337.871 775.07 337.491C774.52 337.101 774.39 336.351 774.77 335.801C775.16 335.251 788.32 318.591 788.32 318.591C788.32 318.591 777.14 336.641 776.76 337.191Z" fill="#3298D6"/>
<path opacity="0.5111" d="M1104.32 345.91C1104.2 346.08 1103.96 346.12 1103.79 346C1103.62 345.88 1103.58 345.64 1103.7 345.47C1103.82 345.3 1107.95 340.07 1107.95 340.07C1107.95 340.07 1104.44 345.74 1104.32 345.91Z" fill="#3298D6"/>
<path opacity="0.8413" d="M1048.59 330.3C1048.5 330.43 1048.32 330.46 1048.19 330.37C1048.06 330.28 1048.03 330.1 1048.12 329.97C1048.21 329.84 1051.32 325.91 1051.32 325.91C1051.32 325.91 1048.68 330.17 1048.59 330.3Z" fill="#3298D6"/>
<path opacity="0.4048" d="M724.79 422.89C724.7 423.02 724.52 423.05 724.39 422.96C724.26 422.87 724.23 422.69 724.32 422.56C724.41 422.43 727.53 418.48 727.53 418.48C727.53 418.48 724.88 422.76 724.79 422.89Z" fill="#3298D6"/>
<path opacity="0.6174" d="M1152.96 572.24C1152.26 573.25 1150.87 573.49 1149.86 572.78C1148.85 572.08 1148.61 570.69 1149.32 569.68C1150.02 568.67 1174.1 538.19 1174.1 538.19C1174.1 538.19 1153.66 571.23 1152.96 572.24Z" fill="#3298D6"/>
<path opacity="0.8963" d="M1071.54 443.361C1071.41 443.551 1071.14 443.601 1070.95 443.461C1070.76 443.331 1070.71 443.061 1070.85 442.871C1070.98 442.681 1075.59 436.851 1075.59 436.851C1075.59 436.851 1071.67 443.171 1071.54 443.361Z" fill="#3298D6"/>
<path opacity="0.4224" d="M908.19 450.53C907.49 451.53 906.11 451.77 905.11 451.07C904.11 450.37 903.87 448.99 904.57 447.99C905.27 446.99 929.24 416.65 929.24 416.65C929.24 416.65 908.89 449.52 908.19 450.53Z" fill="#3298D6"/>
<path opacity="0.4609" d="M669.6 380.6C669.27 381.06 668.63 381.18 668.17 380.85C667.7 380.52 667.59 379.88 667.92 379.42C668.25 378.95 679.38 364.86 679.38 364.86C679.38 364.86 669.92 380.14 669.6 380.6Z" fill="#3298D6"/>
<path opacity="0.7426" d="M785.16 479.07C784.55 479.94 783.35 480.15 782.49 479.54C781.62 478.93 781.41 477.73 782.02 476.87C782.63 476 803.42 449.67 803.42 449.67C803.42 449.67 785.77 478.2 785.16 479.07Z" fill="#3298D6"/>
<path opacity="0.6513" d="M867.93 463.99C867.35 464.81 866.22 465.01 865.4 464.43C864.58 463.85 864.38 462.72 864.96 461.9C865.54 461.08 885.19 436.19 885.19 436.19C885.19 436.19 868.5 463.17 867.93 463.99Z" fill="#3298D6"/>
<path opacity="0.858" d="M869.99 285.26C869.89 285.4 869.69 285.44 869.55 285.34C869.41 285.24 869.37 285.04 869.47 284.9C869.57 284.76 873.01 280.41 873.01 280.41C873.01 280.41 870.09 285.11 869.99 285.26Z" fill="#3298D6"/>
<path opacity="0.818" d="M855.05 405.67C854.42 406.57 853.18 406.79 852.28 406.16C851.38 405.53 851.16 404.29 851.79 403.39C852.42 402.49 873.95 375.23 873.95 375.23C873.95 375.23 855.68 404.78 855.05 405.67Z" fill="#3298D6"/>
<path opacity="0.6317" d="M1059.21 292.331C1059.09 292.501 1058.85 292.551 1058.68 292.421C1058.51 292.301 1058.46 292.061 1058.59 291.891C1058.71 291.721 1062.86 286.471 1062.86 286.471C1062.86 286.471 1059.33 292.151 1059.21 292.331Z" fill="#3298D6"/>
<path opacity="0.7996" d="M1031.21 459.881C1031.07 460.081 1030.79 460.131 1030.59 459.991C1030.39 459.851 1030.34 459.571 1030.48 459.371C1030.62 459.171 1035.41 453.101 1035.41 453.101C1035.41 453.101 1031.35 459.681 1031.21 459.881Z" fill="#3298D6"/>
<path opacity="0.5443" d="M920.99 400.78C920.76 401.11 920.31 401.19 919.98 400.96C919.65 400.73 919.57 400.28 919.8 399.95C920.03 399.62 927.92 389.63 927.92 389.63C927.92 389.63 921.22 400.45 920.99 400.78Z" fill="#3298D6"/>
<path opacity="0.6051" d="M1120.39 338.4C1119.62 339.5 1118.11 339.76 1117.01 338.99C1115.91 338.22 1115.65 336.71 1116.42 335.61C1117.19 334.51 1143.46 301.25 1143.46 301.25C1143.46 301.25 1121.16 337.3 1120.39 338.4Z" fill="#3298D6"/>
<path opacity="0.5747" d="M696.39 408.95C696.3 409.08 696.11 409.12 695.98 409.02C695.85 408.93 695.81 408.74 695.91 408.61C696 408.48 699.21 404.42 699.21 404.42C699.21 404.42 696.48 408.82 696.39 408.95Z" fill="#3298D6"/>
<path opacity="0.8835" d="M899.11 532.45C898.46 533.38 897.18 533.6 896.26 532.95C895.33 532.3 895.11 531.02 895.76 530.1C896.41 529.17 918.6 501.07 918.6 501.07C918.6 501.07 899.76 531.53 899.11 532.45Z" fill="#3298D6"/>
<path opacity="0.4609" d="M860.57 425.88C860.38 426.16 859.99 426.22 859.72 426.03C859.44 425.84 859.38 425.45 859.57 425.18C859.76 424.91 866.4 416.5 866.4 416.5C866.4 416.5 860.77 425.6 860.57 425.88Z" fill="#3298D6"/>
<path opacity="0.7608" d="M935.47 339.08C935.16 339.52 934.56 339.63 934.12 339.32C933.68 339.01 933.57 338.41 933.88 337.97C934.19 337.53 944.72 324.19 944.72 324.19C944.72 324.19 935.78 338.64 935.47 339.08Z" fill="#3298D6"/>
<path opacity="0.4882" d="M686.25 522.15C686.1 522.36 685.82 522.41 685.61 522.26C685.4 522.11 685.35 521.83 685.5 521.62C685.65 521.41 690.65 515.08 690.65 515.08C690.65 515.08 686.4 521.94 686.25 522.15Z" fill="#3298D6"/>
<path opacity="0.4881" d="M854.39 362.301C854.26 362.481 854.02 362.521 853.84 362.401C853.66 362.281 853.62 362.031 853.74 361.851C853.87 361.671 858.17 356.221 858.17 356.221C858.17 356.221 854.51 362.121 854.39 362.301Z" fill="#3298D6"/>
<path opacity="0.9708" d="M1068.42 364.05C1068.21 364.35 1067.79 364.43 1067.48 364.21C1067.18 364 1067.1 363.58 1067.32 363.27C1067.53 362.97 1074.82 353.74 1074.82 353.74C1074.82 353.74 1068.63 363.75 1068.42 364.05Z" fill="#3298D6"/>
<path opacity="0.9074" d="M1024.99 297.53C1024.69 297.95 1024.11 298.05 1023.69 297.76C1023.27 297.46 1023.17 296.88 1023.46 296.46C1023.76 296.04 1033.86 283.25 1033.86 283.25C1033.86 283.25 1025.28 297.11 1024.99 297.53Z" fill="#3298D6"/>
<path opacity="0.8531" d="M1007.65 348.58C1006.95 349.57 1005.58 349.81 1004.59 349.12C1003.6 348.42 1003.36 347.05 1004.05 346.06C1004.75 345.07 1028.53 314.95 1028.53 314.95C1028.53 314.95 1008.35 347.58 1007.65 348.58Z" fill="#3298D6"/>
<path opacity="0.8484" d="M1086.29 483.971C1085.71 484.801 1084.57 485.001 1083.75 484.421C1082.92 483.841 1082.72 482.701 1083.3 481.881C1083.88 481.051 1103.65 456.021 1103.65 456.021C1103.65 456.021 1086.87 483.141 1086.29 483.971Z" fill="#3298D6"/>
<path opacity="0.7065" d="M667.77 547.05C667.63 547.25 667.36 547.29 667.17 547.16C666.97 547.02 666.93 546.75 667.06 546.56C667.2 546.36 671.87 540.45 671.87 540.45C671.87 540.45 667.9 546.86 667.77 547.05Z" fill="#3298D6"/>
<path opacity="0.8065" d="M1097.01 443.28C1096.42 444.12 1095.26 444.33 1094.42 443.74C1093.58 443.15 1093.37 441.99 1093.96 441.15C1094.55 440.31 1114.7 414.79 1114.7 414.79C1114.7 414.79 1097.6 442.44 1097.01 443.28Z" fill="#3298D6"/>
<path opacity="0.704" d="M668.58 405.191C668.46 405.361 668.22 405.401 668.05 405.281C667.88 405.161 667.84 404.921 667.96 404.751C668.08 404.581 672.22 399.341 672.22 399.341C672.22 399.341 668.7 405.021 668.58 405.191Z" fill="#3298D6"/>
<path opacity="0.8845" d="M886.48 564.601C886.16 565.061 885.53 565.171 885.07 564.851C884.61 564.531 884.5 563.901 884.82 563.441C885.14 562.981 896.1 549.101 896.1 549.101C896.1 549.101 886.81 564.141 886.48 564.601Z" fill="#3298D6"/>
<path opacity="0.4063" d="M830.24 287.861C830.15 287.991 829.97 288.021 829.85 287.931C829.72 287.841 829.69 287.661 829.78 287.541C829.87 287.411 832.94 283.521 832.94 283.521C832.94 283.521 830.33 287.731 830.24 287.861Z" fill="#3298D6"/>
<path opacity="0.805" d="M1086.96 402.03C1086.85 402.18 1086.64 402.22 1086.48 402.11C1086.33 402 1086.29 401.79 1086.4 401.63C1086.51 401.48 1090.21 396.79 1090.21 396.79C1090.21 396.79 1087.07 401.88 1086.96 402.03Z" fill="#3298D6"/>
<path opacity="0.9802" d="M860.9 548.18C860.81 548.31 860.62 548.35 860.49 548.25C860.36 548.16 860.32 547.97 860.42 547.84C860.51 547.71 863.71 543.66 863.71 543.66C863.71 543.66 860.99 548.05 860.9 548.18Z" fill="#3298D6"/>
<path opacity="0.7896" d="M1033.96 561.28C1033.33 562.18 1032.09 562.4 1031.2 561.77C1030.3 561.14 1030.08 559.9 1030.71 559.01C1031.34 558.11 1052.83 530.9 1052.83 530.9C1052.83 530.9 1034.59 560.38 1033.96 561.28Z" fill="#3298D6"/>
<path opacity="0.4957" d="M999.6 310.27C999.43 310.51 999.09 310.57 998.85 310.4C998.61 310.23 998.55 309.89 998.72 309.65C998.89 309.41 1004.75 301.98 1004.75 301.98C1004.75 301.98 999.77 310.03 999.6 310.27Z" fill="#3298D6"/>
<path opacity="0.5203" d="M1052.04 525.24C1051.42 526.13 1050.2 526.34 1049.31 525.72C1048.42 525.1 1048.21 523.88 1048.83 522.99C1049.45 522.1 1070.66 495.25 1070.66 495.25C1070.66 495.25 1052.66 524.35 1052.04 525.24Z" fill="#3298D6"/>
<path opacity="0.4585" d="M960.01 395.461C959.9 395.611 959.69 395.651 959.54 395.541C959.39 395.431 959.35 395.221 959.46 395.071C959.57 394.921 963.24 390.271 963.24 390.271C963.24 390.271 960.11 395.311 960.01 395.461Z" fill="#3298D6"/>
<path opacity="0.9642" d="M1093.2 539.751C1092.77 540.361 1091.93 540.511 1091.32 540.081C1090.71 539.651 1090.56 538.811 1090.99 538.201C1091.42 537.591 1106.06 519.051 1106.06 519.051C1106.06 519.051 1093.63 539.141 1093.2 539.751Z" fill="#3298D6"/>
<path opacity="0.7126" d="M973.4 437.97C973.23 438.21 972.9 438.27 972.66 438.1C972.42 437.93 972.36 437.6 972.53 437.36C972.7 437.12 978.47 429.82 978.47 429.82C978.47 429.82 973.57 437.73 973.4 437.97Z" fill="#3298D6"/>
<path opacity="0.6383" d="M888.27 384.6C887.94 385.07 887.29 385.19 886.81 384.86C886.34 384.53 886.22 383.88 886.55 383.4C886.88 382.93 898.22 368.57 898.22 368.57C898.22 368.57 888.6 384.12 888.27 384.6Z" fill="#3298D6"/>
<path opacity="0.7446" d="M1017.31 568.12C1017.22 568.24 1017.05 568.27 1016.93 568.19C1016.81 568.1 1016.78 567.93 1016.86 567.81C1016.95 567.69 1019.9 563.95 1019.9 563.95C1019.9 563.95 1017.39 568 1017.31 568.12Z" fill="#3298D6"/>
<path opacity="0.4349" d="M687.23 492.11C686.57 493.06 685.26 493.29 684.31 492.62C683.36 491.96 683.13 490.65 683.8 489.7C684.46 488.75 707.14 460.04 707.14 460.04C707.14 460.04 687.9 491.17 687.23 492.11Z" fill="#3298D6"/>
<path opacity="0.9761" d="M752.08 408.8C751.76 409.26 751.12 409.38 750.65 409.05C750.19 408.73 750.07 408.09 750.4 407.62C750.72 407.16 761.82 393.11 761.82 393.11C761.82 393.11 752.41 408.33 752.08 408.8Z" fill="#3298D6"/>
<path opacity="0.7729" d="M971.34 380.731C970.74 381.591 969.56 381.801 968.7 381.191C967.84 380.591 967.63 379.411 968.24 378.551C968.84 377.691 989.39 351.681 989.39 351.681C989.39 351.681 971.94 379.871 971.34 380.731Z" fill="#B5E3FF"/>
<path opacity="0.801" d="M1133.1 370.871C1132.41 371.851 1131.05 372.091 1130.07 371.401C1129.08 370.711 1128.85 369.351 1129.54 368.371C1130.23 367.391 1153.81 337.521 1153.81 337.521C1153.81 337.521 1133.79 369.891 1133.1 370.871Z" fill="#B5E3FF"/>
<path opacity="0.7738" d="M799.94 355.271C799.85 355.401 799.67 355.431 799.54 355.341C799.41 355.251 799.38 355.071 799.47 354.941C799.56 354.811 802.69 350.851 802.69 350.851C802.69 350.851 800.04 355.141 799.94 355.271Z" fill="#B5E3FF"/>
<path opacity="0.5336" d="M909.2 324.37C908.87 324.85 908.21 324.96 907.73 324.63C907.25 324.3 907.14 323.64 907.47 323.16C907.8 322.68 919.25 308.2 919.25 308.2C919.25 308.2 909.53 323.9 909.2 324.37Z" fill="#B5E3FF"/>
<path opacity="0.6282" d="M760.82 505.61C760.19 506.5 758.96 506.72 758.07 506.09C757.18 505.46 756.96 504.23 757.59 503.34C758.22 502.45 779.58 475.4 779.58 475.4C779.58 475.4 761.45 504.72 760.82 505.61Z" fill="#B5E3FF"/>
<path opacity="0.6584" d="M744.6 567.27C744.49 567.43 744.27 567.47 744.11 567.36C743.95 567.25 743.91 567.03 744.02 566.87C744.13 566.71 747.95 561.87 747.95 561.87C747.95 561.87 744.71 567.11 744.6 567.27Z" fill="#B5E3FF"/>
<path opacity="0.9025" d="M1156.61 334.721C1155.87 335.771 1154.42 336.031 1153.36 335.291C1152.3 334.551 1152.05 333.101 1152.79 332.041C1153.53 330.991 1178.77 299.021 1178.77 299.021C1178.77 299.021 1157.35 333.661 1156.61 334.721Z" fill="#B5E3FF"/>
<path opacity="0.4537" d="M705.68 563.08C705.18 563.79 704.2 563.97 703.48 563.47C702.77 562.97 702.59 561.99 703.09 561.27C703.59 560.56 720.69 538.91 720.69 538.91C720.69 538.91 706.18 562.36 705.68 563.08Z" fill="#B5E3FF"/>
<path opacity="0.553" d="M1162.57 290.45C1162.44 290.64 1162.17 290.69 1161.98 290.55C1161.79 290.42 1161.74 290.15 1161.88 289.96C1162.01 289.77 1166.58 283.99 1166.58 283.99C1166.58 283.99 1162.71 290.26 1162.57 290.45Z" fill="#B5E3FF"/>
<path opacity="0.7683" d="M870.62 506.89C870.53 507.02 870.34 507.06 870.21 506.96C870.08 506.87 870.04 506.68 870.14 506.55C870.23 506.42 873.46 502.33 873.46 502.33C873.46 502.33 870.71 506.75 870.62 506.89Z" fill="#B5E3FF"/>
<path opacity="0.6824" d="M979.18 343.75C978.92 344.12 978.41 344.21 978.04 343.95C977.67 343.69 977.58 343.18 977.84 342.81C978.1 342.44 986.95 331.23 986.95 331.23C986.95 331.23 979.44 343.38 979.18 343.75Z" fill="#B5E3FF"/>
<path opacity="0.8444" d="M1094.71 286.811C1094.62 286.941 1094.45 286.971 1094.32 286.881C1094.19 286.791 1094.16 286.621 1094.25 286.491C1094.34 286.361 1097.35 282.551 1097.35 282.551C1097.35 282.551 1094.8 286.691 1094.71 286.811Z" fill="#B5E3FF"/>
<path opacity="0.5057" d="M860.99 307.87C860.89 308.02 860.69 308.05 860.54 307.95C860.39 307.85 860.36 307.65 860.46 307.5C860.56 307.35 864.04 302.95 864.04 302.95C864.04 302.95 861.09 307.72 860.99 307.87Z" fill="#B5E3FF"/>
<path opacity="0.7706" d="M895.87 491.331C895.1 492.431 893.58 492.701 892.48 491.931C891.38 491.161 891.11 489.641 891.88 488.541C892.65 487.441 918.99 454.091 918.99 454.091C918.99 454.091 896.64 490.231 895.87 491.331Z" fill="#B5E3FF"/>
<path opacity="0.9217" d="M990.13 409.14C989.67 409.8 988.76 409.96 988.11 409.5C987.46 409.04 987.29 408.13 987.75 407.48C988.21 406.82 1003.94 386.91 1003.94 386.91C1003.94 386.91 990.59 408.48 990.13 409.14Z" fill="#B5E3FF"/>
<path opacity="0.5603" d="M987.17 556.64C986.74 557.26 985.89 557.41 985.27 556.97C984.65 556.54 984.5 555.69 984.94 555.07C985.37 554.45 1000.15 535.74 1000.15 535.74C1000.15 535.74 987.61 556.02 987.17 556.64Z" fill="#B5E3FF"/>
<path opacity="0.4748" d="M798.76 566.261C798.66 566.401 798.47 566.431 798.33 566.341C798.19 566.251 798.16 566.051 798.25 565.911C798.35 565.771 801.71 561.521 801.71 561.521C801.71 561.521 798.86 566.121 798.76 566.261Z" fill="#B5E3FF"/>
<path opacity="0.8589" d="M1167.63 401.29C1167.41 401.6 1166.98 401.68 1166.67 401.46C1166.36 401.24 1166.28 400.81 1166.5 400.5C1166.72 400.19 1174.15 390.78 1174.15 390.78C1174.15 390.78 1167.85 400.98 1167.63 401.29Z" fill="#B5E3FF"/>
<path opacity="0.9413" d="M792.11 544.431C791.63 545.111 790.7 545.271 790.02 544.801C789.34 544.321 789.18 543.391 789.65 542.711C790.13 542.031 806.39 521.431 806.39 521.431C806.39 521.431 792.59 543.761 792.11 544.431Z" fill="#B5E3FF"/>
<path opacity="0.6152" d="M1172.17 497.3C1172 497.55 1171.66 497.61 1171.41 497.43C1171.16 497.26 1171.1 496.92 1171.28 496.67C1171.45 496.42 1177.36 488.94 1177.36 488.94C1177.36 488.94 1172.35 497.06 1172.17 497.3Z" fill="#B5E3FF"/>
<path opacity="0.6612" d="M797.07 394.19C796.7 394.72 795.97 394.85 795.44 394.48C794.91 394.11 794.78 393.38 795.15 392.85C795.52 392.32 808.23 376.23 808.23 376.23C808.23 376.23 797.44 393.66 797.07 394.19Z" fill="#B5E3FF"/>
<path opacity="0.7667" d="M925.75 564.291C925.62 564.471 925.37 564.521 925.19 564.391C925.01 564.261 924.96 564.011 925.09 563.831C925.22 563.651 929.6 558.091 929.6 558.091C929.6 558.091 925.87 564.101 925.75 564.291Z" fill="#B5E3FF"/>
<path opacity="0.9836" d="M941.38 477.03C940.7 478.01 939.35 478.24 938.37 477.56C937.39 476.88 937.16 475.53 937.84 474.55C938.52 473.57 961.93 443.94 961.93 443.94C961.93 443.94 942.07 476.05 941.38 477.03Z" fill="#B5E3FF"/>
<path opacity="0.8035" d="M901.16 354.6C900.98 354.85 900.64 354.91 900.39 354.74C900.14 354.57 900.08 354.22 900.25 353.97C900.43 353.72 906.42 346.13 906.42 346.13C906.42 346.13 901.34 354.35 901.16 354.6Z" fill="#B5E3FF"/>
<path opacity="0.4779" d="M1011.03 533.81C1010.66 534.33 1009.94 534.46 1009.42 534.09C1008.9 533.72 1008.77 533 1009.14 532.48C1009.51 531.96 1022.02 516.12 1022.02 516.12C1022.02 516.12 1011.4 533.29 1011.03 533.81Z" fill="#B5E3FF"/>
<path opacity="0.4703" d="M985.11 287.16C985 287.32 984.77 287.36 984.61 287.25C984.45 287.14 984.41 286.91 984.52 286.75C984.63 286.59 988.56 281.62 988.56 281.62C988.56 281.62 985.23 287 985.11 287.16Z" fill="#B5E3FF"/>
<path opacity="0.5676" d="M936.85 438.36C936.09 439.44 934.6 439.7 933.52 438.95C932.44 438.19 932.18 436.7 932.93 435.62C933.68 434.54 959.6 401.73 959.6 401.73C959.6 401.73 937.6 437.28 936.85 438.36Z" fill="#B5E3FF"/>
<path opacity="0.8104" d="M1078.68 325.67C1078.16 326.42 1077.12 326.6 1076.37 326.08C1075.62 325.56 1075.44 324.52 1075.96 323.77C1076.48 323.02 1094.41 300.33 1094.41 300.33C1094.41 300.33 1079.2 324.92 1078.68 325.67Z" fill="#B5E3FF"/>
<path opacity="0.5187" d="M746.79 339.561C746.58 339.861 746.16 339.941 745.86 339.721C745.56 339.511 745.48 339.091 745.7 338.791C745.91 338.491 753.17 329.301 753.17 329.301C753.17 329.301 747 339.261 746.79 339.561Z" fill="#B5E3FF"/>
<path opacity="0.8281" d="M703.36 466.331C702.65 467.351 701.24 467.601 700.22 466.881C699.2 466.171 698.95 464.761 699.67 463.741C700.38 462.721 724.8 431.811 724.8 431.811C724.8 431.811 704.07 465.311 703.36 466.331Z" fill="#B5E3FF"/>
<path opacity="0.6672" d="M677.63 308.27C677.01 309.15 675.79 309.37 674.91 308.75C674.03 308.13 673.81 306.91 674.43 306.03C675.05 305.15 696.21 278.36 696.21 278.36C696.21 278.36 678.25 307.39 677.63 308.27Z" fill="#B5E3FF"/>
<path opacity="0.4403" d="M686.65 357.721C686.23 358.321 685.41 358.461 684.82 358.041C684.22 357.621 684.08 356.801 684.5 356.211C684.92 355.611 699.18 337.561 699.18 337.561C699.18 337.561 687.07 357.121 686.65 357.721Z" fill="#B5E3FF"/>
<path opacity="0.8637" d="M773.86 299.861C773.56 300.291 772.96 300.401 772.53 300.091C772.1 299.791 771.99 299.191 772.3 298.761C772.6 298.331 782.96 285.221 782.96 285.221C782.96 285.221 774.16 299.431 773.86 299.861Z" fill="#B5E3FF"/>
<path opacity="0.9537" d="M828.79 535.91C828.48 536.35 827.87 536.46 827.43 536.15C826.99 535.84 826.88 535.23 827.19 534.79C827.5 534.35 838.11 520.91 838.11 520.91C838.11 520.91 829.1 535.47 828.79 535.91Z" fill="#B5E3FF"/>
<path opacity="0.5026" d="M1168.11 359.57C1167.91 359.85 1167.53 359.92 1167.25 359.72C1166.97 359.52 1166.9 359.14 1167.1 358.86C1167.3 358.58 1173.97 350.13 1173.97 350.13C1173.97 350.13 1168.3 359.29 1168.11 359.57Z" fill="#B5E3FF"/>
<path opacity="0.8946" d="M1140.34 490.56C1139.63 491.57 1138.24 491.81 1137.23 491.11C1136.22 490.4 1135.98 489.01 1136.68 488C1137.39 486.99 1161.53 456.42 1161.53 456.42C1161.53 456.42 1141.05 489.55 1140.34 490.56Z" fill="#B5E3FF"/>
<path opacity="0.4989" d="M1161.28 520.84C1161.19 520.97 1161.01 521 1160.88 520.91C1160.75 520.82 1160.72 520.64 1160.81 520.51C1160.9 520.38 1164.04 516.41 1164.04 516.41C1164.04 516.41 1161.37 520.71 1161.28 520.84Z" fill="#B5E3FF"/>
<path opacity="0.4646" d="M938.47 529.791C938.33 529.991 938.06 530.041 937.86 529.901C937.66 529.761 937.61 529.491 937.75 529.291C937.89 529.091 942.66 523.061 942.66 523.061C942.66 523.061 938.61 529.591 938.47 529.791Z" fill="#B5E3FF"/>
<path opacity="0.6396" d="M1099.84 390.34C1099.15 391.32 1097.8 391.56 1096.83 390.87C1095.85 390.18 1095.61 388.83 1096.3 387.86C1096.99 386.88 1120.42 357.21 1120.42 357.21C1120.42 357.21 1100.52 389.36 1099.84 390.34Z" fill="#B5E3FF"/>
<path opacity="0.9017" d="M1075.16 559.93C1075.04 560.1 1074.8 560.14 1074.63 560.02C1074.46 559.9 1074.42 559.66 1074.54 559.49C1074.66 559.32 1078.77 554.11 1078.77 554.11C1078.77 554.11 1075.28 559.76 1075.16 559.93Z" fill="#B5E3FF"/>
<path opacity="0.4281" d="M665.4 506.05C665.24 506.27 664.93 506.33 664.71 506.17C664.49 506.01 664.43 505.7 664.59 505.48C664.75 505.26 670.13 498.44 670.13 498.44C670.13 498.44 665.55 505.82 665.4 506.05Z" fill="#B5E3FF"/>
<path opacity="0.6241" d="M934.84 493.49C934.75 493.61 934.58 493.64 934.46 493.56C934.34 493.47 934.31 493.3 934.39 493.18C934.48 493.06 937.43 489.32 937.43 489.32C937.43 489.32 934.93 493.36 934.84 493.49Z" fill="#B5E3FF"/>
<path opacity="0.8922" d="M670.76 440.22C670.51 440.57 670.02 440.66 669.67 440.41C669.32 440.16 669.23 439.67 669.48 439.32C669.73 438.97 678.19 428.25 678.19 428.25C678.19 428.25 671.01 439.86 670.76 440.22Z" fill="#B5E3FF"/>
<path opacity="0.5563" d="M899.15 294.58C898.97 294.84 898.61 294.91 898.34 294.72C898.08 294.54 898.01 294.18 898.2 293.91C898.38 293.65 904.65 285.71 904.65 285.71C904.65 285.71 899.33 294.32 899.15 294.58Z" fill="#B5E3FF"/>
<path opacity="0.4674" d="M935.34 370.44C935.01 370.91 934.36 371.02 933.89 370.69C933.42 370.36 933.31 369.71 933.64 369.24C933.97 368.77 945.22 354.53 945.22 354.53C945.22 354.53 935.67 369.97 935.34 370.44Z" fill="#B5E3FF"/>
</g>
</g>
<g opacity="0.5">
<mask id="mask1_231_2760" style="mask-type:luminance" maskUnits="userSpaceOnUse" x="129" y="279" width="504" height="288">
<path d="M633 279H129V567H633V279Z" fill="white"/>
</mask>
<g mask="url(#mask1_231_2760)">
<path opacity="0.8373" d="M589.3 534.87C589.18 535.04 588.96 535.08 588.79 534.96C588.62 534.84 588.58 534.62 588.7 534.45C588.82 534.28 592.77 529.28 592.77 529.28C592.77 529.28 589.41 534.71 589.3 534.87Z" fill="#6BC7FF"/>
<path opacity="0.5797" d="M162.94 328.16C162.52 328.75 161.7 328.9 161.11 328.48C160.52 328.06 160.37 327.24 160.79 326.65C161.21 326.06 175.45 308.03 175.45 308.03C175.45 308.03 163.36 327.56 162.94 328.16Z" fill="#6BC7FF"/>
<path opacity="0.4412" d="M293.23 561.451C293.13 561.591 292.93 561.631 292.79 561.531C292.65 561.431 292.61 561.231 292.71 561.091C292.81 560.951 296.22 556.631 296.22 556.631C296.22 556.631 293.33 561.311 293.23 561.451Z" fill="#6BC7FF"/>
<path opacity="0.9478" d="M283.15 468.75C282.99 468.97 282.69 469.03 282.47 468.87C282.25 468.71 282.19 468.41 282.35 468.19C282.51 467.97 287.83 461.23 287.83 461.23C287.83 461.23 283.31 468.53 283.15 468.75Z" fill="#6BC7FF"/>
<path opacity="0.9413" d="M513.56 480.741C513.18 481.281 512.43 481.421 511.88 481.031C511.34 480.651 511.2 479.901 511.58 479.351C511.96 478.811 525 462.301 525 462.301C525 462.301 513.94 480.201 513.56 480.741Z" fill="#6BC7FF"/>
<path opacity="0.707" d="M350.01 415.06C349.85 415.29 349.54 415.34 349.32 415.18C349.09 415.02 349.04 414.71 349.2 414.49C349.36 414.26 354.75 407.44 354.75 407.44C354.75 407.44 350.17 414.83 350.01 415.06Z" fill="#6BC7FF"/>
<path opacity="0.9224" d="M558.01 499.57C557.87 499.76 557.61 499.81 557.41 499.68C557.22 499.54 557.17 499.28 557.3 499.08C557.44 498.89 562.1 492.98 562.1 492.98C562.1 492.98 558.15 499.37 558.01 499.57Z" fill="#6BC7FF"/>
<path opacity="0.5347" d="M589.14 499.071C588.95 499.341 588.59 499.401 588.32 499.211C588.05 499.021 587.99 498.661 588.18 498.391C588.37 498.121 594.74 490.051 594.74 490.051C594.74 490.051 589.33 498.811 589.14 499.071Z" fill="#6BC7FF"/>
<path opacity="0.6339" d="M334.96 332.78C334.76 333.07 334.36 333.14 334.07 332.94C333.78 332.74 333.71 332.34 333.91 332.05C334.11 331.76 341.04 322.99 341.04 322.99C341.04 322.99 335.17 332.49 334.96 332.78Z" fill="#6BC7FF"/>
<path opacity="0.9527" d="M233.54 435.781C232.96 436.601 231.83 436.801 231.01 436.231C230.19 435.651 229.99 434.521 230.56 433.701C231.14 432.881 250.8 407.971 250.8 407.971C250.8 407.971 234.12 434.961 233.54 435.781Z" fill="#6BC7FF"/>
<path opacity="0.6446" d="M498.29 440.701C497.68 441.571 496.48 441.781 495.61 441.171C494.74 440.561 494.53 439.361 495.14 438.491C495.75 437.621 516.57 411.261 516.57 411.261C516.57 411.261 498.89 439.831 498.29 440.701Z" fill="#6BC7FF"/>
<path opacity="0.9529" d="M224.03 547.61C223.91 547.78 223.67 547.83 223.49 547.7C223.32 547.58 223.27 547.34 223.4 547.16C223.52 546.99 227.69 541.71 227.69 541.71C227.69 541.71 224.15 547.44 224.03 547.61Z" fill="#6BC7FF"/>
<path opacity="0.7683" d="M178.94 360.94C178.43 361.67 177.43 361.84 176.71 361.33C175.98 360.82 175.81 359.82 176.32 359.1C176.83 358.37 194.2 336.38 194.2 336.38C194.2 336.38 179.45 360.21 178.94 360.94Z" fill="#6BC7FF"/>
<path opacity="0.9756" d="M170 387.351C169.58 387.941 168.77 388.091 168.18 387.671C167.59 387.251 167.44 386.441 167.86 385.851C168.28 385.261 182.46 367.301 182.46 367.301C182.46 367.301 170.41 386.761 170 387.351Z" fill="#6BC7FF"/>
<path opacity="0.4332" d="M574.87 564.871C574.69 565.131 574.33 565.191 574.07 565.011C573.81 564.831 573.75 564.471 573.93 564.211C574.11 563.951 580.32 556.101 580.32 556.101C580.32 556.101 575.05 564.611 574.87 564.871Z" fill="#6BC7FF"/>
<path opacity="0.9173" d="M261.13 500.581C261 500.761 260.76 500.801 260.58 500.681C260.4 500.551 260.36 500.311 260.48 500.131C260.61 499.951 264.9 494.511 264.9 494.511C264.9 494.511 261.25 500.401 261.13 500.581Z" fill="#6BC7FF"/>
<path opacity="0.6496" d="M282.34 415.011C281.56 416.121 280.04 416.381 278.93 415.611C277.82 414.841 277.56 413.311 278.33 412.201C279.11 411.091 305.59 377.561 305.59 377.561C305.59 377.561 283.11 413.911 282.34 415.011Z" fill="#6BC7FF"/>
<path opacity="0.9437" d="M424.91 562.461C424.77 562.651 424.51 562.701 424.32 562.561C424.13 562.421 424.08 562.161 424.22 561.971C424.36 561.781 428.97 555.931 428.97 555.931C428.97 555.931 425.04 562.271 424.91 562.461Z" fill="#6BC7FF"/>
<path opacity="0.4054" d="M195.15 297.6C194.98 297.85 194.63 297.91 194.38 297.73C194.13 297.56 194.07 297.21 194.25 296.96C194.42 296.71 200.39 289.16 200.39 289.16C200.39 289.16 195.33 297.35 195.15 297.6Z" fill="#6BC7FF"/>
<path opacity="0.9971" d="M297.28 441.501C297.14 441.691 296.88 441.741 296.69 441.601C296.5 441.461 296.45 441.201 296.59 441.011C296.73 440.821 301.34 434.971 301.34 434.971C301.34 434.971 297.42 441.311 297.28 441.501Z" fill="#6BC7FF"/>
<path opacity="0.756" d="M595.02 401.01C594.92 401.16 594.72 401.19 594.57 401.09C594.42 400.99 594.39 400.79 594.49 400.64C594.59 400.49 598.08 396.08 598.08 396.08C598.08 396.08 595.12 400.86 595.02 401.01Z" fill="#6BC7FF"/>
<path opacity="0.5198" d="M313.73 480.431C313.41 480.891 312.78 481.001 312.32 480.681C311.86 480.361 311.75 479.731 312.07 479.271C312.39 478.811 323.36 464.931 323.36 464.931C323.36 464.931 314.05 479.971 313.73 480.431Z" fill="#6BC7FF"/>
<path opacity="0.615" d="M422.29 311.241C422.18 311.391 421.97 311.431 421.82 311.321C421.67 311.211 421.63 311.001 421.74 310.851C421.85 310.701 425.51 306.061 425.51 306.061C425.51 306.061 422.39 311.091 422.29 311.241Z" fill="#6BC7FF"/>
<path opacity="0.7368" d="M462.92 465.331C462.75 465.571 462.41 465.631 462.17 465.461C461.93 465.291 461.87 464.951 462.04 464.711C462.21 464.471 468.04 457.091 468.04 457.091C468.04 457.091 463.1 465.081 462.92 465.331Z" fill="#6BC7FF"/>
<path opacity="0.9021" d="M581.83 296.871C581.56 297.261 581.03 297.351 580.64 297.081C580.25 296.811 580.16 296.281 580.43 295.891C580.7 295.501 589.95 283.801 589.95 283.801C589.95 283.801 582.1 296.481 581.83 296.871Z" fill="#6BC7FF"/>
<path opacity="0.5801" d="M190 488.361C189.42 489.181 188.29 489.381 187.47 488.801C186.65 488.221 186.45 487.091 187.03 486.271C187.61 485.451 207.26 460.561 207.26 460.561C207.26 460.561 190.58 487.541 190 488.361Z" fill="#6BC7FF"/>
<path opacity="0.6016" d="M128.1 467.14C128 467.28 127.81 467.31 127.68 467.21C127.54 467.11 127.51 466.93 127.61 466.79C127.71 466.65 130.99 462.5 130.99 462.5C130.99 462.5 128.19 467 128.1 467.14Z" fill="#6BC7FF"/>
<path opacity="0.7342" d="M470.81 506.85C470.27 507.62 469.2 507.81 468.43 507.27C467.66 506.73 467.47 505.66 468.01 504.89C468.55 504.12 487.07 480.66 487.07 480.66C487.07 480.66 471.35 506.07 470.81 506.85Z" fill="#6BC7FF"/>
<path opacity="0.4242" d="M136.43 566.331C136.33 566.481 136.12 566.521 135.97 566.411C135.82 566.311 135.78 566.101 135.89 565.951C136 565.801 139.58 561.261 139.58 561.261C139.58 561.261 136.54 566.181 136.43 566.331Z" fill="#6BC7FF"/>
<path opacity="0.5318" d="M582.38 454.61C582.11 454.99 581.58 455.09 581.2 454.82C580.82 454.55 580.72 454.02 580.99 453.64C581.26 453.26 590.42 441.66 590.42 441.66C590.42 441.66 582.65 454.23 582.38 454.61Z" fill="#6BC7FF"/>
<path opacity="0.8217" d="M613.54 444.23C613.11 444.85 612.26 444.99 611.64 444.56C611.02 444.13 610.88 443.28 611.31 442.66C611.74 442.04 626.48 423.38 626.48 423.38C626.48 423.38 613.97 443.61 613.54 444.23Z" fill="#6BC7FF"/>
<path opacity="0.5206" d="M398.1 291.921C397.88 292.241 397.44 292.311 397.13 292.091C396.81 291.871 396.74 291.431 396.96 291.121C397.18 290.801 404.75 281.221 404.75 281.221C404.75 281.221 398.32 291.611 398.1 291.921Z" fill="#6BC7FF"/>
<path opacity="0.4455" d="M289.86 344.21C289.63 344.55 289.16 344.63 288.83 344.39C288.49 344.16 288.41 343.69 288.65 343.36C288.88 343.02 296.91 332.86 296.91 332.86C296.91 332.86 290.09 343.88 289.86 344.21Z" fill="#6BC7FF"/>
<path opacity="0.9553" d="M267.47 431.29C267.33 431.49 267.05 431.54 266.84 431.4C266.64 431.26 266.59 430.98 266.73 430.77C266.87 430.57 271.74 424.4 271.74 424.4C271.74 424.4 267.62 431.08 267.47 431.29Z" fill="#6BC7FF"/>
<path opacity="0.6781" d="M468.02 431.901C467.5 432.641 466.49 432.811 465.76 432.301C465.02 431.781 464.85 430.771 465.36 430.041C465.88 429.301 483.48 407.011 483.48 407.011C483.48 407.011 468.53 431.161 468.02 431.901Z" fill="#6BC7FF"/>
<path opacity="0.4437" d="M288.3 508.19C287.75 508.97 286.68 509.16 285.9 508.61C285.12 508.06 284.93 506.99 285.48 506.21C286.03 505.43 304.66 481.83 304.66 481.83C304.66 481.83 288.85 507.42 288.3 508.19Z" fill="#6BC7FF"/>
<path opacity="0.8458" d="M436.99 481.85C436.87 482.02 436.64 482.06 436.47 481.94C436.3 481.82 436.26 481.59 436.38 481.42C436.5 481.25 440.53 476.15 440.53 476.15C440.53 476.15 437.11 481.68 436.99 481.85Z" fill="#6BC7FF"/>
<path opacity="0.5613" d="M430.99 522.19C430.76 522.52 430.3 522.6 429.96 522.37C429.62 522.14 429.55 521.68 429.78 521.34C430.01 521 437.99 510.91 437.99 510.91C437.99 510.91 431.22 521.85 430.99 522.19Z" fill="#6BC7FF"/>
<path opacity="0.9492" d="M175.51 511.37C175.29 511.68 174.86 511.76 174.54 511.54C174.23 511.32 174.15 510.89 174.37 510.57C174.59 510.26 182.11 500.73 182.11 500.73C182.11 500.73 175.73 511.06 175.51 511.37Z" fill="#6BC7FF"/>
<path opacity="0.6955" d="M126.18 335.13C126.03 335.34 125.74 335.39 125.53 335.24C125.32 335.09 125.27 334.8 125.42 334.59C125.57 334.38 130.6 328 130.6 328C130.6 328 126.33 334.92 126.18 335.13Z" fill="#6BC7FF"/>
<path opacity="0.897" d="M205.71 520.651C205.55 520.881 205.23 520.931 205 520.771C204.77 520.611 204.72 520.291 204.88 520.061C205.04 519.831 210.52 512.891 210.52 512.891C210.52 512.891 205.87 520.421 205.71 520.651Z" fill="#6BC7FF"/>
<path opacity="0.7336" d="M503.99 402.96C503.62 403.48 502.9 403.61 502.38 403.24C501.86 402.87 501.73 402.15 502.1 401.63C502.47 401.11 515.02 385.21 515.02 385.21C515.02 385.21 504.36 402.43 503.99 402.96Z" fill="#6BC7FF"/>
<path opacity="0.7994" d="M481.86 370.981C481.55 371.421 480.95 371.521 480.51 371.221C480.07 370.911 479.97 370.311 480.27 369.871C480.58 369.431 491.05 356.181 491.05 356.181C491.05 356.181 482.17 370.541 481.86 370.981Z" fill="#6BC7FF"/>
<path opacity="0.5793" d="M209.74 449.45C209.41 449.92 208.76 450.04 208.29 449.71C207.82 449.38 207.7 448.73 208.03 448.26C208.36 447.79 219.65 433.5 219.65 433.5C219.65 433.5 210.07 448.98 209.74 449.45Z" fill="#6BC7FF"/>
<path opacity="0.5547" d="M268.83 319.171C268.26 319.991 267.13 320.191 266.31 319.611C265.49 319.041 265.29 317.911 265.87 317.091C266.44 316.271 286.06 291.431 286.06 291.431C286.06 291.431 269.41 318.351 268.83 319.171Z" fill="#6BC7FF"/>
<path opacity="0.9014" d="M214.68 382.88C214.09 383.72 212.93 383.92 212.09 383.34C211.25 382.75 211.05 381.59 211.63 380.75C212.22 379.91 232.35 354.42 232.35 354.42C232.35 354.42 215.27 382.04 214.68 382.88Z" fill="#3298D6"/>
<path opacity="0.7701" d="M236.76 335.191C236.37 335.741 235.62 335.871 235.07 335.491C234.52 335.101 234.39 334.351 234.77 333.801C235.16 333.251 248.32 316.591 248.32 316.591C248.32 316.591 237.14 334.641 236.76 335.191Z" fill="#3298D6"/>
<path opacity="0.5111" d="M564.32 343.91C564.2 344.08 563.96 344.12 563.79 344C563.62 343.88 563.58 343.64 563.7 343.47C563.82 343.3 567.95 338.07 567.95 338.07C567.95 338.07 564.44 343.74 564.32 343.91Z" fill="#3298D6"/>
<path opacity="0.8413" d="M508.59 328.3C508.5 328.43 508.32 328.46 508.19 328.37C508.06 328.28 508.03 328.1 508.12 327.97C508.21 327.84 511.32 323.91 511.32 323.91C511.32 323.91 508.68 328.17 508.59 328.3Z" fill="#3298D6"/>
<path opacity="0.4048" d="M184.79 420.89C184.7 421.02 184.52 421.05 184.39 420.96C184.26 420.87 184.23 420.69 184.32 420.56C184.41 420.43 187.53 416.48 187.53 416.48C187.53 416.48 184.88 420.76 184.79 420.89Z" fill="#3298D6"/>
<path opacity="0.6174" d="M612.96 570.24C612.26 571.25 610.87 571.49 609.86 570.78C608.85 570.08 608.61 568.69 609.32 567.68C610.02 566.67 634.1 536.19 634.1 536.19C634.1 536.19 613.66 569.23 612.96 570.24Z" fill="#3298D6"/>
<path opacity="0.8963" d="M531.54 441.361C531.41 441.551 531.14 441.601 530.95 441.461C530.76 441.331 530.71 441.061 530.85 440.871C530.98 440.681 535.59 434.851 535.59 434.851C535.59 434.851 531.67 441.171 531.54 441.361Z" fill="#3298D6"/>
<path opacity="0.4224" d="M368.19 448.53C367.49 449.53 366.11 449.77 365.11 449.07C364.11 448.37 363.87 446.99 364.57 445.99C365.27 444.99 389.24 414.65 389.24 414.65C389.24 414.65 368.89 447.52 368.19 448.53Z" fill="#3298D6"/>
<path opacity="0.4609" d="M129.6 378.6C129.27 379.06 128.63 379.18 128.17 378.85C127.7 378.52 127.59 377.88 127.92 377.42C128.25 376.95 139.38 362.86 139.38 362.86C139.38 362.86 129.92 378.14 129.6 378.6Z" fill="#3298D6"/>
<path opacity="0.7426" d="M245.16 477.07C244.55 477.94 243.35 478.15 242.49 477.54C241.62 476.93 241.41 475.73 242.02 474.87C242.63 474 263.42 447.67 263.42 447.67C263.42 447.67 245.77 476.2 245.16 477.07Z" fill="#3298D6"/>
<path opacity="0.6513" d="M327.93 461.99C327.35 462.81 326.22 463.01 325.4 462.43C324.58 461.85 324.38 460.72 324.96 459.9C325.54 459.08 345.19 434.19 345.19 434.19C345.19 434.19 328.5 461.17 327.93 461.99Z" fill="#3298D6"/>
<path opacity="0.858" d="M329.99 283.26C329.89 283.4 329.69 283.44 329.55 283.34C329.41 283.24 329.37 283.04 329.47 282.9C329.57 282.76 333.01 278.41 333.01 278.41C333.01 278.41 330.09 283.11 329.99 283.26Z" fill="#3298D6"/>
<path opacity="0.818" d="M315.05 403.67C314.42 404.57 313.18 404.79 312.28 404.16C311.38 403.53 311.16 402.29 311.79 401.39C312.42 400.49 333.95 373.23 333.95 373.23C333.95 373.23 315.68 402.78 315.05 403.67Z" fill="#3298D6"/>
<path opacity="0.6317" d="M519.21 290.331C519.09 290.501 518.85 290.551 518.68 290.421C518.51 290.301 518.46 290.061 518.59 289.891C518.71 289.721 522.86 284.471 522.86 284.471C522.86 284.471 519.33 290.151 519.21 290.331Z" fill="#3298D6"/>
<path opacity="0.7996" d="M491.21 457.881C491.07 458.081 490.79 458.131 490.59 457.991C490.39 457.851 490.34 457.571 490.48 457.371C490.62 457.171 495.41 451.101 495.41 451.101C495.41 451.101 491.35 457.681 491.21 457.881Z" fill="#3298D6"/>
<path opacity="0.5443" d="M380.99 398.78C380.76 399.11 380.31 399.19 379.98 398.96C379.65 398.73 379.57 398.28 379.8 397.95C380.03 397.62 387.92 387.63 387.92 387.63C387.92 387.63 381.22 398.45 380.99 398.78Z" fill="#3298D6"/>
<path opacity="0.6051" d="M580.39 336.4C579.62 337.5 578.11 337.76 577.01 336.99C575.91 336.22 575.65 334.71 576.42 333.61C577.19 332.51 603.46 299.25 603.46 299.25C603.46 299.25 581.16 335.3 580.39 336.4Z" fill="#3298D6"/>
<path opacity="0.5747" d="M156.39 406.95C156.3 407.08 156.11 407.12 155.98 407.02C155.85 406.93 155.81 406.74 155.91 406.61C156 406.48 159.21 402.42 159.21 402.42C159.21 402.42 156.48 406.82 156.39 406.95Z" fill="#3298D6"/>
<path opacity="0.8835" d="M359.11 530.45C358.46 531.38 357.18 531.6 356.26 530.95C355.33 530.3 355.11 529.02 355.76 528.1C356.41 527.17 378.6 499.07 378.6 499.07C378.6 499.07 359.76 529.53 359.11 530.45Z" fill="#3298D6"/>
<path opacity="0.4609" d="M320.57 423.88C320.38 424.16 319.99 424.22 319.72 424.03C319.44 423.84 319.38 423.45 319.57 423.18C319.76 422.91 326.4 414.5 326.4 414.5C326.4 414.5 320.77 423.6 320.57 423.88Z" fill="#3298D6"/>
<path opacity="0.7608" d="M395.47 337.08C395.16 337.52 394.56 337.63 394.12 337.32C393.68 337.01 393.57 336.41 393.88 335.97C394.19 335.53 404.72 322.19 404.72 322.19C404.72 322.19 395.78 336.64 395.47 337.08Z" fill="#3298D6"/>
<path opacity="0.4882" d="M146.25 520.15C146.1 520.36 145.82 520.41 145.61 520.26C145.4 520.11 145.35 519.83 145.5 519.62C145.65 519.41 150.65 513.08 150.65 513.08C150.65 513.08 146.4 519.94 146.25 520.15Z" fill="#3298D6"/>
<path opacity="0.4881" d="M314.39 360.301C314.26 360.481 314.02 360.521 313.84 360.401C313.66 360.281 313.62 360.031 313.74 359.851C313.87 359.671 318.17 354.221 318.17 354.221C318.17 354.221 314.51 360.121 314.39 360.301Z" fill="#3298D6"/>
<path opacity="0.9708" d="M528.42 362.05C528.21 362.35 527.79 362.43 527.48 362.21C527.18 362 527.1 361.58 527.32 361.27C527.53 360.97 534.82 351.74 534.82 351.74C534.82 351.74 528.63 361.75 528.42 362.05Z" fill="#3298D6"/>
<path opacity="0.9074" d="M484.99 295.53C484.69 295.95 484.11 296.05 483.69 295.76C483.27 295.46 483.17 294.88 483.46 294.46C483.76 294.04 493.86 281.25 493.86 281.25C493.86 281.25 485.28 295.11 484.99 295.53Z" fill="#3298D6"/>
<path opacity="0.8531" d="M467.65 346.58C466.95 347.57 465.58 347.81 464.59 347.12C463.6 346.42 463.36 345.05 464.05 344.06C464.75 343.07 488.53 312.95 488.53 312.95C488.53 312.95 468.35 345.58 467.65 346.58Z" fill="#3298D6"/>
<path opacity="0.8484" d="M546.29 481.971C545.71 482.801 544.57 483.001 543.75 482.421C542.92 481.841 542.72 480.701 543.3 479.881C543.88 479.051 563.65 454.021 563.65 454.021C563.65 454.021 546.87 481.141 546.29 481.971Z" fill="#3298D6"/>
<path opacity="0.7065" d="M127.77 545.05C127.63 545.25 127.36 545.29 127.17 545.16C126.97 545.02 126.93 544.75 127.06 544.56C127.2 544.36 131.87 538.45 131.87 538.45C131.87 538.45 127.9 544.86 127.77 545.05Z" fill="#3298D6"/>
<path opacity="0.8065" d="M557.01 441.28C556.42 442.12 555.26 442.33 554.42 441.74C553.58 441.15 553.37 439.99 553.96 439.15C554.55 438.31 574.7 412.79 574.7 412.79C574.7 412.79 557.6 440.44 557.01 441.28Z" fill="#3298D6"/>
<path opacity="0.704" d="M128.58 403.191C128.46 403.361 128.22 403.401 128.05 403.281C127.88 403.161 127.84 402.921 127.96 402.751C128.08 402.581 132.22 397.341 132.22 397.341C132.22 397.341 128.7 403.021 128.58 403.191Z" fill="#3298D6"/>
<path opacity="0.8845" d="M346.48 562.601C346.16 563.061 345.53 563.171 345.07 562.851C344.61 562.531 344.5 561.901 344.82 561.441C345.14 560.981 356.1 547.101 356.1 547.101C356.1 547.101 346.81 562.141 346.48 562.601Z" fill="#3298D6"/>
<path opacity="0.4063" d="M290.24 285.861C290.15 285.991 289.97 286.021 289.85 285.931C289.72 285.841 289.69 285.661 289.78 285.541C289.87 285.411 292.94 281.521 292.94 281.521C292.94 281.521 290.33 285.731 290.24 285.861Z" fill="#3298D6"/>
<path opacity="0.805" d="M546.96 400.03C546.85 400.18 546.64 400.22 546.48 400.11C546.33 400 546.29 399.79 546.4 399.63C546.51 399.48 550.21 394.79 550.21 394.79C550.21 394.79 547.07 399.88 546.96 400.03Z" fill="#3298D6"/>
<path opacity="0.9802" d="M320.9 546.18C320.81 546.31 320.62 546.35 320.49 546.25C320.36 546.16 320.32 545.97 320.42 545.84C320.51 545.71 323.71 541.66 323.71 541.66C323.71 541.66 320.99 546.05 320.9 546.18Z" fill="#3298D6"/>
<path opacity="0.7896" d="M493.96 559.28C493.33 560.18 492.09 560.4 491.2 559.77C490.3 559.14 490.08 557.9 490.71 557.01C491.34 556.11 512.83 528.9 512.83 528.9C512.83 528.9 494.59 558.38 493.96 559.28Z" fill="#3298D6"/>
<path opacity="0.4957" d="M459.6 308.27C459.43 308.51 459.09 308.57 458.85 308.4C458.61 308.23 458.55 307.89 458.72 307.65C458.89 307.41 464.75 299.98 464.75 299.98C464.75 299.98 459.77 308.03 459.6 308.27Z" fill="#3298D6"/>
<path opacity="0.5203" d="M512.04 523.24C511.42 524.13 510.2 524.34 509.31 523.72C508.42 523.1 508.21 521.88 508.83 520.99C509.45 520.1 530.66 493.25 530.66 493.25C530.66 493.25 512.66 522.35 512.04 523.24Z" fill="#3298D6"/>
<path opacity="0.4585" d="M420.01 393.461C419.9 393.611 419.69 393.651 419.54 393.541C419.39 393.431 419.35 393.221 419.46 393.071C419.57 392.921 423.24 388.271 423.24 388.271C423.24 388.271 420.11 393.311 420.01 393.461Z" fill="#3298D6"/>
<path opacity="0.9642" d="M553.2 537.751C552.77 538.361 551.93 538.511 551.32 538.081C550.71 537.651 550.56 536.811 550.99 536.201C551.42 535.591 566.06 517.051 566.06 517.051C566.06 517.051 553.63 537.141 553.2 537.751Z" fill="#3298D6"/>
<path opacity="0.7126" d="M433.4 435.97C433.23 436.21 432.9 436.27 432.66 436.1C432.42 435.93 432.36 435.6 432.53 435.36C432.7 435.12 438.47 427.82 438.47 427.82C438.47 427.82 433.57 435.73 433.4 435.97Z" fill="#3298D6"/>
<path opacity="0.6383" d="M348.27 382.6C347.94 383.07 347.29 383.19 346.81 382.86C346.34 382.53 346.22 381.88 346.55 381.4C346.88 380.93 358.22 366.57 358.22 366.57C358.22 366.57 348.6 382.12 348.27 382.6Z" fill="#3298D6"/>
<path opacity="0.7446" d="M477.31 566.12C477.22 566.24 477.05 566.27 476.93 566.19C476.81 566.1 476.78 565.93 476.86 565.81C476.95 565.69 479.9 561.95 479.9 561.95C479.9 561.95 477.39 566 477.31 566.12Z" fill="#3298D6"/>
<path opacity="0.4349" d="M147.23 490.11C146.57 491.06 145.26 491.29 144.31 490.62C143.36 489.96 143.13 488.65 143.8 487.7C144.46 486.75 167.14 458.04 167.14 458.04C167.14 458.04 147.9 489.17 147.23 490.11Z" fill="#3298D6"/>
<path opacity="0.9761" d="M212.08 406.8C211.76 407.26 211.12 407.38 210.65 407.05C210.19 406.73 210.07 406.09 210.4 405.62C210.72 405.16 221.82 391.11 221.82 391.11C221.82 391.11 212.41 406.33 212.08 406.8Z" fill="#3298D6"/>
<path opacity="0.7729" d="M431.34 378.731C430.74 379.591 429.56 379.801 428.7 379.191C427.84 378.591 427.63 377.411 428.24 376.551C428.84 375.691 449.39 349.681 449.39 349.681C449.39 349.681 431.94 377.871 431.34 378.731Z" fill="#B5E3FF"/>
<path opacity="0.801" d="M593.1 368.871C592.41 369.851 591.05 370.091 590.07 369.401C589.08 368.711 588.85 367.351 589.54 366.371C590.23 365.391 613.81 335.521 613.81 335.521C613.81 335.521 593.79 367.891 593.1 368.871Z" fill="#B5E3FF"/>
<path opacity="0.7738" d="M259.94 353.271C259.85 353.401 259.67 353.431 259.54 353.341C259.41 353.251 259.38 353.071 259.47 352.941C259.56 352.811 262.69 348.851 262.69 348.851C262.69 348.851 260.04 353.141 259.94 353.271Z" fill="#B5E3FF"/>
<path opacity="0.5336" d="M369.2 322.37C368.87 322.85 368.21 322.96 367.73 322.63C367.25 322.3 367.14 321.64 367.47 321.16C367.8 320.68 379.25 306.2 379.25 306.2C379.25 306.2 369.53 321.9 369.2 322.37Z" fill="#B5E3FF"/>
<path opacity="0.6282" d="M220.82 503.61C220.19 504.5 218.96 504.72 218.07 504.09C217.18 503.46 216.96 502.23 217.59 501.34C218.22 500.45 239.58 473.4 239.58 473.4C239.58 473.4 221.45 502.72 220.82 503.61Z" fill="#B5E3FF"/>
<path opacity="0.6584" d="M204.6 565.27C204.49 565.43 204.27 565.47 204.11 565.36C203.95 565.25 203.91 565.03 204.02 564.87C204.13 564.71 207.95 559.87 207.95 559.87C207.95 559.87 204.71 565.11 204.6 565.27Z" fill="#B5E3FF"/>
<path opacity="0.9025" d="M616.61 332.721C615.87 333.771 614.42 334.031 613.36 333.291C612.3 332.551 612.05 331.101 612.79 330.041C613.53 328.991 638.77 297.021 638.77 297.021C638.77 297.021 617.35 331.661 616.61 332.721Z" fill="#B5E3FF"/>
<path opacity="0.4537" d="M165.68 561.08C165.18 561.79 164.2 561.97 163.48 561.47C162.77 560.97 162.59 559.99 163.09 559.27C163.59 558.56 180.69 536.91 180.69 536.91C180.69 536.91 166.18 560.36 165.68 561.08Z" fill="#B5E3FF"/>
<path opacity="0.553" d="M622.57 288.45C622.44 288.64 622.17 288.69 621.98 288.55C621.79 288.42 621.74 288.15 621.88 287.96C622.01 287.77 626.58 281.99 626.58 281.99C626.58 281.99 622.71 288.26 622.57 288.45Z" fill="#B5E3FF"/>
<path opacity="0.7683" d="M330.62 504.89C330.53 505.02 330.34 505.06 330.21 504.96C330.08 504.87 330.04 504.68 330.14 504.55C330.23 504.42 333.46 500.33 333.46 500.33C333.46 500.33 330.71 504.75 330.62 504.89Z" fill="#B5E3FF"/>
<path opacity="0.6824" d="M439.18 341.75C438.92 342.12 438.41 342.21 438.04 341.95C437.67 341.69 437.58 341.18 437.84 340.81C438.1 340.44 446.95 329.23 446.95 329.23C446.95 329.23 439.44 341.38 439.18 341.75Z" fill="#B5E3FF"/>
<path opacity="0.8444" d="M554.71 284.811C554.62 284.941 554.45 284.971 554.32 284.881C554.19 284.791 554.16 284.621 554.25 284.491C554.34 284.361 557.35 280.551 557.35 280.551C557.35 280.551 554.8 284.691 554.71 284.811Z" fill="#B5E3FF"/>
<path opacity="0.5057" d="M320.99 305.87C320.89 306.02 320.69 306.05 320.54 305.95C320.39 305.85 320.36 305.65 320.46 305.5C320.56 305.35 324.04 300.95 324.04 300.95C324.04 300.95 321.09 305.72 320.99 305.87Z" fill="#B5E3FF"/>
<path opacity="0.7706" d="M355.87 489.331C355.1 490.431 353.58 490.701 352.48 489.931C351.38 489.161 351.11 487.641 351.88 486.541C352.65 485.441 378.99 452.091 378.99 452.091C378.99 452.091 356.64 488.231 355.87 489.331Z" fill="#B5E3FF"/>
<path opacity="0.9217" d="M450.13 407.14C449.67 407.8 448.76 407.96 448.11 407.5C447.46 407.04 447.29 406.13 447.75 405.48C448.21 404.82 463.94 384.91 463.94 384.91C463.94 384.91 450.59 406.48 450.13 407.14Z" fill="#B5E3FF"/>
<path opacity="0.5603" d="M447.17 554.64C446.74 555.26 445.89 555.41 445.27 554.97C444.65 554.54 444.5 553.69 444.94 553.07C445.37 552.45 460.15 533.74 460.15 533.74C460.15 533.74 447.61 554.02 447.17 554.64Z" fill="#B5E3FF"/>
<path opacity="0.4748" d="M258.76 564.261C258.66 564.401 258.47 564.431 258.33 564.341C258.19 564.251 258.16 564.051 258.25 563.911C258.35 563.771 261.71 559.521 261.71 559.521C261.71 559.521 258.86 564.121 258.76 564.261Z" fill="#B5E3FF"/>
<path opacity="0.8589" d="M627.63 399.29C627.41 399.6 626.98 399.68 626.67 399.46C626.36 399.24 626.28 398.81 626.5 398.5C626.72 398.19 634.15 388.78 634.15 388.78C634.15 388.78 627.85 398.98 627.63 399.29Z" fill="#B5E3FF"/>
<path opacity="0.9413" d="M252.11 542.431C251.63 543.111 250.7 543.271 250.02 542.801C249.34 542.321 249.18 541.391 249.65 540.711C250.13 540.031 266.39 519.431 266.39 519.431C266.39 519.431 252.59 541.761 252.11 542.431Z" fill="#B5E3FF"/>
<path opacity="0.6152" d="M632.17 495.3C632 495.55 631.66 495.61 631.41 495.43C631.16 495.26 631.1 494.92 631.28 494.67C631.45 494.42 637.36 486.94 637.36 486.94C637.36 486.94 632.35 495.06 632.17 495.3Z" fill="#B5E3FF"/>
<path opacity="0.6612" d="M257.07 392.19C256.7 392.72 255.97 392.85 255.44 392.48C254.91 392.11 254.78 391.38 255.15 390.85C255.52 390.32 268.23 374.23 268.23 374.23C268.23 374.23 257.44 391.66 257.07 392.19Z" fill="#B5E3FF"/>
<path opacity="0.7667" d="M385.75 562.291C385.62 562.471 385.37 562.521 385.19 562.391C385.01 562.261 384.96 562.011 385.09 561.831C385.22 561.651 389.6 556.091 389.6 556.091C389.6 556.091 385.87 562.101 385.75 562.291Z" fill="#B5E3FF"/>
<path opacity="0.9836" d="M401.38 475.03C400.7 476.01 399.35 476.24 398.37 475.56C397.39 474.88 397.16 473.53 397.84 472.55C398.52 471.57 421.93 441.94 421.93 441.94C421.93 441.94 402.07 474.05 401.38 475.03Z" fill="#B5E3FF"/>
<path opacity="0.8035" d="M361.16 352.6C360.98 352.85 360.64 352.91 360.39 352.74C360.14 352.57 360.08 352.22 360.25 351.97C360.43 351.72 366.42 344.13 366.42 344.13C366.42 344.13 361.34 352.35 361.16 352.6Z" fill="#B5E3FF"/>
<path opacity="0.4779" d="M471.03 531.81C470.66 532.33 469.94 532.46 469.42 532.09C468.9 531.72 468.77 531 469.14 530.48C469.51 529.96 482.02 514.12 482.02 514.12C482.02 514.12 471.4 531.29 471.03 531.81Z" fill="#B5E3FF"/>
<path opacity="0.4703" d="M445.11 285.16C445 285.32 444.77 285.36 444.61 285.25C444.45 285.14 444.41 284.91 444.52 284.75C444.63 284.59 448.56 279.62 448.56 279.62C448.56 279.62 445.23 285 445.11 285.16Z" fill="#B5E3FF"/>
<path opacity="0.5676" d="M396.85 436.36C396.09 437.44 394.6 437.7 393.52 436.95C392.44 436.19 392.18 434.7 392.93 433.62C393.68 432.54 419.6 399.73 419.6 399.73C419.6 399.73 397.6 435.28 396.85 436.36Z" fill="#B5E3FF"/>
<path opacity="0.8104" d="M538.68 323.67C538.16 324.42 537.12 324.6 536.37 324.08C535.62 323.56 535.44 322.52 535.96 321.77C536.48 321.02 554.41 298.33 554.41 298.33C554.41 298.33 539.2 322.92 538.68 323.67Z" fill="#B5E3FF"/>
<path opacity="0.5187" d="M206.79 337.561C206.58 337.861 206.16 337.941 205.86 337.721C205.56 337.511 205.48 337.091 205.7 336.791C205.91 336.491 213.17 327.301 213.17 327.301C213.17 327.301 207 337.261 206.79 337.561Z" fill="#B5E3FF"/>
<path opacity="0.8281" d="M163.36 464.331C162.65 465.351 161.24 465.601 160.22 464.881C159.2 464.171 158.95 462.761 159.67 461.741C160.38 460.721 184.8 429.811 184.8 429.811C184.8 429.811 164.07 463.311 163.36 464.331Z" fill="#B5E3FF"/>
<path opacity="0.6672" d="M137.63 306.27C137.01 307.15 135.79 307.37 134.91 306.75C134.03 306.13 133.81 304.91 134.43 304.03C135.05 303.15 156.21 276.36 156.21 276.36C156.21 276.36 138.25 305.39 137.63 306.27Z" fill="#B5E3FF"/>
<path opacity="0.4403" d="M146.65 355.721C146.23 356.321 145.41 356.461 144.82 356.041C144.22 355.621 144.08 354.801 144.5 354.211C144.92 353.611 159.18 335.561 159.18 335.561C159.18 335.561 147.07 355.121 146.65 355.721Z" fill="#B5E3FF"/>
<path opacity="0.8637" d="M233.86 297.861C233.56 298.291 232.96 298.401 232.53 298.091C232.1 297.791 231.99 297.191 232.3 296.761C232.6 296.331 242.96 283.221 242.96 283.221C242.96 283.221 234.16 297.431 233.86 297.861Z" fill="#B5E3FF"/>
<path opacity="0.9537" d="M288.79 533.91C288.48 534.35 287.87 534.46 287.43 534.15C286.99 533.84 286.88 533.23 287.19 532.79C287.5 532.35 298.11 518.91 298.11 518.91C298.11 518.91 289.1 533.47 288.79 533.91Z" fill="#B5E3FF"/>
<path opacity="0.5026" d="M628.11 357.57C627.91 357.85 627.53 357.92 627.25 357.72C626.97 357.52 626.9 357.14 627.1 356.86C627.3 356.58 633.97 348.13 633.97 348.13C633.97 348.13 628.3 357.29 628.11 357.57Z" fill="#B5E3FF"/>
<path opacity="0.8946" d="M600.34 488.56C599.63 489.57 598.24 489.81 597.23 489.11C596.22 488.4 595.98 487.01 596.68 486C597.39 484.99 621.53 454.42 621.53 454.42C621.53 454.42 601.05 487.55 600.34 488.56Z" fill="#B5E3FF"/>
<path opacity="0.4989" d="M621.28 518.84C621.19 518.97 621.01 519 620.88 518.91C620.75 518.82 620.72 518.64 620.81 518.51C620.9 518.38 624.04 514.41 624.04 514.41C624.04 514.41 621.37 518.71 621.28 518.84Z" fill="#B5E3FF"/>
<path opacity="0.4646" d="M398.47 527.791C398.33 527.991 398.06 528.041 397.86 527.901C397.66 527.761 397.61 527.491 397.75 527.291C397.89 527.091 402.66 521.061 402.66 521.061C402.66 521.061 398.61 527.591 398.47 527.791Z" fill="#B5E3FF"/>
<path opacity="0.6396" d="M559.84 388.34C559.15 389.32 557.8 389.56 556.83 388.87C555.85 388.18 555.61 386.83 556.3 385.86C556.99 384.88 580.42 355.21 580.42 355.21C580.42 355.21 560.52 387.36 559.84 388.34Z" fill="#B5E3FF"/>
<path opacity="0.9017" d="M535.16 557.93C535.04 558.1 534.8 558.14 534.63 558.02C534.46 557.9 534.42 557.66 534.54 557.49C534.66 557.32 538.77 552.11 538.77 552.11C538.77 552.11 535.28 557.76 535.16 557.93Z" fill="#B5E3FF"/>
<path opacity="0.4281" d="M125.4 504.05C125.24 504.27 124.93 504.33 124.71 504.17C124.49 504.01 124.43 503.7 124.59 503.48C124.75 503.26 130.13 496.44 130.13 496.44C130.13 496.44 125.55 503.82 125.4 504.05Z" fill="#B5E3FF"/>
<path opacity="0.6241" d="M394.84 491.49C394.75 491.61 394.58 491.64 394.46 491.56C394.34 491.47 394.31 491.3 394.39 491.18C394.48 491.06 397.43 487.32 397.43 487.32C397.43 487.32 394.93 491.36 394.84 491.49Z" fill="#B5E3FF"/>
<path opacity="0.8922" d="M130.76 438.22C130.51 438.57 130.02 438.66 129.67 438.41C129.32 438.16 129.23 437.67 129.48 437.32C129.73 436.97 138.19 426.25 138.19 426.25C138.19 426.25 131.01 437.86 130.76 438.22Z" fill="#B5E3FF"/>
<path opacity="0.5563" d="M359.15 292.58C358.97 292.84 358.61 292.91 358.34 292.72C358.08 292.54 358.01 292.18 358.2 291.91C358.38 291.65 364.65 283.71 364.65 283.71C364.65 283.71 359.33 292.32 359.15 292.58Z" fill="#B5E3FF"/>
<path opacity="0.4674" d="M395.34 368.44C395.01 368.91 394.36 369.02 393.89 368.69C393.42 368.36 393.31 367.71 393.64 367.24C393.97 366.77 405.22 352.53 405.22 352.53C405.22 352.53 395.67 367.97 395.34 368.44Z" fill="#B5E3FF"/>
</g>
</g>
<defs>
<filter id="filter0_ii_231_2760" x="0" y="21.8609" width="388" height="257.139" filterUnits="userSpaceOnUse" color-interpolation-filters="sRGB">
<feFlood flood-opacity="0" result="BackgroundImageFix"/>
<feBlend mode="normal" in="SourceGraphic" in2="BackgroundImageFix" result="shape"/>
<feColorMatrix in="SourceAlpha" type="matrix" values="0 0 0 0 0 0 0 0 0 0 0 0 0 0 0 0 0 0 127 0" result="hardAlpha"/>
<feOffset dy="-9.84397"/>
<feGaussianBlur stdDeviation="24.6099"/>
<feComposite in2="hardAlpha" operator="arithmetic" k2="-1" k3="1"/>
<feColorMatrix type="matrix" values="0 0 0 0 0.14902 0 0 0 0 0.647059 0 0 0 0 0.901961 0 0 0 1 0"/>
<feBlend mode="normal" in2="shape" result="effect1_innerShadow_231_2760"/>
<feColorMatrix in="SourceAlpha" type="matrix" values="0 0 0 0 0 0 0 0 0 0 0 0 0 0 0 0 0 0 127 0" result="hardAlpha"/>
<feOffset dy="-11.1391"/>
<feGaussianBlur stdDeviation="18.4574"/>
<feComposite in2="hardAlpha" operator="arithmetic" k2="-1" k3="1"/>
<feColorMatrix type="matrix" values="0 0 0 0 0.820833 0 0 0 0 0.9355 0 0 0 0 1 0 0 0 1 0"/>
<feBlend mode="normal" in2="effect1_innerShadow_231_2760" result="effect2_innerShadow_231_2760"/>
</filter>
<filter id="filter1_ii_231_2760" x="698" y="-6.13906" width="388" height="257.139" filterUnits="userSpaceOnUse" color-interpolation-filters="sRGB">
<feFlood flood-opacity="0" result="BackgroundImageFix"/>
<feBlend mode="normal" in="SourceGraphic" in2="BackgroundImageFix" result="shape"/>
<feColorMatrix in="SourceAlpha" type="matrix" values="0 0 0 0 0 0 0 0 0 0 0 0 0 0 0 0 0 0 127 0" result="hardAlpha"/>
<feOffset dy="-9.84397"/>
<feGaussianBlur stdDeviation="24.6099"/>
<feComposite in2="hardAlpha" operator="arithmetic" k2="-1" k3="1"/>
<feColorMatrix type="matrix" values="0 0 0 0 0.14902 0 0 0 0 0.647059 0 0 0 0 0.901961 0 0 0 1 0"/>
<feBlend mode="normal" in2="shape" result="effect1_innerShadow_231_2760"/>
<feColorMatrix in="SourceAlpha" type="matrix" values="0 0 0 0 0 0 0 0 0 0 0 0 0 0 0 0 0 0 127 0" result="hardAlpha"/>
<feOffset dy="-11.1391"/>
<feGaussianBlur stdDeviation="18.4574"/>
<feComposite in2="hardAlpha" operator="arithmetic" k2="-1" k3="1"/>
<feColorMatrix type="matrix" values="0 0 0 0 0.820833 0 0 0 0 0.9355 0 0 0 0 1 0 0 0 1 0"/>
<feBlend mode="normal" in2="effect1_innerShadow_231_2760" result="effect2_innerShadow_231_2760"/>
</filter>
<filter id="filter2_ii_231_2760" x="462" y="21.8609" width="388" height="257.139" filterUnits="userSpaceOnUse" color-interpolation-filters="sRGB">
<feFlood flood-opacity="0" result="BackgroundImageFix"/>
<feBlend mode="normal" in="SourceGraphic" in2="BackgroundImageFix" result="shape"/>
<feColorMatrix in="SourceAlpha" type="matrix" values="0 0 0 0 0 0 0 0 0 0 0 0 0 0 0 0 0 0 127 0" result="hardAlpha"/>
<feOffset dy="-9.84397"/>
<feGaussianBlur stdDeviation="24.6099"/>
<feComposite in2="hardAlpha" operator="arithmetic" k2="-1" k3="1"/>
<feColorMatrix type="matrix" values="0 0 0 0 0.14902 0 0 0 0 0.647059 0 0 0 0 0.901961 0 0 0 1 0"/>
<feBlend mode="normal" in2="shape" result="effect1_innerShadow_231_2760"/>
<feColorMatrix in="SourceAlpha" type="matrix" values="0 0 0 0 0 0 0 0 0 0 0 0 0 0 0 0 0 0 127 0" result="hardAlpha"/>
<feOffset dy="-11.1391"/>
<feGaussianBlur stdDeviation="18.4574"/>
<feComposite in2="hardAlpha" operator="arithmetic" k2="-1" k3="1"/>
<feColorMatrix type="matrix" values="0 0 0 0 0.820833 0 0 0 0 0.9355 0 0 0 0 1 0 0 0 1 0"/>
<feBlend mode="normal" in2="effect1_innerShadow_231_2760" result="effect2_innerShadow_231_2760"/>
</filter>
<filter id="filter3_ii_231_2760" x="216" y="16.8609" width="388" height="257.139" filterUnits="userSpaceOnUse" color-interpolation-filters="sRGB">
<feFlood flood-opacity="0" result="BackgroundImageFix"/>
<feBlend mode="normal" in="SourceGraphic" in2="BackgroundImageFix" result="shape"/>
<feColorMatrix in="SourceAlpha" type="matrix" values="0 0 0 0 0 0 0 0 0 0 0 0 0 0 0 0 0 0 127 0" result="hardAlpha"/>
<feOffset dy="-9.84397"/>
<feGaussianBlur stdDeviation="24.6099"/>
<feComposite in2="hardAlpha" operator="arithmetic" k2="-1" k3="1"/>
<feColorMatrix type="matrix" values="0 0 0 0 0.14902 0 0 0 0 0.647059 0 0 0 0 0.901961 0 0 0 1 0"/>
<feBlend mode="normal" in2="shape" result="effect1_innerShadow_231_2760"/>
<feColorMatrix in="SourceAlpha" type="matrix" values="0 0 0 0 0 0 0 0 0 0 0 0 0 0 0 0 0 0 127 0" result="hardAlpha"/>
<feOffset dy="-11.1391"/>
<feGaussianBlur stdDeviation="18.4574"/>
<feComposite in2="hardAlpha" operator="arithmetic" k2="-1" k3="1"/>
<feColorMatrix type="matrix" values="0 0 0 0 0.820833 0 0 0 0 0.9355 0 0 0 0 1 0 0 0 1 0"/>
<feBlend mode="normal" in2="effect1_innerShadow_231_2760" result="effect2_innerShadow_231_2760"/>
</filter>
<filter id="filter4_ii_231_2760" x="914" y="-11.1391" width="388" height="257.139" filterUnits="userSpaceOnUse" color-interpolation-filters="sRGB">
<feFlood flood-opacity="0" result="BackgroundImageFix"/>
<feBlend mode="normal" in="SourceGraphic" in2="BackgroundImageFix" result="shape"/>
<feColorMatrix in="SourceAlpha" type="matrix" values="0 0 0 0 0 0 0 0 0 0 0 0 0 0 0 0 0 0 127 0" result="hardAlpha"/>
<feOffset dy="-9.84397"/>
<feGaussianBlur stdDeviation="24.6099"/>
<feComposite in2="hardAlpha" operator="arithmetic" k2="-1" k3="1"/>
<feColorMatrix type="matrix" values="0 0 0 0 0.14902 0 0 0 0 0.647059 0 0 0 0 0.901961 0 0 0 1 0"/>
<feBlend mode="normal" in2="shape" result="effect1_innerShadow_231_2760"/>
<feColorMatrix in="SourceAlpha" type="matrix" values="0 0 0 0 0 0 0 0 0 0 0 0 0 0 0 0 0 0 127 0" result="hardAlpha"/>
<feOffset dy="-11.1391"/>
<feGaussianBlur stdDeviation="18.4574"/>
<feComposite in2="hardAlpha" operator="arithmetic" k2="-1" k3="1"/>
<feColorMatrix type="matrix" values="0 0 0 0 0.820833 0 0 0 0 0.9355 0 0 0 0 1 0 0 0 1 0"/>
<feBlend mode="normal" in2="effect1_innerShadow_231_2760" result="effect2_innerShadow_231_2760"/>
</filter>
</defs>
</svg>
