<svg width="189" height="183" viewBox="0 0 189 183" fill="none" xmlns="http://www.w3.org/2000/svg">
<g clip-path="url(#clip0_916_6814)">
<ellipse cx="82" cy="176" rx="59" ry="10" fill="#60567C" fill-opacity="0.16"/>
<path d="M110.715 60.7889C103.782 54.1106 104.541 48.9979 106.617 45.732C109.238 41.6084 113.63 37.0288 119.962 37.803C128.985 38.9071 134.93 46.7418 131.807 55.2224C129.941 60.2906 126.485 63.0787 123.318 64.6118C119.761 66.3337 115.851 65.7377 110.715 60.7889Z" fill="#60567C"/>
<path d="M53.3208 60.7889C60.2522 54.1106 59.4936 48.9979 57.4189 45.732C54.7979 41.6084 50.4055 37.0288 44.0733 37.803C35.0499 38.9071 29.1061 46.7418 32.2289 55.2224C34.0949 60.2906 37.5511 63.0787 40.7178 64.6118C44.2744 66.3337 48.1842 65.7377 53.3208 60.7889Z" fill="#60567C"/>
<path d="M50.9781 51.6036C50.9781 54.9147 48.294 57.5977 44.983 57.5977C41.6724 57.5977 38.9883 54.9147 38.9883 51.6036C38.9883 48.2925 41.6724 45.6085 44.983 45.6085C48.294 45.6085 50.9781 48.2925 50.9781 51.6036Z" fill="white"/>
<path d="M124.531 51.6036C124.531 54.9147 121.847 57.5977 118.536 57.5977C115.225 57.5977 112.541 54.9147 112.541 51.6036C112.541 48.2925 115.225 45.6085 118.536 45.6085C121.847 45.6085 124.531 48.2925 124.531 51.6036Z" fill="white"/>
<path d="M120.92 61.9062C120.247 60.5635 119.511 59.2511 118.709 57.974C118.629 57.8469 118.549 57.7218 118.467 57.5967C118.49 57.5967 118.514 57.5967 118.536 57.5967C119.247 57.5967 119.929 57.4726 120.561 57.2456C121.54 57.634 122.54 57.8176 123.512 57.8176C125.78 57.8176 127.894 56.8219 129.224 55.1252C129.224 55.1252 127.489 61.303 120.92 61.9062ZM112.616 50.6492C112.217 50.2799 111.808 49.9198 111.394 49.5697C111.803 49.8391 112.218 50.1599 112.639 50.518C112.631 50.5624 112.623 50.6058 112.616 50.6492Z" fill="#4E4673"/>
<path d="M118.537 57.5977C118.514 57.5977 118.491 57.5977 118.468 57.5977C116.77 54.9869 114.805 52.6721 112.617 50.6511C112.624 50.607 112.631 50.5628 112.639 50.5197C114.272 51.9078 115.995 53.8536 117.826 55.5175C118.687 56.3018 119.615 56.8705 120.563 57.2466C119.929 57.4743 119.247 57.5977 118.537 57.5977Z" fill="#C5C4D5"/>
<path d="M106.43 46.0371C106.429 46.0361 106.428 46.0361 106.427 46.035C106.468 45.969 106.509 45.903 106.551 45.837C106.51 45.903 106.469 45.97 106.43 46.0371Z" fill="#BFBFF7"/>
<path d="M132.342 53.3926C132.06 46.7576 126.58 41.3771 119.059 40.4546C118.558 40.3929 118.069 40.3637 117.59 40.3637C112.941 40.3637 109.382 43.1421 106.843 46.2882C106.705 46.2038 106.568 46.1206 106.43 46.0384C106.47 45.9713 106.51 45.9043 106.551 45.8383C108.969 41.9979 112.926 37.7194 118.563 37.7194C119.017 37.7194 119.485 37.7476 119.961 37.806C128.33 38.8301 134.051 45.6447 132.342 53.3926Z" fill="#9089A4"/>
<path d="M104.111 49.4379C105.218 45.567 107.651 42.1311 110.773 39.5923C113.495 37.3904 117.103 36.321 120.576 36.9326C126.69 37.7643 132.487 42.3698 133.385 48.6934C134.049 52.8171 132.505 56.979 130.075 60.2623C127.602 63.5238 123.914 65.765 119.994 66.7831C118.844 67.0524 118.401 65.3911 119.534 65.0543C123.116 64.1168 126.406 62.1274 128.652 59.1799C130.789 56.2803 132.204 52.5893 131.617 48.967C130.727 42.8081 124.469 38.7018 118.509 38.6745C114.814 38.68 111.651 40.8361 109.279 43.6267C107.674 45.5256 106.36 47.6654 104.926 49.8074C104.655 50.2282 103.974 49.924 104.111 49.4379Z" fill="#232333"/>
<path d="M86.0205 170.193C91.2527 170.951 113.996 179.215 122.684 179.215C130.856 179.215 134.829 170.707 133.805 163.295C132.352 152.783 123.441 153.082 120.421 155.713C120.421 155.713 108.756 149.221 102.064 147.566L86.0205 170.193Z" fill="#60567C"/>
<path d="M77.9784 170.193C72.7467 170.951 50.0036 179.215 41.3155 179.215C33.1434 179.215 29.17 170.707 30.1945 163.295C31.6476 152.783 40.5587 153.082 43.5779 155.713C43.5779 155.713 55.2429 149.221 61.9346 147.566L77.9784 170.193Z" fill="#60567C"/>
<path d="M77.9784 170.192C72.7474 170.951 50.0049 179.213 41.3174 179.213C35.5745 179.213 31.9049 175.014 30.5888 169.946L30.5861 169.941C30.027 167.795 29.8895 165.497 30.195 163.293C31.6465 152.781 40.5574 153.081 43.5779 155.711C43.5779 155.711 55.2435 149.218 61.9359 147.564L74.5188 165.314L77.9784 170.192Z" fill="#60567C"/>
<path d="M77.9784 170.192C72.7474 170.951 50.0049 179.213 41.3174 179.213C35.5745 179.213 31.9049 175.014 30.5888 169.946L30.5861 169.941C30.027 167.795 29.8895 165.497 30.195 163.293C31.6465 152.781 40.5574 153.081 43.5779 155.711C43.5779 155.711 55.2435 149.218 61.9359 147.564L74.5188 165.314L77.9784 170.192Z" fill="#60567C"/>
<path d="M41.3159 178.32C38.4955 178.32 36.0256 177.197 34.1735 175.071C33.617 174.432 33.1264 173.716 32.7051 172.939C33.9201 174.149 35.6758 175.264 38.0207 175.264C38.6031 175.264 39.2205 175.196 39.8761 175.043C45.5759 173.712 46.7165 167.277 46.7165 167.277C46.7165 167.277 49.0034 169.928 51.0836 169.928C51.5697 169.928 52.0451 169.783 52.4766 169.425C53.4099 168.653 53.7164 167.453 53.7169 166.123C53.7175 164.554 53.2928 162.802 52.9672 161.35C53.1401 161.73 53.3294 162.128 53.5355 162.542C53.8825 163.24 54.2791 163.987 54.7302 164.783C56.7997 168.44 58.9813 170.3 60.8283 171.224C60.83 171.225 60.8311 171.226 60.8328 171.227C60.8345 171.227 60.8356 171.228 60.8373 171.228C62.2308 171.924 63.434 172.087 64.2558 172.087C64.9807 172.087 65.4088 171.96 65.4088 171.96C65.8521 172.078 66.3208 172.196 66.8136 172.314C58.3493 174.85 46.7616 178.32 41.3159 178.32Z" fill="#403A6C"/>
<path d="M122.684 178.32C117.243 178.32 105.67 174.855 97.208 172.32C97.7105 172.2 98.188 172.08 98.6396 171.96C98.6396 171.96 99.0672 172.087 99.7921 172.087C101.704 172.087 105.682 171.205 109.317 164.784C109.989 163.599 110.538 162.526 110.986 161.557C110.386 164.22 109.542 167.784 111.523 169.425C111.955 169.783 112.43 169.928 112.916 169.928C114.996 169.928 117.283 167.277 117.283 167.277C117.283 167.277 118.424 173.712 124.123 175.043C124.779 175.196 125.397 175.264 125.979 175.264C128.324 175.264 130.08 174.148 131.295 172.939C130.874 173.715 130.383 174.432 129.827 175.071C127.974 177.196 125.504 178.32 122.684 178.32Z" fill="#4E4673"/>
<path d="M46.7161 164.328C46.7161 164.328 44.9239 156.834 39.0464 156.834C38.5087 156.834 37.9373 156.896 37.3296 157.033C33.76 157.837 31.9368 160.979 31.0059 164.054C31.0262 163.842 31.0513 163.63 31.0808 163.418C31.7961 158.24 34.3111 156.267 36.2949 155.525C37.1562 155.202 38.0395 155.063 38.8837 155.063C40.5791 155.063 42.1146 155.624 42.9904 156.388L43.4639 156.8L44.0128 156.495C44.0213 156.49 44.0914 156.451 44.2166 156.382C45.5386 158.184 46.4711 160.74 46.7161 164.328Z" fill="#A09AB0"/>
<path d="M41.3162 180.107C37.9636 180.107 35.027 178.772 32.8249 176.245C29.9915 172.992 28.6438 167.983 29.3089 163.171C30.1894 156.801 33.6713 154.595 35.6679 153.847C38.6512 152.73 41.8033 153.374 43.6592 154.646C46.0219 153.357 55.7159 148.181 61.7214 146.696L62.1509 148.433C55.6488 150.04 44.1286 156.429 44.0135 156.493L43.4644 156.798L42.9912 156.386C41.6799 155.243 38.8872 154.552 36.2954 155.523C34.3116 156.266 31.7966 158.238 31.0813 163.416C30.4853 167.731 31.6703 172.195 34.1741 175.069C36.0263 177.195 38.4956 178.319 41.3162 178.319C46.7639 178.319 58.3562 174.846 66.8211 172.31C71.9006 170.789 75.9136 169.587 77.8511 169.306L78.108 171.077C76.3001 171.338 72.1454 172.583 67.3342 174.024C58.286 176.735 47.0257 180.107 41.3162 180.107Z" fill="#232333"/>
<path d="M44.246 155.117C46.7129 158.162 47.5132 162.248 47.1205 166.083C47.044 166.656 46.1896 166.573 46.2308 165.991C46.2849 162.957 45.5551 159.744 43.727 157.28C43.6157 157.116 43.4692 156.933 43.3295 156.783L42.9111 156.308C42.0252 155.378 43.4274 154.124 44.246 155.117Z" fill="#232333"/>
<path d="M42.5307 169.425C42.5307 172.081 40.6004 174.234 38.2202 174.234C35.8395 174.234 33.9092 172.081 33.9092 169.425C33.9092 166.768 35.8395 164.615 38.2202 164.615C40.6004 164.615 42.5307 166.768 42.5307 169.425Z" fill="white"/>
<path d="M43.8229 163.142C43.8229 164.117 43.114 164.908 42.2398 164.908C41.3651 164.908 40.6562 164.117 40.6562 163.142C40.6562 162.166 41.3651 161.375 42.2398 161.375C43.114 161.375 43.8229 162.166 43.8229 163.142Z" fill="white"/>
<path d="M35.4928 163.858C35.4928 164.834 34.784 165.625 33.9092 165.625C33.035 165.625 32.3262 164.834 32.3262 163.858C32.3262 162.883 33.035 162.091 33.9092 162.091C34.784 162.091 35.4928 162.883 35.4928 163.858Z" fill="white"/>
<path d="M39.6086 161.899C39.6086 162.981 38.8222 163.859 37.8517 163.859C36.8817 163.859 36.0947 162.981 36.0947 161.899C36.0947 160.816 36.8817 159.938 37.8517 159.938C38.8222 159.938 39.6086 160.816 39.6086 161.899Z" fill="white"/>
<path d="M117.284 164.328C117.529 160.741 118.462 158.184 119.784 156.382C119.909 156.451 119.979 156.49 119.987 156.495L120.536 156.8L121.01 156.388C121.885 155.624 123.421 155.063 125.117 155.063C125.96 155.063 126.844 155.202 127.705 155.525C129.689 156.267 132.203 158.24 132.92 163.418C132.949 163.629 132.973 163.842 132.994 164.054C132.064 160.979 130.241 157.837 126.671 157.033C126.063 156.897 125.491 156.834 124.954 156.834C119.076 156.834 117.284 164.328 117.284 164.328Z" fill="#A09AB0"/>
<path d="M122.685 180.107C116.975 180.107 105.715 176.735 96.667 174.024C91.8563 172.583 87.7008 171.338 85.8936 171.077L86.1503 169.306C88.0874 169.587 92.1003 170.789 97.1805 172.31C105.644 174.846 117.237 178.319 122.685 178.319C125.506 178.319 127.975 177.195 129.827 175.069C132.331 172.195 133.517 167.731 132.919 163.417C132.204 158.238 129.69 156.266 127.705 155.523C125.113 154.552 122.321 155.243 121.01 156.386L120.537 156.799L119.988 156.493C119.872 156.429 108.349 150.04 101.851 148.433L102.279 146.696C108.285 148.181 117.98 153.357 120.342 154.646C122.198 153.375 125.35 152.731 128.333 153.847C130.33 154.595 133.812 156.801 134.692 163.171C135.357 167.983 134.009 172.992 131.176 176.245C128.974 178.772 126.038 180.107 122.685 180.107Z" fill="#232333"/>
<path d="M121.089 156.306C119.904 157.561 119.041 159.086 118.522 160.74C118.255 161.578 118.055 162.447 117.929 163.331C117.805 164.208 117.741 165.125 117.77 165.989C117.792 166.244 117.595 166.469 117.339 166.476C117.106 166.484 116.907 166.309 116.88 166.08C116.672 164.154 116.799 162.266 117.229 160.383C117.655 158.488 118.527 156.633 119.755 155.115C120.57 154.124 121.977 155.372 121.089 156.306Z" fill="#232333"/>
<path d="M121.47 169.423C121.47 172.079 123.4 174.232 125.78 174.232C128.161 174.232 130.091 172.079 130.091 169.423C130.091 166.766 128.161 164.613 125.78 164.613C123.4 164.613 121.47 166.766 121.47 169.423Z" fill="white"/>
<path d="M120.177 163.142C120.177 164.117 120.886 164.908 121.76 164.908C122.635 164.908 123.344 164.117 123.344 163.142C123.344 162.166 122.635 161.375 121.76 161.375C120.886 161.375 120.177 162.166 120.177 163.142Z" fill="white"/>
<path d="M128.507 163.86C128.507 164.836 129.216 165.627 130.091 165.627C130.965 165.627 131.674 164.836 131.674 163.86C131.674 162.884 130.965 162.093 130.091 162.093C129.216 162.093 128.507 162.884 128.507 163.86Z" fill="white"/>
<path d="M124.392 161.899C124.392 162.981 125.179 163.859 126.149 163.859C127.119 163.859 127.906 162.981 127.906 161.899C127.906 160.816 127.119 159.938 126.149 159.938C125.179 159.938 124.392 160.816 124.392 161.899Z" fill="white"/>
<path d="M112.55 153.365C113.601 138.897 102.422 121.554 99.7454 112.721L82.0453 99.967L64.3443 112.721C61.6676 121.554 50.4894 138.897 51.5402 153.365L65.4081 171.96C69.2753 172.984 75.0489 174.084 82.0002 174.084C88.9515 174.084 94.7252 172.984 98.5932 171.96L112.55 153.365Z" fill="white"/>
<path d="M112.551 153.366L98.5913 171.961C94.7244 172.985 88.9515 174.084 82 174.084C75.0494 174.084 69.2756 172.985 65.4087 171.961L58.3885 162.547L51.5411 153.366C51.0783 146.988 52.9899 140.056 55.5028 133.538C58.6903 125.265 62.8465 117.661 64.3444 112.719L82.0466 99.9672L99.7454 112.719C101.243 117.658 105.394 125.251 108.581 133.519C111.1 140.042 113.014 146.983 112.551 153.366Z" fill="white"/>
<path d="M112.552 153.365L101.438 168.167L98.5909 171.959C94.7257 172.984 88.9503 174.082 81.9997 174.082C75.0491 174.082 69.2762 172.984 65.4085 171.959L62.5712 168.156L58.3877 162.547L51.5423 153.365C51.0785 146.989 52.9911 140.055 55.5023 133.538C58.691 125.264 62.8472 117.661 64.3459 112.718L82.0471 99.9678L99.7467 112.718C101.243 117.659 105.393 125.251 108.582 133.518C111.098 140.043 113.014 146.981 112.552 153.365Z" fill="white"/>
<path d="M82 174.082C76.3982 174.082 71.5617 173.369 67.8705 172.556C68.7072 170.086 68.1837 167.131 66.6201 164.129C66.7861 164.166 73.47 165.625 82 165.625C90.6373 165.625 97.3858 164.128 97.3858 164.128L97.4144 164.157C96.3825 166.147 95.8072 168.114 95.7832 169.933C95.7832 169.934 95.7832 169.935 95.7832 169.936C95.7832 169.94 95.7832 169.945 95.7832 169.949C95.7832 169.951 95.7832 169.953 95.7832 169.955C95.7832 169.957 95.7832 169.959 95.7832 169.961C95.7824 169.965 95.7824 169.967 95.7824 169.97V169.971C95.7749 170.87 95.9011 171.734 96.1752 172.545C92.4788 173.363 87.6243 174.082 82 174.082Z" fill="#C5C4D5"/>
<path d="M67.8705 172.557C66.9825 172.362 66.1592 172.159 65.4089 171.961C65.4089 171.961 59.7441 173.639 54.7316 164.785C49.7185 155.93 51.4951 153.366 51.4951 153.366C51.4951 152.491 51.5249 151.603 51.5844 150.706C62.648 155.93 70.1046 165.964 67.8705 172.557Z" fill="#60567C"/>
<path d="M60.8373 171.229C60.8357 171.228 60.8346 171.227 60.833 171.227C60.8341 171.227 60.8357 171.228 60.8373 171.229Z" fill="#2E2A63"/>
<path d="M60.8283 171.223C58.9809 170.299 56.7997 168.439 54.7298 164.782C54.2788 163.985 53.8824 163.239 53.5352 162.541C53.8829 163.239 54.2793 163.985 54.7309 164.783C56.8003 168.439 58.9809 170.299 60.8283 171.223Z" fill="#2E2A63"/>
<path d="M67.87 172.557C67.8625 172.555 67.8556 172.553 67.8487 172.552C66.9691 172.358 66.1516 172.156 65.4083 171.96C65.4083 171.96 64.9794 172.087 64.2545 172.087C63.433 172.087 62.2303 171.924 60.8373 171.229C60.8356 171.228 60.8339 171.228 60.8327 171.227C60.8316 171.226 60.8299 171.226 60.8287 171.224C58.981 170.301 56.8005 168.44 54.7314 164.785C54.2796 163.987 53.8835 163.241 53.5357 162.543C53.3287 162.127 53.1401 161.729 52.9677 161.347C52.6745 160.041 52.4646 158.981 52.7147 158.515C52.7739 158.405 52.8567 158.355 52.9694 158.355C53.9272 158.355 57.0666 161.999 66.6167 164.129C68.1833 167.132 68.707 170.085 67.87 172.557Z" fill="#4E4673"/>
<path d="M96.1782 172.557C97.0672 172.362 97.8895 172.159 98.64 171.961C98.64 171.961 104.305 173.639 109.317 164.785C114.33 155.93 112.553 153.366 112.553 153.366C112.553 152.491 112.523 151.603 112.464 150.706C101.401 155.93 93.9447 165.964 96.1782 172.557Z" fill="#60567C"/>
<path d="M108.581 133.518C100.476 135.073 91.478 132.806 81.9979 132.806C72.5522 132.806 63.5834 135.067 55.5029 133.537C58.6901 125.264 62.8467 117.66 64.3447 112.718L82.0462 99.9661L99.7461 112.718C101.243 117.658 105.394 125.251 108.581 133.518Z" fill="#60567C"/>
<path d="M108.581 133.518C108.581 133.518 96.428 137.484 81.5373 137.484C66.6467 137.484 55.502 133.539 55.502 133.539C56.8731 129.979 58.422 126.545 59.8635 123.395C61.7738 119.216 63.4907 115.536 64.3455 112.719L82.0471 99.9678L99.7462 112.719C100.601 115.536 102.318 119.218 104.226 123.395C105.664 126.541 107.213 129.966 108.581 133.518Z" fill="#60567C"/>
<path d="M82.0477 127.803C74.0149 127.803 66.6099 126.294 60.6787 123.754C61.1828 122.64 61.6893 121.529 62.1911 120.419C64.3414 120.875 66.5005 121.226 68.6162 121.487C71.0304 121.767 73.4549 121.927 75.8802 121.942C76.1685 121.941 76.322 121.719 76.3252 121.497H87.76C87.7623 121.716 87.9136 121.933 88.205 121.942C90.6311 121.939 93.0563 121.779 95.4714 121.499C97.5044 121.243 99.6657 120.891 101.867 120.418C102.367 121.536 102.879 122.65 103.392 123.762C97.4665 126.3 90.0686 127.803 82.0477 127.803Z" fill="#4E4673"/>
<path d="M112.104 153.332C111.914 151.609 111.762 149.813 111.539 148.092C110.864 142.838 109.239 137.782 107.323 132.83C104.782 126.106 101.196 119.823 98.8901 112.979L99.2232 113.445L81.5227 100.692H82.5687L64.8674 113.445L65.2004 112.979C64.6473 114.754 63.9574 116.435 63.2385 118.092C58.5687 128.571 53.1684 139.097 52.2658 150.697C52.2509 151.009 52.1668 151.693 52.1337 152.008C52.0952 152.445 52.0593 152.885 51.9866 153.332C51.9593 153.589 51.7174 153.776 51.4612 153.732C51.2777 153.703 51.1375 153.566 51.0942 153.396C50.9803 152.948 50.9021 152.493 50.8224 152.036C50.7063 151.122 50.6677 150.2 50.6828 149.277C51.229 139.691 55.5208 130.857 59.3969 122.266C60.8467 119.046 62.4279 115.802 63.4883 112.461L63.5844 112.165L63.8223 111.994L81.5227 99.2401L82.0453 98.8629L82.5687 99.2401L100.269 111.994L100.507 112.165C101.048 113.922 101.739 115.652 102.494 117.38C104.653 122.309 107.018 127.135 109.034 132.151C111.351 138.01 113.498 144.26 113.38 150.659C113.326 151.582 113.214 152.499 112.997 153.396C112.939 153.64 112.694 153.79 112.451 153.732C112.256 153.685 112.123 153.52 112.104 153.332Z" fill="#232333"/>
<path d="M43.2191 61.916C36.5648 61.3685 34.8105 55.1267 34.8105 55.1267C36.1395 56.8227 38.2538 57.8188 40.5223 57.8188C41.4146 57.8188 42.3311 57.6652 43.2325 57.3389C43.7862 57.5076 44.3742 57.5975 44.9831 57.5975C45.2399 57.5975 45.4924 57.5814 45.7401 57.5511C44.8183 58.9491 43.9789 60.4068 43.2191 61.916ZM50.9644 51.192C50.9579 51.1011 50.95 51.0092 50.9392 50.9193C51.6433 50.2859 52.3302 49.7394 53.0016 49.3465C52.2965 49.9374 51.6171 50.5536 50.9644 51.192Z" fill="#4E4673"/>
<path d="M44.9829 57.5977C44.3741 57.5977 43.7861 57.5076 43.2324 57.3385C44.2629 56.9653 45.274 56.367 46.2086 55.5176C47.8692 54.0078 49.4426 52.2659 50.939 50.9192C50.9497 51.0092 50.9578 51.1003 50.9642 51.1923C48.9922 53.1193 47.2545 55.2534 45.7399 57.5506C45.4923 57.5816 45.2398 57.5977 44.9829 57.5977Z" fill="#C5C4D5"/>
<path d="M57.6183 46.0605C57.5739 45.9842 57.5284 45.9089 57.4824 45.8346C57.5295 45.9089 57.576 45.9832 57.6215 46.0585C57.6199 46.0585 57.6199 46.0595 57.6183 46.0605Z" fill="#BFBFF7"/>
<path d="M31.6923 53.3926C29.983 45.6447 35.7042 38.8301 44.0727 37.806C44.5494 37.7476 45.0169 37.7194 45.4717 37.7194C51.1074 37.7194 55.0642 41.9957 57.4824 45.8361C57.5284 45.9107 57.5739 45.9854 57.6184 46.0611C57.4813 46.1433 57.345 46.2265 57.2096 46.3098C54.6689 43.1551 51.1036 40.3637 46.4443 40.3637C45.9661 40.3637 45.4766 40.3929 44.9752 40.4546C37.4547 41.3771 31.9742 46.7576 31.6923 53.3926Z" fill="#9089A4"/>
<path d="M59.1086 49.8094C55.8901 44.8198 52.0836 38.7195 45.5256 38.6757C39.5673 38.7031 33.3062 42.8093 32.4181 48.9686C31.6836 53.7549 34.2579 58.8068 37.9344 61.7968C39.8332 63.3405 42.108 64.4173 44.4947 65.0536C44.975 65.1782 45.2629 65.6702 45.135 66.1501C45.0077 66.6278 44.5176 66.911 44.0404 66.7842C41.4355 66.0911 38.9307 64.9104 36.8099 63.1874C35.7501 62.3303 34.793 61.3442 33.9589 60.263C31.5294 56.981 29.9854 52.818 30.6499 48.6942C31.5493 42.3709 37.3438 37.7651 43.4584 36.9331C50.0394 35.8049 55.3893 40.332 58.4127 45.7643C59.0466 46.9341 59.5778 48.1553 59.9229 49.4387C59.9882 49.6814 59.8448 49.9296 59.603 49.9941C59.4109 50.0466 59.2135 49.9657 59.1086 49.8094Z" fill="#232333"/>
<path d="M88.1721 121.496C104.344 120.31 119.632 115.682 124.751 105.362C128.611 97.5838 125.792 89.5786 125.791 89.5669C125.694 89.0995 127.636 56.4254 102.42 44.994C95.3103 41.7718 88.63 40.9102 82.042 40.8326C75.455 40.9102 68.7749 41.7718 61.6653 44.994C36.4491 56.4254 38.3917 89.0995 38.2944 89.5669C38.2933 89.5786 35.4744 97.5838 39.3328 105.362C44.4528 115.682 59.7404 120.31 75.9123 121.496H88.1721Z" fill="white"/>
<path d="M125.123 104.568C125.007 104.832 124.883 105.097 124.752 105.361C119.63 115.682 104.343 120.309 88.1737 121.496H75.9133C59.7403 120.309 44.4532 115.682 39.3317 105.361C39.2017 105.097 39.0765 104.832 38.9615 104.568C35.6616 97.0492 38.2922 89.5784 38.2943 89.5667C38.3906 89.0993 36.4486 56.424 61.6658 44.9947C68.7754 41.7703 75.4565 40.9108 82.0436 40.8311C88.6305 40.9108 95.3088 41.7703 102.421 44.9947C127.636 56.424 125.693 89.0993 125.79 89.5667C125.792 89.5784 128.423 97.0492 125.123 104.568Z" fill="white"/>
<path d="M87.7607 121.496H76.3257C76.3294 121.291 76.2055 121.085 75.9451 121.049C64.7147 119.355 51.4976 117.564 43.1735 109.18C42.1853 108.164 41.3518 107.039 40.667 105.836C46.4123 109.864 59.7108 116.969 82.0414 116.969C104.411 116.969 117.717 109.839 123.447 105.815C122.762 107.033 121.926 108.171 120.931 109.196C112.602 117.636 99.3823 119.303 88.1404 121.049C87.8827 121.093 87.7579 121.295 87.7607 121.496Z" fill="#C5C4D5"/>
<path d="M88.1406 121.05C99.3826 119.304 112.602 117.636 120.93 109.196C125.717 104.263 126.837 96.734 125.007 90.2657C124.957 90.0598 124.863 89.8506 124.838 89.6415L124.855 89.7616C124.835 89.5932 124.826 89.4291 124.832 89.2715L124.833 88.9787L124.835 88.406C124.749 77.4632 122.262 66.1439 115.813 57.1391C110.024 49.0074 100.872 44.1457 91.1297 42.5369C79.2689 40.6321 66.2331 42.1637 56.2275 49.1832C43.8829 57.9231 39.2354 73.8724 39.2017 88.406C39.192 88.8178 39.2354 89.3412 39.1872 89.7531L39.2033 89.6383C39.1942 89.6962 39.1829 89.7552 39.1679 89.812L39.1444 89.8989C37.1799 96.4541 38.2926 104.168 43.1735 109.18C51.4976 117.564 64.7148 119.355 75.9454 121.05C76.4896 121.126 76.434 121.94 75.8802 121.941C73.4556 121.928 71.031 121.766 68.6166 121.487C52.6125 119.51 34.0775 112.425 36.6144 92.9695C36.7647 91.8444 37.0772 90.3301 37.3858 89.4291C37.3832 89.4506 37.3832 89.4731 37.3858 89.4956L37.4019 89.3809C37.3901 89.3927 37.3858 89.4281 37.3874 89.4227L37.3864 89.2822C37.357 86.2502 37.5303 83.1979 37.9139 80.1916C39.8704 64.0632 47.6723 49.2186 63.5265 43.2083C72.354 39.7623 82.1365 39.1842 91.445 40.6729C102.688 42.5444 112.542 48.2309 118.709 57.9746C124.493 67.1778 126.798 78.2204 126.748 88.9948L126.744 89.2822L126.743 89.4227C126.744 89.4259 126.74 89.3863 126.727 89.3723L126.744 89.4924C126.751 89.4506 126.743 89.4066 126.732 89.3669L126.736 89.382C128.225 94.4571 128.113 100.097 125.948 104.973C121.066 115.963 106.428 120.12 95.4712 121.498C93.0559 121.778 90.631 121.939 88.206 121.941C87.6451 121.923 87.6033 121.14 88.1406 121.05Z" fill="#232333"/>
<path d="M99.7544 45.4992C98.2164 42.0737 105.977 42.1134 105.181 38.9602C104.602 36.6666 95.2174 32.8929 88.7327 39.5364C88.7327 39.5364 88.5444 37.7147 88.6737 35.3066C88.8291 32.4211 88.4537 30.0584 87.2157 29.7464C84.7092 29.1158 80.7567 34.4412 72.4834 39.6827C69.2841 41.7096 63.0878 44.7268 60.2041 45.7386L82.6543 59.9941L99.7544 45.4992Z" fill="white"/>
<path d="M62.9195 47.4648L61.0908 46.3023H61.0914L62.9211 47.4638C62.9205 47.4648 62.92 47.4648 62.9195 47.4648Z" fill="white"/>
<path d="M69.7354 41.2793C70.7662 40.7173 71.7121 40.1712 72.4836 39.6827C80.3064 34.7268 84.2659 29.695 86.7933 29.695C86.9393 29.695 87.0801 29.712 87.2164 29.7459C88.4426 30.0557 88.8225 32.3749 88.6789 35.222C88.8225 32.3749 88.4415 30.0557 87.2164 29.7471C87.0801 29.712 86.9388 29.6962 86.7933 29.6962C84.2665 29.6962 80.3069 34.7256 72.4841 39.6827C71.7132 40.1712 70.7679 40.7173 69.7375 41.2782C69.7364 41.2793 69.7364 41.2793 69.7354 41.2793Z" fill="#C8C8F8"/>
<path d="M61.0902 46.3047L60.2031 45.741C62.3918 44.9727 66.4878 43.0494 69.7342 41.2809C69.7352 41.2809 69.7352 41.2809 69.7363 41.2809C66.4894 43.0494 62.3924 44.9727 60.2037 45.741L61.0907 46.3036L61.0902 46.3047Z" fill="#7B7B85"/>
<path d="M104.344 40.9199C104.343 40.9199 104.343 40.9199 104.343 40.9199C104.415 40.8631 104.484 40.8062 104.55 40.7472C104.484 40.8062 104.415 40.8631 104.344 40.9199ZM88.7333 39.5369C88.7333 39.5369 88.6054 38.3059 88.6327 36.5282C88.6065 38.2938 88.7322 39.5216 88.7344 39.5369C88.7344 39.5369 88.7344 39.5369 88.7333 39.5369ZM89.2548 39.0307C91.8579 36.6353 94.8612 35.7979 97.554 35.7979C101.282 35.7979 104.417 37.4017 105.08 38.6984C104.415 37.4017 101.281 35.7979 97.5551 35.7979C94.8612 35.7979 91.8579 36.6353 89.2548 39.0307Z" fill="#C8C8F8"/>
<path d="M62.9208 47.4629L61.091 46.3005L60.2041 45.7374C62.3927 44.9697 66.4898 43.0463 69.7367 41.2779C70.7671 40.7159 71.7124 40.1698 72.4833 39.6813C80.3062 34.7254 84.2656 29.6948 86.7925 29.6948C86.938 29.6948 87.0792 29.7118 87.2157 29.7457C88.4403 30.0544 88.8213 32.3735 88.6777 35.2206C88.6766 35.2489 88.6754 35.2771 88.6732 35.3054C88.6506 35.7328 88.6381 36.1421 88.6313 36.5255C88.6053 38.3029 88.7331 39.5343 88.7331 39.5343C88.905 39.3579 89.0791 39.1906 89.2544 39.0289C91.8584 36.6329 94.8605 35.7961 97.555 35.7961C101.281 35.7961 104.415 37.3984 105.079 38.6953C105.125 38.7846 105.159 38.8717 105.179 38.9576C105.368 39.7028 105.079 40.2681 104.55 40.7442C104.484 40.803 104.415 40.8606 104.343 40.9172C103.135 39.8023 100.456 38.7043 97.3718 38.7043C94.4964 38.7043 91.2682 39.6587 88.5499 42.4436C88.5499 42.4436 88.3622 40.6232 88.4923 38.2136C88.646 35.328 88.2695 32.966 87.0343 32.6539C86.8978 32.62 86.7572 32.603 86.6117 32.603C84.0833 32.603 80.1227 37.6347 72.3014 42.5906C69.9561 44.0753 66.0019 46.0947 62.9208 47.4629Z" fill="white"/>
<path d="M99.3465 45.6834C98.1468 43.8281 99.9532 42.3086 101.484 41.5198L102.263 41.1077C102.765 40.838 103.26 40.5864 103.648 40.2996C103.948 40.081 104.232 39.8238 104.292 39.5142C104.327 39.4402 104.273 39.2148 104.256 39.1704C103.965 38.673 103.345 38.2872 102.766 37.9776C100.383 36.7858 97.5287 36.5104 94.9415 37.0818C92.8221 37.553 90.9007 38.6571 89.3516 40.1846C88.8451 40.7139 87.8862 40.3497 87.844 39.6292C87.6679 37.8228 87.7503 36.0778 87.8119 34.2828C87.8167 33.4496 87.7755 32.6142 87.6177 31.8641C87.5064 31.3872 87.3881 30.9398 87.0875 30.6621C87.026 30.6132 86.9826 30.6132 86.9099 30.5995C86.3401 30.5449 85.6168 30.966 85.0801 31.3109C82.9557 32.753 81.0335 34.5526 78.9726 36.145C77.587 37.2411 76.1639 38.3008 74.6963 39.3002C71.7779 41.3138 68.6038 42.9505 65.4125 44.4781C63.7942 45.2395 62.1993 45.9714 60.5007 46.5838C59.4023 46.9469 58.7817 45.3386 59.9025 44.8981C60.6911 44.6192 61.4915 44.2857 62.2833 43.9397C67.8408 41.5152 73.1501 38.5843 77.863 34.7416C79.2262 33.6671 80.5519 32.5448 81.9285 31.4304C83.419 30.3195 85.322 28.471 87.3903 28.8705C89.8752 29.5432 89.6248 33.6523 89.5542 35.6408C89.4996 36.894 89.5155 38.2155 89.6236 39.4448L88.0938 38.9121H88.0943C91.471 35.1468 97.1611 33.8514 101.92 35.5087C103.766 36.1712 106.558 37.4528 106.128 39.8693C105.639 41.9375 103.129 42.5476 101.515 43.4036C100.65 43.8429 99.8906 44.3028 100.163 45.3169C100.296 45.8121 99.6265 46.1183 99.3465 45.6834Z" fill="#232333"/>
<path d="M65.5868 96.7654C68.7682 95.5299 74.4061 93.7811 74.7617 87.9811C75.1727 81.2551 70.4607 75.8568 64.7725 75.4271C59.3336 75.0161 52.9072 77.1222 47.8439 84.6863C45.0624 88.8415 43.3905 95.3534 47.2335 97.9797C52.1838 101.361 63.062 97.746 65.5868 96.7654Z" fill="#60567C"/>
<path d="M87.154 91.2717C87.1524 92.4183 85.6566 93.4302 84.2831 94.1162C82.8462 94.8347 81.2373 94.8339 79.8019 94.1123C78.43 93.4233 76.9357 92.409 76.9365 91.2624C76.9396 87.804 87.1571 87.8132 87.154 91.2717Z" fill="#232333"/>
<path d="M82.0475 91.5664C81.7451 91.5664 81.4427 91.5146 81.157 91.4103C80.6131 91.2107 80.0197 90.9182 80.0205 90.5876C80.0213 90.0902 81.0298 89.8418 82.0406 89.8418C83.0553 89.8418 84.0722 90.0925 84.0722 90.5921C84.0714 90.922 83.478 91.2137 82.9334 91.4118C82.6493 91.5146 82.3491 91.5664 82.0475 91.5664Z" fill="#919199"/>
<path d="M58.892 64.2174C58.5116 63.4345 62.9558 57.0435 66.8159 57.6366C69.0185 57.9737 69.7702 61.0445 68.0902 62.0739C66.7104 62.9203 59.5489 65.5713 58.892 64.2174Z" fill="#60567C"/>
<path d="M105.143 64.2174C105.525 63.4345 101.08 57.0435 97.2203 57.6366C95.018 57.9737 94.266 61.0445 95.9463 62.0739C97.3252 62.9203 104.487 65.5713 105.143 64.2174Z" fill="#60567C"/>
<path d="M56.8845 94.0952C58.3796 96.8099 61.5096 95.4465 65.106 93.9562C68.6976 92.4675 70.7493 92.0107 70.6375 89.5412C70.4938 86.3873 65.9246 83.822 61.3507 85.1853C56.72 86.5646 55.2617 91.1489 56.8845 94.0952Z" fill="#232333"/>
<path d="M63.9148 85.48C63.1228 85.48 62.3197 85.5935 61.5429 85.8245C59.5409 86.4215 58.0448 87.709 57.3319 89.4504C56.7341 90.9089 56.7869 92.5233 57.4734 93.7684C58.5922 95.8007 60.9259 94.96 64.6405 93.42L64.8491 93.3337C65.3062 93.1443 65.7394 92.9708 66.1454 92.8086C69.0424 91.6506 70.0406 91.1679 69.9679 89.5687C69.9207 88.5417 69.2926 87.5475 68.1969 86.7691C67.0077 85.9236 65.4836 85.48 63.9148 85.48ZM59.4929 96.3066C58.1839 96.3066 57.0642 95.8079 56.2978 94.4158C55.4179 92.819 55.3404 90.7723 56.09 88.9421C56.9611 86.8179 58.7609 85.2539 61.16 84.5386C63.8613 83.7338 66.8559 84.1686 68.9745 85.675C70.413 86.698 71.2426 88.059 71.3081 89.5071C71.428 92.1413 69.5243 92.9029 66.6433 94.0545C66.2421 94.2152 65.8145 94.3854 65.3638 94.5724L65.1544 94.6595C63.1868 95.4747 61.1824 96.3066 59.4929 96.3066Z" fill="#232333"/>
<path d="M68.4795 89.0844C68.6151 90.3508 67.7472 91.4823 66.5401 91.6109C65.3338 91.7404 64.246 90.8187 64.1095 89.5531C63.9746 88.2867 64.8425 87.1552 66.0496 87.0265C67.256 86.8971 68.3446 87.8188 68.4795 89.0844Z" fill="white"/>
<path d="M61.726 89.8086C61.8154 90.6386 61.2458 91.3793 60.4551 91.4648C59.6643 91.5489 58.9514 90.9454 58.8628 90.1153C58.7734 89.2852 59.3422 88.5438 60.1329 88.4598C60.9245 88.375 61.6374 88.9793 61.726 89.8086Z" fill="white"/>
<path d="M63.9672 94.2023C63.9672 94.2023 60.5641 106.272 61.365 119.317C59.8256 120.281 54.9031 118.905 53.9482 117.483C53.0231 116.107 52.2906 102.319 57.8095 94.7712C59.2649 92.7818 63.515 93.3686 63.9672 94.2023Z" fill="#66E9FF"/>
<path d="M61.3652 119.319C59.8235 120.284 54.9033 118.905 53.9477 117.484C53.5721 116.922 53.2263 114.298 53.3245 110.874C53.4643 105.901 54.5397 99.2432 57.8089 94.7715C59.265 92.7836 63.5129 93.3696 63.9666 94.2026C63.9666 94.2026 61.8642 101.659 61.3533 111.188C61.215 113.781 61.1949 116.526 61.3652 119.319Z" fill="#66E9FF"/>
<path d="M60.0592 118.38C59.9913 118.385 59.9164 118.385 59.8365 118.385C57.8458 118.385 55.4274 117.347 55.0085 116.81C54.8682 116.477 54.5525 113.557 54.6802 111.479C56.0765 111.986 57.9886 112.321 60.0969 111.68C59.8812 113.462 59.9869 116.778 60.0592 118.38Z" fill="#66DBFF"/>
<path d="M60.0592 118.38C59.9913 118.385 59.9164 118.385 59.8365 118.385C57.8458 118.385 55.4274 117.347 55.0085 116.81C54.8682 116.477 54.5525 113.557 54.6802 111.479C56.0765 111.986 57.9886 112.321 60.0969 111.68C59.8812 113.462 59.9869 116.778 60.0592 118.38Z" fill="#66DBFF"/>
<path d="M61.256 94.0998C61.1212 94.0998 60.9827 94.1036 60.8413 94.1132C60.1674 94.1572 58.9479 94.3515 58.3508 95.1683C56.1104 98.2321 54.6132 102.948 54.1352 108.448C53.7279 113.127 54.2104 116.641 54.5052 117.111C55.182 118.118 59.0968 119.323 60.6685 118.892C60.0498 107.412 62.6356 96.6626 63.2104 94.4393C62.8627 94.2785 62.1338 94.0998 61.256 94.0998ZM59.8294 120.299C57.4819 120.299 54.2364 119.116 53.3914 117.858C52.1822 116.059 51.7504 101.921 57.2682 94.3761C58.0991 93.2406 59.7862 92.6428 61.7801 92.7753C62.3095 92.811 64.0748 92.9957 64.5573 93.8832C64.6407 94.0365 64.6608 94.2167 64.6139 94.385C64.5804 94.5049 61.25 106.503 62.0348 119.277C62.0497 119.522 61.9298 119.755 61.7213 119.886C61.2612 120.174 60.5926 120.299 59.8294 120.299Z" fill="#25B0D6"/>
<path d="M98.4176 96.7653C95.2374 95.5307 89.5986 93.7816 89.244 87.9811C88.8312 81.2552 93.5436 75.8568 99.2324 75.4271C104.671 75.0161 111.098 77.1226 116.161 84.6874C118.942 88.8414 120.614 95.3538 116.771 97.9794C111.82 101.362 100.943 97.7462 98.4176 96.7653Z" fill="#60567C"/>
<path d="M88.8575 101.656C88.6034 101.656 88.3608 101.512 88.2472 101.266C88.2146 101.196 87.4923 99.6993 85.91 99.6894H85.8987C85.2622 99.6894 84.7648 100.004 84.1894 100.368C83.582 100.753 82.8938 101.189 82.0026 101.189C81.1121 101.189 80.4239 100.753 79.8158 100.368C79.2404 100.004 78.7437 99.6894 78.1072 99.6894H78.0959C76.4902 99.6993 75.7665 101.248 75.7594 101.263C75.6054 101.601 75.2081 101.748 74.8703 101.596C74.5333 101.442 74.3843 101.045 74.5383 100.707C74.5815 100.611 75.6338 98.3626 78.0881 98.3484C78.0945 98.3484 78.1009 98.3484 78.1072 98.3484C79.1325 98.3484 79.8761 98.8195 80.5332 99.2346C81.0525 99.5631 81.501 99.8469 82.0026 99.8469C82.505 99.8469 82.9527 99.5631 83.4728 99.2346C84.1291 98.8195 84.8734 98.3484 85.898 98.3484C85.9044 98.3484 85.9107 98.3484 85.9178 98.3484C88.3714 98.3626 89.4237 100.611 89.4677 100.707C89.6209 101.045 89.4719 101.442 89.1349 101.596C89.0448 101.637 88.9504 101.656 88.8575 101.656Z" fill="#232333"/>
<path d="M82.9341 94.5473C82.9341 94.5473 82.6503 94.9217 82.5338 95.3706C82.3606 96.0421 82.3031 96.8809 82.0444 96.8809C81.7857 96.8809 81.729 96.0421 81.5557 95.3706C81.44 94.9217 81.1562 94.5473 81.1562 94.5473L82.0444 93.8611L82.9341 94.5473Z" fill="#232333"/>
<path d="M58.7559 96.889C57.7627 98.3795 56.5925 101.665 58.1396 102.087C59.8718 102.559 60.1832 99.4344 60.4396 96.5834C60.6483 94.2613 59.5397 95.7114 58.7559 96.889Z" fill="white"/>
<path d="M57.2954 103.96C56.4761 105.031 56.7583 106.443 57.6544 106.597C58.8082 106.796 59.2617 105.81 59.1128 104.717C58.9129 103.245 57.8931 103.179 57.2954 103.96Z" fill="white"/>
<path d="M107.199 94.0937C105.704 96.8079 102.574 95.4443 98.9786 93.9542C95.3868 92.4657 93.3343 92.0084 93.4468 89.5389C93.5896 86.3854 98.1601 83.8198 102.734 85.1835C107.364 86.5627 108.822 91.1472 107.199 94.0937Z" fill="#232333"/>
<path d="M100.17 85.4819C98.6017 85.4819 97.0772 85.9258 95.8875 86.7709C94.7921 87.5496 94.1636 88.5433 94.1168 89.5705C94.0438 91.1697 95.0423 91.6522 97.9396 92.8107C98.3457 92.9732 98.7781 93.1455 99.2352 93.335L99.4444 93.422C103.159 94.9621 105.492 95.8032 106.612 93.7707C107.298 92.5252 107.35 90.9113 106.753 89.4524C106.039 87.7104 104.544 86.4239 102.541 85.8265C101.765 85.5951 100.962 85.4819 100.17 85.4819ZM104.592 96.3086C102.902 96.3086 100.898 95.4774 98.9308 94.6618L98.7215 94.5749C98.2702 94.3878 97.8428 94.2171 97.4415 94.0563C94.5599 92.9043 92.6563 92.1428 92.7769 89.5098C92.8425 88.0608 93.6713 86.6996 95.1104 85.6764C97.229 84.1716 100.224 83.7359 102.925 84.5408C105.324 85.2555 107.124 86.8194 107.994 88.9437C108.744 90.7742 108.666 92.8214 107.787 94.4181C107.02 95.8097 105.9 96.3086 104.592 96.3086Z" fill="#232333"/>
<path d="M95.6046 89.0844C95.4697 90.3508 96.3376 91.4823 97.5448 91.6109C98.7511 91.7404 99.8397 90.8187 99.9746 89.5531C100.111 88.2867 99.2416 87.1552 98.0352 87.0265C96.8281 86.8971 95.7411 87.8188 95.6046 89.0844Z" fill="white"/>
<path d="M102.359 89.8091C102.27 90.6389 102.839 91.38 103.63 91.4647C104.421 91.5495 105.134 90.9451 105.222 90.1152C105.311 89.2862 104.742 88.5443 103.951 88.4596C103.161 88.3756 102.447 88.9792 102.359 89.8091Z" fill="white"/>
<path d="M58.1914 134.295C58.1914 134.295 60.1297 151.43 67.8837 159.12C70.7902 162.002 74.4008 162.153 76.7512 160.821C80.281 158.818 79.7365 153.896 79.2263 151.285C77.8789 144.393 74.3123 136.204 72.5923 130.706L58.1914 134.295Z" fill="#60567C"/>
<path d="M73.7421 159.443C72.5983 159.443 71.3446 159.101 70.117 158.363C64.3226 154.88 59.6992 135.831 59.6992 135.831C59.6992 135.831 65.8336 154.682 71.3561 157.093C72.3651 157.533 73.2376 157.712 73.9893 157.712C77.2503 157.712 78.2377 154.342 78.2377 154.342C78.5745 157.5 76.4687 159.443 73.7421 159.443Z" fill="#4E4673"/>
<path d="M58.5239 134.258C59.6706 139.815 61.1291 145.347 63.4258 150.54C65.6 155.304 69.9649 162.88 76.1513 159.989C80.244 157.702 78.2095 150.945 77.277 147.264C76.1336 143.156 74.623 139.104 73.388 134.998C72.9688 133.619 72.5767 132.226 72.2722 130.807C72.2327 130.625 72.3487 130.446 72.5306 130.406C72.692 130.372 72.8515 130.459 72.9121 130.606C74.0266 133.245 75.1654 135.876 76.2212 138.556C77.2856 141.244 78.2504 143.971 79.0742 146.751C80.4384 151.51 82.4241 158.714 77.1129 161.78C74.9189 162.964 72.1661 162.861 69.9761 161.804C63.4766 158.523 59.9375 147.521 58.6807 140.802C58.2873 138.659 57.9749 136.515 57.8576 134.333C57.8464 133.926 58.4421 133.841 58.5239 134.258Z" fill="#232333"/>
<path d="M76.1484 154.341C77.2806 156.246 78.2153 158.417 78.1349 160.682L76.3859 160.306C76.4214 160.249 76.4524 160.109 76.4765 160.027C76.9102 158.163 76.6373 156.177 76.1484 154.341Z" fill="#232333"/>
<path d="M71.0439 156.075C71.8157 157.88 72.9584 159.642 74.6546 160.678C74.73 160.719 74.8587 160.798 74.9213 160.809L73.9913 162.338C72.1915 160.768 71.3609 158.373 71.0439 156.075Z" fill="#232333"/>
<path d="M105.894 134.297C105.894 134.297 103.955 151.432 96.2003 159.122C93.2949 162.004 89.6837 162.155 87.3341 160.822C83.8032 158.82 84.3476 153.898 84.8583 151.287C86.2058 144.395 89.7728 136.206 91.4921 130.708L105.894 134.297Z" fill="#60567C"/>
<path d="M90.3421 159.443C87.6155 159.443 85.5104 157.5 85.8469 154.342C85.8469 154.342 86.8344 157.711 90.096 157.712C90.8477 157.712 91.7185 157.533 92.7282 157.093C98.2512 154.682 104.386 135.831 104.386 135.831C104.386 135.831 99.7618 154.88 93.968 158.363C92.7393 159.101 91.4859 159.443 90.3421 159.443Z" fill="#4E4673"/>
<path d="M106.226 134.335C105.608 142.656 103.2 152.341 97.7592 158.883C95.2261 162.063 90.7766 163.794 86.9706 161.782C81.658 158.713 83.646 151.514 85.0083 146.753C85.8328 143.974 86.7974 141.247 87.8627 138.558C88.9183 135.878 90.0584 133.248 91.172 130.607C91.3306 130.247 91.8934 130.404 91.8121 130.809C91.5061 132.228 91.114 133.622 90.6961 135C89.4602 139.106 87.9505 143.158 86.8071 147.267C85.8731 150.951 83.8392 157.701 87.9327 159.991C96.4242 163.894 101.777 148.665 103.527 142.564C104.317 139.835 104.999 137.054 105.56 134.26C105.625 133.867 106.245 133.907 106.226 134.335Z" fill="#232333"/>
<path d="M87.9363 154.341C87.4471 156.178 87.1741 158.163 87.6086 160.027C87.6321 160.109 87.664 160.251 87.6986 160.306L85.9492 160.682C85.8688 158.418 86.8041 156.246 87.9363 154.341Z" fill="#232333"/>
<path d="M93.0396 156.075C92.7231 158.372 91.8925 160.768 90.0922 162.338L89.1631 160.809C89.2275 160.796 89.3535 160.72 89.4296 160.678C91.1256 159.642 92.2683 157.88 93.0396 156.075Z" fill="#232333"/>
<path d="M102.919 119.319C104.461 120.284 109.38 118.905 110.335 117.484C110.712 116.923 111.057 114.298 110.96 110.874C110.82 105.902 109.744 99.2441 106.476 94.7717C105.019 92.7843 100.77 93.3702 100.316 94.2033C100.316 94.2033 102.42 101.66 102.932 111.188C103.069 113.782 103.089 116.527 102.919 119.319Z" fill="#66E9FF"/>
<path d="M104.226 118.382C104.292 118.387 104.369 118.387 104.448 118.387C106.439 118.387 108.858 117.349 109.276 116.812C109.416 116.479 109.732 113.559 109.604 111.481C108.208 111.987 106.295 112.323 104.188 111.682C104.403 113.464 104.297 116.78 104.226 118.382Z" fill="#66DBFF"/>
<path d="M103.616 118.891C105.188 119.322 109.103 118.117 109.78 117.109C110.075 116.64 110.557 113.126 110.151 108.448C109.672 102.948 108.175 98.2318 105.934 95.1681C105.337 94.3514 104.118 94.1565 103.444 94.1126C102.385 94.0426 101.477 94.2527 101.074 94.4391C101.651 96.6616 104.235 107.411 103.616 118.891ZM104.455 120.299C103.692 120.299 103.024 120.174 102.564 119.886C102.356 119.755 102.235 119.522 102.25 119.276C103.035 106.502 99.7056 94.5041 99.6719 94.3843C99.6238 94.2164 99.6449 94.0358 99.7276 93.8822C100.21 92.9955 101.975 92.8107 102.505 92.7752C104.5 92.6428 106.187 93.2401 107.018 94.3759C112.534 101.921 112.103 116.059 110.895 117.858C110.049 119.117 106.803 120.299 104.455 120.299Z" fill="#25B0D6"/>
<path d="M105.529 96.8907C106.522 98.3812 107.692 101.668 106.145 102.089C104.413 102.561 104.101 99.4362 103.845 96.5854C103.636 94.2629 104.745 95.7135 105.529 96.8907Z" fill="white"/>
<path d="M106.989 103.96C107.808 105.031 107.526 106.443 106.629 106.597C105.476 106.796 105.023 105.81 105.172 104.718C105.372 103.246 106.391 103.179 106.989 103.96Z" fill="white"/>
<path d="M96.1788 172.557C96.178 172.553 96.1765 172.55 96.1758 172.547C96.1765 172.55 96.178 172.553 96.1788 172.557Z" fill="#201F3C"/>
<path d="M96.1751 172.545C95.9015 171.733 95.7744 170.87 95.7826 169.971C95.7744 170.87 95.9015 171.733 96.1751 172.545Z" fill="#9A98B6"/>
<path d="M96.1781 172.557C96.1773 172.553 96.1764 172.55 96.1748 172.547V172.547C95.9008 171.735 95.7742 170.872 95.7826 169.972C95.7826 169.972 95.7826 169.972 95.7826 169.972C95.7826 169.968 95.7826 169.966 95.7826 169.962C95.7826 169.96 95.7826 169.958 95.7826 169.956C95.7826 169.954 95.7826 169.952 95.7826 169.95C95.7826 169.946 95.7826 169.941 95.7826 169.937C95.7826 169.936 95.7826 169.935 95.7826 169.934C95.8078 168.106 96.3884 166.129 97.4308 164.129C106.982 161.999 110.12 158.355 111.078 158.355C111.191 158.355 111.273 158.405 111.333 158.515C111.584 158.981 111.373 160.041 111.08 161.347C110.619 162.37 110.037 163.513 109.318 164.784C105.683 171.204 101.706 172.087 99.793 172.087C99.0682 172.087 98.64 171.96 98.64 171.96C97.89 172.158 97.0655 172.361 96.1781 172.557Z" fill="#4E4673"/>
<path d="M65.5223 171.527C70.91 172.368 76.5507 173.159 82.0001 173.097C87.4525 173.157 93.0879 172.357 98.4786 171.527C98.9922 171.45 99.214 172.193 98.7072 172.391C89.8446 175.649 78.5038 175.769 69.3508 173.64C67.9753 173.304 66.6158 172.899 65.2929 172.391C64.8052 172.2 64.9904 171.449 65.5223 171.527Z" fill="#232333"/>
<path d="M75.0596 89.6934C78.3597 86.6572 83.7068 86.3203 87.5271 88.5654C88.0676 88.8904 88.5924 89.2453 89.0342 89.6934C88.4569 89.4544 87.8851 89.2422 87.3038 89.0667C83.2986 87.7397 78.9253 88.0405 75.0596 89.6934Z" fill="#232333"/>
</g>
<defs>
<clipPath id="clip0_916_6814">
<rect width="214" height="214" fill="white" transform="translate(-25)"/>
</clipPath>
</defs>
</svg>