<svg width="219" height="324" fill="none" xmlns="http://www.w3.org/2000/svg"><path d="m117.835 263.06-.576-.333a3.3 3.3 0 1 1-5.719-3.297 3.3 3.3 0 0 1 5.719 3.297l.576.333.579.333a4.636 4.636 0 0 0-2.994-6.835 4.637 4.637 0 0 0-5.541 3.5 4.636 4.636 0 0 0 3.5 5.54 4.632 4.632 0 0 0 5.035-2.205l-.579-.333ZM108.965 269.171l-19.37 33.591 1.154.667 19.371-33.593M138.052 218.732l-19.231 33.348 1.155.666 19.231-33.349M104.214 261.226l-38.215 3.057.107 1.328 38.215-3.055M162.695 256.548l-38.219 3.057.107 1.328 38.217-3.056M117.953 270.082l16.715 35.066 1.204-.574-16.715-35.066M92.93 217.585l16.682 35 1.203-.574-16.682-34.999M74.498 284.858l-5.305 3.267.698 1.135 5.306-3.265M101.617 268.168l-21.355 13.144.699 1.136 21.355-13.144M148.005 239.615l-21.822 13.432.699 1.135 21.821-13.432M158.908 232.899l-4.521 2.782.699 1.136 4.521-2.782M73.612 240.497l-6.288-3.059-.583 1.199 6.287 3.059M102.033 254.324l-22.99-11.182-.584 1.198 22.99 11.183M150.493 277.898l-22.928-11.153-.583 1.199 22.928 11.153M162.061 283.523l-5.451-2.651-.583 1.2 5.451 2.651M111.366 307.341l-.323 6.313 1.333.067.322-6.312M112.976 275.877l-1.305 25.498 1.331.067 1.306-25.498M115.788 220.91l-1.319 25.762 1.331.069 1.319-25.764M116.24 212.052l-.105 2.04 1.333.068.103-2.04" fill="#F1425A"/><path d="m116.426 208.44-.291 5.682 1.331.068.291-5.682" fill="#F1425A"/><path d="M99.91 106.943c-.865.043-1.77.186-2.655.112-2.378-.203-3.762-2.119-3.318-4.459.22-1.149.778-2.168 1.24-3.223.434-.992 1.021-1.957.703-3.111-.162-.592.293-.781.626-1.059.518-.43.882-.372 1.159.293.396.951.305 1.904.011 2.827-.268.853-.68 1.658-1.02 2.489-.265.652-.577 1.295-.754 1.973-.353 1.37.286 2.29 1.711 2.341 1.017.036 2.043-.137 3.063-.245.701-.075 1.39-.205 2.104-.141 2.797.248 4.223 2.255 3.466 4.979-.221.797-.607 1.55-.922 2.32-.269.653-.61 1.283-.809 1.954-.5 1.676.196 2.666 1.937 2.661 1.019-.004 2.038-.208 3.052-.351 1.295-.183 2.566-.182 3.747.473.375.209.941.456.794.941-.167.547-.825 1.13-1.305.883-1.864-.96-3.665-.077-5.485-.027-.385.011-.772.051-1.155.028-2.658-.158-4.171-2.178-3.566-4.784.28-1.194.904-2.259 1.378-3.38.422-1.003 1.034-2.063.226-3.08-.791-.996-1.97-.712-3.053-.583-.381.046-.762.109-1.174.169ZM132.061 93.165c-.196-.455-.109-.727.197-.936 1.581-1.098 3.159-2.203 4.744-3.295.442-.303.811-.246 1.134.23 1.047 1.539 2.121 3.061 3.179 4.59.382.549.183.918-.334 1.267-1.49 1.005-2.955 2.046-4.43 3.071-.338.236-.75.412-1.027.025-1.201-1.667-2.356-3.364-3.463-4.952Z" fill="#737AB4"/><path d="M68.994 60.875c-2.266.566-4.144 2.053-5.588 3.805-1.453 1.765-2.574 3.796-3.421 5.924-.883 2.119-1.5 4.346-1.888 6.61a25.754 25.754 0 0 0-.371 3.43 19.803 19.803 0 0 0 .116 3.461c-.516-2.27-.48-4.645-.185-6.957.303-2.317.936-4.585 1.795-6.762.908-2.15 2.05-4.237 3.619-5.995.786-.871 1.67-1.665 2.666-2.29 1-.61 2.105-1.068 3.257-1.226Z" fill="#E3DFE9"/><path d="M64.27 62.127c1.513-1.608 3.422-3.164 3.795-2.978.375.191.254 2.651-.144 4.822-.422 2.301-5.252-.139-3.65-1.844Z" fill="#C655CB"/><path d="M104.804 39.378c-5.947 11.768-25.747 27.257-37.517 21.311-11.769-5.944-11.052-31.074-5.106-42.842C68.125 6.076 82.488 1.355 94.256 7.3c11.771 5.946 16.492 20.307 10.548 32.078Z" fill="#C655CB"/><path d="M101.154 42.259c-5.492 9.926-23.292 22.439-32.832 17.16-9.536-5.277 6.855-4.09 12.347-14.016 5.493-9.927 10.174-15.528 17.315-16.537 10.949-1.548 8.663 3.464 3.17 13.393Z" fill="#BD4DC2"/><path d="m89.657 12.78-.102-.025a20.549 20.549 0 0 0-1.378-.323l-.069-.014a2.603 2.603 0 0 1-1.978-3.042 2.603 2.603 0 0 1 3.058-2.046c.567.112 1.143.248 1.71.4a2.6 2.6 0 0 1-1.242 5.05ZM68.038 21.363l-.102-.025a2.602 2.602 0 0 1-1.84-3.184c1.761-6.566 9.92-11.628 15.364-11.167a2.601 2.601 0 1 1-.44 5.184c-3.204-.273-8.865 3.473-9.898 7.33a2.6 2.6 0 0 1-3.084 1.862Z" fill="#EFF2F3"/></svg>