<svg width="232" height="265" fill="none" xmlns="http://www.w3.org/2000/svg"><path d="M178.626 250.278c-.921-.215-1.693-.888-2.43-1.61-.735-.718-1.409-1.505-2.189-2.165-1.569-1.33-2.813-.956-3.485 1.011-.206.604-.321 1.241-.463 1.866-.197.88-.437 1.741-.837 2.556-1.155 2.344-3.427 2.967-5.614 1.53-.813-.533-1.433-1.276-2.124-1.941-.949-.912-1.742-2.339-3.3-1.953-1.592.396-1.563 2.032-1.875 3.304-.247 1.002-.504 1.995-.957 2.921-1.055 2.156-3.277 2.806-5.341 1.579-.949-.566-1.663-1.402-2.426-2.18-.804-.819-1.527-1.764-2.775-1.958-.556-.086-.673-.53-.791-.964-.168-.621-.007-1.007.727-.965 1.064.057 2.011.422 2.796 1.139.663.605 1.267 1.271 1.917 1.892.461.443.909.92 1.434 1.274 1.123.758 2.062.506 2.71-.68.371-.679.582-1.423.752-2.177.184-.813.338-1.642.62-2.423 1.048-2.876 3.751-3.674 6.166-1.801.806.625 1.472 1.426 2.216 2.132.827.785 1.579 1.884 2.907 1.529 1.315-.351 1.48-1.652 1.79-2.753.246-.864.373-1.764.657-2.614 1.073-3.204 3.917-4.03 6.497-1.868.929.78 1.711 1.737 2.609 2.559 1.762 1.614 3.125 1.262 3.841-1.004.31-.977.47-1.999.737-2.991.288-1.068.75-2.055 1.645-2.763.337-.265.767-.711 1.165-.391.456.363.735 1.209.353 1.551-1.613 1.439-1.465 3.497-2.076 5.281-.877 2.57-2.556 3.687-4.856 3.077ZM59.348 4.976c-.086.133-.215.352-.363.559-.967 1.352-1.975 2.677-2.891 4.063-.474.716-.901.759-1.549.28a156.156 156.156 0 0 0-4.203-3.027c-.592-.41-.731-.76-.26-1.387a129.418 129.418 0 0 0 3.01-4.214c.434-.627.83-.845 1.533-.305 1.37 1.051 2.804 2.015 4.2 3.03.297.217.683.412.523 1ZM150.795 104.041a2.65 2.65 0 0 0-2.121-3.123 2.612 2.612 0 0 0-3.031 1.997c-.346 1.483.511 2.848 1.999 3.175 1.464.321 2.859-.585 3.153-2.049Zm-1.543-4.983c2.54.597 4.037 3.07 3.39 5.605-.626 2.461-2.97 3.869-5.482 3.296-2.579-.588-4.027-2.976-3.379-5.574.61-2.456 2.998-3.906 5.471-3.327Z" fill="#737AB4"/><path d="M60.553 149.63a12.178 12.178 0 0 0-3.618 5.019c-.75 1.936-1.084 4.013-1.132 6.09-.058 2.079.172 4.165.56 6.219a32.04 32.04 0 0 0 .74 3.05c.281 1.011.63 2.003 1.001 2.989-.485-.937-.885-1.915-1.252-2.906a31.56 31.56 0 0 1-.896-3.047 24.948 24.948 0 0 1-.694-6.32c.062-2.124.423-4.273 1.292-6.234.432-.976.98-1.904 1.65-2.732a10.751 10.751 0 0 1 2.35-2.128Z" fill="#E3DFE9"/><path d="M57.763 155.868c.398-2.026 1.137-4.209 1.527-4.245.39-.036 1.52 1.974 2.283 3.891.809 2.035-4.232 2.502-3.81.354Z" fill="#F3B03E"/><path d="M78.577 117.682c1.14 12.285-6.852 34.408-19.138 35.548-12.286 1.14-24.211-19.134-25.35-31.419-1.14-12.286 7.894-23.17 20.18-24.309 12.285-1.14 23.169 7.895 24.308 20.18Z" fill="#F3B03E"/><path d="M77.118 121.781c.581 10.6-7.306 29.369-17.49 29.928-10.186.559 3.399-6.651 2.816-17.249-.584-10.6.343-17.367 5.502-21.719 7.908-6.668 8.59-1.56 9.172 9.04Z" fill="#ED9F34"/><path d="M50.598 104.693a2.434 2.434 0 0 1-.331-4.648c.51-.194 1.032-.374 1.554-.533a2.434 2.434 0 0 1 1.431 4.651 21.3 21.3 0 0 0-1.254.431 2.42 2.42 0 0 1-1.4.099ZM39.137 121.765a2.433 2.433 0 0 1-1.791-1.659c-1.87-6.08 2.08-14.149 6.625-16.491a2.435 2.435 0 0 1 2.23 4.328c-2.677 1.378-5.302 7.16-4.202 10.732a2.434 2.434 0 0 1-2.862 3.09Z" fill="#EFF2F3"/></svg>