<svg width="363" height="391" fill="none" xmlns="http://www.w3.org/2000/svg"><path fill-rule="evenodd" clip-rule="evenodd" d="M242.949 156.93c.4-1.349.683-2.718.85-4.105a56.27 56.27 0 0 0 13.99-10.145 54.391 54.391 0 0 0 2.005-2.217c5.838-7.049 8.378-15.164 7.62-24.347a59.83 59.83 0 0 0-.944-6.747 390.191 390.191 0 0 1-.896-4.105 285.19 285.19 0 0 0-1.887-15.146 156.554 156.554 0 0 0-2.997-13.825c-.671-2.705-1.34-5.41-2.005-8.116-.105-.403.013-.717.354-.944.387-.165.733-.103 1.038.189l.873 1.651a141.696 141.696 0 0 0 9.625-24.677 60.756 60.756 0 0 0 1.841-9.295 21.054 21.054 0 0 0-.095-5.238 5.662 5.662 0 0 0-.778-2.028 4.722 4.722 0 0 0-2.076-1.675 14.56 14.56 0 0 0-3.681-.991 41.874 41.874 0 0 0-8.163-.189c-5.992.48-11.906 1.44-17.741 2.878-3.646.87-7.247 1.892-10.805 3.067.4.227.55.564.448 1.015-.219.49-.589.656-1.108.495a91.208 91.208 0 0 0-25.904-6.889 88.148 88.148 0 0 0-7.078-.542 102.498 102.498 0 0 0-33.218 4.081 82.657 82.657 0 0 0-8.917 3.397c-.806.017-1.113-.368-.92-1.156a.923.923 0 0 1 .448-.4 130.317 130.317 0 0 0-24.489-5.569 63.501 63.501 0 0 0-9.767-.424c-1.939.07-3.826.415-5.662 1.038a6.42 6.42 0 0 0-2.194 1.439c-.097.12-.183.246-.259.377a6.52 6.52 0 0 0-.921 2.737 26.114 26.114 0 0 0 .284 6.7 79.72 79.72 0 0 0 2.689 10.947 146.558 146.558 0 0 0 8.399 20.714c.047.062.094.062.141 0l.708-1.416c.296-.336.65-.415 1.062-.236.345.179.479.462.401.85-1.17 4.632-2.318 9.272-3.445 13.919a156.934 156.934 0 0 0-2.548 14.816c-.326 2.91-.656 5.819-.99 8.729a171.514 171.514 0 0 0-1.463 7.172c-.915 5.76-.505 11.422 1.227 16.986a32.074 32.074 0 0 0 6.252 10.946 48.232 48.232 0 0 0 9.248 8.234 66.822 66.822 0 0 0 6.464 3.846c.048.049.08.112.094.188.181 1.325.449 2.63.802 3.917a72.707 72.707 0 0 1-13.07-7.951 43.35 43.35 0 0 1-10.97-12.952c-3.005-5.73-4.342-11.832-4.011-18.307a60.077 60.077 0 0 1 1.015-8.187c.328-1.634.682-3.262 1.062-4.883a239.417 239.417 0 0 1 2.547-17.694c.77-3.928 1.76-7.797 2.973-11.608.3-.828.607-1.653.92-2.477a151.495 151.495 0 0 1-10.923-26.87 66.484 66.484 0 0 1-1.982-9.58 24.66 24.66 0 0 1 .048-6.794 8.954 8.954 0 0 1 1.934-4.388 9.817 9.817 0 0 1 4.176-2.43 25.8 25.8 0 0 1 6.228-.99 71.776 71.776 0 0 1 13.778.943 143.532 143.532 0 0 1 24.064 6.11 67.583 67.583 0 0 1 22.978-6.535 111.187 111.187 0 0 1 15.901-.471 79.682 79.682 0 0 1 19.393 2.972 66.735 66.735 0 0 1 10.357 4.034 143.752 143.752 0 0 1 22.53-5.874 92.49 92.49 0 0 1 9.578-1.133 76.394 76.394 0 0 1 6.559 0c2.133.125 4.209.535 6.228 1.227 2.518.851 4.178 2.542 4.978 5.072.58 2.232.753 4.497.519 6.795a53.896 53.896 0 0 1-1.698 9.531 129.638 129.638 0 0 1-5.615 16.184 232.29 232.29 0 0 1-3.02 6.795l-2.713 5.52a88.265 88.265 0 0 1 3.751 13.684 208.996 208.996 0 0 1 1.84 11.654c.243 2.125.494 4.248.755 6.37.399 1.921.808 3.84 1.227 5.756 2.964 15.664-1.715 28.49-14.037 38.479a65.836 65.836 0 0 1-13.212 8.092Z" fill="#010072"/><path fill-rule="evenodd" clip-rule="evenodd" d="M195.434 25.004c-2.376 9.69-1.739 19.174 1.911 28.452 4.603 10.879 12.223 18.892 22.86 24.04 9.199 4.201 18.762 5.286 28.688 3.256a46.248 46.248 0 0 0 11.749-4.27.226.226 0 0 0 .047-.189 156.19 156.19 0 0 1 2.996 13.825 284.287 284.287 0 0 1 1.888 15.146c.291 1.37.59 2.738.896 4.105.442 2.23.757 4.48.944 6.747.758 9.183-1.782 17.299-7.62 24.347a.405.405 0 0 0-.189.024 108.503 108.503 0 0 1-15.288 7.054 1.235 1.235 0 0 1-.047-.472 78.245 78.245 0 0 0-1.533-18.638 48.32 48.32 0 0 0-4.294-12.22 48.534 48.534 0 0 0-1.581-2.643c1.566-2.3 2.219-4.848 1.959-7.643-.719-4.855-3.275-8.37-7.668-10.546-3.999-1.828-8.12-2.159-12.362-.99a14.065 14.065 0 0 0-6.488 3.986 8.705 8.705 0 0 0-2.123 4.624c-.321 2.733.678 4.817 2.996 6.252.685.413 1.393.791 2.123 1.132a428.238 428.238 0 0 0 7.314 2.997 29.443 29.443 0 0 1 2.477 5.945 65.333 65.333 0 0 1 2.312 13.164c.328 4.225.454 8.456.377 12.693a290.592 290.592 0 0 1-.212 7.549c-22.644 5.467-45.387 5.868-68.228 1.203a295.47 295.47 0 0 1-5.096-1.156 427.5 427.5 0 0 0-.165-5.992 148.91 148.91 0 0 1 .519-15.948 57.245 57.245 0 0 1 2.642-12.976 33.27 33.27 0 0 1 1.888-4.341.484.484 0 0 0 .118-.094l7.219-2.949a15.544 15.544 0 0 0 3.303-1.935c1.568-1.4 2.252-3.153 2.052-5.261-.209-1.959-.98-3.657-2.312-5.096-2.269-2.27-4.997-3.678-8.186-4.223-4.125-.674-8.01.003-11.655 2.03-3.554 2.142-5.7 5.264-6.44 9.365-.432 2.947.174 5.653 1.816 8.116a39.453 39.453 0 0 0-4.742 10.333 69.921 69.921 0 0 0-2.736 17.977c-.032 1.888-.024 3.775.023 5.662v.189a107.5 107.5 0 0 1-15.335-6.983A32.076 32.076 0 0 1 116 129.705c-1.733-5.563-2.142-11.225-1.227-16.986.437-2.401.924-4.791 1.463-7.172.334-2.909.664-5.82.99-8.729.613-4.98 1.462-9.919 2.548-14.816 1.127-4.647 2.275-9.286 3.445-13.919.078-.388-.056-.67-.401-.85.05-.244.129-.48.236-.707.226-.034.43-.12.613-.26.231-.278.443-.568.637-.873 1.855-3.27 3.759-6.51 5.709-9.72 2.17-3.458 4.451-6.84 6.842-10.144a6.97 6.97 0 0 0 .896-4.53 7.548 7.548 0 0 0-1.557-2.878 18.134 18.134 0 0 0-2.76-2.406c-.003-.153-.082-.239-.236-.26a32.651 32.651 0 0 0-5.237-3.774 37.674 37.674 0 0 0-8.918-3.54 21.474 21.474 0 0 0-6.511-.613c-.679.065-1.347.183-2.006.354-.048-.016-.072-.047-.07-.094.075-.132.162-.257.259-.378a6.42 6.42 0 0 1 2.194-1.439 19.724 19.724 0 0 1 5.662-1.038c3.266-.11 6.522.032 9.767.425a130.325 130.325 0 0 1 24.489 5.568.93.93 0 0 0-.449.4c-.192.789.115 1.174.921 1.157a82.657 82.657 0 0 1 8.917-3.397 102.498 102.498 0 0 1 33.218-4.082Z" fill="#FEFEFE"/><path fill-rule="evenodd" clip-rule="evenodd" d="M271.543 27.836c.006.042-.009.073-.047.094a12.392 12.392 0 0 0-2.312-.4 33.002 33.002 0 0 0-2.501 0c-.934.083-1.862.208-2.784.377a36.586 36.586 0 0 0-9.507 3.562.412.412 0 0 1-.401.213c-.879.55-1.759 1.1-2.643 1.651l-.33.33-.189.048a37.241 37.241 0 0 1-1.982 1.65.864.864 0 0 0-.141.213 23.38 23.38 0 0 0-2.855 2.454 10.301 10.301 0 0 0-1.415 2.217c-.48 1.565-.37 3.09.33 4.577.161.338.334.668.519.991a165.444 165.444 0 0 1 8.304 12.551 861.536 861.536 0 0 0 4.247 7.314c.161.255.358.484.59.684.132.082.274.137.424.165.111.222.174.458.189.708-.341.226-.459.54-.354.943.666 2.707 1.334 5.412 2.006 8.116a.23.23 0 0 1-.048.189 46.252 46.252 0 0 1-11.748 4.27c-9.927 2.03-19.49.945-28.688-3.256-10.637-5.148-18.258-13.161-22.861-24.04-3.65-9.278-4.287-18.762-1.911-28.452 2.366.086 4.726.267 7.078.543a91.2 91.2 0 0 1 25.904 6.889c.519.16.889-.005 1.109-.496.101-.45-.048-.788-.449-1.014a132.073 132.073 0 0 1 10.806-3.067 110.916 110.916 0 0 1 17.741-2.879 41.878 41.878 0 0 1 8.163.19c1.272.169 2.498.499 3.68.99.856.361 1.548.92 2.076 1.675Z" fill="#FE6F04"/><path fill-rule="evenodd" clip-rule="evenodd" d="M271.541 27.835c.389.621.648 1.297.779 2.03.25 1.74.281 3.486.094 5.237a60.635 60.635 0 0 1-1.84 9.295 141.7 141.7 0 0 1-9.625 24.677l-.873-1.651c-.306-.292-.651-.355-1.038-.19a1.823 1.823 0 0 0-.189-.707c.41.066.749-.06 1.014-.377a51.809 51.809 0 0 0 4.766-9.296 98.074 98.074 0 0 0 5.096-17.74c.411-2.12.584-4.26.519-6.418-.062-1.17-.636-1.965-1.722-2.383a6.417 6.417 0 0 0-1.605-.33 26.96 26.96 0 0 0-2.264 0 40.008 40.008 0 0 0-9.815 2.407 29.867 29.867 0 0 0-6.134 3.184.898.898 0 0 1 .142-.212 37.646 37.646 0 0 0 1.982-1.651l.188-.047.331-.33 2.642-1.652a.411.411 0 0 0 .401-.213 36.585 36.585 0 0 1 9.508-3.562c.922-.168 1.85-.294 2.783-.377a33.002 33.002 0 0 1 2.501 0c.785.06 1.556.194 2.312.4.038-.021.054-.052.047-.094Z" fill="#CC5A15"/><path fill-rule="evenodd" clip-rule="evenodd" d="M133.435 35.715a29.914 29.914 0 0 0-7.503-3.75 39.356 39.356 0 0 0-8.87-1.982 15.985 15.985 0 0 0-2.831.094 3.565 3.565 0 0 0-1.958 1.014 3.521 3.521 0 0 0-.567 1.605c-.041 1.056-.01 2.11.095 3.161a77.875 77.875 0 0 0 2.359 11.56 84.609 84.609 0 0 0 5.19 13.967 39.599 39.599 0 0 0 2.855 4.883c.242.214.525.301.849.26a3.115 3.115 0 0 0-.236.707c-.411-.178-.765-.1-1.061.236l-.708 1.416c-.047.063-.094.063-.142 0a146.553 146.553 0 0 1-8.398-20.714 79.723 79.723 0 0 1-2.69-10.947 26.158 26.158 0 0 1-.283-6.7 6.518 6.518 0 0 1 .92-2.736c-.001.047.022.078.071.094a12.77 12.77 0 0 1 2.005-.354 21.48 21.48 0 0 1 6.512.613 37.65 37.65 0 0 1 8.917 3.54 32.704 32.704 0 0 1 5.238 3.774c.154.02.233.107.236.26Z" fill="#CCC4CF"/><path fill-rule="evenodd" clip-rule="evenodd" d="M133.434 35.717a18.134 18.134 0 0 1 2.76 2.407 7.548 7.548 0 0 1 1.557 2.878 6.97 6.97 0 0 1-.896 4.53 185.084 185.084 0 0 0-6.842 10.144 374.315 374.315 0 0 0-5.709 9.72 8.574 8.574 0 0 1-.637.873 1.331 1.331 0 0 1-.613.26 1.03 1.03 0 0 1-.85-.26 39.727 39.727 0 0 1-2.854-4.884 84.705 84.705 0 0 1-5.191-13.966 78.134 78.134 0 0 1-2.359-11.56 22.857 22.857 0 0 1-.094-3.162c.058-.584.247-1.119.566-1.604a3.565 3.565 0 0 1 1.958-1.014 15.988 15.988 0 0 1 2.831-.095c3.034.318 5.99.98 8.871 1.982a29.907 29.907 0 0 1 7.502 3.751Z" fill="#020072"/><path fill-rule="evenodd" clip-rule="evenodd" d="M258.848 66.528a1.22 1.22 0 0 1-.424-.166 3.033 3.033 0 0 1-.59-.684 858.42 858.42 0 0 1-4.247-7.313 165.444 165.444 0 0 0-8.304-12.551 14.736 14.736 0 0 1-.519-.991c-.7-1.487-.81-3.012-.33-4.577.379-.802.85-1.541 1.415-2.218.891-.9 1.843-1.717 2.855-2.453a29.836 29.836 0 0 1 6.134-3.185 39.99 39.99 0 0 1 9.814-2.406 27.07 27.07 0 0 1 2.265 0 6.415 6.415 0 0 1 1.604.33c1.086.417 1.66 1.212 1.722 2.383a29.022 29.022 0 0 1-.519 6.417 97.993 97.993 0 0 1-5.096 17.74 51.804 51.804 0 0 1-4.765 9.296 1.03 1.03 0 0 1-1.015.378Z" fill="#020071"/><path fill-rule="evenodd" clip-rule="evenodd" d="M118.854 54.354c.876.41 1.788.716 2.737.92 1.944.193 3.163-.649 3.657-2.525.385-.792.763-1.594 1.132-2.406.311-.548.617-1.099.92-1.652.122-.13.224-.272.307-.424.253-.523.521-1.042.802-1.557a9.036 9.036 0 0 0 1.18-2.69 2.756 2.756 0 0 0-.142-1.651 8.1 8.1 0 0 0-.684-.991.235.235 0 0 1-.142-.024 1.417 1.417 0 0 0-.283-.33 21.337 21.337 0 0 1-1.51-1.132 2.11 2.11 0 0 1-.424-.19 3.536 3.536 0 0 0-.708-.518 140.65 140.65 0 0 0-3.067-1.557l-1.699-.708a46.414 46.414 0 0 1-1.84-.66 96.712 96.712 0 0 0-2.642-.661 19.895 19.895 0 0 0-2.029-.26 9.916 9.916 0 0 1-.024-2.453 10.629 10.629 0 0 1 3.421.118 46.89 46.89 0 0 1 12.032 4.105 14.718 14.718 0 0 1 4.081 2.996 4.74 4.74 0 0 1 .991 1.84c.046.45-.001.89-.141 1.321a9.285 9.285 0 0 1-.519 1.133l-3.539 5.284a190.12 190.12 0 0 0-5.002 8.493 206.844 206.844 0 0 1-2.783 5.19 52.818 52.818 0 0 1-4.082-9.011Z" fill="#F16567"/><path fill-rule="evenodd" clip-rule="evenodd" d="m267.625 34.582-.189.755c-.617.042-1.23.112-1.84.213a35.708 35.708 0 0 0-7.313 2.571.523.523 0 0 0-.095.118 16.961 16.961 0 0 0-5.308 3.562 3.483 3.483 0 0 0-.519 1.086c-.035.457-.019.914.047 1.368.219.768.549 1.475.991 2.123.179.437.399.846.661 1.227a53.995 53.995 0 0 0 1.793 3.256c.139.307.264.621.377.943.288.508.515 1.043.684 1.605.206.308.402.622.59.943.115.093.233.172.354.236a.146.146 0 0 0 .047.142c.177.074.334.176.472.306a3.41 3.41 0 0 0 1.25.26 8.828 8.828 0 0 0 2.383-.448c.351-.175.705-.34 1.062-.496.019.011.027.027.023.048a49.72 49.72 0 0 1-4.081 8.965 193.018 193.018 0 0 0-8.021-14.061 403.197 403.197 0 0 0-3.256-4.86 4.872 4.872 0 0 1-.708-2.407 5.362 5.362 0 0 1 1.723-2.666 20.3 20.3 0 0 1 4.576-2.878 44.736 44.736 0 0 1 12.079-3.68 12.764 12.764 0 0 1 2.124.047.733.733 0 0 1 .071.212c.023.503.031 1.007.023 1.51Z" fill="#F16566"/><path fill-rule="evenodd" clip-rule="evenodd" d="M114.42 35.337c.68.051 1.357.138 2.029.26.887.208 1.768.428 2.642.66.607.233 1.22.453 1.84.66l1.699.708c1.032.508 2.054 1.028 3.067 1.557.253.14.489.314.708.52.134.078.275.14.424.188.488.401.992.779 1.51 1.133.111.094.206.205.283.33.045.023.092.03.142.023.25.309.477.639.684.991.217.537.264 1.087.142 1.652a9.01 9.01 0 0 1-1.18 2.69 36.635 36.635 0 0 0-.802 1.556 2.098 2.098 0 0 1-.307.425c-.303.553-.609 1.103-.92 1.651-.369.813-.747 1.615-1.132 2.407-.494 1.876-1.713 2.717-3.657 2.524a12.776 12.776 0 0 1-2.737-.92 92.862 92.862 0 0 1-4.27-17.128 27.127 27.127 0 0 1-.165-1.887ZM267.625 34.582a57.227 57.227 0 0 1-1.345 8.682 91.71 91.71 0 0 1-3.185 11.135c.004-.02-.004-.036-.023-.047-.358.156-.711.321-1.062.495a8.836 8.836 0 0 1-2.383.449 3.415 3.415 0 0 1-1.25-.26 1.58 1.58 0 0 0-.472-.306.144.144 0 0 1-.047-.142 2.242 2.242 0 0 1-.354-.236 19.335 19.335 0 0 0-.59-.944 7.834 7.834 0 0 0-.684-1.604 11.234 11.234 0 0 0-.378-.944 54.493 54.493 0 0 1-1.793-3.255 6.579 6.579 0 0 1-.66-1.227 7.287 7.287 0 0 1-.991-2.123 6.202 6.202 0 0 1-.047-1.369c.11-.391.282-.753.519-1.085a16.95 16.95 0 0 1 5.308-3.562.548.548 0 0 1 .094-.118 35.744 35.744 0 0 1 7.314-2.572c.61-.1 1.223-.17 1.84-.212l.189-.755Z" fill="#FE7F80"/><path fill-rule="evenodd" clip-rule="evenodd" d="M161.085 64.97c2.361-.114 3.879.955 4.553 3.209.38 2-.367 3.377-2.241 4.128a45.62 45.62 0 0 1-9.72 3.162 8.475 8.475 0 0 1-2.642.094c-.695-.17-.907-.587-.637-1.25a16.468 16.468 0 0 1 2.548-3.964 19.94 19.94 0 0 1 4.93-4.27 9.075 9.075 0 0 1 3.209-1.109Z" fill="#000072"/><path fill-rule="evenodd" clip-rule="evenodd" d="M219.733 64.971a7.848 7.848 0 0 1 3.586.779 18.061 18.061 0 0 1 5.497 4.506 20.575 20.575 0 0 1 2.265 3.256c.159.322.301.653.424.99.055.267.023.52-.094.755-.19.147-.403.249-.637.307a8.919 8.919 0 0 1-2.973-.141 45.504 45.504 0 0 1-10.191-3.54c-1.01-.665-1.513-1.608-1.51-2.83.179-2.294 1.39-3.655 3.633-4.082Z" fill="#010071"/><path fill-rule="evenodd" clip-rule="evenodd" d="M159.243 113.428c-.025-.003-.041-.019-.047-.047.392-.596.377-1.178-.047-1.746a4.24 4.24 0 0 0-1.699-1.015 15.114 15.114 0 0 0-8.304-.188c-1.752.512-3.12 1.526-4.105 3.043-1.642-2.464-2.248-5.169-1.817-8.116.74-4.101 2.887-7.224 6.441-9.366 3.645-2.026 7.529-2.703 11.655-2.029 3.188.545 5.917 1.952 8.186 4.223 1.332 1.439 2.103 3.137 2.312 5.096.2 2.108-.485 3.861-2.053 5.261a15.537 15.537 0 0 1-3.302 1.935l-7.22 2.949ZM236.861 113.569c-.971-1.517-2.323-2.547-4.057-3.09a15.08 15.08 0 0 0-8.163.047 5.1 5.1 0 0 0-1.746.896c-.629.575-.724 1.228-.283 1.958a420.199 420.199 0 0 1-7.314-2.996 22.795 22.795 0 0 1-2.123-1.132c-2.318-1.436-3.316-3.519-2.996-6.252a8.709 8.709 0 0 1 2.123-4.624 14.064 14.064 0 0 1 6.488-3.987c4.242-1.168 8.363-.838 12.362.99 4.394 2.177 6.949 5.692 7.668 10.546.261 2.795-.392 5.343-1.959 7.644Z" fill="#000072"/><path fill-rule="evenodd" clip-rule="evenodd" d="M161.982 98.942c2.06-.153 3.53.696 4.411 2.548.61 1.647.374 3.157-.707 4.53-1.444 1.461-3.088 1.736-4.931.826-1.668-1.127-2.336-2.692-2.006-4.695.448-1.714 1.525-2.783 3.233-3.209ZM218.743 98.942c2.198-.117 3.669.859 4.412 2.925.409 1.705.008 3.183-1.203 4.436-1.243 1.077-2.643 1.336-4.2.778-1.913-1.003-2.723-2.584-2.43-4.742.449-1.84 1.589-2.973 3.421-3.397Z" fill="#FEFEFE"/><path fill-rule="evenodd" clip-rule="evenodd" d="M151.317 101.537c1.587-.025 2.586.73 2.996 2.265.164 1.252-.268 2.235-1.297 2.949-1.505.667-2.709.313-3.61-1.062-.658-1.448-.383-2.682.826-3.704a3.6 3.6 0 0 1 1.085-.448ZM229.925 101.537c1.536-.03 2.519.694 2.949 2.17.179 1.304-.269 2.319-1.345 3.044-1.053.542-2.044.448-2.973-.283-1.093-1.167-1.227-2.433-.401-3.799a2.917 2.917 0 0 1 1.77-1.132Z" fill="#FDFDFD"/><path fill-rule="evenodd" clip-rule="evenodd" d="M190.243 102.056c4.476-.241 8.565.883 12.268 3.374.468.342.909.72 1.321 1.133a45.097 45.097 0 0 0-6.276-1.935c-6.317-1.182-12.435-.537-18.354 1.935 3.161-2.751 6.841-4.253 11.041-4.507Z" fill="#030172"/><path fill-rule="evenodd" clip-rule="evenodd" d="M189.772 105.123a25.004 25.004 0 0 1 7.785.92c.641.186 1.2.508 1.675.967.091.135.17.277.236.425.069.52.006 1.023-.189 1.509a7.349 7.349 0 0 1-1.722 2.336 16.029 16.029 0 0 1-5.261 3.043 6.706 6.706 0 0 0-.472.944c-.16.727-.333 1.451-.519 2.171-.215.268-.388.236-.519-.095a14.53 14.53 0 0 1-.424-1.887 3.912 3.912 0 0 0-.472-1.038 16.628 16.628 0 0 1-5.214-2.902 7.932 7.932 0 0 1-1.911-2.43 2.762 2.762 0 0 1-.283-1.557c.114-.362.326-.653.637-.873a8.752 8.752 0 0 1 3.02-1.085 42.475 42.475 0 0 1 3.633-.448Z" fill="#010072"/><path fill-rule="evenodd" clip-rule="evenodd" d="M189.677 106.35a21.625 21.625 0 0 1 4.388.259c1.139.221 1.249.693.33 1.416a8.235 8.235 0 0 1-3.633 1.179 9.255 9.255 0 0 1-3.114-1.132 1.585 1.585 0 0 1-.708-.92.52.52 0 0 1 .425-.401 14.494 14.494 0 0 1 2.312-.401Z" fill="#4D4C9C"/><path fill-rule="evenodd" clip-rule="evenodd" d="M236.863 113.57c.553.861 1.08 1.742 1.581 2.642a48.324 48.324 0 0 1 4.293 12.221 78.19 78.19 0 0 1 1.534 18.638 85.34 85.34 0 0 1-.472 5.756 24.775 24.775 0 0 1-.849 4.105 6.637 6.637 0 0 1-2.124 2.713c-2.85 2.075-6.043 3.231-9.578 3.468a4.834 4.834 0 0 1-2.925-.849 2.373 2.373 0 0 1-.543-.849 14.113 14.113 0 0 1-.307-2.076c.004-2.203.036-4.405.095-6.606.103-2.508.174-5.025.212-7.55.077-4.237-.049-8.467-.377-12.692a65.473 65.473 0 0 0-2.312-13.164 29.422 29.422 0 0 0-2.478-5.946c-.44-.73-.346-1.383.284-1.958a5.104 5.104 0 0 1 1.745-.896 15.08 15.08 0 0 1 8.163-.047c1.735.543 3.087 1.573 4.058 3.09Z" fill="#26B0D6"/><path fill-rule="evenodd" clip-rule="evenodd" d="M159.244 113.428a.466.466 0 0 1-.118.094 33.205 33.205 0 0 0-1.887 4.341 57.3 57.3 0 0 0-2.643 12.976 148.91 148.91 0 0 0-.519 15.948c.069 1.997.124 3.994.166 5.992.076 2.188.138 4.375.188 6.559a.438.438 0 0 0-.094.283 6.972 6.972 0 0 1-.307 1.887c-.12.274-.285.51-.495.708a4.184 4.184 0 0 1-2.029.826 9.663 9.663 0 0 1-3.256-.189 18.589 18.589 0 0 1-7.361-3.303 8.865 8.865 0 0 1-1.486-1.581c-.219-.36-.4-.737-.542-1.132a30.276 30.276 0 0 1-.803-3.916.35.35 0 0 0-.094-.189.368.368 0 0 0 .047-.189 82.858 82.858 0 0 1-.424-5.096 133.588 133.588 0 0 1-.024-5.662 69.966 69.966 0 0 1 2.737-17.977 39.406 39.406 0 0 1 4.742-10.333c.984-1.517 2.353-2.531 4.105-3.044a15.123 15.123 0 0 1 8.304.189 4.246 4.246 0 0 1 1.699 1.015c.423.568.439 1.15.047 1.745.006.029.022.045.047.048Z" fill="#27B0D6"/><path fill-rule="evenodd" clip-rule="evenodd" d="M152.071 112.294a15.052 15.052 0 0 1 4.624.59.156.156 0 0 1 .047.071 35.359 35.359 0 0 0-2.618 6.841 72.092 72.092 0 0 0-2.076 12.598 167.077 167.077 0 0 0-.331 15.146c.072 2.863.15 5.726.236 8.588a60.114 60.114 0 0 1 0 3.397 3.097 3.097 0 0 1-.165.967 3.206 3.206 0 0 1-1.321.213 15.64 15.64 0 0 1-7.691-2.713 7.34 7.34 0 0 1-1.392-1.392 10.523 10.523 0 0 1-.708-2.265 55.782 55.782 0 0 1-.707-6.511 78.982 78.982 0 0 1 1.085-16.892 49.882 49.882 0 0 1 3.491-11.655 32.103 32.103 0 0 1 2.973-5.143 5.547 5.547 0 0 1 2.949-1.581 22.363 22.363 0 0 1 1.604-.259ZM228.275 112.294a13.83 13.83 0 0 1 3.822.449 6.36 6.36 0 0 1 1.888 1.038c.518.597.982 1.234 1.392 1.911a38.962 38.962 0 0 1 4.152 9.72 68.817 68.817 0 0 1 2.359 15.853c.13 3.627.004 7.245-.378 10.853a23.478 23.478 0 0 1-.802 4.01 5.01 5.01 0 0 1-1.722 1.911 15.733 15.733 0 0 1-7.62 2.666 6.127 6.127 0 0 1-.967-.071.883.883 0 0 1-.401-.165 24.911 24.911 0 0 1-.118-2.878c.081-3.35.167-6.7.259-10.05a143.415 143.415 0 0 0-.519-17.081 70.926 70.926 0 0 0-1.84-10.427 45.5 45.5 0 0 0-2.666-7.172 17.474 17.474 0 0 1 3.161-.567Z" fill="#66E8FE"/><path fill-rule="evenodd" clip-rule="evenodd" d="M150.751 114.466c.378.042.574.263.589.66a38.146 38.146 0 0 1-.943 7.786 11.818 11.818 0 0 1-.614 1.557c-.288.541-.721.91-1.297 1.109-1.136.176-1.837-.288-2.1-1.392a6.87 6.87 0 0 1-.047-1.51c.536-2.984 1.818-5.587 3.845-7.809.184-.146.373-.28.567-.401ZM230.822 114.466c.222.016.426.087.614.212 2.244 2.295 3.605 5.039 4.081 8.234a4.025 4.025 0 0 1-.236 1.84c-.333.595-.844.878-1.533.849l-.425-.023a2.17 2.17 0 0 1-1.085-.826 9.438 9.438 0 0 1-1.062-2.973 42.424 42.424 0 0 1-.66-6.653.952.952 0 0 1 .306-.66Z" fill="#FEFEFE"/><path fill-rule="evenodd" clip-rule="evenodd" d="M123.619 115.457c.012-.028.035-.044.071-.047 3.261.695 6.493 1.505 9.696 2.43 1.429.434 2.821.961 4.176 1.581.142.525-.054.737-.59.637a58.821 58.821 0 0 1-8.021-2.454l-5.332-2.147ZM258.048 115.408a.379.379 0 0 1 .188.024 137.57 137.57 0 0 1-9.578 3.633c-1.27.408-2.559.738-3.869.991-.429.074-.61-.107-.543-.543a.416.416 0 0 1 .213-.212 55.039 55.039 0 0 1 7.077-2.359 281.11 281.11 0 0 1 6.512-1.534Z" fill="#050272"/><path fill-rule="evenodd" clip-rule="evenodd" d="M184.251 119.751a6.334 6.334 0 0 1 3.397.731c.749.493 1.52.949 2.312 1.368.72.299 1.428.267 2.124-.094.684-.397 1.36-.806 2.029-1.227 2.391-1.21 4.641-.99 6.747.661a8.357 8.357 0 0 1 1.816 2.383c.17.784-.12 1.311-.872 1.58a1.179 1.179 0 0 1-1.133-.354 6.843 6.843 0 0 0-1.51-1.91c-1.077-.807-2.241-.965-3.491-.472-.677.369-1.337.762-1.982 1.179-1.464.919-3.005 1.076-4.624.472l-3.02-1.698c-1.594-.497-2.939-.111-4.034 1.156a7.594 7.594 0 0 0-.755 1.179c-.618.603-1.247.619-1.887.047a1.34 1.34 0 0 1-.236-1.085c1.037-2.195 2.744-3.501 5.119-3.916Z" fill="#010072"/><path fill-rule="evenodd" clip-rule="evenodd" d="M133.198 124.657c.913-.008 1.825 0 2.737.024.508.032 1.011.095 1.51.189.314.267.314.534 0 .802-.501.083-1.004.146-1.51.189-3.527-.029-7.05-.171-10.569-.425a12.922 12.922 0 0 1-1.558-.189 83.915 83.915 0 0 1 3.681-.283c1.911-.097 3.814-.199 5.709-.307Z" fill="#080373"/><path fill-rule="evenodd" clip-rule="evenodd" d="M246.158 124.657c3.971.061 7.934.257 11.891.59a7.299 7.299 0 0 1-.991.142c-3.77.28-7.545.437-11.324.471-.409-.044-.818-.092-1.227-.141-.354-.198-.417-.465-.189-.802l.189-.095a20.502 20.502 0 0 1 1.651-.165Z" fill="#050273"/><path fill-rule="evenodd" clip-rule="evenodd" d="M147.259 127.818c.529-.085.961.072 1.298.472.178.247.32.514.424.802a4.4 4.4 0 0 1 .048 2.501c-.484 1.257-1.372 1.674-2.666 1.251-.721-.468-1.051-1.136-.991-2.006a3.773 3.773 0 0 1 1.132-2.618c.225-.193.476-.327.755-.402ZM233.937 127.82c.529-.063 1 .071 1.415.401 1.045 1.089 1.352 2.355.92 3.798-.429.759-1.082 1.082-1.958.967-.877-.217-1.405-.776-1.581-1.675-.215-1.108-.018-2.13.59-3.067.185-.178.389-.319.614-.424Z" fill="#FDFEFE"/><path fill-rule="evenodd" clip-rule="evenodd" d="M136.878 130.413c.211-.018.415.006.613.071.197.181.236.394.118.637a9.09 9.09 0 0 1-1.486.684 146.123 146.123 0 0 1-12.504 3.303c3.683-1.506 7.41-2.89 11.183-4.153a49.635 49.635 0 0 1 2.076-.542Z" fill="#050272"/><path fill-rule="evenodd" clip-rule="evenodd" d="M244.411 130.416c.544.03 1.079.117 1.604.26a166.34 166.34 0 0 1 12.221 4.435 157.947 157.947 0 0 1-12.173-3.162 19.682 19.682 0 0 1-1.699-.707c-.262-.291-.246-.566.047-.826Z" fill="#050273"/><path fill-rule="evenodd" clip-rule="evenodd" d="M259.794 140.465a54.32 54.32 0 0 1-2.005 2.217 56.27 56.27 0 0 1-13.99 10.145 85.37 85.37 0 0 0 .472-5.757c-.016.161 0 .318.047.472a108.544 108.544 0 0 0 15.287-7.054.392.392 0 0 1 .189-.023Z" fill="#CCC4D0"/><path fill-rule="evenodd" clip-rule="evenodd" d="M122.252 140.652a107.405 107.405 0 0 0 15.335 6.984v-.189c.089 1.696.23 3.394.425 5.096a.372.372 0 0 1-.047.188 66.746 66.746 0 0 1-6.465-3.845 48.232 48.232 0 0 1-9.248-8.234Z" fill="#CCC4CF"/><path fill-rule="evenodd" clip-rule="evenodd" d="M240.494 147.918h.189a41.643 41.643 0 0 1-.991 7.833 1.779 1.779 0 0 1-.33.566 7.04 7.04 0 0 1-2.265 1.557v.141c-.316.032-.599.15-.85.354a36.39 36.39 0 0 1-1.745.684 32.31 32.31 0 0 0-1.086.307 6.672 6.672 0 0 1-2.43.212c-.012-3.603.05-7.205.189-10.805.331.025.669.08 1.015.165a16.61 16.61 0 0 0 7.266-.613c.355-.123.702-.257 1.038-.401ZM141.172 147.824c.359.197.736.362 1.132.496.281.042.548.121.802.236a26.61 26.61 0 0 0 2.69.471c1.647.097 3.283.01 4.907-.259.029 2.328.084 4.656.165 6.983a78.548 78.548 0 0 1 0 3.822 5.792 5.792 0 0 1-1.722-.071 15.045 15.045 0 0 1-5.474-2.217.379.379 0 0 0-.188-.024.147.147 0 0 0-.048-.142 4.791 4.791 0 0 1-1.085-.943 4.143 4.143 0 0 1-.354-1.085 39.435 39.435 0 0 1-.825-7.267Z" fill="#65DAFE"/><path fill-rule="evenodd" clip-rule="evenodd" d="M227.568 152.732a264.573 264.573 0 0 0-.095 6.606 170.581 170.581 0 0 1-10.003 2.713c-4.013.939-8.039 1.82-12.079 2.643a.786.786 0 0 0-.566.637.215.215 0 0 0-.047.188 293.622 293.622 0 0 1-13.919 1.463 582.94 582.94 0 0 1-7.361-.661 578.833 578.833 0 0 0-6.511-.802c.004-.407-.184-.682-.567-.825a261.616 261.616 0 0 1-17.269-3.964c-1.579-.45-3.151-.913-4.718-1.392-.05-2.183-.113-4.37-.189-6.558 1.695.4 3.393.785 5.096 1.156 22.841 4.665 45.584 4.264 68.228-1.204Z" fill="#CCC4CF"/><path fill-rule="evenodd" clip-rule="evenodd" d="M154.432 159.338c1.567.478 3.14.942 4.719 1.392a262.1 262.1 0 0 0 17.269 3.963c.382.143.571.418.566.826v.047a.786.786 0 0 1-.566.637 128.969 128.969 0 0 1-18.614-2.902.22.22 0 0 0-.189.189c-.885 2.253-1.773 4.502-2.666 6.747a542.79 542.79 0 0 0-6.346 15.43 159.23 159.23 0 0 0-5.426 17.127 116.91 116.91 0 0 0-2.784 17.553c-.147.478-.469.691-.967.637-.408-.148-.613-.44-.614-.873a180.847 180.847 0 0 0-11.56 5.851 24.064 24.064 0 0 1 3.374 8.682c.488 2.772.567 5.556.236 8.351-.176.47-.514.65-1.015.543a.664.664 0 0 1-.495-.496c.125-4.549-.85-8.842-2.925-12.881a19.12 19.12 0 0 0-2.808-3.751 10.777 10.777 0 0 0-4.813-1.887c-6.336-.533-10.779 2.101-13.329 7.903a26.361 26.361 0 0 0-1.793 10.994 26.191 26.191 0 0 0 3.067 11.182c.264.45.539.89.826 1.321 1.975 3.069 4.665 5.263 8.068 6.583a16.06 16.06 0 0 0 6.181.896 71.234 71.234 0 0 0 9.201-1.227 244.138 244.138 0 0 0 15.476-3.774 1089.684 1089.684 0 0 0 16.515-4.813c.069-.02.092-.06.07-.118-.614-.306-.755-.762-.424-1.368.098-.077.2-.148.307-.213a24.393 24.393 0 0 1 3.161.189c3.658.457 7.307.976 10.947 1.557a94.476 94.476 0 0 0 18.496.802 138.07 138.07 0 0 0 10.569-.991c2.766-.435 5.535-.859 8.304-1.274a27.925 27.925 0 0 1 4.294-.283c.144.029.262.1.354.213.354.62.205 1.084-.448 1.392a455.537 455.537 0 0 0 26.753 7.502c3.569.868 7.171 1.56 10.805 2.076 1.989.297 3.986.391 5.992.283 4.316-.424 7.878-2.271 10.688-5.544a31.186 31.186 0 0 0 1.486-2.029c2.228-3.594 3.478-7.51 3.751-11.749a26.972 26.972 0 0 0-1.51-10.994 17.222 17.222 0 0 0-2.548-4.435c-2.704-3.022-6.093-4.414-10.168-4.176a11.138 11.138 0 0 0-5.615 1.935 18.515 18.515 0 0 0-3.94 6.063 27.15 27.15 0 0 0-1.84 10.569c-.182.502-.536.683-1.062.543a.713.713 0 0 1-.448-.496c-.65-5.293.168-10.342 2.454-15.146.361-.66.747-1.305 1.156-1.934a281.715 281.715 0 0 0-10.617-5.45c-.31-.148-.625-.281-.943-.401-.052.641-.398.932-1.038.873a.755.755 0 0 1-.543-.59 96.685 96.685 0 0 0-3.303-19.723 163.124 163.124 0 0 0-4.86-14.816 476.009 476.009 0 0 0-6.346-15.57 372.007 372.007 0 0 1-2.784-6.913.442.442 0 0 0-.283 0 111.884 111.884 0 0 1-18.59 2.831.908.908 0 0 1-.472-.637v-.236a.786.786 0 0 1 .566-.637c4.04-.822 8.066-1.703 12.079-2.642a172.38 172.38 0 0 0 10.003-2.713c.05.693.152 1.385.307 2.076.123.327.304.611.542.849l-1.038.236a120.953 120.953 0 0 0 1.628 4.2c2.522 5.992 5.007 12 7.455 18.024a124.868 124.868 0 0 1 5.096 15.807 65.61 65.61 0 0 1 1.864 16.136 257.79 257.79 0 0 1 13.471 6.842c3.114-1.905 6.487-2.62 10.121-2.147 4.186.61 7.559 2.584 10.121 5.922a22.248 22.248 0 0 1 3.822 9.248c1.059 5.975.43 11.763-1.888 17.364a22.47 22.47 0 0 1-6.299 8.563c-3.899 3.046-8.334 4.414-13.306 4.105a77.63 77.63 0 0 1-9.672-1.368 207.641 207.641 0 0 1-9.012-2.076 437.315 437.315 0 0 1-10.57-2.878 2505.59 2505.59 0 0 1-16.538-4.884 60.802 60.802 0 0 1-10.121 1.722 133.48 133.48 0 0 1-22.601.284 84.682 84.682 0 0 1-12.598-2.006 3619.533 3619.533 0 0 1-17.222 5.073 308.904 308.904 0 0 1-17.081 4.388 98.327 98.327 0 0 1-8.776 1.51 29.19 29.19 0 0 1-6.794.094c-4.037-.564-7.513-2.247-10.428-5.049-.659-.08-1.32-.151-1.982-.212l-.141.047c1.495 3.802 1.424 7.576-.213 11.324a15.444 15.444 0 0 1-3.751 5.025 24.537 24.537 0 0 1-8.87 4.907 50.978 50.978 0 0 1-10.711 2.029 85.665 85.665 0 0 1-12.41.048 48.756 48.756 0 0 1-13.022-2.784 28.897 28.897 0 0 1-9.107-5.474c-2.677-2.475-4.525-5.471-5.544-8.988-1.924-6.48-1.546-12.818 1.133-19.015a25.88 25.88 0 0 1 6.723-8.894c3.617-3.021 7.706-5.207 12.268-6.559a53.632 53.632 0 0 1 16.515-2.076c1.589.05 3.177.114 4.765.189 6.08.365 12.158.735 18.237 1.108l.401-.047c1.329-3.664 3.626-6.55 6.889-8.658 3.286-1.899 6.809-2.528 10.569-1.887a14.684 14.684 0 0 1 5.332 2.052 267.451 267.451 0 0 1 13.4-6.794 66.039 66.039 0 0 1 1.533-14.675 103.755 103.755 0 0 1 3.964-13.258l1.651-4.341a1575.563 1575.563 0 0 1 6.417-15.429c.851-2.15 1.708-4.297 2.572-6.441a.172.172 0 0 0-.095-.094l-.943-.26c.21-.198.375-.434.495-.708a6.966 6.966 0 0 0 .307-1.887.438.438 0 0 1 .094-.283Z" fill="#010072"/><path fill-rule="evenodd" clip-rule="evenodd" d="M176.986 165.565c2.161.324 4.332.575 6.511.755 2.439.312 4.893.548 7.361.707 4.675-.329 9.33-.816 13.967-1.462a.91.91 0 0 0 .471.637 111.984 111.984 0 0 0 18.591-2.831.43.43 0 0 1 .283 0 374.727 374.727 0 0 0 2.784 6.912 78.767 78.767 0 0 1-21.186 6.346 100.174 100.174 0 0 1-29.065.095 82.697 82.697 0 0 1-18.827-5.143c-.981-.436-1.957-.885-2.925-1.345.893-2.246 1.781-4.495 2.666-6.747.021-.107.084-.17.189-.189a129.224 129.224 0 0 0 18.614 2.902.788.788 0 0 0 .566-.637Z" fill="#CCC4CF"/><path fill-rule="evenodd" clip-rule="evenodd" d="M176.985 165.568v-.047c2.179.255 4.349.522 6.512.802-2.18-.18-4.35-.431-6.512-.755Z" fill="#ABA1B0"/><path fill-rule="evenodd" clip-rule="evenodd" d="M204.823 165.33v.236a205.959 205.959 0 0 1-13.966 1.463c-2.468-.16-4.922-.396-7.361-.708 2.452.236 4.905.456 7.361.661 4.653-.377 9.292-.865 13.919-1.463a.217.217 0 0 1 .047-.189Z" fill="#ABA2B0"/><path fill-rule="evenodd" clip-rule="evenodd" d="M154.951 170.237c.968.461 1.944.909 2.926 1.345a82.623 82.623 0 0 0 18.826 5.143 100.174 100.174 0 0 0 29.065-.094 78.805 78.805 0 0 0 21.186-6.347 479.216 479.216 0 0 1 6.346 15.571 163.124 163.124 0 0 1 4.86 14.816 96.754 96.754 0 0 1 3.303 19.723c.068.3.249.497.543.59.64.059.986-.232 1.038-.873.318.12.633.253.943.401a282.48 282.48 0 0 1 10.617 5.45 29.644 29.644 0 0 0-1.156 1.934c-2.286 4.804-3.104 9.853-2.454 15.146a.713.713 0 0 0 .448.496c.525.14.879-.041 1.062-.543a27.15 27.15 0 0 1 1.84-10.569 18.5 18.5 0 0 1 3.94-6.063 11.138 11.138 0 0 1 5.615-1.935c4.075-.238 7.464 1.154 10.168 4.176a17.25 17.25 0 0 1 2.548 4.435 26.99 26.99 0 0 1 1.51 10.994c-.273 4.239-1.523 8.155-3.751 11.749l-1.557 1.109c-3.399 2.249-7.094 2.941-11.089 2.076-2.531-.677-4.646-2.006-6.346-3.987a18.642 18.642 0 0 1-3.303-6.37 35.364 35.364 0 0 1-.495-2.076 22.864 22.864 0 0 1-8.069 3.892 8.055 8.055 0 0 1-4.482-.235c-1.784-.826-2.893-2.202-3.327-4.129a15.437 15.437 0 0 1 .095-5.002c.332-1.579.74-3.136 1.227-4.671a166.53 166.53 0 0 0 2.076-6.417c.168-.667.23-1.343.188-2.029a.483.483 0 0 0-.542-.165 8.517 8.517 0 0 0-1.368.708 85.19 85.19 0 0 1-13.873 8.446c-.609.289-1.238.525-1.887.708-.747.117-1.195-.19-1.345-.92a7.103 7.103 0 0 1 .189-2.36 52.414 52.414 0 0 1 2.029-6.039c1.623-4.018 3.227-8.045 4.813-12.079a88.998 88.998 0 0 0 3.539-11.419c.35-1.587.57-3.191.66-4.813.032-.786.032-1.572 0-2.359a19.186 19.186 0 0 0-.354-2.265c.113-1.13.184-2.262.213-3.397-.225-.383-.531-.47-.921-.259a.842.842 0 0 0-.212.259 153.916 153.916 0 0 1-5.473 20.1 82.014 82.014 0 0 1-4.766 10.947 37.702 37.702 0 0 1-5.143 7.408 16.907 16.907 0 0 1-4.931 3.704 9.9 9.9 0 0 1-4.624.944 8.165 8.165 0 0 0-.094-.048 22.37 22.37 0 0 0 1.84-2.052 14.052 14.052 0 0 0 5.945-2.76 23.881 23.881 0 0 0 3.704-4.27 54.847 54.847 0 0 0 4.153-7.55 113.522 113.522 0 0 0 6.181-18.119 138.515 138.515 0 0 1-7.031 16.609 63.456 63.456 0 0 1-4.86 7.927 24.119 24.119 0 0 1-4.081 4.317c-.714.487-1.461.92-2.241 1.298-.019-.011-.027-.026-.024-.047.31-.521.586-1.056.826-1.604a15.203 15.203 0 0 1-2.194 2.076c-2.314.495-4.406.031-6.276-1.392a8.154 8.154 0 0 1-1.203-1.345.414.414 0 0 1-.071-.236 23.32 23.32 0 0 1 1.888-4.128 29.511 29.511 0 0 0-4.035 4.364 23.947 23.947 0 0 1 .189-6.794 89.558 89.558 0 0 1 2.171-9.249 863.035 863.035 0 0 1 5.237-16.325 234.826 234.826 0 0 0 1.793-6.181c.268-1.08.512-2.166.731-3.256a.599.599 0 0 0-.424-.543.645.645 0 0 0-.637.166 326.922 326.922 0 0 0-7.503 18.213 117.705 117.705 0 0 0-4.529 15.24 32.616 32.616 0 0 0-.708 7.172 14.958 14.958 0 0 0 1.581 6.559 29.57 29.57 0 0 1-1.156 5.284 7.004 7.004 0 0 1-1.086 2.029c-.904.924-1.997 1.263-3.279 1.015-.995-.242-1.727-.816-2.194-1.723a13.438 13.438 0 0 1-1.038-2.831 64.165 64.165 0 0 1-.684-3.633 14.328 14.328 0 0 0 1.675-6.37c.07-2.48-.15-4.933-.661-7.36a109.798 109.798 0 0 0-3.397-12.08 179.597 179.597 0 0 0-3.822-10.191 585.347 585.347 0 0 0-4.813-11.277c-.376-.336-.721-.305-1.038.094a.955.955 0 0 0-.07.283 108.037 108.037 0 0 0 2.288 8.588c1.318 4.11 2.655 8.215 4.011 12.315a118.643 118.643 0 0 1 2.878 10.239 41.93 41.93 0 0 1 1.085 6.558 47.514 47.514 0 0 1 0 3.02c-.04.347-.087.693-.141 1.038a36.858 36.858 0 0 0-3.94-4.364c-.032-.032-.063-.032-.095 0a26.043 26.043 0 0 1 1.935 4.175c-1.282 1.892-3.075 2.922-5.379 3.091a7.445 7.445 0 0 1-2.218-.165 17.6 17.6 0 0 1-1.415-1.251 30.274 30.274 0 0 0-.779-.825c.248.526.523 1.045.826 1.557a.114.114 0 0 1-.024.094 11.452 11.452 0 0 1-3.043-1.958 32.377 32.377 0 0 1-4.6-5.544 85.5 85.5 0 0 1-6.087-11.372 138.675 138.675 0 0 1-4.483-11.371 113.657 113.657 0 0 0 5.993 17.788 65.152 65.152 0 0 0 3.822 7.172 24.218 24.218 0 0 0 4.506 5.309 14.203 14.203 0 0 0 5.662 2.524c.576.718 1.189 1.41 1.84 2.076a9.886 9.886 0 0 1-5.945-1.533 21.775 21.775 0 0 1-5.12-4.79 53.468 53.468 0 0 1-5.709-9.719 114.767 114.767 0 0 1-5.615-15.996 216.824 216.824 0 0 1-2.642-11.041c-.217-.392-.524-.478-.92-.259a.884.884 0 0 0-.213.259 32.43 32.43 0 0 0 .166 3.02 57.024 57.024 0 0 0-.402 2.265 22.208 22.208 0 0 0 .189 5.048c.297 1.863.69 3.703 1.18 5.521.94 3.166 1.994 6.297 3.161 9.39 1.709 4.251 3.407 8.513 5.096 12.786a47.492 47.492 0 0 1 1.368 4.247c.192.744.271 1.499.236 2.265-.09.875-.57 1.245-1.439 1.109a8 8 0 0 1-.991-.331 78.257 78.257 0 0 1-11.418-6.464 119.445 119.445 0 0 0-3.681-2.595 4.544 4.544 0 0 0-1.038-.472.398.398 0 0 0-.448.118 2.777 2.777 0 0 0-.071.637c.049.4.104.801.165 1.203a55.27 55.27 0 0 0 .897 3.02 78.408 78.408 0 0 1 2.076 6.511c.352 1.33.572 2.683.661 4.058.206 1.831-.187 3.514-1.18 5.049-1.071 1.357-2.478 2.104-4.223 2.241a11.72 11.72 0 0 1-4.435-.708 25.879 25.879 0 0 1-6.228-3.373c-.6 3.306-1.961 6.247-4.082 8.823-2.877 2.957-6.392 4.271-10.546 3.94a15.382 15.382 0 0 1-5.992-2.029 95.591 95.591 0 0 1-1.982-1.345 27.347 27.347 0 0 1-.825-1.321 26.177 26.177 0 0 1-3.067-11.182 26.361 26.361 0 0 1 1.793-10.994c2.55-5.802 6.992-8.436 13.329-7.904a10.79 10.79 0 0 1 4.813 1.888 19.086 19.086 0 0 1 2.807 3.751c2.076 4.038 3.051 8.332 2.926 12.881a.664.664 0 0 0 .495.496c.501.107.839-.074 1.015-.543.33-2.795.252-5.579-.236-8.352a24.085 24.085 0 0 0-3.374-8.681 180.847 180.847 0 0 1 11.56-5.851c.001.433.205.725.614.873.498.053.82-.159.967-.637a116.91 116.91 0 0 1 2.784-17.553 159.319 159.319 0 0 1 5.426-17.128 541.006 541.006 0 0 1 6.346-15.429Z" fill="#FEFEFE"/><path fill-rule="evenodd" clip-rule="evenodd" d="M186.186 233.274c-2.005 3.223-4.915 5.007-8.729 5.356-3.709.245-7.012-.777-9.909-3.067a27.102 27.102 0 0 1-3.845-3.751 46.313 46.313 0 0 1-5.946-9.767 85.686 85.686 0 0 1-6.322-21.375 116.721 116.721 0 0 1-.732-5.662 32.757 32.757 0 0 1-.165-3.02.884.884 0 0 1 .213-.259c.396-.219.703-.133.92.259a216.57 216.57 0 0 0 2.642 11.041 114.767 114.767 0 0 0 5.615 15.996 53.443 53.443 0 0 0 5.709 9.72 21.792 21.792 0 0 0 5.12 4.789 9.886 9.886 0 0 0 5.945 1.533 28.324 28.324 0 0 1-1.84-2.076 36.318 36.318 0 0 1-1.746-2.642 18.787 18.787 0 0 1-.826-1.557c.265.271.525.546.779.826.451.444.923.861 1.415 1.25a16.137 16.137 0 0 0 3.162 2.265c.757.449 1.559.811 2.406 1.085a6.489 6.489 0 0 0 3.067-2.878 22.809 22.809 0 0 0-.614-2.218c-.129-.4-.271-.794-.424-1.179a26.228 26.228 0 0 0-1.935-4.176c.032-.032.063-.032.095 0a36.858 36.858 0 0 1 3.94 4.364c.054-.345.101-.691.141-1.038a47.514 47.514 0 0 0 0-3.02 41.93 41.93 0 0 0-1.085-6.558 118.643 118.643 0 0 0-2.878-10.239c-1.356-4.1-2.693-8.205-4.011-12.315-.88-2.83-1.643-5.692-2.288-8.588a.955.955 0 0 1 .07-.283c.316-.398.662-.43 1.038-.094a588.043 588.043 0 0 1 4.813 11.277 180.88 180.88 0 0 1 3.822 10.192 109.72 109.72 0 0 1 3.397 12.079c.511 2.427.731 4.88.661 7.36a14.328 14.328 0 0 1-1.675 6.37ZM199.871 227.896c-.18.376-.321.77-.425 1.18a27.583 27.583 0 0 0-.661 2.288 6.582 6.582 0 0 0 3.067 2.855 14.314 14.314 0 0 0 2.454-1.085 15.839 15.839 0 0 0 3.114-2.265 15.203 15.203 0 0 0 2.194-2.076c-.24.549-.516 1.083-.826 1.604a38.192 38.192 0 0 1-1.746 2.595 22.25 22.25 0 0 1-1.84 2.053l.095.047a9.902 9.902 0 0 0 4.624-.944 16.872 16.872 0 0 0 4.93-3.704 37.725 37.725 0 0 0 5.143-7.407 81.885 81.885 0 0 0 4.766-10.947 153.816 153.816 0 0 0 5.473-20.101.842.842 0 0 1 .213-.259c.389-.21.696-.124.92.259a45.394 45.394 0 0 1-.212 3.398 96.998 96.998 0 0 1-3.421 17.363 64.181 64.181 0 0 1-5.71 13.353 47.199 47.199 0 0 1-5.284 7.408c-2.719 2.903-6.061 4.61-10.027 5.12-2.996.273-5.718-.451-8.163-2.171a11.83 11.83 0 0 1-2.925-3.326 14.955 14.955 0 0 1-1.581-6.559 32.616 32.616 0 0 1 .708-7.172 117.598 117.598 0 0 1 4.53-15.24 326.91 326.91 0 0 1 7.502-18.213.645.645 0 0 1 .637-.165.599.599 0 0 1 .425.542 73.934 73.934 0 0 1-.732 3.256 229.98 229.98 0 0 1-1.793 6.181 868.076 868.076 0 0 0-5.237 16.326 89.54 89.54 0 0 0-2.171 9.248 23.912 23.912 0 0 0-.188 6.794 29.554 29.554 0 0 1 4.034-4.364 23.278 23.278 0 0 0-1.887 4.128Z" fill="#010072"/><path fill-rule="evenodd" clip-rule="evenodd" d="M150.704 195.009c.197 1.887.44 3.774.731 5.662a85.71 85.71 0 0 0 6.323 21.374 46.258 46.258 0 0 0 5.945 9.767 27.002 27.002 0 0 0 3.846 3.751c2.897 2.29 6.2 3.313 9.908 3.067 3.815-.348 6.724-2.133 8.729-5.355a65.99 65.99 0 0 0 .684 3.633c.24.983.586 1.927 1.038 2.831.468.907 1.199 1.481 2.195 1.722 1.282.249 2.375-.09 3.279-1.014a7.001 7.001 0 0 0 1.085-2.029 29.562 29.562 0 0 0 1.156-5.285 11.82 11.82 0 0 0 2.925 3.327c2.446 1.719 5.167 2.443 8.163 2.17 3.966-.51 7.308-2.216 10.027-5.119a47.18 47.18 0 0 0 5.284-7.408 64.227 64.227 0 0 0 5.71-13.353 96.939 96.939 0 0 0 3.421-17.364c.162.747.28 1.502.353 2.265.032.787.032 1.573 0 2.359a30.036 30.036 0 0 1-.66 4.813 88.84 88.84 0 0 1-3.539 11.419c-1.586 4.034-3.19 8.06-4.813 12.079a52.414 52.414 0 0 0-2.029 6.039 7.096 7.096 0 0 0-.188 2.359c.149.731.598 1.038 1.344.921.65-.184 1.279-.419 1.888-.708a85.18 85.18 0 0 0 13.872-8.446 8.56 8.56 0 0 1 1.368-.708.485.485 0 0 1 .543.165 6.604 6.604 0 0 1-.189 2.029 163.665 163.665 0 0 1-2.076 6.417 48.583 48.583 0 0 0-1.227 4.671 15.437 15.437 0 0 0-.094 5.002c.433 1.927 1.542 3.303 3.326 4.128a8.058 8.058 0 0 0 4.483.236 22.86 22.86 0 0 0 8.068-3.892c.144.697.309 1.388.496 2.076a18.642 18.642 0 0 0 3.303 6.37c1.699 1.98 3.814 3.31 6.346 3.987 3.994.865 7.69.173 11.088-2.076l1.557-1.109a31.087 31.087 0 0 1-1.486 2.029c-2.81 3.272-6.372 5.12-10.687 5.544a29.673 29.673 0 0 1-5.993-.283 113.112 113.112 0 0 1-10.805-2.076 455.763 455.763 0 0 1-26.753-7.503c.653-.307.802-.772.448-1.392a.598.598 0 0 0-.354-.212 27.925 27.925 0 0 0-4.294.283c-2.769.414-5.538.839-8.304 1.274-3.51.466-7.033.796-10.569.991a94.476 94.476 0 0 1-18.496-.802 324.91 324.91 0 0 0-10.947-1.557 24.217 24.217 0 0 0-3.161-.189 3.415 3.415 0 0 0-.307.212c-.331.607-.19 1.063.425 1.369.021.058-.002.098-.071.118a1081.4 1081.4 0 0 1-16.514 4.812 244.342 244.342 0 0 1-15.477 3.775 71.234 71.234 0 0 1-9.201 1.227 16.042 16.042 0 0 1-6.181-.897c-3.403-1.319-6.093-3.513-8.068-6.582.652.455 1.313.903 1.981 1.345a15.386 15.386 0 0 0 5.993 2.029c4.153.331 7.669-.983 10.545-3.94 2.122-2.576 3.482-5.518 4.082-8.823a25.898 25.898 0 0 0 6.228 3.373 11.72 11.72 0 0 0 4.435.708c1.745-.137 3.153-.884 4.223-2.241.993-1.535 1.386-3.218 1.18-5.049a21.169 21.169 0 0 0-.661-4.058 78.034 78.034 0 0 0-2.076-6.511 55.26 55.26 0 0 1-.896-3.02 42.309 42.309 0 0 1-.165-1.203 2.776 2.776 0 0 1 .07-.637.4.4 0 0 1 .449-.118c.365.114.711.271 1.038.472 1.243.842 2.47 1.707 3.68 2.595a78.267 78.267 0 0 0 11.419 6.464c.322.132.652.242.991.331.868.135 1.348-.235 1.439-1.109a7.623 7.623 0 0 0-.236-2.265 47.823 47.823 0 0 0-1.369-4.247 2396.56 2396.56 0 0 0-5.095-12.787 137.082 137.082 0 0 1-3.162-9.389 53.391 53.391 0 0 1-1.179-5.521 22.094 22.094 0 0 1-.189-5.048c.119-.76.252-1.515.401-2.265Z" fill="#CCC4CF"/><path fill-rule="evenodd" clip-rule="evenodd" d="M173.117 230.348a36.318 36.318 0 0 0 1.746 2.642 14.203 14.203 0 0 1-5.662-2.524 24.236 24.236 0 0 1-4.506-5.308 65.242 65.242 0 0 1-3.822-7.172 113.703 113.703 0 0 1-5.993-17.789 138.837 138.837 0 0 0 4.483 11.372 85.55 85.55 0 0 0 6.087 11.371 32.377 32.377 0 0 0 4.6 5.544 11.452 11.452 0 0 0 3.043 1.958.114.114 0 0 0 .024-.094ZM207.042 232.99a38.552 38.552 0 0 0 1.745-2.595c-.003.021.005.037.024.048.78-.379 1.527-.811 2.241-1.298a24.156 24.156 0 0 0 4.082-4.317 63.694 63.694 0 0 0 4.86-7.927 138.81 138.81 0 0 0 7.03-16.609 113.556 113.556 0 0 1-6.181 18.119 54.83 54.83 0 0 1-4.152 7.549 23.887 23.887 0 0 1-3.704 4.27 14.04 14.04 0 0 1-5.945 2.76Z" fill="#CDC5D0"/><path fill-rule="evenodd" clip-rule="evenodd" d="M199.871 227.896a.41.41 0 0 0 .07.235c.349.491.75.939 1.204 1.345 1.87 1.423 3.962 1.888 6.275 1.392a15.81 15.81 0 0 1-3.114 2.265c-1.73-.256-3.091-1.105-4.081-2.548-.299-.487-.559-.99-.779-1.51.104-.41.245-.804.425-1.179ZM182.082 227.942c.153.386.295.78.424 1.18-.249.405-.477.83-.684 1.274-.989 1.521-2.381 2.434-4.176 2.737a16.16 16.16 0 0 1-3.161-2.265c.73.166 1.469.221 2.218.165 2.304-.169 4.097-1.199 5.379-3.091Z" fill="#CCC5D0"/><path fill-rule="evenodd" clip-rule="evenodd" d="M199.445 229.075c.221.52.48 1.023.779 1.51.991 1.443 2.351 2.292 4.081 2.548a14.27 14.27 0 0 1-2.453 1.085 6.576 6.576 0 0 1-3.067-2.854 27.49 27.49 0 0 1 .66-2.289ZM182.506 229.124c.241.728.445 1.467.613 2.218a6.484 6.484 0 0 1-3.067 2.878 11.852 11.852 0 0 1-2.406-1.085c1.794-.303 3.186-1.216 4.176-2.737.207-.444.435-.869.684-1.274Z" fill="#FCFCFD"/><path fill-rule="evenodd" clip-rule="evenodd" d="M114.796 232.52c1.877-.018 3.002.894 3.373 2.736.164 1.474-.348 2.646-1.533 3.516-1.813.738-3.173.242-4.081-1.487-.484-1.317-.327-2.544.471-3.68a3.186 3.186 0 0 1 1.77-1.085ZM266.163 232.52c1.759-.029 2.868.805 3.326 2.501.281 1.569-.215 2.819-1.486 3.751-1.813.738-3.173.243-4.081-1.486-.48-1.316-.322-2.543.472-3.68a3.18 3.18 0 0 1 1.769-1.086Z" fill="#FE8081"/><path fill-rule="evenodd" clip-rule="evenodd" d="M101.02 247.855a.746.746 0 0 1-.378.094 114.23 114.23 0 0 1-14.155-1.628c-2.832-.547-5.663-1.09-8.493-1.627-.031 0-.047-.016-.047-.048-.355-2.611-1.385-4.908-3.09-6.889-1.644-1.651-3.618-2.673-5.922-3.066a52.47 52.47 0 0 1 10.947-.732c2.077.065 4.153.159 6.228.283 5.047.342 10.095.649 15.146.92a32.287 32.287 0 0 0-.236 12.693Z" fill="#FEFEFE"/><path fill-rule="evenodd" clip-rule="evenodd" d="M68.933 234.689c2.304.393 4.278 1.416 5.921 3.067 1.706 1.981 2.736 4.278 3.091 6.889-1.18-.184-2.359-.365-3.539-.542a25.333 25.333 0 0 0-3.775-.189 6.741 6.741 0 0 0-3.255.944 8.355 8.355 0 0 0-.566.495c-.737-.288-1.185-.036-1.345.755-.163 1.239.223 2.269 1.156 3.091a8.791 8.791 0 0 0 3.256 1.604c1.711.411 3.442.725 5.19.943 3.22.381 6.444.728 9.673 1.039 2.363.26 4.707.637 7.03 1.132 2.49.589 4.803 1.58 6.936 2.973 2.596 1.794 4.287 4.224 5.072 7.289.247 1.138.318 2.286.213 3.445a4.39 4.39 0 0 1-.803.92c-.518.306-1.021.636-1.509.991a26.38 26.38 0 0 1-4.719 2.076 45.33 45.33 0 0 1-7.266 1.557 66.972 66.972 0 0 1-8.116.613 88.666 88.666 0 0 1-14.91-.684 74.072 74.072 0 0 1-5.473-1.203 35.868 35.868 0 0 1-6.842-2.807 39.52 39.52 0 0 1-2.831-1.817.232.232 0 0 0-.142-.024.145.145 0 0 0-.047-.141 14.788 14.788 0 0 1-.85-.732 2.099 2.099 0 0 1-.896-.754 94.34 94.34 0 0 0-.566-.472 45.389 45.389 0 0 1-2.052-2.289 97.737 97.737 0 0 1-1.982-3.067 3.06 3.06 0 0 0-.495-.991c.2-7.287 3.14-13.177 8.823-17.67a32.768 32.768 0 0 1 10.9-5.379 45.913 45.913 0 0 1 4.718-1.062Z" fill="#FE6F04"/><path fill-rule="evenodd" clip-rule="evenodd" d="M122.345 234.928c1.829.115 2.82 1.09 2.973 2.925-.015 1.359-.628 2.326-1.841 2.902-1.527.381-2.62-.146-3.279-1.581-.418-1.191-.261-2.291.472-3.303a2.847 2.847 0 0 1 1.675-.943ZM258.848 234.928c1.602.02 2.601.807 2.997 2.359.205 1.347-.227 2.424-1.298 3.232-1.502.728-2.706.39-3.61-1.014-.613-1.256-.518-2.451.284-3.586.432-.519.975-.85 1.627-.991ZM108.143 236.154c1.712-.044 2.742.774 3.091 2.454.142 1.193-.228 2.192-1.109 2.996-1.461.874-2.696.63-3.704-.732-.681-1.23-.65-2.441.094-3.633a3.047 3.047 0 0 1 1.628-1.085ZM272.817 236.155c1.451-.067 2.433.578 2.949 1.935.309 1.068.152 2.059-.472 2.972-.702.874-1.606 1.197-2.713.968-1.116-.409-1.769-1.204-1.958-2.383-.173-1.275.244-2.306 1.25-3.091.303-.175.618-.309.944-.401ZM115.175 240.4c3.055-.081 5.343 1.193 6.865 3.822 1.076 2.014 1.359 4.137.85 6.37-.602 2.488-2.041 4.304-4.318 5.45-3.46 1.216-6.283.359-8.469-2.572-1.428-2.244-1.837-4.667-1.227-7.266.539-1.955 1.633-3.52 3.279-4.695a7.473 7.473 0 0 1 3.02-1.109ZM265.407 240.4c3.222-.005 5.557 1.426 7.007 4.294 1.052 2.415 1.099 4.853.141 7.314-.925 2.089-2.459 3.528-4.6 4.317-3.559.772-6.273-.4-8.14-3.515-1.343-2.607-1.453-5.265-.33-7.974 1.203-2.518 3.177-3.996 5.922-4.436Z" fill="#FE8081"/><path fill-rule="evenodd" clip-rule="evenodd" d="M64.782 243.184c.073.001.096.032.071.094a8.52 8.52 0 0 0-1.745 3.444c-.25 1.295.088 2.403 1.014 3.327a9.928 9.928 0 0 0 2.642 1.557c2.414.8 4.883 1.366 7.408 1.699 3.986.484 7.966 1.019 11.938 1.604 2.073.342 4.086.893 6.04 1.651a7.822 7.822 0 0 1 2.476 1.722l.472.661c.113.244.207.496.283.755a.222.222 0 0 1-.023.236 16.582 16.582 0 0 0-3.209-1.486 42.545 42.545 0 0 0-8.304-1.463c-3.9-.257-7.8-.493-11.702-.708a65.819 65.819 0 0 1-6.04-.708 18.89 18.89 0 0 1-4.151-1.321 9.962 9.962 0 0 1-2.997-2.618 6.722 6.722 0 0 1-.707-1.699 3.799 3.799 0 0 1 .707-2.737A11.041 11.041 0 0 1 62 244.576c.337-.177.668-.366.99-.567a46.31 46.31 0 0 0 1.794-.825Z" fill="#FEB681"/><path fill-rule="evenodd" clip-rule="evenodd" d="M77.945 244.646c0 .032.016.048.048.048.253 1.752.348 3.513.283 5.284-2.601-.152-5.18-.475-7.739-.967a9.9 9.9 0 0 1-2.5-.897 1.878 1.878 0 0 1-.92-1.156l-.048-1.226a1.043 1.043 0 0 0-.26-.378c.182-.173.37-.338.567-.495a6.741 6.741 0 0 1 3.256-.944 25.334 25.334 0 0 1 3.775.189c1.18.177 2.36.358 3.538.542Z" fill="#CC5A15"/><path fill-rule="evenodd" clip-rule="evenodd" d="M77.994 244.693c2.83.538 5.66 1.08 8.493 1.628a114.23 114.23 0 0 0 14.155 1.628.756.756 0 0 0 .378-.094 29.137 29.137 0 0 0 3.963 10.003 9.438 9.438 0 0 1-1.321-.118c-2.519-2.799-5.602-4.718-9.248-5.757a39.431 39.431 0 0 0-6.04-1.226c-3.358-.35-6.724-.61-10.097-.779a29.274 29.274 0 0 0-.283-5.285Z" fill="#CCC4CF"/><path fill-rule="evenodd" clip-rule="evenodd" d="M44.492 258.8c.222.292.387.622.495.991a99.938 99.938 0 0 0 1.982 3.067c.656.783 1.34 1.545 2.053 2.288l.566.472c.23.34.53.591.896.755.275.255.558.499.85.731a.146.146 0 0 1 .047.142.239.239 0 0 1 .142.023c.916.645 1.86 1.251 2.83 1.817a35.803 35.803 0 0 0 6.842 2.807c1.81.47 3.634.871 5.473 1.204 4.95.646 9.92.874 14.91.684a66.975 66.975 0 0 0 8.116-.614 45.326 45.326 0 0 0 7.267-1.557 26.274 26.274 0 0 0 4.718-2.076c.489-.354.992-.684 1.51-.991a4.36 4.36 0 0 0 .802-.92c-.328 2.607-1.39 4.856-3.185 6.748a19.22 19.22 0 0 1-5.969 3.987 40.859 40.859 0 0 1-11.749 2.831 66.611 66.611 0 0 1-19.722-1.038 31.952 31.952 0 0 1-10.098-3.964 19.293 19.293 0 0 1-6.252-6.299 22.604 22.604 0 0 1-2.524-11.088Z" fill="#CC5A15"/><path d="M13.858 319.65h49.185a5.735 5.735 0 0 1 5.734 5.734v59.882A5.735 5.735 0 0 1 63.043 391H13.858c-5.11 0-7.668-6.181-4.052-9.792l21.858-21.825a5.735 5.735 0 0 0 0-8.116L9.806 329.442c-3.616-3.611-1.059-9.792 4.052-9.792Z" fill="#A60B1D"/><path d="M14.848 316.738h49.198a5.73 5.73 0 0 1 5.73 5.73v59.89a5.73 5.73 0 0 1-5.73 5.73H14.848c-5.107 0-7.663-6.177-4.049-9.785l21.868-21.835a5.73 5.73 0 0 0 0-8.11l-21.868-21.835c-3.614-3.608-1.058-9.785 4.049-9.785Z" fill="url(#a)"/><path d="M349.142 319.649h-49.185a5.735 5.735 0 0 0-5.734 5.735v59.881a5.734 5.734 0 0 0 5.734 5.734h49.185c5.11 0 7.668-6.181 4.051-9.792l-21.858-21.825a5.736 5.736 0 0 1 0-8.116l21.858-21.825c3.617-3.611 1.059-9.792-4.051-9.792Z" fill="#A60B1D"/><path d="M348.92 317.378h-49.328a5.73 5.73 0 0 0-5.73 5.73v59.643a5.73 5.73 0 0 0 5.73 5.73h49.328c5.116 0 7.667-6.194 4.036-9.798l-21.855-21.686a5.73 5.73 0 0 1 0-8.135l21.855-21.687c3.631-3.603 1.079-9.797-4.036-9.797Z" fill="url(#b)"/><path d="M69.775 382.99v-18.201H52.581v.728l17.194 17.473ZM294.224 382.991V364.79l17.194-2.184s.717-2.185.717-.001l-17.911 20.386Z" fill="#C30F25"/><rect x="46.851" y="294.923" width="271.999" height="75.275" rx="17.202" fill="#D71028"/><rect x="46.978" y="293" width="271.999" height="75.275" rx="17.202" fill="url(#c)"/><g filter="url(#d)"><mask id="e" maskUnits="userSpaceOnUse" x="110.947" y="320.331" width="141" height="25" fill="#000"><path fill="#fff" d="M110.947 320.331h141v25h-141z"/><path d="M113.222 322.826a29.824 29.824 0 0 1 3.578-.206c.929 0 1.858.034 2.787.103.172 0 .447.137.516.344.757 2.305 1.548 5.16 2.202 7.5.619-2.34 1.445-5.195 2.202-7.5.069-.207.344-.344.516-.344a37.613 37.613 0 0 1 2.787-.103c1.204 0 2.443.068 3.578.206-.585 2.615-1.514 6.124-2.856 8.773a11.772 11.772 0 0 1-2.786 3.234l.103 8.498a45.653 45.653 0 0 1-3.097.103c-1.169 0-2.442-.034-3.578-.103-.206 0-.344-.138-.344-.344 0-2.649 0-5.367.035-8.154a11.758 11.758 0 0 1-2.787-3.234c-1.342-2.649-2.271-6.158-2.856-8.773Zm17.923 10.184c0-6.744 2.993-10.322 7.844-10.563 6.537 0 9.633 2.615 9.633 10.563 0 6.777-3.062 10.287-7.913 10.527-6.571 0-9.564-2.545-9.564-10.527Zm7.156 0c0 4.094.688 4.541 1.617 4.541s1.514-.447 1.514-4.541-.689-4.542-1.617-4.542c-.929 0-1.514.448-1.514 4.542Zm11.458.137c0-3.44.034-7.018.137-10.459 1.067-.034 1.858-.068 2.994-.068 1.169 0 2.374.034 3.543.068a.37.37 0 0 1 .344.344c.069 3.234.138 7.707.138 11.147 0 3.062.447 3.51 1.376 3.51.929 0 1.308-.448 1.308-3.51 0-3.44.034-8.05.137-11.491 1.067-.034 1.858-.068 2.993-.068 1.17 0 2.374.034 3.544.068a.37.37 0 0 1 .344.344c.069 3.234.138 6.675.138 10.115 0 7.466-2.822 10.287-7.673 10.528-6.227 0-9.323-1.858-9.323-10.528Zm29.145-.137c0-3.441.034-6.881.137-10.322 1.067-.034 1.858-.068 2.994-.068 1.169 0 2.373.034 3.543.068a.37.37 0 0 1 .344.344c.069 3.234.138 6.537.138 9.978 0 1.548-.035 3.027-.035 4.472h.138c1.17 0 4.094.035 5.264.069.172 0 .31.172.344.344v5.505c-1.101.069-3.956.103-5.092.103-1.17 0-6.158-.103-7.294-.172-.206 0-.344-.138-.344-.344-.068-3.234-.137-6.537-.137-9.977Zm13.423 0c0-6.744 2.993-10.322 7.844-10.563 6.537 0 9.633 2.615 9.633 10.563 0 6.777-3.062 10.287-7.913 10.527-6.571 0-9.564-2.545-9.564-10.527Zm7.156 0c0 4.094.688 4.541 1.617 4.541s1.514-.447 1.514-4.541-.688-4.542-1.617-4.542-1.514.448-1.514 4.542Zm11.497 10.115.826-6.193c2.408.757 4.541 1.204 6.09 1.204 1.307 0 1.857-.688 1.857-1.239 0-.688-.997-.963-2.339-1.341-2.58-.723-6.399-1.824-6.399-7.122 0-5.574 3.44-5.987 8.154-5.987 1.995 0 4.335.31 6.64.757l-.792 5.746c-1.617-.723-4.059-1.411-6.192-1.411-1.067 0-1.755.344-1.755.964 0 .619 1.066.929 2.477 1.341 2.856.861 7.122 2.134 7.122 6.916 0 5.47-3.785 6.743-8.429 6.743-2.34 0-4.886-.103-7.26-.378Zm15.944-17.822c0-.826 0-1.686.035-2.615 1.066-.034 6.812-.068 7.947-.068 1.17 0 5.952.034 7.122.068.172 0 .309.172.344.344v5.505c-.585.035-2.409.069-4.198.069.035 1.41.069 2.821.069 4.404 0 3.44-.069 6.881-.137 10.321a43.65 43.65 0 0 1-3.028.103c-1.17 0-2.374-.034-3.509-.103-.207 0-.344-.138-.344-.344-.069-3.234-.138-6.537-.138-9.977v-4.438c-1.548-.035-3.2-.069-3.784-.104-.207 0-.344-.137-.344-.344-.035-.963-.035-1.892-.035-2.821Zm17.063 15.069c0-.757 0-1.514.035-2.374.86-.034 1.72-.034 2.546-.034.929 0 1.892 0 2.959.034.172 0 .309.172.344.344v4.989c-.654.034-1.273.069-1.893.069-1.169 0-2.374-.069-3.612-.138-.207 0-.344-.137-.344-.344-.035-.894-.035-1.72-.035-2.546Zm-.24-10.803c0-2.408.034-4.438.137-6.881 1.067-.034 1.858-.068 2.993-.068 1.033 0 1.927.034 2.856.068.172.035.31.172.344.344.069 2.305.138 4.267.138 6.537 0 2.443-.104 4.473-.207 6.881-.825.069-1.376.103-2.442.103-1.17 0-2.202 0-3.338-.103-.206 0-.344-.137-.344-.344a137.45 137.45 0 0 1-.137-6.537Z"/></mask><path d="M113.222 322.826a29.824 29.824 0 0 1 3.578-.206c.929 0 1.858.034 2.787.103.172 0 .447.137.516.344.757 2.305 1.548 5.16 2.202 7.5.619-2.34 1.445-5.195 2.202-7.5.069-.207.344-.344.516-.344a37.613 37.613 0 0 1 2.787-.103c1.204 0 2.443.068 3.578.206-.585 2.615-1.514 6.124-2.856 8.773a11.772 11.772 0 0 1-2.786 3.234l.103 8.498a45.653 45.653 0 0 1-3.097.103c-1.169 0-2.442-.034-3.578-.103-.206 0-.344-.138-.344-.344 0-2.649 0-5.367.035-8.154a11.758 11.758 0 0 1-2.787-3.234c-1.342-2.649-2.271-6.158-2.856-8.773Zm17.923 10.184c0-6.744 2.993-10.322 7.844-10.563 6.537 0 9.633 2.615 9.633 10.563 0 6.777-3.062 10.287-7.913 10.527-6.571 0-9.564-2.545-9.564-10.527Zm7.156 0c0 4.094.688 4.541 1.617 4.541s1.514-.447 1.514-4.541-.689-4.542-1.617-4.542c-.929 0-1.514.448-1.514 4.542Zm11.458.137c0-3.44.034-7.018.137-10.459 1.067-.034 1.858-.068 2.994-.068 1.169 0 2.374.034 3.543.068a.37.37 0 0 1 .344.344c.069 3.234.138 7.707.138 11.147 0 3.062.447 3.51 1.376 3.51.929 0 1.308-.448 1.308-3.51 0-3.44.034-8.05.137-11.491 1.067-.034 1.858-.068 2.993-.068 1.17 0 2.374.034 3.544.068a.37.37 0 0 1 .344.344c.069 3.234.138 6.675.138 10.115 0 7.466-2.822 10.287-7.673 10.528-6.227 0-9.323-1.858-9.323-10.528Zm29.145-.137c0-3.441.034-6.881.137-10.322 1.067-.034 1.858-.068 2.994-.068 1.169 0 2.373.034 3.543.068a.37.37 0 0 1 .344.344c.069 3.234.138 6.537.138 9.978 0 1.548-.035 3.027-.035 4.472h.138c1.17 0 4.094.035 5.264.069.172 0 .31.172.344.344v5.505c-1.101.069-3.956.103-5.092.103-1.17 0-6.158-.103-7.294-.172-.206 0-.344-.138-.344-.344-.068-3.234-.137-6.537-.137-9.977Zm13.423 0c0-6.744 2.993-10.322 7.844-10.563 6.537 0 9.633 2.615 9.633 10.563 0 6.777-3.062 10.287-7.913 10.527-6.571 0-9.564-2.545-9.564-10.527Zm7.156 0c0 4.094.688 4.541 1.617 4.541s1.514-.447 1.514-4.541-.688-4.542-1.617-4.542-1.514.448-1.514 4.542Zm11.497 10.115.826-6.193c2.408.757 4.541 1.204 6.09 1.204 1.307 0 1.857-.688 1.857-1.239 0-.688-.997-.963-2.339-1.341-2.58-.723-6.399-1.824-6.399-7.122 0-5.574 3.44-5.987 8.154-5.987 1.995 0 4.335.31 6.64.757l-.792 5.746c-1.617-.723-4.059-1.411-6.192-1.411-1.067 0-1.755.344-1.755.964 0 .619 1.066.929 2.477 1.341 2.856.861 7.122 2.134 7.122 6.916 0 5.47-3.785 6.743-8.429 6.743-2.34 0-4.886-.103-7.26-.378Zm15.944-17.822c0-.826 0-1.686.035-2.615 1.066-.034 6.812-.068 7.947-.068 1.17 0 5.952.034 7.122.068.172 0 .309.172.344.344v5.505c-.585.035-2.409.069-4.198.069.035 1.41.069 2.821.069 4.404 0 3.44-.069 6.881-.137 10.321a43.65 43.65 0 0 1-3.028.103c-1.17 0-2.374-.034-3.509-.103-.207 0-.344-.138-.344-.344-.069-3.234-.138-6.537-.138-9.977v-4.438c-1.548-.035-3.2-.069-3.784-.104-.207 0-.344-.137-.344-.344-.035-.963-.035-1.892-.035-2.821Zm17.063 15.069c0-.757 0-1.514.035-2.374.86-.034 1.72-.034 2.546-.034.929 0 1.892 0 2.959.034.172 0 .309.172.344.344v4.989c-.654.034-1.273.069-1.893.069-1.169 0-2.374-.069-3.612-.138-.207 0-.344-.137-.344-.344-.035-.894-.035-1.72-.035-2.546Zm-.24-10.803c0-2.408.034-4.438.137-6.881 1.067-.034 1.858-.068 2.993-.068 1.033 0 1.927.034 2.856.068.172.035.31.172.344.344.069 2.305.138 4.267.138 6.537 0 2.443-.104 4.473-.207 6.881-.825.069-1.376.103-2.442.103-1.17 0-2.202 0-3.338-.103-.206 0-.344-.137-.344-.344a137.45 137.45 0 0 1-.137-6.537Z" fill="#fff"/><path d="m113.222 322.826-.172-1.423-1.572.19.345 1.546 1.399-.313Zm6.365-.103-.106 1.429.053.004h.053v-1.433Zm.516.344 1.362-.447-.002-.007-1.36.454Zm2.202 7.5-1.381.386 1.418 5.075 1.349-5.094-1.386-.367Zm2.202-7.5-1.36-.454-.002.007 1.362.447Zm.516-.344v1.433h.053l.053-.004-.106-1.429Zm6.365.103 1.399.313.346-1.546-1.573-.19-.172 1.423Zm-2.856 8.773 1.235.728.023-.039.021-.041-1.279-.648Zm-2.786 3.234-.896-1.119-.546.437.008.699 1.434-.017Zm.103 8.498.089 1.431 1.361-.085-.017-1.363-1.433.017Zm-6.675 0 .087-1.431-.043-.002h-.044v1.433Zm-.309-8.498 1.433.018.009-.7-.547-.437-.895 1.119Zm-2.787-3.234-1.279.648.021.041.023.039 1.235-.728Zm-2.683-7.35a28.463 28.463 0 0 1 3.405-.196v-2.867c-1.29 0-2.552.072-3.75.217l.345 2.846Zm3.405-.196c.894 0 1.787.033 2.681.099l.212-2.859a39.367 39.367 0 0 0-2.893-.107v2.867Zm2.787.103a.945.945 0 0 1-.288-.042.692.692 0 0 1-.161-.072.955.955 0 0 1-.395-.522l2.72-.907a1.917 1.917 0 0 0-.834-1.02 2.031 2.031 0 0 0-1.042-.304v2.867Zm-.846-.642c.745 2.268 1.526 5.088 2.183 7.439l2.762-.772c-.651-2.328-1.452-5.219-2.221-7.561l-2.724.894Zm4.95 7.42a142.23 142.23 0 0 1 2.178-7.42l-2.724-.894c-.768 2.337-1.601 5.221-2.226 7.58l2.772.734Zm2.176-7.414a.955.955 0 0 1-.395.522.692.692 0 0 1-.161.072.945.945 0 0 1-.288.042v-2.867c-.41 0-.777.142-1.042.304-.264.161-.654.48-.834 1.02l2.72.907Zm-.738.632a36.388 36.388 0 0 1 2.681-.099v-2.867c-.965 0-1.929.036-2.893.107l.212 2.859Zm2.681-.099c1.153 0 2.333.066 3.405.196l.345-2.846a31.792 31.792 0 0 0-3.75-.217v2.867Zm2.179-1.54c-.582 2.6-1.48 5.959-2.736 8.438l2.558 1.296c1.428-2.819 2.388-6.478 2.976-9.108l-2.798-.626Zm-2.692 8.358a10.36 10.36 0 0 1-2.447 2.843l1.791 2.239a13.22 13.22 0 0 0 3.126-3.626l-2.47-1.456Zm-2.985 3.979.103 8.499 2.867-.035-.103-8.498-2.867.034Zm1.447 7.05a43.955 43.955 0 0 1-3.007.101v2.867c1.172 0 2.063-.036 3.186-.106l-.179-2.862Zm-3.007.101a59.66 59.66 0 0 1-3.491-.101l-.173 2.862c1.167.071 2.469.106 3.664.106v-2.867Zm-3.578-.103c.223 0 .52.08.764.325.245.245.326.541.326.764h-2.867c0 .429.149.898.514 1.263.365.365.834.515 1.263.515v-2.867Zm1.09 1.089c0-2.65 0-5.36.034-8.136l-2.867-.036c-.034 2.797-.034 5.524-.034 8.172h2.867Zm-.504-9.273a10.36 10.36 0 0 1-2.447-2.843l-2.47 1.456a13.22 13.22 0 0 0 3.126 3.626l1.791-2.239Zm-2.403-2.763c-1.256-2.479-2.154-5.838-2.736-8.438l-2.798.626c.589 2.63 1.548 6.289 2.976 9.108l2.558-1.296Zm21.632-8.504v-1.433h-.036l-.035.002.071 1.431Zm1.72 21.09v1.434h.036l.035-.002-.071-1.432Zm-8.131-10.527c0-3.181.708-5.414 1.807-6.848 1.068-1.392 2.615-2.181 4.675-2.283l-.142-2.863c-2.792.138-5.166 1.259-6.808 3.402-1.611 2.101-2.399 5.029-2.399 8.592h2.867Zm6.411-9.129c3.124 0 5.048.633 6.237 1.863 1.204 1.246 1.963 3.423 1.963 7.266h2.867c0-4.105-.79-7.21-2.768-9.258-1.994-2.064-4.886-2.738-8.299-2.738v2.867Zm8.2 9.129c0 3.193-.724 5.412-1.834 6.832-1.08 1.382-2.647 2.161-4.717 2.264l.142 2.863c2.781-.138 5.171-1.234 6.834-3.361 1.634-2.09 2.442-5.014 2.442-8.598h-2.867Zm-6.48 9.094c-3.152 0-5.05-.62-6.213-1.83-1.179-1.229-1.918-3.391-1.918-7.264h-2.867c0 4.109.758 7.21 2.718 9.25 1.977 2.058 4.861 2.711 8.28 2.711v-2.867Zm-3.842-9.094c0 2.045.159 3.469.593 4.407.241.523.603.975 1.129 1.26.501.272.997.308 1.329.308v-2.867c-.133 0-.071-.021.039.039.136.074.152.158.105.057-.143-.309-.328-1.155-.328-3.204h-2.867Zm3.051 5.975c.327 0 .834-.035 1.339-.323.531-.303.87-.774 1.087-1.29.388-.923.521-2.331.521-4.362h-2.867c0 2.063-.16 2.925-.296 3.25-.046.107-.026.004.133-.088.134-.076.22-.054.083-.054v2.867Zm2.947-5.975c0-2.045-.159-3.469-.592-4.408-.242-.523-.604-.974-1.13-1.26-.501-.271-.997-.307-1.328-.307v2.867c.133 0 .071.02-.04-.04-.136-.074-.151-.157-.105-.057.143.309.328 1.156.328 3.205h2.867Zm-3.05-5.975c-.328 0-.835.034-1.34.322-.53.303-.87.775-1.087 1.291-.388.922-.521 2.331-.521 4.362h2.867c0-2.063.16-2.926.297-3.25.045-.108.026-.004-.134.087-.134.077-.219.055-.082.055v-2.867Zm10.081-4.347-.046-1.432-1.346.043-.04 1.346 1.432.043Zm6.537 0-.042 1.433.021.001h.021v-1.434Zm.344.344h-1.433v.031l1.433-.031Zm2.959-.344-.046-1.432-1.346.043-.041 1.346 1.433.043Zm6.537 0-.042 1.433.021.001h.021v-1.434Zm.344.344h-1.433v.031l1.433-.031Zm-7.535 20.643v1.434h.036l.036-.002-.072-1.432Zm-7.89-10.528c0-3.432.035-6.994.137-10.416l-2.865-.086c-.104 3.46-.139 7.053-.139 10.502h2.867Zm-1.249-9.026c1.079-.035 1.841-.068 2.947-.068v-2.867c-1.165 0-1.987.036-3.04.07l.093 2.865Zm2.947-.068c1.145 0 2.329.034 3.501.068l.084-2.866a124.177 124.177 0 0 0-3.585-.069v2.867Zm3.543.069c-.38 0-.64-.176-.777-.313a1.086 1.086 0 0 1-.312-.777h2.867c0-.552-.262-.984-.528-1.25a1.772 1.772 0 0 0-1.25-.527v2.867Zm-1.089-1.059c.069 3.229.137 7.69.137 11.116h2.867c0-3.455-.069-7.938-.137-11.177l-2.867.061Zm.137 11.116c0 1.507.095 2.687.472 3.503.219.475.561.896 1.07 1.161.471.245.942.279 1.268.279v-2.867c-.138 0-.071-.021.055.044.164.086.22.203.211.183-.025-.052-.086-.227-.134-.632a14.613 14.613 0 0 1-.075-1.671h-2.867Zm2.81 4.943c.323 0 .803-.033 1.278-.29.516-.279.842-.717 1.043-1.188.342-.804.42-1.971.42-3.465h-2.867c0 .743-.023 1.289-.066 1.69-.044.414-.1.595-.125.651-.01.024.048-.111.232-.21.143-.077.227-.055.085-.055v2.867Zm2.741-4.943c0-3.435.034-8.029.137-11.448l-2.866-.086c-.104 3.462-.138 8.089-.138 11.534h2.867Zm-1.25-10.058c1.08-.035 1.841-.068 2.947-.068v-2.867c-1.164 0-1.986.036-3.039.07l.092 2.865Zm2.947-.068c1.146 0 2.329.034 3.502.068l.084-2.866a124.247 124.247 0 0 0-3.586-.069v2.867Zm3.544.069c-.38 0-.64-.176-.777-.313a1.086 1.086 0 0 1-.312-.777h2.867c0-.552-.262-.984-.528-1.25a1.776 1.776 0 0 0-1.25-.527v2.867Zm-1.089-1.059c.069 3.234.137 6.661.137 10.084h2.867c0-3.457-.069-6.912-.138-10.145l-2.866.061Zm.137 10.084c0 3.593-.686 5.785-1.71 7.088-.978 1.244-2.445 1.901-4.6 2.008l.143 2.864c2.696-.134 5.065-1.008 6.711-3.101 1.599-2.034 2.323-4.986 2.323-8.859h-2.867Zm-6.239 9.095c-3.051 0-4.863-.476-5.984-1.595-1.131-1.127-1.906-3.256-1.906-7.5h-2.867c0 4.427.774 7.562 2.748 9.53 1.984 1.979 4.833 2.432 8.009 2.432v-2.867Zm19.959-19.554-.046-1.432-1.346.043-.041 1.346 1.433.043Zm6.537 0-.042 1.433.021.001h.021v-1.434Zm.344.344h-1.433v.031l1.433-.031Zm.103 14.45h-1.433v1.434h1.433v-1.434Zm5.402.069-.042 1.433.021.001h.021v-1.434Zm.344.344h1.434v-.142l-.028-.139-1.406.281Zm0 5.505.089 1.431 1.345-.084V343.4h-1.434Zm-12.386-.069.087-1.431-.043-.002h-.044v1.433Zm-.344-.344h1.434v-.03l-1.434.03Zm1.296-9.977c0-3.432.035-6.857.137-10.279l-2.866-.086a348.197 348.197 0 0 0-.138 10.365h2.867Zm-1.249-8.889c1.079-.035 1.841-.068 2.947-.068v-2.867c-1.165 0-1.987.036-3.04.07l.093 2.865Zm2.947-.068c1.145 0 2.329.034 3.501.068l.084-2.866a124.177 124.177 0 0 0-3.585-.069v2.867Zm3.543.069c-.38 0-.64-.176-.777-.313a1.086 1.086 0 0 1-.312-.777h2.867c0-.552-.262-.984-.528-1.25a1.774 1.774 0 0 0-1.25-.527v2.867Zm-1.089-1.059c.069 3.235.137 6.524.137 9.947h2.867c0-3.458-.069-6.775-.138-10.008l-2.866.061Zm.137 9.947c0 .764-.008 1.513-.017 2.258-.008.742-.017 1.482-.017 2.214h2.867c0-.712.008-1.435.017-2.181.009-.743.017-1.508.017-2.291h-2.867Zm1.399 5.906h.138v-2.867h-.138v2.867Zm.138 0c1.16 0 4.07.034 5.222.068l.084-2.866a268.903 268.903 0 0 0-5.306-.069v2.867Zm5.264.069c-.416 0-.695-.209-.824-.348a.936.936 0 0 1-.238-.461l2.812-.562a1.946 1.946 0 0 0-.478-.934 1.744 1.744 0 0 0-1.272-.562v2.867Zm-1.089-1.09V340.888h2.867V337.895h-2.867Zm0 2.993V343.4h2.867V340.888h-2.867Zm1.344 1.081c-1.051.066-3.865.101-5.003.101v2.867c1.133 0 4.03-.034 5.181-.106l-.178-2.862Zm-5.003.101c-1.158 0-6.113-.104-7.207-.17l-.173 2.862c1.177.071 6.198.175 7.38.175v-2.867Zm-7.294-.172c.223 0 .52.08.765.325.244.245.325.541.325.764h-2.867c0 .429.149.898.514 1.263.366.365.834.515 1.263.515v-2.867Zm1.09 1.059c-.069-3.236-.138-6.524-.138-9.947h-2.867c0 3.458.069 6.775.138 10.008l2.867-.061Zm19.696-20.51v-1.433h-.035l-.036.002.071 1.431Zm1.72 21.09v1.434h.036l.035-.002-.071-1.432Zm-8.131-10.527c0-3.181.709-5.414 1.808-6.848 1.067-1.392 2.615-2.181 4.674-2.283l-.142-2.863c-2.792.138-5.166 1.259-6.808 3.402-1.61 2.101-2.399 5.029-2.399 8.592h2.867Zm6.411-9.129c3.124 0 5.048.633 6.237 1.863 1.204 1.246 1.963 3.423 1.963 7.266h2.867c0-4.105-.789-7.21-2.768-9.258-1.994-2.064-4.886-2.738-8.299-2.738v2.867Zm8.2 9.129c0 3.193-.723 5.412-1.833 6.832-1.081 1.382-2.647 2.161-4.718 2.264l.142 2.863c2.781-.138 5.171-1.234 6.834-3.361 1.634-2.09 2.442-5.014 2.442-8.598h-2.867Zm-6.48 9.094c-3.152 0-5.05-.62-6.212-1.83-1.18-1.229-1.919-3.391-1.919-7.264h-2.867c0 4.109.759 7.21 2.718 9.25 1.977 2.058 4.862 2.711 8.28 2.711v-2.867Zm-3.841-9.094c0 2.045.158 3.469.592 4.407.242.523.603.975 1.13 1.26.5.272.997.308 1.328.308v-2.867c-.133 0-.071-.021.039.039.136.074.152.158.106.057-.143-.309-.328-1.155-.328-3.204h-2.867Zm3.05 5.975c.328 0 .834-.035 1.339-.323.531-.303.871-.774 1.088-1.29.388-.923.52-2.331.52-4.362h-2.867c0 2.063-.159 2.925-.296 3.25-.045.107-.026.004.134-.088.134-.076.219-.054.082-.054v2.867Zm2.947-5.975c0-2.045-.158-3.469-.592-4.408-.242-.523-.604-.974-1.13-1.26-.5-.271-.997-.307-1.328-.307v2.867c.133 0 .071.02-.039-.04-.136-.074-.152-.157-.106-.057.143.309.328 1.156.328 3.205h2.867Zm-3.05-5.975c-.328 0-.835.034-1.339.322-.531.303-.871.775-1.088 1.291-.388.922-.52 2.331-.52 4.362h2.867c0-2.063.159-2.926.296-3.25.045-.108.026-.004-.134.087-.134.077-.219.055-.082.055v-2.867Zm9.983 16.09-1.421-.19-.192 1.446 1.448.168.165-1.424Zm.826-6.193.43-1.368-1.626-.511-.225 1.689 1.421.19Zm5.608-1.376.389-1.38-.002-.001-.387 1.381Zm8.395-12.352 1.42.196.185-1.344-1.332-.259-.273 1.407Zm-.792 5.746-.584 1.309 1.744.779.261-1.892-1.421-.196Zm-5.47.894.414-1.372-.011-.003-.403 1.375Zm-7.146 13.47.826-6.193-2.842-.379-.826 6.193 2.842.379Zm-1.025-5.015c2.45.77 4.75 1.27 6.52 1.27v-2.867c-1.327 0-3.293-.394-5.66-1.138l-.86 2.735Zm6.52 1.27c1.784 0 3.291-1.047 3.291-2.672h-2.867c0-.205.097-.291.099-.293.008-.006-.118.098-.523.098v2.867Zm3.291-2.672c0-1.22-.949-1.822-1.475-2.077-.558-.27-1.29-.47-1.909-.644l-.778 2.759c.343.097.631.178.886.259.257.082.433.149.551.206.127.062.107.074.044.004a.785.785 0 0 1-.186-.507h2.867Zm-3.386-2.722c-1.325-.371-2.641-.765-3.656-1.581-.918-.739-1.697-1.918-1.697-4.16h-2.867c0 3.056 1.131 5.077 2.767 6.394 1.54 1.239 3.424 1.757 4.679 2.108l.774-2.761Zm-5.353-5.741c0-1.257.196-2.096.469-2.665.261-.541.623-.9 1.1-1.163 1.074-.593 2.731-.725 5.152-.725v-2.867c-2.293 0-4.713.074-6.538 1.082a5.382 5.382 0 0 0-2.297 2.429c-.518 1.077-.753 2.379-.753 3.909h2.867Zm6.721-4.553c1.865 0 4.104.292 6.367.731l.546-2.815c-2.348-.455-4.788-.783-6.913-.783v2.867Zm5.22-.872-.792 5.745 2.841.392.791-5.746-2.84-.391Zm1.213 4.632c-1.747-.781-4.391-1.535-6.777-1.535v2.867c1.879 0 4.121.621 5.608 1.286l1.169-2.618Zm-6.777-1.535c-.655 0-1.359.1-1.954.419-.653.349-1.235 1.017-1.235 1.978h2.867a.71.71 0 0 1-.124.394.5.5 0 0 1-.155.156c-.002.001.041-.022.151-.043.108-.021.257-.037.45-.037v-2.867Zm-3.189 2.397c0 .62.285 1.101.607 1.424.294.295.645.49.931.623.565.264 1.308.476 1.97.67l.806-2.751c-.749-.219-1.244-.368-1.565-.517-.157-.073-.16-.098-.11-.048a.872.872 0 0 1 .228.599h-2.867Zm3.498 2.714c1.469.443 3.011.918 4.208 1.778 1.104.794 1.893 1.899 1.893 3.765h2.867c0-2.917-1.343-4.839-3.086-6.093-1.651-1.186-3.669-1.778-5.055-2.195l-.827 2.745Zm6.101 5.543c0 2.358-.784 3.541-1.826 4.224-1.165.766-2.92 1.086-5.169 1.086v2.867c2.395 0 4.855-.317 6.743-1.556 2.011-1.32 3.119-3.509 3.119-6.621h-2.867Zm-6.995 5.31c-2.302 0-4.791-.102-7.095-.369l-.33 2.848c2.444.283 5.048.388 7.425.388v-2.867Zm8.719-19.382-.047-1.432-1.336.043-.05 1.336 1.433.053Zm15.069 0-.042 1.433.021.001h.021v-1.434Zm.344.344h1.433v-.142l-.028-.139-1.405.281Zm0 5.505.084 1.431 1.349-.079v-1.352h-1.433Zm-4.198.069v-1.434h-1.468l.035 1.469 1.433-.035Zm-.068 14.725.089 1.431 1.317-.083.027-1.319-1.433-.029Zm-6.537 0 .086-1.431-.043-.002h-.043v1.433Zm-.344-.344h1.433v-.03l-1.433.03Zm-.138-14.415h1.434v-1.403l-1.402-.031-.032 1.434Zm-3.784-.104.084-1.431-.042-.002h-.042v1.433Zm-.344-.344h1.433v-.025l-.001-.026-1.432.051Zm1.399-2.821c0-.828 0-1.663.033-2.562l-2.865-.106c-.036.959-.035 1.845-.035 2.668h2.867Zm-1.353-1.182c1.039-.033 6.76-.068 7.901-.068v-2.867c-1.13 0-6.9.034-7.994.07l.093 2.865Zm7.901-.068c1.17 0 5.933.035 7.08.068l.084-2.866c-1.193-.035-5.994-.069-7.164-.069v2.867Zm7.122.069c-.417 0-.695-.209-.825-.348a.944.944 0 0 1-.237-.46l2.811-.563a1.92 1.92 0 0 0-.478-.933 1.74 1.74 0 0 0-1.271-.563v2.867Zm-1.09-1.09V325.991h2.867V323.032h-2.867Zm0 2.959V328.537h2.867V325.991h-2.867Zm1.35 1.115c-.539.032-2.324.066-4.114.066v2.867c1.789 0 3.651-.034 4.282-.071l-.168-2.862Zm-5.547 1.535c.035 1.412.069 2.806.069 4.369h2.867c0-1.603-.035-3.03-.069-4.439l-2.867.07Zm.069 4.369c0 3.423-.069 6.85-.138 10.292l2.867.058c.069-3.438.138-6.893.138-10.35h-2.867Zm1.206 8.89a42.06 42.06 0 0 1-2.938.101v2.867c1.174 0 1.996-.036 3.117-.106l-.179-2.862Zm-2.938.101c-1.143 0-2.318-.034-3.423-.101l-.173 2.862c1.166.071 2.399.106 3.596.106v-2.867Zm-3.509-.103c.222 0 .519.08.764.325s.325.541.325.764h-2.867c0 .429.149.898.515 1.263.365.365.834.515 1.263.515v-2.867Zm1.089 1.059c-.069-3.236-.137-6.524-.137-9.947h-2.867c0 3.458.069 6.775.138 10.008l2.866-.061Zm-.137-9.947V328.572h-2.867V333.01h2.867Zm-1.402-5.872c-1.572-.035-3.182-.068-3.732-.101l-.169 2.862c.62.037 2.313.072 3.837.106l.064-2.867Zm-3.816-.103c.222 0 .519.08.764.325s.325.542.325.764h-2.867c0 .429.149.898.515 1.263.365.366.834.515 1.263.515v-2.867Zm1.088 1.038c-.033-.934-.033-1.837-.033-2.77h-2.867c0 .925-.001 1.879.035 2.872l2.865-.102Zm15.631 9.925-.057-1.432-1.323.053-.053 1.322 1.433.057Zm5.505 0-.047 1.433.023.001h.024v-1.434Zm.344.344h1.433v-.142l-.028-.139-1.405.281Zm0 4.989.075 1.432 1.358-.072v-1.36h-1.433Zm-5.505-.069.079-1.431-.039-.002h-.04v1.433Zm-.344-.344h1.433v-.027l-.001-.028-1.432.055Zm-.138-20.23-.046-1.432-1.33.042-.056 1.33 1.432.06Zm5.849 0 .281-1.405-.113-.023-.115-.004-.053 1.432Zm.344.344 1.433-.042-.004-.121-.023-.118-1.406.281Zm-.069 13.418.119 1.429 1.259-.105.054-1.262-1.432-.062Zm-5.78 0 .13-1.427-.065-.006h-.065v1.433Zm-.344-.344h1.434v-.032l-.002-.033-1.432.065Zm1.537 4.266c0-.759 0-1.489.033-2.316l-2.865-.115c-.035.893-.035 1.676-.035 2.431h2.867Zm-1.342-.941a62.523 62.523 0 0 1 2.489-.034v-2.867c-.821 0-1.71 0-2.603.036l.114 2.865Zm2.489-.034c.931 0 1.872.001 2.912.034l.093-2.865c-1.093-.036-2.078-.036-3.005-.036v2.867Zm2.959.035c-.417 0-.695-.209-.825-.348a.944.944 0 0 1-.237-.46l2.811-.563a1.92 1.92 0 0 0-.478-.933 1.74 1.74 0 0 0-1.271-.563v2.867Zm-1.09-1.09V340.992h2.867V338.342h-2.867Zm0 2.65V343.331h2.867V340.992h-2.867Zm1.358.908c-.664.034-1.243.066-1.817.066v2.867c.665 0 1.325-.037 1.968-.07l-.151-2.863Zm-1.817.066c-1.122 0-2.284-.066-3.533-.135l-.159 2.863c1.229.068 2.475.139 3.692.139v-2.867Zm-3.612-.137c.222 0 .519.08.764.325s.325.542.325.764h-2.867c0 .429.15.898.515 1.263.365.366.834.515 1.263.515v-2.867Zm1.088 1.034c-.033-.863-.033-1.662-.033-2.491h-2.867c0 .823 0 1.675.035 2.601l2.865-.11Zm-.274-13.294c0-2.392.034-4.401.136-6.82l-2.864-.121a155.753 155.753 0 0 0-.139 6.941h2.867Zm-1.25-5.448c1.08-.035 1.841-.068 2.947-.068v-2.867c-1.164 0-1.986.036-3.039.07l.092 2.865Zm2.947-.068c1.002 0 1.87.033 2.803.068l.106-2.865c-.925-.034-1.846-.07-2.909-.07v2.867Zm2.575.041a.991.991 0 0 1-.781-.78l2.812-.563a1.875 1.875 0 0 0-1.469-1.468l-.562 2.811Zm-.808-1.019c.069 2.315.137 4.25.137 6.494h2.867c0-2.297-.07-4.284-.138-6.579l-2.866.085Zm.137 6.494c0 2.405-.101 4.399-.205 6.82l2.864.123c.103-2.396.208-4.462.208-6.943h-2.867Zm1.108 5.453c-.795.066-1.305.098-2.323.098v2.867c1.114 0 1.705-.037 2.561-.108l-.238-2.857Zm-2.323.098c-1.178 0-2.147-.001-3.208-.097l-.259 2.855c1.209.11 2.305.109 3.467.109v-2.867Zm-3.338-.103c.223 0 .52.08.765.325.244.245.325.542.325.764h-2.867c0 .429.149.898.514 1.263.365.365.834.515 1.263.515v-2.867Zm1.088 1.024a135.761 135.761 0 0 1-.136-6.472h-2.867c0 2.322.035 4.305.139 6.602l2.864-.13Z" fill="#D71028" mask="url(#e)"/></g><defs><linearGradient id="a" x1="35.388" y1="316.738" x2="35.388" y2="388.088" gradientUnits="userSpaceOnUse"><stop stop-color="#FFA4A4"/><stop offset="1" stop-color="#ED3641"/></linearGradient><linearGradient id="b" x1="328.346" y1="317.378" x2="328.346" y2="388.481" gradientUnits="userSpaceOnUse"><stop stop-color="#FFA4A4"/><stop offset="1" stop-color="#ED3641"/></linearGradient><linearGradient id="c" x1="182.978" y1="293" x2="182.978" y2="368.275" gradientUnits="userSpaceOnUse"><stop stop-color="#FFA4A4"/><stop offset="1" stop-color="#ED3641"/></linearGradient><filter id="d" x="113.222" y="322.447" width="136.992" height="24.095" filterUnits="userSpaceOnUse" color-interpolation-filters="sRGB"><feFlood flood-opacity="0" result="BackgroundImageFix"/><feColorMatrix in="SourceAlpha" values="0 0 0 0 0 0 0 0 0 0 0 0 0 0 0 0 0 0 127 0" result="hardAlpha"/><feOffset dy="2.867"/><feComposite in2="hardAlpha" operator="out"/><feColorMatrix values="0 0 0 0 0.843137 0 0 0 0 0.0627451 0 0 0 0 0.156863 0 0 0 1 0"/><feBlend in2="BackgroundImageFix" result="effect1_dropShadow_231_2760"/><feBlend in="SourceGraphic" in2="effect1_dropShadow_231_2760" result="shape"/></filter></defs></svg>