<svg width="724" height="463" fill="none" xmlns="http://www.w3.org/2000/svg"><path d="m.823 310.894 305.481 21.273 11.056-.03 406.382 26.524-8.531-87.042-266.668 21.462 248.558-73.929-79.043-97.905-191.71 141.491L562.796 63.035 398.671 10.113l-28.985 252.78-52.326-252.78-141.429 35.17L317.197 272.71 112.18 97.76l-59.224 73.409 253.242 122.302-288.98-51.722L.823 310.894Z" fill="url(#a)"/><path fill-rule="evenodd" clip-rule="evenodd" d="M415.199 323.383c-.77 3.279-2.674 5.655-5.712 7.128a10.846 10.846 0 0 1-3.761.928c-9.287.031-18.575.031-27.862 0-3.688-.408-6.312-2.288-7.871-5.642a11.137 11.137 0 0 1-.766-4.086c-.369-6.965-.741-13.931-1.115-20.896h-3.993c-.354 7.105-.726 14.21-1.115 21.314-.094 3.123-1.364 5.638-3.807 7.546a9.404 9.404 0 0 1-5.108 1.764c-9.288.031-18.575.031-27.862 0-3.384-.379-6.008-1.981-7.871-4.806a10.955 10.955 0 0 1-1.184-2.693c-.92-4.458-.285-8.676 1.904-12.654a70.005 70.005 0 0 1-18.575 7.755 66.28 66.28 0 0 1-12.538 2.09c-7.334.463-14.268-.961-20.803-4.273a28.213 28.213 0 0 1-7.778-6.013c-4.034-4.714-5.21-10.069-3.529-16.067 2.66-9.424 8.767-12.945 18.319-10.564a41.16 41.16 0 0 1 5.247 1.857 903.122 903.122 0 0 1 7.848 3.715 38.143 38.143 0 0 0 13.42 3.204c7.679.642 14.668-1.223 20.966-5.595a367.163 367.163 0 0 1-1.904-27.073c-4.548-5.415-7.366-11.637-8.451-18.667-.855-6.058.104-11.801 2.879-17.228a30.118 30.118 0 0 1 3.273-4.829 146.78 146.78 0 0 1-16.902-6.107 101.905 101.905 0 0 1-17.785-9.937 73.79 73.79 0 0 1-6.873-5.573 5393.31 5393.31 0 0 0-2.392-2.391 49.344 49.344 0 0 1-1.625-1.95c-.47-.992-.261-1.805.627-2.438a56.855 56.855 0 0 1 2.09-.697 16.694 16.694 0 0 0 4.55-2.647l.465-.464a19.485 19.485 0 0 1-7.523-3.715 25.724 25.724 0 0 1-5.27-5.735c-.265-.654-.202-1.273.185-1.857a25.624 25.624 0 0 0 6.176-7.476 39.056 39.056 0 0 0 3.065-7.848 85.38 85.38 0 0 0 1.672-7.709c.599-3.78 1.218-7.557 1.857-11.33a88.116 88.116 0 0 1 1.997-8.452 39.658 39.658 0 0 1 3.529-8.172.951.951 0 0 0 0-.418 183.047 183.047 0 0 1-2.832-26.051c-.291-7.59-.199-15.174.278-22.754.871-5.265 3.727-9.003 8.568-11.214a14.69 14.69 0 0 1 6.269-1.022 109.118 109.118 0 0 1 29.022 6.594 127.773 127.773 0 0 1 12.77 5.712 971.591 971.591 0 0 1 5.689 3.088c13.737-2.775 27.474-2.782 41.212-.023a.75.75 0 0 0 .371 0 119.836 119.836 0 0 1 28.512-12.074 105.429 105.429 0 0 1 18.854-3.297c5.302-.139 9.489 1.928 12.561 6.2 1.486 2.246 2.275 4.722 2.368 7.43.402 8.327.402 16.654 0 24.982a170.259 170.259 0 0 1-2.717 22.684 42.484 42.484 0 0 1 4.203 10.518 99.933 99.933 0 0 1 1.3 5.851c.658 3.85 1.293 7.704 1.904 11.563a84.787 84.787 0 0 0 2.275 9.844 34.238 34.238 0 0 0 3.39 7.43 26.314 26.314 0 0 0 3.738 4.574l1.509 1.323c.45.611.512 1.261.186 1.951-2.343 3.473-5.369 6.174-9.078 8.103a19.483 19.483 0 0 1-3.715 1.277 14.34 14.34 0 0 0 4.69 2.995c.834.304 1.67.598 2.508.882.79.601.999 1.367.626 2.299a38.08 38.08 0 0 1-3.691 4.063 77.154 77.154 0 0 1-11.377 8.684 110.76 110.76 0 0 1-18.389 9.148 172.552 172.552 0 0 1-12.213 4.156c3.944 4.701 6.088 10.134 6.432 16.299.179 5.52-.889 10.782-3.204 15.788a36.023 36.023 0 0 1-4.737 7.662 415.021 415.021 0 0 1-1.346 21.872 245.935 245.935 0 0 1-2.462 18.574 145.398 145.398 0 0 1-1.091 5.433l.047.139a15.694 15.694 0 0 1 5.317 5.619c2.194 3.878 2.913 8.01 2.159 12.399Z" fill="#010072"/><path fill-rule="evenodd" clip-rule="evenodd" d="M339.554 84.05c.15.843.305 1.679.464 2.508a76.164 76.164 0 0 0 4.11 14.348 26.301 26.301 0 0 0 2.925 5.341 9.564 9.564 0 0 0 2.113 2.066c1.491.875 2.83.682 4.017-.58a13.072 13.072 0 0 0 2.182-4.226 49.27 49.27 0 0 0 1.719-8.498c.39-3.612.614-7.234.673-10.866.046-1.122.062-2.252.046-3.39a99.345 99.345 0 0 1 16.485.046c-.015 1.185 0 2.361.047 3.53.045 4.481.393 8.94 1.044 13.373.351 2.471.97 4.87 1.858 7.198a9.774 9.774 0 0 0 1.764 2.925c1.175 1.182 2.483 1.345 3.924.488a9.73 9.73 0 0 0 2.253-2.252 28.166 28.166 0 0 0 2.879-5.387 75.695 75.695 0 0 0 4.016-14.116c.197-.788.336-1.593.418-2.415a96.551 96.551 0 0 1 9.148 3.134c2.1.888 4.128 1.91 6.083 3.065.024.026.04.057.047.093-.341.74-.217 1.39.371 1.95a101.072 101.072 0 0 1 21.082 18.761c.671.421 1.321.39 1.951-.093a1.9 1.9 0 0 0 .394-.627 88.379 88.379 0 0 0 .883-21.825 32.71 32.71 0 0 0-.325-2.554c-.761-2.432-2.417-3.733-4.969-3.9a34.655 34.655 0 0 0-13.629 4.202 31.746 31.746 0 0 0-5.596 3.877 54.247 54.247 0 0 0-7.406-4.992 98.397 98.397 0 0 0-9.659-4.597 110.638 110.638 0 0 1 33.248-12.166 106.523 106.523 0 0 1 9.566-1.3c4.691-.299 8.212 1.567 10.564 5.595a10.884 10.884 0 0 1 1.161 3.9c.464 8.746.464 17.492 0 26.237a171.686 171.686 0 0 1-2.739 22.057c-.071.46.006.894.232 1.301a32.331 32.331 0 0 1 3.436 7.662 78.3 78.3 0 0 1 2.183 9.287 967.691 967.691 0 0 1 1.532 9.473 125.536 125.536 0 0 0 1.672 8.08 46.294 46.294 0 0 0 3.343 9.008 28.83 28.83 0 0 0 5.735 7.662 21.42 21.42 0 0 1-5.526 4.899 13.485 13.485 0 0 1-7.198 1.904 1.813 1.813 0 0 0-1.091 1.138 2.041 2.041 0 0 0 .186 1.486 14.179 14.179 0 0 0 4.435 4.76 21.558 21.558 0 0 0 3.529 1.927c-.28.31-.574.604-.883.882a244.177 244.177 0 0 1-44.811 14.233c-1.515.306-3.031.592-4.55.859.461-2.941-27.06 16.253-28.651 13.745-1.694-2.677 5.102-7.963 2.043-8.8-3.32-.673-1.818-6.245-4.412-4.086-1.152 1.028 11.161-9.908 10.286-8.66a36.98 36.98 0 0 0-10.936-4.064 13.173 13.173 0 0 0 3.019-4.434 20.027 20.027 0 0 0 6.826-2.995c3.811-2.788 5.49-6.557 5.038-11.308a12.266 12.266 0 0 0-.557-2.507 8.327 8.327 0 0 1-3.135 3.413c-3.156 1.854-6.546 2.473-10.169 1.857a7.41 7.41 0 0 1-2.926-1.253 3.394 3.394 0 0 1-1.021-1.185 11.602 11.602 0 0 0 2.577-3.436c.216-.984-.132-1.688-1.045-2.113a31.771 31.771 0 0 0-3.297-.464 47.368 47.368 0 0 0-6.547.093c-.75.083-1.493.207-2.229.371-.953.428-1.301 1.147-1.045 2.16a10.61 10.61 0 0 0 2.113 2.972 4.573 4.573 0 0 1-1.858 1.973 10.171 10.171 0 0 1-4.133 1.115c-3.05.161-5.875-.543-8.474-2.113a8.27 8.27 0 0 1-3.019-3.344c-.031-.062-.061-.062-.092 0a13.946 13.946 0 0 0-.14 7.43c.855 2.663 2.426 4.791 4.714 6.385a22.355 22.355 0 0 0 7.569 3.181 12.734 12.734 0 0 0 1.927 3.018c.264.435.582.83.952 1.184a37.15 37.15 0 0 0-10.611 3.924c-.914-1.317 8.969 13.907 7.732 12.886-3.202-2.412-8.318 6.388-12.051 7.871-3.823 1.894-9.975-7.022-10.842-2.832-.157 1.239-5.652-11.221-5.48-9.984-.005.051-.037.081-.093.093a240.314 240.314 0 0 1-49.64-15.185 15.71 15.71 0 0 1-.72-.696.373.373 0 0 1-.093-.233 16.98 16.98 0 0 0 7.105-5.34c.329-.456.623-.936.882-1.439.414-1.017.159-1.814-.766-2.392a3.987 3.987 0 0 0-.464-.139 12.696 12.696 0 0 1-6.78-1.765 21.072 21.072 0 0 1-5.665-5.015 29.497 29.497 0 0 0 7.081-10.61 57.78 57.78 0 0 0 2.74-9.288c.355-1.729.68-3.462.975-5.201a265.35 265.35 0 0 1 2.136-12.537 54.43 54.43 0 0 1 2.647-9.009 35.42 35.42 0 0 1 2.461-4.829c.101-.287.132-.582.093-.883a168.173 168.173 0 0 1-2.6-19.921c-.638-9.283-.7-18.57-.186-27.862.334-4.294 2.431-7.383 6.292-9.264a10.2 10.2 0 0 1 5.201-.835 104.148 104.148 0 0 1 30.276 7.336 115.075 115.075 0 0 1 12.77 6.13 84.207 84.207 0 0 0-15.556 8.544l-1.439 1.091a28.362 28.362 0 0 0-4.272-3.134 35.271 35.271 0 0 0-14.953-4.992c-2.126.077-3.682 1.052-4.667 2.926a5.62 5.62 0 0 0-.464 1.671 88.298 88.298 0 0 0 .65 23.59c.293.819.873 1.183 1.741 1.091a2.11 2.11 0 0 0 .743-.371 72.239 72.239 0 0 1 18.389-17.135c.874-.538 1.757-1.065 2.647-1.58.529-.566.653-1.2.371-1.903a72.452 72.452 0 0 1 15.696-6.385Z" fill="#FEFEFE"/><path fill-rule="evenodd" clip-rule="evenodd" d="M357.803 80.753a61.59 61.59 0 0 1-.046 3.39v-.558a86.492 86.492 0 0 0-9.798 1.231 359.56 359.56 0 0 1-7.941 1.556v.186a190.51 190.51 0 0 1-.464-2.508 65.89 65.89 0 0 1 6.733-1.672c.31-.03.62-.07.929-.116a1.64 1.64 0 0 0 .464-.162h.093c.635-.051 1.254-.16 1.858-.325a85.785 85.785 0 0 1 8.172-1.022ZM374.288 80.799a93.91 93.91 0 0 1 18.203 3.343 16.946 16.946 0 0 1-.418 2.415v-.14a757.356 757.356 0 0 1-10.123-1.88 81.321 81.321 0 0 0-7.616-.906v.697a67.855 67.855 0 0 1-.046-3.53Z" fill="#FEC49A"/><path fill-rule="evenodd" clip-rule="evenodd" d="M349.631 81.774a9.974 9.974 0 0 1-1.858.326 10.003 10.003 0 0 1 1.858-.326Z" fill="#E4DBE6"/><path fill-rule="evenodd" clip-rule="evenodd" d="M347.68 82.1c-.142.075-.297.13-.464.162-.309.047-.619.085-.929.116.455-.11.92-.202 1.393-.278Z" fill="#E8DEE4"/><path fill-rule="evenodd" clip-rule="evenodd" d="M357.757 84.142a118.84 118.84 0 0 1-.673 10.866 49.266 49.266 0 0 1-1.718 8.498 13.084 13.084 0 0 1-2.183 4.226c-1.187 1.262-2.526 1.456-4.017.58a9.537 9.537 0 0 1-2.112-2.066 26.25 26.25 0 0 1-2.926-5.34 76.188 76.188 0 0 1-4.11-14.35v-.185a359.56 359.56 0 0 0 7.941-1.555 86.469 86.469 0 0 1 9.798-1.231v.557ZM392.074 86.557a75.705 75.705 0 0 1-4.017 14.117 28.11 28.11 0 0 1-2.879 5.387 9.745 9.745 0 0 1-2.252 2.252c-1.442.856-2.75.694-3.924-.488a9.777 9.777 0 0 1-1.765-2.925 33.209 33.209 0 0 1-1.857-7.198c-.651-4.434-1-8.892-1.045-13.374v-.696c2.553.182 5.091.484 7.616.905 3.369.65 6.743 1.277 10.123 1.881v.14Z" fill="#FE6F04"/><path fill-rule="evenodd" clip-rule="evenodd" d="M429.501 89.158a8.042 8.042 0 0 0-1.485.116 33.781 33.781 0 0 0-12.585 4.48c-.037.022-.052.053-.046.094a78.45 78.45 0 0 0-3.622-2.624c-.07-.039-.094-.093-.07-.162 4.489-3.199 9.481-5.157 14.976-5.875 1.163-.142 1.991.315 2.484 1.37.162.86.278 1.728.348 2.6ZM315.964 93.615c-3.592-2.132-7.477-3.548-11.655-4.248a18.165 18.165 0 0 0-2.229-.21c.067-.923.198-1.836.394-2.74.389-.79 1.024-1.208 1.904-1.253 5.672.62 10.819 2.578 15.44 5.874a63.445 63.445 0 0 0-3.854 2.578Z" fill="#B14792"/><path fill-rule="evenodd" clip-rule="evenodd" d="M302.08 89.157c.746.024 1.489.094 2.229.21 4.178.7 8.063 2.116 11.655 4.248a73.675 73.675 0 0 0-13.536 12.631 84.59 84.59 0 0 1-.348-17.089ZM429.501 89.157a80.144 80.144 0 0 1-.418 17.274 105.298 105.298 0 0 0-13.699-12.584c-.006-.04.01-.071.047-.093a33.778 33.778 0 0 1 12.584-4.48 8.052 8.052 0 0 1 1.486-.117Z" fill="#FE669F"/><path fill-rule="evenodd" clip-rule="evenodd" d="M402.383 141.306c6.942-.022 12.584 2.64 16.926 7.987 3.732 5.005 5.016 10.592 3.854 16.763-1.221 5.161-4.107 9.085-8.66 11.772-4.361 2.379-9.02 3.323-13.978 2.833-4.124-.392-7.839-1.816-11.145-4.273-4.959-4.079-7.258-9.35-6.895-15.811.562-6.535 3.479-11.728 8.753-15.58 3.356-2.302 7.071-3.533 11.145-3.691Z" fill="#FE6F04"/><path fill-rule="evenodd" clip-rule="evenodd" d="M322.14 158.116a12.429 12.429 0 0 1 6.083 1.462 17.653 17.653 0 0 1 6.432 6.2c.555.91 1.051 1.854 1.486 2.832.154.387.038.519-.349.395a72.488 72.488 0 0 0-5.897-4.783 15.47 15.47 0 0 0-5.805-2.461 13.984 13.984 0 0 0-6.594.603c-.722.236-1.434.499-2.136.79-.464.046-.657-.163-.58-.627 1.15-1.872 2.768-3.165 4.853-3.877a12.089 12.089 0 0 1 2.507-.534Z" fill="#010072"/><path fill-rule="evenodd" clip-rule="evenodd" d="M408.14 158.116c3.173-.117 5.813.997 7.917 3.343.285.347.532.718.743 1.115.047.464-.162.657-.627.58a18.186 18.186 0 0 0-5.99-1.532 12.33 12.33 0 0 0-6.64 1.486 28.295 28.295 0 0 0-3.947 2.647 91.52 91.52 0 0 0-3.762 3.204c-.329.213-.476.128-.441-.256a20.533 20.533 0 0 1 5.271-7.313c2.167-1.827 4.66-2.919 7.476-3.274Z" fill="#030071"/><path fill-rule="evenodd" clip-rule="evenodd" d="M365.14 174.229c.996-.031 1.987.023 2.972.163.373.052.729.161 1.068.325.199.194.169.349-.093.464a6.505 6.505 0 0 1-1.904.372c-1.102.051-2.201.02-3.297-.093a3.183 3.183 0 0 1-1.021-.325c-.138-.099-.168-.223-.093-.372a2.628 2.628 0 0 1 1.021-.371c.455-.065.904-.119 1.347-.163Z" fill="#FBFBFC"/><path fill-rule="evenodd" clip-rule="evenodd" d="M360.821 178.826c.887.842 1.87 1.554 2.949 2.136a.765.765 0 0 1-.139.418c-.837 1.383-2.037 2.304-3.599 2.763a18.116 18.116 0 0 1-7.987.51c-2.691-.497-4.944-1.759-6.756-3.784a9.218 9.218 0 0 1-.883-1.254c-.298-.282-.453-.22-.464.186.801 2.709 2.403 4.807 4.806 6.292a15.025 15.025 0 0 0 5.526 2.066c.069 1.83.44 3.594 1.114 5.294a22.372 22.372 0 0 1-7.569-3.181c-2.287-1.593-3.859-3.722-4.713-6.385a13.956 13.956 0 0 1 .139-7.43c.031-.061.062-.061.093 0a8.263 8.263 0 0 0 3.019 3.344c2.599 1.57 5.424 2.274 8.474 2.113a10.176 10.176 0 0 0 4.133-1.115 4.565 4.565 0 0 0 1.857-1.973ZM376.238 193.221a15.336 15.336 0 0 0 1.068-5.061c3.424-.562 6.265-2.141 8.521-4.737a9.622 9.622 0 0 0 1.765-3.529.756.756 0 0 0 0-.372c-.124-.124-.248-.124-.372 0-1.393 2.23-3.336 3.77-5.827 4.621a14.408 14.408 0 0 1-6.13.696 20.551 20.551 0 0 1-3.111-.51 8.611 8.611 0 0 1-3.111-1.533 4.063 4.063 0 0 1-1.231-1.834c.89-.487 1.718-1.06 2.484-1.718.244.469.585.863 1.022 1.184a7.4 7.4 0 0 0 2.925 1.254c3.624.615 7.014-.004 10.17-1.858a8.325 8.325 0 0 0 3.134-3.413c.274.816.46 1.651.558 2.508.452 4.75-1.228 8.519-5.039 11.307a20 20 0 0 1-6.826 2.995Z" fill="#B1B1D3"/><path fill-rule="evenodd" clip-rule="evenodd" d="M365.233 193.222c2.044-.04 3.87.564 5.48 1.811a3.999 3.999 0 0 1-2.136 1.044 15.279 15.279 0 0 1-6.223-.139 4.632 4.632 0 0 1-1.462-.859c-.029-.044-.021-.083.023-.116a9.417 9.417 0 0 1 4.318-1.741Z" fill="#F13A3B"/><path fill-rule="evenodd" clip-rule="evenodd" d="M454.251 194.429a52.646 52.646 0 0 1-4.736 4.202 89.609 89.609 0 0 1-15.789 9.752 131.856 131.856 0 0 1-35.523 11.191c-.462.077-.926.131-1.393.162a8.94 8.94 0 0 0-.14-.975 19.568 19.568 0 0 0 4.458-2.809c1.967-1.728 3.221-3.871 3.762-6.431 1.518-.268 3.035-.554 4.55-.86a244.275 244.275 0 0 0 44.811-14.232ZM277.283 194.429a240.32 240.32 0 0 0 49.641 15.184c.056-.011.087-.042.092-.092.533 2.512 1.756 4.625 3.669 6.338a19.327 19.327 0 0 0 4.202 2.717c-.054.495-.124.99-.209 1.486a155.456 155.456 0 0 1-29.44-8.382 109.54 109.54 0 0 1-16.16-8.127 77.17 77.17 0 0 1-10.03-7.429 91.501 91.501 0 0 1-1.765-1.695Z" fill="#B1B1D3"/><path fill-rule="evenodd" clip-rule="evenodd" d="M410.787 255.957a.513.513 0 0 1-.232.279.518.518 0 0 1 .232-.279Z" fill="#9B89B4"/><path fill-rule="evenodd" clip-rule="evenodd" d="M320.793 255.957a83.228 83.228 0 0 1 2.415 2.972 22.243 22.243 0 0 1-2.415-2.972Z" fill="#AEA3C3"/><path fill-rule="evenodd" clip-rule="evenodd" d="M410.555 256.235a22.7 22.7 0 0 1-2.322 2.833 51.863 51.863 0 0 1 2.322-2.833Z" fill="#ABA1C3"/><path fill-rule="evenodd" clip-rule="evenodd" d="M407.908 279.082a31.595 31.595 0 0 0-5.99.859c-1.006.263-1.95.665-2.833 1.207-.933.929-.987 1.912-.162 2.949a9.868 9.868 0 0 0 3.134 2.391 20.206 20.206 0 0 0 4.876 1.788 177.302 177.302 0 0 1-2.601 15.974 34.489 34.489 0 0 0-13.745 1.138c-.653.192-1.303.393-1.95.603-.264.062-.334.209-.209.442a.464.464 0 0 0 .186.046 35.215 35.215 0 0 1 12.282.163 26.48 26.48 0 0 1 4.458 1.393 11.2 11.2 0 0 1 4.249 3.97 15.255 15.255 0 0 1 2.345 6.733c-1.722 2.1-3.951 3.183-6.687 3.251a5.818 5.818 0 0 0-1.161-1.927.477.477 0 0 0-.371-.047.376.376 0 0 0-.047.163c.221.584.345 1.188.372 1.811h-9.102a10.03 10.03 0 0 0-.743-1.672c-.129-.071-.245-.056-.348.047-.008.309 0 .618.023.928v.697c-5.417.008-10.835 0-16.252-.023a7.828 7.828 0 0 1-3.994-1.765 33.429 33.429 0 0 1-1.022-1.045c-.352-6.173-.832-14.485-1.16-20.664.48-.043.728.762 1.207.697 0-1.974 1.068-1.997 1.068-.279.546.864 1.197-1.904 2.043-1.328.788.484 2.461-.135 3.377 0 3.16.267-7.599.295-4.631-.808 2-.81 1.628-.485 3.112-2.043 1.393-1.828-1.146.106-1.858-2.09-.338-.769.436-2 0-2.716-2.067-3.514 4.435-7.128 9.148-9.636.414-.565 1.165-1.013 1.509-1.625a6.84 6.84 0 0 0 3.971 1.114 14.825 14.825 0 0 0 6.361-1.555c2.044-1.231 3.43-2.988 4.156-5.271.418-1.408.619-2.847.604-4.319a34.929 34.929 0 0 0 7.314-5.2l.046.441a388.212 388.212 0 0 1-.975 15.208ZM359.66 319.11c-1.348 1.642-3.082 2.594-5.2 2.856-5.372.023-10.742.031-16.114.023.009-.542.016-1.084.023-1.625-.124-.124-.247-.124-.371 0a18.659 18.659 0 0 0-.72 1.625h-9.055v-.511c.058-.452.182-.885.372-1.3-.063-.174-.187-.228-.372-.162a5.634 5.634 0 0 0-1.207 1.973c-2.695-.036-4.901-1.088-6.617-3.158a.463.463 0 0 1-.07-.278c.363-3.092 1.547-5.817 3.552-8.173a10.282 10.282 0 0 1 3.971-2.763 31.543 31.543 0 0 1 12.212-1.532c1.242.11 2.481.234 3.715.371a.303.303 0 0 0 .047-.371 36.303 36.303 0 0 0-13.513-2.044c-.747.032-1.49.102-2.229.209l-.14-.046a155.078 155.078 0 0 1-2.112-11.841c-.194-1.36-.371-2.723-.534-4.087a20.75 20.75 0 0 0 6.315-2.623 9.046 9.046 0 0 0 1.927-1.835c.638-1.192.398-2.159-.72-2.902a13.595 13.595 0 0 0-3.25-1.161 29.558 29.558 0 0 0-5.201-.627c-.46-5.006-.77-10.022-.929-15.045a33.967 33.967 0 0 0 6.78 4.644 14.68 14.68 0 0 0 1.045 5.247c1.033 2.364 2.759 3.998 5.177 4.899 1.787.649 3.629.943 5.526.882a7.02 7.02 0 0 0 3.251-.998c.411.713.868 1.393 1.37 2.043a.115.115 0 0 1 0 .139c2.182 2.879 6.602 7.445 4.434 11.424-1.084 2.865-.967 3.987 1.277 6.06 2.578 2.154-3.366-1.359 0-.976 1.297.15 1.506.057 2.81 0 2.171-.102 2.039 2.746 3.273.976.062-.016.349-2.531.534.51.651.062 1.417-.572 2.067-.51-.308 6.145-.982 14.543-1.324 20.687Z" fill="#FEFEFE"/><path fill-rule="evenodd" clip-rule="evenodd" d="M397.785 270.213h.139c-.127 1.653-.761 3.07-1.904 4.249a6.76 6.76 0 0 1-2.554 1.346 10.199 10.199 0 0 1-3.9.418 3.042 3.042 0 0 1-1.394-.603 1.487 1.487 0 0 1-.325-.441c.17-.818.325-1.639.465-2.462a42.745 42.745 0 0 0 9.473-2.507ZM333.446 270.422h-.138c.126 1.653.755 3.07 1.887 4.249a6.676 6.676 0 0 0 2.53 1.346 10.02 10.02 0 0 0 3.865.418 3 3 0 0 0 1.38-.603c.136-.128.243-.276.322-.441a68.771 68.771 0 0 1-.46-2.462 42.031 42.031 0 0 1-9.386-2.507Z" fill="#F4783B"/><path fill-rule="evenodd" clip-rule="evenodd" d="M324.369 279.129a29.36 29.36 0 0 1 5.201.627 13.56 13.56 0 0 1 3.251 1.161c1.118.743 1.358 1.71.72 2.902a9.023 9.023 0 0 1-1.928 1.834 20.732 20.732 0 0 1-6.315 2.624 304.9 304.9 0 0 1-.929-9.148Z" fill="#FE6F04"/><path fill-rule="evenodd" clip-rule="evenodd" d="M407.908 279.082a285.298 285.298 0 0 1-.975 9.194 20.203 20.203 0 0 1-4.876-1.787 9.886 9.886 0 0 1-3.134-2.392c-.825-1.037-.771-2.019.163-2.949a10.436 10.436 0 0 1 2.832-1.207 31.687 31.687 0 0 1 5.99-.859Z" fill="#FE6F05"/><path fill-rule="evenodd" clip-rule="evenodd" d="M274.682 288.044a.212.212 0 0 0-.139.093 17.348 17.348 0 0 0-1.021 1.811 32.71 32.71 0 0 0-3.924 12.074 33.659 33.659 0 0 0 0 5.572c.087.542.172 1.084.255 1.625a27.077 27.077 0 0 1-10.471-7.012 20.9 20.9 0 0 0-.72-.882 12.622 12.622 0 0 1 .07-3.483 20.121 20.121 0 0 1 2.043-6.083c1.957-3.506 4.952-5.093 8.985-4.76 1.697.125 3.337.474 4.922 1.045Z" fill="#FEFEFE"/><path fill-rule="evenodd" clip-rule="evenodd" d="M274.683 288.044c.421.117.839.249 1.254.395.701.265 1.397.544 2.089.836a884.733 884.733 0 0 1 7.801 3.691.855.855 0 0 1-.116.232c-.498.52-.939 1.078-1.323 1.672a299.138 299.138 0 0 0-7.198-3.506 37.972 37.972 0 0 1-1.95-.836 38.102 38.102 0 0 0-1.718-.58c.304-.623.644-1.227 1.021-1.811a.21.21 0 0 1 .14-.093Z" fill="#FEC49A"/><path fill-rule="evenodd" clip-rule="evenodd" d="M369.366 288.416h.465a33.206 33.206 0 0 0 2.089 8.684c-.744.069-1.487.155-2.228.255-2.353.031-4.706.031-7.059 0a53.489 53.489 0 0 1-2.229-.209 33.873 33.873 0 0 0 2.09-8.637c1.747.149 3.497.172 5.247.07a15.684 15.684 0 0 0 1.625-.163Z" fill="#FDFDFE"/><path fill-rule="evenodd" clip-rule="evenodd" d="M273.521 289.948c.577.179 1.15.373 1.718.581.643.296 1.293.575 1.951.836a295.325 295.325 0 0 1 7.197 3.505 14.755 14.755 0 0 0-2.53 7.152 23.273 23.273 0 0 0 .696 7.429c.236.808.476 1.612.72 2.415a37.404 37.404 0 0 1-9.055-1.184l-2.09-.604c-.759-.278-1.517-.549-2.275-.812v-.047c-.083-.541-.168-1.083-.256-1.625a33.878 33.878 0 0 1 0-5.572 32.73 32.73 0 0 1 3.924-12.074ZM322.976 296.821a.23.23 0 0 1-.023.139 18.992 18.992 0 0 1-3.088 3.019 35.567 35.567 0 0 1-4.04 2.739 16.283 16.283 0 0 1-1.324-4.783c-.1-.771-.17-1.545-.209-2.322a28.199 28.199 0 0 0 4.876-2.6 42.816 42.816 0 0 0 2.972-1.718c.283 1.84.561 3.682.836 5.526Z" fill="#FE6F04"/><path fill-rule="evenodd" clip-rule="evenodd" d="M285.827 292.967c3.424 1.554 7 2.591 10.727 3.111-.253.589-.47 1.193-.65 1.811-1.213 3.784-1.236 7.576-.07 11.377.139.355.27.711.395 1.068v.046a98.486 98.486 0 0 1-6.594 1.138 47.95 47.95 0 0 1-6.316.348h-.046c-.244-.803-.484-1.607-.72-2.414a23.31 23.31 0 0 1-.696-7.43 14.747 14.747 0 0 1 2.53-7.151 11.18 11.18 0 0 1 1.324-1.672.855.855 0 0 0 .116-.232Z" fill="#FEFEFE"/><path fill-rule="evenodd" clip-rule="evenodd" d="M319.168 293.013a28.199 28.199 0 0 1-4.876 2.6v-.65a39.054 39.054 0 0 0 4.876-1.95Z" fill="#F9C198"/><path fill-rule="evenodd" clip-rule="evenodd" d="M314.293 294.963v.65c.039.776.108 1.551.209 2.322a16.268 16.268 0 0 0 1.323 4.783v.046a64.348 64.348 0 0 1-8.591 4.133h-.046a19.36 19.36 0 0 1-1.091-7.476c.037-.518.107-1.028.209-1.533.05-.48.158-.945.325-1.393 2.605-.23 5.159-.74 7.662-1.532Z" fill="#FEFEFE"/><path fill-rule="evenodd" clip-rule="evenodd" d="M296.554 296.078c3.345.463 6.704.602 10.076.418a5.741 5.741 0 0 0-.325 1.393 42.393 42.393 0 0 1-10.402 0 15.74 15.74 0 0 1 .651-1.811Z" fill="#FEC49A"/><path fill-rule="evenodd" clip-rule="evenodd" d="M322.977 296.82c.063.286.109.58.139.883.062 1.765.139 3.53.232 5.293a18.257 18.257 0 0 1-3.854 3.715c-1.676-.887-2.899-2.203-3.669-3.947v-.046a35.618 35.618 0 0 0 4.04-2.74 18.945 18.945 0 0 0 3.088-3.018.227.227 0 0 0 .024-.14Z" fill="#B24D25"/><path fill-rule="evenodd" clip-rule="evenodd" d="M295.904 297.889c3.468.426 6.935.426 10.402 0a12.057 12.057 0 0 0-.209 1.532 19.36 19.36 0 0 0 1.091 7.476 68.255 68.255 0 0 1-10.959 3.437 28.609 28.609 0 0 0-.395-1.068c-1.166-3.801-1.143-7.594.07-11.377Z" fill="#FE6F04"/><path fill-rule="evenodd" clip-rule="evenodd" d="M369.227 321.711v.418h-6.223c.389-7.104.76-14.209 1.115-21.315h3.993c.374 6.966.745 13.931 1.115 20.897Z" fill="#65FDFE"/><path fill-rule="evenodd" clip-rule="evenodd" d="M323.115 297.703c.256 1.428.52 2.859.79 4.295-.119.37-.305.703-.557.999a301.386 301.386 0 0 1-.233-5.294Z" fill="#DCB4A5"/><path fill-rule="evenodd" clip-rule="evenodd" d="M258.662 301.325c.246.285.486.58.72.882a27.077 27.077 0 0 0 10.471 7.012v.047a26.275 26.275 0 0 0 1.857 5.804 26.18 26.18 0 0 1-8.985-5.758 15.752 15.752 0 0 1-3.483-5.433 13.046 13.046 0 0 1-.58-2.554ZM315.825 302.765c.77 1.744 1.993 3.059 3.668 3.947a48.849 48.849 0 0 1-9.798 5.479 28.146 28.146 0 0 1-1.973-3.854c-.19-.472-.353-.952-.488-1.44a64.465 64.465 0 0 0 8.591-4.132Z" fill="#B1B1D3"/><path fill-rule="evenodd" clip-rule="evenodd" d="M307.188 306.897h.046c.135.488.298.968.488 1.44a28.146 28.146 0 0 0 1.973 3.854 62.316 62.316 0 0 1-5.944 2.229.689.689 0 0 0-.418.139.49.49 0 0 1-.278.093 23.774 23.774 0 0 0-3.204.929c-.11.007-.218 0-.325-.023a18.498 18.498 0 0 1-3.297-5.178v-.046a68.186 68.186 0 0 0 10.959-3.437ZM269.854 309.266c.757.263 1.516.534 2.275.812l2.09.604a37.397 37.397 0 0 0 9.055 1.184h.046c.17.564.364 1.121.58 1.672a52.193 52.193 0 0 0 2.02 4.179 37.676 37.676 0 0 1-13.28-2.252 12.267 12.267 0 0 1-.929-.395 26.17 26.17 0 0 1-1.857-5.804Z" fill="#B24D25"/><path fill-rule="evenodd" clip-rule="evenodd" d="M296.229 310.38a18.52 18.52 0 0 0 3.297 5.178c.107.023.215.03.325.023a56.487 56.487 0 0 1-13.931 2.136 52.193 52.193 0 0 1-2.02-4.179 21.462 21.462 0 0 1-.58-1.672 47.935 47.935 0 0 0 6.315-.348 98.265 98.265 0 0 0 6.594-1.138Z" fill="#B1B1D3"/><path fill-rule="evenodd" clip-rule="evenodd" d="M303.752 314.42a1.122 1.122 0 0 1-.418.139.68.68 0 0 1 .418-.139Z" fill="#AB8FA2"/><path fill-rule="evenodd" clip-rule="evenodd" d="M303.055 314.652a31.526 31.526 0 0 1-3.204.929 23.86 23.86 0 0 1 3.204-.929Z" fill="#AEA1BF"/><path fill-rule="evenodd" clip-rule="evenodd" d="M320.329 318.553c-.006.1.017.192.07.278 1.716 2.07 3.922 3.122 6.617 3.158a7.494 7.494 0 0 0-.511 2.879 21.59 21.59 0 0 0 .279 3.111c-2.616-.211-4.543-1.465-5.782-3.761a10.145 10.145 0 0 1-.766-4.179 9.852 9.852 0 0 1 .093-1.486ZM411.948 318.738a11.381 11.381 0 0 1-.534 5.108c-1.178 2.532-3.167 3.909-5.967 4.133.315-1.619.353-3.244.116-4.876a14.981 14.981 0 0 0-.301-1.114c2.735-.068 4.964-1.151 6.686-3.251ZM372.617 319.156c.329.353.67.701 1.021 1.045a7.828 7.828 0 0 0 3.994 1.765c5.417.023 10.835.031 16.252.023v-.697a14.359 14.359 0 0 1-1.346 6.641c-4.845.054-9.69.061-14.535.023-2.566-.366-4.246-1.782-5.038-4.249a10.74 10.74 0 0 1-.186-.975 203.61 203.61 0 0 1-.162-3.576ZM359.661 319.11a459.643 459.643 0 0 1-.209 3.715c-.313 2.181-1.466 3.737-3.46 4.667a6.213 6.213 0 0 1-1.904.464c-4.798.024-9.597.032-14.395.024a18.028 18.028 0 0 1-1.323-5.155c-.024-.278-.031-.557-.024-.836 5.372.008 10.743 0 16.114-.023 2.119-.262 3.853-1.214 5.201-2.856Z" fill="#B1B1D3"/><path fill-rule="evenodd" clip-rule="evenodd" d="M328.223 321.479v.51h9.055v.047h-9.101a1.708 1.708 0 0 1 .046-.557Z" fill="#D6D7E9"/><path fill-rule="evenodd" clip-rule="evenodd" d="M328.177 322.035h9.102a16.768 16.768 0 0 0-.836 5.944 391.9 391.9 0 0 1-6.037-.023 12.067 12.067 0 0 1-2.159-4.853 5.45 5.45 0 0 1-.07-1.068Z" fill="#B1B1D3"/><path fill-rule="evenodd" clip-rule="evenodd" d="M394.953 321.989h9.101a6.662 6.662 0 0 1-.302 2.322 14.58 14.58 0 0 1-1.88 3.622h-6.037a5.653 5.653 0 0 0-.047-1.021 15.542 15.542 0 0 0-.835-4.923Z" fill="#B2B2D4"/><path fill-rule="evenodd" clip-rule="evenodd" d="M369.226 321.711a11.138 11.138 0 0 0 .767 4.086c1.559 3.353 4.182 5.234 7.871 5.642 9.287.031 18.574.031 27.861 0a10.846 10.846 0 0 0 3.762-.928c3.038-1.473 4.941-3.849 5.711-7.128v.185a249.7 249.7 0 0 1 21.5 2.16c2.198.368 4.381.802 6.548 1.3.516.177 1.042.316 1.579.418.577.189 1.149.391 1.718.603.363.205.734.398 1.114.581.292.191.547.423.767.696.182.416.135.802-.14 1.161a7.581 7.581 0 0 1-2.113 1.231 41.01 41.01 0 0 1-4.968 1.347c-2.042.371-4.085.727-6.13 1.068a328.08 328.08 0 0 1-18.946 1.904 710.647 710.647 0 0 1-55.352 1.439 679.077 679.077 0 0 1-33.945-1.161 361.793 361.793 0 0 1-18.807-1.625 124.891 124.891 0 0 1-11.516-1.858 25.966 25.966 0 0 0-1.811-.464 48.566 48.566 0 0 1-1.764-.557 12.157 12.157 0 0 1-1.579-.72c-1.358-.858-1.358-1.717 0-2.577a16.18 16.18 0 0 1 3.157-1.207 85.314 85.314 0 0 1 6.548-1.394 185.566 185.566 0 0 1 16.021-1.857c.058-.02.089-.058.092-.116.273.948.668 1.845 1.185 2.693 1.863 2.825 4.486 4.427 7.87 4.806 9.288.031 18.575.031 27.862 0a9.399 9.399 0 0 0 5.108-1.764c2.444-1.908 3.713-4.423 3.808-7.546h6.222v-.418Z" fill="#52CBE3"/><path fill-rule="evenodd" clip-rule="evenodd" d="M395.788 326.911c.046.332.062.673.047 1.022h6.036c-2.019.046-4.047.061-6.083.046v-1.068Z" fill="#7D7FB7"/><path fill-rule="evenodd" clip-rule="evenodd" d="M551.954 0H552v387H165v-.046h386.954V0Z" fill="#B1FFFD"/><path fill="#FEFEFE" d="M335.908 215.859h56.374v83.91h-56.374z"/><path fill-rule="evenodd" clip-rule="evenodd" d="M389.963 197.517a91.477 91.477 0 0 1-5.176 15.295 60.93 60.93 0 0 1-7.221 12.236 42.558 42.558 0 0 1-7.452 7.452 32.223 32.223 0 0 1-10.066 5.193c-2.215.673-4.48 1-6.794.979a.34.34 0 0 0 .036.213c.039 2.241-.91 3.906-2.846 4.998-2.031.918-3.94.716-5.727-.605-.696-.607-.892-1.348-.587-2.223.526-.95 1.315-1.276 2.366-.978.266.112.503.266.711.462.814.408 1.519.272 2.116-.409a1.664 1.664 0 0 0 .178-1.565 6.028 6.028 0 0 0-1.725-2.472 5344.257 5344.257 0 0 1-16.842-15.811 25.198 25.198 0 0 1-4.838-7.008 15.405 15.405 0 0 1-1.423-6.758c.103-2.146.802-4.067 2.099-5.762 2.291-2.622 5.142-3.564 8.555-2.828 2.77.814 4.661 2.575 5.673 5.282-.053-1.221-.1-2.442-.142-3.664a57.077 57.077 0 0 1-.018-2.027h49.123Z" fill="#FED101"/><path fill-rule="evenodd" clip-rule="evenodd" d="M389.963 197.517c.041.586.047 1.179.017 1.778a133.035 133.035 0 0 1-.16 3.842 292.452 292.452 0 0 1-.391 3.735c.006.073.018.144.036.213a80.058 80.058 0 0 1-7.399 24.864 43.042 43.042 0 0 1-3.504 5.478c-.372.424-.721.863-1.049 1.316a36.397 36.397 0 0 1-7.185 6.349c-1.4 1.11-2.147 2.562-2.241 4.357l-.392.143a8.088 8.088 0 0 1-4.624-.036 1.12 1.12 0 0 1-.338-.107c-.089-1.749-.806-3.178-2.152-4.286a34.818 34.818 0 0 1-7.274-6.456.487.487 0 0 0-.018.178.346.346 0 0 1-.035-.213 22.535 22.535 0 0 0 6.794-.979 32.223 32.223 0 0 0 10.066-5.193 42.626 42.626 0 0 0 7.452-7.452 60.93 60.93 0 0 0 7.221-12.236 91.477 91.477 0 0 0 5.176-15.295Z" fill="#FCC200"/><path fill-rule="evenodd" clip-rule="evenodd" d="M377.513 238.743c.328-.453.678-.891 1.049-1.316a43.042 43.042 0 0 0 3.504-5.478.086.086 0 0 0 .071-.017 3858.25 3858.25 0 0 1 14.477-13.588 22.597 22.597 0 0 0 4.713-6.492 13.917 13.917 0 0 0 1.032-3.379 7.353 7.353 0 0 0-.534-4.375c-.798-1.592-2.085-2.511-3.859-2.757-2.129-.053-3.652.878-4.571 2.792-.685 1.909-.341 3.604 1.032 5.087.558 1.033.374 1.905-.552 2.614-.994.494-1.842.31-2.543-.551a8.249 8.249 0 0 1-1.867-4.197 1.275 1.275 0 0 1-.036-.214c.139-1.248.269-2.493.391-3.735.971-2.446 2.69-4.136 5.158-5.068 3.237-.918 6.077-.224 8.519 2.08 1.601 1.73 2.479 3.781 2.632 6.154a14.26 14.26 0 0 1-.533 4.553 20.177 20.177 0 0 1-2.277 5.051 27.668 27.668 0 0 1-4.25 5.176 4866.932 4866.932 0 0 0-16.434 15.402 5.159 5.159 0 0 0-1.405 2.436c-.075 1.093.429 1.71 1.512 1.85a1.756 1.756 0 0 0 1.28-.552c.67-.362 1.334-.35 1.992.036.849.685 1.033 1.521.552 2.508a4.636 4.636 0 0 1-2.188 1.44c-2.213.607-4.093.068-5.638-1.618-.897-1.12-1.306-2.4-1.227-3.842Z" fill="#FED102"/><path fill-rule="evenodd" clip-rule="evenodd" d="M332.375 198.37c2.14-.126 4.013.508 5.62 1.903-3.595-1.062-6.719-.274-9.373 2.366-1.536 1.757-2.401 3.808-2.597 6.153l-.035 1.672a11.531 11.531 0 0 1-.285-6.082c.962-3.41 3.185-5.414 6.67-6.012Z" fill="#FEDE58"/><path fill-rule="evenodd" clip-rule="evenodd" d="M342.938 199.758c2.775-.006 5.549 0 8.324.018-3.465 6.383-4.858 13.194-4.18 20.435.137 1.119.291 2.234.463 3.344a64.09 64.09 0 0 1-4.607-23.797Z" fill="#FEDE59"/><path fill-rule="evenodd" clip-rule="evenodd" d="M332.766 201.323c2.117-.068 3.652.833 4.607 2.703.745 1.902.437 3.609-.925 5.122-.497.746-.497 1.493 0 2.241.694.778 1.507.926 2.436.445.302-.23.569-.497.801-.8a8.7 8.7 0 0 0 1.707-4.02 79.395 79.395 0 0 0 7.363 24.971l-15.011-14.086a22.88 22.88 0 0 1-3.841-5.194 13.922 13.922 0 0 1-1.53-4.873 7.211 7.211 0 0 1 .783-4.055c.827-1.371 2.031-2.189 3.61-2.454ZM382.066 231.948a80.044 80.044 0 0 0 7.399-24.863 8.249 8.249 0 0 0 1.867 4.197c.701.862 1.549 1.045 2.543.551.926-.709 1.11-1.581.552-2.614-1.373-1.483-1.717-3.178-1.032-5.087.919-1.914 2.442-2.845 4.571-2.792 1.774.246 3.061 1.165 3.859 2.757a7.36 7.36 0 0 1 .534 4.375 13.904 13.904 0 0 1-1.032 3.379 22.597 22.597 0 0 1-4.713 6.492 3858.25 3858.25 0 0 0-14.477 13.588.086.086 0 0 1-.071.017Z" fill="#010072"/><path fill-rule="evenodd" clip-rule="evenodd" d="M364.921 209.575c4.053-.034 7.307 1.543 9.764 4.731 2.302 3.368 2.776 6.985 1.423 10.849-1.438 3.508-3.969 5.814-7.595 6.918-4.473 1.08-8.321-.005-11.542-3.255-2.554-2.933-3.479-6.324-2.775-10.173.857-3.595 2.926-6.232 6.207-7.914a12.005 12.005 0 0 1 4.518-1.156Z" fill="#FEF2C0"/><path fill-rule="evenodd" clip-rule="evenodd" d="M367.732 229.601h-3.38c.012-4.583 0-9.16-.035-13.73h-2.49v-3.059h5.905v16.789Z" fill="#D69B13"/><path fill-rule="evenodd" clip-rule="evenodd" d="M364.316 215.871c.036 4.571.048 9.148.036 13.73h3.379c-1.132.036-2.27.048-3.415.036v-13.766Z" fill="#DFB03E"/><path fill-rule="evenodd" clip-rule="evenodd" d="M363.072 249.557a8.096 8.096 0 0 0 4.624.035 4.882 4.882 0 0 0 1.014 2.917c.297.333.605.653.925.96.46.742.447 1.477-.036 2.206-.278.355-.64.569-1.085.64h-6.225c-.74-.165-1.208-.615-1.405-1.352a1.817 1.817 0 0 1 .32-1.529 5.706 5.706 0 0 0 1.53-1.992 3.803 3.803 0 0 0 .338-1.885Z" fill="#FED102"/><path fill-rule="evenodd" clip-rule="evenodd" d="M362.289 256.314h6.225c-.696 4.279-.216 8.416 1.44 12.415.007.666.025 1.33.054 1.991l-.071 1.139a16.559 16.559 0 0 1-9.106 0v-1.139c.035-.645.047-1.297.035-1.956 1.627-4.015 2.101-8.165 1.423-12.45Z" fill="#FEDA31"/><path fill-rule="evenodd" clip-rule="evenodd" d="M360.866 268.765c.012.658 0 1.31-.036 1.956h-.035l.071-1.956Z" fill="#FEE365"/><path fill-rule="evenodd" clip-rule="evenodd" d="M360.796 270.721h.035v1.138c3.036.851 6.071.851 9.106 0l.071-1.138a25.471 25.471 0 0 1 8.822 3.308v1.28h-26.856c-.006-.427 0-.853.018-1.28a25.607 25.607 0 0 1 8.804-3.308Z" fill="#FED101"/><path fill-rule="evenodd" clip-rule="evenodd" d="M378.83 274.028c.035.421.047.848.035 1.281v.035h-26.891v-.035h26.856v-1.281Z" fill="#CC9838"/><path fill-rule="evenodd" clip-rule="evenodd" d="M348.417 275.345v21.235h-2.348a37.773 37.773 0 0 1 2.312-.035c-.012-7.073 0-14.14.036-21.2Z" fill="#E4D1CA"/><path fill-rule="evenodd" clip-rule="evenodd" d="M348.417 275.345h33.934c-.184.39-.391.769-.623 1.138a58.471 58.471 0 0 1-3.646 5.015c-.073.076-.15.147-.231.214-.006 3.563-.024 7.12-.053 10.671v-12.165h-24.793v12.165h11.952c-5.139 2.782-10.652 4.169-16.54 4.162v-21.2Z" fill="#97512C"/><path fill-rule="evenodd" clip-rule="evenodd" d="M378.865 275.345v-.035h3.557v21.271h-.036c.012-7.085 0-14.163-.035-21.236h-3.486Z" fill="#B07D66"/><path fill-rule="evenodd" clip-rule="evenodd" d="M382.351 275.345c.035 7.072.047 14.151.035 21.235h-33.969v-.035c5.888.007 11.401-1.38 16.54-4.162h12.841c.029-3.551.047-7.108.053-10.671.081-.067.158-.138.231-.214a58.471 58.471 0 0 0 3.646-5.015c.232-.369.439-.748.623-1.138Z" fill="#8D492B"/><path fill-rule="evenodd" clip-rule="evenodd" d="M377.798 292.383h-24.792v-12.165h24.792v12.165Z" fill="#FED001"/><path fill-rule="evenodd" clip-rule="evenodd" d="M346.069 296.58h38.665v3.201h-38.665v-3.201Z" fill="#7C3E25"/><path fill-rule="evenodd" clip-rule="evenodd" d="M384.734 296.58c.036 1.073.047 2.152.036 3.237-12.906.012-25.807 0-38.701-.036h38.665v-3.201Z" fill="#DBCBC4"/><path fill-rule="evenodd" clip-rule="evenodd" d="m321.861 220.805 3.994.975a75.52 75.52 0 0 1 2.229 1.138c3.066 1.883 5.055 4.568 5.967 8.056a14.444 14.444 0 0 0 2.972 4.876 25.959 25.959 0 0 0 4.527 3.738 43.25 43.25 0 0 0 5.433 2.902 267.25 267.25 0 0 0 3.436 2.253 426.156 426.156 0 0 1 7.244 4.411 23.367 23.367 0 0 1 4.853 4.063 9.027 9.027 0 0 1 1.486 2.601c.006.853-.033 1.704-.116 2.554-1.28.19-2.564.229-3.854.116a7.494 7.494 0 0 1-3.437-1.3c-.288-.005-.374.126-.255.394 1.453 1.661 3.257 2.76 5.41 3.297a1.147 1.147 0 0 1-.186.209c-2.528 1.679-5.314 2.638-8.358 2.879a34.118 34.118 0 0 1-11.842-1.161 83.828 83.828 0 0 1-5.572-1.904 29.574 29.574 0 0 1-6.919-4.318.318.318 0 0 1-.139-.209 26.258 26.258 0 0 1 3.041-7.337 81.544 81.544 0 0 1 2.043-3.065c.416-1.365-.088-2.007-1.509-1.927a11.386 11.386 0 0 0-4.272 2.043 21.942 21.942 0 0 0-4.411 4.714h-.047a30.692 30.692 0 0 1-4.179-7.987v-.047a21.356 21.356 0 0 1 3.599-5.294c.56-.56 1.149-1.087 1.764-1.578.475-.698.39-1.309-.255-1.835a2.958 2.958 0 0 0-1.904-.093 15.411 15.411 0 0 0-4.644 2.253h-.046c-.57-5.599.691-10.722 3.785-15.371a.2.2 0 0 1 .162-.046ZM409.719 220.805a.145.145 0 0 1 .14.046c2.328 3.407 3.62 7.184 3.877 11.331a44.993 44.993 0 0 1-.07 4.04h-.046a14.503 14.503 0 0 0-4.922-2.299 3.05 3.05 0 0 0-1.486.047c-.759.477-.905 1.104-.442 1.88a21.8 21.8 0 0 1 2.694 2.647 24.91 24.91 0 0 1 2.67 4.226.262.262 0 0 1 .046.139 36.063 36.063 0 0 1-3.134 6.408 20.482 20.482 0 0 1-1.091 1.533 21.334 21.334 0 0 0-5.016-5.132 12.375 12.375 0 0 0-3.436-1.578c-1.525-.286-2.121.325-1.788 1.834.276.473.585.922.929 1.347a28.37 28.37 0 0 1 4.203 9.101v.046a27.292 27.292 0 0 1-8.638 5.085 87.983 87.983 0 0 0-3.064 1.022 35.645 35.645 0 0 1-12.352 1.486 19.263 19.263 0 0 1-7.244-1.951 20.597 20.597 0 0 1-1.672-1.068.132.132 0 0 1-.047-.116 10.437 10.437 0 0 0 5.039-2.879l.371-.464c.085-.255 0-.371-.255-.348a7.588 7.588 0 0 1-3.204 1.253 14.573 14.573 0 0 1-4.087-.069 22.696 22.696 0 0 1-.139-1.951 3.785 3.785 0 0 1 .07-.789 10.364 10.364 0 0 1 2.623-3.692 31.072 31.072 0 0 1 3.855-2.925 496.039 496.039 0 0 1 6.965-4.226 108.328 108.328 0 0 0 3.576-2.345 32.725 32.725 0 0 0 8.73-5.456 17.524 17.524 0 0 0 3.598-4.667c.349-.83.644-1.681.883-2.554a13.58 13.58 0 0 1 3.552-5.317 16.732 16.732 0 0 1 4.319-2.67c1.321-.342 2.652-.667 3.993-.975Z" fill="#FEFEFE"/><path fill-rule="evenodd" clip-rule="evenodd" d="M321.862 220.805a.204.204 0 0 0-.163.046c-3.093 4.649-4.354 9.772-3.784 15.371a34.192 34.192 0 0 0-3.344 2.461c-.395-6.979 1.818-12.978 6.641-17.994.228-.005.445.034.65.116ZM417.009 238.682a20.506 20.506 0 0 1-1.625-1.277c-.576-.395-1.148-.79-1.718-1.184.084-1.345.107-2.692.07-4.04-.257-4.147-1.549-7.923-3.878-11.33a.141.141 0 0 0-.139-.047c.202-.1.418-.139.65-.116 4.805 5.025 7.018 11.023 6.64 17.994ZM405.726 221.779a16.715 16.715 0 0 0-4.319 2.67 13.58 13.58 0 0 0-3.552 5.317c-.24.873-.534 1.725-.883 2.554a17.532 17.532 0 0 1-3.599 4.667 32.693 32.693 0 0 1-8.73 5.456 58.918 58.918 0 0 0 4.876-3.923c4.361-4.024 6.838-9 7.43-14.93a266.072 266.072 0 0 0 8.777-1.811ZM325.855 221.779a219.96 219.96 0 0 0 8.823 1.811c.305 4.183 1.69 7.96 4.156 11.331a23.63 23.63 0 0 0 2.577 2.995 52.118 52.118 0 0 0 5.572 4.574 43.38 43.38 0 0 1-5.433-2.902 26.083 26.083 0 0 1-4.527-3.739 14.455 14.455 0 0 1-2.972-4.875c-.912-3.489-2.9-6.174-5.967-8.057a77.98 77.98 0 0 0-2.229-1.138Z" fill="#B1B1D3"/><path fill-rule="evenodd" clip-rule="evenodd" d="M319.401 242.769a24.318 24.318 0 0 1-1.44-6.548 15.385 15.385 0 0 1 4.644-2.252 2.958 2.958 0 0 1 1.904.093c.645.526.73 1.137.255 1.834a21.405 21.405 0 0 0-1.764 1.579 21.338 21.338 0 0 0-3.599 5.294ZM413.62 236.221a20.215 20.215 0 0 1-.163 1.533 39.304 39.304 0 0 1-1.068 4.457c-.064.187-.15.358-.255.511a24.88 24.88 0 0 0-2.67-4.225 21.72 21.72 0 0 0-2.693-2.647c-.464-.777-.318-1.404.441-1.881a3.05 3.05 0 0 1 1.486-.046 14.482 14.482 0 0 1 4.922 2.298Z" fill="#FE6F05"/><path fill-rule="evenodd" clip-rule="evenodd" d="M413.62 236.222h.046l1.718 1.184a20.57 20.57 0 0 0 1.626 1.277 30 30 0 0 1-2.415 10.448 34.94 34.94 0 0 0-2.415-6.269.262.262 0 0 0-.046-.139c.105-.154.191-.324.255-.511a39.27 39.27 0 0 0 1.068-4.458c.074-.509.128-1.02.163-1.532ZM317.915 236.222h.046a24.311 24.311 0 0 0 1.44 6.547v.047a33.89 33.89 0 0 0-2.415 6.315 28.467 28.467 0 0 1-2.414-10.448 33.897 33.897 0 0 1 3.343-2.461Z" fill="#B24D25"/><path fill-rule="evenodd" clip-rule="evenodd" d="M319.401 242.815a30.66 30.66 0 0 0 4.179 7.987 47.599 47.599 0 0 0-2.531 3.948c-.173.315-.32.64-.441.975a30.994 30.994 0 0 1-3.622-6.594 33.83 33.83 0 0 1 2.415-6.316ZM412.18 242.861a34.94 34.94 0 0 1 2.415 6.269 30.01 30.01 0 0 1-3.622 6.548 32.247 32.247 0 0 0-3.019-4.83v-.046a20.19 20.19 0 0 0 1.092-1.532 36.105 36.105 0 0 0 3.134-6.409Z" fill="#B2B1D3"/><path fill-rule="evenodd" clip-rule="evenodd" d="M328.734 256.375h-.046a24.19 24.19 0 0 1-3.227-3.205 25.032 25.032 0 0 1-1.811-2.228.228.228 0 0 1-.024-.14 21.942 21.942 0 0 1 4.412-4.713 11.37 11.37 0 0 1 4.272-2.043c1.421-.081 1.924.562 1.509 1.927a80.737 80.737 0 0 0-2.043 3.065 26.278 26.278 0 0 0-3.042 7.337ZM407.955 250.802v.046a33.959 33.959 0 0 1-4.505 5.085 7.607 7.607 0 0 1-.603.441 28.37 28.37 0 0 0-4.203-9.101 10.739 10.739 0 0 1-.929-1.347c-.333-1.509.263-2.12 1.788-1.834 1.228.351 2.374.877 3.437 1.579a21.326 21.326 0 0 1 5.015 5.131Z" fill="#FE6F04"/><path fill-rule="evenodd" clip-rule="evenodd" d="M323.58 250.803h.046a.225.225 0 0 0 .024.139 25.189 25.189 0 0 0 1.811 2.229 24.243 24.243 0 0 0 3.227 3.204 29.733 29.733 0 0 0-.929 6.687 28.894 28.894 0 0 1-4.551-4.133 84.315 84.315 0 0 0-2.414-2.972.362.362 0 0 1-.186-.232c.121-.335.268-.66.441-.975a47.843 47.843 0 0 1 2.531-3.947ZM407.955 250.849a32.282 32.282 0 0 1 3.018 4.829.66.66 0 0 1-.186.279.512.512 0 0 0-.232.278c-.806.915-1.58 1.86-2.322 2.833a31.079 31.079 0 0 1-2.925 2.856c-.477.407-.972.786-1.486 1.137a29.226 29.226 0 0 0-.975-6.64v-.046c.206-.136.407-.283.603-.442a33.952 33.952 0 0 0 4.505-5.084Z" fill="#B24D25"/><path fill-rule="evenodd" clip-rule="evenodd" d="M402.847 256.421c.579 2.169.904 4.383.975 6.64a26.218 26.218 0 0 1-7.012 3.831 84.049 84.049 0 0 1-4.737 1.533 35.011 35.011 0 0 1-11.237 1.114 21.233 21.233 0 0 1-3.622-.604 10.453 10.453 0 0 0 3.204-4.527c-.063-.174-.187-.229-.372-.163-1.677 1.985-3.813 3.084-6.408 3.297-2.534-1.43-4.283-3.519-5.247-6.269a.168.168 0 0 1 .093-.092c.451-.094.9-.194 1.346-.302a.133.133 0 0 0 .047.116c.538.381 1.096.737 1.672 1.068a19.243 19.243 0 0 0 7.244 1.95 35.621 35.621 0 0 0 12.352-1.486c1.016-.359 2.037-.7 3.064-1.021a27.292 27.292 0 0 0 8.638-5.085ZM328.688 256.375h.047a.318.318 0 0 0 .139.209 29.61 29.61 0 0 0 6.919 4.319 84.398 84.398 0 0 0 5.572 1.903 34.09 34.09 0 0 0 11.841 1.161c3.045-.241 5.831-1.2 8.359-2.879.072-.063.133-.133.186-.209.48.119.96.243 1.439.372-.966 2.769-2.731 4.867-5.293 6.292-2.595-.214-4.731-1.313-6.409-3.297-.282-.053-.382.063-.301.348a10.972 10.972 0 0 0 3.134 4.342 26.249 26.249 0 0 1-8.405.604 37.12 37.12 0 0 1-6.78-1.208 80.625 80.625 0 0 1-4.133-1.346 26.49 26.49 0 0 1-7.244-3.924c.056-2.267.366-4.496.929-6.687Z" fill="#B1B1D3"/><g filter="url(#b)"><path d="M194.96 387.383h49.083a5.734 5.734 0 0 1 5.734 5.734v59.149a5.734 5.734 0 0 1-5.734 5.734H194.96c-5.125 0-7.676-6.21-4.031-9.812l21.672-21.418a5.733 5.733 0 0 0 0-8.157l-21.672-21.418c-3.645-3.602-1.094-9.812 4.031-9.812Z" fill="#91501E"/><path d="M194.95 384.5h49.097a5.73 5.73 0 0 1 5.73 5.73v59.157a5.73 5.73 0 0 1-5.73 5.73H194.95c-5.121 0-7.671-6.205-4.028-9.805l21.682-21.428a5.73 5.73 0 0 0 0-8.151l-21.682-21.427c-3.643-3.6-1.093-9.806 4.028-9.806Z" fill="url(#c)"/><path d="M529.04 387.382h-49.083a5.734 5.734 0 0 0-5.734 5.734v59.149a5.734 5.734 0 0 0 5.734 5.734h49.083c5.125 0 7.676-6.21 4.031-9.812l-21.672-21.418a5.733 5.733 0 0 1 0-8.157l21.672-21.418c3.645-3.602 1.094-9.812-4.031-9.812Z" fill="#91501E"/><path d="M529.05 384.499h-49.097a5.73 5.73 0 0 0-5.73 5.73v59.157a5.731 5.731 0 0 0 5.73 5.731h49.097c5.121 0 7.671-6.206 4.028-9.806l-21.682-21.428a5.73 5.73 0 0 1 0-8.151l21.682-21.427c3.643-3.6 1.093-9.806-4.028-9.806Z" fill="url(#d)"/><path d="M249.776 450.073V432.059h-17.194v.72l17.194 17.294ZM474.224 450.074v-18.015l17.194-2.162s.717-2.162.717 0l-17.911 20.177Z" fill="#91501E"/><rect x="226" y="362.868" width="271.999" height="73.132" rx="17.202" fill="#BA6D32"/><rect x="226" y="360" width="271.999" height="73.132" rx="17.2" fill="url(#e)"/><path style="mix-blend-mode:screen" fill="url(#f)" d="M226 360h271.999v73.132H226z"/></g><g filter="url(#g)"><mask id="h" maskUnits="userSpaceOnUse" x="292.946" y="386.106" width="137" height="25" fill="#000"><path fill="#fff" d="M292.946 386.106h137v25h-137z"/><path d="M295.222 388.601a30.007 30.007 0 0 1 3.578-.206c.929 0 1.858.034 2.786.103.173 0 .448.138.517.344.756 2.305 1.548 5.161 2.201 7.5.62-2.339 1.445-5.195 2.202-7.5.069-.206.344-.344.516-.344a37.613 37.613 0 0 1 2.787-.103c1.204 0 2.443.069 3.578.206-.585 2.615-1.514 6.124-2.855 8.773a11.796 11.796 0 0 1-2.787 3.235l.103 8.497a45.639 45.639 0 0 1-3.096.104c-1.17 0-2.443-.035-3.578-.104-.207 0-.344-.137-.344-.344 0-2.649 0-5.367.034-8.153a11.796 11.796 0 0 1-2.787-3.235c-1.342-2.649-2.27-6.158-2.855-8.773Zm17.922 10.184c0-6.743 2.993-10.321 7.844-10.562 6.537 0 9.634 2.615 9.634 10.562 0 6.778-3.063 10.287-7.914 10.528-6.571 0-9.564-2.546-9.564-10.528Zm7.156 0c0 4.094.688 4.541 1.617 4.541s1.514-.447 1.514-4.541-.688-4.541-1.617-4.541-1.514.447-1.514 4.541Zm11.458.138c0-3.441.035-7.019.138-10.459 1.066-.035 1.858-.069 2.993-.069 1.17 0 2.374.034 3.544.069a.37.37 0 0 1 .344.344c.069 3.234.137 7.706.137 11.147 0 3.062.448 3.509 1.377 3.509.928 0 1.307-.447 1.307-3.509 0-3.441.034-8.051.138-11.491 1.066-.035 1.857-.069 2.993-.069 1.169 0 2.374.034 3.543.069a.37.37 0 0 1 .344.344c.069 3.234.138 6.674.138 10.115 0 7.465-2.821 10.287-7.672 10.527-6.227 0-9.324-1.857-9.324-10.527Zm27.735-10.459c1.101-.035 1.995-.069 3.13-.069 1.17 0 2.202 0 3.372.069.206.034.378.172.413.344.585 2.89.963 5.78 1.342 8.67.619-2.581 1.479-5.883 2.202-7.948l1.617-.069 1.582.069c.688 2.03 1.548 5.264 2.168 7.81.378-2.959.757-5.917 1.238-8.876 1.101-.035 1.961-.069 2.753-.069 1.169 0 2.477.034 3.646.069.172 0 .31.137.31.309 0 .104-.103.723-.172 1.101a185.197 185.197 0 0 1-3.922 19.232c-1.101.069-3.888.104-5.023.104-.826-2.753-1.858-5.505-2.615-8.326-.826 2.821-1.927 5.539-2.718 8.326-1.17 0-3.681-.035-4.851-.104-.172 0-.344-.137-.413-.344-1.651-6.571-3.131-13.589-4.059-20.298Zm23.838 10.321c0-6.743 2.993-10.321 7.844-10.562 6.537 0 9.633 2.615 9.633 10.562 0 6.778-3.062 10.287-7.913 10.528-6.571 0-9.564-2.546-9.564-10.528Zm7.156 0c0 4.094.688 4.541 1.617 4.541s1.514-.447 1.514-4.541-.689-4.541-1.617-4.541c-.929 0-1.514.447-1.514 4.541Zm12.111 0c0-3.44.035-6.881.138-10.321 1.067-.035 1.686-.069 2.821-.069.998 0 1.893.034 2.993.069.172.034.276.172.379.344l3.544 8.807-.104-9.151c1.067-.035 1.858-.069 2.994-.069 1.169 0 2.167.034 3.199.069.172.034.344.172.344.344.069 3.234.138 6.537.138 9.977 0 3.441-.069 6.881-.138 10.321-.963.069-1.548.104-2.683.104-1.032 0-2.03-.035-3.131-.104-.207 0-.31-.137-.379-.344l-3.578-8.773.138 9.117c-1.101.069-1.72.104-2.856.104a52.27 52.27 0 0 1-3.337-.104c-.206 0-.344-.137-.344-.344-.069-3.234-.138-6.536-.138-9.977Zm19.088 7.363c0-.757 0-1.514.035-2.374.86-.035 1.72-.035 2.546-.035.929 0 1.892 0 2.958.035.172 0 .31.172.344.344V409.106c-.653.035-1.273.069-1.892.069-1.17 0-2.374-.069-3.612-.137-.207 0-.344-.138-.344-.344-.035-.895-.035-1.721-.035-2.546Zm-.241-10.803c0-2.409.035-4.439.138-6.881 1.067-.035 1.858-.069 2.993-.069 1.032 0 1.927.034 2.856.069a.442.442 0 0 1 .344.344c.069 2.305.138 4.266.138 6.537 0 2.442-.104 4.472-.207 6.881a25.4 25.4 0 0 1-2.443.103c-1.169 0-2.202 0-3.337-.103-.206 0-.344-.138-.344-.345-.103-2.27-.138-4.231-.138-6.536Z"/></mask><path d="M295.222 388.601a30.007 30.007 0 0 1 3.578-.206c.929 0 1.858.034 2.786.103.173 0 .448.138.517.344.756 2.305 1.548 5.161 2.201 7.5.62-2.339 1.445-5.195 2.202-7.5.069-.206.344-.344.516-.344a37.613 37.613 0 0 1 2.787-.103c1.204 0 2.443.069 3.578.206-.585 2.615-1.514 6.124-2.855 8.773a11.796 11.796 0 0 1-2.787 3.235l.103 8.497a45.639 45.639 0 0 1-3.096.104c-1.17 0-2.443-.035-3.578-.104-.207 0-.344-.137-.344-.344 0-2.649 0-5.367.034-8.153a11.796 11.796 0 0 1-2.787-3.235c-1.342-2.649-2.27-6.158-2.855-8.773Zm17.922 10.184c0-6.743 2.993-10.321 7.844-10.562 6.537 0 9.634 2.615 9.634 10.562 0 6.778-3.063 10.287-7.914 10.528-6.571 0-9.564-2.546-9.564-10.528Zm7.156 0c0 4.094.688 4.541 1.617 4.541s1.514-.447 1.514-4.541-.688-4.541-1.617-4.541-1.514.447-1.514 4.541Zm11.458.138c0-3.441.035-7.019.138-10.459 1.066-.035 1.858-.069 2.993-.069 1.17 0 2.374.034 3.544.069a.37.37 0 0 1 .344.344c.069 3.234.137 7.706.137 11.147 0 3.062.448 3.509 1.377 3.509.928 0 1.307-.447 1.307-3.509 0-3.441.034-8.051.138-11.491 1.066-.035 1.857-.069 2.993-.069 1.169 0 2.374.034 3.543.069a.37.37 0 0 1 .344.344c.069 3.234.138 6.674.138 10.115 0 7.465-2.821 10.287-7.672 10.527-6.227 0-9.324-1.857-9.324-10.527Zm27.735-10.459c1.101-.035 1.995-.069 3.13-.069 1.17 0 2.202 0 3.372.069.206.034.378.172.413.344.585 2.89.963 5.78 1.342 8.67.619-2.581 1.479-5.883 2.202-7.948l1.617-.069 1.582.069c.688 2.03 1.548 5.264 2.168 7.81.378-2.959.757-5.917 1.238-8.876 1.101-.035 1.961-.069 2.753-.069 1.169 0 2.477.034 3.646.069.172 0 .31.137.31.309 0 .104-.103.723-.172 1.101a185.197 185.197 0 0 1-3.922 19.232c-1.101.069-3.888.104-5.023.104-.826-2.753-1.858-5.505-2.615-8.326-.826 2.821-1.927 5.539-2.718 8.326-1.17 0-3.681-.035-4.851-.104-.172 0-.344-.137-.413-.344-1.651-6.571-3.131-13.589-4.059-20.298Zm23.838 10.321c0-6.743 2.993-10.321 7.844-10.562 6.537 0 9.633 2.615 9.633 10.562 0 6.778-3.062 10.287-7.913 10.528-6.571 0-9.564-2.546-9.564-10.528Zm7.156 0c0 4.094.688 4.541 1.617 4.541s1.514-.447 1.514-4.541-.689-4.541-1.617-4.541c-.929 0-1.514.447-1.514 4.541Zm12.111 0c0-3.44.035-6.881.138-10.321 1.067-.035 1.686-.069 2.821-.069.998 0 1.893.034 2.993.069.172.034.276.172.379.344l3.544 8.807-.104-9.151c1.067-.035 1.858-.069 2.994-.069 1.169 0 2.167.034 3.199.069.172.034.344.172.344.344.069 3.234.138 6.537.138 9.977 0 3.441-.069 6.881-.138 10.321-.963.069-1.548.104-2.683.104-1.032 0-2.03-.035-3.131-.104-.207 0-.31-.137-.379-.344l-3.578-8.773.138 9.117c-1.101.069-1.72.104-2.856.104a52.27 52.27 0 0 1-3.337-.104c-.206 0-.344-.137-.344-.344-.069-3.234-.138-6.536-.138-9.977Zm19.088 7.363c0-.757 0-1.514.035-2.374.86-.035 1.72-.035 2.546-.035.929 0 1.892 0 2.958.035.172 0 .31.172.344.344V409.106c-.653.035-1.273.069-1.892.069-1.17 0-2.374-.069-3.612-.137-.207 0-.344-.138-.344-.344-.035-.895-.035-1.721-.035-2.546Zm-.241-10.803c0-2.409.035-4.439.138-6.881 1.067-.035 1.858-.069 2.993-.069 1.032 0 1.927.034 2.856.069a.442.442 0 0 1 .344.344c.069 2.305.138 4.266.138 6.537 0 2.442-.104 4.472-.207 6.881a25.4 25.4 0 0 1-2.443.103c-1.169 0-2.202 0-3.337-.103-.206 0-.344-.138-.344-.345-.103-2.27-.138-4.231-.138-6.536Z" fill="#fff"/><path d="m295.222 388.601-.173-1.423-1.572.191.346 1.545 1.399-.313Zm6.364-.103-.105 1.43.052.004h.053v-1.434Zm.517.344 1.362-.447-.002-.006-1.36.453Zm2.201 7.5-1.38.386 1.418 5.075 1.348-5.094-1.386-.367Zm2.202-7.5-1.36-.453-.002.006 1.362.447Zm.516-.344v1.434h.053l.053-.004-.106-1.43Zm6.365.103 1.399.313.346-1.545-1.572-.191-.173 1.423Zm-2.855 8.773 1.234.729.024-.04.021-.041-1.279-.648Zm-2.787 3.235-.896-1.12-.546.437.008.7 1.434-.017Zm.103 8.497.09 1.431 1.36-.085-.016-1.363-1.434.017Zm-6.674 0 .086-1.43-.043-.003h-.043v1.433Zm-.31-8.497 1.433.017.009-.7-.546-.437-.896 1.12Zm-2.787-3.235-1.279.648.021.041.023.04 1.235-.729Zm-2.683-7.35a28.468 28.468 0 0 1 3.406-.196v-2.867c-1.291 0-2.553.072-3.751.217l.345 2.846Zm3.406-.196c.893 0 1.787.034 2.681.1l.211-2.859a38.815 38.815 0 0 0-2.892-.108v2.867Zm2.786.104a.95.95 0 0 1-.288-.042.73.73 0 0 1-.16-.073.946.946 0 0 1-.395-.522l2.72-.906c-.181-.54-.57-.86-.834-1.021a2.047 2.047 0 0 0-1.043-.303v2.867Zm-.845-.643c.744 2.268 1.526 5.088 2.183 7.439l2.761-.771c-.65-2.328-1.451-5.219-2.22-7.562l-2.724.894Zm4.949 7.42a142.803 142.803 0 0 1 2.178-7.42l-2.724-.894a145.119 145.119 0 0 0-2.225 7.581l2.771.733Zm2.176-7.414a.946.946 0 0 1-.395.522.73.73 0 0 1-.16.073.953.953 0 0 1-.289.042v-2.867c-.409 0-.776.142-1.042.303a1.924 1.924 0 0 0-.834 1.021l2.72.906Zm-.738.633a36.41 36.41 0 0 1 2.681-.1v-2.867c-.964 0-1.928.036-2.892.108l.211 2.859Zm2.681-.1c1.153 0 2.334.066 3.406.196l.345-2.846a31.81 31.81 0 0 0-3.751-.217v2.867Zm2.179-1.54c-.581 2.6-1.48 5.96-2.735 8.439l2.558 1.295c1.427-2.819 2.387-6.478 2.975-9.108l-2.798-.626Zm-2.691 8.358a10.317 10.317 0 0 1-2.448 2.843l1.791 2.239a13.201 13.201 0 0 0 3.126-3.625l-2.469-1.457Zm-2.986 3.98.104 8.498 2.867-.035-.104-8.498-2.867.035Zm1.448 7.05c-1.079.067-1.908.1-3.007.1v2.867c1.171 0 2.062-.036 3.186-.106l-.179-2.861Zm-3.007.1c-1.145 0-2.389-.034-3.492-.1l-.173 2.861c1.168.071 2.47.106 3.665.106v-2.867Zm-3.578-.103c.222 0 .519.08.764.325s.325.542.325.764h-2.867c0 .429.149.898.515 1.263.365.366.834.515 1.263.515v-2.867Zm1.089 1.089c0-2.65 0-5.359.034-8.136l-2.866-.035c-.035 2.797-.035 5.524-.035 8.171h2.867Zm-.503-9.273a10.317 10.317 0 0 1-2.448-2.843l-2.47 1.457a13.235 13.235 0 0 0 3.126 3.625l1.792-2.239Zm-2.404-2.762c-1.256-2.479-2.154-5.839-2.735-8.439l-2.798.626c.588 2.63 1.547 6.289 2.975 9.108l2.558-1.295Zm21.632-8.504v-1.434h-.035l-.036.002.071 1.432Zm1.72 21.09v1.433h.036l.036-.001-.072-1.432Zm-8.13-10.528c0-3.181.708-5.414 1.807-6.847 1.067-1.393 2.615-2.181 4.674-2.283l-.142-2.864c-2.791.139-5.166 1.26-6.808 3.403-1.61 2.101-2.399 5.029-2.399 8.591h2.868Zm6.41-9.129c3.124 0 5.049.633 6.237 1.864 1.204 1.246 1.963 3.422 1.963 7.265h2.867c0-4.105-.789-7.209-2.768-9.257-1.994-2.064-4.886-2.739-8.299-2.739v2.867Zm8.2 9.129c0 3.193-.723 5.413-1.833 6.832-1.081 1.382-2.647 2.161-4.718 2.264l.143 2.864c2.78-.138 5.17-1.234 6.833-3.362 1.634-2.089 2.442-5.013 2.442-8.598h-2.867Zm-6.48 9.094c-3.152 0-5.05-.62-6.212-1.83-1.18-1.228-1.918-3.391-1.918-7.264h-2.868c0 4.109.759 7.21 2.718 9.25 1.978 2.059 4.862 2.711 8.28 2.711v-2.867Zm-3.841-9.094c0 2.045.158 3.469.592 4.407.242.524.604.975 1.13 1.261.5.271.997.307 1.328.307v-2.867c-.133 0-.071-.02.039.04.136.074.152.157.106.057-.143-.309-.328-1.156-.328-3.205h-2.867Zm3.05 5.975c.328 0 .835-.034 1.339-.323.531-.303.871-.774 1.088-1.29.388-.922.52-2.331.52-4.362h-2.867c0 2.063-.159 2.925-.296 3.25-.045.108-.026.004.134-.087.134-.077.219-.055.082-.055v2.867Zm2.947-5.975c0-2.045-.158-3.469-.592-4.407-.242-.524-.603-.975-1.13-1.26-.5-.272-.997-.308-1.328-.308v2.867c.133 0 .071.02-.039-.04-.136-.073-.152-.157-.106-.057.143.309.328 1.156.328 3.205h2.867Zm-3.05-5.975c-.328 0-.834.034-1.339.323-.531.303-.871.774-1.088 1.29-.388.923-.52 2.331-.52 4.362h2.867c0-2.063.159-2.925.296-3.25.045-.108.026-.004-.134.087-.134.077-.219.055-.082.055v-2.867Zm10.082-4.346-.046-1.433-1.347.043-.04 1.347 1.433.043Zm6.537 0-.042 1.433h.042v-1.433Zm.344.344h-1.434v.015l.001.015 1.433-.03Zm2.959-.344-.047-1.433-1.346.043-.04 1.347 1.433.043Zm6.536 0-.042 1.433h.042v-1.433Zm.344.344h-1.433v.03l1.433-.03Zm-7.534 20.642v1.434h.035l.036-.002-.071-1.432Zm-7.89-10.527c0-3.432.034-6.995.137-10.416l-2.866-.086a354.058 354.058 0 0 0-.138 10.502h2.867Zm-1.25-9.027c1.08-.034 1.841-.068 2.947-.068v-2.867c-1.165 0-1.986.036-3.039.07l.092 2.865Zm2.947-.068c1.145 0 2.329.034 3.502.069l.084-2.866c-1.167-.035-2.392-.07-3.586-.07v2.867Zm3.544.069c-.381 0-.641-.175-.777-.312a1.09 1.09 0 0 1-.313-.777h2.867c0-.552-.261-.985-.527-1.25a1.777 1.777 0 0 0-1.25-.528v2.867Zm-1.089-1.059c.068 3.23.137 7.691.137 11.117h2.867c0-3.455-.069-7.939-.138-11.178l-2.866.061Zm.137 11.117c0 1.506.095 2.686.471 3.503.219.475.561.895 1.07 1.16.471.245.943.28 1.269.28v-2.867c-.139 0-.072-.022.054.044.164.085.22.202.211.183-.024-.053-.085-.228-.134-.633a14.64 14.64 0 0 1-.074-1.67h-2.867Zm2.81 4.943c.322 0 .802-.034 1.277-.291.516-.278.843-.717 1.043-1.187.343-.804.42-1.972.42-3.465h-2.867c0 .743-.023 1.288-.065 1.689-.044.414-.101.595-.125.652-.01.024.048-.112.231-.211.143-.077.227-.054.086-.054v2.867Zm2.74-4.943c0-3.436.035-8.029.137-11.448l-2.865-.086c-.104 3.462-.139 8.088-.139 11.534h2.867Zm-1.249-10.059c1.08-.034 1.841-.068 2.947-.068v-2.867c-1.165 0-1.986.036-3.04.07l.093 2.865Zm2.947-.068c1.145 0 2.329.034 3.501.069l.085-2.866c-1.168-.035-2.392-.07-3.586-.07v2.867Zm3.543.069c-.38 0-.64-.175-.777-.312a1.094 1.094 0 0 1-.312-.777h2.867c0-.552-.262-.985-.527-1.25a1.777 1.777 0 0 0-1.251-.528v2.867Zm-1.089-1.059c.069 3.235.138 6.661.138 10.085h2.867c0-3.458-.07-6.912-.138-10.146l-2.867.061Zm.138 10.085c0 3.593-.687 5.784-1.711 7.087-.978 1.244-2.445 1.902-4.599 2.009l.142 2.863c2.696-.134 5.066-1.007 6.711-3.1 1.599-2.034 2.324-4.987 2.324-8.859h-2.867Zm-6.239 9.094c-3.051 0-4.864-.476-5.985-1.594-1.131-1.128-1.905-3.257-1.905-7.5h-2.867c0 4.426.773 7.561 2.748 9.53 1.983 1.978 4.833 2.431 8.009 2.431v-2.867Zm18.411-19.553-.045-1.433-1.594.05.219 1.579 1.42-.196Zm6.502 0 .236-1.414-.076-.013-.076-.004-.084 1.431Zm.413.344-1.406.281.001.003 1.405-.284Zm1.342 8.67-1.422.186 2.816.148-1.394-.334Zm2.202-7.948-.061-1.432-.971.041-.322.918 1.354.473Zm1.617-.069.062-1.432-.062-.002-.061.002.061 1.432Zm1.582.069 1.358-.46-.315-.929-.981-.043-.062 1.432Zm2.168 7.81-1.393.339 2.815-.157-1.422-.182Zm1.238-8.876-.045-1.433-1.18.037-.19 1.165 1.415.231Zm6.399 0-.042 1.433h.042v-1.433Zm.138 1.41-1.41-.256-.005.023-.003.023 1.418.21Zm-3.922 19.232.089 1.431 1.036-.065.262-1.004-1.387-.362Zm-5.023.104-1.373.412.306 1.021h1.067v-1.433Zm-2.615-8.326 1.385-.372-1.325-4.937-1.436 4.906 1.376.403Zm-2.718 8.326v1.433h1.083l.296-1.042-1.379-.391Zm-4.851-.104.084-1.431-.042-.002h-.042v1.433Zm-.413-.344-1.39.35.013.052.017.052 1.36-.454Zm-4.015-18.865c1.112-.035 1.979-.069 3.086-.069v-2.867c-1.163 0-2.085.036-3.175.07l.089 2.866Zm3.086-.069c1.175 0 2.166.001 3.288.067l.168-2.862c-1.218-.072-2.29-.072-3.456-.072v2.867Zm3.136.05a.854.854 0 0 1-.404-.187 1.045 1.045 0 0 1-.353-.602l2.812-.562c-.186-.929-.984-1.377-1.583-1.477l-.472 2.828Zm-.756-.786c.573 2.833.946 5.674 1.325 8.572l2.843-.372c-.377-2.883-.762-5.822-1.358-8.769l-2.81.569Zm4.141 8.72c.619-2.579 1.464-5.819 2.161-7.808l-2.707-.947c-.748 2.139-1.623 5.504-2.242 8.086l2.788.669Zm.868-6.85 1.617-.068-.121-2.865-1.617.069.121 2.864Zm1.494-.068 1.583.068.124-2.864-1.582-.069-.125 2.865Zm.288-.904c.666 1.968 1.514 5.151 2.132 7.689l2.786-.678c-.622-2.554-1.494-5.838-2.203-7.931l-2.715.92Zm4.947 7.532c.379-2.963.754-5.897 1.231-8.828l-2.83-.461c-.486 2.987-.867 5.97-1.245 8.925l2.844.364Zm-.139-7.625c1.121-.035 1.946-.069 2.708-.069v-2.867c-.821 0-1.717.036-2.798.07l.09 2.866Zm2.708-.069c1.146 0 2.434.034 3.604.069l.085-2.866c-1.17-.035-2.496-.07-3.689-.07v2.867Zm3.646.069a1.125 1.125 0 0 1-1.123-1.124h2.867c0-.963-.78-1.743-1.744-1.743v2.867Zm-1.123-1.124c0-.071.006-.117.003-.091l-.007.059a33.198 33.198 0 0 1-.145.877l2.82.513a28.104 28.104 0 0 0 .165-1.001c.007-.048.031-.213.031-.357h-2.867Zm-.157.891a183.595 183.595 0 0 1-3.891 19.081l2.774.723a186.383 186.383 0 0 0 3.953-19.383l-2.836-.421Zm-2.593 18.012c-1.051.065-3.797.1-4.934.1v2.867c1.133 0 3.961-.034 5.112-.106l-.178-2.861Zm-3.561 1.122c-.876-2.921-1.842-5.447-2.603-8.286l-2.769.743c.752 2.804 1.851 5.782 2.626 8.367l2.746-.824Zm-5.364-8.317c-.401 1.371-.87 2.722-1.351 4.11-.475 1.377-.962 2.789-1.37 4.227l2.758.783c.383-1.349.843-2.688 1.322-4.073.475-1.373.969-2.792 1.393-4.242l-2.752-.805Zm-1.342 7.295c-1.166 0-3.642-.034-4.767-.101l-.168 2.862c1.214.072 3.762.106 4.935.106v-2.867Zm-4.851-.103c.299 0 .527.117.666.232a.882.882 0 0 1 .281.404l-2.72.907c.214.641.839 1.324 1.773 1.324v-2.867Zm.978.74c-1.643-6.537-3.111-13.503-4.03-20.146l-2.84.393c.938 6.775 2.429 13.846 4.089 20.452l2.781-.699Zm26.232-20.19v-1.434h-.036l-.035.002.071 1.432Zm1.72 21.09v1.433h.036l.035-.001-.071-1.432Zm-8.131-10.528c0-3.181.708-5.414 1.807-6.847 1.068-1.393 2.615-2.181 4.675-2.283l-.142-2.864c-2.792.139-5.166 1.26-6.808 3.403-1.611 2.101-2.399 5.029-2.399 8.591h2.867Zm6.411-9.129c3.124 0 5.048.633 6.237 1.864 1.204 1.246 1.963 3.422 1.963 7.265h2.867c0-4.105-.79-7.209-2.768-9.257-1.994-2.064-4.886-2.739-8.299-2.739v2.867Zm8.2 9.129c0 3.193-.724 5.413-1.834 6.832-1.08 1.382-2.647 2.161-4.717 2.264l.142 2.864c2.781-.138 5.171-1.234 6.834-3.362 1.634-2.089 2.442-5.013 2.442-8.598h-2.867Zm-6.48 9.094c-3.152 0-5.051-.62-6.213-1.83-1.179-1.228-1.918-3.391-1.918-7.264h-2.867c0 4.109.758 7.21 2.718 9.25 1.977 2.059 4.861 2.711 8.28 2.711v-2.867Zm-3.842-9.094c0 2.045.159 3.469.593 4.407.241.524.603.975 1.129 1.261.501.271.997.307 1.329.307v-2.867c-.133 0-.071-.02.039.04.136.074.152.157.105.057-.143-.309-.328-1.156-.328-3.205h-2.867Zm3.051 5.975c.327 0 .834-.034 1.339-.323.531-.303.87-.774 1.087-1.29.388-.922.521-2.331.521-4.362h-2.867c0 2.063-.16 2.925-.296 3.25-.046.108-.026.004.133-.087.134-.077.22-.055.083-.055v2.867Zm2.947-5.975c0-2.045-.159-3.469-.592-4.407-.242-.524-.604-.975-1.13-1.26-.501-.272-.997-.308-1.328-.308v2.867c.133 0 .071.02-.04-.04-.136-.073-.151-.157-.105-.057.143.309.328 1.156.328 3.205h2.867Zm-3.05-5.975c-.328 0-.835.034-1.34.323-.53.303-.87.774-1.087 1.29-.388.923-.521 2.331-.521 4.362h2.867c0-2.063.16-2.925.297-3.25.045-.108.026-.004-.134.087-.134.077-.219.055-.082.055v-2.867Zm10.735-4.346-.046-1.433-1.346.043-.041 1.347 1.433.043Zm5.814 0 .282-1.406-.117-.023-.12-.004-.045 1.433Zm.379.344 1.33-.535-.042-.106-.059-.097-1.229.738Zm3.544 8.807-1.33.535 2.763-.551-1.433.016Zm-.104-9.151-.046-1.433-1.403.045.016 1.404 1.433-.016Zm6.193 0 .281-1.406-.115-.023-.118-.004-.048 1.433Zm.344.344h-1.433v.03l1.433-.03Zm0 20.298.102 1.43 1.305-.093.026-1.308-1.433-.029Zm-5.814 0 .089-1.43-.044-.003h-.045v1.433Zm-.379-.344 1.36-.453-.014-.044-.018-.044-1.328.541Zm-3.578-8.773 1.328-.541-2.761.563 1.433-.022Zm.138 9.117.089 1.431 1.365-.085-.021-1.367-1.433.021Zm-6.193 0 .09-1.43-.045-.003h-.045v1.433Zm-.344-.344h1.434v-.015l-.001-.015-1.433.03Zm1.296-9.977c0-3.431.034-6.857.137-10.278l-2.866-.086a344.779 344.779 0 0 0-.138 10.364h2.867Zm-1.25-8.889c1.089-.035 1.67-.068 2.775-.068v-2.867c-1.166 0-1.823.036-2.867.07l.092 2.865Zm2.775-.068c.969 0 1.835.034 2.949.069l.089-2.866c-1.087-.034-2.011-.07-3.038-.07v2.867Zm2.712.041a1.015 1.015 0 0 1-.517-.271c-.071-.071-.093-.121-.052-.053l2.458-1.475c-.092-.153-.477-.842-1.326-1.012l-.563 2.811Zm-.67-.526 3.544 8.807 2.66-1.07-3.544-8.807-2.66 1.07Zm6.307 8.256-.103-9.151-2.867.032.103 9.151 2.867-.032Zm-1.49-7.703c1.079-.034 1.841-.068 2.947-.068v-2.867c-1.165 0-1.987.036-3.04.07l.093 2.865Zm2.947-.068c1.142 0 2.116.034 3.151.068l.096-2.865c-1.029-.034-2.05-.07-3.247-.07v2.867Zm2.918.041a.927.927 0 0 1-.46-.237 1.124 1.124 0 0 1-.348-.824h2.867a1.74 1.74 0 0 0-.563-1.272 1.928 1.928 0 0 0-.934-.478l-.562 2.811Zm-.808-1.031c.069 3.236.137 6.524.137 9.947h2.867c0-3.458-.069-6.775-.138-10.008l-2.866.061Zm.137 9.947c0 3.424-.068 6.85-.137 10.293l2.866.057c.069-3.438.138-6.893.138-10.35h-2.867Zm1.194 8.892c-.943.067-1.491.099-2.581.099v2.867c1.18 0 1.801-.036 2.785-.107l-.204-2.859Zm-2.581.099c-.999 0-1.966-.033-3.042-.1l-.179 2.861c1.127.071 2.155.106 3.221.106v-2.867Zm-3.131-.103c.111 0 .251.019.402.08.152.062.276.151.371.245.09.09.142.175.17.226.027.05.038.083.038.085l-2.72.907c.064.189.195.52.484.809.34.34.787.515 1.255.515v-2.867Zm.949.548-3.578-8.773-2.655 1.083 3.578 8.773 2.655-1.083Zm-6.339-8.21.138 9.117 2.866-.043-.137-9.117-2.867.043Zm1.482 7.665c-1.09.068-1.675.1-2.767.1v2.867c1.179 0 1.833-.036 2.945-.106l-.178-2.861Zm-2.767.1c-1.139 0-2.176-.033-3.247-.1l-.179 2.861c1.13.071 2.227.106 3.426.106v-2.867Zm-3.337-.103c.223 0 .52.08.764.325.245.245.326.542.326.764h-2.867c0 .429.149.898.514 1.263.365.366.834.515 1.263.515v-2.867Zm1.089 1.059c-.069-3.235-.137-6.524-.137-9.947h-2.867c0 3.458.069 6.775.138 10.008l2.866-.061Zm17.552-4.958-.058-1.433-1.322.053-.053 1.322 1.433.058Zm5.504 0-.046 1.433h.046v-1.433Zm.344.344h1.434v-.142l-.028-.139-1.406.281Zm0 4.988.076 1.432 1.358-.071v-1.361h-1.434Zm-5.504-.068.079-1.432-.039-.002h-.04v1.434Zm-.344-.344h1.433v-.028l-.001-.028-1.432.056Zm-.138-20.23-.046-1.433-1.33.043-.056 1.329 1.432.061Zm5.849 0 .281-1.406-.113-.023-.115-.004-.053 1.433Zm.344.344 1.433-.043-.004-.12-.023-.118-1.406.281Zm-.069 13.418.119 1.428 1.259-.105.054-1.262-1.432-.061Zm-5.78 0 .13-1.428-.065-.006h-.065v1.434Zm-.344-.345h1.434v-.032l-.002-.033-1.432.065Zm1.537 4.267c0-.759 0-1.489.033-2.317l-2.865-.115c-.035.893-.035 1.677-.035 2.432h2.867Zm-1.342-.942c.827-.033 1.658-.033 2.489-.033v-2.867c-.822 0-1.71 0-2.604.035l.115 2.865Zm2.489-.033c.93 0 1.872 0 2.912.034l.093-2.866c-1.093-.035-2.078-.035-3.005-.035v2.867Zm2.958.034c-.416 0-.694-.209-.824-.348a.935.935 0 0 1-.237-.46l2.811-.562a1.928 1.928 0 0 0-.478-.934 1.74 1.74 0 0 0-1.272-.563v2.867Zm-1.089-1.089V406.767h2.867V404.118h-2.867Zm0 2.649V409.106h2.867V406.767h-2.867Zm1.358.908c-.665.035-1.243.067-1.817.067v2.867c.665 0 1.325-.037 1.968-.071l-.151-2.863Zm-1.817.067c-1.122 0-2.284-.066-3.533-.136l-.159 2.863c1.229.068 2.475.14 3.692.14v-2.867Zm-3.612-.138c.222 0 .519.081.764.325.245.245.325.542.325.765h-2.867c0 .429.149.897.515 1.263.365.365.834.514 1.263.514v-2.867Zm1.088 1.034c-.033-.862-.033-1.662-.033-2.49h-2.867c0 .822 0 1.675.035 2.601l2.865-.111Zm-.274-13.293c0-2.392.034-4.402.136-6.821l-2.864-.121a155.798 155.798 0 0 0-.139 6.942h2.867Zm-1.25-5.449c1.08-.034 1.841-.068 2.947-.068v-2.867c-1.164 0-1.986.036-3.039.07l.092 2.865Zm2.947-.068c1.002 0 1.87.034 2.803.068l.106-2.865c-.925-.034-1.846-.07-2.909-.07v2.867Zm2.575.041a.991.991 0 0 1-.781-.78l2.812-.562a1.877 1.877 0 0 0-1.469-1.469l-.562 2.811Zm-.808-1.018c.069 2.314.137 4.249.137 6.494h2.867c0-2.298-.07-4.284-.138-6.58l-2.866.086Zm.137 6.494c0 2.404-.101 4.398-.205 6.819l2.864.123c.103-2.395.208-4.462.208-6.942h-2.867Zm1.108 5.452c-.795.066-1.305.098-2.324.098v2.867c1.115 0 1.706-.037 2.562-.108l-.238-2.857Zm-2.324.098c-1.178 0-2.146-.001-3.207-.097l-.26 2.855c1.21.11 2.306.109 3.467.109v-2.867Zm-3.337-.103c.223 0 .52.08.764.325.245.245.326.542.326.764h-2.867c0 .429.149.898.514 1.264.365.365.834.514 1.263.514v-2.867Zm1.088 1.024a135.72 135.72 0 0 1-.136-6.471h-2.867c0 2.321.035 4.305.139 6.602l2.864-.131Z" fill="#BA6D32" mask="url(#h)"/></g><defs><linearGradient id="c" x1="175.966" y1="455.117" x2="175.966" y2="384.5" gradientUnits="userSpaceOnUse"><stop stop-color="#FFA41C"/><stop offset="1" stop-color="#FFD000"/></linearGradient><linearGradient id="d" x1="548.034" y1="455.117" x2="548.034" y2="384.499" gradientUnits="userSpaceOnUse"><stop stop-color="#FFA41C"/><stop offset="1" stop-color="#FFD000"/></linearGradient><linearGradient id="e" x1="206.092" y1="433.132" x2="206.092" y2="360" gradientUnits="userSpaceOnUse"><stop stop-color="#FFA41C"/><stop offset="1" stop-color="#FFD000"/></linearGradient><linearGradient id="f" x1="205.683" y1="433.132" x2="205.683" y2="360" gradientUnits="userSpaceOnUse"><stop stop-color="#2E0F05"/><stop offset="1" stop-color="#ED8B09"/></linearGradient><filter id="b" x="189.208" y="360" width="345.583" height="102.301" filterUnits="userSpaceOnUse" color-interpolation-filters="sRGB"><feFlood flood-opacity="0" result="BackgroundImageFix"/><feColorMatrix in="SourceAlpha" values="0 0 0 0 0 0 0 0 0 0 0 0 0 0 0 0 0 0 127 0" result="hardAlpha"/><feOffset dy="4.301"/><feComposite in2="hardAlpha" operator="out"/><feColorMatrix values="0 0 0 0 0.827451 0 0 0 0 0.847059 0 0 0 0 1 0 0 0 1 0"/><feBlend in2="BackgroundImageFix" result="effect1_dropShadow_231_2760"/><feBlend in="SourceGraphic" in2="effect1_dropShadow_231_2760" result="shape"/></filter><filter id="g" x="295.222" y="388.223" width="132.692" height="24.095" filterUnits="userSpaceOnUse" color-interpolation-filters="sRGB"><feFlood flood-opacity="0" result="BackgroundImageFix"/><feColorMatrix in="SourceAlpha" values="0 0 0 0 0 0 0 0 0 0 0 0 0 0 0 0 0 0 127 0" result="hardAlpha"/><feOffset dy="2.867"/><feComposite in2="hardAlpha" operator="out"/><feColorMatrix values="0 0 0 0 0.729412 0 0 0 0 0.427451 0 0 0 0 0.196078 0 0 0 1 0"/><feBlend in2="BackgroundImageFix" result="effect1_dropShadow_231_2760"/><feBlend in="SourceGraphic" in2="effect1_dropShadow_231_2760" result="shape"/></filter><radialGradient id="a" cx="0" cy="0" r="1" gradientUnits="userSpaceOnUse" gradientTransform="matrix(.43822 159.6204 -361.39064 .99217 361.912 200.034)"><stop stop-color="#FFEE37" stop-opacity=".56"/><stop offset="1" stop-color="#FFF8AC" stop-opacity="0"/></radialGradient></defs></svg>