<svg width="394" height="461" viewBox="0 0 394 461" fill="none" xmlns="http://www.w3.org/2000/svg">
<g clip-path="url(#clip0_2_2)">
<path fill-rule="evenodd" clip-rule="evenodd" d="M263.288 184.945C263.722 183.355 264.028 181.742 264.209 180.107C269.799 176.994 274.913 172.961 279.37 168.151C280.117 167.302 280.841 166.43 281.543 165.538C287.87 157.231 290.623 147.667 289.801 136.845C289.599 134.175 289.258 131.52 288.778 128.893C288.447 127.283 288.123 125.67 287.807 124.055C287.272 118.087 286.59 112.135 285.762 106.206C284.906 100.724 283.822 95.2876 282.514 89.9126C281.787 86.7247 281.062 83.5369 280.341 80.3478C280.228 79.8729 280.356 79.5028 280.725 79.2353C281.144 79.0408 281.519 79.1139 281.85 79.458L282.796 81.4037C287.1 72.0851 290.593 62.3485 293.227 52.3215C294.153 48.7321 294.82 45.0695 295.222 41.3672C295.424 39.3128 295.39 37.2391 295.119 35.1941C294.982 34.3457 294.696 33.5341 294.276 32.804C293.716 31.9246 292.935 31.2392 292.026 30.83C290.749 30.2523 289.408 29.8596 288.037 29.6621C285.102 29.2747 282.139 29.2001 279.191 29.4394C272.697 30.0051 266.288 31.1364 259.964 32.8311C256.013 33.8565 252.111 35.0609 248.255 36.4457C248.688 36.7132 248.851 37.1103 248.74 37.6419C248.503 38.2193 248.102 38.415 247.539 38.2252C238.601 34.0303 229.141 31.2945 219.467 30.1064C216.919 29.7816 214.36 29.5685 211.796 29.4677C199.635 28.9152 187.474 30.54 175.797 34.2772C172.508 35.4082 169.281 36.7449 166.134 38.2806C165.26 38.3006 164.928 37.8469 165.137 36.9182C165.246 36.7066 165.417 36.5407 165.622 36.4468C156.991 33.3351 148.103 31.1371 139.083 29.8837C135.572 29.4216 132.033 29.2545 128.499 29.384C126.397 29.4665 124.352 29.8731 122.363 30.6073C121.471 30.9886 120.662 31.5659 119.985 32.3032C119.88 32.4446 119.787 32.5931 119.704 32.7475C119.154 33.728 118.813 34.8303 118.706 35.9731C118.496 38.6085 118.6 41.2624 119.014 43.8691C119.704 48.2389 120.678 52.5501 121.928 56.7704C124.386 65.1478 127.429 73.3088 131.03 81.1822C131.081 81.2553 131.132 81.2553 131.183 81.1822L131.95 79.5134C132.271 79.1174 132.655 79.0243 133.101 79.2353C133.475 79.4462 133.62 79.7797 133.536 80.237C132.268 85.6959 131.024 91.1642 129.802 96.6408C128.626 102.41 127.704 108.237 127.041 114.102C126.688 117.531 126.33 120.959 125.968 124.389C125.384 127.194 124.856 130.012 124.383 132.841C123.391 139.63 123.835 146.302 125.712 152.86C127.164 157.605 129.467 161.989 132.488 165.76C135.431 169.449 138.8 172.711 142.51 175.464C144.765 177.116 147.104 178.63 149.515 179.996C149.567 180.054 149.602 180.128 149.617 180.218C149.813 181.779 150.104 183.317 150.486 184.834C145.475 182.261 140.727 179.12 136.322 175.464C131.473 171.277 127.433 166.09 124.434 160.199C121.177 153.447 119.728 146.255 120.087 138.624C120.25 135.385 120.617 132.161 121.187 128.976C121.542 127.05 121.926 125.131 122.338 123.221C123.019 116.235 123.939 109.279 125.098 102.368C125.932 97.7392 127.005 93.1795 128.32 88.6882C128.645 87.7123 128.978 86.7401 129.317 85.769C124.449 75.6494 120.485 65.0452 117.479 54.1022C116.509 50.4013 115.791 46.6277 115.331 42.812C115.009 40.1532 115.026 37.4587 115.383 34.8052C115.637 32.9062 116.361 31.1183 117.479 29.6338C118.745 28.2841 120.301 27.2997 122.005 26.77C124.202 26.0825 126.469 25.6906 128.754 25.6033C133.753 25.451 138.753 25.8231 143.686 26.7146C152.554 28.2913 161.279 30.7005 169.764 33.9154C177.578 29.7605 186.011 27.1526 194.666 26.2138C200.39 25.5816 206.149 25.3961 211.898 25.6587C219.01 25.8803 226.069 27.0567 232.915 29.1612C236.771 30.4038 240.525 31.994 244.139 33.9154C252.092 30.8937 260.257 28.5786 268.555 26.9928C271.991 26.3517 275.456 25.906 278.935 25.6575C281.303 25.5469 283.675 25.5469 286.043 25.6575C288.354 25.8048 290.604 26.288 292.792 27.1036C295.521 28.1065 297.32 30.0993 298.187 33.081C298.816 35.7114 299.003 38.3808 298.749 41.089C298.447 44.8856 297.831 48.6449 296.909 52.3215C295.27 58.8181 293.237 65.1897 290.824 71.3946C289.773 74.0828 288.682 76.7524 287.551 79.4026L284.611 85.908C286.362 91.1563 287.721 96.5493 288.676 102.035C289.46 106.592 290.125 111.172 290.67 115.769C290.934 118.274 291.206 120.776 291.489 123.276C291.921 125.54 292.364 127.802 292.818 130.06C296.03 148.52 290.96 163.636 277.606 175.408C273.195 179.189 268.389 182.39 263.288 184.945Z" fill="#010072"/>
<path fill-rule="evenodd" clip-rule="evenodd" d="M211.795 29.4677C209.22 40.8875 209.911 52.0646 213.866 62.9989C218.855 75.82 227.112 85.2634 238.64 91.3304C248.609 96.2814 258.973 97.5601 269.73 95.1677C274.164 94.1246 278.447 92.4318 282.462 90.1354C282.485 90.1048 282.502 90.0688 282.511 90.0303C282.52 89.9918 282.521 89.9516 282.513 89.9127C283.821 95.2876 284.905 100.724 285.76 106.206C286.589 112.135 287.271 118.087 287.806 124.055C288.121 125.67 288.445 127.282 288.777 128.893C289.256 131.521 289.597 134.173 289.8 136.845C290.622 147.667 287.869 157.232 281.542 165.538C281.473 165.53 281.403 165.539 281.337 165.566C276.021 168.8 270.482 171.579 264.769 173.88C264.72 173.7 264.702 173.511 264.719 173.323C264.974 165.956 264.416 158.581 263.057 151.358C262.107 146.352 260.542 141.508 258.404 136.957C257.863 135.899 257.292 134.86 256.69 133.842C258.387 131.131 259.095 128.128 258.813 124.834C258.034 119.113 255.264 114.97 250.503 112.406C246.17 110.252 241.704 109.861 237.107 111.239C234.41 112.072 231.977 113.698 230.075 115.937C228.827 117.463 228.025 119.361 227.775 121.386C227.427 124.607 228.509 127.063 231.021 128.754C231.764 129.241 232.531 129.686 233.322 130.088C235.954 131.292 238.596 132.47 241.248 133.62C242.376 135.842 243.276 138.191 243.933 140.627C245.254 145.691 246.093 150.89 246.438 156.141C246.794 161.12 246.93 166.106 246.847 171.1C246.806 174.066 246.729 177.032 246.617 179.996C222.078 186.439 197.431 186.912 172.677 181.414C170.833 180.978 168.992 180.523 167.155 180.052C167.11 177.697 167.051 175.343 166.976 172.99C166.854 166.718 167.042 160.444 167.538 154.195C167.946 148.994 168.906 143.862 170.402 138.902C170.971 137.146 171.655 135.437 172.448 133.787C172.495 133.757 172.538 133.72 172.576 133.676L180.399 130.2C181.674 129.603 182.876 128.837 183.978 127.92C185.678 126.27 186.419 124.204 186.202 121.72C185.976 119.411 185.14 117.41 183.697 115.714C181.238 113.039 178.281 111.379 174.825 110.737C170.355 109.943 166.145 110.741 162.195 113.129C158.343 115.654 156.017 119.333 155.215 124.166C154.747 127.639 155.404 130.828 157.183 133.731C154.939 137.499 153.208 141.601 152.044 145.909C150.212 152.8 149.216 159.923 149.079 167.095C149.045 169.32 149.053 171.544 149.104 173.768V173.99C143.375 171.724 137.819 168.973 132.486 165.761C129.465 161.99 127.162 157.605 125.711 152.86C123.833 146.304 123.39 139.631 124.382 132.841C124.855 130.012 125.383 127.195 125.967 124.389C126.329 120.961 126.687 117.53 127.04 114.102C127.704 108.233 128.624 102.412 129.801 96.6408C131.023 91.1642 132.267 85.6971 133.535 80.237C133.619 79.7798 133.474 79.4474 133.1 79.2353C133.154 78.9477 133.24 78.6696 133.356 78.4021C133.601 78.362 133.822 78.2607 134.02 78.0957C134.27 77.768 134.5 77.4263 134.71 77.0668C136.721 73.2131 138.784 69.3947 140.897 65.6116C143.249 61.5363 145.721 57.5506 148.312 53.6567C149.184 52.0489 149.527 50.1659 149.283 48.3181C148.956 47.0669 148.38 45.9091 147.596 44.9263C146.689 43.8738 145.687 42.9238 144.605 42.0908C144.602 41.9105 144.516 41.8091 144.349 41.7844C142.597 40.1016 140.696 38.6117 138.674 37.3366C135.629 35.5037 132.381 34.1017 129.009 33.1647C126.705 32.5335 124.325 32.2899 121.953 32.4423C121.217 32.5189 120.493 32.6579 119.779 32.8595C119.727 32.8406 119.701 32.8041 119.703 32.7487C119.784 32.5931 119.879 32.4458 119.984 32.3032C120.661 31.5659 121.47 30.9886 122.361 30.6073C124.341 29.8754 126.408 29.4633 128.497 29.384C132.037 29.2544 135.565 29.4217 139.082 29.8849C148.102 31.138 156.99 33.3355 165.621 36.4469C165.416 36.5411 165.244 36.7069 165.135 36.9183C164.927 37.8481 165.259 38.3018 166.133 38.2818C169.28 36.7461 172.507 35.4094 175.796 34.2784C187.473 30.5408 199.634 28.9156 211.795 29.4677Z" fill="#FEFEFE"/>
<path fill-rule="evenodd" clip-rule="evenodd" d="M294.276 32.8052C294.282 32.8547 294.266 32.8913 294.225 32.916C293.405 32.6731 292.566 32.5152 291.719 32.4446C290.816 32.4074 289.912 32.4074 289.009 32.4446C287.997 32.5424 286.991 32.6897 285.992 32.8889C282.395 33.7607 278.927 35.1736 275.689 37.0868C275.647 37.1703 275.584 37.2387 275.506 37.2833C275.429 37.3279 275.342 37.3469 275.254 37.3378C274.302 37.986 273.348 38.6342 272.39 39.2835L272.033 39.6725L271.828 39.729C271.133 40.404 270.416 41.0526 269.68 41.6736C269.618 41.7486 269.566 41.8332 269.527 41.9246C268.426 42.7966 267.391 43.7638 266.433 44.8167C265.821 45.6128 265.306 46.4909 264.9 47.4295C264.379 49.2738 264.499 51.0711 265.257 52.8235C265.432 53.2219 265.619 53.6108 265.82 53.9914C269.024 58.771 272.027 63.7066 274.819 68.783C276.34 71.6644 277.874 74.5377 279.421 77.4027C279.596 77.7032 279.809 77.9731 280.061 78.2088C280.204 78.3054 280.358 78.3703 280.52 78.4033C280.641 78.6649 280.709 78.943 280.725 79.2376C280.355 79.504 280.228 79.874 280.341 80.349C281.063 83.5392 281.787 86.7271 282.515 89.9138C282.522 89.9528 282.521 89.993 282.512 90.0315C282.503 90.07 282.486 90.1059 282.463 90.1366C278.448 92.4328 274.165 94.1256 269.732 95.1688C258.974 97.5612 248.61 96.2825 238.642 91.3316C227.115 85.2646 218.856 75.8211 213.867 63C209.912 52.0657 209.221 40.8887 211.796 29.4688C214.36 29.5702 216.918 29.7835 219.467 30.1088C229.141 31.2967 238.601 34.0325 247.539 38.2276C248.102 38.4162 248.503 38.2217 248.741 37.643C248.851 37.1127 248.689 36.7144 248.255 36.448C252.109 35.0631 256.016 33.8572 259.965 32.8335C266.279 31.1388 272.709 30.0041 279.192 29.4406C282.14 29.2017 285.103 29.2767 288.038 29.6645C289.416 29.8637 290.745 30.2526 292.026 30.8312C292.954 31.2567 293.704 31.9155 294.276 32.8052Z" fill="#FE6F04"/>
<path fill-rule="evenodd" clip-rule="evenodd" d="M294.274 32.804C294.695 33.5359 294.976 34.3326 295.118 35.1964C295.389 37.247 295.422 39.3047 295.22 41.3683C294.819 45.0707 294.152 48.7333 293.226 52.3226C290.591 62.3496 287.099 72.0862 282.795 81.4049L281.849 79.4592C281.517 79.115 281.143 79.0408 280.724 79.2353C280.708 78.9453 280.639 78.6619 280.519 78.402C280.963 78.4798 281.331 78.3313 281.618 77.9577C283.675 74.5045 285.405 70.834 286.783 67.0022C289.224 60.2376 291.073 53.2376 292.306 46.0953C292.751 43.5969 292.939 41.0749 292.868 38.5316C292.801 37.1528 292.179 36.2158 291.002 35.7232C290.44 35.5133 289.855 35.3826 289.263 35.3343C288.445 35.2969 287.627 35.2969 286.809 35.3343C283.168 35.7871 279.593 36.7403 276.172 38.171C273.83 39.1378 271.6 40.3971 269.525 41.9234C269.565 41.8326 269.617 41.7484 269.679 41.6735C270.415 41.0518 271.131 40.4029 271.827 39.7278L272.03 39.6724L272.389 39.2835L275.252 37.3366C275.339 37.3458 275.427 37.3269 275.504 37.2823C275.582 37.2376 275.645 37.1692 275.687 37.0856C278.925 35.1723 282.393 33.7594 285.991 32.8877C286.99 32.6897 287.996 32.5412 289.007 32.4434C289.91 32.4062 290.814 32.4062 291.717 32.4434C292.568 32.5141 293.403 32.672 294.223 32.9148C294.264 32.8901 294.281 32.8535 294.274 32.804Z" fill="#CC5A15"/>
<path fill-rule="evenodd" clip-rule="evenodd" d="M144.606 42.0907C142.1 40.2096 139.362 38.7218 136.475 37.6713C133.364 36.4916 130.139 35.7078 126.862 35.3355C125.838 35.2736 124.812 35.3107 123.794 35.4462C122.988 35.5907 122.246 36.0091 121.672 36.6413C121.328 37.2076 121.117 37.8571 121.058 38.5328C121.013 39.7773 121.047 41.0195 121.161 42.2581C121.695 46.8631 122.549 51.4174 123.717 55.8817C125.143 61.5377 127.025 67.0459 129.342 72.3421C130.246 74.3381 131.28 76.2612 132.436 78.0968C132.698 78.349 133.005 78.4515 133.356 78.4032C133.24 78.6688 133.154 78.9485 133.1 79.2364C132.655 79.0266 132.271 79.1186 131.95 79.5145L131.183 81.1833C131.132 81.2576 131.081 81.2576 131.029 81.1833C127.428 73.3099 124.386 65.1489 121.928 56.7715C120.678 52.5513 119.703 48.2401 119.013 43.8703C118.599 41.2635 118.496 38.6097 118.706 35.9742C118.813 34.8319 119.153 33.7301 119.703 32.7498C119.702 32.8052 119.727 32.8417 119.78 32.8606C120.493 32.6588 121.22 32.5193 121.953 32.4434C124.325 32.291 126.705 32.5346 129.01 33.1658C132.382 34.1026 135.629 35.5047 138.674 37.3378C140.696 38.6131 142.597 40.103 144.35 41.7855C144.517 41.8091 144.603 41.9104 144.606 42.0907Z" fill="#CCC4CF"/>
<path fill-rule="evenodd" clip-rule="evenodd" d="M144.605 42.0931C145.687 42.9265 146.689 43.8769 147.596 44.9298C148.38 45.9126 148.956 47.0704 149.283 48.3215C149.527 50.1694 149.184 52.0523 148.312 53.6602C145.72 57.5552 143.247 61.5424 140.897 65.6151C138.782 69.3995 136.72 73.2183 134.71 77.0703C134.5 77.4287 134.27 77.7723 134.02 78.0991C133.826 78.2608 133.598 78.3663 133.356 78.4056C133.191 78.4325 133.023 78.419 132.863 78.366C132.704 78.3129 132.557 78.2218 132.435 78.0991C131.279 76.2629 130.246 74.3394 129.342 72.3433C127.026 67.0472 125.143 61.5395 123.716 55.8841C122.549 51.4194 121.695 46.8652 121.16 42.2604C121.047 41.0223 121.013 39.7772 121.058 38.534C121.121 37.8457 121.325 37.2152 121.671 36.6436C122.245 36.0114 122.987 35.5931 123.793 35.4486C124.811 35.3126 125.837 35.2752 126.861 35.3366C130.149 35.7114 133.353 36.4916 136.475 37.6725C139.362 38.7234 142.099 40.2115 144.605 42.0931Z" fill="#020072"/>
<path fill-rule="evenodd" clip-rule="evenodd" d="M280.518 78.4044C280.355 78.3711 280.199 78.3047 280.059 78.2088C279.81 77.9763 279.594 77.7046 279.419 77.4026C277.872 74.5381 276.338 71.6652 274.817 68.7842C272.025 63.7077 269.022 58.7721 265.817 53.9926C265.616 53.6112 265.429 53.2216 265.255 52.8247C264.496 51.0722 264.377 49.275 264.897 47.4306C265.308 46.4854 265.819 45.6145 266.431 44.8166C267.396 43.756 268.428 42.7931 269.525 41.9257C271.599 40.3987 273.83 39.1391 276.172 38.1722C279.593 36.7418 283.167 35.789 286.808 35.3366C287.626 35.2994 288.445 35.2994 289.263 35.3366C289.855 35.385 290.439 35.5157 291.001 35.7256C292.178 36.217 292.8 37.1539 292.867 38.534C292.938 41.0697 292.749 43.6061 292.305 46.0965C291.073 53.2389 289.224 60.2389 286.782 67.0034C285.404 70.8351 283.674 74.5056 281.618 77.9589C281.491 78.1369 281.321 78.2729 281.126 78.3516C280.932 78.4303 280.721 78.4485 280.518 78.4044Z" fill="#020071"/>
<path fill-rule="evenodd" clip-rule="evenodd" d="M128.804 64.0571C129.753 64.5403 130.742 64.9009 131.77 65.1413C133.877 65.3688 135.198 64.3765 135.733 62.1656C136.151 61.2322 136.56 60.287 136.96 59.3301C137.297 58.6842 137.629 58.0349 137.957 57.3832C138.089 57.23 138.2 57.0626 138.29 56.8835C138.564 56.2671 138.855 55.6555 139.159 55.0485C139.741 54.0747 140.173 53.0038 140.438 51.8783C140.571 51.2279 140.518 50.5486 140.284 49.9326C140.064 49.5238 139.816 49.1334 139.543 48.7647C139.49 48.773 139.436 48.7631 139.389 48.7364C139.306 48.5904 139.202 48.4592 139.082 48.3475C138.519 47.9292 137.973 47.4841 137.446 47.0134C137.285 46.9574 137.131 46.8823 136.986 46.7895C136.755 46.5521 136.497 46.3471 136.219 46.179C135.118 45.5526 134.01 44.9409 132.895 44.344L131.054 43.5097C130.384 43.2656 129.719 43.0063 129.06 42.7318C128.109 42.4576 127.154 42.1979 126.197 41.9528C125.469 41.8098 124.735 41.7075 123.998 41.6464C123.879 40.6877 123.87 39.7166 123.972 38.7555C125.206 38.5837 126.458 38.6307 127.679 38.8946C132.207 39.856 136.594 41.4835 140.719 43.7324C142.369 44.6227 143.866 45.8173 145.141 47.2632C145.643 47.8902 146.01 48.631 146.215 49.4317C146.265 49.962 146.214 50.4806 146.062 50.9885C145.903 51.4468 145.715 51.8929 145.5 52.3238L141.665 58.5511C139.778 61.8359 137.971 65.1735 136.244 68.5602C135.265 70.6145 134.26 72.6536 133.228 74.6767C131.451 71.2951 129.97 67.7397 128.804 64.0571Z" fill="#F16567"/>
<path fill-rule="evenodd" clip-rule="evenodd" d="M290.03 40.7555L289.825 41.6453C289.156 41.6948 288.492 41.7772 287.831 41.8963C285.096 42.5905 282.439 43.6065 279.906 44.9262C279.865 44.9669 279.831 45.0138 279.803 45.0653C277.658 46.0555 275.706 47.48 274.05 49.2632C273.796 49.6511 273.606 50.0842 273.488 50.5431C273.45 51.0816 273.467 51.6202 273.539 52.1553C273.776 53.0604 274.134 53.8936 274.613 54.6573C274.807 55.1723 275.045 55.6543 275.329 56.1033C275.936 57.4063 276.584 58.6861 277.272 59.9406C277.423 60.3024 277.558 60.6724 277.681 61.0519C277.993 61.6506 278.239 62.2811 278.422 62.9434C278.645 63.3064 278.858 63.6765 279.062 64.0548C279.186 64.1644 279.314 64.2575 279.445 64.3329C279.439 64.3632 279.44 64.3947 279.449 64.4242C279.458 64.4537 279.475 64.4799 279.496 64.5002C279.688 64.5874 279.858 64.7077 280.008 64.8609C280.437 65.0548 280.897 65.1588 281.362 65.1673C282.241 65.1213 283.11 64.9436 283.945 64.6393C284.325 64.4331 284.709 64.2386 285.096 64.0548C285.116 64.0677 285.125 64.0866 285.121 64.1113C283.972 67.7836 282.49 71.3228 280.698 74.6767C278.015 69.0233 275.115 63.4947 272.005 58.1056C270.842 56.1872 269.666 54.2779 268.477 52.378C267.998 51.5215 267.733 50.5435 267.71 49.5413C268.026 48.3131 268.677 47.2178 269.577 46.3994C271.083 45.0334 272.751 43.8927 274.536 43.0076C278.689 40.8962 283.096 39.436 287.626 38.6707C288.394 38.6195 289.163 38.6381 289.928 38.7261C289.965 38.8046 289.991 38.8888 290.005 38.9759C290.03 39.5687 290.038 40.1627 290.03 40.7555Z" fill="#F16566"/>
<path fill-rule="evenodd" clip-rule="evenodd" d="M123.999 41.6453C124.736 41.7054 125.47 41.8079 126.198 41.9517C127.159 42.1968 128.114 42.4561 129.061 42.7295C129.719 43.0041 130.383 43.2634 131.055 43.5073L132.896 44.3417C134.015 44.9404 135.122 45.5532 136.22 46.1767C136.494 46.3417 136.75 46.5467 136.987 46.7895C137.133 46.8814 137.285 46.9545 137.447 47.0111C137.976 47.4836 138.522 47.9291 139.083 48.3463C139.204 48.4571 139.306 48.5879 139.39 48.7352C139.439 48.7623 139.49 48.7706 139.544 48.7623C139.815 49.1265 140.061 49.5154 140.285 49.9303C140.52 50.5631 140.571 51.2113 140.439 51.8772C140.175 53.0029 139.743 54.0738 139.16 55.0474C138.857 55.651 138.567 56.2624 138.291 56.8811C138.2 57.0626 138.088 57.2308 137.958 57.382C137.63 58.0337 137.298 58.6819 136.961 59.3277C136.561 60.2859 136.152 61.2311 135.735 62.1644C135.199 64.3753 133.878 65.3665 131.771 65.139C130.748 64.9007 129.753 64.5369 128.805 64.0548C126.677 57.5013 125.127 50.7422 124.178 43.8691C124.094 43.1303 124.035 42.3886 123.999 41.6453ZM290.03 40.7555C289.786 44.2017 289.299 47.6224 288.572 50.9874C287.677 55.4364 286.524 59.8194 285.121 64.1102C285.125 64.0866 285.116 64.0677 285.096 64.0548C284.708 64.2386 284.325 64.4331 283.945 64.6381C283.11 64.9428 282.241 65.1208 281.362 65.1673C280.897 65.1587 280.438 65.0547 280.008 64.8609C279.858 64.7084 279.685 64.5862 279.496 64.5003C279.474 64.4801 279.458 64.4539 279.449 64.4243C279.44 64.3948 279.439 64.3632 279.445 64.3329C279.31 64.2536 279.181 64.1605 279.062 64.0548C278.858 63.6773 278.645 63.3064 278.422 62.9423C278.241 62.2841 277.992 61.6501 277.681 61.0519C277.56 60.6745 277.423 60.3033 277.271 59.9394C276.584 58.6851 275.936 57.4057 275.328 56.1033C275.043 55.6502 274.804 55.1655 274.613 54.6573C274.133 53.8917 273.771 53.0468 273.539 52.1553C273.467 51.6212 273.45 51.0801 273.488 50.5419C273.607 50.0811 273.794 49.6545 274.05 49.2632C275.706 47.4798 277.658 46.0552 279.803 45.0653C279.831 45.0141 279.865 44.9673 279.905 44.9263C282.438 43.6063 285.096 42.59 287.831 41.8951C288.492 41.7773 289.156 41.6948 289.825 41.6453L290.03 40.7555Z" fill="#FE7F80"/>
<path fill-rule="evenodd" clip-rule="evenodd" d="M174.571 76.5683C177.129 76.434 178.774 77.6938 179.505 80.3502C179.917 82.7072 179.107 84.33 177.076 85.2151C173.704 86.8824 170.171 88.1324 166.542 88.9416C165.599 89.1411 164.633 89.1785 163.679 89.0523C162.926 88.852 162.696 88.3606 162.989 87.5792C163.699 85.8861 164.629 84.3128 165.75 82.9075C167.265 80.9226 169.07 79.2225 171.093 77.8753C172.166 77.2056 173.346 76.7622 174.571 76.5683Z" fill="#000072"/>
<path fill-rule="evenodd" clip-rule="evenodd" d="M238.128 76.5695C239.472 76.5372 240.804 76.8518 242.015 77.4875C244.304 78.8111 246.329 80.6161 247.972 82.7979C248.902 83.988 249.724 85.2731 250.426 86.6352C250.599 87.0147 250.753 87.4047 250.886 87.8019C250.946 88.1166 250.911 88.4147 250.784 88.6917C250.578 88.8649 250.347 88.9851 250.094 89.0535C249.019 89.1947 247.93 89.1386 246.872 88.8873C243.051 87.9778 239.344 86.5774 235.828 84.7154C234.733 83.9317 234.188 82.8203 234.191 81.3802C234.385 78.6766 235.698 77.0727 238.128 76.5695Z" fill="#010071"/>
<path fill-rule="evenodd" clip-rule="evenodd" d="M172.574 133.677C172.547 133.673 172.53 133.654 172.523 133.621C172.948 132.919 172.932 132.233 172.473 131.564C171.954 131.013 171.323 130.603 170.631 130.368C167.709 129.381 164.592 129.304 161.632 130.146C159.733 130.749 158.251 131.944 157.183 133.732C155.404 130.828 154.747 127.641 155.214 124.167C156.016 119.334 158.343 115.654 162.195 113.129C166.145 110.742 170.354 109.944 174.825 110.738C178.28 111.381 181.238 113.039 183.697 115.715C185.14 117.411 185.976 119.412 186.202 121.721C186.419 124.205 185.677 126.271 183.977 127.921C182.875 128.839 181.674 129.605 180.399 130.201L172.574 133.677ZM256.69 133.843C255.638 132.055 254.173 130.841 252.294 130.201C249.396 129.335 246.335 129.354 243.447 130.257C242.76 130.472 242.117 130.831 241.555 131.313C240.874 131.99 240.771 132.76 241.248 133.62C238.596 132.47 235.954 131.293 233.322 130.089C232.534 129.689 231.766 129.244 231.021 128.755C228.509 127.063 227.428 124.608 227.775 121.387C228.026 119.362 228.827 117.465 230.075 115.938C231.977 113.698 234.41 112.072 237.107 111.239C241.704 109.863 246.17 110.251 250.503 112.406C255.265 114.971 258.034 119.114 258.813 124.834C259.096 128.128 258.389 131.131 256.69 133.843Z" fill="#000072"/>
<path fill-rule="evenodd" clip-rule="evenodd" d="M175.543 116.605C177.775 116.425 179.368 117.425 180.323 119.608C180.984 121.549 180.728 123.328 179.557 124.946C177.992 126.668 176.21 126.992 174.213 125.92C172.405 124.592 171.681 122.747 172.039 120.387C172.525 118.367 173.692 117.107 175.543 116.605ZM237.056 116.605C239.438 116.467 241.032 117.617 241.837 120.052C242.28 122.061 241.846 123.803 240.533 125.28C239.186 126.549 237.669 126.854 235.982 126.197C233.908 125.015 233.031 123.152 233.348 120.608C233.835 118.44 235.07 117.105 237.056 116.605Z" fill="#FEFEFE"/>
<path fill-rule="evenodd" clip-rule="evenodd" d="M163.985 119.663C165.705 119.634 166.787 120.523 167.232 122.332C167.409 123.808 166.941 124.966 165.826 125.808C164.195 126.594 162.89 126.177 161.914 124.556C161.201 122.85 161.499 121.396 162.809 120.191C163.172 119.946 163.569 119.768 163.985 119.663ZM249.174 119.663C250.838 119.628 251.904 120.481 252.37 122.22C252.564 123.757 252.078 124.953 250.912 125.808C249.771 126.447 248.697 126.336 247.69 125.474C246.506 124.099 246.36 122.607 247.256 120.997C247.72 120.309 248.404 119.833 249.174 119.663Z" fill="#FDFDFD"/>
<path fill-rule="evenodd" clip-rule="evenodd" d="M206.17 120.275C211.02 119.991 215.452 121.315 219.465 124.251C219.972 124.654 220.45 125.1 220.896 125.586C218.683 124.647 216.41 123.885 214.095 123.306C207.249 121.913 200.619 122.673 194.204 125.586C197.63 122.344 201.618 120.574 206.17 120.275Z" fill="#030172"/>
<path fill-rule="evenodd" clip-rule="evenodd" d="M205.659 123.889C208.506 123.766 211.354 124.132 214.096 124.974C214.791 125.193 215.396 125.572 215.911 126.113C216.01 126.272 216.095 126.44 216.167 126.614C216.242 127.227 216.173 127.82 215.962 128.392C215.515 129.436 214.88 130.372 214.096 131.145C212.423 132.725 210.488 133.943 208.395 134.732C208.197 135.087 208.026 135.459 207.883 135.844C207.71 136.701 207.522 137.554 207.321 138.403C207.088 138.719 206.9 138.681 206.758 138.291C206.56 137.561 206.406 136.818 206.299 136.067C206.184 135.634 206.012 135.222 205.787 134.844C203.729 134.083 201.815 132.925 200.137 131.424C199.28 130.626 198.577 129.653 198.066 128.56C197.801 127.994 197.694 127.356 197.759 126.725C197.882 126.298 198.112 125.955 198.449 125.696C199.458 125.054 200.568 124.62 201.722 124.417C203.027 124.18 204.341 124.004 205.659 123.889Z" fill="#010072"/>
<path fill-rule="evenodd" clip-rule="evenodd" d="M205.556 125.335C207.147 125.261 208.74 125.363 210.312 125.641C211.546 125.901 211.665 126.457 210.669 127.309C209.475 128.102 208.126 128.578 206.732 128.699C205.543 128.479 204.399 128.027 203.357 127.365C202.985 127.122 202.711 126.734 202.59 126.281C202.615 126.161 202.672 126.051 202.754 125.967C202.836 125.883 202.939 125.827 203.051 125.808C203.873 125.577 204.711 125.419 205.556 125.335Z" fill="#4D4C9C"/>
<path fill-rule="evenodd" clip-rule="evenodd" d="M256.693 133.844C257.292 134.859 257.863 135.897 258.406 136.958C260.544 141.51 262.109 146.354 263.058 151.361C264.419 158.584 264.977 165.958 264.721 173.326C264.621 175.593 264.45 177.855 264.209 180.109C264.029 181.747 263.721 183.366 263.289 184.947C262.794 186.215 262 187.318 260.987 188.144C257.899 190.59 254.438 191.952 250.607 192.231C249.479 192.278 248.367 191.927 247.438 191.231C247.178 190.947 246.977 190.606 246.849 190.23C246.683 189.425 246.571 188.607 246.516 187.784C246.521 185.187 246.555 182.592 246.619 179.998C246.731 177.043 246.808 174.076 246.849 171.101C246.933 166.107 246.796 161.122 246.441 156.143C246.094 150.892 245.255 145.694 243.935 140.629C243.278 138.193 242.378 135.843 241.25 133.621C240.773 132.761 240.875 131.992 241.557 131.314C242.119 130.832 242.761 130.474 243.448 130.258C246.336 129.355 249.397 129.336 252.295 130.203C254.175 130.843 255.64 132.056 256.693 133.844Z" fill="#26B0D6"/>
<path fill-rule="evenodd" clip-rule="evenodd" d="M172.575 133.677C172.539 133.721 172.495 133.758 172.448 133.788C171.655 135.438 170.971 137.148 170.403 138.904C168.908 143.864 167.946 148.995 167.538 154.196C167.042 160.446 166.854 166.72 166.976 172.991C167.051 175.345 167.11 177.698 167.156 180.053C167.238 182.631 167.305 185.209 167.36 187.783C167.291 187.877 167.255 187.995 167.258 188.116C167.241 188.87 167.129 189.619 166.925 190.34C166.795 190.663 166.616 190.941 166.389 191.174C165.748 191.705 164.989 192.041 164.19 192.148C163.01 192.292 161.817 192.216 160.661 191.925C157.772 191.278 155.049 189.949 152.684 188.032C152.079 187.485 151.538 186.86 151.073 186.169C150.836 185.745 150.64 185.301 150.486 184.835C150.103 183.319 149.812 181.778 149.616 180.22C149.604 180.136 149.568 180.058 149.514 179.997C149.549 179.929 149.567 179.852 149.565 179.775C149.355 177.778 149.202 175.775 149.105 173.769C149.053 171.545 149.045 169.32 149.079 167.096C149.216 159.924 150.214 152.802 152.046 145.91C153.208 141.602 154.939 137.5 157.185 133.732C158.251 131.944 159.735 130.749 161.633 130.145C164.593 129.304 167.711 129.381 170.632 130.368C171.324 130.603 171.955 131.013 172.474 131.564C172.932 132.233 172.949 132.919 172.525 133.62C172.531 133.654 172.548 133.673 172.575 133.677Z" fill="#27B0D6"/>
<path fill-rule="evenodd" clip-rule="evenodd" d="M164.802 132.34C166.495 132.288 168.186 132.522 169.813 133.036C169.837 133.058 169.855 133.087 169.864 133.119C168.664 135.693 167.713 138.395 167.027 141.182C165.875 146.049 165.122 151.017 164.777 156.029C164.409 161.97 164.29 167.926 164.418 173.878C164.496 177.253 164.581 180.627 164.674 184C164.709 185.334 164.709 186.669 164.674 188.003C164.671 188.391 164.61 188.775 164.495 189.143C164.04 189.335 163.552 189.42 163.064 189.394C160.074 189.148 157.198 188.045 154.729 186.196C154.161 185.726 153.653 185.174 153.22 184.556C152.873 183.7 152.615 182.805 152.453 181.886C152.06 179.347 151.804 176.785 151.687 174.213C151.422 167.551 151.816 160.877 152.863 154.306C153.604 149.576 154.874 144.964 156.646 140.57C157.545 138.446 158.624 136.417 159.868 134.509C160.731 133.545 161.847 132.894 163.064 132.646C163.64 132.521 164.219 132.419 164.802 132.34ZM247.386 132.34C248.782 132.306 250.176 132.484 251.528 132.87C252.269 133.148 252.961 133.562 253.574 134.093C254.135 134.796 254.638 135.547 255.082 136.345C257.054 139.923 258.567 143.777 259.582 147.8C261.1 153.898 261.958 160.169 262.138 166.483C262.279 170.758 262.143 175.022 261.729 179.274C261.566 180.873 261.275 182.455 260.859 184C260.428 184.914 259.785 185.69 258.993 186.252C256.539 188.062 253.692 189.145 250.735 189.394C250.385 189.396 250.034 189.368 249.687 189.31C249.53 189.285 249.381 189.219 249.253 189.115C249.15 187.989 249.107 186.856 249.125 185.724C249.213 181.776 249.306 177.828 249.406 173.88C249.586 167.163 249.398 160.441 248.843 153.749C248.461 149.605 247.794 145.497 246.849 141.461C246.106 138.56 245.14 135.733 243.96 133.009C245.081 132.672 246.227 132.448 247.386 132.34Z" fill="#66E8FE"/>
<path fill-rule="evenodd" clip-rule="evenodd" d="M163.372 134.9C163.781 134.95 163.994 135.21 164.01 135.678C163.96 138.767 163.618 141.842 162.988 144.854C162.806 145.482 162.584 146.095 162.322 146.689C162.01 147.326 161.541 147.761 160.917 147.996C159.686 148.203 158.926 147.656 158.641 146.355C158.564 145.766 158.547 145.169 158.59 144.576C159.171 141.059 160.56 137.991 162.757 135.373C162.956 135.201 163.161 135.043 163.372 134.9ZM250.146 134.9C250.386 134.919 250.608 135.003 250.811 135.15C253.243 137.855 254.718 141.089 255.234 144.854C255.305 145.589 255.217 146.331 254.978 147.022C254.617 147.724 254.063 148.057 253.317 148.023L252.856 147.996C252.378 147.817 251.966 147.476 251.68 147.022C251.119 145.933 250.729 144.749 250.529 143.519C250.102 140.93 249.863 138.308 249.814 135.678C249.826 135.381 249.945 135.101 250.146 134.9Z" fill="#FEFEFE"/>
<path fill-rule="evenodd" clip-rule="evenodd" d="M133.968 136.068C133.981 136.035 134.006 136.016 134.045 136.013C137.579 136.832 141.082 137.786 144.553 138.877C146.101 139.388 147.61 140.009 149.078 140.74C149.232 141.358 149.02 141.608 148.439 141.49C145.482 140.753 142.577 139.786 139.746 138.598L133.968 136.068ZM279.651 136.01C279.72 136.001 279.79 136.011 279.855 136.039C276.445 137.605 272.983 139.034 269.475 140.32C268.099 140.801 266.702 141.19 265.282 141.488C264.817 141.575 264.621 141.362 264.694 140.848C264.739 140.737 264.822 140.647 264.924 140.598C267.42 139.484 269.983 138.555 272.594 137.818C274.94 137.185 277.292 136.583 279.651 136.01Z" fill="#050272"/>
<path fill-rule="evenodd" clip-rule="evenodd" d="M199.676 141.129C200.953 141.037 202.228 141.335 203.357 141.99C204.169 142.571 205.005 143.109 205.863 143.602C206.643 143.955 207.411 143.917 208.165 143.492C208.906 143.024 209.639 142.542 210.364 142.046C212.955 140.62 215.393 140.879 217.675 142.825C218.482 143.624 219.148 144.576 219.644 145.633C219.828 146.557 219.513 147.178 218.699 147.495C218.478 147.55 218.248 147.54 218.033 147.467C217.817 147.393 217.623 147.259 217.471 147.078C217.053 146.227 216.499 145.465 215.834 144.827C214.667 143.876 213.406 143.69 212.051 144.271C211.317 144.705 210.602 145.169 209.903 145.66C208.316 146.743 206.646 146.928 204.892 146.216L201.619 144.215C199.892 143.629 198.434 144.084 197.247 145.578C196.936 146.012 196.662 146.477 196.429 146.967C195.759 147.678 195.078 147.697 194.384 147.022C194.26 146.842 194.173 146.634 194.129 146.413C194.085 146.193 194.085 145.964 194.128 145.744C195.252 143.157 197.102 141.618 199.676 141.129Z" fill="#010072"/>
<path fill-rule="evenodd" clip-rule="evenodd" d="M144.349 146.91C145.338 146.901 146.327 146.91 147.315 146.939C147.866 146.976 148.411 147.051 148.952 147.161C149.292 147.476 149.292 147.791 148.952 148.107C148.409 148.204 147.863 148.279 147.315 148.329C143.493 148.295 139.675 148.128 135.861 147.829C135.295 147.792 134.731 147.717 134.173 147.606C135.5 147.463 136.83 147.352 138.162 147.272C140.233 147.158 142.295 147.038 144.349 146.91Z" fill="#080373"/>
<path fill-rule="evenodd" clip-rule="evenodd" d="M266.766 146.91C271.069 146.982 275.364 147.213 279.652 147.606C279.298 147.688 278.939 147.744 278.578 147.773C274.493 148.103 270.402 148.288 266.306 148.328C265.863 148.276 265.42 148.22 264.976 148.162C264.593 147.929 264.525 147.614 264.772 147.217L264.976 147.105C265.57 147.014 266.167 146.949 266.766 146.91Z" fill="#050273"/>
<path fill-rule="evenodd" clip-rule="evenodd" d="M159.587 150.636C160.16 150.536 160.629 150.721 160.994 151.192C161.187 151.483 161.341 151.798 161.453 152.137C161.733 153.094 161.751 154.117 161.505 155.085C160.981 156.566 160.018 157.057 158.616 156.559C157.835 156.007 157.477 155.22 157.542 154.195C157.564 153.031 158.005 151.924 158.769 151.11C159.013 150.882 159.285 150.724 159.587 150.636ZM253.522 150.638C254.095 150.564 254.605 150.722 255.055 151.111C256.188 152.394 256.52 153.886 256.052 155.587C255.587 156.481 254.879 156.862 253.93 156.726C252.98 156.471 252.408 155.812 252.217 154.752C251.984 153.447 252.197 152.242 252.856 151.138C253.057 150.928 253.278 150.762 253.522 150.638Z" fill="#FDFEFE"/>
<path fill-rule="evenodd" clip-rule="evenodd" d="M148.337 153.694C148.566 153.673 148.787 153.701 149.001 153.778C149.215 153.991 149.257 154.242 149.129 154.528C148.616 154.849 148.077 155.119 147.519 155.334C143.057 156.849 138.536 158.148 133.968 159.227C137.959 157.452 141.998 155.821 146.087 154.333C146.833 154.102 147.583 153.889 148.337 153.694Z" fill="#050272"/>
<path fill-rule="evenodd" clip-rule="evenodd" d="M264.872 153.698C265.462 153.733 266.042 153.835 266.611 154.004C271.086 155.558 275.504 157.301 279.855 159.231C275.414 158.179 271.013 156.936 266.663 155.504C266.037 155.258 265.423 154.98 264.822 154.671C264.538 154.328 264.555 154.004 264.872 153.698Z" fill="#050273"/>
<path fill-rule="evenodd" clip-rule="evenodd" d="M281.543 165.54C280.841 166.433 280.117 167.304 279.37 168.153C274.913 172.964 269.799 176.997 264.209 180.109C264.45 177.855 264.621 175.592 264.721 173.325C264.703 173.514 264.721 173.699 264.772 173.881C270.484 171.58 276.022 168.801 281.338 165.568C281.404 165.54 281.474 165.531 281.543 165.54Z" fill="#CCC4D0"/>
<path fill-rule="evenodd" clip-rule="evenodd" d="M132.487 165.761C137.819 168.973 143.376 171.726 149.105 173.992V173.769C149.202 175.768 149.355 177.769 149.566 179.775C149.567 179.852 149.55 179.928 149.515 179.996C147.103 178.63 144.764 177.117 142.509 175.465C138.799 172.712 135.43 169.45 132.487 165.761Z" fill="#CCC4CF"/>
<path fill-rule="evenodd" clip-rule="evenodd" d="M260.628 174.324H260.832C260.744 177.431 260.384 180.522 259.758 183.555C259.678 183.8 259.557 184.026 259.401 184.222C258.701 185.003 257.867 185.627 256.946 186.057V186.223C256.604 186.261 256.297 186.4 256.025 186.641C255.401 186.927 254.771 187.196 254.134 187.447C253.74 187.56 253.347 187.68 252.957 187.809C252.101 188.067 251.208 188.152 250.324 188.058C250.311 183.812 250.378 179.567 250.528 175.324C250.887 175.354 251.253 175.419 251.628 175.519C254.27 175.915 256.959 175.669 259.503 174.796C259.887 174.652 260.263 174.494 260.628 174.324ZM152.991 174.213C153.38 174.445 153.788 174.64 154.217 174.798C154.522 174.847 154.811 174.94 155.086 175.076C156.049 175.315 157.022 175.5 158.002 175.631C159.787 175.745 161.559 175.643 163.319 175.326C163.351 178.069 163.41 180.813 163.498 183.555C163.532 185.056 163.532 186.558 163.498 188.06C162.876 188.133 162.247 188.105 161.632 187.976C159.515 187.54 157.499 186.652 155.7 185.363C155.635 185.335 155.565 185.325 155.496 185.335C155.502 185.304 155.5 185.273 155.491 185.243C155.482 185.214 155.466 185.188 155.444 185.167C155.003 184.863 154.607 184.489 154.268 184.056C154.087 183.651 153.958 183.221 153.885 182.777C153.343 179.959 153.044 177.092 152.991 174.213Z" fill="#65DAFE"/>
<path fill-rule="evenodd" clip-rule="evenodd" d="M246.619 179.997C246.555 182.592 246.521 185.187 246.516 187.783C242.934 188.968 239.318 190.034 235.676 190.98C231.327 192.087 226.964 193.125 222.586 194.095C222.428 194.143 222.286 194.239 222.177 194.372C222.069 194.505 221.997 194.669 221.972 194.845C221.949 194.875 221.932 194.911 221.923 194.95C221.914 194.988 221.913 195.028 221.921 195.067C216.907 195.772 211.877 196.347 206.837 196.791C204.177 196.55 201.518 196.29 198.86 196.012C196.51 195.683 194.158 195.368 191.804 195.067C191.808 194.587 191.604 194.263 191.189 194.095C184.904 192.768 178.663 191.21 172.475 189.423C170.764 188.893 169.06 188.347 167.362 187.783C167.308 185.21 167.239 182.632 167.157 180.054C168.994 180.525 170.834 180.979 172.68 181.416C197.433 186.914 222.08 186.441 246.619 179.997Z" fill="#CCC4CF"/>
<path fill-rule="evenodd" clip-rule="evenodd" d="M167.361 187.783C169.059 188.346 170.763 188.893 172.475 189.423C178.663 191.209 184.905 192.767 191.189 194.094C191.603 194.262 191.808 194.586 191.803 195.067V195.122C191.778 195.298 191.707 195.463 191.598 195.596C191.489 195.729 191.347 195.825 191.189 195.873C184.398 195.269 177.656 194.126 171.017 192.453C170.965 192.461 170.917 192.486 170.88 192.527C170.843 192.567 170.819 192.619 170.812 192.676C169.853 195.331 168.891 197.981 167.923 200.627C165.545 206.65 163.252 212.712 161.046 218.812C158.738 225.414 156.775 232.153 155.166 238.996C153.679 245.799 152.67 252.714 152.148 259.683C151.989 260.246 151.64 260.497 151.101 260.433C150.658 260.259 150.436 259.915 150.435 259.405C146.185 261.54 142.006 263.84 137.907 266.3C139.727 269.419 140.969 272.895 141.564 276.532C142.093 279.799 142.178 283.08 141.82 286.374C141.629 286.928 141.263 287.14 140.72 287.014C140.589 286.98 140.469 286.908 140.375 286.805C140.28 286.701 140.214 286.571 140.183 286.429C140.319 281.068 139.262 276.009 137.013 271.249C136.169 269.645 135.147 268.16 133.97 266.828C132.423 265.638 130.633 264.874 128.754 264.604C121.888 263.976 117.073 267.08 114.309 273.918C112.82 278.037 112.158 282.455 112.366 286.875C112.555 291.482 113.691 295.985 115.69 300.053C115.976 300.583 116.274 301.102 116.585 301.61C118.726 305.227 121.641 307.812 125.329 309.368C127.476 310.193 129.752 310.552 132.027 310.424C135.376 310.178 138.707 309.695 141.998 308.978C147.632 307.694 153.225 306.211 158.77 304.53C164.749 302.691 170.716 300.8 176.668 298.858C176.742 298.834 176.767 298.787 176.743 298.719C176.078 298.358 175.925 297.821 176.284 297.107C176.39 297.016 176.501 296.932 176.617 296.856C177.762 296.849 178.906 296.923 180.042 297.078C184.007 297.617 187.961 298.229 191.906 298.913C198.543 299.941 205.256 300.258 211.95 299.858C215.78 299.629 219.601 299.239 223.404 298.691C226.402 298.178 229.402 297.678 232.403 297.189C233.944 296.948 235.5 296.836 237.057 296.856C237.213 296.89 237.341 296.973 237.44 297.107C237.824 297.837 237.662 298.384 236.955 298.747C246.534 302.014 256.203 304.963 265.947 307.588C269.815 308.611 273.719 309.427 277.657 310.035C279.813 310.385 281.977 310.496 284.151 310.368C288.828 309.869 292.688 307.692 295.733 303.835C296.3 303.062 296.837 302.264 297.344 301.444C299.758 297.208 301.113 292.593 301.409 287.597C301.695 283.202 301.138 278.789 299.772 274.641C299.096 272.759 298.166 270.997 297.011 269.414C294.081 265.852 290.408 264.212 285.992 264.492C283.811 264.639 281.708 265.428 279.907 266.773C278.066 268.826 276.615 271.254 275.637 273.918C274.217 277.884 273.539 282.119 273.643 286.374C273.446 286.965 273.062 287.179 272.492 287.014C272.373 286.967 272.267 286.889 272.182 286.787C272.098 286.685 272.037 286.562 272.007 286.429C271.302 280.191 272.189 274.241 274.666 268.579C275.057 267.802 275.476 267.041 275.919 266.3C272.126 264.071 268.289 261.93 264.413 259.877C264.077 259.703 263.736 259.546 263.391 259.405C263.335 260.16 262.96 260.503 262.266 260.433C262.118 260.389 261.984 260.301 261.88 260.178C261.776 260.055 261.706 259.902 261.678 259.738C261.226 251.876 260.027 244.087 258.098 236.494C256.599 230.586 254.842 224.759 252.831 219.033C250.638 212.873 248.346 206.756 245.954 200.684C244.923 197.979 243.918 195.263 242.937 192.537C242.837 192.5 242.73 192.5 242.63 192.537C236.013 194.262 229.274 195.378 222.484 195.873C222.352 195.798 222.237 195.692 222.149 195.562C222.06 195.432 222 195.281 221.972 195.122V194.844C221.997 194.668 222.069 194.504 222.177 194.371C222.286 194.238 222.428 194.141 222.586 194.094C226.964 193.125 231.327 192.087 235.676 190.98C239.318 190.033 242.933 188.966 246.516 187.783C246.571 188.599 246.681 189.415 246.849 190.229C246.982 190.615 247.179 190.949 247.437 191.23L246.312 191.508C246.871 193.17 247.46 194.82 248.076 196.458C250.809 203.519 253.502 210.6 256.155 217.699C258.374 223.769 260.219 229.992 261.678 236.328C263.073 242.551 263.751 248.939 263.698 255.345C268.635 257.877 273.504 260.566 278.296 263.408C281.671 261.163 285.327 260.32 289.265 260.878C293.801 261.597 297.457 263.923 300.233 267.857C302.357 271.101 303.773 274.828 304.375 278.756C305.523 285.798 304.841 292.619 302.329 299.22C300.828 303.129 298.488 306.59 295.503 309.311C291.277 312.901 286.471 314.513 281.083 314.149C277.561 313.852 274.06 313.313 270.601 312.537C267.329 311.8 264.073 310.985 260.835 310.09C257.003 309.012 253.185 307.881 249.38 306.699C243.399 304.802 237.425 302.884 231.457 300.943C227.86 301.954 224.191 302.633 220.489 302.972C212.348 303.837 204.154 303.948 195.996 303.307C191.397 302.893 186.833 302.103 182.343 300.943C176.126 302.952 169.905 304.945 163.679 306.921C157.555 308.836 151.383 310.561 145.168 312.093C142.024 312.842 138.851 313.435 135.658 313.872C133.216 314.221 130.745 314.258 128.295 313.983C123.92 313.318 120.153 311.335 116.994 308.033C116.28 307.938 115.563 307.855 114.846 307.783L114.693 307.838C116.313 312.319 116.236 316.767 114.462 321.184C113.494 323.439 112.11 325.455 110.397 327.106C107.598 329.74 104.324 331.71 100.785 332.889C97.0051 334.135 93.1136 334.936 89.1769 335.28C84.7011 335.652 80.2063 335.671 75.728 335.337C70.9081 334.95 66.1598 333.846 61.6158 332.056C57.9876 330.587 54.6413 328.4 51.7464 325.604C48.8453 322.687 46.8426 319.157 45.7383 315.012C43.6532 307.375 44.0629 299.906 46.9661 292.602C48.6656 288.574 51.1519 284.997 54.252 282.121C58.1718 278.56 62.6031 275.984 67.547 274.391C73.3594 272.567 79.398 271.742 85.4446 271.944C87.1666 272.003 88.8876 272.078 90.6085 272.167C97.1975 272.597 103.784 273.033 110.372 273.473L110.807 273.417C112.247 269.099 114.736 265.698 118.273 263.214C121.834 260.976 125.652 260.234 129.726 260.99C131.78 261.377 133.743 262.198 135.505 263.408C140.275 260.592 145.118 257.922 150.027 255.401C149.985 249.587 150.542 243.786 151.688 238.106C152.799 232.8 154.234 227.58 155.984 222.482L157.773 217.366C160.061 211.291 162.38 205.23 164.727 199.182C165.649 196.649 166.578 194.118 167.515 191.592C167.505 191.567 167.491 191.544 167.473 191.525C167.456 191.506 167.435 191.491 167.412 191.481L166.39 191.174C166.617 190.941 166.796 190.663 166.926 190.34C167.13 189.619 167.242 188.871 167.259 188.116C167.256 187.995 167.292 187.877 167.361 187.783Z" fill="#010072"/>
<path fill-rule="evenodd" clip-rule="evenodd" d="M191.803 195.121C194.145 195.503 196.497 195.799 198.859 196.011C201.502 196.379 204.162 196.657 206.836 196.844C211.903 196.456 216.947 195.883 221.972 195.121C222 195.28 222.06 195.43 222.149 195.56C222.237 195.69 222.351 195.797 222.483 195.872C229.273 195.376 236.012 194.26 242.63 192.536C242.73 192.498 242.838 192.498 242.937 192.536C243.918 195.262 244.923 197.977 245.954 200.681C238.662 204.336 230.933 206.854 222.994 208.16C212.556 209.863 201.945 209.9 191.496 208.272C184.499 207.135 177.65 205.1 171.093 202.211C170.03 201.697 168.972 201.168 167.923 200.626C168.891 197.979 169.853 195.329 170.812 192.675C170.835 192.549 170.903 192.474 171.017 192.452C177.656 194.124 184.398 195.267 191.189 195.872C191.347 195.824 191.489 195.728 191.597 195.595C191.706 195.461 191.777 195.297 191.803 195.121Z" fill="#CCC4CF"/>
<path fill-rule="evenodd" clip-rule="evenodd" d="M191.802 195.125V195.069C194.163 195.37 196.515 195.685 198.859 196.015C196.496 195.802 194.145 195.507 191.802 195.125Z" fill="#ABA1B0"/>
<path fill-rule="evenodd" clip-rule="evenodd" d="M221.97 194.844V195.122C216.945 195.884 211.897 196.459 206.835 196.847C204.16 196.658 201.501 196.38 198.858 196.012C201.515 196.29 204.173 196.55 206.835 196.791C211.878 196.347 216.905 195.772 221.919 195.067C221.911 195.028 221.912 194.988 221.92 194.949C221.929 194.91 221.946 194.875 221.97 194.844Z" fill="#ABA2B0"/>
<path fill-rule="evenodd" clip-rule="evenodd" d="M167.923 200.627C168.972 201.171 170.03 201.699 171.094 202.212C177.651 205.102 184.499 207.137 191.496 208.273C201.945 209.902 212.556 209.865 222.994 208.163C230.933 206.855 238.662 204.337 245.954 200.683C248.345 206.755 250.638 212.873 252.831 219.033C254.842 224.759 256.599 230.586 258.098 236.494C260.026 244.087 261.226 251.877 261.678 259.738C261.751 260.092 261.947 260.324 262.266 260.433C262.96 260.503 263.335 260.16 263.391 259.405C263.736 259.546 264.077 259.703 264.413 259.877C268.289 261.93 272.126 264.071 275.919 266.3C275.475 267.042 275.057 267.803 274.666 268.579C272.189 274.241 271.302 280.191 272.007 286.429C272.037 286.562 272.098 286.685 272.182 286.787C272.267 286.889 272.373 286.967 272.492 287.014C273.061 287.179 273.445 286.965 273.643 286.374C273.539 282.119 274.217 277.884 275.637 273.918C276.614 271.254 278.065 268.826 279.907 266.773C281.708 265.428 283.811 264.639 285.992 264.492C290.408 264.212 294.081 265.852 297.011 269.414C298.165 270.997 299.096 272.759 299.772 274.641C301.137 278.789 301.695 283.202 301.409 287.597C301.113 292.593 299.758 297.208 297.344 301.444L295.657 302.75C291.973 305.401 287.969 306.217 283.639 305.197C280.896 304.399 278.604 302.833 276.762 300.498C275.133 298.272 273.917 295.722 273.182 292.991C272.981 292.182 272.802 291.366 272.646 290.545C270.038 292.686 267.066 294.244 263.901 295.131C262.291 295.541 260.606 295.445 259.044 294.854C257.111 293.881 255.909 292.259 255.439 289.988C255.178 288.03 255.213 286.039 255.542 284.093C255.901 282.233 256.344 280.398 256.871 278.589C257.668 276.084 258.418 273.563 259.121 271.026C259.303 270.24 259.37 269.443 259.325 268.635C259.258 268.539 259.166 268.469 259.06 268.434C258.955 268.399 258.842 268.401 258.738 268.44C258.221 268.669 257.725 268.948 257.255 269.275C252.546 273.106 247.512 276.439 242.221 279.228C241.561 279.569 240.879 279.847 240.176 280.063C239.366 280.201 238.881 279.839 238.718 278.979C238.643 278.046 238.712 277.105 238.923 276.197C239.522 273.779 240.257 271.402 241.122 269.08C242.881 264.345 244.619 259.599 246.338 254.845C247.892 250.458 249.173 245.962 250.173 241.387C250.552 239.517 250.791 237.627 250.888 235.715C250.923 234.789 250.923 233.863 250.888 232.935C250.809 232.038 250.681 231.146 250.505 230.266C250.627 228.934 250.704 227.6 250.735 226.262C250.492 225.811 250.16 225.708 249.737 225.957C249.643 226.041 249.565 226.145 249.508 226.262C248.025 234.295 246.043 242.209 243.576 249.951C242.145 254.382 240.419 258.694 238.411 262.852C236.881 265.994 235.01 268.925 232.838 271.582C231.318 273.381 229.506 274.861 227.494 275.947C225.93 276.752 224.211 277.134 222.483 277.06C222.449 277.041 222.415 277.022 222.381 277.003C223.091 276.243 223.757 275.435 224.375 274.585C226.728 274.068 228.936 272.954 230.818 271.332C232.334 269.834 233.682 268.144 234.832 266.3C236.544 263.467 238.049 260.492 239.332 257.402C242.114 250.502 244.355 243.359 246.031 236.049C243.885 242.747 241.34 249.285 238.411 255.623C236.868 258.873 235.108 261.995 233.144 264.965C231.869 266.852 230.383 268.561 228.722 270.053C227.948 270.626 227.138 271.137 226.293 271.582C226.273 271.569 226.264 271.552 226.267 271.527C226.603 270.913 226.902 270.282 227.162 269.637C226.446 270.536 225.65 271.355 224.785 272.083C222.277 272.666 220.01 272.12 217.983 270.443C217.496 269.968 217.059 269.437 216.68 268.858C216.629 268.775 216.602 268.678 216.603 268.579C217.138 266.889 217.823 265.26 218.649 263.714C217.036 265.264 215.571 266.988 214.276 268.858C213.994 266.192 214.063 263.495 214.481 260.851C215.087 257.175 215.872 253.536 216.833 249.951C218.667 243.517 220.559 237.104 222.509 230.711C223.187 228.293 223.835 225.865 224.452 223.427C224.742 222.154 225.007 220.874 225.244 219.59C225.237 219.444 225.19 219.305 225.107 219.191C225.025 219.076 224.913 218.992 224.785 218.95C224.664 218.912 224.536 218.91 224.415 218.945C224.293 218.979 224.183 219.048 224.094 219.145C221.186 226.21 218.475 233.368 215.963 240.61C213.957 246.469 212.317 252.47 211.055 258.57C210.513 261.348 210.256 264.183 210.288 267.023C210.31 269.707 210.896 272.351 212.001 274.752C211.759 276.865 211.34 278.95 210.748 280.98C210.48 281.842 210.082 282.65 209.571 283.371C208.592 284.46 207.407 284.859 206.018 284.567C204.94 284.282 204.146 283.605 203.64 282.537C203.151 281.474 202.774 280.355 202.515 279.2C202.231 277.781 201.983 276.353 201.774 274.919C202.907 272.603 203.529 270.033 203.589 267.411C203.665 264.489 203.427 261.598 202.873 258.738C201.896 253.92 200.667 249.166 199.192 244.501C197.923 240.453 196.542 236.448 195.05 232.491C193.354 228.041 191.615 223.611 189.834 219.201C189.426 218.805 189.052 218.841 188.709 219.311C188.668 219.418 188.642 219.53 188.633 219.645C189.331 223.054 190.159 226.431 191.112 229.766C192.541 234.61 193.99 239.448 195.459 244.28C196.664 248.249 197.705 252.275 198.578 256.346C199.158 258.885 199.551 261.469 199.754 264.075C199.789 265.261 199.789 266.448 199.754 267.634C199.711 268.043 199.66 268.451 199.601 268.858C198.306 267.022 196.878 265.302 195.331 263.714C195.297 263.677 195.263 263.677 195.228 263.714C196.06 265.284 196.761 266.931 197.325 268.635C195.936 270.865 193.993 272.078 191.496 272.278C190.69 272.344 189.88 272.278 189.092 272.083C188.557 271.622 188.046 271.13 187.559 270.609C187.283 270.279 187.002 269.955 186.715 269.637C186.984 270.256 187.282 270.868 187.61 271.471C187.613 271.491 187.613 271.511 187.608 271.53C187.604 271.549 187.595 271.567 187.584 271.582C186.379 271.008 185.266 270.229 184.286 269.275C182.406 267.305 180.734 265.114 179.301 262.741C176.795 258.461 174.59 253.981 172.704 249.339C170.905 244.952 169.284 240.48 167.846 235.938C169.476 243.109 171.648 250.12 174.341 256.901C175.558 259.81 176.942 262.633 178.483 265.354C179.825 267.684 181.47 269.792 183.366 271.611C185.185 273.081 187.28 274.097 189.502 274.585C190.126 275.431 190.791 276.247 191.496 277.032C189.227 277.188 186.97 276.556 185.053 275.225C182.936 273.682 181.062 271.775 179.505 269.58C177.077 266.01 175.003 262.17 173.318 258.126C170.865 252.014 168.831 245.713 167.233 239.274C166.174 234.965 165.219 230.626 164.37 226.262C164.134 225.8 163.802 225.699 163.373 225.957C163.278 226.042 163.2 226.146 163.142 226.262C163.151 227.451 163.211 228.639 163.322 229.821C163.16 230.708 163.015 231.598 162.886 232.491C162.746 234.476 162.815 236.472 163.091 238.44C163.413 240.636 163.839 242.804 164.37 244.947C165.388 248.678 166.531 252.368 167.795 256.013C169.647 261.023 171.487 266.046 173.318 271.081C173.884 272.724 174.379 274.394 174.8 276.087C175.008 276.963 175.094 277.853 175.056 278.756C174.959 279.787 174.438 280.223 173.497 280.063C173.131 279.958 172.772 279.828 172.423 279.673C168.109 277.515 163.97 274.966 160.049 272.055C158.737 271.008 157.407 269.989 156.06 268.997C155.708 268.761 155.33 268.574 154.935 268.44C154.851 268.405 154.759 268.4 154.671 268.425C154.584 268.45 154.507 268.504 154.449 268.579C154.397 268.826 154.371 269.077 154.372 269.33C154.425 269.802 154.485 270.274 154.551 270.748C154.844 271.944 155.168 273.131 155.523 274.307C156.375 276.828 157.126 279.388 157.773 281.98C158.154 283.548 158.393 285.142 158.489 286.763C158.713 288.921 158.287 290.904 157.211 292.713C156.05 294.312 154.525 295.193 152.634 295.354C150.997 295.416 149.365 295.132 147.828 294.52C145.421 293.537 143.15 292.2 141.078 290.545C140.428 294.441 138.953 297.907 136.655 300.943C133.537 304.428 129.727 305.976 125.226 305.586C122.932 305.287 120.721 304.473 118.732 303.195C118.01 302.676 117.294 302.148 116.584 301.61C116.273 301.1 115.974 300.581 115.69 300.053C113.69 295.986 112.554 291.482 112.366 286.875C112.158 282.455 112.82 278.037 114.309 273.918C117.073 267.08 121.887 263.976 128.754 264.603C130.633 264.874 132.423 265.638 133.97 266.828C135.147 268.16 136.169 269.645 137.012 271.249C139.262 276.008 140.319 281.068 140.183 286.429C140.214 286.571 140.28 286.701 140.375 286.805C140.47 286.908 140.589 286.98 140.72 287.014C141.263 287.14 141.629 286.927 141.82 286.374C142.177 283.08 142.093 279.799 141.564 276.531C140.969 272.894 139.727 269.419 137.907 266.3C142.006 263.84 146.185 261.54 150.435 259.405C150.436 259.915 150.657 260.259 151.101 260.433C151.64 260.496 151.989 260.246 152.149 259.683C152.67 252.714 153.679 245.799 155.166 238.996C156.775 232.153 158.738 225.414 161.046 218.811C163.252 212.711 165.545 206.65 167.923 200.627Z" fill="#FEFEFE"/>
<path fill-rule="evenodd" clip-rule="evenodd" d="M201.773 274.917C199.6 278.716 196.447 280.818 192.313 281.23C188.294 281.518 184.714 280.314 181.575 277.615C180.055 276.295 178.659 274.814 177.408 273.194C174.831 269.662 172.666 265.795 170.964 261.684C167.681 253.647 165.378 245.179 164.113 236.493C163.798 234.276 163.534 232.051 163.319 229.82C163.209 228.638 163.15 227.45 163.141 226.261C163.199 226.144 163.277 226.041 163.371 225.956C163.801 225.698 164.133 225.799 164.368 226.261C165.218 230.625 166.173 234.964 167.232 239.273C168.83 245.712 170.864 252.013 173.317 258.125C175.002 262.17 177.076 266.009 179.504 269.58C181.061 271.775 182.935 273.681 185.052 275.224C186.969 276.554 189.226 277.187 191.495 277.031C190.794 276.251 190.129 275.434 189.501 274.584C188.829 273.576 188.198 272.538 187.609 271.47C187.284 270.874 186.985 270.262 186.714 269.635C187.001 269.955 187.283 270.279 187.558 270.609C188.047 271.132 188.558 271.623 189.091 272.082C190.13 273.119 191.281 274.015 192.518 274.751C193.338 275.28 194.208 275.707 195.125 276.03C196.549 275.332 197.718 274.139 198.449 272.638C198.268 271.755 198.046 270.883 197.784 270.024C197.644 269.553 197.49 269.088 197.324 268.635C196.759 266.931 196.058 265.284 195.227 263.713C195.262 263.676 195.296 263.676 195.33 263.713C196.877 265.301 198.305 267.021 199.6 268.856C199.659 268.45 199.71 268.042 199.753 267.633C199.788 266.447 199.788 265.26 199.753 264.074C199.55 261.468 199.157 258.884 198.577 256.345C197.704 252.274 196.663 248.248 195.458 244.278C193.989 239.446 192.54 234.609 191.111 229.765C190.158 226.43 189.331 223.057 188.632 219.644C188.641 219.529 188.667 219.417 188.708 219.31C189.05 218.841 189.425 218.804 189.833 219.2C191.614 223.61 193.352 228.04 195.049 232.49C196.54 236.447 197.921 240.453 199.19 244.501C200.666 249.166 201.895 253.919 202.872 258.736C203.426 261.597 203.664 264.488 203.588 267.41C203.527 270.032 202.906 272.602 201.773 274.917ZM216.604 268.579C216.409 269.022 216.256 269.487 216.143 269.97C215.869 270.857 215.63 271.757 215.427 272.666C216.168 274.152 217.335 275.333 218.751 276.031C219.672 275.696 220.562 275.268 221.41 274.752C222.63 274.015 223.764 273.119 224.785 272.083C225.65 271.355 226.446 270.536 227.162 269.637C226.902 270.284 226.603 270.913 226.267 271.527C225.675 272.574 225.044 273.594 224.375 274.585C223.757 275.436 223.091 276.244 222.381 277.005L222.484 277.06C224.212 277.134 225.932 276.752 227.495 275.947C229.507 274.862 231.319 273.382 232.838 271.582C235.01 268.925 236.881 265.995 238.411 262.853C240.419 258.695 242.146 254.383 243.576 249.952C246.043 242.21 248.025 234.296 249.507 226.262C249.565 226.145 249.643 226.041 249.738 225.957C250.16 225.71 250.493 225.811 250.735 226.262C250.705 227.6 250.628 228.936 250.506 230.267C249.846 237.196 248.605 244.046 246.798 250.73C245.29 256.213 243.214 261.492 240.61 266.466C238.964 269.57 237.047 272.494 234.884 275.197C231.937 278.618 228.315 280.63 224.017 281.231C220.771 281.552 217.821 280.699 215.171 278.672C213.897 277.594 212.821 276.264 212.001 274.752C210.896 272.351 210.31 269.707 210.288 267.023C210.256 264.183 210.513 261.348 211.055 258.57C212.317 252.47 213.957 246.469 215.964 240.61C218.475 233.368 221.187 226.21 224.094 219.145C224.183 219.048 224.293 218.979 224.415 218.945C224.536 218.911 224.664 218.913 224.785 218.951C224.913 218.993 225.025 219.077 225.108 219.191C225.19 219.305 225.238 219.445 225.245 219.59C225.007 220.875 224.743 222.154 224.452 223.427C223.836 225.865 223.188 228.293 222.509 230.711C220.559 237.104 218.667 243.518 216.833 249.952C215.872 253.537 215.087 257.175 214.481 260.851C214.063 263.495 213.994 266.192 214.277 268.858C215.572 266.988 217.036 265.265 218.649 263.714C217.823 265.26 217.138 266.889 216.604 268.579Z" fill="#010072"/>
<path fill-rule="evenodd" clip-rule="evenodd" d="M163.321 229.822C163.534 232.045 163.797 234.269 164.113 236.494C165.379 245.179 167.682 253.648 170.965 261.684C172.667 265.796 174.831 269.662 177.408 273.194C178.659 274.815 180.055 276.296 181.576 277.615C184.715 280.314 188.295 281.52 192.313 281.23C196.448 280.82 199.6 278.716 201.773 274.919C201.983 276.353 202.23 277.781 202.514 279.2C202.774 280.359 203.149 281.471 203.639 282.537C204.146 283.606 204.939 284.282 206.018 284.566C207.407 284.859 208.592 284.46 209.571 283.371C210.082 282.65 210.479 281.842 210.747 280.98C211.339 278.95 211.758 276.865 212 274.751C212.82 276.264 213.896 277.594 215.17 278.672C217.821 280.698 220.77 281.551 224.016 281.23C228.314 280.629 231.936 278.618 234.883 275.197C237.046 272.494 238.963 269.57 240.609 266.466C243.212 261.492 245.288 256.213 246.797 250.73C248.604 244.046 249.845 237.196 250.505 230.266C250.68 231.146 250.808 232.036 250.887 232.935C250.922 233.863 250.922 234.789 250.887 235.715C250.79 237.624 250.551 239.521 250.172 241.387C249.173 245.962 247.891 250.458 246.337 254.845C244.618 259.599 242.88 264.344 241.121 269.08C240.256 271.402 239.521 273.779 238.922 276.197C238.711 277.105 238.642 278.045 238.718 278.977C238.879 279.839 239.366 280.201 240.175 280.063C240.879 279.846 241.561 279.569 242.221 279.229C247.512 276.439 252.546 273.106 257.254 269.275C257.724 268.949 258.22 268.669 258.736 268.44C258.841 268.401 258.954 268.399 259.06 268.434C259.165 268.469 259.258 268.539 259.325 268.635C259.371 269.439 259.302 270.245 259.12 271.026C258.418 273.563 257.668 276.085 256.87 278.589C256.343 280.398 255.9 282.236 255.541 284.093C255.212 286.039 255.178 288.03 255.439 289.988C255.908 292.259 257.11 293.881 259.043 294.853C260.606 295.445 262.29 295.541 263.901 295.131C267.066 294.244 270.037 292.686 272.645 290.545C272.801 291.366 272.98 292.18 273.182 292.991C273.917 295.722 275.133 298.272 276.762 300.498C278.603 302.832 280.895 304.399 283.639 305.197C287.968 306.217 291.973 305.401 295.655 302.751L297.343 301.444C296.836 302.264 296.299 303.062 295.732 303.835C292.687 307.691 288.827 309.869 284.151 310.368C281.981 310.496 279.805 310.384 277.656 310.035C273.719 309.426 269.811 308.61 265.946 307.588C256.202 304.962 246.533 302.013 236.954 298.746C237.661 298.384 237.823 297.836 237.439 297.105C237.343 296.975 237.207 296.887 237.056 296.856C235.499 296.836 233.943 296.948 232.402 297.189C229.401 297.677 226.4 298.178 223.403 298.691C219.599 299.24 215.781 299.629 211.949 299.858C205.255 300.258 198.542 299.941 191.905 298.913C187.96 298.228 184.005 297.617 180.041 297.078C178.905 296.923 177.761 296.848 176.616 296.856C176.501 296.932 176.39 297.016 176.283 297.105C175.924 297.821 176.077 298.358 176.743 298.719C176.766 298.787 176.741 298.834 176.667 298.858C170.715 300.8 164.749 302.69 158.77 304.529C153.225 306.21 147.631 307.693 141.997 308.978C138.706 309.695 135.375 310.178 132.026 310.424C129.751 310.552 127.475 310.193 125.328 309.367C121.64 307.812 118.725 305.227 116.584 301.61C117.291 302.146 118.007 302.674 118.731 303.195C120.72 304.473 122.932 305.287 125.226 305.586C129.726 305.976 133.537 304.428 136.654 300.943C138.953 297.907 140.427 294.44 141.077 290.545C143.149 292.2 145.42 293.537 147.827 294.52C149.364 295.132 150.996 295.416 152.633 295.354C154.524 295.193 156.05 294.312 157.209 292.713C158.286 290.904 158.712 288.921 158.488 286.763C158.393 285.147 158.153 283.545 157.772 281.98C157.125 279.388 156.375 276.828 155.522 274.307C155.167 273.131 154.844 271.944 154.551 270.748C154.485 270.276 154.426 269.804 154.372 269.33C154.371 269.078 154.396 268.826 154.448 268.579C154.506 268.504 154.584 268.45 154.671 268.425C154.758 268.4 154.85 268.406 154.935 268.44C155.33 268.575 155.705 268.76 156.06 268.997C157.407 269.989 158.736 271.008 160.048 272.055C163.969 274.966 168.109 277.515 172.423 279.673C172.772 279.828 173.129 279.958 173.497 280.063C174.437 280.222 174.958 279.786 175.056 278.756C175.094 277.857 175.008 276.957 174.8 276.087C174.378 274.394 173.883 272.724 173.317 271.081C171.49 266.052 169.649 261.029 167.795 256.012C166.531 252.369 165.388 248.679 164.369 244.947C163.837 242.804 163.411 240.632 163.091 238.44C162.814 236.472 162.745 234.476 162.886 232.491C163.015 231.595 163.159 230.705 163.321 229.822Z" fill="#CCC4CF"/>
<path fill-rule="evenodd" clip-rule="evenodd" d="M187.61 271.469C188.199 272.536 188.83 273.575 189.502 274.583C187.28 274.095 185.185 273.079 183.366 271.608C181.47 269.789 179.825 267.683 178.483 265.353C176.942 262.632 175.559 259.809 174.341 256.9C171.648 250.119 169.476 243.107 167.846 235.936C169.284 240.478 170.905 244.95 172.704 249.338C174.59 253.979 176.795 258.459 179.301 262.739C180.734 265.111 182.406 267.303 184.286 269.272C185.266 270.227 186.379 271.006 187.584 271.58C187.595 271.565 187.604 271.547 187.608 271.528C187.613 271.509 187.613 271.489 187.61 271.469ZM224.375 274.583C225.043 273.592 225.674 272.571 226.266 271.525C226.263 271.549 226.271 271.568 226.292 271.581C227.137 271.134 227.947 270.625 228.721 270.051C230.382 268.56 231.868 266.851 233.144 264.964C235.107 261.993 236.867 258.871 238.411 255.622C241.338 249.283 243.883 242.745 246.03 236.048C244.354 243.358 242.113 250.501 239.331 257.401C238.048 260.49 236.544 263.465 234.832 266.298C233.682 268.142 232.334 269.831 230.818 271.33C228.936 272.952 226.728 274.067 224.375 274.583Z" fill="#CDC5D0"/>
<path fill-rule="evenodd" clip-rule="evenodd" d="M216.604 268.579C216.602 268.678 216.629 268.775 216.68 268.856C217.058 269.435 217.492 269.963 217.984 270.441C220.011 272.118 222.278 272.666 224.785 272.082C223.764 273.118 222.631 274.014 221.41 274.751C219.535 274.45 218.06 273.449 216.987 271.748C216.663 271.174 216.381 270.582 216.143 269.969C216.256 269.486 216.409 269.021 216.604 268.579ZM197.325 268.634C197.491 269.088 197.645 269.553 197.785 270.024C197.515 270.502 197.268 271.002 197.044 271.526C195.972 273.318 194.463 274.394 192.518 274.751C191.282 274.015 190.131 273.118 189.092 272.082C189.884 272.278 190.684 272.342 191.496 272.276C193.993 272.077 195.936 270.863 197.325 268.634Z" fill="#CCC5D0"/>
<path fill-rule="evenodd" clip-rule="evenodd" d="M216.142 269.969C216.382 270.582 216.662 271.175 216.986 271.748C218.06 273.449 219.534 274.45 221.409 274.751C220.562 275.267 219.672 275.695 218.751 276.03C217.335 275.333 216.168 274.152 215.427 272.667C215.629 271.756 215.868 270.856 216.142 269.969ZM197.785 270.027C198.046 270.885 198.267 271.756 198.449 272.641C197.719 274.141 196.549 275.335 195.125 276.032C194.215 275.713 193.341 275.284 192.518 274.754C194.462 274.397 195.971 273.321 197.044 271.528C197.268 271.005 197.515 270.504 197.785 270.027Z" fill="#FCFCFD"/>
<path fill-rule="evenodd" clip-rule="evenodd" d="M124.406 274.029C126.441 274.008 127.66 275.082 128.062 277.253C128.24 278.99 127.685 280.372 126.4 281.397C124.436 282.267 122.962 281.682 121.978 279.645C121.453 278.092 121.623 276.646 122.488 275.308C122.978 274.66 123.654 274.21 124.406 274.029ZM288.445 274.029C290.352 273.995 291.554 274.978 292.05 276.976C292.354 278.825 291.817 280.299 290.439 281.397C288.475 282.267 287.001 281.683 286.017 279.646C285.497 278.095 285.668 276.649 286.528 275.309C287.018 274.661 287.693 274.21 288.445 274.029Z" fill="#FE8081"/>
<path fill-rule="evenodd" clip-rule="evenodd" d="M109.477 292.101C109.352 292.177 109.211 292.215 109.067 292.212C103.922 291.92 98.7991 291.28 93.7275 290.294C90.6584 289.649 87.5904 289.009 84.5235 288.376C84.4899 288.376 84.4725 288.357 84.4725 288.32C84.0878 285.242 82.9716 282.535 81.1238 280.201C79.3422 278.255 77.2029 277.051 74.7061 276.587C78.622 275.85 82.5982 275.561 86.5695 275.725C88.8204 275.801 91.0702 275.912 93.3189 276.058C98.7884 276.461 104.259 276.823 109.733 277.143C108.738 282.061 108.651 287.146 109.477 292.101Z" fill="#FEFEFE"/>
<path fill-rule="evenodd" clip-rule="evenodd" d="M74.7039 276.585C77.2008 277.048 79.34 278.254 81.1206 280.2C82.9694 282.534 84.0856 285.241 84.4704 288.318C83.1916 288.102 81.9139 287.888 80.6351 287.68C79.2784 287.495 77.9109 287.42 76.5441 287.457C75.3003 287.495 74.0861 287.878 73.0166 288.569C72.8041 288.754 72.5995 288.948 72.4032 289.153C71.6045 288.813 71.119 289.11 70.9456 290.043C70.7689 291.503 71.1872 292.717 72.1984 293.685C73.2408 294.576 74.4426 295.219 75.7269 295.576C77.5812 296.06 79.4571 296.43 81.3514 296.687C84.841 297.136 88.3349 297.545 91.8342 297.912C94.3951 298.218 96.9353 298.662 99.4528 299.246C102.151 299.94 104.658 301.108 106.969 302.749C109.783 304.864 111.615 307.727 112.466 311.34C112.734 312.681 112.811 314.034 112.697 315.4C112.455 315.803 112.162 316.168 111.827 316.484C111.265 316.844 110.72 317.233 110.191 317.652C108.564 318.647 106.851 319.466 105.077 320.098C102.503 320.943 99.8695 321.557 97.203 321.933C94.2873 322.368 91.3501 322.609 88.4075 322.656C83.0102 322.881 77.605 322.612 72.2493 321.85C70.2565 321.459 68.278 320.986 66.3181 320.432C63.7483 319.61 61.2635 318.501 58.9033 317.124C57.8532 316.458 56.8296 315.743 55.8353 314.982C55.7881 314.955 55.7342 314.946 55.6814 314.954C55.6875 314.924 55.686 314.893 55.677 314.863C55.668 314.834 55.652 314.808 55.6305 314.788C55.3135 314.513 55.0062 314.225 54.7093 313.925C54.3147 313.735 53.9779 313.427 53.7383 313.037C53.5345 312.85 53.33 312.665 53.1249 312.48C52.3559 311.609 51.6142 310.709 50.9011 309.783C50.1645 308.593 49.4484 307.387 48.7532 306.168C48.6412 305.747 48.4594 305.351 48.2168 305C48.4335 296.412 51.6196 289.471 57.7784 284.176C61.3179 281.28 65.3243 279.13 69.5909 277.837C71.2738 277.322 72.9805 276.904 74.7039 276.585Z" fill="#FE6F04"/>
<path fill-rule="evenodd" clip-rule="evenodd" d="M132.587 276.867C134.57 277.002 135.643 278.151 135.809 280.314C135.793 281.915 135.129 283.055 133.814 283.734C132.159 284.183 130.975 283.562 130.261 281.871C129.808 280.467 129.978 279.171 130.772 277.978C131.24 277.39 131.882 276.997 132.587 276.867ZM280.518 276.867C282.254 276.89 283.337 277.818 283.766 279.647C283.988 281.234 283.52 282.504 282.359 283.456C280.732 284.314 279.427 283.915 278.447 282.261C277.783 280.781 277.886 279.372 278.755 278.035C279.223 277.423 279.811 277.033 280.518 276.867ZM117.196 278.312C119.052 278.26 120.168 279.224 120.546 281.204C120.7 282.61 120.299 283.787 119.344 284.734C117.761 285.765 116.423 285.477 115.33 283.872C114.592 282.422 114.626 280.995 115.432 279.59C115.875 278.965 116.495 278.515 117.196 278.312ZM295.656 278.313C297.229 278.234 298.293 278.994 298.852 280.593C299.187 281.852 299.017 283.02 298.341 284.096C297.58 285.126 296.6 285.506 295.401 285.237C294.191 284.755 293.484 283.818 293.279 282.428C293.091 280.926 293.543 279.71 294.633 278.785C294.962 278.579 295.303 278.421 295.656 278.313ZM124.817 283.316C128.128 283.22 130.607 284.722 132.257 287.82C133.423 290.193 133.73 292.695 133.178 295.327C132.526 298.259 130.966 300.399 128.499 301.75C124.749 303.183 121.69 302.173 119.321 298.719C117.773 296.074 117.33 293.219 117.991 290.156C118.575 287.852 119.761 286.007 121.544 284.623C122.535 283.934 123.652 283.488 124.817 283.316ZM287.626 283.316C291.118 283.31 293.648 284.996 295.22 288.376C296.36 291.222 296.411 294.095 295.373 296.996C294.37 299.458 292.708 301.154 290.387 302.083C286.531 302.993 283.589 301.612 281.566 297.941C280.111 294.869 279.991 291.736 281.208 288.543C282.512 285.576 284.651 283.834 287.626 283.316Z" fill="#FE8081"/>
<path fill-rule="evenodd" clip-rule="evenodd" d="M70.2054 286.597C70.2845 286.598 70.3094 286.634 70.2823 286.707C69.3747 287.885 68.7277 289.274 68.3912 290.766C68.1203 292.292 68.4866 293.598 69.4901 294.687C70.3514 295.456 71.3173 296.075 72.3533 296.522C74.9694 297.465 77.6451 298.132 80.3815 298.524C84.7012 299.095 89.0144 299.725 93.3189 300.415C95.5655 300.818 97.747 301.467 99.8646 302.36C100.872 302.841 101.783 303.53 102.548 304.39L103.059 305.169C103.182 305.456 103.284 305.753 103.366 306.059C103.386 306.103 103.395 306.152 103.391 306.202C103.386 306.251 103.369 306.298 103.341 306.337C102.243 305.62 101.077 305.033 99.8635 304.585C96.9236 303.688 93.9091 303.111 90.8643 302.861C86.6378 302.558 82.4113 302.28 78.1826 302.027C75.9901 301.859 73.8059 301.58 71.637 301.192C70.0873 300.864 68.5777 300.342 67.1385 299.636C65.876 298.855 64.7714 297.806 63.8906 296.55C63.552 295.924 63.2942 295.25 63.1244 294.548C62.9887 293.406 63.2631 292.25 63.8906 291.322C64.8079 290.083 65.9263 289.037 67.1905 288.237C67.5557 288.028 67.9144 287.806 68.2634 287.569C68.9177 287.26 69.5659 286.936 70.2075 286.597H70.2054Z" fill="#FEB681"/>
<path fill-rule="evenodd" clip-rule="evenodd" d="M84.4703 288.32C84.4703 288.357 84.4877 288.376 84.5224 288.376C84.7965 290.441 84.8995 292.516 84.8291 294.603C82.0103 294.424 79.2154 294.044 76.4422 293.464C75.4995 293.245 74.5882 292.89 73.7329 292.407C73.4906 292.265 73.2774 292.071 73.106 291.837C72.9346 291.602 72.8087 291.333 72.7359 291.044L72.6838 289.599C72.6215 289.43 72.5252 289.278 72.4021 289.154C72.5993 288.95 72.803 288.756 73.0165 288.571C74.0864 287.879 75.301 287.496 76.5451 287.458C77.912 287.421 79.2795 287.496 80.6362 287.681C81.9149 287.889 83.1937 288.103 84.4703 288.32Z" fill="#CC5A15"/>
<path fill-rule="evenodd" clip-rule="evenodd" d="M84.5234 288.375C87.5904 289.009 90.6573 289.648 93.7274 290.294C98.7991 291.28 103.922 291.92 109.067 292.212C109.211 292.215 109.352 292.177 109.477 292.101C110.223 296.287 111.68 300.285 113.772 303.89C113.292 303.88 112.814 303.834 112.34 303.751C109.61 300.452 106.269 298.191 102.318 296.966C100.174 296.3 97.9856 295.817 95.7724 295.521C92.1333 295.109 88.4855 294.803 84.8301 294.603C84.901 292.521 84.7984 290.437 84.5234 288.375Z" fill="#CCC4CF"/>
<path fill-rule="evenodd" clip-rule="evenodd" d="M48.2167 305C48.4573 305.344 48.6361 305.733 48.7532 306.168C49.4489 307.387 50.165 308.592 50.9011 309.783C51.612 310.705 52.3533 311.603 53.126 312.479L53.7394 313.035C53.9886 313.436 54.3137 313.732 54.7104 313.925C55.0084 314.226 55.3151 314.513 55.6315 314.787C55.6531 314.807 55.6692 314.833 55.6782 314.863C55.6872 314.892 55.6886 314.924 55.6825 314.954C55.7351 314.946 55.7888 314.955 55.8364 314.981C56.829 315.741 57.8521 316.455 58.9033 317.122C61.2632 318.501 63.7481 319.609 66.3181 320.431C68.2796 320.984 70.2563 321.457 72.2493 321.85C77.6137 322.611 82.9997 322.88 88.4075 322.656C91.3501 322.609 94.2873 322.367 97.2029 321.932C99.8698 321.556 102.504 320.942 105.078 320.097C106.852 319.466 108.565 318.646 110.191 317.65C110.721 317.233 111.266 316.844 111.828 316.483C112.163 316.167 112.455 315.802 112.697 315.398C112.341 318.471 111.19 321.121 109.245 323.351C107.379 325.345 105.185 326.939 102.776 328.05C98.7078 329.842 94.4167 330.966 90.0439 331.386C82.9032 332.135 75.6997 331.723 68.6708 330.163C64.8048 329.295 61.1037 327.715 57.7274 325.491C54.9692 323.623 52.6493 321.081 50.952 318.068C49.0312 314.037 48.0896 309.538 48.2167 305Z" fill="#CC5A15"/>
<path d="M15.0182 376.713H68.3208C69.9688 376.713 71.5492 377.425 72.7145 378.693C73.8798 379.96 74.5346 381.679 74.5348 383.471V454.043C74.5346 455.835 73.8798 457.553 72.7145 458.821C71.5492 460.088 69.9688 460.8 68.3208 460.8H15.0182C9.48037 460.8 6.70822 453.516 10.6269 449.26L34.3148 423.539C34.8929 422.911 35.3514 422.166 35.6643 421.345C35.9771 420.525 36.1382 419.645 36.1382 418.757C36.1382 417.868 35.9771 416.989 35.6643 416.168C35.3514 415.347 34.8929 414.602 34.3148 413.974L10.6269 388.253C6.70822 383.997 9.47929 376.713 15.0182 376.713Z" fill="#A60B1D"/>
<path d="M16.091 373.281H69.4078C71.0547 373.281 72.6341 373.993 73.7987 375.259C74.9632 376.526 75.6175 378.243 75.6175 380.034V450.616C75.6175 452.407 74.9632 454.124 73.7987 455.391C72.6341 456.657 71.0547 457.368 69.4078 457.368H16.091C10.5565 457.368 7.78652 450.089 11.7031 445.837L35.4018 420.104C35.9795 419.477 36.4378 418.732 36.7505 417.912C37.0632 417.092 37.2241 416.213 37.2241 415.325C37.2241 414.437 37.0632 413.558 36.7505 412.738C36.4378 411.918 35.9795 411.173 35.4018 410.546L11.7031 384.813C7.78652 380.561 10.5565 373.281 16.091 373.281Z" fill="url(#paint0_linear_2_2)"/>
<path d="M378.371 376.712H325.069C323.42 376.712 321.84 377.424 320.675 378.692C319.509 379.959 318.855 381.678 318.855 383.471V454.042C318.855 455.834 319.509 457.553 320.675 458.82C321.84 460.087 323.421 460.799 325.069 460.799H378.371C383.909 460.799 386.681 453.515 382.761 449.259L359.073 423.538C358.496 422.91 358.037 422.165 357.724 421.344C357.412 420.523 357.251 419.644 357.251 418.756C357.251 417.867 357.412 416.988 357.724 416.167C358.037 415.346 358.496 414.601 359.073 413.973L382.761 388.252C386.681 383.996 383.909 376.712 378.371 376.712Z" fill="#A60B1D"/>
<path d="M378.131 374.035H324.673C323.026 374.035 321.447 374.747 320.282 376.013C319.118 377.28 318.463 378.997 318.463 380.788V451.079C318.463 452.87 319.118 454.587 320.282 455.854C321.447 457.12 323.026 457.832 324.673 457.832H378.131C383.675 457.832 386.44 450.532 382.505 446.285L358.82 420.727C358.238 420.099 357.776 419.353 357.461 418.53C357.146 417.707 356.984 416.825 356.984 415.934C356.984 415.042 357.146 414.16 357.461 413.337C357.776 412.514 358.238 411.768 358.82 411.14L382.505 385.581C386.44 381.335 383.674 374.035 378.131 374.035Z" fill="url(#paint1_linear_2_2)"/>
<path d="M75.6164 451.36V429.91H56.9829V430.768L75.6164 451.36ZM318.856 451.362V429.911L337.489 427.337C337.489 427.337 338.266 424.762 338.266 427.336L318.856 451.362Z" fill="#C30F25"/>
<path d="M326.901 347.572H69.4154C59.1196 347.572 50.7733 356.648 50.7733 367.845V416.012C50.7733 427.208 59.1196 436.285 69.4154 436.285H326.901C337.197 436.285 345.543 427.208 345.543 416.012V367.845C345.543 356.648 337.197 347.572 326.901 347.572Z" fill="#D71028"/>
<path d="M327.039 345.306H69.553C59.2572 345.306 50.9109 354.382 50.9109 365.578V413.746C50.9109 424.942 59.2572 434.019 69.553 434.019H327.039C337.335 434.019 345.681 424.942 345.681 413.746V365.578C345.681 354.382 337.335 345.306 327.039 345.306Z" fill="url(#paint2_linear_2_2)"/>
<mask id="path-59-outside-1_2_2" maskUnits="userSpaceOnUse" x="97" y="381" width="201" height="29" fill="black">
<rect fill="white" x="97" y="381" width="201" height="29"/>
<path d="M113.705 408H105.605V387.975H98.36V382.35H120.95V387.975H113.705V408ZM146.896 408H138.391L136.861 401.52C136.801 401.28 136.696 400.875 136.546 400.305C136.426 399.705 136.276 399.27 136.096 399C135.916 398.7 135.661 398.505 135.331 398.415C134.491 398.445 133.261 398.46 131.641 398.46V408H123.541V382.575C127.171 382.305 130.561 382.17 133.711 382.17C136.561 382.17 138.871 382.41 140.641 382.89C142.411 383.34 143.731 384.135 144.601 385.275C145.501 386.385 145.951 387.915 145.951 389.865C145.951 391.695 145.531 393.135 144.691 394.185C143.851 395.205 142.501 395.82 140.641 396.03V396.3C141.691 396.39 142.561 396.735 143.251 397.335C143.971 397.905 144.451 398.64 144.691 399.54L146.896 408ZM131.641 393.375C131.911 393.405 132.436 393.42 133.216 393.42C135.526 393.42 136.876 393.225 137.266 392.835C137.626 392.475 137.806 391.635 137.806 390.315C137.806 389.085 137.476 388.245 136.816 387.795C136.186 387.345 135.136 387.12 133.666 387.12C133.336 387.12 132.661 387.15 131.641 387.21V393.375ZM163.116 399.81V408H155.016V399.9L146.376 382.35H154.611L158.031 390.675C158.391 391.515 158.721 392.4 159.021 393.33H159.111C159.441 392.31 159.771 391.395 160.101 390.585L163.476 382.35H171.666L163.116 399.81ZM195.212 402.375H187.742L186.392 408H178.112L186.392 382.35H196.967L204.887 408H196.562L195.212 402.375ZM191.432 387.885L188.777 397.38H194.132L191.612 387.885H191.432ZM228.876 393.78V406.605C226.866 407.265 224.961 407.745 223.161 408.045C221.361 408.345 219.846 408.495 218.616 408.495C214.536 408.495 211.341 407.43 209.031 405.3C206.721 403.17 205.566 399.9 205.566 395.49C205.566 390.99 206.781 387.63 209.211 385.41C211.641 383.16 215.061 382.035 219.471 382.035C221.781 382.035 224.556 382.38 227.796 383.07C227.796 383.67 227.736 384.57 227.616 385.77C227.496 386.94 227.376 387.765 227.256 388.245L225.636 388.2C223.656 388.14 222.111 388.11 221.001 388.11C217.671 388.11 215.856 388.305 215.556 388.695C215.076 389.265 214.731 390.15 214.521 391.35C214.341 392.55 214.251 393.705 214.251 394.815C214.251 396.825 214.476 398.385 214.926 399.495C215.376 400.605 216.066 401.385 216.996 401.835C217.926 402.285 219.186 402.51 220.776 402.51H220.956V393.78H228.876ZM247.551 402.375H240.081L238.731 408H230.451L238.731 382.35H249.306L257.226 408H248.901L247.551 402.375ZM243.771 387.885L241.116 397.38H246.471L243.951 387.885H243.771ZM259.509 382.35H267.609V408H259.509V382.35ZM279.679 397.65V408H272.164V382.35H279.769L286.564 392.7C287.584 394.23 288.364 395.52 288.904 396.57H289.039V392.25V382.35H296.509V408H288.859L281.884 397.2L279.859 394.14H279.724L279.679 397.65Z"/>
</mask>
<path d="M113.705 408H105.605V387.975H98.36V382.35H120.95V387.975H113.705V408ZM146.896 408H138.391L136.861 401.52C136.801 401.28 136.696 400.875 136.546 400.305C136.426 399.705 136.276 399.27 136.096 399C135.916 398.7 135.661 398.505 135.331 398.415C134.491 398.445 133.261 398.46 131.641 398.46V408H123.541V382.575C127.171 382.305 130.561 382.17 133.711 382.17C136.561 382.17 138.871 382.41 140.641 382.89C142.411 383.34 143.731 384.135 144.601 385.275C145.501 386.385 145.951 387.915 145.951 389.865C145.951 391.695 145.531 393.135 144.691 394.185C143.851 395.205 142.501 395.82 140.641 396.03V396.3C141.691 396.39 142.561 396.735 143.251 397.335C143.971 397.905 144.451 398.64 144.691 399.54L146.896 408ZM131.641 393.375C131.911 393.405 132.436 393.42 133.216 393.42C135.526 393.42 136.876 393.225 137.266 392.835C137.626 392.475 137.806 391.635 137.806 390.315C137.806 389.085 137.476 388.245 136.816 387.795C136.186 387.345 135.136 387.12 133.666 387.12C133.336 387.12 132.661 387.15 131.641 387.21V393.375ZM163.116 399.81V408H155.016V399.9L146.376 382.35H154.611L158.031 390.675C158.391 391.515 158.721 392.4 159.021 393.33H159.111C159.441 392.31 159.771 391.395 160.101 390.585L163.476 382.35H171.666L163.116 399.81ZM195.212 402.375H187.742L186.392 408H178.112L186.392 382.35H196.967L204.887 408H196.562L195.212 402.375ZM191.432 387.885L188.777 397.38H194.132L191.612 387.885H191.432ZM228.876 393.78V406.605C226.866 407.265 224.961 407.745 223.161 408.045C221.361 408.345 219.846 408.495 218.616 408.495C214.536 408.495 211.341 407.43 209.031 405.3C206.721 403.17 205.566 399.9 205.566 395.49C205.566 390.99 206.781 387.63 209.211 385.41C211.641 383.16 215.061 382.035 219.471 382.035C221.781 382.035 224.556 382.38 227.796 383.07C227.796 383.67 227.736 384.57 227.616 385.77C227.496 386.94 227.376 387.765 227.256 388.245L225.636 388.2C223.656 388.14 222.111 388.11 221.001 388.11C217.671 388.11 215.856 388.305 215.556 388.695C215.076 389.265 214.731 390.15 214.521 391.35C214.341 392.55 214.251 393.705 214.251 394.815C214.251 396.825 214.476 398.385 214.926 399.495C215.376 400.605 216.066 401.385 216.996 401.835C217.926 402.285 219.186 402.51 220.776 402.51H220.956V393.78H228.876ZM247.551 402.375H240.081L238.731 408H230.451L238.731 382.35H249.306L257.226 408H248.901L247.551 402.375ZM243.771 387.885L241.116 397.38H246.471L243.951 387.885H243.771ZM259.509 382.35H267.609V408H259.509V382.35ZM279.679 397.65V408H272.164V382.35H279.769L286.564 392.7C287.584 394.23 288.364 395.52 288.904 396.57H289.039V392.25V382.35H296.509V408H288.859L281.884 397.2L279.859 394.14H279.724L279.679 397.65Z" fill="white"/>
<path d="M113.705 408V409H114.705V408H113.705ZM105.605 408H104.605V409H105.605V408ZM105.605 387.975H106.605V386.975H105.605V387.975ZM98.36 387.975H97.36V388.975H98.36V387.975ZM98.36 382.35V381.35H97.36V382.35H98.36ZM120.95 382.35H121.95V381.35H120.95V382.35ZM120.95 387.975V388.975H121.95V387.975H120.95ZM113.705 387.975V386.975H112.705V387.975H113.705ZM113.705 407H105.605V409H113.705V407ZM106.605 408V387.975H104.605V408H106.605ZM105.605 386.975H98.36V388.975H105.605V386.975ZM99.36 387.975V382.35H97.36V387.975H99.36ZM98.36 383.35H120.95V381.35H98.36V383.35ZM119.95 382.35V387.975H121.95V382.35H119.95ZM120.95 386.975H113.705V388.975H120.95V386.975ZM112.705 387.975V408H114.705V387.975H112.705ZM146.896 408V409H148.19L147.864 407.748L146.896 408ZM138.391 408L137.418 408.23L137.6 409H138.391V408ZM136.861 401.52L137.834 401.29L137.831 401.277L136.861 401.52ZM136.546 400.305L135.565 400.501L135.571 400.531L135.579 400.559L136.546 400.305ZM136.096 399L135.239 399.514L135.251 399.535L135.264 399.555L136.096 399ZM135.331 398.415L135.594 397.45L135.447 397.41L135.295 397.416L135.331 398.415ZM131.641 398.46V397.46H130.641V398.46H131.641ZM131.641 408V409H132.641V408H131.641ZM123.541 408H122.541V409H123.541V408ZM123.541 382.575L123.467 381.578L122.541 381.647V382.575H123.541ZM140.641 382.89L140.379 383.855L140.387 383.857L140.395 383.859L140.641 382.89ZM144.601 385.275L143.806 385.882L143.815 385.893L143.824 385.905L144.601 385.275ZM144.691 394.185L145.463 394.821L145.467 394.815L145.472 394.81L144.691 394.185ZM140.641 396.03L140.529 395.036L139.641 395.137V396.03H140.641ZM140.641 396.3H139.641V397.218L140.556 397.296L140.641 396.3ZM143.251 397.335L142.595 398.09L142.612 398.105L142.63 398.119L143.251 397.335ZM144.691 399.54L145.659 399.288L145.657 399.282L144.691 399.54ZM131.641 393.375H130.641V394.27L131.531 394.369L131.641 393.375ZM136.816 387.795L136.235 388.609L136.244 388.615L136.253 388.621L136.816 387.795ZM131.641 387.21L131.582 386.212L130.641 386.267V387.21H131.641ZM146.896 407H138.391V409H146.896V407ZM139.364 407.77L137.834 401.29L135.888 401.75L137.418 408.23L139.364 407.77ZM137.831 401.277C137.77 401.031 137.663 400.621 137.513 400.051L135.579 400.559C135.729 401.129 135.833 401.529 135.891 401.763L137.831 401.277ZM137.527 400.109C137.4 399.474 137.219 398.882 136.928 398.445L135.264 399.555C135.333 399.658 135.452 399.936 135.565 400.501L137.527 400.109ZM136.954 398.486C136.644 397.97 136.179 397.61 135.594 397.45L135.068 399.38C135.143 399.4 135.188 399.43 135.239 399.514L136.954 398.486ZM135.295 397.416C134.474 397.445 133.258 397.46 131.641 397.46V399.46C133.264 399.46 134.508 399.445 135.367 399.414L135.295 397.416ZM130.641 398.46V408H132.641V398.46H130.641ZM131.641 407H123.541V409H131.641V407ZM124.541 408V382.575H122.541V408H124.541ZM123.615 383.572C127.224 383.304 130.589 383.17 133.711 383.17V381.17C130.533 381.17 127.118 381.306 123.467 381.578L123.615 383.572ZM133.711 383.17C136.516 383.17 138.728 383.407 140.379 383.855L140.903 381.925C139.014 381.413 136.606 381.17 133.711 381.17V383.17ZM140.395 383.859C142.007 384.269 143.107 384.965 143.806 385.882L145.396 384.668C144.356 383.305 142.815 382.411 140.887 381.921L140.395 383.859ZM143.824 385.905C144.535 386.781 144.951 388.061 144.951 389.865H146.951C146.951 387.769 146.467 385.989 145.378 384.645L143.824 385.905ZM144.951 389.865C144.951 391.549 144.565 392.742 143.91 393.56L145.472 394.81C146.497 393.528 146.951 391.841 146.951 389.865H144.951ZM143.919 393.549C143.302 394.298 142.239 394.843 140.529 395.036L140.753 397.024C142.763 396.797 144.4 396.112 145.463 394.821L143.919 393.549ZM139.641 396.03V396.3H141.641V396.03H139.641ZM140.556 397.296C141.428 397.371 142.088 397.649 142.595 398.09L143.907 396.58C143.034 395.821 141.954 395.409 140.726 395.304L140.556 397.296ZM142.63 398.119C143.179 398.553 143.539 399.103 143.725 399.798L145.657 399.282C145.363 398.177 144.763 397.257 143.872 396.551L142.63 398.119ZM143.723 399.792L145.928 408.252L147.864 407.748L145.659 399.288L143.723 399.792ZM131.531 394.369C131.864 394.406 132.443 394.42 133.216 394.42V392.42C132.429 392.42 131.958 392.404 131.751 392.381L131.531 394.369ZM133.216 394.42C134.391 394.42 135.36 394.371 136.104 394.263C136.475 394.21 136.817 394.138 137.112 394.039C137.391 393.945 137.717 393.798 137.973 393.542L136.559 392.128C136.62 392.067 136.631 392.09 136.475 392.143C136.335 392.19 136.122 392.24 135.818 392.284C135.212 392.372 134.351 392.42 133.216 392.42V394.42ZM137.973 393.542C138.354 393.161 138.543 392.638 138.649 392.145C138.759 391.629 138.806 391.012 138.806 390.315H136.806C136.806 390.938 136.763 391.401 136.693 391.725C136.619 392.072 136.538 392.149 136.559 392.128L137.973 393.542ZM138.806 390.315C138.806 388.941 138.437 387.69 137.379 386.969L136.253 388.621C136.515 388.8 136.806 389.229 136.806 390.315H138.806ZM137.397 386.981C136.502 386.342 135.185 386.12 133.666 386.12V388.12C135.087 388.12 135.87 388.348 136.235 388.609L137.397 386.981ZM133.666 386.12C133.302 386.12 132.597 386.152 131.582 386.212L131.7 388.208C132.725 388.148 133.371 388.12 133.666 388.12V386.12ZM130.641 387.21V393.375H132.641V387.21H130.641ZM163.116 399.81L162.218 399.37L162.116 399.578V399.81H163.116ZM163.116 408V409H164.116V408H163.116ZM155.016 408H154.016V409H155.016V408ZM155.016 399.9H156.016V399.667L155.914 399.458L155.016 399.9ZM146.376 382.35V381.35H144.769L145.479 382.792L146.376 382.35ZM154.611 382.35L155.536 381.97L155.282 381.35H154.611V382.35ZM158.031 390.675L157.106 391.055L157.109 391.062L157.112 391.069L158.031 390.675ZM159.021 393.33L158.07 393.637L158.293 394.33H159.021V393.33ZM159.111 393.33V394.33H159.839L160.063 393.638L159.111 393.33ZM160.101 390.585L159.176 390.206L159.175 390.208L160.101 390.585ZM163.476 382.35V381.35H162.806L162.551 381.971L163.476 382.35ZM171.666 382.35L172.565 382.79L173.27 381.35H171.666V382.35ZM162.116 399.81V408H164.116V399.81H162.116ZM163.116 407H155.016V409H163.116V407ZM156.016 408V399.9H154.016V408H156.016ZM155.914 399.458L147.274 381.908L145.479 382.792L154.119 400.342L155.914 399.458ZM146.376 383.35H154.611V381.35H146.376V383.35ZM153.686 382.73L157.106 391.055L158.956 390.295L155.536 381.97L153.686 382.73ZM157.112 391.069C157.459 391.879 157.779 392.734 158.07 393.637L159.973 393.023C159.664 392.066 159.324 391.151 158.951 390.281L157.112 391.069ZM159.021 394.33H159.111V392.33H159.021V394.33ZM160.063 393.638C160.387 392.636 160.709 391.745 161.027 390.962L159.175 390.208C158.834 391.045 158.496 391.984 158.16 393.022L160.063 393.638ZM161.027 390.964L164.402 382.729L162.551 381.971L159.176 390.206L161.027 390.964ZM163.476 383.35H171.666V381.35H163.476V383.35ZM170.768 381.91L162.218 399.37L164.015 400.25L172.565 382.79L170.768 381.91ZM195.212 402.375L196.185 402.142L196.001 401.375H195.212V402.375ZM187.742 402.375V401.375H186.954L186.77 402.142L187.742 402.375ZM186.392 408V409H187.181L187.365 408.233L186.392 408ZM178.112 408L177.161 407.693L176.739 409H178.112V408ZM186.392 382.35V381.35H185.664L185.441 382.043L186.392 382.35ZM196.967 382.35L197.923 382.055L197.705 381.35H196.967V382.35ZM204.887 408V409H206.243L205.843 407.705L204.887 408ZM196.562 408L195.59 408.233L195.774 409H196.562V408ZM191.432 387.885V386.885H190.674L190.469 387.616L191.432 387.885ZM188.777 397.38L187.814 397.111L187.459 398.38H188.777V397.38ZM194.132 397.38V398.38H195.432L195.099 397.123L194.132 397.38ZM191.612 387.885L192.579 387.628L192.382 386.885H191.612V387.885ZM195.212 401.375H187.742V403.375H195.212V401.375ZM186.77 402.142L185.42 407.767L187.365 408.233L188.715 402.608L186.77 402.142ZM186.392 407H178.112V409H186.392V407ZM179.064 408.307L187.344 382.657L185.441 382.043L177.161 407.693L179.064 408.307ZM186.392 383.35H196.967V381.35H186.392V383.35ZM196.012 382.645L203.932 408.295L205.843 407.705L197.923 382.055L196.012 382.645ZM204.887 407H196.562V409H204.887V407ZM197.535 407.767L196.185 402.142L194.24 402.608L195.59 408.233L197.535 407.767ZM190.469 387.616L187.814 397.111L189.74 397.649L192.395 388.154L190.469 387.616ZM188.777 398.38H194.132V396.38H188.777V398.38ZM195.099 397.123L192.579 387.628L190.646 388.142L193.166 397.637L195.099 397.123ZM191.612 386.885H191.432V388.885H191.612V386.885ZM228.876 393.78H229.876V392.78H228.876V393.78ZM228.876 406.605L229.188 407.555L229.876 407.329V406.605H228.876ZM223.161 408.045L222.996 407.059L222.996 407.059L223.161 408.045ZM209.031 405.3L208.353 406.035L208.353 406.035L209.031 405.3ZM209.211 385.41L209.885 386.148L209.89 386.144L209.211 385.41ZM227.796 383.07H228.796V382.261L228.004 382.092L227.796 383.07ZM227.616 385.77L228.611 385.872L228.611 385.87L227.616 385.77ZM227.256 388.245L227.228 389.245L228.031 389.267L228.226 388.488L227.256 388.245ZM225.636 388.2L225.606 389.2L225.608 389.2L225.636 388.2ZM215.556 388.695L216.321 389.339L216.335 389.322L216.348 389.305L215.556 388.695ZM214.521 391.35L213.536 391.178L213.534 391.19L213.532 391.202L214.521 391.35ZM214.926 399.495L213.999 399.871L213.999 399.871L214.926 399.495ZM216.996 401.835L216.56 402.735L216.56 402.735L216.996 401.835ZM220.956 402.51V403.51H221.956V402.51H220.956ZM220.956 393.78V392.78H219.956V393.78H220.956ZM227.876 393.78V406.605H229.876V393.78H227.876ZM228.564 405.655C226.595 406.302 224.739 406.768 222.996 407.059L223.325 409.031C225.182 408.722 227.137 408.228 229.188 407.555L228.564 405.655ZM222.996 407.059C221.227 407.353 219.771 407.495 218.616 407.495V409.495C219.92 409.495 221.494 409.337 223.325 409.031L222.996 407.059ZM218.616 407.495C214.71 407.495 211.784 406.479 209.709 404.565L208.353 406.035C210.897 408.381 214.362 409.495 218.616 409.495V407.495ZM209.709 404.565C207.676 402.69 206.566 399.736 206.566 395.49H204.566C204.566 400.064 205.766 403.65 208.353 406.035L209.709 404.565ZM206.566 395.49C206.566 391.164 207.73 388.117 209.885 386.148L208.536 384.672C205.831 387.143 204.566 390.816 204.566 395.49H206.566ZM209.89 386.144C212.081 384.115 215.227 383.035 219.471 383.035V381.035C214.894 381.035 211.201 382.205 208.531 384.676L209.89 386.144ZM219.471 383.035C221.688 383.035 224.389 383.367 227.588 384.048L228.004 382.092C224.722 381.393 221.874 381.035 219.471 381.035V383.035ZM226.796 383.07C226.796 383.618 226.74 384.478 226.621 385.67L228.611 385.87C228.732 384.662 228.796 383.722 228.796 383.07H226.796ZM226.621 385.668C226.501 386.837 226.387 387.599 226.286 388.002L228.226 388.488C228.365 387.931 228.491 387.043 228.611 385.872L226.621 385.668ZM227.284 387.245L225.664 387.2L225.608 389.2L227.228 389.245L227.284 387.245ZM225.666 387.2C223.683 387.14 222.126 387.11 221.001 387.11V389.11C222.096 389.11 223.629 389.14 225.606 389.2L225.666 387.2ZM221.001 387.11C219.324 387.11 217.996 387.159 217.035 387.262C216.558 387.313 216.138 387.381 215.798 387.475C215.628 387.522 215.453 387.583 215.29 387.664C215.137 387.741 214.929 387.87 214.763 388.085L216.348 389.305C216.258 389.422 216.172 389.46 216.189 389.451C216.196 389.448 216.237 389.429 216.331 389.403C216.521 389.351 216.819 389.297 217.249 389.251C218.103 389.159 219.348 389.11 221.001 389.11V387.11ZM214.791 388.051C214.146 388.816 213.759 389.902 213.536 391.178L215.506 391.522C215.703 390.398 216.005 389.714 216.321 389.339L214.791 388.051ZM213.532 391.202C213.345 392.446 213.251 393.651 213.251 394.815H215.251C215.251 393.759 215.336 392.654 215.51 391.498L213.532 391.202ZM213.251 394.815C213.251 396.878 213.479 398.587 213.999 399.871L215.853 399.119C215.473 398.183 215.251 396.772 215.251 394.815H213.251ZM213.999 399.871C214.526 401.171 215.372 402.16 216.56 402.735L217.431 400.935C216.76 400.61 216.225 400.039 215.853 399.119L213.999 399.871ZM216.56 402.735C217.68 403.277 219.108 403.51 220.776 403.51V401.51C219.263 401.51 218.172 401.293 217.431 400.935L216.56 402.735ZM220.776 403.51H220.956V401.51H220.776V403.51ZM221.956 402.51V393.78H219.956V402.51H221.956ZM220.956 394.78H228.876V392.78H220.956V394.78ZM247.551 402.375L248.524 402.142L248.34 401.375H247.551V402.375ZM240.081 402.375V401.375H239.293L239.109 402.142L240.081 402.375ZM238.731 408V409H239.52L239.704 408.233L238.731 408ZM230.451 408L229.5 407.693L229.078 409H230.451V408ZM238.731 382.35V381.35H238.003L237.78 382.043L238.731 382.35ZM249.306 382.35L250.262 382.055L250.044 381.35H249.306V382.35ZM257.226 408V409H258.582L258.182 407.705L257.226 408ZM248.901 408L247.929 408.233L248.113 409H248.901V408ZM243.771 387.885V386.885H243.012L242.808 387.616L243.771 387.885ZM241.116 397.38L240.153 397.111L239.798 398.38H241.116V397.38ZM246.471 397.38V398.38H247.771L247.438 397.123L246.471 397.38ZM243.951 387.885L244.918 387.628L244.72 386.885H243.951V387.885ZM247.551 401.375H240.081V403.375H247.551V401.375ZM239.109 402.142L237.759 407.767L239.704 408.233L241.054 402.608L239.109 402.142ZM238.731 407H230.451V409H238.731V407ZM231.403 408.307L239.683 382.657L237.78 382.043L229.5 407.693L231.403 408.307ZM238.731 383.35H249.306V381.35H238.731V383.35ZM248.351 382.645L256.271 408.295L258.182 407.705L250.262 382.055L248.351 382.645ZM257.226 407H248.901V409H257.226V407ZM249.874 407.767L248.524 402.142L246.579 402.608L247.929 408.233L249.874 407.767ZM242.808 387.616L240.153 397.111L242.079 397.649L244.734 388.154L242.808 387.616ZM241.116 398.38H246.471V396.38H241.116V398.38ZM247.438 397.123L244.918 387.628L242.985 388.142L245.505 397.637L247.438 397.123ZM243.951 386.885H243.771V388.885H243.951V386.885ZM259.509 382.35V381.35H258.509V382.35H259.509ZM267.609 382.35H268.609V381.35H267.609V382.35ZM267.609 408V409H268.609V408H267.609ZM259.509 408H258.509V409H259.509V408ZM259.509 383.35H267.609V381.35H259.509V383.35ZM266.609 382.35V408H268.609V382.35H266.609ZM267.609 407H259.509V409H267.609V407ZM260.509 408V382.35H258.509V408H260.509ZM279.679 397.65L278.679 397.637V397.65H279.679ZM279.679 408V409H280.679V408H279.679ZM272.164 408H271.164V409H272.164V408ZM272.164 382.35V381.35H271.164V382.35H272.164ZM279.769 382.35L280.605 381.801L280.309 381.35H279.769V382.35ZM286.564 392.7L285.728 393.249L285.732 393.255L286.564 392.7ZM288.904 396.57L288.015 397.027L288.294 397.57H288.904V396.57ZM289.039 396.57V397.57H290.039V396.57H289.039ZM289.039 382.35V381.35H288.039V382.35H289.039ZM296.509 382.35H297.509V381.35H296.509V382.35ZM296.509 408V409H297.509V408H296.509ZM288.859 408L288.019 408.543L288.314 409H288.859V408ZM281.884 397.2L282.724 396.657L282.718 396.648L281.884 397.2ZM279.859 394.14L280.693 393.588L280.396 393.14H279.859V394.14ZM279.724 394.14V393.14H278.737L278.724 394.127L279.724 394.14ZM278.679 397.65V408H280.679V397.65H278.679ZM279.679 407H272.164V409H279.679V407ZM273.164 408V382.35H271.164V408H273.164ZM272.164 383.35H279.769V381.35H272.164V383.35ZM278.933 382.899L285.728 393.249L287.4 392.151L280.605 381.801L278.933 382.899ZM285.732 393.255C286.741 394.769 287.499 396.024 288.015 397.027L289.793 396.113C289.229 395.016 288.427 393.691 287.396 392.145L285.732 393.255ZM288.904 397.57H289.039V395.57H288.904V397.57ZM290.039 396.57V392.25H288.039V396.57H290.039ZM290.039 392.25V382.35H288.039V392.25H290.039ZM289.039 383.35H296.509V381.35H289.039V383.35ZM295.509 382.35V408H297.509V382.35H295.509ZM296.509 407H288.859V409H296.509V407ZM289.699 407.457L282.724 396.657L281.044 397.743L288.019 408.543L289.699 407.457ZM282.718 396.648L280.693 393.588L279.025 394.692L281.05 397.752L282.718 396.648ZM279.859 393.14H279.724V395.14H279.859V393.14ZM278.724 394.127L278.679 397.637L280.679 397.663L280.724 394.153L278.724 394.127Z" fill="#CB0000" mask="url(#path-59-outside-1_2_2)"/>
</g>
<defs>
<linearGradient id="paint0_linear_2_2" x1="38.3506" y1="373.281" x2="38.3506" y2="457.368" gradientUnits="userSpaceOnUse">
<stop stop-color="#FFA4A4"/>
<stop offset="1" stop-color="#ED3641"/>
</linearGradient>
<linearGradient id="paint1_linear_2_2" x1="355.834" y1="374.035" x2="355.834" y2="457.832" gradientUnits="userSpaceOnUse">
<stop stop-color="#FFA4A4"/>
<stop offset="1" stop-color="#ED3641"/>
</linearGradient>
<linearGradient id="paint2_linear_2_2" x1="198.296" y1="345.306" x2="198.296" y2="434.018" gradientUnits="userSpaceOnUse">
<stop stop-color="#FFA4A4"/>
<stop offset="1" stop-color="#ED3641"/>
</linearGradient>
<clipPath id="clip0_2_2">
<rect width="393.389" height="460.8" fill="white"/>
</clipPath>
</defs>
</svg>