<svg width="219" height="45" viewBox="0 0 219 45" fill="none" xmlns="http://www.w3.org/2000/svg">
<mask id="path-1-outside-1_81_563" maskUnits="userSpaceOnUse" x="0" y="-1" width="219" height="47" fill="black">
<rect fill="white" y="-1" width="219" height="47"/>
<path d="M3.95 -2.38419e-06C4.75 -2.38419e-06 5.45 0.299998 6.05 0.899998C6.68333 1.46667 7 2.18333 7 3.05V31.95C7 32.8167 6.68333 33.55 6.05 34.15C5.41667 34.7167 4.68333 35 3.85 35C2.91667 35 2.16667 34.7167 1.6 34.15C1.03333 33.55 0.75 32.8167 0.75 31.95V3.05C0.75 2.18333 1.05 1.46667 1.65 0.899998C2.25 0.299998 3.01667 -2.38419e-06 3.95 -2.38419e-06ZM26.1 -2.38419e-06C27.0333 -2.38419e-06 27.7833 0.299998 28.35 0.899998C28.9167 1.46667 29.2 2.18333 29.2 3.05V31.95C29.2 32.8167 28.9 33.55 28.3 34.15C27.7333 34.7167 26.9667 35 26 35C25.2 35 24.4833 34.7167 23.85 34.15C23.25 33.55 22.95 32.8167 22.95 31.95V3.05C22.95 2.18333 23.2667 1.46667 23.9 0.899998C24.5333 0.299998 25.2667 -2.38419e-06 26.1 -2.38419e-06ZM3.8 14.55H26.1V20.3H3.8V14.55ZM58.0375 8.25C58.9042 8.25 59.6208 8.55 60.1875 9.15C60.7542 9.71667 61.0375 10.4333 61.0375 11.3V24C61.0375 27.5333 60.0542 30.3333 58.0875 32.4C56.1208 34.4667 53.2875 35.5 49.5875 35.5C45.8875 35.5 43.0542 34.4667 41.0875 32.4C39.1542 30.3333 38.1875 27.5333 38.1875 24V11.3C38.1875 10.4333 38.4708 9.71667 39.0375 9.15C39.6042 8.55 40.3208 8.25 41.1875 8.25C42.0542 8.25 42.7708 8.55 43.3375 9.15C43.9042 9.71667 44.1875 10.4333 44.1875 11.3V24C44.1875 26.0333 44.6375 27.55 45.5375 28.55C46.4375 29.5167 47.7875 30 49.5875 30C51.4208 30 52.7875 29.5167 53.6875 28.55C54.5875 27.55 55.0375 26.0333 55.0375 24V11.3C55.0375 10.4333 55.3208 9.71667 55.8875 9.15C56.4542 8.55 57.1708 8.25 58.0375 8.25ZM72.5332 35C71.6665 35 70.9499 34.7167 70.3832 34.15C69.8165 33.55 69.5332 32.8167 69.5332 31.95V11.3C69.5332 10.4333 69.8165 9.71667 70.3832 9.15C70.9499 8.55 71.6665 8.25 72.5332 8.25C73.3999 8.25 74.1165 8.55 74.6832 9.15C75.2499 9.71667 75.5332 10.4333 75.5332 11.3V16L75.1832 12.65C75.5499 11.85 76.0165 11.15 76.5832 10.55C77.1832 9.91667 77.8499 9.4 78.5832 9C79.3165 8.56666 80.0999 8.25 80.9332 8.05C81.7665 7.85 82.5999 7.75 83.4332 7.75C84.4332 7.75 85.2665 8.03333 85.9332 8.6C86.6332 9.16667 86.9832 9.83333 86.9832 10.6C86.9832 11.7 86.6999 12.5 86.1332 13C85.5665 13.4667 84.9499 13.7 84.2832 13.7C83.6499 13.7 83.0665 13.5833 82.5332 13.35C82.0332 13.1167 81.4499 13 80.7832 13C80.1832 13 79.5665 13.15 78.9332 13.45C78.3332 13.7167 77.7665 14.15 77.2332 14.75C76.7332 15.35 76.3165 16.1 75.9832 17C75.6832 17.8667 75.5332 18.9 75.5332 20.1V31.95C75.5332 32.8167 75.2499 33.55 74.6832 34.15C74.1165 34.7167 73.3999 35 72.5332 35ZM96.2129 35C95.3462 35 94.6296 34.7167 94.0629 34.15C93.4962 33.55 93.2129 32.8167 93.2129 31.95V11.3C93.2129 10.4333 93.4962 9.71667 94.0629 9.15C94.6296 8.55 95.3462 8.25 96.2129 8.25C97.0796 8.25 97.7962 8.55 98.3629 9.15C98.9296 9.71667 99.2129 10.4333 99.2129 11.3V16L98.8629 12.65C99.2296 11.85 99.6962 11.15 100.263 10.55C100.863 9.91667 101.53 9.4 102.263 9C102.996 8.56666 103.78 8.25 104.613 8.05C105.446 7.85 106.28 7.75 107.113 7.75C108.113 7.75 108.946 8.03333 109.613 8.6C110.313 9.16667 110.663 9.83333 110.663 10.6C110.663 11.7 110.38 12.5 109.813 13C109.246 13.4667 108.63 13.7 107.963 13.7C107.33 13.7 106.746 13.5833 106.213 13.35C105.713 13.1167 105.13 13 104.463 13C103.863 13 103.246 13.15 102.613 13.45C102.013 13.7167 101.446 14.15 100.913 14.75C100.413 15.35 99.9962 16.1 99.6629 17C99.3629 17.8667 99.2129 18.9 99.2129 20.1V31.95C99.2129 32.8167 98.9296 33.55 98.3629 34.15C97.7962 34.7167 97.0796 35 96.2129 35ZM138.207 7.75C139.073 7.75 139.79 8.03333 140.357 8.6C140.923 9.16667 141.207 9.9 141.207 10.8V31.95C141.207 32.8167 140.923 33.55 140.357 34.15C139.79 34.7167 139.073 35 138.207 35C137.34 35 136.623 34.7167 136.057 34.15C135.49 33.55 135.207 32.8167 135.207 31.95V29.5L136.307 29.95C136.307 30.3833 136.073 30.9167 135.607 31.55C135.14 32.15 134.507 32.75 133.707 33.35C132.907 33.95 131.957 34.4667 130.857 34.9C129.79 35.3 128.623 35.5 127.357 35.5C125.057 35.5 122.973 34.9167 121.107 33.75C119.24 32.55 117.757 30.9167 116.657 28.85C115.59 26.75 115.057 24.35 115.057 21.65C115.057 18.9167 115.59 16.5167 116.657 14.45C117.757 12.35 119.223 10.7167 121.057 9.55C122.89 8.35 124.923 7.75 127.157 7.75C128.59 7.75 129.907 7.96667 131.107 8.4C132.307 8.83333 133.34 9.38333 134.207 10.05C135.107 10.7167 135.79 11.4 136.257 12.1C136.757 12.7667 137.007 13.3333 137.007 13.8L135.207 14.45V10.8C135.207 9.93333 135.49 9.21666 136.057 8.65C136.623 8.05 137.34 7.75 138.207 7.75ZM128.107 30C129.573 30 130.857 29.6333 131.957 28.9C133.057 28.1667 133.907 27.1667 134.507 25.9C135.14 24.6333 135.457 23.2167 135.457 21.65C135.457 20.05 135.14 18.6167 134.507 17.35C133.907 16.0833 133.057 15.0833 131.957 14.35C130.857 13.6167 129.573 13.25 128.107 13.25C126.673 13.25 125.407 13.6167 124.307 14.35C123.207 15.0833 122.34 16.0833 121.707 17.35C121.107 18.6167 120.807 20.05 120.807 21.65C120.807 23.2167 121.107 24.6333 121.707 25.9C122.34 27.1667 123.207 28.1667 124.307 28.9C125.407 29.6333 126.673 30 128.107 30ZM169.553 8.25C170.42 8.25 171.136 8.55 171.703 9.15C172.27 9.71667 172.553 10.4333 172.553 11.3V32.55C172.553 35.6167 171.97 38.05 170.803 39.85C169.67 41.6833 168.136 43 166.203 43.8C164.27 44.6 162.103 45 159.703 45C158.636 45 157.503 44.9167 156.303 44.75C155.103 44.5833 154.12 44.3333 153.353 44C152.353 43.5667 151.653 43.0167 151.253 42.35C150.886 41.7167 150.82 41.0333 151.053 40.3C151.353 39.3333 151.836 38.6667 152.503 38.3C153.17 37.9667 153.87 37.9333 154.603 38.2C155.136 38.3667 155.836 38.6167 156.703 38.95C157.57 39.3167 158.57 39.5 159.703 39.5C161.236 39.5 162.503 39.2833 163.503 38.85C164.536 38.45 165.303 37.75 165.803 36.75C166.336 35.7833 166.603 34.45 166.603 32.75V29.4L167.653 30.6C167.086 31.7 166.37 32.6167 165.503 33.35C164.67 34.05 163.67 34.5833 162.503 34.95C161.336 35.3167 160.003 35.5 158.503 35.5C156.736 35.5 155.186 35.1 153.853 34.3C152.553 33.4667 151.536 32.3333 150.803 30.9C150.07 29.4333 149.703 27.7667 149.703 25.9V11.3C149.703 10.4333 149.986 9.71667 150.553 9.15C151.12 8.55 151.836 8.25 152.703 8.25C153.57 8.25 154.286 8.55 154.853 9.15C155.42 9.71667 155.703 10.4333 155.703 11.3V24.1C155.703 26.2667 156.17 27.8 157.103 28.7C158.07 29.5667 159.403 30 161.103 30C162.27 30 163.253 29.7833 164.053 29.35C164.853 28.8833 165.47 28.2167 165.903 27.35C166.336 26.45 166.553 25.3667 166.553 24.1V11.3C166.553 10.4333 166.836 9.71667 167.403 9.15C167.97 8.55 168.686 8.25 169.553 8.25ZM184.499 23.95C183.365 23.95 182.749 23.3167 182.649 22.05L181.199 3.65C181.132 2.61666 181.399 1.75 181.999 1.05C182.632 0.349998 183.449 -2.38419e-06 184.449 -2.38419e-06C185.449 -2.38419e-06 186.265 0.349998 186.899 1.05C187.532 1.75 187.799 2.61666 187.699 3.65L186.299 22.05C186.199 23.3167 185.599 23.95 184.499 23.95ZM184.149 35C183.182 35 182.432 34.75 181.899 34.25C181.399 33.7167 181.149 32.9667 181.149 32V31.15C181.149 30.1833 181.399 29.45 181.899 28.95C182.432 28.4167 183.182 28.15 184.149 28.15H184.799C185.765 28.15 186.499 28.4167 186.999 28.95C187.532 29.45 187.799 30.1833 187.799 31.15V32C187.799 32.9667 187.532 33.7167 186.999 34.25C186.499 34.75 185.765 35 184.799 35H184.149ZM199.829 23.95C198.696 23.95 198.079 23.3167 197.979 22.05L196.529 3.65C196.462 2.61666 196.729 1.75 197.329 1.05C197.962 0.349998 198.779 -2.38419e-06 199.779 -2.38419e-06C200.779 -2.38419e-06 201.596 0.349998 202.229 1.05C202.862 1.75 203.129 2.61666 203.029 3.65L201.629 22.05C201.529 23.3167 200.929 23.95 199.829 23.95ZM199.479 35C198.512 35 197.762 34.75 197.229 34.25C196.729 33.7167 196.479 32.9667 196.479 32V31.15C196.479 30.1833 196.729 29.45 197.229 28.95C197.762 28.4167 198.512 28.15 199.479 28.15H200.129C201.096 28.15 201.829 28.4167 202.329 28.95C202.862 29.45 203.129 30.1833 203.129 31.15V32C203.129 32.9667 202.862 33.7167 202.329 34.25C201.829 34.75 201.096 35 200.129 35H199.479ZM215.159 23.95C214.026 23.95 213.409 23.3167 213.309 22.05L211.859 3.65C211.792 2.61666 212.059 1.75 212.659 1.05C213.292 0.349998 214.109 -2.38419e-06 215.109 -2.38419e-06C216.109 -2.38419e-06 216.926 0.349998 217.559 1.05C218.192 1.75 218.459 2.61666 218.359 3.65L216.959 22.05C216.859 23.3167 216.259 23.95 215.159 23.95ZM214.809 35C213.842 35 213.092 34.75 212.559 34.25C212.059 33.7167 211.809 32.9667 211.809 32V31.15C211.809 30.1833 212.059 29.45 212.559 28.95C213.092 28.4167 213.842 28.15 214.809 28.15H215.459C216.426 28.15 217.159 28.4167 217.659 28.95C218.192 29.45 218.459 30.1833 218.459 31.15V32C218.459 32.9667 218.192 33.7167 217.659 34.25C217.159 34.75 216.426 35 215.459 35H214.809Z"/>
</mask>
<path d="M3.95 -2.38419e-06C4.75 -2.38419e-06 5.45 0.299998 6.05 0.899998C6.68333 1.46667 7 2.18333 7 3.05V31.95C7 32.8167 6.68333 33.55 6.05 34.15C5.41667 34.7167 4.68333 35 3.85 35C2.91667 35 2.16667 34.7167 1.6 34.15C1.03333 33.55 0.75 32.8167 0.75 31.95V3.05C0.75 2.18333 1.05 1.46667 1.65 0.899998C2.25 0.299998 3.01667 -2.38419e-06 3.95 -2.38419e-06ZM26.1 -2.38419e-06C27.0333 -2.38419e-06 27.7833 0.299998 28.35 0.899998C28.9167 1.46667 29.2 2.18333 29.2 3.05V31.95C29.2 32.8167 28.9 33.55 28.3 34.15C27.7333 34.7167 26.9667 35 26 35C25.2 35 24.4833 34.7167 23.85 34.15C23.25 33.55 22.95 32.8167 22.95 31.95V3.05C22.95 2.18333 23.2667 1.46667 23.9 0.899998C24.5333 0.299998 25.2667 -2.38419e-06 26.1 -2.38419e-06ZM3.8 14.55H26.1V20.3H3.8V14.55ZM58.0375 8.25C58.9042 8.25 59.6208 8.55 60.1875 9.15C60.7542 9.71667 61.0375 10.4333 61.0375 11.3V24C61.0375 27.5333 60.0542 30.3333 58.0875 32.4C56.1208 34.4667 53.2875 35.5 49.5875 35.5C45.8875 35.5 43.0542 34.4667 41.0875 32.4C39.1542 30.3333 38.1875 27.5333 38.1875 24V11.3C38.1875 10.4333 38.4708 9.71667 39.0375 9.15C39.6042 8.55 40.3208 8.25 41.1875 8.25C42.0542 8.25 42.7708 8.55 43.3375 9.15C43.9042 9.71667 44.1875 10.4333 44.1875 11.3V24C44.1875 26.0333 44.6375 27.55 45.5375 28.55C46.4375 29.5167 47.7875 30 49.5875 30C51.4208 30 52.7875 29.5167 53.6875 28.55C54.5875 27.55 55.0375 26.0333 55.0375 24V11.3C55.0375 10.4333 55.3208 9.71667 55.8875 9.15C56.4542 8.55 57.1708 8.25 58.0375 8.25ZM72.5332 35C71.6665 35 70.9499 34.7167 70.3832 34.15C69.8165 33.55 69.5332 32.8167 69.5332 31.95V11.3C69.5332 10.4333 69.8165 9.71667 70.3832 9.15C70.9499 8.55 71.6665 8.25 72.5332 8.25C73.3999 8.25 74.1165 8.55 74.6832 9.15C75.2499 9.71667 75.5332 10.4333 75.5332 11.3V16L75.1832 12.65C75.5499 11.85 76.0165 11.15 76.5832 10.55C77.1832 9.91667 77.8499 9.4 78.5832 9C79.3165 8.56666 80.0999 8.25 80.9332 8.05C81.7665 7.85 82.5999 7.75 83.4332 7.75C84.4332 7.75 85.2665 8.03333 85.9332 8.6C86.6332 9.16667 86.9832 9.83333 86.9832 10.6C86.9832 11.7 86.6999 12.5 86.1332 13C85.5665 13.4667 84.9499 13.7 84.2832 13.7C83.6499 13.7 83.0665 13.5833 82.5332 13.35C82.0332 13.1167 81.4499 13 80.7832 13C80.1832 13 79.5665 13.15 78.9332 13.45C78.3332 13.7167 77.7665 14.15 77.2332 14.75C76.7332 15.35 76.3165 16.1 75.9832 17C75.6832 17.8667 75.5332 18.9 75.5332 20.1V31.95C75.5332 32.8167 75.2499 33.55 74.6832 34.15C74.1165 34.7167 73.3999 35 72.5332 35ZM96.2129 35C95.3462 35 94.6296 34.7167 94.0629 34.15C93.4962 33.55 93.2129 32.8167 93.2129 31.95V11.3C93.2129 10.4333 93.4962 9.71667 94.0629 9.15C94.6296 8.55 95.3462 8.25 96.2129 8.25C97.0796 8.25 97.7962 8.55 98.3629 9.15C98.9296 9.71667 99.2129 10.4333 99.2129 11.3V16L98.8629 12.65C99.2296 11.85 99.6962 11.15 100.263 10.55C100.863 9.91667 101.53 9.4 102.263 9C102.996 8.56666 103.78 8.25 104.613 8.05C105.446 7.85 106.28 7.75 107.113 7.75C108.113 7.75 108.946 8.03333 109.613 8.6C110.313 9.16667 110.663 9.83333 110.663 10.6C110.663 11.7 110.38 12.5 109.813 13C109.246 13.4667 108.63 13.7 107.963 13.7C107.33 13.7 106.746 13.5833 106.213 13.35C105.713 13.1167 105.13 13 104.463 13C103.863 13 103.246 13.15 102.613 13.45C102.013 13.7167 101.446 14.15 100.913 14.75C100.413 15.35 99.9962 16.1 99.6629 17C99.3629 17.8667 99.2129 18.9 99.2129 20.1V31.95C99.2129 32.8167 98.9296 33.55 98.3629 34.15C97.7962 34.7167 97.0796 35 96.2129 35ZM138.207 7.75C139.073 7.75 139.79 8.03333 140.357 8.6C140.923 9.16667 141.207 9.9 141.207 10.8V31.95C141.207 32.8167 140.923 33.55 140.357 34.15C139.79 34.7167 139.073 35 138.207 35C137.34 35 136.623 34.7167 136.057 34.15C135.49 33.55 135.207 32.8167 135.207 31.95V29.5L136.307 29.95C136.307 30.3833 136.073 30.9167 135.607 31.55C135.14 32.15 134.507 32.75 133.707 33.35C132.907 33.95 131.957 34.4667 130.857 34.9C129.79 35.3 128.623 35.5 127.357 35.5C125.057 35.5 122.973 34.9167 121.107 33.75C119.24 32.55 117.757 30.9167 116.657 28.85C115.59 26.75 115.057 24.35 115.057 21.65C115.057 18.9167 115.59 16.5167 116.657 14.45C117.757 12.35 119.223 10.7167 121.057 9.55C122.89 8.35 124.923 7.75 127.157 7.75C128.59 7.75 129.907 7.96667 131.107 8.4C132.307 8.83333 133.34 9.38333 134.207 10.05C135.107 10.7167 135.79 11.4 136.257 12.1C136.757 12.7667 137.007 13.3333 137.007 13.8L135.207 14.45V10.8C135.207 9.93333 135.49 9.21666 136.057 8.65C136.623 8.05 137.34 7.75 138.207 7.75ZM128.107 30C129.573 30 130.857 29.6333 131.957 28.9C133.057 28.1667 133.907 27.1667 134.507 25.9C135.14 24.6333 135.457 23.2167 135.457 21.65C135.457 20.05 135.14 18.6167 134.507 17.35C133.907 16.0833 133.057 15.0833 131.957 14.35C130.857 13.6167 129.573 13.25 128.107 13.25C126.673 13.25 125.407 13.6167 124.307 14.35C123.207 15.0833 122.34 16.0833 121.707 17.35C121.107 18.6167 120.807 20.05 120.807 21.65C120.807 23.2167 121.107 24.6333 121.707 25.9C122.34 27.1667 123.207 28.1667 124.307 28.9C125.407 29.6333 126.673 30 128.107 30ZM169.553 8.25C170.42 8.25 171.136 8.55 171.703 9.15C172.27 9.71667 172.553 10.4333 172.553 11.3V32.55C172.553 35.6167 171.97 38.05 170.803 39.85C169.67 41.6833 168.136 43 166.203 43.8C164.27 44.6 162.103 45 159.703 45C158.636 45 157.503 44.9167 156.303 44.75C155.103 44.5833 154.12 44.3333 153.353 44C152.353 43.5667 151.653 43.0167 151.253 42.35C150.886 41.7167 150.82 41.0333 151.053 40.3C151.353 39.3333 151.836 38.6667 152.503 38.3C153.17 37.9667 153.87 37.9333 154.603 38.2C155.136 38.3667 155.836 38.6167 156.703 38.95C157.57 39.3167 158.57 39.5 159.703 39.5C161.236 39.5 162.503 39.2833 163.503 38.85C164.536 38.45 165.303 37.75 165.803 36.75C166.336 35.7833 166.603 34.45 166.603 32.75V29.4L167.653 30.6C167.086 31.7 166.37 32.6167 165.503 33.35C164.67 34.05 163.67 34.5833 162.503 34.95C161.336 35.3167 160.003 35.5 158.503 35.5C156.736 35.5 155.186 35.1 153.853 34.3C152.553 33.4667 151.536 32.3333 150.803 30.9C150.07 29.4333 149.703 27.7667 149.703 25.9V11.3C149.703 10.4333 149.986 9.71667 150.553 9.15C151.12 8.55 151.836 8.25 152.703 8.25C153.57 8.25 154.286 8.55 154.853 9.15C155.42 9.71667 155.703 10.4333 155.703 11.3V24.1C155.703 26.2667 156.17 27.8 157.103 28.7C158.07 29.5667 159.403 30 161.103 30C162.27 30 163.253 29.7833 164.053 29.35C164.853 28.8833 165.47 28.2167 165.903 27.35C166.336 26.45 166.553 25.3667 166.553 24.1V11.3C166.553 10.4333 166.836 9.71667 167.403 9.15C167.97 8.55 168.686 8.25 169.553 8.25ZM184.499 23.95C183.365 23.95 182.749 23.3167 182.649 22.05L181.199 3.65C181.132 2.61666 181.399 1.75 181.999 1.05C182.632 0.349998 183.449 -2.38419e-06 184.449 -2.38419e-06C185.449 -2.38419e-06 186.265 0.349998 186.899 1.05C187.532 1.75 187.799 2.61666 187.699 3.65L186.299 22.05C186.199 23.3167 185.599 23.95 184.499 23.95ZM184.149 35C183.182 35 182.432 34.75 181.899 34.25C181.399 33.7167 181.149 32.9667 181.149 32V31.15C181.149 30.1833 181.399 29.45 181.899 28.95C182.432 28.4167 183.182 28.15 184.149 28.15H184.799C185.765 28.15 186.499 28.4167 186.999 28.95C187.532 29.45 187.799 30.1833 187.799 31.15V32C187.799 32.9667 187.532 33.7167 186.999 34.25C186.499 34.75 185.765 35 184.799 35H184.149ZM199.829 23.95C198.696 23.95 198.079 23.3167 197.979 22.05L196.529 3.65C196.462 2.61666 196.729 1.75 197.329 1.05C197.962 0.349998 198.779 -2.38419e-06 199.779 -2.38419e-06C200.779 -2.38419e-06 201.596 0.349998 202.229 1.05C202.862 1.75 203.129 2.61666 203.029 3.65L201.629 22.05C201.529 23.3167 200.929 23.95 199.829 23.95ZM199.479 35C198.512 35 197.762 34.75 197.229 34.25C196.729 33.7167 196.479 32.9667 196.479 32V31.15C196.479 30.1833 196.729 29.45 197.229 28.95C197.762 28.4167 198.512 28.15 199.479 28.15H200.129C201.096 28.15 201.829 28.4167 202.329 28.95C202.862 29.45 203.129 30.1833 203.129 31.15V32C203.129 32.9667 202.862 33.7167 202.329 34.25C201.829 34.75 201.096 35 200.129 35H199.479ZM215.159 23.95C214.026 23.95 213.409 23.3167 213.309 22.05L211.859 3.65C211.792 2.61666 212.059 1.75 212.659 1.05C213.292 0.349998 214.109 -2.38419e-06 215.109 -2.38419e-06C216.109 -2.38419e-06 216.926 0.349998 217.559 1.05C218.192 1.75 218.459 2.61666 218.359 3.65L216.959 22.05C216.859 23.3167 216.259 23.95 215.159 23.95ZM214.809 35C213.842 35 213.092 34.75 212.559 34.25C212.059 33.7167 211.809 32.9667 211.809 32V31.15C211.809 30.1833 212.059 29.45 212.559 28.95C213.092 28.4167 213.842 28.15 214.809 28.15H215.459C216.426 28.15 217.159 28.4167 217.659 28.95C218.192 29.45 218.459 30.1833 218.459 31.15V32C218.459 32.9667 218.192 33.7167 217.659 34.25C217.159 34.75 216.426 35 215.459 35H214.809Z" fill="#1CC871"/>
<path d="M6.05 0.899998L5.69645 1.25355L5.70626 1.26336L5.7166 1.27262L6.05 0.899998ZM6.05 34.15L6.3834 34.5226L6.3887 34.5179L6.39387 34.513L6.05 34.15ZM1.6 34.15L1.23649 34.4933L1.2414 34.4985L1.24645 34.5036L1.6 34.15ZM1.65 0.899998L1.99331 1.2635L1.9985 1.2586L2.00355 1.25355L1.65 0.899998ZM28.35 0.899998L27.9865 1.24331L27.9914 1.2485L27.9964 1.25355L28.35 0.899998ZM28.3 34.15L28.6536 34.5036L28.3 34.15ZM23.85 34.15L23.4964 34.5036L23.5063 34.5134L23.5166 34.5226L23.85 34.15ZM23.9 0.899998L24.2334 1.27262L24.2387 1.26787L24.2439 1.26297L23.9 0.899998ZM3.8 14.55V14.05H3.3V14.55H3.8ZM26.1 14.55H26.6V14.05H26.1V14.55ZM26.1 20.3V20.8H26.6V20.3H26.1ZM3.8 20.3H3.3V20.8H3.8V20.3ZM3.95 0.499998C4.60872 0.499998 5.1839 0.741007 5.69645 1.25355L6.40355 0.546445C5.7161 -0.141011 4.89128 -0.500002 3.95 -0.500002V0.499998ZM5.7166 1.27262C6.24155 1.74231 6.5 2.32237 6.5 3.05H7.5C7.5 2.0443 7.12512 1.19102 6.3834 0.527377L5.7166 1.27262ZM6.5 3.05V31.95H7.5V3.05H6.5ZM6.5 31.95C6.5 32.6783 6.24054 33.2807 5.70613 33.787L6.39387 34.513C7.12613 33.8193 7.5 32.955 7.5 31.95H6.5ZM5.7166 33.7774C5.17295 34.2638 4.55765 34.5 3.85 34.5V35.5C4.80901 35.5 5.66039 35.1695 6.3834 34.5226L5.7166 33.7774ZM3.85 34.5C3.02569 34.5 2.411 34.2539 1.95355 33.7964L1.24645 34.5036C1.92234 35.1794 2.80765 35.5 3.85 35.5V34.5ZM1.96351 33.8067C1.48923 33.3045 1.25 32.6961 1.25 31.95H0.25C0.25 32.9373 0.577438 33.7955 1.23649 34.4933L1.96351 33.8067ZM1.25 31.95V3.05H0.25V31.95H1.25ZM1.25 3.05C1.25 2.31315 1.49882 1.73053 1.99331 1.2635L1.30669 0.536491C0.601183 1.2028 0.25 2.05351 0.25 3.05H1.25ZM2.00355 1.25355C2.49997 0.757137 3.13471 0.499998 3.95 0.499998V-0.500002C2.89862 -0.500002 2.00003 -0.157142 1.29645 0.546445L2.00355 1.25355ZM26.1 0.499998C26.9156 0.499998 27.5271 0.756863 27.9865 1.24331L28.7135 0.556686C28.0396 -0.156867 27.1511 -0.500002 26.1 -0.500002V0.499998ZM27.9964 1.25355C28.4612 1.71834 28.7 2.30402 28.7 3.05H29.7C29.7 2.06265 29.3721 1.21499 28.7036 0.546445L27.9964 1.25355ZM28.7 3.05V31.95H29.7V3.05H28.7ZM28.7 31.95C28.7 32.6872 28.4505 33.2924 27.9464 33.7964L28.6536 34.5036C29.3495 33.8076 29.7 32.9461 29.7 31.95H28.7ZM27.9464 33.7964C27.4924 34.2505 26.8633 34.5 26 34.5V35.5C27.0701 35.5 27.9743 35.1828 28.6536 34.5036L27.9464 33.7964ZM26 34.5C25.3311 34.5 24.7313 34.2676 24.1834 33.7774L23.5166 34.5226C24.2354 35.1657 25.0689 35.5 26 35.5V34.5ZM24.2036 33.7964C23.6995 33.2924 23.45 32.6872 23.45 31.95H22.45C22.45 32.9461 22.8005 33.8076 23.4964 34.5036L24.2036 33.7964ZM23.45 31.95V3.05H22.45V31.95H23.45ZM23.45 3.05C23.45 2.32237 23.7085 1.74231 24.2334 1.27262L23.5666 0.527377C22.8249 1.19102 22.45 2.0443 22.45 3.05H23.45ZM24.2439 1.26297C24.7891 0.746402 25.4011 0.499998 26.1 0.499998V-0.500002C25.1323 -0.500002 24.2775 -0.146406 23.5561 0.537022L24.2439 1.26297ZM3.8 15.05H26.1V14.05H3.8V15.05ZM25.6 14.55V20.3H26.6V14.55H25.6ZM26.1 19.8H3.8V20.8H26.1V19.8ZM4.3 20.3V14.55H3.3V20.3H4.3ZM60.1875 9.15L59.824 9.49331L59.8289 9.4985L59.8339 9.50355L60.1875 9.15ZM58.0875 32.4L58.4497 32.7447L58.0875 32.4ZM41.0875 32.4L40.7224 32.7416L40.7253 32.7447L41.0875 32.4ZM39.0375 9.15L39.3911 9.50355L39.3961 9.4985L39.401 9.49331L39.0375 9.15ZM43.3375 9.15L42.974 9.49331L42.9789 9.4985L42.9839 9.50355L43.3375 9.15ZM45.5375 28.55L45.1658 28.8845L45.1716 28.8907L45.5375 28.55ZM53.6875 28.55L54.0535 28.8908L54.0591 28.8845L53.6875 28.55ZM55.8875 9.15L56.2411 9.50355L56.2461 9.4985L56.251 9.49331L55.8875 9.15ZM58.0375 8.75C58.7743 8.75 59.357 8.99882 59.824 9.49331L60.551 8.80669C59.8847 8.10118 59.034 7.75 58.0375 7.75V8.75ZM59.8339 9.50355C60.2987 9.96834 60.5375 10.554 60.5375 11.3H61.5375C61.5375 10.3126 61.2096 9.46499 60.5411 8.79645L59.8339 9.50355ZM60.5375 11.3V24H61.5375V11.3H60.5375ZM60.5375 24C60.5375 27.4372 59.5836 30.1026 57.7253 32.0553L58.4497 32.7447C60.5248 30.5641 61.5375 27.6295 61.5375 24H60.5375ZM57.7253 32.0553C55.8789 33.9956 53.1933 35 49.5875 35V36C53.3817 36 56.3628 34.9377 58.4497 32.7447L57.7253 32.0553ZM49.5875 35C45.9817 35 43.2961 33.9956 41.4497 32.0553L40.7253 32.7447C42.8122 34.9377 45.7933 36 49.5875 36V35ZM41.4526 32.0584C39.6261 30.1059 38.6875 27.4395 38.6875 24H37.6875C37.6875 27.6272 38.6822 30.5607 40.7224 32.7416L41.4526 32.0584ZM38.6875 24V11.3H37.6875V24H38.6875ZM38.6875 11.3C38.6875 10.554 38.9263 9.96834 39.3911 9.50355L38.6839 8.79645C38.0154 9.46499 37.6875 10.3126 37.6875 11.3H38.6875ZM39.401 9.49331C39.868 8.99882 40.4507 8.75 41.1875 8.75V7.75C40.191 7.75 39.3403 8.10118 38.674 8.80669L39.401 9.49331ZM41.1875 8.75C41.9243 8.75 42.507 8.99882 42.974 9.49331L43.701 8.80669C43.0347 8.10118 42.184 7.75 41.1875 7.75V8.75ZM42.9839 9.50355C43.4487 9.96834 43.6875 10.554 43.6875 11.3H44.6875C44.6875 10.3126 44.3596 9.46499 43.6911 8.79645L42.9839 9.50355ZM43.6875 11.3V24H44.6875V11.3H43.6875ZM43.6875 24C43.6875 26.0956 44.1498 27.7555 45.1659 28.8845L45.9091 28.2155C45.1252 27.3445 44.6875 25.9711 44.6875 24H43.6875ZM45.1716 28.8907C46.1966 29.9917 47.7009 30.5 49.5875 30.5V29.5C47.8741 29.5 46.6784 29.0416 45.9034 28.2093L45.1716 28.8907ZM49.5875 30.5C51.5042 30.5 53.0267 29.9935 54.0534 28.8907L53.3216 28.2093C52.5483 29.0399 51.3375 29.5 49.5875 29.5V30.5ZM54.0591 28.8845C55.0752 27.7555 55.5375 26.0956 55.5375 24H54.5375C54.5375 25.9711 54.0998 27.3445 53.3159 28.2155L54.0591 28.8845ZM55.5375 24V11.3H54.5375V24H55.5375ZM55.5375 11.3C55.5375 10.554 55.7763 9.96834 56.2411 9.50355L55.5339 8.79645C54.8654 9.46499 54.5375 10.3126 54.5375 11.3H55.5375ZM56.251 9.49331C56.718 8.99882 57.3007 8.75 58.0375 8.75V7.75C57.041 7.75 56.1903 8.10118 55.524 8.80669L56.251 9.49331ZM70.3832 34.15L70.0197 34.4933L70.0246 34.4985L70.0296 34.5036L70.3832 34.15ZM70.3832 9.15L70.7368 9.50355L70.7418 9.4985L70.7467 9.49331L70.3832 9.15ZM74.6832 9.15L74.3197 9.49331L74.3246 9.4985L74.3297 9.50355L74.6832 9.15ZM75.5332 16L75.0359 16.052L76.0332 16H75.5332ZM75.1832 12.65L74.7287 12.4417L74.6717 12.566L74.6859 12.702L75.1832 12.65ZM76.5832 10.55L76.2202 10.2061L76.2197 10.2067L76.5832 10.55ZM78.5832 9L78.8226 9.43895L78.8302 9.43483L78.8376 9.43046L78.5832 9ZM85.9332 8.6L85.6093 8.98108L85.6186 8.98862L85.9332 8.6ZM86.1332 13L86.4511 13.386L86.4576 13.3806L86.464 13.3749L86.1332 13ZM82.5332 13.35L82.3217 13.8032L82.3328 13.8081L82.5332 13.35ZM78.9332 13.45L79.1363 13.907L79.1472 13.9019L78.9332 13.45ZM77.2332 14.75L76.8595 14.4178L76.8542 14.4238L76.8491 14.4299L77.2332 14.75ZM75.9832 17L75.5142 16.8263L75.5107 16.8364L75.9832 17ZM74.6832 34.15L75.0368 34.5036L75.0418 34.4985L75.0467 34.4933L74.6832 34.15ZM72.5332 34.5C71.7872 34.5 71.2015 34.2612 70.7368 33.7964L70.0296 34.5036C70.6982 35.1721 71.5459 35.5 72.5332 35.5V34.5ZM70.7467 33.8067C70.2724 33.3045 70.0332 32.6961 70.0332 31.95H69.0332C69.0332 32.9373 69.3606 33.7955 70.0197 34.4933L70.7467 33.8067ZM70.0332 31.95V11.3H69.0332V31.95H70.0332ZM70.0332 11.3C70.0332 10.554 70.272 9.96834 70.7368 9.50355L70.0296 8.79645C69.3611 9.46499 69.0332 10.3126 69.0332 11.3H70.0332ZM70.7467 9.49331C71.2137 8.99882 71.7964 8.75 72.5332 8.75V7.75C71.5367 7.75 70.686 8.10118 70.0197 8.80669L70.7467 9.49331ZM72.5332 8.75C73.2701 8.75 73.8527 8.99882 74.3197 9.49331L75.0467 8.80669C74.3804 8.10118 73.5297 7.75 72.5332 7.75V8.75ZM74.3297 9.50355C74.7944 9.96834 75.0332 10.554 75.0332 11.3H76.0332C76.0332 10.3126 75.7053 9.46499 75.0368 8.79645L74.3297 9.50355ZM75.0332 11.3V16H76.0332V11.3H75.0332ZM76.0305 15.948L75.6805 12.598L74.6859 12.702L75.0359 16.052L76.0305 15.948ZM75.6377 12.8583C75.9832 12.1047 76.42 11.451 76.9467 10.8933L76.2197 10.2067C75.6131 10.849 75.1166 11.5953 74.7287 12.4417L75.6377 12.8583ZM76.9462 10.8939C77.5118 10.2968 78.1372 9.81281 78.8226 9.43895L78.3438 8.56105C77.5625 8.98718 76.8546 9.53653 76.2202 10.2061L76.9462 10.8939ZM78.8376 9.43046C79.5278 9.02261 80.2647 8.72465 81.0499 8.53619L80.8165 7.5638C79.9351 7.77535 79.1053 8.11072 78.3288 8.56953L78.8376 9.43046ZM81.0499 8.53619C81.8461 8.3451 82.6403 8.25 83.4332 8.25V7.25C82.5595 7.25 81.687 7.35489 80.8165 7.5638L81.0499 8.53619ZM83.4332 8.25C84.3325 8.25 85.0459 8.50204 85.6094 8.98097L86.257 8.21903C85.4871 7.56463 84.5339 7.25 83.4332 7.25V8.25ZM85.6186 8.98862C86.2242 9.47887 86.4832 10.0114 86.4832 10.6H87.4832C87.4832 9.6553 87.0422 8.85446 86.2478 8.21138L85.6186 8.98862ZM86.4832 10.6C86.4832 11.6232 86.22 12.2566 85.8024 12.6251L86.464 13.3749C87.1798 12.7434 87.4832 11.7768 87.4832 10.6H86.4832ZM85.8154 12.614C85.3285 13.0149 84.822 13.2 84.2832 13.2V14.2C85.0778 14.2 85.8045 13.9184 86.4511 13.386L85.8154 12.614ZM84.2832 13.2C83.7127 13.2 83.1984 13.0953 82.7336 12.8919L82.3328 13.8081C82.9347 14.0714 83.587 14.2 84.2832 14.2V13.2ZM82.7446 12.8969C82.1661 12.6269 81.508 12.5 80.7832 12.5V13.5C81.3918 13.5 81.9003 13.6064 82.3218 13.8031L82.7446 12.8969ZM80.7832 12.5C80.0977 12.5 79.4082 12.6717 78.7192 12.9981L79.1472 13.9019C79.7249 13.6283 80.2687 13.5 80.7832 13.5V12.5ZM78.7301 12.9931C78.0522 13.2944 77.4299 13.7762 76.8595 14.4178L77.6069 15.0822C78.1032 14.5238 78.6142 14.1389 79.1363 13.9069L78.7301 12.9931ZM76.8491 14.4299C76.3055 15.0822 75.863 15.8848 75.5143 16.8263L76.4521 17.1737C76.77 16.3152 77.1609 15.6178 77.6173 15.0701L76.8491 14.4299ZM75.5107 16.8364C75.1879 17.7691 75.0332 18.8605 75.0332 20.1H76.0332C76.0332 18.9395 76.1785 17.9642 76.4557 17.1636L75.5107 16.8364ZM75.0332 20.1V31.95H76.0332V20.1H75.0332ZM75.0332 31.95C75.0332 32.6961 74.794 33.3045 74.3197 33.8067L75.0467 34.4933C75.7058 33.7955 76.0332 32.9373 76.0332 31.95H75.0332ZM74.3297 33.7964C73.8649 34.2612 73.2792 34.5 72.5332 34.5V35.5C73.5206 35.5 74.3682 35.1721 75.0368 34.5036L74.3297 33.7964ZM94.0629 34.15L93.6994 34.4933L93.7043 34.4985L93.7093 34.5036L94.0629 34.15ZM94.0629 9.15L94.4164 9.50355L94.4215 9.4985L94.4264 9.49331L94.0629 9.15ZM98.3629 9.15L97.9994 9.49331L98.0043 9.4985L98.0093 9.50355L98.3629 9.15ZM99.2129 16L98.7156 16.052L99.7129 16H99.2129ZM98.8629 12.65L98.4084 12.4417L98.3514 12.566L98.3656 12.702L98.8629 12.65ZM100.263 10.55L99.8999 10.2061L99.8994 10.2067L100.263 10.55ZM102.263 9L102.502 9.43895L102.51 9.43483L102.517 9.43046L102.263 9ZM109.613 8.6L109.289 8.98108L109.298 8.98862L109.613 8.6ZM109.813 13L110.131 13.386L110.137 13.3806L110.144 13.3749L109.813 13ZM106.213 13.35L106.001 13.8032L106.012 13.8081L106.213 13.35ZM102.613 13.45L102.816 13.907L102.827 13.9019L102.613 13.45ZM100.913 14.75L100.539 14.4178L100.534 14.4238L100.529 14.4299L100.913 14.75ZM99.6629 17L99.1939 16.8263L99.1904 16.8364L99.6629 17ZM98.3629 34.15L98.7164 34.5036L98.7215 34.4985L98.7264 34.4933L98.3629 34.15ZM96.2129 34.5C95.4669 34.5 94.8812 34.2612 94.4164 33.7964L93.7093 34.5036C94.3779 35.1721 95.2255 35.5 96.2129 35.5V34.5ZM94.4264 33.8067C93.9521 33.3045 93.7129 32.6961 93.7129 31.95H92.7129C92.7129 32.9373 93.0403 33.7955 93.6994 34.4933L94.4264 33.8067ZM93.7129 31.95V11.3H92.7129V31.95H93.7129ZM93.7129 11.3C93.7129 10.554 93.9517 9.96834 94.4164 9.50355L93.7093 8.79645C93.0408 9.46499 92.7129 10.3126 92.7129 11.3H93.7129ZM94.4264 9.49331C94.8934 8.99882 95.476 8.75 96.2129 8.75V7.75C95.2164 7.75 94.3657 8.10118 93.6994 8.80669L94.4264 9.49331ZM96.2129 8.75C96.9497 8.75 97.5324 8.99882 97.9994 9.49331L98.7264 8.80669C98.0601 8.10118 97.2094 7.75 96.2129 7.75V8.75ZM98.0093 9.50355C98.4741 9.96834 98.7129 10.554 98.7129 11.3H99.7129C99.7129 10.3126 99.385 9.46499 98.7164 8.79645L98.0093 9.50355ZM98.7129 11.3V16H99.7129V11.3H98.7129ZM99.7102 15.948L99.3602 12.598L98.3656 12.702L98.7156 16.052L99.7102 15.948ZM99.3174 12.8583C99.6628 12.1047 100.1 11.451 100.626 10.8933L99.8994 10.2067C99.2928 10.849 98.7963 11.5953 98.4084 12.4417L99.3174 12.8583ZM100.626 10.8939C101.192 10.2968 101.817 9.81281 102.502 9.43895L102.023 8.56105C101.242 8.98718 100.534 9.53653 99.8999 10.2061L100.626 10.8939ZM102.517 9.43046C103.207 9.02261 103.944 8.72465 104.73 8.53619L104.496 7.5638C103.615 7.77535 102.785 8.11072 102.009 8.56953L102.517 9.43046ZM104.73 8.53619C105.526 8.3451 106.32 8.25 107.113 8.25V7.25C106.239 7.25 105.367 7.35489 104.496 7.5638L104.73 8.53619ZM107.113 8.25C108.012 8.25 108.726 8.50204 109.289 8.98097L109.937 8.21903C109.167 7.56463 108.214 7.25 107.113 7.25V8.25ZM109.298 8.98862C109.904 9.47887 110.163 10.0114 110.163 10.6H111.163C111.163 9.6553 110.722 8.85446 109.927 8.21138L109.298 8.98862ZM110.163 10.6C110.163 11.6232 109.9 12.2566 109.482 12.6251L110.144 13.3749C110.859 12.7434 111.163 11.7768 111.163 10.6H110.163ZM109.495 12.614C109.008 13.0149 108.502 13.2 107.963 13.2V14.2C108.757 14.2 109.484 13.9184 110.131 13.386L109.495 12.614ZM107.963 13.2C107.392 13.2 106.878 13.0953 106.413 12.8919L106.012 13.8081C106.614 14.0714 107.267 14.2 107.963 14.2V13.2ZM106.424 12.8969C105.846 12.6269 105.188 12.5 104.463 12.5V13.5C105.071 13.5 105.58 13.6064 106.001 13.8031L106.424 12.8969ZM104.463 12.5C103.777 12.5 103.088 12.6717 102.399 12.9981L102.827 13.9019C103.405 13.6283 103.948 13.5 104.463 13.5V12.5ZM102.41 12.9931C101.732 13.2944 101.11 13.7762 100.539 14.4178L101.287 15.0822C101.783 14.5238 102.294 14.1389 102.816 13.9069L102.41 12.9931ZM100.529 14.4299C99.9852 15.0822 99.5427 15.8848 99.194 16.8263L100.132 17.1737C100.45 16.3152 100.841 15.6178 101.297 15.0701L100.529 14.4299ZM99.1904 16.8364C98.8676 17.7691 98.7129 18.8605 98.7129 20.1H99.7129C99.7129 18.9395 99.8582 17.9642 100.135 17.1636L99.1904 16.8364ZM98.7129 20.1V31.95H99.7129V20.1H98.7129ZM98.7129 31.95C98.7129 32.6961 98.4737 33.3045 97.9994 33.8067L98.7264 34.4933C99.3855 33.7955 99.7129 32.9373 99.7129 31.95H98.7129ZM98.0093 33.7964C97.5445 34.2612 96.9589 34.5 96.2129 34.5V35.5C97.2002 35.5 98.0479 35.1721 98.7164 34.5036L98.0093 33.7964ZM140.357 8.6L140.003 8.95355V8.95355L140.357 8.6ZM140.357 34.15L140.71 34.5036L140.715 34.4985L140.72 34.4933L140.357 34.15ZM136.057 34.15L135.693 34.4933L135.698 34.4985L135.703 34.5036L136.057 34.15ZM135.207 29.5L135.396 29.0372L134.707 28.7552V29.5H135.207ZM136.307 29.95H136.807V29.6143L136.496 29.4872L136.307 29.95ZM135.607 31.55L136.001 31.8571L136.009 31.8466L135.607 31.55ZM133.707 33.35L134.007 33.75L133.707 33.35ZM130.857 34.9L131.032 35.3682L131.04 35.3652L130.857 34.9ZM121.107 33.75L120.836 34.1706L120.842 34.174L121.107 33.75ZM116.657 28.85L116.211 29.0765L116.215 29.0849L116.657 28.85ZM116.657 14.45L116.214 14.218L116.212 14.2207L116.657 14.45ZM121.057 9.55L121.325 9.97186L121.33 9.96835L121.057 9.55ZM131.107 8.4L130.937 8.87028L131.107 8.4ZM134.207 10.05L133.902 10.4464L133.909 10.4518L134.207 10.05ZM136.257 12.1L135.841 12.3773L135.848 12.3889L135.857 12.4L136.257 12.1ZM137.007 13.8L137.176 14.2703L137.507 14.151V13.8H137.007ZM135.207 14.45H134.707V15.1622L135.376 14.9203L135.207 14.45ZM136.057 8.65L136.41 9.00355L136.415 8.9985L136.42 8.99331L136.057 8.65ZM131.957 28.9L131.679 28.484L131.957 28.9ZM134.507 25.9L134.059 25.6763L134.055 25.686L134.507 25.9ZM134.507 17.35L134.055 17.5641L134.059 17.5736L134.507 17.35ZM131.957 14.35L131.679 14.766L131.957 14.35ZM124.307 14.35L124.584 14.766L124.307 14.35ZM121.707 17.35L121.259 17.1263L121.255 17.136L121.707 17.35ZM121.707 25.9L121.255 26.1141L121.259 26.1236L121.707 25.9ZM124.307 28.9L124.584 28.484L124.307 28.9ZM138.207 8.25C138.953 8.25 139.538 8.48876 140.003 8.95355L140.71 8.24645C140.042 7.5779 139.194 7.25 138.207 7.25V8.25ZM140.003 8.95355C140.464 9.41456 140.707 10.0148 140.707 10.8H141.707C141.707 9.78521 141.383 8.91877 140.71 8.24645L140.003 8.95355ZM140.707 10.8V31.95H141.707V10.8H140.707ZM140.707 31.95C140.707 32.6961 140.467 33.3045 139.993 33.8067L140.72 34.4933C141.379 33.7955 141.707 32.9373 141.707 31.95H140.707ZM140.003 33.7964C139.538 34.2612 138.953 34.5 138.207 34.5V35.5C139.194 35.5 140.042 35.1721 140.71 34.5036L140.003 33.7964ZM138.207 34.5C137.461 34.5 136.875 34.2612 136.41 33.7964L135.703 34.5036C136.372 35.1721 137.219 35.5 138.207 35.5V34.5ZM136.42 33.8067C135.946 33.3045 135.707 32.6961 135.707 31.95H134.707C134.707 32.9373 135.034 33.7955 135.693 34.4933L136.42 33.8067ZM135.707 31.95V29.5H134.707V31.95H135.707ZM135.017 29.9628L136.117 30.4128L136.496 29.4872L135.396 29.0372L135.017 29.9628ZM135.807 29.95C135.807 30.2197 135.653 30.6447 135.204 31.2534L136.009 31.8466C136.494 31.1886 136.807 30.547 136.807 29.95H135.807ZM135.212 31.243C134.78 31.7989 134.182 32.3688 133.407 32.95L134.007 33.75C134.832 33.1312 135.5 32.5011 136.001 31.857L135.212 31.243ZM133.407 32.95C132.648 33.5188 131.739 34.015 130.673 34.4348L131.04 35.3652C132.174 34.9184 133.165 34.3812 134.007 33.75L133.407 32.95ZM130.681 34.4318C129.676 34.8086 128.57 35 127.357 35V36C128.677 36 129.903 35.7914 131.032 35.3682L130.681 34.4318ZM127.357 35C125.146 35 123.155 34.4407 121.372 33.326L120.842 34.174C122.791 35.3926 124.967 36 127.357 36V35ZM121.377 33.3294C119.586 32.1782 118.16 30.6106 117.098 28.6151L116.215 29.0849C117.353 31.2228 118.894 32.9218 120.836 34.1706L121.377 33.3294ZM117.102 28.6236C116.076 26.6034 115.557 24.2829 115.557 21.65H114.557C114.557 24.4171 115.104 26.8966 116.211 29.0764L117.102 28.6236ZM115.557 21.65C115.557 18.9825 116.077 16.6636 117.101 14.6793L116.212 14.2207C115.103 16.3697 114.557 18.8508 114.557 21.65H115.557ZM117.1 14.682C118.163 12.6522 119.572 11.0874 121.325 9.97183L120.788 9.12817C118.875 10.346 117.35 12.0478 116.214 14.218L117.1 14.682ZM121.33 9.96835C123.081 8.8227 125.019 8.25 127.157 8.25V7.25C124.828 7.25 122.699 7.8773 120.783 9.13165L121.33 9.96835ZM127.157 8.25C128.539 8.25 129.798 8.45888 130.937 8.87028L131.276 7.92972C130.016 7.47445 128.641 7.25 127.157 7.25V8.25ZM130.937 8.87028C132.096 9.28893 133.082 9.81587 133.902 10.4463L134.511 9.65369C133.598 8.9508 132.517 8.37774 131.276 7.92972L130.937 8.87028ZM133.909 10.4518C134.777 11.0948 135.415 11.7383 135.841 12.3773L136.673 11.8226C136.165 11.0617 135.436 10.3385 134.504 9.64822L133.909 10.4518ZM135.857 12.4C136.337 13.0401 136.507 13.498 136.507 13.8H137.507C137.507 13.1686 137.177 12.4932 136.657 11.8L135.857 12.4ZM136.837 13.3297L135.037 13.9797L135.376 14.9203L137.176 14.2703L136.837 13.3297ZM135.707 14.45V10.8H134.707V14.45H135.707ZM135.707 10.8C135.707 10.054 135.945 9.46834 136.41 9.00355L135.703 8.29645C135.035 8.96499 134.707 9.81265 134.707 10.8H135.707ZM136.42 8.99331C136.887 8.49882 137.47 8.25 138.207 8.25V7.25C137.21 7.25 136.359 7.60118 135.693 8.30669L136.42 8.99331ZM128.107 30.5C129.661 30.5 131.043 30.11 132.234 29.316L131.679 28.484C130.67 29.1566 129.486 29.5 128.107 29.5V30.5ZM132.234 29.316C133.414 28.5294 134.322 27.4575 134.959 26.114L134.055 25.686C133.491 26.8759 132.699 27.804 131.679 28.484L132.234 29.316ZM134.954 26.1236C135.625 24.7804 135.957 23.2859 135.957 21.65H134.957C134.957 23.1474 134.654 24.4863 134.059 25.6764L134.954 26.1236ZM135.957 21.65C135.957 19.9825 135.626 18.471 134.954 17.1264L134.059 17.5736C134.654 18.7623 134.957 20.1175 134.957 21.65H135.957ZM134.959 17.136C134.322 15.7925 133.414 14.7206 132.234 13.934L131.679 14.766C132.699 15.446 133.491 16.3741 134.055 17.564L134.959 17.136ZM132.234 13.934C131.043 13.14 129.661 12.75 128.107 12.75V13.75C129.486 13.75 130.67 14.0934 131.679 14.766L132.234 13.934ZM128.107 12.75C126.583 12.75 125.218 13.1413 124.029 13.934L124.584 14.766C125.595 14.0921 126.763 13.75 128.107 13.75V12.75ZM124.029 13.934C122.852 14.719 121.929 15.7876 121.259 17.1264L122.154 17.5736C122.751 16.379 123.562 15.4477 124.584 14.766L124.029 13.934ZM121.255 17.136C120.619 18.4784 120.307 19.9865 120.307 21.65H121.307C121.307 20.1135 121.594 18.7549 122.159 17.564L121.255 17.136ZM120.307 21.65C120.307 23.2819 120.62 24.773 121.255 26.114L122.159 25.686C121.594 24.4937 121.307 23.1514 121.307 21.65H120.307ZM121.259 26.1236C121.929 27.4624 122.852 28.531 124.029 29.316L124.584 28.484C123.562 27.8023 122.751 26.871 122.154 25.6764L121.259 26.1236ZM124.029 29.316C125.218 30.1087 126.583 30.5 128.107 30.5V29.5C126.763 29.5 125.595 29.1579 124.584 28.484L124.029 29.316ZM171.703 9.15L171.34 9.49331L171.345 9.4985L171.35 9.50355L171.703 9.15ZM170.803 39.85L170.383 39.578L170.378 39.5871L170.803 39.85ZM166.203 43.8L166.394 44.262L166.203 43.8ZM153.353 44L153.552 43.5415L153.552 43.5412L153.353 44ZM151.253 42.35L150.82 42.6005L150.824 42.6072L151.253 42.35ZM151.053 40.3L151.53 40.4516L151.531 40.4482L151.053 40.3ZM152.503 38.3L152.28 37.8528L152.271 37.8572L152.262 37.8619L152.503 38.3ZM154.603 38.2L154.432 38.6699L154.443 38.6738L154.454 38.6772L154.603 38.2ZM156.703 38.95L156.898 38.4895L156.89 38.4863L156.883 38.4833L156.703 38.95ZM163.503 38.85L163.323 38.3837L163.313 38.3873L163.304 38.3912L163.503 38.85ZM165.803 36.75L165.365 36.5085L165.36 36.5173L165.356 36.5264L165.803 36.75ZM166.603 29.4L166.979 29.0707L166.103 28.0693V29.4H166.603ZM167.653 30.6L168.098 30.829L168.253 30.5267L168.029 30.2707L167.653 30.6ZM165.503 33.35L165.825 33.7329L165.826 33.7317L165.503 33.35ZM162.503 34.95L162.353 34.473L162.503 34.95ZM153.853 34.3L153.583 34.7209L153.59 34.7249L153.596 34.7287L153.853 34.3ZM150.803 30.9L150.356 31.1236L150.358 31.1277L150.803 30.9ZM150.553 9.15L150.907 9.50355L150.912 9.4985L150.917 9.49331L150.553 9.15ZM154.853 9.15L154.49 9.49331L154.495 9.4985L154.5 9.50355L154.853 9.15ZM157.103 28.7L156.756 29.0599L156.763 29.0662L156.769 29.0723L157.103 28.7ZM164.053 29.35L164.291 29.7896L164.298 29.7859L164.305 29.7819L164.053 29.35ZM165.903 27.35L166.35 27.5736L166.354 27.5669L165.903 27.35ZM167.403 9.15L167.757 9.50355L167.762 9.4985L167.767 9.49331L167.403 9.15ZM169.553 8.75C170.29 8.75 170.873 8.99882 171.34 9.49331L172.067 8.80669C171.4 8.10118 170.55 7.75 169.553 7.75V8.75ZM171.35 9.50355C171.814 9.96834 172.053 10.554 172.053 11.3H173.053C173.053 10.3126 172.725 9.46499 172.057 8.79645L171.35 9.50355ZM172.053 11.3V32.55H173.053V11.3H172.053ZM172.053 32.55C172.053 35.5597 171.48 37.8868 170.384 39.5781L171.223 40.1219C172.46 38.2132 173.053 35.6737 173.053 32.55H172.053ZM170.378 39.5871C169.298 41.334 167.845 42.5794 166.012 43.338L166.394 44.262C168.428 43.4206 170.042 42.0327 171.228 40.1129L170.378 39.5871ZM166.012 43.338C164.147 44.1095 162.047 44.5 159.703 44.5V45.5C162.159 45.5 164.392 45.0905 166.394 44.262L166.012 43.338ZM159.703 44.5C158.662 44.5 157.552 44.4187 156.372 44.2548L156.234 45.2452C157.454 45.4147 158.611 45.5 159.703 45.5V44.5ZM156.372 44.2548C155.199 44.0918 154.263 43.8506 153.552 43.5415L153.154 44.4585C153.976 44.8161 155.008 45.0749 156.234 45.2452L156.372 44.2548ZM153.552 43.5412C152.61 43.1332 152.01 42.6404 151.682 42.0928L150.824 42.6072C151.296 43.393 152.096 44.0001 153.154 44.4588L153.552 43.5412ZM151.686 42.0995C151.394 41.595 151.336 41.0585 151.53 40.4516L150.577 40.1484C150.303 41.0081 150.379 41.8384 150.82 42.6005L151.686 42.0995ZM151.531 40.4482C151.805 39.5632 152.224 39.024 152.744 38.7381L152.262 37.8619C151.449 38.3093 150.901 39.1035 150.576 40.1518L151.531 40.4482ZM152.727 38.7472C153.264 38.4784 153.821 38.4477 154.432 38.6699L154.774 37.7301C153.918 37.419 153.075 37.4549 152.28 37.8528L152.727 38.7472ZM154.454 38.6772C154.973 38.8393 155.661 39.085 156.524 39.4167L156.883 38.4833C156.012 38.1483 155.3 37.894 154.752 37.7228L154.454 38.6772ZM156.508 39.4105C157.448 39.808 158.516 40 159.703 40V39C158.623 39 157.692 38.8254 156.898 38.4895L156.508 39.4105ZM159.703 40C161.279 40 162.619 39.778 163.702 39.3088L163.304 38.3912C162.387 38.7887 161.194 39 159.703 39V40ZM163.684 39.3163C164.834 38.8709 165.695 38.0837 166.25 36.9736L165.356 36.5264C164.911 37.4163 164.239 38.0291 163.323 38.3837L163.684 39.3163ZM166.241 36.9915C166.831 35.9215 167.103 34.4929 167.103 32.75H166.103C166.103 34.4072 165.842 35.6452 165.365 36.5085L166.241 36.9915ZM167.103 32.75V29.4H166.103V32.75H167.103ZM166.227 29.7293L167.277 30.9293L168.029 30.2707L166.979 29.0707L166.227 29.7293ZM167.209 30.371C166.669 31.4179 165.992 32.2811 165.18 32.9683L165.826 33.7317C166.747 32.9523 167.504 31.9821 168.098 30.829L167.209 30.371ZM165.182 32.9671C164.405 33.6198 163.465 34.1237 162.353 34.473L162.653 35.427C163.875 35.043 164.935 34.4802 165.825 33.7329L165.182 32.9671ZM162.353 34.473C161.245 34.8214 159.963 35 158.503 35V36C160.043 36 161.428 35.8119 162.653 35.427L162.353 34.473ZM158.503 35C156.814 35 155.356 34.6185 154.11 33.8713L153.596 34.7287C155.017 35.5815 156.658 36 158.503 36V35ZM154.123 33.8791C152.901 33.0956 151.943 32.0303 151.248 30.6723L150.358 31.1277C151.13 32.6363 152.206 33.8378 153.583 34.7209L154.123 33.8791ZM151.25 30.6764C150.556 29.2882 150.203 27.6998 150.203 25.9H149.203C149.203 27.8335 149.583 29.5785 150.356 31.1236L151.25 30.6764ZM150.203 25.9V11.3H149.203V25.9H150.203ZM150.203 11.3C150.203 10.554 150.442 9.96834 150.907 9.50355L150.2 8.79645C149.531 9.46499 149.203 10.3126 149.203 11.3H150.203ZM150.917 9.49331C151.384 8.99882 151.966 8.75 152.703 8.75V7.75C151.707 7.75 150.856 8.10118 150.19 8.80669L150.917 9.49331ZM152.703 8.75C153.44 8.75 154.023 8.99882 154.49 9.49331L155.217 8.80669C154.55 8.10118 153.7 7.75 152.703 7.75V8.75ZM154.5 9.50355C154.964 9.96834 155.203 10.554 155.203 11.3H156.203C156.203 10.3126 155.875 9.46499 155.207 8.79645L154.5 9.50355ZM155.203 11.3V24.1H156.203V11.3H155.203ZM155.203 24.1C155.203 26.3159 155.677 28.019 156.756 29.0599L157.45 28.3401C156.663 27.581 156.203 26.2174 156.203 24.1H155.203ZM156.769 29.0723C157.853 30.0439 159.319 30.5 161.103 30.5V29.5C159.487 29.5 158.286 29.0894 157.437 28.3277L156.769 29.0723ZM161.103 30.5C162.33 30.5 163.4 30.2722 164.291 29.7896L163.815 28.9104C163.106 29.2944 162.21 29.5 161.103 29.5V30.5ZM164.305 29.7819C165.193 29.2639 165.876 28.523 166.35 27.5736L165.456 27.1264C165.064 27.9104 164.513 28.5027 163.801 28.9181L164.305 29.7819ZM166.354 27.5669C166.827 26.5836 167.053 25.4222 167.053 24.1H166.053C166.053 25.3111 165.846 26.3164 165.453 27.1331L166.354 27.5669ZM167.053 24.1V11.3H166.053V24.1H167.053ZM167.053 11.3C167.053 10.554 167.292 9.96834 167.757 9.50355L167.05 8.79645C166.381 9.46499 166.053 10.3126 166.053 11.3H167.053ZM167.767 9.49331C168.234 8.99882 168.816 8.75 169.553 8.75V7.75C168.557 7.75 167.706 8.10118 167.04 8.80669L167.767 9.49331ZM182.649 22.05L182.15 22.0893V22.0894L182.649 22.05ZM181.199 3.65L180.7 3.68219L180.7 3.68928L181.199 3.65ZM181.999 1.05L181.628 0.714422L181.619 0.724603L181.999 1.05ZM186.899 1.05L186.528 1.38546V1.38546L186.899 1.05ZM187.699 3.65L187.201 3.60183L187.2 3.61206L187.699 3.65ZM186.299 22.05L186.797 22.0894L186.797 22.0879L186.299 22.05ZM181.899 34.25L181.534 34.592L181.545 34.6037L181.557 34.6148L181.899 34.25ZM181.899 28.95L181.545 28.5964L181.899 28.95ZM186.999 28.95L186.634 29.292L186.645 29.3037L186.657 29.3148L186.999 28.95ZM186.999 34.25L187.352 34.6036L186.999 34.25ZM184.499 23.45C184.027 23.45 183.734 23.3208 183.545 23.1262C183.347 22.9231 183.192 22.5774 183.147 22.0106L182.15 22.0894C182.206 22.7892 182.409 23.3936 182.828 23.8238C183.255 24.2625 183.837 24.45 184.499 24.45V23.45ZM183.147 22.0107L181.697 3.61072L180.7 3.68928L182.15 22.0893L183.147 22.0107ZM181.698 3.61781C181.638 2.69723 181.874 1.96381 182.378 1.37539L181.619 0.724603C180.924 1.53619 180.626 2.5361 180.7 3.68219L181.698 3.61781ZM182.37 1.38546C182.902 0.797039 183.581 0.499998 184.449 0.499998V-0.500002C183.317 -0.500002 182.362 -0.097043 181.628 0.714542L182.37 1.38546ZM184.449 0.499998C185.317 0.499998 185.996 0.797039 186.528 1.38546L187.27 0.714542C186.535 -0.097043 185.581 -0.500002 184.449 -0.500002V0.499998ZM186.528 1.38546C187.057 1.97006 187.289 2.69295 187.201 3.60184L188.197 3.69816C188.309 2.54038 188.007 1.52994 187.27 0.714542L186.528 1.38546ZM187.2 3.61206L185.8 22.0121L186.797 22.0879L188.197 3.68793L187.2 3.61206ZM185.8 22.0106C185.755 22.5805 185.603 22.928 185.411 23.1311C185.229 23.3235 184.95 23.45 184.499 23.45V24.45C185.148 24.45 185.719 24.2598 186.137 23.8189C186.544 23.3887 186.742 22.7862 186.797 22.0894L185.8 22.0106ZM184.149 34.5C183.267 34.5 182.655 34.2733 182.241 33.8852L181.557 34.6148C182.21 35.2267 183.097 35.5 184.149 35.5V34.5ZM182.264 33.908C181.875 33.494 181.649 32.8816 181.649 32H180.649C180.649 33.0517 180.922 33.9393 181.534 34.592L182.264 33.908ZM181.649 32V31.15H180.649V32H181.649ZM181.649 31.15C181.649 30.2661 181.876 29.6796 182.252 29.3036L181.545 28.5964C180.921 29.2204 180.649 30.1006 180.649 31.15H181.649ZM182.252 29.3036C182.667 28.8884 183.276 28.65 184.149 28.65V27.65C183.089 27.65 182.197 27.9449 181.545 28.5964L182.252 29.3036ZM184.149 28.65H184.799V27.65H184.149V28.65ZM184.799 28.65C185.674 28.65 186.256 28.8891 186.634 29.292L187.364 28.608C186.741 27.9443 185.857 27.65 184.799 27.65V28.65ZM186.657 29.3148C187.06 29.6925 187.299 30.2749 187.299 31.15H188.299C188.299 30.0918 188.005 29.2075 187.341 28.5852L186.657 29.3148ZM187.299 31.15V32H188.299V31.15H187.299ZM187.299 32C187.299 32.8732 187.06 33.4813 186.645 33.8964L187.352 34.6036C188.004 33.952 188.299 33.0602 188.299 32H187.299ZM186.645 33.8964C186.269 34.2725 185.683 34.5 184.799 34.5V35.5C185.848 35.5 186.728 35.2275 187.352 34.6036L186.645 33.8964ZM184.799 34.5H184.149V35.5H184.799V34.5ZM197.979 22.05L197.48 22.0893V22.0894L197.979 22.05ZM196.529 3.65L196.03 3.68219L196.03 3.68928L196.529 3.65ZM197.329 1.05L196.958 0.714422L196.949 0.724603L197.329 1.05ZM202.229 1.05L201.858 1.38546V1.38546L202.229 1.05ZM203.029 3.65L202.531 3.60183L202.53 3.61206L203.029 3.65ZM201.629 22.05L202.127 22.0894L202.127 22.0879L201.629 22.05ZM197.229 34.25L196.864 34.592L196.875 34.6037L196.887 34.6148L197.229 34.25ZM197.229 28.95L196.875 28.5964L197.229 28.95ZM202.329 28.95L201.964 29.292L201.975 29.3037L201.987 29.3148L202.329 28.95ZM202.329 34.25L202.682 34.6036L202.329 34.25ZM199.829 23.45C199.357 23.45 199.064 23.3208 198.875 23.1262C198.677 22.9231 198.522 22.5774 198.477 22.0106L197.48 22.0894C197.536 22.7892 197.739 23.3936 198.158 23.8238C198.585 24.2625 199.167 24.45 199.829 24.45V23.45ZM198.477 22.0107L197.027 3.61072L196.03 3.68928L197.48 22.0893L198.477 22.0107ZM197.028 3.61781C196.968 2.69723 197.204 1.96381 197.709 1.37539L196.949 0.724603C196.254 1.53619 195.956 2.5361 196.03 3.68219L197.028 3.61781ZM197.7 1.38546C198.232 0.797039 198.911 0.499998 199.779 0.499998V-0.500002C198.647 -0.500002 197.692 -0.097043 196.958 0.714542L197.7 1.38546ZM199.779 0.499998C200.647 0.499998 201.326 0.797039 201.858 1.38546L202.6 0.714542C201.865 -0.097043 200.911 -0.500002 199.779 -0.500002V0.499998ZM201.858 1.38546C202.387 1.97006 202.619 2.69295 202.531 3.60184L203.527 3.69816C203.639 2.54038 203.337 1.52994 202.6 0.714542L201.858 1.38546ZM202.53 3.61206L201.13 22.0121L202.127 22.0879L203.527 3.68793L202.53 3.61206ZM201.13 22.0106C201.085 22.5805 200.933 22.928 200.741 23.1311C200.559 23.3235 200.28 23.45 199.829 23.45V24.45C200.478 24.45 201.049 24.2598 201.467 23.8189C201.874 23.3887 202.072 22.7862 202.127 22.0894L201.13 22.0106ZM199.479 34.5C198.597 34.5 197.985 34.2733 197.571 33.8852L196.887 34.6148C197.54 35.2267 198.427 35.5 199.479 35.5V34.5ZM197.594 33.908C197.206 33.494 196.979 32.8816 196.979 32H195.979C195.979 33.0517 196.252 33.9393 196.864 34.592L197.594 33.908ZM196.979 32V31.15H195.979V32H196.979ZM196.979 31.15C196.979 30.2661 197.206 29.6796 197.582 29.3036L196.875 28.5964C196.251 29.2204 195.979 30.1006 195.979 31.15H196.979ZM197.582 29.3036C197.998 28.8884 198.606 28.65 199.479 28.65V27.65C198.419 27.65 197.527 27.9449 196.875 28.5964L197.582 29.3036ZM199.479 28.65H200.129V27.65H199.479V28.65ZM200.129 28.65C201.004 28.65 201.586 28.8891 201.964 29.292L202.694 28.608C202.071 27.9443 201.187 27.65 200.129 27.65V28.65ZM201.987 29.3148C202.39 29.6925 202.629 30.2749 202.629 31.15H203.629C203.629 30.0918 203.335 29.2075 202.671 28.5852L201.987 29.3148ZM202.629 31.15V32H203.629V31.15H202.629ZM202.629 32C202.629 32.8732 202.39 33.4813 201.975 33.8964L202.682 34.6036C203.334 33.952 203.629 33.0602 203.629 32H202.629ZM201.975 33.8964C201.599 34.2725 201.013 34.5 200.129 34.5V35.5C201.178 35.5 202.059 35.2275 202.682 34.6036L201.975 33.8964ZM200.129 34.5H199.479V35.5H200.129V34.5ZM213.309 22.05L212.811 22.0893V22.0894L213.309 22.05ZM211.859 3.65L211.36 3.68219L211.361 3.68928L211.859 3.65ZM212.659 1.05L212.288 0.714422L212.279 0.724603L212.659 1.05ZM217.559 1.05L217.188 1.38546V1.38546L217.559 1.05ZM218.359 3.65L217.861 3.60183L217.86 3.61206L218.359 3.65ZM216.959 22.05L217.457 22.0894L217.458 22.0879L216.959 22.05ZM212.559 34.25L212.194 34.592L212.205 34.6037L212.217 34.6148L212.559 34.25ZM212.559 28.95L212.205 28.5964L212.559 28.95ZM217.659 28.95L217.294 29.292L217.305 29.3037L217.317 29.3148L217.659 28.95ZM217.659 34.25L218.013 34.6036L217.659 34.25ZM215.159 23.45C214.687 23.45 214.394 23.3208 214.205 23.1262C214.007 22.9231 213.852 22.5774 213.807 22.0106L212.811 22.0894C212.866 22.7892 213.069 23.3936 213.488 23.8238C213.915 24.2625 214.497 24.45 215.159 24.45V23.45ZM213.807 22.0107L212.357 3.61072L211.361 3.68928L212.811 22.0893L213.807 22.0107ZM212.358 3.61781C212.299 2.69723 212.534 1.96381 213.039 1.37539L212.279 0.724603C211.584 1.53619 211.286 2.5361 211.36 3.68219L212.358 3.61781ZM213.03 1.38546C213.562 0.797039 214.241 0.499998 215.109 0.499998V-0.500002C213.977 -0.500002 213.023 -0.097043 212.288 0.714542L213.03 1.38546ZM215.109 0.499998C215.977 0.499998 216.656 0.797039 217.188 1.38546L217.93 0.714542C217.195 -0.097043 216.241 -0.500002 215.109 -0.500002V0.499998ZM217.188 1.38546C217.717 1.97006 217.949 2.69295 217.861 3.60184L218.857 3.69816C218.969 2.54038 218.667 1.52994 217.93 0.714542L217.188 1.38546ZM217.86 3.61206L216.46 22.0121L217.458 22.0879L218.858 3.68793L217.86 3.61206ZM216.461 22.0106C216.416 22.5805 216.263 22.928 216.071 23.1311C215.889 23.3235 215.61 23.45 215.159 23.45V24.45C215.808 24.45 216.379 24.2598 216.797 23.8189C217.205 23.3887 217.402 22.7862 217.457 22.0894L216.461 22.0106ZM214.809 34.5C213.927 34.5 213.315 34.2733 212.901 33.8852L212.217 34.6148C212.87 35.2267 213.757 35.5 214.809 35.5V34.5ZM212.924 33.908C212.536 33.494 212.309 32.8816 212.309 32H211.309C211.309 33.0517 211.582 33.9393 212.194 34.592L212.924 33.908ZM212.309 32V31.15H211.309V32H212.309ZM212.309 31.15C212.309 30.2661 212.536 29.6796 212.913 29.3036L212.205 28.5964C211.581 29.2204 211.309 30.1006 211.309 31.15H212.309ZM212.913 29.3036C213.328 28.8884 213.936 28.65 214.809 28.65V27.65C213.749 27.65 212.857 27.9449 212.205 28.5964L212.913 29.3036ZM214.809 28.65H215.459V27.65H214.809V28.65ZM215.459 28.65C216.334 28.65 216.916 28.8891 217.294 29.292L218.024 28.608C217.401 27.9443 216.517 27.65 215.459 27.65V28.65ZM217.317 29.3148C217.72 29.6925 217.959 30.2749 217.959 31.15H218.959C218.959 30.0918 218.665 29.2075 218.001 28.5852L217.317 29.3148ZM217.959 31.15V32H218.959V31.15H217.959ZM217.959 32C217.959 32.8732 217.721 33.4813 217.305 33.8964L218.013 34.6036C218.664 33.952 218.959 33.0602 218.959 32H217.959ZM217.305 33.8964C216.929 34.2725 216.343 34.5 215.459 34.5V35.5C216.508 35.5 217.389 35.2275 218.013 34.6036L217.305 33.8964ZM215.459 34.5H214.809V35.5H215.459V34.5Z" fill="#00B359" mask="url(#path-1-outside-1_81_563)"/>
</svg>
