<svg width="219" height="45" fill="none" xmlns="http://www.w3.org/2000/svg"><mask id="a" maskUnits="userSpaceOnUse" x="0" y="-1" width="219" height="47" fill="#000"><path fill="#fff" d="M0-1h219v47H0z"/><path d="M3.95 0c.8 0 1.5.3 2.1.9.633.567.95 1.283.95 2.15v28.9c0 .867-.317 1.6-.95 2.2a3.2 3.2 0 0 1-2.2.85c-.933 0-1.683-.283-2.25-.85-.567-.6-.85-1.333-.85-2.2V3.05c0-.867.3-1.583.9-2.15.6-.6 1.367-.9 2.3-.9ZM26.1 0c.933 0 1.683.3 2.25.9.567.567.85 1.283.85 2.15v28.9c0 .867-.3 1.6-.9 2.2-.567.567-1.333.85-2.3.85-.8 0-1.517-.283-2.15-.85-.6-.6-.9-1.333-.9-2.2V3.05c0-.867.317-1.583.95-2.15.633-.6 1.367-.9 2.2-.9ZM3.8 14.55h22.3v5.75H3.8v-5.75Zm54.237-6.3c.867 0 1.584.3 2.15.9.567.567.85 1.283.85 2.15V24c0 3.533-.983 6.333-2.95 8.4-1.966 2.067-4.8 3.1-8.5 3.1s-6.533-1.033-8.5-3.1c-1.933-2.067-2.9-4.867-2.9-8.4V11.3c0-.867.284-1.583.85-2.15.567-.6 1.284-.9 2.15-.9.867 0 1.584.3 2.15.9.567.567.85 1.283.85 2.15V24c0 2.033.45 3.55 1.35 4.55.9.967 2.25 1.45 4.05 1.45 1.834 0 3.2-.483 4.1-1.45.9-1 1.35-2.517 1.35-4.55V11.3c0-.867.284-1.583.85-2.15.567-.6 1.284-.9 2.15-.9ZM72.533 35c-.867 0-1.583-.283-2.15-.85-.566-.6-.85-1.333-.85-2.2V11.3c0-.867.284-1.583.85-2.15.567-.6 1.284-.9 2.15-.9.867 0 1.584.3 2.15.9.567.567.85 1.283.85 2.15V16l-.35-3.35c.367-.8.833-1.5 1.4-2.1a8.07 8.07 0 0 1 2-1.55 8.486 8.486 0 0 1 2.35-.95c.833-.2 1.667-.3 2.5-.3 1 0 1.833.283 2.5.85.7.567 1.05 1.233 1.05 2 0 1.1-.283 1.9-.85 2.4-.566.467-1.183.7-1.85.7a4.319 4.319 0 0 1-1.75-.35c-.5-.233-1.083-.35-1.75-.35-.6 0-1.216.15-1.85.45-.6.267-1.167.7-1.7 1.3-.5.6-.916 1.35-1.25 2.25-.3.867-.45 1.9-.45 3.1v11.85c0 .867-.283 1.6-.85 2.2-.567.567-1.283.85-2.15.85Zm23.68 0c-.867 0-1.583-.283-2.15-.85-.567-.6-.85-1.333-.85-2.2V11.3c0-.867.283-1.583.85-2.15.567-.6 1.283-.9 2.15-.9s1.583.3 2.15.9c.567.567.85 1.283.85 2.15V16l-.35-3.35c.367-.8.833-1.5 1.4-2.1a8.075 8.075 0 0 1 2-1.55 8.486 8.486 0 0 1 2.35-.95c.833-.2 1.667-.3 2.5-.3 1 0 1.833.283 2.5.85.7.567 1.05 1.233 1.05 2 0 1.1-.283 1.9-.85 2.4-.567.467-1.183.7-1.85.7a4.319 4.319 0 0 1-1.75-.35c-.5-.233-1.083-.35-1.75-.35-.6 0-1.217.15-1.85.45-.6.267-1.167.7-1.7 1.3-.5.6-.917 1.35-1.25 2.25-.3.867-.45 1.9-.45 3.1v11.85c0 .867-.283 1.6-.85 2.2-.567.567-1.283.85-2.15.85Zm41.994-27.25c.866 0 1.583.283 2.15.85.566.567.85 1.3.85 2.2v21.15c0 .867-.284 1.6-.85 2.2-.567.567-1.284.85-2.15.85-.867 0-1.584-.283-2.15-.85-.567-.6-.85-1.333-.85-2.2V29.5l1.1.45c0 .433-.234.967-.7 1.6-.467.6-1.1 1.2-1.9 1.8-.8.6-1.75 1.117-2.85 1.55-1.067.4-2.234.6-3.5.6-2.3 0-4.384-.583-6.25-1.75-1.867-1.2-3.35-2.833-4.45-4.9-1.067-2.1-1.6-4.5-1.6-7.2 0-2.733.533-5.133 1.6-7.2 1.1-2.1 2.566-3.733 4.4-4.9 1.833-1.2 3.866-1.8 6.1-1.8 1.433 0 2.75.217 3.95.65 1.2.433 2.233.983 3.1 1.65.9.667 1.583 1.35 2.05 2.05.5.667.75 1.233.75 1.7l-1.8.65V10.8c0-.867.283-1.583.85-2.15.566-.6 1.283-.9 2.15-.9ZM128.107 30c1.466 0 2.75-.367 3.85-1.1 1.1-.733 1.95-1.733 2.55-3 .633-1.267.95-2.683.95-4.25 0-1.6-.317-3.033-.95-4.3-.6-1.267-1.45-2.267-2.55-3-1.1-.733-2.384-1.1-3.85-1.1-1.434 0-2.7.367-3.8 1.1-1.1.733-1.967 1.733-2.6 3-.6 1.267-.9 2.7-.9 4.3 0 1.567.3 2.983.9 4.25.633 1.267 1.5 2.267 2.6 3 1.1.733 2.366 1.1 3.8 1.1Zm41.446-21.75c.867 0 1.583.3 2.15.9.567.567.85 1.283.85 2.15v21.25c0 3.067-.583 5.5-1.75 7.3-1.133 1.833-2.667 3.15-4.6 3.95-1.933.8-4.1 1.2-6.5 1.2-1.067 0-2.2-.083-3.4-.25-1.2-.167-2.183-.417-2.95-.75-1-.433-1.7-.983-2.1-1.65-.367-.633-.433-1.317-.2-2.05.3-.967.783-1.633 1.45-2 .667-.333 1.367-.367 2.1-.1a36.63 36.63 0 0 1 2.1.75c.867.367 1.867.55 3 .55 1.533 0 2.8-.217 3.8-.65 1.033-.4 1.8-1.1 2.3-2.1.533-.967.8-2.3.8-4V29.4l1.05 1.2c-.567 1.1-1.283 2.017-2.15 2.75-.833.7-1.833 1.233-3 1.6s-2.5.55-4 .55c-1.767 0-3.317-.4-4.65-1.2-1.3-.833-2.317-1.967-3.05-3.4-.733-1.467-1.1-3.133-1.1-5V11.3c0-.867.283-1.583.85-2.15.567-.6 1.283-.9 2.15-.9s1.583.3 2.15.9c.567.567.85 1.283.85 2.15v12.8c0 2.167.467 3.7 1.4 4.6.967.867 2.3 1.3 4 1.3 1.167 0 2.15-.217 2.95-.65.8-.467 1.417-1.133 1.85-2 .433-.9.65-1.983.65-3.25V11.3c0-.867.283-1.583.85-2.15.567-.6 1.283-.9 2.15-.9Zm14.946 15.7c-1.134 0-1.75-.633-1.85-1.9l-1.45-18.4c-.067-1.033.2-1.9.8-2.6.633-.7 1.45-1.05 2.45-1.05 1 0 1.816.35 2.45 1.05.633.7.9 1.567.8 2.6l-1.4 18.4c-.1 1.267-.7 1.9-1.8 1.9Zm-.35 11.05c-.967 0-1.717-.25-2.25-.75-.5-.533-.75-1.283-.75-2.25v-.85c0-.967.25-1.7.75-2.2.533-.533 1.283-.8 2.25-.8h.65c.966 0 1.7.267 2.2.8.533.5.8 1.233.8 2.2V32c0 .967-.267 1.717-.8 2.25-.5.5-1.234.75-2.2.75h-.65Zm15.68-11.05c-1.133 0-1.75-.633-1.85-1.9l-1.45-18.4c-.067-1.033.2-1.9.8-2.6.633-.7 1.45-1.05 2.45-1.05 1 0 1.817.35 2.45 1.05.633.7.9 1.567.8 2.6l-1.4 18.4c-.1 1.267-.7 1.9-1.8 1.9Zm-.35 11.05c-.967 0-1.717-.25-2.25-.75-.5-.533-.75-1.283-.75-2.25v-.85c0-.967.25-1.7.75-2.2.533-.533 1.283-.8 2.25-.8h.65c.967 0 1.7.267 2.2.8.533.5.8 1.233.8 2.2V32c0 .967-.267 1.717-.8 2.25-.5.5-1.233.75-2.2.75h-.65Zm15.68-11.05c-1.133 0-1.75-.633-1.85-1.9l-1.45-18.4c-.067-1.033.2-1.9.8-2.6.633-.7 1.45-1.05 2.45-1.05 1 0 1.817.35 2.45 1.05.633.7.9 1.567.8 2.6l-1.4 18.4c-.1 1.267-.7 1.9-1.8 1.9Zm-.35 11.05c-.967 0-1.717-.25-2.25-.75-.5-.533-.75-1.283-.75-2.25v-.85c0-.967.25-1.7.75-2.2.533-.533 1.283-.8 2.25-.8h.65c.967 0 1.7.267 2.2.8.533.5.8 1.233.8 2.2V32c0 .967-.267 1.717-.8 2.25-.5.5-1.233.75-2.2.75h-.65Z"/></mask><path d="M3.95 0c.8 0 1.5.3 2.1.9.633.567.95 1.283.95 2.15v28.9c0 .867-.317 1.6-.95 2.2a3.2 3.2 0 0 1-2.2.85c-.933 0-1.683-.283-2.25-.85-.567-.6-.85-1.333-.85-2.2V3.05c0-.867.3-1.583.9-2.15.6-.6 1.367-.9 2.3-.9ZM26.1 0c.933 0 1.683.3 2.25.9.567.567.85 1.283.85 2.15v28.9c0 .867-.3 1.6-.9 2.2-.567.567-1.333.85-2.3.85-.8 0-1.517-.283-2.15-.85-.6-.6-.9-1.333-.9-2.2V3.05c0-.867.317-1.583.95-2.15.633-.6 1.367-.9 2.2-.9ZM3.8 14.55h22.3v5.75H3.8v-5.75Zm54.237-6.3c.867 0 1.584.3 2.15.9.567.567.85 1.283.85 2.15V24c0 3.533-.983 6.333-2.95 8.4-1.966 2.067-4.8 3.1-8.5 3.1s-6.533-1.033-8.5-3.1c-1.933-2.067-2.9-4.867-2.9-8.4V11.3c0-.867.284-1.583.85-2.15.567-.6 1.284-.9 2.15-.9.867 0 1.584.3 2.15.9.567.567.85 1.283.85 2.15V24c0 2.033.45 3.55 1.35 4.55.9.967 2.25 1.45 4.05 1.45 1.834 0 3.2-.483 4.1-1.45.9-1 1.35-2.517 1.35-4.55V11.3c0-.867.284-1.583.85-2.15.567-.6 1.284-.9 2.15-.9ZM72.533 35c-.867 0-1.583-.283-2.15-.85-.566-.6-.85-1.333-.85-2.2V11.3c0-.867.284-1.583.85-2.15.567-.6 1.284-.9 2.15-.9.867 0 1.584.3 2.15.9.567.567.85 1.283.85 2.15V16l-.35-3.35c.367-.8.833-1.5 1.4-2.1a8.07 8.07 0 0 1 2-1.55 8.486 8.486 0 0 1 2.35-.95c.833-.2 1.667-.3 2.5-.3 1 0 1.833.283 2.5.85.7.567 1.05 1.233 1.05 2 0 1.1-.283 1.9-.85 2.4-.566.467-1.183.7-1.85.7a4.319 4.319 0 0 1-1.75-.35c-.5-.233-1.083-.35-1.75-.35-.6 0-1.216.15-1.85.45-.6.267-1.167.7-1.7 1.3-.5.6-.916 1.35-1.25 2.25-.3.867-.45 1.9-.45 3.1v11.85c0 .867-.283 1.6-.85 2.2-.567.567-1.283.85-2.15.85Zm23.68 0c-.867 0-1.583-.283-2.15-.85-.567-.6-.85-1.333-.85-2.2V11.3c0-.867.283-1.583.85-2.15.567-.6 1.283-.9 2.15-.9s1.583.3 2.15.9c.567.567.85 1.283.85 2.15V16l-.35-3.35c.367-.8.833-1.5 1.4-2.1a8.075 8.075 0 0 1 2-1.55 8.486 8.486 0 0 1 2.35-.95c.833-.2 1.667-.3 2.5-.3 1 0 1.833.283 2.5.85.7.567 1.05 1.233 1.05 2 0 1.1-.283 1.9-.85 2.4-.567.467-1.183.7-1.85.7a4.319 4.319 0 0 1-1.75-.35c-.5-.233-1.083-.35-1.75-.35-.6 0-1.217.15-1.85.45-.6.267-1.167.7-1.7 1.3-.5.6-.917 1.35-1.25 2.25-.3.867-.45 1.9-.45 3.1v11.85c0 .867-.283 1.6-.85 2.2-.567.567-1.283.85-2.15.85Zm41.994-27.25c.866 0 1.583.283 2.15.85.566.567.85 1.3.85 2.2v21.15c0 .867-.284 1.6-.85 2.2-.567.567-1.284.85-2.15.85-.867 0-1.584-.283-2.15-.85-.567-.6-.85-1.333-.85-2.2V29.5l1.1.45c0 .433-.234.967-.7 1.6-.467.6-1.1 1.2-1.9 1.8-.8.6-1.75 1.117-2.85 1.55-1.067.4-2.234.6-3.5.6-2.3 0-4.384-.583-6.25-1.75-1.867-1.2-3.35-2.833-4.45-4.9-1.067-2.1-1.6-4.5-1.6-7.2 0-2.733.533-5.133 1.6-7.2 1.1-2.1 2.566-3.733 4.4-4.9 1.833-1.2 3.866-1.8 6.1-1.8 1.433 0 2.75.217 3.95.65 1.2.433 2.233.983 3.1 1.65.9.667 1.583 1.35 2.05 2.05.5.667.75 1.233.75 1.7l-1.8.65V10.8c0-.867.283-1.583.85-2.15.566-.6 1.283-.9 2.15-.9ZM128.107 30c1.466 0 2.75-.367 3.85-1.1 1.1-.733 1.95-1.733 2.55-3 .633-1.267.95-2.683.95-4.25 0-1.6-.317-3.033-.95-4.3-.6-1.267-1.45-2.267-2.55-3-1.1-.733-2.384-1.1-3.85-1.1-1.434 0-2.7.367-3.8 1.1-1.1.733-1.967 1.733-2.6 3-.6 1.267-.9 2.7-.9 4.3 0 1.567.3 2.983.9 4.25.633 1.267 1.5 2.267 2.6 3 1.1.733 2.366 1.1 3.8 1.1Zm41.446-21.75c.867 0 1.583.3 2.15.9.567.567.85 1.283.85 2.15v21.25c0 3.067-.583 5.5-1.75 7.3-1.133 1.833-2.667 3.15-4.6 3.95-1.933.8-4.1 1.2-6.5 1.2-1.067 0-2.2-.083-3.4-.25-1.2-.167-2.183-.417-2.95-.75-1-.433-1.7-.983-2.1-1.65-.367-.633-.433-1.317-.2-2.05.3-.967.783-1.633 1.45-2 .667-.333 1.367-.367 2.1-.1a36.63 36.63 0 0 1 2.1.75c.867.367 1.867.55 3 .55 1.533 0 2.8-.217 3.8-.65 1.033-.4 1.8-1.1 2.3-2.1.533-.967.8-2.3.8-4V29.4l1.05 1.2c-.567 1.1-1.283 2.017-2.15 2.75-.833.7-1.833 1.233-3 1.6s-2.5.55-4 .55c-1.767 0-3.317-.4-4.65-1.2-1.3-.833-2.317-1.967-3.05-3.4-.733-1.467-1.1-3.133-1.1-5V11.3c0-.867.283-1.583.85-2.15.567-.6 1.283-.9 2.15-.9s1.583.3 2.15.9c.567.567.85 1.283.85 2.15v12.8c0 2.167.467 3.7 1.4 4.6.967.867 2.3 1.3 4 1.3 1.167 0 2.15-.217 2.95-.65.8-.467 1.417-1.133 1.85-2 .433-.9.65-1.983.65-3.25V11.3c0-.867.283-1.583.85-2.15.567-.6 1.283-.9 2.15-.9Zm14.946 15.7c-1.134 0-1.75-.633-1.85-1.9l-1.45-18.4c-.067-1.033.2-1.9.8-2.6.633-.7 1.45-1.05 2.45-1.05 1 0 1.816.35 2.45 1.05.633.7.9 1.567.8 2.6l-1.4 18.4c-.1 1.267-.7 1.9-1.8 1.9Zm-.35 11.05c-.967 0-1.717-.25-2.25-.75-.5-.533-.75-1.283-.75-2.25v-.85c0-.967.25-1.7.75-2.2.533-.533 1.283-.8 2.25-.8h.65c.966 0 1.7.267 2.2.8.533.5.8 1.233.8 2.2V32c0 .967-.267 1.717-.8 2.25-.5.5-1.234.75-2.2.75h-.65Zm15.68-11.05c-1.133 0-1.75-.633-1.85-1.9l-1.45-18.4c-.067-1.033.2-1.9.8-2.6.633-.7 1.45-1.05 2.45-1.05 1 0 1.817.35 2.45 1.05.633.7.9 1.567.8 2.6l-1.4 18.4c-.1 1.267-.7 1.9-1.8 1.9Zm-.35 11.05c-.967 0-1.717-.25-2.25-.75-.5-.533-.75-1.283-.75-2.25v-.85c0-.967.25-1.7.75-2.2.533-.533 1.283-.8 2.25-.8h.65c.967 0 1.7.267 2.2.8.533.5.8 1.233.8 2.2V32c0 .967-.267 1.717-.8 2.25-.5.5-1.233.75-2.2.75h-.65Zm15.68-11.05c-1.133 0-1.75-.633-1.85-1.9l-1.45-18.4c-.067-1.033.2-1.9.8-2.6.633-.7 1.45-1.05 2.45-1.05 1 0 1.817.35 2.45 1.05.633.7.9 1.567.8 2.6l-1.4 18.4c-.1 1.267-.7 1.9-1.8 1.9Zm-.35 11.05c-.967 0-1.717-.25-2.25-.75-.5-.533-.75-1.283-.75-2.25v-.85c0-.967.25-1.7.75-2.2.533-.533 1.283-.8 2.25-.8h.65c.967 0 1.7.267 2.2.8.533.5.8 1.233.8 2.2V32c0 .967-.267 1.717-.8 2.25-.5.5-1.233.75-2.2.75h-.65Z" fill="#1CC871"/><path d="m6.05.9-.354.354.01.01.01.009L6.05.9Zm0 33.25.333.373.006-.005.005-.005-.344-.363Zm-4.45 0-.364.343.005.005.005.006.354-.354ZM1.65.9l.343.364.005-.005.006-.005L1.65.9Zm26.7 0-.364.343.005.005.005.006L28.35.9Zm-.05 33.25.354.354-.354-.354Zm-4.45 0-.354.354.01.01.01.009.334-.373ZM23.9.9l.333.373.006-.005.005-.005L23.9.9ZM3.8 14.55v-.5h-.5v.5h.5Zm22.3 0h.5v-.5h-.5v.5Zm0 5.75v.5h.5v-.5h-.5Zm-22.3 0h-.5v.5h.5v-.5ZM3.95.5c.659 0 1.234.241 1.746.754l.708-.708C5.716-.14 4.89-.5 3.95-.5v1Zm1.767.773c.525.47.783 1.05.783 1.777h1c0-1.006-.375-1.859-1.117-2.523l-.666.746ZM6.5 3.05v28.9h1V3.05h-1Zm0 28.9c0 .728-.26 1.33-.794 1.837l.688.726A3.414 3.414 0 0 0 7.5 31.95h-1Zm-.783 1.827a2.7 2.7 0 0 1-1.867.723v1c.959 0 1.81-.33 2.533-.977l-.666-.746ZM3.85 34.5c-.824 0-1.439-.246-1.896-.704l-.708.708c.676.675 1.562.996 2.604.996v-1Zm-1.886-.693c-.475-.503-.714-1.11-.714-1.857h-1c0 .987.327 1.845.986 2.543l.728-.686ZM1.25 31.95V3.05h-1v28.9h1Zm0-28.9c0-.737.249-1.32.743-1.786L1.307.536C.6 1.203.25 2.054.25 3.05h1Zm.754-1.796C2.5.757 3.134.5 3.95.5v-1C2.899-.5 2-.157 1.296.546l.708.708ZM26.1.5c.816 0 1.427.257 1.886.743l.727-.686C28.04-.157 27.151-.5 26.1-.5v1Zm1.896.754c.465.464.704 1.05.704 1.796h1c0-.987-.328-1.835-.996-2.504l-.708.708ZM28.7 3.05v28.9h1V3.05h-1Zm0 28.9c0 .737-.25 1.342-.754 1.846l.708.708c.695-.696 1.046-1.558 1.046-2.554h-1Zm-.754 1.846c-.454.455-1.083.704-1.946.704v1c1.07 0 1.974-.317 2.654-.996l-.708-.708ZM26 34.5c-.669 0-1.269-.232-1.817-.723l-.666.746c.718.643 1.552.977 2.483.977v-1Zm-1.796-.704c-.505-.504-.754-1.109-.754-1.846h-1c0 .996.35 1.858 1.046 2.554l.708-.708Zm-.754-1.846V3.05h-1v28.9h1Zm0-28.9c0-.728.259-1.308.783-1.777l-.666-.746c-.742.664-1.117 1.517-1.117 2.523h1Zm.794-1.787C24.789.746 25.4.5 26.1.5v-1c-.968 0-1.823.354-2.544 1.037l.688.726ZM3.8 15.05h22.3v-1H3.8v1Zm21.8-.5v5.75h1v-5.75h-1Zm.5 5.25H3.8v1h22.3v-1Zm-21.8.5v-5.75h-1v5.75h1ZM60.188 9.15l-.364.343.005.005.005.006.353-.354Zm-2.1 23.25.362.345-.363-.345Zm-17 0-.366.342.003.003.362-.345Zm-2.05-23.25.353.354.005-.005.005-.006-.364-.343Zm4.3 0-.364.343.005.005.005.006.353-.354Zm2.2 19.4-.372.334.006.007.366-.341Zm8.15 0 .365.34.006-.006-.371-.334Zm2.2-19.4.353.354.005-.005.005-.006-.363-.343Zm2.15-.4c.736 0 1.319.249 1.786.743l.727-.686c-.666-.706-1.517-1.057-2.514-1.057v1Zm1.796.754c.465.464.703 1.05.703 1.796h1c0-.987-.327-1.835-.996-2.504l-.707.708Zm.703 1.796V24h1V11.3h-1Zm0 12.7c0 3.437-.953 6.103-2.812 8.055l.725.69c2.075-2.18 3.087-5.115 3.087-8.745h-1Zm-2.812 8.055C55.88 33.995 53.193 35 49.587 35v1c3.795 0 6.776-1.062 8.863-3.255l-.725-.69ZM49.587 35c-3.605 0-6.29-1.004-8.137-2.945l-.725.69C42.812 34.938 45.793 36 49.587 36v-1Zm-8.134-2.942c-1.827-1.952-2.766-4.619-2.766-8.058h-1c0 3.627.995 6.56 3.035 8.742l.73-.684ZM38.687 24V11.3h-1V24h1Zm0-12.7c0-.746.24-1.332.704-1.796l-.707-.708c-.669.669-.996 1.517-.996 2.504h1Zm.714-1.807c.467-.494 1.05-.743 1.786-.743v-1c-.996 0-1.847.351-2.513 1.057l.727.686Zm1.786-.743c.737 0 1.32.249 1.787.743l.727-.686c-.666-.706-1.517-1.057-2.514-1.057v1Zm1.797.754c.465.464.703 1.05.703 1.796h1c0-.987-.327-1.835-.996-2.504l-.707.708Zm.703 1.796V24h1V11.3h-1Zm0 12.7c0 2.096.463 3.756 1.479 4.884l.743-.669c-.784-.87-1.221-2.244-1.221-4.215h-1Zm1.485 4.89c1.025 1.102 2.529 1.61 4.416 1.61v-1c-1.714 0-2.91-.458-3.685-1.29l-.731.68Zm4.416 1.61c1.916 0 3.439-.506 4.465-1.61l-.731-.68c-.774.83-1.985 1.29-3.735 1.29v1Zm4.471-1.616c1.016-1.128 1.479-2.788 1.479-4.884h-1c0 1.971-.438 3.345-1.222 4.215l.743.67ZM55.538 24V11.3h-1V24h1Zm0-12.7c0-.746.238-1.332.703-1.796l-.707-.708c-.669.669-.996 1.517-.996 2.504h1Zm.713-1.807c.467-.494 1.05-.743 1.787-.743v-1c-.997 0-1.848.351-2.514 1.057l.727.686ZM70.383 34.15l-.363.343.005.005.005.006.353-.354Zm0-25 .354.354.005-.005.005-.006-.364-.343Zm4.3 0-.363.343.005.005.005.006.353-.354Zm.85 6.85-.497.052.997-.052h-.5Zm-.35-3.35-.454-.208-.057.124.014.136.497-.052Zm1.4-2.1-.363-.344.363.344Zm2-1.55.24.439.007-.004.008-.005-.255-.43Zm7.35-.4-.324.381.01.008.314-.389Zm.2 4.4.318.386.007-.005.006-.006-.33-.375Zm-3.6.35-.211.453.01.005.201-.458Zm-3.6.1.203.457.011-.005-.214-.452Zm-1.7 1.3-.374-.332-.005.006-.005.006.384.32ZM75.983 17l-.469-.174-.003.01.472.164Zm-1.3 17.15.354.354.005-.005.005-.006-.364-.343Zm-2.15.35c-.746 0-1.332-.239-1.796-.704l-.707.708c.668.668 1.516.996 2.503.996v-1Zm-1.786-.693c-.475-.503-.714-1.11-.714-1.857h-1c0 .987.328 1.845.987 2.543l.727-.686Zm-.714-1.857V11.3h-1v20.65h1Zm0-20.65c0-.746.239-1.332.704-1.796l-.707-.708c-.669.669-.997 1.517-.997 2.504h1Zm.714-1.807c.467-.494 1.05-.743 1.786-.743v-1c-.996 0-1.847.351-2.513 1.057l.727.686Zm1.786-.743c.737 0 1.32.249 1.787.743l.727-.686C74.38 8.1 73.53 7.75 72.533 7.75v1Zm1.797.754c.464.464.703 1.05.703 1.796h1c0-.987-.328-1.835-.996-2.504l-.707.708Zm.703 1.796V16h1v-4.7h-1Zm.998 4.648-.35-3.35-.995.104.35 3.35.995-.104Zm-.393-3.09a7.21 7.21 0 0 1 1.309-1.965l-.727-.686a8.205 8.205 0 0 0-1.491 2.235l.909.416Zm1.308-1.964a7.568 7.568 0 0 1 1.877-1.455l-.48-.878a8.57 8.57 0 0 0-2.123 1.645l.726.688Zm1.892-1.464a7.986 7.986 0 0 1 2.212-.894l-.233-.972a8.987 8.987 0 0 0-2.488 1.006l.509.86Zm2.212-.894a10.18 10.18 0 0 1 2.383-.286v-1c-.874 0-1.746.105-2.617.314l.234.972Zm2.383-.286c.9 0 1.613.252 2.176.731l.648-.762c-.77-.654-1.723-.969-2.824-.969v1Zm2.186.739c.605.49.864 1.022.864 1.611h1c0-.945-.44-1.746-1.235-2.389l-.63.778Zm.864 1.611c0 1.023-.263 1.657-.68 2.025l.661.75c.716-.632 1.02-1.598 1.02-2.775h-1Zm-.668 2.014c-.486.4-.993.586-1.532.586v1c.795 0 1.522-.282 2.168-.814l-.636-.772Zm-1.532.586c-.57 0-1.085-.105-1.55-.308l-.4.916a4.818 4.818 0 0 0 1.95.392v-1Zm-1.538-.303c-.579-.27-1.237-.397-1.962-.397v1c.609 0 1.117.106 1.539.303l.423-.906Zm-1.962-.397c-.685 0-1.375.172-2.064.498l.428.904c.578-.274 1.122-.402 1.636-.402v-1Zm-2.053.493c-.678.301-1.3.783-1.87 1.425l.747.664c.496-.558 1.007-.943 1.53-1.175l-.407-.914Zm-1.88 1.437c-.544.652-.987 1.455-1.336 2.396l.938.348c.318-.859.709-1.556 1.165-2.104l-.768-.64Zm-1.34 2.406c-.322.933-.477 2.024-.477 3.264h1c0-1.16.145-2.136.423-2.936l-.945-.328Zm-.477 3.264v11.85h1V20.1h-1Zm0 11.85c0 .746-.239 1.354-.713 1.857l.727.686c.659-.698.986-1.556.986-2.543h-1Zm-.703 1.846c-.465.465-1.05.704-1.797.704v1c.988 0 1.835-.328 2.504-.996l-.707-.708Zm19.733.354-.364.343.005.005.005.006.354-.354Zm0-25 .353.354.005-.005.005-.006-.363-.343Zm4.3 0-.364.343.005.005.005.006.354-.354Zm.85 6.85-.497.052.997-.052h-.5Zm-.35-3.35-.455-.208-.057.124.015.136.497-.052Zm1.4-2.1-.363-.344.363.344Zm2-1.55.239.439.008-.004.007-.005-.254-.43Zm7.35-.4-.324.381.009.008.315-.389Zm.2 4.4.318.386.006-.005.007-.006-.331-.375Zm-3.6.35-.212.453.011.005.201-.458Zm-3.6.1.203.457.011-.005-.214-.452Zm-1.7 1.3-.374-.332-.005.006-.005.006.384.32ZM99.663 17l-.47-.174-.003.01.473.164Zm-1.3 17.15.353.354.006-.005.004-.006-.363-.343Zm-2.15.35c-.746 0-1.332-.239-1.797-.704l-.707.708c.669.668 1.516.996 2.504.996v-1Zm-1.787-.693c-.474-.503-.713-1.11-.713-1.857h-1c0 .987.327 1.845.986 2.543l.727-.686Zm-.713-1.857V11.3h-1v20.65h1Zm0-20.65c0-.746.239-1.332.703-1.796l-.707-.708c-.668.669-.996 1.517-.996 2.504h1Zm.713-1.807c.467-.494 1.05-.743 1.787-.743v-1c-.997 0-1.847.351-2.514 1.057l.727.686Zm1.787-.743c.737 0 1.32.249 1.786.743l.727-.686C98.06 8.1 97.21 7.75 96.213 7.75v1Zm1.796.754c.465.464.704 1.05.704 1.796h1c0-.987-.328-1.835-.997-2.504l-.707.708Zm.704 1.796V16h1v-4.7h-1Zm.997 4.648-.35-3.35-.994.104.35 3.35.994-.104Zm-.393-3.09a7.222 7.222 0 0 1 1.309-1.965l-.727-.686a8.205 8.205 0 0 0-1.49 2.235l.908.416Zm1.309-1.964a7.58 7.58 0 0 1 1.876-1.455l-.479-.878a8.567 8.567 0 0 0-2.123 1.645l.726.688Zm1.891-1.464a7.978 7.978 0 0 1 2.213-.894l-.234-.972a8.982 8.982 0 0 0-2.487 1.006l.508.86Zm2.213-.894c.796-.19 1.59-.286 2.383-.286v-1c-.874 0-1.746.105-2.617.314l.234.972Zm2.383-.286c.899 0 1.613.252 2.176.731l.648-.762c-.77-.654-1.723-.969-2.824-.969v1Zm2.185.739c.606.49.865 1.022.865 1.611h1c0-.945-.441-1.746-1.236-2.389l-.629.778Zm.865 1.611c0 1.023-.263 1.657-.681 2.025l.662.75c.715-.632 1.019-1.598 1.019-2.775h-1Zm-.668 2.014c-.487.4-.993.586-1.532.586v1c.794 0 1.521-.282 2.168-.814l-.636-.772Zm-1.532.586a3.819 3.819 0 0 1-1.55-.308l-.401.916a4.822 4.822 0 0 0 1.951.392v-1Zm-1.539-.303c-.578-.27-1.236-.397-1.961-.397v1c.608 0 1.117.106 1.538.303l.423-.906Zm-1.961-.397c-.686 0-1.375.172-2.064.498l.428.904c.578-.274 1.121-.402 1.636-.402v-1Zm-2.053.493c-.678.301-1.3.783-1.871 1.425l.748.664c.496-.558 1.007-.943 1.529-1.175l-.406-.914Zm-1.881 1.437c-.544.652-.986 1.455-1.335 2.396l.938.348c.318-.859.709-1.556 1.165-2.104l-.768-.64Zm-1.339 2.406c-.322.933-.477 2.024-.477 3.264h1c0-1.16.145-2.136.422-2.936l-.945-.328Zm-.477 3.264v11.85h1V20.1h-1Zm0 11.85c0 .746-.24 1.354-.714 1.857l.727.686c.66-.698.987-1.556.987-2.543h-1Zm-.704 1.846c-.465.465-1.05.704-1.796.704v1c.987 0 1.835-.328 2.503-.996l-.707-.708ZM140.357 8.6l-.354.354.354-.354Zm0 25.55.353.354.005-.005.005-.006-.363-.343Zm-4.3 0-.364.343.005.005.005.006.354-.354Zm-.85-4.65.189-.463-.689-.282v.745h.5Zm1.1.45h.5v-.336l-.311-.127-.189.463Zm-.7 1.6.394.307.008-.01-.402-.297Zm-1.9 1.8.3.4-.3-.4Zm-2.85 1.55.175.468.008-.003-.183-.465Zm-9.75-1.15-.271.42.006.004.265-.424Zm-4.45-4.9-.446.226.004.009.442-.235Zm0-14.4-.443-.232-.002.003.445.229Zm4.4-4.9.268.422.005-.004-.273-.418Zm10.05-1.15-.17.47.17-.47Zm3.1 1.65-.305.396.007.006.298-.402Zm2.05 2.05-.416.277.007.012.009.011.4-.3Zm.75 1.7.169.47.331-.119V13.8h-.5Zm-1.8.65h-.5v.712l.669-.242-.169-.47Zm.85-5.8.353.354.005-.005.005-.006-.363-.343Zm-4.1 20.25-.278-.416.278.416Zm2.55-3-.448-.224-.004.01.452.214Zm0-8.55-.452.214.004.01.448-.224Zm-2.55-3-.278.416.278-.416Zm-7.65 0 .277.416-.277-.416Zm-2.6 3-.448-.224-.004.01.452.214Zm0 8.55-.452.214.004.01.448-.224Zm2.6 3 .277-.416-.277.416Zm13.9-20.65c.746 0 1.331.239 1.796.704l.707-.708c-.668-.668-1.516-.996-2.503-.996v1Zm1.796.704c.461.46.704 1.06.704 1.846h1c0-1.015-.324-1.881-.997-2.554l-.707.708Zm.704 1.846v21.15h1V10.8h-1Zm0 21.15c0 .746-.24 1.354-.714 1.857l.727.686c.659-.698.987-1.556.987-2.543h-1Zm-.704 1.846c-.465.465-1.05.704-1.796.704v1c.987 0 1.835-.328 2.503-.996l-.707-.708Zm-1.796.704c-.746 0-1.332-.239-1.797-.704l-.707.708c.669.668 1.516.996 2.504.996v-1Zm-1.787-.693c-.474-.503-.713-1.11-.713-1.857h-1c0 .987.327 1.845.986 2.543l.727-.686Zm-.713-1.857V29.5h-1v2.45h1Zm-.69-1.987 1.1.45.379-.926-1.1-.45-.379.926Zm.79-.013c0 .27-.154.695-.603 1.303l.805.594c.485-.658.798-1.3.798-1.897h-1Zm-.595 1.293c-.432.556-1.03 1.126-1.805 1.707l.6.8c.825-.619 1.493-1.249 1.994-1.893l-.789-.614Zm-1.805 1.707c-.759.569-1.668 1.065-2.734 1.485l.367.93c1.134-.447 2.125-.984 2.967-1.615l-.6-.8Zm-2.726 1.482c-1.005.377-2.111.568-3.324.568v1c1.32 0 2.546-.209 3.675-.632l-.351-.936Zm-3.324.568c-2.211 0-4.202-.56-5.985-1.674l-.53.848c1.949 1.219 4.125 1.826 6.515 1.826v-1Zm-5.98-1.67c-1.791-1.152-3.217-2.72-4.279-4.715l-.883.47c1.138 2.138 2.679 3.837 4.621 5.086l.541-.842Zm-4.275-4.706c-1.026-2.02-1.545-4.341-1.545-6.974h-1c0 2.767.547 5.247 1.654 7.426l.891-.452Zm-1.545-6.974c0-2.667.52-4.986 1.544-6.97l-.889-.46c-1.109 2.15-1.655 4.63-1.655 7.43h1Zm1.543-6.968c1.063-2.03 2.472-3.595 4.225-4.71l-.537-.844c-1.913 1.218-3.438 2.92-4.574 5.09l.886.464Zm4.23-4.714c1.751-1.145 3.689-1.718 5.827-1.718v-1c-2.329 0-4.458.627-6.374 1.882l.547.836Zm5.827-1.718c1.382 0 2.641.209 3.78.62l.339-.94c-1.26-.456-2.635-.68-4.119-.68v1Zm3.78.62c1.159.419 2.145.946 2.965 1.576l.609-.792c-.913-.703-1.994-1.276-3.235-1.724l-.339.94Zm2.972 1.582c.868.643 1.506 1.286 1.932 1.925l.832-.554c-.508-.761-1.237-1.485-2.169-2.175l-.595.804Zm1.948 1.948c.48.64.65 1.098.65 1.4h1c0-.631-.33-1.307-.85-2l-.8.6Zm.98.93-1.8.65.339.94 1.8-.65-.339-.94Zm-1.13 1.12V10.8h-1v3.65h1Zm0-3.65c0-.746.238-1.332.703-1.796l-.707-.708c-.668.669-.996 1.517-.996 2.504h1Zm.713-1.807c.467-.494 1.05-.743 1.787-.743v-1c-.997 0-1.848.351-2.514 1.057l.727.686ZM128.107 30.5c1.554 0 2.936-.39 4.127-1.184l-.555-.832c-1.009.673-2.193 1.016-3.572 1.016v1Zm4.127-1.184c1.18-.787 2.088-1.858 2.725-3.202l-.904-.428c-.564 1.19-1.356 2.118-2.376 2.798l.555.832Zm2.72-3.192c.671-1.344 1.003-2.838 1.003-4.474h-1c0 1.497-.303 2.836-.898 4.026l.895.448Zm1.003-4.474c0-1.667-.331-3.179-1.003-4.524l-.895.448c.595 1.188.898 2.543.898 4.076h1Zm-.998-4.514c-.637-1.343-1.545-2.415-2.725-3.202l-.555.832c1.02.68 1.812 1.608 2.376 2.798l.904-.428Zm-2.725-3.202c-1.191-.794-2.573-1.184-4.127-1.184v1c1.379 0 2.563.343 3.572 1.016l.555-.832Zm-4.127-1.184c-1.524 0-2.889.391-4.078 1.184l.555.832c1.011-.674 2.179-1.016 3.523-1.016v-1Zm-4.078 1.184c-1.177.785-2.1 1.854-2.77 3.192l.895.448c.597-1.195 1.408-2.126 2.43-2.808l-.555-.832Zm-2.774 3.202c-.636 1.342-.948 2.85-.948 4.514h1c0-1.537.287-2.895.852-4.086l-.904-.428Zm-.948 4.514c0 1.632.313 3.123.948 4.464l.904-.428c-.565-1.192-.852-2.535-.852-4.036h-1Zm.952 4.474c.67 1.338 1.593 2.407 2.77 3.192l.555-.832c-1.022-.682-1.833-1.613-2.43-2.808l-.895.448Zm2.77 3.192c1.189.793 2.554 1.184 4.078 1.184v-1c-1.344 0-2.512-.342-3.523-1.016l-.555.832ZM171.703 9.15l-.363.343.005.005.005.006.353-.354Zm-.9 30.7-.42-.272-.005.01.425.262Zm-4.6 3.95.191.462-.191-.462Zm-12.85.2.199-.459-.199.459Zm-2.1-1.65-.433.25.004.007.429-.257Zm-.2-2.05.477.152.001-.004-.478-.148Zm1.45-2-.223-.447-.009.004-.009.005.241.438Zm2.1-.1-.171.47.011.004.011.003.149-.477Zm2.1.75.195-.46-.008-.004-.007-.003-.18.467Zm6.8-.1-.18-.466-.01.003-.009.004.199.459Zm2.3-2.1-.438-.242-.005.01-.004.008.447.224Zm.8-7.35.376-.33-.876-1v1.33h.5Zm1.05 1.2.445.229.155-.302-.224-.256-.376.329Zm-2.15 2.75.322.383.001-.001-.323-.382Zm-3 1.6-.15-.477.15.477Zm-8.65-.65-.27.42.007.005.006.004.257-.429Zm-3.05-3.4-.447.224.002.004.445-.228Zm-.25-21.75.354.354.005-.005.005-.006-.364-.343Zm4.3 0-.363.343.005.005.005.006.353-.354Zm2.25 19.55-.347.36.007.006.006.006.334-.372Zm6.95.65.238.44.007-.004.007-.004-.252-.432Zm1.85-2 .447.224.004-.007-.451-.217Zm1.5-18.2.354.354.005-.005.005-.006-.364-.343Zm2.15-.4c.737 0 1.32.249 1.787.743l.727-.686c-.667-.706-1.517-1.057-2.514-1.057v1Zm1.797.754c.464.464.703 1.05.703 1.796h1c0-.987-.328-1.835-.996-2.504l-.707.708Zm.703 1.796v21.25h1V11.3h-1Zm0 21.25c0 3.01-.573 5.337-1.669 7.028l.839.544c1.237-1.909 1.83-4.448 1.83-7.572h-1Zm-1.675 7.037c-1.08 1.747-2.533 2.992-4.366 3.751l.382.924c2.034-.841 3.648-2.23 4.834-4.15l-.85-.525Zm-4.366 3.751c-1.865.771-3.965 1.162-6.309 1.162v1c2.456 0 4.689-.41 6.691-1.238l-.382-.924Zm-6.309 1.162c-1.041 0-2.151-.081-3.331-.245l-.138.99c1.22.17 2.377.255 3.469.255v-1Zm-3.331-.245c-1.173-.163-2.109-.404-2.82-.714l-.398.918c.822.357 1.854.616 3.08.786l.138-.99Zm-2.82-.714c-.942-.408-1.542-.9-1.87-1.448l-.858.514c.472.786 1.272 1.393 2.33 1.852l.398-.918Zm-1.866-1.441c-.292-.505-.35-1.041-.156-1.648l-.953-.304c-.274.86-.198 1.69.243 2.452l.866-.5Zm-.155-1.652c.274-.885.693-1.424 1.213-1.71l-.482-.876c-.813.447-1.361 1.241-1.686 2.29l.955.296Zm1.196-1.7c.537-.27 1.094-.3 1.705-.078l.342-.94c-.856-.311-1.699-.275-2.494.123l.447.894Zm1.727-.07c.519.161 1.207.407 2.07.739l.359-.934a36.816 36.816 0 0 0-2.131-.76l-.298.954Zm2.054.733c.94.397 2.008.589 3.195.589v-1c-1.08 0-2.011-.175-2.805-.51l-.39.92Zm3.195.589c1.576 0 2.916-.222 3.999-.691l-.398-.918c-.917.398-2.11.609-3.601.609v1Zm3.981-.684c1.15-.445 2.011-1.232 2.566-2.342l-.894-.448c-.445.89-1.117 1.503-2.033 1.858l.361.932Zm2.557-2.325c.59-1.07.862-2.498.862-4.241h-1c0 1.657-.261 2.895-.738 3.758l.876.483Zm.862-4.241V29.4h-1v3.35h1Zm-.876-3.02 1.05 1.2.752-.66-1.05-1.2-.752.66Zm.982.641c-.54 1.047-1.217 1.91-2.029 2.597l.646.764c.921-.78 1.678-1.75 2.272-2.903l-.889-.458Zm-2.027 2.596c-.777.653-1.717 1.157-2.829 1.506l.3.954c1.222-.384 2.282-.947 3.172-1.694l-.643-.766Zm-2.829 1.506c-1.108.348-2.39.527-3.85.527v1c1.54 0 2.925-.188 4.15-.573l-.3-.954Zm-3.85.527c-1.689 0-3.147-.382-4.393-1.129l-.514.858c1.421.852 3.062 1.271 4.907 1.271v-1Zm-4.38-1.12c-1.222-.784-2.18-1.85-2.875-3.208l-.89.456c.772 1.508 1.848 2.71 3.225 3.593l.54-.842Zm-2.873-3.204c-.694-1.388-1.047-2.976-1.047-4.776h-1c0 1.934.38 3.678 1.153 5.224l.894-.448Zm-1.047-4.776V11.3h-1v14.6h1Zm0-14.6c0-.746.239-1.332.704-1.796l-.707-.708c-.669.669-.997 1.517-.997 2.504h1Zm.714-1.807c.467-.494 1.049-.743 1.786-.743v-1c-.996 0-1.847.351-2.513 1.057l.727.686Zm1.786-.743c.737 0 1.32.249 1.787.743l.727-.686c-.667-.706-1.517-1.057-2.514-1.057v1Zm1.797.754c.464.464.703 1.05.703 1.796h1c0-.987-.328-1.835-.996-2.504l-.707.708Zm.703 1.796v12.8h1V11.3h-1Zm0 12.8c0 2.216.474 3.919 1.553 4.96l.694-.72c-.787-.759-1.247-2.123-1.247-4.24h-1Zm1.566 4.972c1.084.972 2.55 1.428 4.334 1.428v-1c-1.616 0-2.817-.41-3.666-1.172l-.668.744Zm4.334 1.428c1.227 0 2.297-.228 3.188-.71l-.476-.88c-.709.384-1.605.59-2.712.59v1Zm3.202-.718c.888-.518 1.571-1.259 2.045-2.208l-.894-.448c-.392.784-.943 1.377-1.655 1.792l.504.864Zm2.049-2.215c.473-.983.699-2.145.699-3.467h-1c0 1.211-.207 2.216-.6 3.033l.901.434Zm.699-3.467V11.3h-1v12.8h1Zm0-12.8c0-.746.239-1.332.704-1.796l-.707-.708c-.669.669-.997 1.517-.997 2.504h1Zm.714-1.807c.467-.494 1.049-.743 1.786-.743v-1c-.996 0-1.847.351-2.513 1.057l.727.686Zm14.882 12.557-.499.04.499-.04Zm-1.45-18.4-.499.032v.007l.499-.039Zm.8-2.6-.371-.336-.009.01.38.326Zm4.9 0-.371.335.371-.335Zm.8 2.6-.498-.048-.001.01.499.038Zm-1.4 18.4.498.04v-.002l-.498-.038Zm-4.4 12.2-.365.342.011.012.012.01.342-.364Zm0-5.3-.354-.354.354.354Zm5.1 0-.365.342.011.012.012.01.342-.364Zm0 5.3.353.354-.353-.354Zm-2.5-10.8c-.472 0-.765-.13-.954-.324-.198-.203-.353-.549-.398-1.115l-.997.078c.056.7.259 1.305.678 1.735.427.438 1.009.626 1.671.626v-1Zm-1.352-1.44-1.45-18.4-.997.08 1.45 18.4.997-.08Zm-1.449-18.392c-.06-.92.176-1.654.68-2.243l-.759-.65c-.695.811-.993 1.811-.919 2.957l.998-.064Zm.672-2.233c.532-.588 1.211-.885 2.079-.885v-1c-1.132 0-2.087.403-2.821 1.215l.742.67ZM184.449.5c.868 0 1.547.297 2.079.885l.742-.67c-.735-.812-1.689-1.215-2.821-1.215v1Zm2.079.885c.529.585.761 1.308.673 2.217l.996.096c.112-1.158-.19-2.168-.927-2.983l-.742.67Zm.672 2.227-1.4 18.4.997.076 1.4-18.4-.997-.076Zm-1.4 18.399c-.045.57-.197.917-.389 1.12-.182.192-.461.319-.912.319v1c.649 0 1.22-.19 1.638-.631.407-.43.605-1.033.66-1.73l-.997-.078ZM184.149 34.5c-.882 0-1.494-.227-1.908-.615l-.684.73c.653.612 1.54.885 2.592.885v-1Zm-1.885-.592c-.389-.414-.615-1.026-.615-1.908h-1c0 1.052.273 1.94.885 2.592l.73-.684ZM181.649 32v-.85h-1V32h1Zm0-.85c0-.884.227-1.47.603-1.846l-.707-.708c-.624.624-.896 1.505-.896 2.554h1Zm.603-1.846c.415-.416 1.024-.654 1.897-.654v-1c-1.06 0-1.952.295-2.604.946l.707.708Zm1.897-.654h.65v-1h-.65v1Zm.65 0c.875 0 1.457.24 1.835.642l.73-.684c-.623-.664-1.507-.958-2.565-.958v1Zm1.858.665c.403.377.642.96.642 1.835h1c0-1.058-.294-1.942-.958-2.565l-.684.73Zm.642 1.835V32h1v-.85h-1Zm0 .85c0 .873-.239 1.481-.654 1.896l.707.708c.652-.652.947-1.544.947-2.604h-1Zm-.654 1.896c-.376.377-.962.604-1.846.604v1c1.049 0 1.929-.273 2.553-.896l-.707-.708Zm-1.846.604h-.65v1h.65v-1Zm13.18-12.45-.499.04.499-.04Zm-1.45-18.4-.499.032v.007l.499-.039Zm.8-2.6-.371-.336-.009.01.38.326Zm4.9 0-.371.335.371-.335Zm.8 2.6-.498-.048-.001.01.499.038Zm-1.4 18.4.498.04v-.002l-.498-.038Zm-4.4 12.2-.365.342.011.012.012.01.342-.364Zm0-5.3-.354-.354.354.354Zm5.1 0-.365.342.011.012.012.01.342-.364Zm0 5.3.353.354-.353-.354Zm-2.5-10.8c-.472 0-.765-.13-.954-.324-.198-.203-.353-.549-.398-1.115l-.997.078c.056.7.259 1.305.678 1.735.427.438 1.009.626 1.671.626v-1Zm-1.352-1.44-1.45-18.4-.997.08 1.45 18.4.997-.08Zm-1.449-18.392c-.06-.92.176-1.654.681-2.243l-.76-.65c-.695.811-.993 1.811-.919 2.957l.998-.064Zm.672-2.233c.532-.588 1.211-.885 2.079-.885v-1c-1.132 0-2.087.403-2.821 1.215l.742.67ZM199.779.5c.868 0 1.547.297 2.079.885l.742-.67c-.735-.812-1.689-1.215-2.821-1.215v1Zm2.079.885c.529.585.761 1.308.673 2.217l.996.096c.112-1.158-.19-2.168-.927-2.983l-.742.67Zm.672 2.227-1.4 18.4.997.076 1.4-18.4-.997-.076Zm-1.4 18.399c-.045.57-.197.917-.389 1.12-.182.192-.461.319-.912.319v1c.649 0 1.22-.19 1.638-.631.407-.43.605-1.033.66-1.73l-.997-.078ZM199.479 34.5c-.882 0-1.494-.227-1.908-.615l-.684.73c.653.612 1.54.885 2.592.885v-1Zm-1.885-.592c-.388-.414-.615-1.026-.615-1.908h-1c0 1.052.273 1.94.885 2.592l.73-.684ZM196.979 32v-.85h-1V32h1Zm0-.85c0-.884.227-1.47.603-1.846l-.707-.708c-.624.624-.896 1.505-.896 2.554h1Zm.603-1.846c.416-.416 1.024-.654 1.897-.654v-1c-1.06 0-1.952.295-2.604.946l.707.708Zm1.897-.654h.65v-1h-.65v1Zm.65 0c.875 0 1.457.24 1.835.642l.73-.684c-.623-.664-1.507-.958-2.565-.958v1Zm1.858.665c.403.377.642.96.642 1.835h1c0-1.058-.294-1.942-.958-2.565l-.684.73Zm.642 1.835V32h1v-.85h-1Zm0 .85c0 .873-.239 1.481-.654 1.896l.707.708c.652-.652.947-1.544.947-2.604h-1Zm-.654 1.896c-.376.377-.962.604-1.846.604v1c1.049 0 1.93-.273 2.553-.896l-.707-.708Zm-1.846.604h-.65v1h.65v-1Zm13.18-12.45-.498.04.498-.04Zm-1.45-18.4-.499.032.001.007.498-.039Zm.8-2.6-.371-.336-.009.01.38.326Zm4.9 0-.371.335.371-.335Zm.8 2.6-.498-.048-.001.01.499.038Zm-1.4 18.4.498.04.001-.002-.499-.038Zm-4.4 12.2-.365.342.011.012.012.01.342-.364Zm0-5.3-.354-.354.354.354Zm5.1 0-.365.342.011.012.012.01.342-.364Zm0 5.3.354.354-.354-.354Zm-2.5-10.8c-.472 0-.765-.13-.954-.324-.198-.203-.353-.549-.398-1.115l-.996.078c.055.7.258 1.305.677 1.735.427.438 1.009.626 1.671.626v-1Zm-1.352-1.44-1.45-18.4-.996.08 1.45 18.4.996-.08Zm-1.449-18.392c-.059-.92.176-1.654.681-2.243l-.76-.65c-.695.811-.993 1.811-.919 2.957l.998-.064Zm.672-2.233c.532-.588 1.211-.885 2.079-.885v-1c-1.132 0-2.086.403-2.821 1.215l.742.67ZM215.109.5c.868 0 1.547.297 2.079.885l.742-.67c-.735-.812-1.689-1.215-2.821-1.215v1Zm2.079.885c.529.585.761 1.308.673 2.217l.996.096c.112-1.158-.19-2.168-.927-2.983l-.742.67Zm.672 2.227-1.4 18.4.998.076 1.4-18.4-.998-.076Zm-1.399 18.399c-.045.57-.198.917-.39 1.12-.182.192-.461.319-.912.319v1c.649 0 1.22-.19 1.638-.631.408-.43.605-1.033.66-1.73l-.996-.078ZM214.809 34.5c-.882 0-1.494-.227-1.908-.615l-.684.73c.653.612 1.54.885 2.592.885v-1Zm-1.885-.592c-.388-.414-.615-1.026-.615-1.908h-1c0 1.052.273 1.94.885 2.592l.73-.684ZM212.309 32v-.85h-1V32h1Zm0-.85c0-.884.227-1.47.604-1.846l-.708-.708c-.624.624-.896 1.505-.896 2.554h1Zm.604-1.846c.415-.416 1.023-.654 1.896-.654v-1c-1.06 0-1.952.295-2.604.946l.708.708Zm1.896-.654h.65v-1h-.65v1Zm.65 0c.875 0 1.457.24 1.835.642l.73-.684c-.623-.664-1.507-.958-2.565-.958v1Zm1.858.665c.403.377.642.96.642 1.835h1c0-1.058-.294-1.942-.958-2.565l-.684.73Zm.642 1.835V32h1v-.85h-1Zm0 .85c0 .873-.238 1.481-.654 1.896l.708.708c.651-.652.946-1.544.946-2.604h-1Zm-.654 1.896c-.376.377-.962.604-1.846.604v1c1.049 0 1.93-.273 2.554-.896l-.708-.708Zm-1.846.604h-.65v1h.65v-1Z" fill="#00B359" mask="url(#a)"/></svg>