<svg width="22" height="22" viewBox="0 0 22 22" fill="none" xmlns="http://www.w3.org/2000/svg">
<g id="Layer 2">
<g id="volume-up">
<path id="Vector" d="M16.7559 7.67167C16.6027 7.48204 16.3805 7.36102 16.1381 7.33524C15.8957 7.30945 15.653 7.38101 15.4634 7.53417C15.2738 7.68734 15.1527 7.90956 15.127 8.15195C15.1012 8.39434 15.1727 8.63704 15.3259 8.82667C15.789 9.45634 16.0388 10.2175 16.0388 10.9992C16.0388 11.7808 15.789 12.542 15.3259 13.1717C15.2166 13.3064 15.1478 13.4693 15.1274 13.6416C15.1071 13.8139 15.136 13.9884 15.2109 14.1449C15.2858 14.3013 15.4035 14.4333 15.5504 14.5256C15.6973 14.6178 15.8674 14.6664 16.0409 14.6658C16.1778 14.6663 16.3131 14.6361 16.4369 14.5774C16.5606 14.5187 16.6696 14.433 16.7559 14.3267C17.483 13.3697 17.8766 12.201 17.8766 10.9992C17.8766 9.79735 17.483 8.6286 16.7559 7.67167Z" fill="white"/>
<path id="Vector_2" d="M18.003 4.79401C17.9103 4.71697 17.8033 4.65894 17.6882 4.62323C17.5731 4.58752 17.4521 4.57484 17.3321 4.58591C17.212 4.59697 17.0954 4.63157 16.9887 4.68772C16.8821 4.74388 16.7875 4.82049 16.7105 4.91318C16.6335 5.00587 16.5754 5.11283 16.5397 5.22794C16.504 5.34306 16.4913 5.46409 16.5024 5.58411C16.5135 5.70413 16.5481 5.82079 16.6042 5.92744C16.6604 6.03409 16.737 6.12863 16.8297 6.20568C17.5649 6.77389 18.1637 7.49928 18.5824 8.32878C19.0011 9.15827 19.2291 10.0709 19.2497 10.9998C19.2291 11.9288 19.0011 12.8414 18.5824 13.6709C18.1637 14.5004 17.5649 15.2258 16.8297 15.794C16.7368 15.871 16.6601 15.9655 16.6039 16.0721C16.5476 16.1788 16.513 16.2955 16.5019 16.4155C16.4908 16.5356 16.5036 16.6567 16.5394 16.7718C16.5752 16.8869 16.6333 16.9939 16.7105 17.0865C16.7967 17.19 16.9046 17.2732 17.0266 17.3302C17.1486 17.3873 17.2817 17.4167 17.4163 17.4165C17.6305 17.4169 17.8381 17.3423 18.003 17.2057C18.9476 16.4672 19.7146 15.5264 20.2476 14.4525C20.7806 13.3785 21.0661 12.1987 21.083 10.9998C21.0661 9.801 20.7806 8.6212 20.2476 7.54723C19.7146 6.47326 18.9476 5.53245 18.003 4.79401Z" fill="white"/>
<path id="Vector_3" d="M13.2635 2.85914C13.1242 2.77868 12.9661 2.73633 12.8052 2.73633C12.6443 2.73633 12.4862 2.77868 12.3468 2.85914L6.41602 6.9383H1.83268C1.58957 6.9383 1.35641 7.03488 1.1845 7.20679C1.01259 7.3787 0.916016 7.61186 0.916016 7.85497V14.1433C0.916016 14.3864 1.01259 14.6196 1.1845 14.7915C1.35641 14.9634 1.58957 15.06 1.83268 15.06H6.41602L12.2918 19.0933C12.4528 19.1975 12.641 19.2517 12.8327 19.2491C13.0758 19.2491 13.309 19.1526 13.4809 18.9807C13.6528 18.8087 13.7493 18.5756 13.7493 18.3325V3.6658C13.7489 3.49998 13.7035 3.33737 13.6179 3.19532C13.5324 3.05326 13.4099 2.93708 13.2635 2.85914Z" fill="white"/>
</g>
</g>
</svg>
