<svg width="22" height="22" fill="none" xmlns="http://www.w3.org/2000/svg"><g fill="#fff"><path d="M16.756 7.672a.92.92 0 0 0-1.43 1.155 3.667 3.667 0 0 1 0 4.345.917.917 0 0 0 .715 1.494.916.916 0 0 0 .715-.34 5.5 5.5 0 0 0 0-6.654Z"/><path d="M18.003 4.794a.918.918 0 0 0-1.173 1.412A6.233 6.233 0 0 1 19.25 11a6.234 6.234 0 0 1-2.42 4.794.916.916 0 0 0 .586 1.622.917.917 0 0 0 .587-.21A8.021 8.021 0 0 0 21.083 11a8.02 8.02 0 0 0-3.08-6.206ZM13.264 2.86a.916.916 0 0 0-.917 0L6.416 6.937H1.833a.917.917 0 0 0-.917.917v6.288a.917.917 0 0 0 .917.917h4.583l5.876 4.033c.16.105.349.159.54.156a.917.917 0 0 0 .917-.916V3.665a.916.916 0 0 0-.486-.807Z"/></g></svg>