<svg width="189" height="189" viewBox="0 0 189 189" fill="none" xmlns="http://www.w3.org/2000/svg">
<g clip-path="url(#clip0_916_6147)">
<path d="M71.6812 109.771C64.7526 111.028 59.5255 113.511 54.5487 113.146C54.5487 113.146 43.8513 106.881 41.7378 108.545C38.9867 114.978 33.7004 125.487 41.492 130.884C48.2123 135.316 59.4 131.778 66.2635 129.204L71.6812 109.771Z" fill="#B5CFDD"/>
<path d="M41.4919 130.884C48.2135 135.317 59.3993 131.778 66.2622 129.204L69.7558 116.671L71.68 109.771C67.382 110.55 63.7406 111.803 60.4054 112.553C58.3636 113.012 56.4374 113.285 54.5487 113.145C54.5487 113.145 43.8505 106.88 41.7383 108.545C38.9871 114.979 33.7002 125.488 41.4919 130.884Z" fill="#B5CFDD"/>
<path d="M41.4914 130.882C47.3765 134.763 56.6821 132.533 63.5148 130.191C64.4861 129.859 65.4088 129.521 66.2618 129.202L69.7553 116.669L71.6796 109.769C67.3816 110.548 63.7402 111.801 60.405 112.551C58.3632 113.01 56.437 113.283 54.5482 113.143C54.5482 113.143 43.85 106.878 41.7379 108.543C40.3611 111.76 38.3516 115.997 37.6609 120.103V120.105C36.9702 124.209 37.5967 128.183 41.4914 130.882Z" fill="#5F5F82"/>
<path d="M41.4916 130.883C47.3765 134.765 56.6817 132.535 63.5151 130.193C64.3855 125.033 65.8437 118.391 65.3481 118.522C64.5398 118.732 61.0592 126.362 57.7351 126.202C55.2405 126.081 54.5484 122.689 54.5484 122.689C54.5484 122.689 52.794 128.359 45.6843 127.756C39.0873 127.197 37.6825 120.214 37.6608 120.107C36.9704 124.212 37.5968 128.186 41.4916 130.883Z" fill="#4D4D6D"/>
<path d="M60.4048 112.552C62.5386 114.269 65.792 115.701 69.7553 116.67L71.6793 109.77C67.3817 110.549 63.7395 111.801 60.4048 112.552Z" fill="#4D4D6D"/>
<path d="M49.678 133.801C46.5079 133.801 43.5219 133.177 41.0535 131.549C33.2177 126.12 37.563 116.142 40.4381 109.539C40.6349 109.087 40.8255 108.65 41.0049 108.23C41.0568 108.107 41.1396 108 41.2441 107.918C42.0377 107.292 43.6671 106.908 49.27 109.497C51.8303 110.68 54.1561 111.998 54.7875 112.362C57.6921 112.532 60.7399 111.697 64.2588 110.733C66.532 110.111 68.8828 109.467 71.539 108.986C71.9713 108.908 72.3866 109.194 72.4654 109.627C72.5443 110.061 72.2565 110.475 71.8235 110.554C69.2369 111.023 66.9203 111.657 64.6799 112.271C60.9456 113.294 57.719 114.177 54.4912 113.94C54.369 113.93 54.2514 113.894 54.1462 113.833C54.12 113.817 51.4631 112.266 48.592 110.94C44.1914 108.906 42.7558 108.998 42.3603 109.113C42.2125 109.457 42.0581 109.811 41.8997 110.176C39.0733 116.666 35.2025 125.556 41.9464 130.228C48.9474 134.845 61.7694 130.037 65.9834 128.457C66.396 128.302 66.8546 128.511 67.0097 128.923C67.1641 129.335 66.9551 129.794 66.5432 129.949C61.6374 131.788 55.3643 133.8 49.678 133.801Z" fill="#000072"/>
<path d="M54.5488 122.529C54.5488 122.529 55.2714 119.607 55.1361 116.423L54.5488 122.529Z" fill="#B5CFDD"/>
<path d="M54.5484 122.529C54.734 120.499 54.6825 118.458 54.3394 116.457L55.9323 116.389C55.7484 118.486 55.2658 120.563 54.5484 122.529Z" fill="#000072"/>
<path d="M88.0779 117.721C86.1181 117.937 84.0633 118.051 81.9446 118.051C79.8253 118.051 77.7691 117.937 75.8086 117.721C77.6678 117.062 79.7101 116.691 81.9425 116.691V116.689C84.177 116.689 86.2187 117.06 88.0779 117.721Z" fill="#93B3C1"/>
<path d="M92.2051 109.769C99.1333 111.026 104.361 113.509 109.337 113.144C109.337 113.144 120.036 106.879 122.148 108.543C124.901 114.976 130.187 125.485 122.394 130.882C115.674 135.315 104.487 131.775 97.6233 129.202L92.2051 109.769Z" fill="#B5CFDD"/>
<path d="M122.393 130.882C115.672 135.315 104.486 131.776 97.6228 129.202L94.1297 116.669L92.2056 109.77C96.5041 110.548 100.145 111.8 103.48 112.551C105.522 113.01 107.448 113.283 109.337 113.144C109.337 113.144 120.034 106.878 122.147 108.542C124.898 114.976 130.185 125.486 122.393 130.882Z" fill="#B5CFDD"/>
<path d="M122.394 130.882C116.51 134.763 107.204 132.533 100.371 130.191C99.3992 129.859 98.4775 129.522 97.6237 129.202L94.1297 116.669L92.2061 109.769C96.5044 110.548 100.146 111.8 103.48 112.551C105.522 113.01 107.449 113.282 109.338 113.143C109.338 113.143 120.035 106.878 122.148 108.543C123.525 111.76 125.534 115.998 126.225 120.102V120.104C126.915 124.21 126.289 128.184 122.394 130.882Z" fill="#5F5F82"/>
<path d="M122.395 130.882C116.51 134.763 107.204 132.533 100.372 130.191C99.5011 125.031 98.2569 118.388 98.7527 118.52C99.5607 118.73 102.826 126.36 106.151 126.2C108.646 126.08 109.338 122.687 109.338 122.687C109.338 122.687 111.092 128.358 118.203 127.755C124.799 127.195 126.204 120.212 126.225 120.104C126.916 124.21 126.289 128.184 122.395 130.882Z" fill="#4D4D6D"/>
<path d="M103.48 112.552C101.347 114.27 98.0928 115.7 94.1296 116.67L92.2056 109.771C96.5038 110.549 100.145 111.801 103.48 112.552Z" fill="#4D4D6D"/>
<path d="M114.201 133.799C108.513 133.799 102.245 131.788 97.3432 129.95C96.9306 129.795 96.7224 129.336 96.8762 128.924C97.0309 128.512 97.4902 128.303 97.9028 128.457C102.116 130.038 114.939 134.846 121.955 130.219C128.683 125.557 124.812 116.668 121.986 110.177C121.828 109.812 121.674 109.458 121.525 109.115C121.131 108.998 119.695 108.908 115.294 110.941C112.423 112.266 109.766 113.817 109.74 113.834C109.634 113.895 109.517 113.932 109.395 113.94C106.168 114.177 102.941 113.294 99.2054 112.272C96.9659 111.658 94.6491 111.025 92.0629 110.555C91.6293 110.476 91.3428 110.061 91.4211 109.628C91.4994 109.195 91.9158 108.908 92.3475 108.987C95.0024 109.468 97.3537 110.112 99.6266 110.734C103.146 111.698 106.194 112.532 109.098 112.363C109.73 111.999 112.055 110.681 114.616 109.498C120.219 106.908 121.849 107.294 122.642 107.919C122.747 108.001 122.829 108.108 122.881 108.231C123.061 108.652 123.252 109.088 123.448 109.541C126.323 116.144 130.668 126.122 122.848 131.539C120.372 133.172 117.376 133.799 114.201 133.799Z" fill="#000072"/>
<path d="M109.337 122.527C109.337 122.527 108.615 119.606 108.75 116.422L109.337 122.527Z" fill="#B5CFDD"/>
<path d="M109.338 122.529C108.62 120.562 108.137 118.485 107.954 116.389L109.546 116.457C109.204 118.458 109.152 120.499 109.338 122.529Z" fill="#000072"/>
<path d="M61.8074 144.657C58.1857 138.706 47.6992 136.997 46.4841 146.458C45.4309 154.662 55.2847 158.46 62.3371 156.241C64.8859 155.44 66.2701 151.989 61.8074 144.657Z" fill="#5F5F82"/>
<path d="M62.3382 156.242C55.2856 158.459 45.4321 154.663 46.4845 146.459C46.9286 143.008 48.6025 141.044 50.7311 140.231C50.694 140.424 50.7698 140.666 50.6376 140.823C44.3339 148.328 52.5781 156.497 58.0463 146.788C60.6769 148.153 61.5319 151.53 64.5612 151.054C65.1408 154.107 63.98 155.726 62.3382 156.242Z" fill="#4D4D6D"/>
<path d="M53.2797 140.575C52.8038 140.575 52.3356 140.621 51.882 140.718C49.3246 141.262 47.6878 143.337 47.2737 146.561C46.8374 149.964 48.4881 152.137 49.9499 153.36C52.9882 155.904 57.9832 156.776 62.0977 155.483C62.8651 155.241 63.3985 154.737 63.6821 153.983C64.0912 152.896 64.3029 150.292 61.1258 145.073C59.4807 142.37 56.2395 140.575 53.2797 140.575ZM58.1398 157.662C54.7292 157.662 51.3046 156.573 48.9267 154.583C46.4289 152.492 45.2803 149.571 45.6932 146.357C46.3765 141.032 49.6562 139.562 51.5504 139.159C55.5083 138.317 60.2113 140.503 62.4878 144.244C65.8388 149.75 65.7982 152.884 65.1745 154.544C64.7226 155.745 63.7997 156.618 62.5759 157.003C61.1615 157.448 59.6518 157.662 58.1398 157.662Z" fill="#000072"/>
<path d="M55.172 144.658C54.545 144.658 53.8548 144.612 53.2251 144.558C51.3649 144.396 48.614 144.355 51.2146 142.761C51.9347 142.319 52.727 142.145 53.4937 142.145C55.2694 142.145 56.9075 143.079 57.1836 143.79C57.4484 144.471 56.4389 144.658 55.172 144.658Z" fill="#8F8FA8"/>
<path d="M77.8797 164.303C73.5903 165.201 69.5704 168.416 69.1173 172.257C68.8181 174.26 69.4739 180.53 68.4318 183.78C67.4055 186.979 65.009 188.17 61.3458 188.17C57.199 188.17 54.3361 188.17 50.3162 188.17C45.3944 188.17 45.118 183.38 45.8697 181.256C46.2661 180.136 47.3214 177.843 50.5062 176.99C45.3351 159.018 55.9298 151.242 56.7017 146.609" fill="#B5CFDD"/>
<path d="M77.8804 164.302C73.591 165.2 69.5711 168.414 69.118 172.257C68.8182 174.26 69.4746 180.53 68.4319 183.779C67.4056 186.979 65.0097 188.17 61.347 188.17H50.3168C46.1921 188.17 45.328 184.803 45.6026 182.464C45.6556 182.012 45.7503 181.6 45.8708 181.256C46.266 180.135 47.3213 177.842 50.5068 176.99C45.335 159.016 55.9297 151.241 56.7023 146.608L58.6551 148.24L77.8804 164.302Z" fill="#5F5F82"/>
<path d="M77.8804 164.302C73.591 165.2 69.5711 168.414 69.118 172.257C68.8182 174.26 69.4746 180.53 68.4319 183.779C67.4056 186.979 65.0097 188.17 61.347 188.17H50.3168C46.1921 188.17 45.328 184.803 45.6026 182.464C46.5607 183.287 48.2074 184.131 50.9284 184.131C56.9832 184.131 65.3259 185.738 65.6383 178.748C65.9022 172.837 65.603 171.395 67.4858 167.388C69.318 163.491 57.1946 160.224 56.4385 150.952C56.3015 149.261 57.2426 148.484 58.6551 148.24L77.8804 164.302Z" fill="#4D4D6D"/>
<path d="M61.3454 188.965H50.3161C47.8089 188.965 46.4795 187.829 45.8056 186.876C44.5368 185.08 44.5596 182.565 45.1184 180.987C45.8928 178.799 47.4113 177.247 49.5328 176.461C46.0123 163.346 50.7074 155.716 53.834 150.636C54.8973 148.908 55.7381 147.543 55.9157 146.476L57.4879 146.738C57.2591 148.113 56.3462 149.595 55.1919 151.472C52.1531 156.409 47.5611 163.87 51.2719 176.767C51.3313 176.973 51.3048 177.194 51.2005 177.38C51.0949 177.566 50.9185 177.702 50.7124 177.758C48.6895 178.299 47.3127 179.565 46.6211 181.519C46.1925 182.73 46.2171 184.696 47.1072 185.956C47.7716 186.895 48.8507 187.371 50.3161 187.371H61.3454C64.9177 187.371 66.8098 186.224 67.672 183.534C68.3074 181.555 68.272 178.286 68.2435 175.659C68.2283 174.182 68.2144 172.907 68.3295 172.138C68.8555 167.669 73.4506 164.414 77.7158 163.521L78.0427 165.081C73.7895 165.972 70.293 169.096 69.9093 172.348C69.8094 173.017 69.8227 174.234 69.8378 175.642C69.8675 178.383 69.9042 181.795 69.1899 184.021C68.1089 187.394 65.6156 188.965 61.3454 188.965Z" fill="#000072"/>
<path d="M59.0924 177.72C56.3099 177.366 53.4011 177.162 50.6501 177.773L50.3623 176.205C53.3417 176.075 56.2805 176.82 59.0924 177.72Z" fill="#000072"/>
<path d="M56.1959 180.375C55.3442 181.632 55.1077 183.223 55.4903 184.672C55.8417 185.891 56.7063 187.284 58.0064 187.392L57.6559 188.947C54.2437 187.804 53.9559 182.729 56.1959 180.375Z" fill="#000072"/>
<path d="M51.0631 180.375C49.3511 181.854 49.6625 184.703 50.8646 186.375C51.2654 186.913 51.7902 187.297 52.3321 187.421L51.7848 188.918C48.7487 187.595 48.2555 182.071 51.0631 180.375Z" fill="#000072"/>
<path d="M86.1035 164.302C90.3939 165.201 94.4133 168.416 94.8661 172.257C95.1653 174.26 94.5095 180.53 95.5528 183.78C96.5784 186.979 98.9747 188.17 102.638 188.17C106.784 188.17 109.647 188.17 113.668 188.17C118.589 188.17 118.866 183.38 118.114 181.256C117.718 180.136 116.662 177.843 113.477 176.99C118.648 159.018 108.054 151.242 107.282 146.609" fill="#B5CFDD"/>
<path d="M86.104 164.303C90.3934 165.2 94.4122 168.414 94.8661 172.257C95.1666 174.26 94.5092 180.53 95.5526 183.779C96.5785 186.979 98.9748 188.17 102.638 188.17H113.667C117.792 188.17 118.656 184.803 118.382 182.464C118.328 182.012 118.233 181.6 118.113 181.256C117.718 180.135 116.663 177.842 113.477 176.989C118.649 159.016 108.054 151.242 107.281 146.607L105.329 148.24L86.104 164.303Z" fill="#5F5F82"/>
<path d="M86.104 164.303C90.3934 165.2 94.4122 168.414 94.8661 172.257C95.1666 174.26 94.5092 180.53 95.5526 183.779C96.5785 186.979 98.9748 188.17 102.638 188.17H113.667C117.792 188.17 118.656 184.803 118.382 182.464C117.423 183.287 115.776 184.131 113.055 184.131C107.001 184.131 98.6575 185.738 98.3456 178.748C98.082 172.837 98.3817 171.396 96.4983 167.388C94.666 163.491 106.79 160.224 107.546 150.952C107.683 149.261 106.741 148.484 105.329 148.24L86.104 164.303Z" fill="#4D4D6D"/>
<path d="M113.667 188.965H102.637C98.3676 188.965 95.8748 187.394 94.7928 184.021C94.0795 181.795 94.1158 178.383 94.145 175.641C94.161 174.233 94.1734 173.017 94.0768 172.372C93.6904 169.096 90.1936 165.972 85.9399 165.081L86.2669 163.521C90.5321 164.414 95.1269 167.669 95.6577 172.162C95.7685 172.907 95.7552 174.182 95.7393 175.658C95.7109 178.285 95.6754 181.554 96.3108 183.534C97.1731 186.223 99.0651 187.371 102.637 187.371H113.667C115.132 187.371 116.212 186.895 116.875 185.957C117.766 184.697 117.791 182.73 117.363 181.519C116.67 179.565 115.294 178.299 113.27 177.758C113.064 177.702 112.888 177.566 112.783 177.38C112.678 177.194 112.652 176.973 112.711 176.767C116.422 163.87 111.83 156.409 108.791 151.472C107.637 149.595 106.724 148.113 106.495 146.738L108.068 146.476C108.245 147.543 109.085 148.908 110.148 150.636C113.276 155.716 117.971 163.346 114.451 176.462C116.571 177.247 118.089 178.798 118.865 180.987C119.423 182.565 119.446 185.081 118.176 186.876C117.504 187.829 116.174 188.965 113.667 188.965Z" fill="#000072"/>
<path d="M104.891 177.72C107.704 176.82 110.641 176.075 113.621 176.205L113.333 177.773C110.582 177.162 107.673 177.366 104.891 177.72Z" fill="#000072"/>
<path d="M107.788 180.373C110.027 182.727 109.74 187.803 106.328 188.945L105.978 187.39C107.279 187.281 108.142 185.889 108.493 184.67C108.876 183.221 108.64 181.631 107.788 180.373Z" fill="#000072"/>
<path d="M112.921 180.373C115.727 182.069 115.236 187.591 112.199 188.916L111.651 187.419C112.193 187.295 112.718 186.911 113.118 186.373C114.321 184.701 114.633 181.853 112.921 180.373Z" fill="#000072"/>
<path d="M108.271 147.653C107.931 150.546 106.941 153.362 105.03 155.97L94.939 164.864C92.3856 166.157 87.9929 167.443 81.9986 167.443C76.0019 167.443 71.61 166.157 69.0558 164.864L58.9652 155.97C57.0566 153.362 56.0658 150.544 55.7266 147.653C54.4335 136.614 62.6091 124.467 65.1262 118.486L81.9986 111.711L98.8702 118.486C101.388 124.467 109.563 136.614 108.271 147.653Z" fill="white"/>
<path d="M108.272 147.652C107.933 150.545 106.94 153.36 105.029 155.968L94.9393 164.863C92.385 166.156 87.9931 167.443 81.9996 167.443C78.2285 167.443 75.0923 166.935 72.6495 166.236C71.2064 165.821 70.0053 165.343 69.0567 164.863L58.9669 155.968C57.5832 154.08 56.6831 152.081 56.161 150.023C55.9636 149.239 55.8202 148.449 55.7266 147.652C54.4334 136.613 62.6092 124.466 65.1271 118.485L81.9996 111.711L98.8705 118.485C101.389 124.466 109.565 136.613 108.272 147.652Z" fill="white"/>
<path d="M103.762 128.414C100.654 128.08 93.3948 127.461 81.9911 127.461C70.6078 127.461 63.3537 128.078 60.2373 128.414C62.1245 124.405 64.0986 120.93 65.1263 118.485C65.1263 118.485 67.2829 111.71 81.9998 111.71C96.715 111.71 98.87 118.485 98.87 118.485C99.8985 120.93 101.873 124.405 103.762 128.414Z" fill="#5F5F82"/>
<path d="M108.271 147.653C107.933 150.546 106.942 153.362 105.031 155.97L94.94 164.864C92.3857 166.157 87.9935 167.443 81.9996 167.443C76.0024 167.443 71.611 166.157 69.056 164.864L58.9658 155.97C57.0566 153.362 56.0662 150.544 55.7271 147.653C59.5708 150.733 68.1746 154.734 81.9996 154.734C95.8238 154.734 104.426 150.733 108.271 147.653Z" fill="#DFE7F2"/>
<path d="M72.6489 166.234C71.2063 165.82 70.0052 165.341 69.0563 164.862C69.0563 164.862 67.044 164.325 63.0338 160.382C59.543 156.948 58.9661 155.967 58.9661 155.967C57.5834 154.078 56.683 152.079 56.1606 150.021C59.4723 153.366 69.6841 161.876 72.6489 166.234Z" fill="#4D4D6D"/>
<path d="M91.3486 166.234C92.7911 165.82 93.9931 165.341 94.9409 164.862C94.9409 164.862 96.9539 164.325 100.963 160.381C104.455 156.948 105.031 155.967 105.031 155.967C106.414 154.078 107.315 152.079 107.837 150.021C104.525 153.366 94.3134 161.876 91.3486 166.234Z" fill="#4D4D6D"/>
<path d="M97.6172 115.633C93.3858 117.143 87.9169 118.053 81.944 118.053C76.0231 118.053 70.5948 117.158 66.3784 115.674C68.2568 112.177 72.9621 105.672 81.944 105.672C90.8898 105.672 95.6764 112.127 97.6172 115.633Z" fill="#4D4D6D"/>
<path d="M58.9663 155.971C56.5304 153.547 55.1416 150.128 54.8369 146.71C54.0869 138.031 58.4061 130.063 62.6076 122.827C63.4543 121.382 64.3251 119.96 65.1267 118.487C62.944 124.632 59.499 130.729 57.8207 137.027C55.9462 143.541 55.7218 149.827 58.9663 155.971Z" fill="#000072"/>
<path d="M105.03 155.971C108.276 149.819 108.05 143.545 106.176 137.027C104.497 130.73 101.052 124.63 98.8691 118.487C99.6712 119.96 100.542 121.382 101.389 122.827C105.59 130.062 109.91 138.032 109.16 146.71C108.855 150.128 107.466 153.548 105.03 155.971Z" fill="#000072"/>
<path d="M94.9392 164.865C88.2476 169.39 75.7534 169.393 69.0566 164.865C76.7644 167.269 87.2278 167.27 94.9392 164.865Z" fill="#000072"/>
<path d="M54.8544 53.952C61.9666 47.1072 61.1914 41.8632 59.0649 38.5143C56.3792 34.2829 51.8772 29.5843 45.3828 30.3751C36.1283 31.5031 30.0283 39.5348 33.2265 48.2329C35.1375 53.4305 38.6808 56.2929 41.9277 57.8666C45.5743 59.635 49.5835 59.0252 54.8544 53.952Z" fill="#777782"/>
<path d="M54.8539 53.9523C49.5837 59.0243 45.5744 59.6352 41.9273 57.8669C38.6809 56.292 35.137 53.4307 33.226 48.2331C32.8484 47.2092 32.6011 46.1955 32.4749 45.201C31.5077 37.7407 37.2192 31.371 45.3839 30.3742C51.8783 29.5845 56.3798 34.282 59.0655 38.5134C59.1607 38.6639 59.2522 38.8155 59.34 38.9727C61.2451 42.3341 61.65 47.4129 54.8539 53.9523Z" fill="#5F5F82"/>
<path d="M54.8541 53.9523C49.5839 59.0238 45.5746 59.6359 41.9275 57.8663C38.6812 56.2921 35.1372 53.4315 33.2262 48.2333C32.8486 47.2089 32.6014 46.1953 32.4751 45.2009C33.8217 48.389 36.4138 51.9111 41.194 51.1948C47.4877 50.2531 51.168 39.8589 59.3401 38.973C61.2453 42.3339 61.6502 47.414 54.8541 53.9523Z" fill="#4D4D6D"/>
<path d="M59.1855 38.7046C59.1784 38.6925 59.1707 38.6804 59.1636 38.6683C59.1713 38.6804 59.1784 38.6925 59.186 38.7046C59.1855 38.7057 59.1866 38.7046 59.1855 38.7046Z" fill="#BBFFCD"/>
<path d="M32.591 41.2281C33.5594 36.24 37.6002 32.2264 43.1262 30.8002C37.6008 32.2276 33.56 36.24 32.591 41.2281Z" fill="#A0A0A8"/>
<path d="M32.7179 45.748C32.6329 45.5655 32.5527 45.384 32.4762 45.2025C32.2985 43.8388 32.3445 42.5111 32.588 41.2454C32.5891 41.2398 32.5901 41.2352 32.5911 41.2296C32.5911 41.2285 32.5911 41.2285 32.5911 41.2274C33.5601 36.2389 37.601 32.2277 43.1265 30.7997C43.1302 30.7985 43.1339 30.7974 43.1372 30.7974C43.1382 30.7963 43.1393 30.7963 43.1403 30.7963C43.8637 30.6103 44.6116 30.4683 45.3825 30.3748C45.8699 30.315 46.3461 30.2868 46.8115 30.2868C52.6195 30.2868 56.6882 34.7151 59.1636 38.67C59.1706 38.6813 59.178 38.6937 59.185 38.705C59.0342 38.7884 58.8827 38.8729 58.7335 38.9586C56.136 35.7802 52.5178 32.9997 47.8072 32.9997C47.3187 32.9997 46.819 33.029 46.3065 33.0921C38.824 34.0051 33.3081 39.2234 32.7179 45.748Z" fill="#8F8FA8"/>
<path d="M32.6778 46.3535C32.5926 45.9672 32.5258 45.5841 32.4766 45.203C32.5531 45.3842 32.6333 45.5665 32.7184 45.7488C32.7001 45.9497 32.6868 46.1505 32.6778 46.3535Z" fill="#838399"/>
<path d="M45.5677 60.0039C45.5009 60.0039 45.4323 59.9959 45.3644 59.9777C41.7799 59.034 35.3396 56.2893 32.4784 48.5073C30.9837 44.4421 31.3442 40.2665 33.4934 36.7512C35.8987 32.8158 40.1969 30.2032 45.2863 29.5839C54.6483 28.4421 60.0507 38.0091 61.9398 42.1745C62.1211 42.5752 61.9435 43.0476 61.5428 43.2297C61.1415 43.4119 60.6697 43.2332 60.4878 42.8324C58.7442 38.9881 53.7939 30.1542 45.4789 31.1662C40.8758 31.7263 37.0029 34.0657 34.8539 37.5822C32.9637 40.6741 32.6512 44.359 33.9743 47.9575C36.4556 54.7058 41.7585 57.3811 45.77 58.4363C46.1957 58.5479 46.4499 58.9839 46.3382 59.4097C46.2439 59.7671 45.9208 60.0039 45.5677 60.0039Z" fill="#000072"/>
<path d="M109.145 53.952C102.033 47.1072 102.808 41.8632 104.935 38.5143C107.62 34.2829 112.123 29.5843 118.617 30.3751C127.872 31.5031 133.971 39.5348 130.772 48.2329C128.861 53.4305 125.319 56.2929 122.072 57.8666C118.426 59.635 114.416 59.0252 109.145 53.952Z" fill="#777782"/>
<path d="M109.146 53.9523C114.416 59.0243 118.426 59.6352 122.072 57.8669C125.319 56.292 128.863 53.4307 130.774 48.2331C131.152 47.2092 131.398 46.1955 131.525 45.201C132.492 37.7407 126.781 31.371 118.616 30.3742C112.122 29.5845 107.62 34.282 104.934 38.5134C104.839 38.6639 104.747 38.8155 104.66 38.9727C102.755 42.3341 102.35 47.4129 109.146 53.9523Z" fill="#5F5F82"/>
<path d="M109.146 53.9523C114.416 59.0238 118.426 59.6359 122.072 57.8663C125.318 56.2921 128.863 53.4315 130.773 48.2333C131.151 47.2089 131.398 46.1953 131.525 45.2009C130.178 48.389 127.586 51.9111 122.806 51.1948C116.512 50.2531 112.832 39.8589 104.66 38.973C102.755 42.3339 102.35 47.414 109.146 53.9523Z" fill="#4D4D6D"/>
<path d="M104.837 38.6699C104.837 38.6685 104.837 38.6685 104.838 38.6685C104.838 38.6685 104.837 38.6685 104.837 38.6699Z" fill="#BBFFCD"/>
<path d="M131.416 41.2676C130.461 36.2592 126.411 32.2287 120.867 30.7991C126.411 32.2276 130.461 36.2592 131.416 41.2676Z" fill="#A0A0A8"/>
<path d="M131.282 45.748C130.693 39.2234 125.177 34.0051 117.694 33.0921C117.182 33.029 116.682 32.9997 116.193 32.9997C111.5 32.9997 107.891 35.7599 105.295 38.9236C105.144 38.838 104.991 38.7523 104.838 38.6678H104.839C107.314 34.714 111.382 30.2868 117.189 30.2868C117.655 30.2868 118.131 30.315 118.617 30.3748C119.387 30.4683 120.133 30.6092 120.855 30.7952C120.858 30.7963 120.863 30.7974 120.867 30.7974C120.867 30.7985 120.867 30.7985 120.867 30.7985C126.411 32.2277 130.461 36.2581 131.417 41.2668C131.657 42.5257 131.701 43.8467 131.525 45.2025C131.448 45.384 131.368 45.5655 131.282 45.748Z" fill="#8F8FA8"/>
<path d="M131.323 46.3535C131.314 46.1505 131.3 45.9497 131.283 45.7488C131.368 45.5665 131.447 45.3842 131.524 45.203C131.475 45.5841 131.408 45.9672 131.323 46.3535Z" fill="#838399"/>
<path d="M118.433 60.0039C118.08 60.0039 117.757 59.7671 117.662 59.4097C117.551 58.9839 117.805 58.5479 118.23 58.4352C122.242 57.3799 127.546 54.7047 130.026 47.9575C131.349 44.3579 131.037 40.6741 129.146 37.5811C126.997 34.0646 123.124 31.7263 118.522 31.1651C110.208 30.1519 105.256 38.987 103.512 42.8324C103.331 43.2332 102.859 43.4108 102.458 43.2286C102.057 43.0476 101.878 42.5752 102.061 42.1733C103.949 38.008 109.349 28.4421 118.714 29.5827C123.804 30.2032 128.101 32.8158 130.507 36.75C132.656 40.2665 133.017 44.4421 131.522 48.5073C128.66 56.2893 122.22 59.034 118.636 59.9766C118.568 59.9948 118.499 60.0039 118.433 60.0039Z" fill="#000072"/>
<path d="M87.9568 112.266C109.401 111.647 127.938 101.332 124.396 81.3061C124.301 80.8525 126.167 49.1894 101.725 38.124C94.8338 35.0039 88.3596 34.1729 81.9766 34.1011H81.976H81.9755C75.5924 34.1729 69.1179 35.0039 62.2266 38.124C37.7851 49.1894 39.6517 80.8525 39.557 81.3061C36.0137 101.332 54.5515 111.647 75.9953 112.266H87.9568Z" fill="white"/>
<path d="M119.965 99.8743C113.486 107.752 101.284 111.88 87.9584 112.266H75.997C62.6246 111.88 50.3833 107.723 43.92 99.7926C40.0198 95.0071 38.2233 88.8454 39.5586 81.3062C39.6518 80.8526 37.7857 49.1884 62.2276 38.1241C69.119 35.004 75.5919 34.173 81.9755 34.1012H81.9772C88.3613 34.173 94.8354 35.004 101.728 38.1241C126.167 49.1884 124.301 80.8526 124.396 81.3062C125.737 88.8884 123.914 95.0767 119.965 99.8743Z" fill="white"/>
<path d="M82.4421 87.6501L82.332 87.668V87.6323L82.4421 87.6501Z" fill="#512717"/>
<path d="M59.2344 54.0449C59.7608 52.0619 63.8199 45.4717 67.6076 48.3605C68.943 49.3789 68.6579 52.2066 66.7859 52.6802C64.0574 53.3708 63.4753 53.0141 59.2344 54.0449Z" fill="#000072"/>
<path d="M104.694 54.0703C104.17 52.0864 100.117 45.4918 96.3265 48.3761C94.9898 49.3934 95.272 52.2219 97.1432 52.6974C99.8714 53.3911 100.453 53.0344 104.694 54.0703Z" fill="#000072"/>
<path d="M79.0225 35.4023C80.6799 34.5644 81.2315 33.8132 81.9762 32.8541L79.0225 35.4023Z" fill="white"/>
<path d="M79.0225 35.4023C80.1172 34.5844 80.7901 33.605 81.3466 32.3658L82.6059 33.3431C81.6397 34.2646 80.3418 35.1004 79.0225 35.4023Z" fill="#232333"/>
<path d="M65.694 86.251C68.9001 84.7866 73.2766 84.1807 74.4753 78.6223C76.053 71.3059 71.8847 63.812 65.0712 63.1699C58.4341 62.5437 51.2431 66.7083 48.5836 74.6547C46.4543 81.0169 48.6361 87.2071 53.2868 88.6353C56.3765 89.584 60.3659 88.6836 65.694 86.251Z" fill="#5F5F82"/>
<path d="M98.2002 86.251C94.9945 84.7866 90.6171 84.1807 89.4194 78.6223C87.8416 71.3059 92.0099 63.812 98.8227 63.1699C105.46 62.5437 112.651 66.7083 115.311 74.6547C117.44 81.0169 115.258 87.2071 110.608 88.6353C107.518 89.584 103.528 88.6836 98.2002 86.251Z" fill="#5F5F82"/>
<path d="M119.964 99.8756C113.485 107.754 101.283 111.883 87.9573 112.268C87.9573 112.268 84.9682 112.439 81.9417 112.439C78.9161 112.439 75.9964 112.268 75.9964 112.268C62.624 111.883 50.3828 107.725 43.9194 99.7946C51.5346 105.125 62.1843 108.807 81.9693 108.815C101.705 108.825 112.347 105.175 119.964 99.8756Z" fill="#DFE7F2"/>
<path d="M87.9572 112.264C98.1871 110.613 109.02 108.96 116.933 101.812C119.298 99.687 121.212 97.0496 122.431 94.1084C122.546 93.8057 122.814 93.0637 122.924 92.7709C123.011 92.4981 123.226 91.6874 123.315 91.399C123.692 89.8663 123.876 88.2615 123.934 86.6822C123.913 86.1 123.94 85.3381 123.894 84.7691C123.832 84.188 123.809 83.4228 123.711 82.8605C123.674 82.6675 123.567 81.8512 123.537 81.6793C123.501 81.4675 123.48 81.2335 123.487 81.0183C123.672 64.7086 117.605 46.386 101.819 39.1761C98.0196 37.3528 93.9317 36.1695 89.7605 35.5562C81.976 33.2227 81.9766 33.2227 81.9766 33.2227C87.1953 35.1691 84.573 35.0161 81.976 34.9761V33.2227L81.9766 34.9761C79.3792 35.0094 76.7566 35.1558 74.1886 35.5362C70.0139 36.1395 65.9185 37.314 62.1104 39.1284C46.3412 46.2729 40.0871 64.7231 40.3787 81.0194C40.391 81.3089 40.3412 81.6161 40.2995 81.9022C37.9813 96.28 47.7836 105.099 60.5819 109.068C65.566 110.597 70.7313 111.469 75.9952 112.264C75.3319 112.325 74.6664 112.364 73.9992 112.403C69.311 112.556 64.6168 111.976 60.109 110.64C46.2888 106.695 36.1372 96.8833 38.6816 81.6228L38.7191 81.3688L38.7384 81.2424L38.7475 81.178C38.749 81.1692 38.7517 81.1547 38.7517 81.1492C38.7469 81.1536 38.742 81.1603 38.7416 81.1658C38.7405 81.1714 38.7416 81.1769 38.7416 81.147L38.7405 81.0261C38.566 64.7841 44.4072 46.569 59.5675 38.4963C64.0375 36.1229 68.9311 34.5392 73.9382 33.8216C76.6079 33.4212 79.2823 33.2638 81.9755 33.2227L81.976 34.9761V33.2227L81.9766 34.9761H81.976L81.9766 33.2227C89.0374 33.2538 96.1864 34.4649 102.589 37.5425C118.994 44.9753 125.599 64.0898 125.298 81.0272L125.297 81.1481C125.297 81.1547 125.297 81.1758 125.297 81.1703C125.299 81.1581 125.292 81.1448 125.284 81.1337C125.284 81.1381 125.288 81.1536 125.289 81.1625L125.298 81.2257L125.316 81.3533L125.353 81.6083C125.545 82.9226 125.719 84.371 125.708 85.6985L125.715 86.7266L125.652 87.7547C125.527 89.8009 125.102 91.8715 124.404 93.8023C119.572 107.399 101.265 113.573 87.9572 112.264Z" fill="#000072"/>
<path d="M58.2856 40.2168C67.6626 34.6156 77.5125 35.2739 78.2994 26.4099C78.2994 26.4099 82.4961 28.9246 81.9766 32.8547C83.0936 31.8857 84.5472 30.1261 90.3714 30.6601C95.5123 31.1308 98.0591 29.1179 98.0591 29.1179C98.0591 29.1179 98.6518 35.443 91.4992 37.2349" fill="white"/>
<path d="M57.8768 39.5313C61.5864 37.2909 65.7594 35.9349 69.7468 34.4055C72.5786 33.2645 75.4809 31.9779 76.7868 29.1642C77.194 28.2948 77.4187 27.3319 77.5054 26.3389C77.5354 25.8996 77.9205 25.569 78.3593 25.6083C78.4865 25.6187 78.607 25.6614 78.7086 25.725C79.3436 26.1285 79.8535 26.5469 80.3804 27.0567C81.4119 28.0602 82.2584 29.2913 82.6264 30.7167C82.8254 31.4427 82.8367 32.2114 82.7665 32.9582L81.4537 32.2519C83.7237 29.9075 86.8497 29.5896 89.9217 29.8277C90.5145 29.8716 91.3952 29.9375 91.9825 29.9294C93.9084 29.9052 95.9349 29.5618 97.5649 28.4914C98.0365 28.0914 98.8168 28.4289 98.8527 29.0428C99.3937 33.4437 95.7511 37.0181 91.4993 37.2331C95.1569 35.6471 97.0088 33.179 97.2655 29.1919L98.5533 29.7422C98.4331 29.8335 98.3614 29.8786 98.2701 29.9375C96.0713 31.2797 93.4079 31.6357 90.8785 31.4901C87.8625 31.2473 84.7327 31.0947 82.499 33.4564C81.9657 33.9547 81.0674 33.4611 81.1862 32.7501C81.4842 30.3942 79.7566 28.3145 77.8896 27.0926L79.0933 26.4799C78.8215 30.2439 76.6227 32.9004 73.3335 34.5465C70.4461 36.032 67.297 36.943 64.3443 38.1591C62.3831 38.9429 60.4843 39.8388 58.6899 40.9023C57.7987 41.4098 56.9699 40.1116 57.8768 39.5313Z" fill="#000072"/>
<path d="M86.7149 80.4711C85.818 82.9812 81.9758 84.3965 81.9758 84.3965C81.9758 84.3965 78.1345 82.9812 77.2376 80.4711C76.5978 78.6756 81.118 78.3828 81.9758 78.3828C82.8345 78.3828 87.3548 78.6756 86.7149 80.4711Z" fill="#000072"/>
<path d="M83.924 83.4266C83.3223 83.9134 82.4058 84.658 81.9776 86.7032L81.9752 86.7129L81.9728 86.7049C81.5446 84.658 80.628 83.9134 80.0264 83.4266L81.9728 83.0619H81.9776L83.924 83.4266Z" fill="#000072"/>
<path d="M81.977 86.7028V86.7227L81.9746 86.7123L81.977 86.7028Z" fill="#512717"/>
<path d="M81.9743 86.7123L81.9727 86.7207V86.7039L81.9743 86.7123Z" fill="#512717"/>
<path d="M81.9824 79.9219C81.979 79.9219 81.9765 79.9219 81.9765 79.9219C81.9765 79.9219 81.9749 79.9219 81.9707 79.9219C81.8654 79.9219 80.3704 79.9111 80.012 79.2997C79.7465 78.8467 81.6206 78.772 81.9765 78.772C82.3325 78.772 84.2066 78.8467 83.9411 79.2997C83.5827 79.9111 82.0885 79.9219 81.9824 79.9219Z" fill="#8080B9"/>
<path d="M98.9682 95.6247C97.8492 101.513 91.1672 104.711 81.9725 104.711C72.7802 104.711 66.0958 101.513 64.9784 95.6247C64.006 90.5059 66.2312 87.0619 68.5158 86.1077C68.9704 85.9169 69.4138 85.783 69.8462 85.6951C73.6655 84.9215 76.7484 87.8071 81.9725 87.8071C87.199 87.8071 90.2795 84.9215 94.0988 85.6951C94.5312 85.783 94.9739 85.9169 95.4292 86.1077C97.713 87.0619 99.9391 90.5059 98.9682 95.6247Z" fill="#363D56"/>
<path d="M98.9676 95.6239C98.3792 98.7218 96.2514 101.076 93.026 102.609C90.1237 103.993 86.3298 104.711 81.9727 104.711C77.6537 104.711 73.8898 104.004 70.9963 102.646C67.7273 101.113 65.5718 98.7456 64.9786 95.6239C64.007 90.5059 66.2314 87.0627 68.5168 86.1077C68.9722 85.9177 69.4141 85.7814 69.8472 85.6959C73.6657 84.9214 76.7486 87.8063 81.9727 87.8063C87.1985 87.8063 90.2797 84.9214 94.0998 85.6959C94.5314 85.7814 94.9749 85.9177 95.4302 86.1077C97.7133 87.0627 99.9377 90.5059 98.9676 95.6239Z" fill="#000072"/>
<path d="M89.1278 96.5977C91.4058 97.5948 89.8005 102.514 81.9774 102.514C74.1549 102.514 72.5895 97.5977 74.8799 96.5977C74.8959 96.5911 74.9118 96.5846 74.9271 96.5774C76.9903 95.7087 80.5419 96.7885 82.0042 99.0832C83.4665 96.7885 87.0174 95.7087 89.0806 96.5774C89.0966 96.5846 89.1125 96.5911 89.1278 96.5977Z" fill="#FC9595"/>
<path d="M94.1011 85.7779C94.1011 92.4766 85.7672 93.0879 81.9724 93.0879C78.1777 93.0879 69.8438 92.4766 69.8438 85.7779C69.8438 85.751 69.8437 85.7233 69.8461 85.6963C73.6654 84.9227 76.7483 87.8083 81.9724 87.8083C87.199 87.8083 90.2794 84.9227 94.0987 85.6963C94.1011 85.7233 94.1011 85.751 94.1011 85.7779Z" fill="white"/>
<path d="M71.1776 86.3598C70.4163 86.3598 69.6453 86.4983 68.8235 86.8424C67.073 87.5759 64.8121 90.4795 65.7606 95.4776C66.764 100.761 72.8245 103.915 81.9727 103.915C91.1208 103.915 97.1805 100.761 98.184 95.4776C99.1325 90.4795 96.8723 87.5759 95.1219 86.8424C92.8458 85.8907 90.9615 86.5111 88.5755 87.2971C86.7144 87.9103 84.6055 88.6056 81.9727 88.6056C79.3406 88.6056 77.231 87.9103 75.3698 87.2971C73.8455 86.7954 72.5259 86.3598 71.1776 86.3598ZM81.9727 105.51C71.9979 105.51 65.352 101.87 64.1949 95.7747C63.1882 90.4691 65.4516 86.5262 68.2079 85.3722C71.0335 84.1904 73.382 84.9637 75.8683 85.7832C77.7008 86.3868 79.5962 87.0112 81.9727 87.0112C84.3491 87.0112 86.2445 86.3868 88.077 85.7832C90.5633 84.9637 92.9119 84.1896 95.7375 85.3722C98.4938 86.5262 100.757 90.4691 99.7497 95.7747C98.5925 101.87 91.9467 105.51 81.9727 105.51Z" fill="#000072"/>
<path d="M72.5201 76.0124C72.5237 81.0751 68.9722 85.1809 64.5877 85.1836C60.2039 85.1854 56.6478 81.0841 56.6445 76.0214C56.6419 70.9587 60.1932 66.852 64.577 66.8502C68.9614 66.8474 72.5174 70.9496 72.5201 76.0124Z" fill="#000072"/>
<path d="M69.4582 73.9463C69.4591 76.0676 67.9716 77.7882 66.1345 77.7891C64.2983 77.7899 62.8082 76.072 62.8066 73.9507C62.8056 71.8293 64.293 70.1088 66.131 70.1079C67.9672 70.107 69.4573 71.8258 69.4582 73.9463Z" fill="white"/>
<path d="M61.6966 81.4355C60.825 81.4355 60.118 80.6191 60.1172 79.6121C60.1164 78.6043 60.8233 77.7879 61.6949 77.7871C61.6958 77.7871 61.6957 77.7871 61.6966 77.7871C62.5682 77.7871 63.276 78.6027 63.276 79.6105C63.2768 80.6174 62.5699 81.4347 61.6974 81.4355H61.6966Z" fill="#9999C7"/>
<path d="M91.4341 76.0124C91.4305 81.0751 94.9829 85.1809 99.3667 85.1836C103.751 85.1854 107.307 81.0841 107.31 76.0214C107.312 70.9587 103.761 66.852 99.3776 66.8502C94.9928 66.8474 91.4368 70.9496 91.4341 76.0124Z" fill="#000072"/>
<path d="M94.4956 73.9463C94.4947 76.0676 95.9822 77.7882 97.8184 77.7891C99.6555 77.7899 101.146 76.072 101.147 73.9507C101.148 71.8293 99.6599 70.1088 97.8229 70.1079C95.9866 70.107 94.4965 71.8258 94.4956 73.9463Z" fill="white"/>
<path d="M102.256 81.4355H102.255C101.383 81.4347 100.676 80.6174 100.677 79.6105C100.678 78.6027 101.385 77.7871 102.256 77.7871C102.257 77.7871 102.257 77.7871 102.258 77.7871C103.129 77.7879 103.836 78.6043 103.836 79.6121C103.836 80.6191 103.128 81.4355 102.256 81.4355Z" fill="#9999C7"/>
<path d="M113.68 104.612C108.952 105.506 107.926 102.003 108.453 100.251C109.17 97.8698 111.516 98.2008 113.604 96.9932C114.92 96.2336 116.656 95.0891 118.537 95.9484C120.758 96.9621 120.659 99.7593 122.259 100.823C124 101.98 114.976 104.419 114.976 104.419L113.68 104.612Z" fill="#5F5F82"/>
<path d="M109.139 101.441C109.103 101.09 109.133 100.754 109.216 100.48C109.557 99.3476 110.315 99.0582 111.739 98.6044C112.438 98.3816 113.231 98.1285 114.003 97.6828L114.258 97.5345C115.149 97.0133 116.13 96.4405 117.144 96.4405C117.495 96.4405 117.849 96.5089 118.206 96.6714C118.946 97.0097 119.371 97.6321 119.734 98.3461C119.425 97.9332 119.034 97.5744 118.496 97.3285C118.057 97.1278 117.627 97.0452 117.209 97.0452C115.973 97.0452 114.847 97.7698 113.938 98.2937C112.006 99.4089 109.838 99.1044 109.175 101.305C109.162 101.349 109.149 101.394 109.139 101.441Z" fill="#CFCFD9"/>
<path d="M112.242 105.553C110.376 105.553 109.266 104.813 108.631 104.109C107.507 102.859 107.348 101.155 107.689 100.021C108.287 98.0324 109.863 97.5301 111.254 97.087C111.907 96.8786 112.582 96.6629 113.205 96.3035L113.452 96.1589C114.757 95.3973 116.727 94.2453 118.868 95.2226C120.373 95.9105 120.975 97.2116 121.507 98.359C121.867 99.1388 122.179 99.8121 122.699 100.159C123.315 100.568 123.299 101.117 123.264 101.334C123.194 101.767 122.979 103.081 115.183 105.188L114.767 103.649C117.423 102.931 120.462 101.858 121.448 101.201C120.791 100.61 120.42 99.8085 120.06 99.0296C119.604 98.0451 119.174 97.1152 118.205 96.673C116.818 96.0388 115.457 96.834 114.257 97.5356L114.003 97.683C113.23 98.1297 112.438 98.3827 111.738 98.6056C110.315 99.0587 109.556 99.349 109.216 100.48C109.003 101.185 109.141 102.293 109.816 103.042C110.566 103.875 111.85 104.146 113.531 103.828L113.828 105.394C113.246 105.505 112.72 105.553 112.242 105.553Z" fill="#000072"/>
<path d="M120.583 116.339C117.591 117.969 110.97 119.724 107.993 117.4C106.654 116.546 104.096 112.238 104.969 108.98C105.303 107.73 106.474 106.312 108.579 105.758C109.92 102.358 112.868 101.64 114.813 101.465C115.475 100.298 116.447 99.309 118.619 99.309C121.987 99.309 125.098 102.507 126.294 105.201C128.268 109.65 125.44 113.692 120.583 116.339Z" fill="#5F5F82"/>
<path d="M104.978 112.045C104.871 111.551 104.805 111.051 104.793 110.558C104.805 111.051 104.872 111.551 104.978 112.045Z" fill="#E2FFE9"/>
<path d="M106 114.82C105.825 114.483 105.659 114.125 105.509 113.754C105.509 113.754 105.509 113.754 105.51 113.754C105.659 114.125 105.825 114.483 106 114.82Z" fill="#CFCFD9"/>
<path d="M105.51 113.752C105.509 113.752 105.509 113.752 105.509 113.752C105.289 113.206 105.105 112.629 104.978 112.046C105.105 112.629 105.289 113.206 105.51 113.752Z" fill="#B2B2D4"/>
<path d="M123.342 101.305C123.32 101.286 123.296 101.266 123.274 101.248C123.297 101.266 123.319 101.286 123.342 101.305Z" fill="#E2FFE9"/>
<path d="M115.699 100.305C116.338 99.7109 117.236 99.3089 118.62 99.3089C119.195 99.3089 119.763 99.4025 120.314 99.5701C120.314 99.571 120.315 99.571 120.315 99.571C119.763 99.4025 119.194 99.3098 118.619 99.3098C117.236 99.3098 116.338 99.7109 115.699 100.305Z" fill="#CFCFD9"/>
<path d="M123.275 101.246C122.386 100.497 121.38 99.8934 120.315 99.5687H120.314C121.379 99.8934 122.386 100.497 123.275 101.246Z" fill="#B2B2D4"/>
<path d="M106.501 115.688C106.329 115.418 106.161 115.127 106 114.819C105.825 114.481 105.659 114.124 105.51 113.752C105.289 113.207 105.106 112.63 104.979 112.046C104.871 111.552 104.805 111.052 104.793 110.559C104.793 110.557 104.793 110.554 104.793 110.552C104.793 110.551 104.793 110.55 104.793 110.55C104.782 110.012 104.835 109.483 104.969 108.979C105.303 107.729 106.475 106.311 108.581 105.758C109.059 104.541 109.744 103.668 110.516 103.039C110.941 102.694 111.392 102.423 111.847 102.21C112.881 101.727 113.947 101.541 114.813 101.464C115.053 101.04 115.334 100.64 115.698 100.302C116.338 99.7093 117.235 99.3074 118.619 99.3074C119.194 99.3074 119.762 99.4002 120.315 99.5682C121.38 99.8931 122.386 100.496 123.275 101.246C123.297 101.265 123.32 101.284 123.342 101.303C123.342 101.303 123.342 101.304 123.343 101.304C123.344 101.305 123.346 101.306 123.347 101.307C124.651 102.427 125.693 103.86 126.28 105.175C124.794 102.865 122.157 100.626 119.338 100.626C117.165 100.626 116.194 101.615 115.532 102.781C113.589 102.958 110.64 103.676 109.299 107.075C107.193 107.631 106.022 109.048 105.688 110.296C105.226 112.022 105.727 114.043 106.501 115.688Z" fill="#CFCFD9"/>
<path d="M112.104 116.803C110.74 116.803 109.685 116.541 109.049 116.045L108.985 115.995L108.916 115.951C108.6 115.747 107.992 114.941 107.466 113.892C106.794 112.549 111.658 115.857 118.335 112.34C125.205 108.721 122.783 102.752 124.054 104.677C124.319 105.079 124.546 105.49 124.725 105.895C126.735 110.422 121.924 113.651 119.762 114.829C117.963 115.809 114.754 116.803 112.104 116.803Z" fill="#4D4D6D"/>
<path d="M118.619 100.105C116.861 100.105 116.103 100.806 115.506 101.859L115.3 102.222L114.883 102.259C112.046 102.513 110.226 103.754 109.322 106.05L109.174 106.427L108.783 106.529C106.932 107.017 105.996 108.221 105.738 109.186C104.943 112.156 107.42 116.09 108.422 116.728L108.484 116.772C111.123 118.832 117.419 117.156 120.202 115.639C122.587 114.339 127.885 110.752 125.565 105.524C124.383 102.86 121.462 100.105 118.619 100.105ZM112.106 119.314C110.355 119.314 108.721 118.963 107.532 118.05C105.819 116.919 103.26 112.28 104.198 108.774C104.553 107.45 105.734 105.829 107.993 105.101C109.125 102.567 111.255 101.094 114.335 100.715C115.002 99.6812 116.176 98.5115 118.619 98.5115C122.242 98.5115 125.653 101.792 127.022 104.878C129.005 109.345 126.74 113.891 120.964 117.038C119.006 118.106 115.354 119.314 112.106 119.314Z" fill="#000072"/>
<path d="M110.742 111.6C109.119 109.484 107.575 106.67 108.636 103.944L110.047 104.685C109.759 105.1 109.567 105.618 109.492 106.191C109.28 108.035 109.927 109.944 110.742 111.6Z" fill="#000072"/>
<path d="M118.75 105.406C117.65 103.396 115.321 101.949 113.033 102.633L112.615 102.741L112.29 101.181C115.332 100.813 117.809 102.542 118.75 105.406Z" fill="#000072"/>
<path d="M50.2062 104.612C54.9335 105.507 55.9606 102.003 55.4339 100.251C54.7168 97.87 52.3714 98.2012 50.2821 96.9938C48.966 96.2337 47.2308 95.0891 45.3492 95.9485C43.129 96.9625 43.2269 99.7594 41.6278 100.823C39.8869 101.98 48.9113 104.42 48.9113 104.42L50.2062 104.612Z" fill="#5F5F82"/>
<path d="M54.7488 101.441C54.7373 101.395 54.725 101.35 54.7113 101.305C54.0492 99.1047 51.8813 99.409 49.9484 98.294C49.0397 97.7697 47.9138 97.0456 46.6775 97.0456C46.2596 97.0456 45.8295 97.1278 45.3913 97.329C44.8536 97.575 44.4631 97.9327 44.1528 98.3459C44.5155 97.6319 44.9414 97.0102 45.6808 96.672C46.0376 96.5097 46.3924 96.4405 46.7433 96.4405C47.7573 96.4405 48.7375 97.0131 49.6289 97.5346L49.8835 97.6831C50.6559 98.1289 51.4492 98.382 52.1481 98.6049C53.5718 99.0585 54.3298 99.3484 54.6709 100.48C54.7539 100.755 54.7834 101.09 54.7488 101.441Z" fill="#CFCFD9"/>
<path d="M51.6444 105.553C51.1668 105.553 50.6393 105.504 50.0582 105.394L50.355 103.828C52.0367 104.147 53.3209 103.875 54.0696 103.042C54.7448 102.292 54.8829 101.185 54.6706 100.48C54.3297 99.3483 53.5715 99.0588 52.1484 98.6055C51.4489 98.3822 50.6555 98.1287 49.8833 97.6835L49.6291 97.5343C48.4289 96.8334 47.0684 96.0385 45.6805 96.6726C44.7122 97.1148 44.2821 98.0442 43.8262 99.0287C43.4657 99.8082 43.0944 100.611 42.4374 101.2C43.4244 101.857 46.4638 102.931 49.1192 103.648L48.7034 105.188C40.9068 103.081 40.6927 101.766 40.6226 101.334C40.5868 101.117 40.5713 100.568 41.1866 100.158C41.7076 99.8119 42.019 99.1389 42.3796 98.3594C42.9108 97.2111 43.5133 95.9099 45.0182 95.2223C47.1587 94.2444 49.1288 95.3964 50.4329 96.159L50.6812 96.303C51.3042 96.6623 51.9794 96.8783 52.6325 97.0862C54.0226 97.5299 55.5985 98.0325 56.1972 100.021C56.5381 101.154 56.3794 102.858 55.2546 104.108C54.6206 104.812 53.5105 105.553 51.6444 105.553Z" fill="#000072"/>
<path d="M43.3034 116.338C46.2951 117.969 52.9155 119.724 55.8933 117.4C57.233 116.546 59.7907 112.238 58.9182 108.98C58.5833 107.731 57.4118 106.313 55.3065 105.759C53.9668 102.358 51.0186 101.64 49.0737 101.465C48.4116 100.298 47.4392 99.3092 45.2673 99.3092C41.9 99.3092 38.788 102.507 37.5922 105.201C35.6181 109.65 38.4461 113.691 43.3034 116.338Z" fill="#5F5F82"/>
<path d="M57.9116 114.768C58.0771 114.445 58.2339 114.105 58.376 113.752C58.2345 114.105 58.0777 114.445 57.9116 114.768Z" fill="#CFCFD9"/>
<path d="M58.3774 113.752C58.597 113.205 58.7809 112.63 58.9085 112.046C58.7815 112.63 58.597 113.205 58.3774 113.752Z" fill="#B2B2D4"/>
<path d="M53.4716 103.125C52.9989 102.723 52.4906 102.417 51.9761 102.182C52.4906 102.416 52.9989 102.723 53.4716 103.125Z" fill="#CFCFD9"/>
<path d="M48.2086 100.322C47.5669 99.7185 46.6662 99.3083 45.2667 99.3083C44.6915 99.3083 44.1239 99.4012 43.5718 99.5694C43.5718 99.5694 43.5718 99.5694 43.5718 99.5687C44.1239 99.4005 44.691 99.3076 45.2661 99.3076C46.6662 99.3076 47.5669 99.7178 48.2086 100.322Z" fill="#CFCFD9"/>
<path d="M40.6123 101.246C41.5004 100.496 42.5073 99.8933 43.5724 99.5682C43.5724 99.5689 43.5724 99.5689 43.5724 99.5689C42.5073 99.8933 41.5009 100.496 40.6123 101.246Z" fill="#B2B2D4"/>
<path d="M57.3862 115.688C58.1602 114.043 58.6598 112.022 58.1989 110.296C57.864 109.048 56.6932 107.631 54.5872 107.075C53.2468 103.676 50.2979 102.957 48.3551 102.781C47.6923 101.615 46.7206 100.626 44.5481 100.626C41.7303 100.626 39.0922 102.865 37.606 105.175C38.1934 103.859 39.2356 102.428 40.54 101.307C40.541 101.306 40.5426 101.305 40.5442 101.304C40.5442 101.303 40.5447 101.303 40.5447 101.303C40.5672 101.284 40.5896 101.264 40.6121 101.246C41.5008 100.496 42.5071 99.8938 43.5723 99.5687C44.1244 99.4005 44.6921 99.3076 45.2672 99.3076C46.6664 99.3076 47.5678 99.7179 48.2095 100.322C48.5627 100.656 48.8378 101.049 49.0735 101.465C49.9221 101.54 50.9628 101.72 51.9767 102.181C52.4911 102.416 52.9991 102.722 53.4719 103.124C53.4726 103.124 53.4733 103.125 53.4733 103.126C53.4733 103.126 53.4741 103.126 53.4741 103.126C54.203 103.747 54.8482 104.596 55.3063 105.758C57.4116 106.312 58.5831 107.729 58.9173 108.979C59.0581 109.505 59.1101 110.057 59.0918 110.618C59.0764 111.091 59.0116 111.572 58.9082 112.047C58.7808 112.631 58.5965 113.206 58.377 113.753C58.2348 114.105 58.0779 114.446 57.9126 114.768C57.9112 114.77 57.9112 114.771 57.9097 114.772C57.7423 115.098 57.5657 115.405 57.3862 115.688Z" fill="#CFCFD9"/>
<path d="M51.7823 116.807C53.1453 116.807 54.2017 116.545 54.8371 116.049L54.9013 115.999L54.9702 115.955C55.2862 115.751 55.8936 114.945 56.4198 113.895C57.0921 112.553 52.228 115.861 45.5505 112.344C38.6808 108.725 41.1032 102.756 39.8326 104.681C39.5673 105.083 39.3404 105.493 39.1607 105.898C37.1517 110.427 41.9625 113.656 44.1241 114.834C45.9238 115.814 49.1315 116.807 51.7823 116.807Z" fill="#4D4D6D"/>
<path d="M45.2665 100.105C42.4235 100.105 39.5019 102.86 38.32 105.524C36.0008 110.751 41.2984 114.339 43.6839 115.639C46.4673 117.156 52.7626 118.831 55.4018 116.771L55.4634 116.727C56.4653 116.089 58.9423 112.155 58.1473 109.186C57.8887 108.22 56.9535 107.016 55.1028 106.529L54.7124 106.426L54.5643 106.051C53.6588 103.753 51.8394 102.513 49.0017 102.259L48.5858 102.222L48.3796 101.859C47.7824 100.806 47.0249 100.105 45.2665 100.105ZM51.7798 119.314C48.5313 119.314 44.8807 118.106 42.921 117.038C37.1457 113.891 34.881 109.344 36.8632 104.878C38.2323 101.791 41.6429 98.5115 45.2665 98.5115C47.7101 98.5115 48.8834 99.6813 49.5501 100.714C52.6301 101.093 54.7613 102.566 55.8935 105.1C58.1523 105.828 59.332 107.45 59.6869 108.773C60.6257 112.28 58.0665 116.92 56.3541 118.05C55.1652 118.963 53.5306 119.314 51.7798 119.314Z" fill="#000072"/>
<path d="M53.1455 111.6C53.9598 109.945 54.6066 108.035 54.3939 106.191C54.3203 105.618 54.1279 105.1 53.8396 104.685L55.2507 103.944C56.3114 106.669 54.7673 109.484 53.1455 111.6Z" fill="#000072"/>
<path d="M45.1367 105.406C46.079 102.54 48.5559 100.814 51.596 101.181L51.2717 102.741L50.8543 102.633C48.5649 101.949 46.2366 103.397 45.1367 105.406Z" fill="#000072"/>
<path d="M31.3775 107.091C25.8708 107.091 25.232 102.009 25.1739 100.277C25.1157 102.009 24.4769 107.091 18.9702 107.091C24.4769 107.091 25.1157 112.175 25.1739 113.906C25.232 112.175 25.8708 107.091 31.3775 107.091Z" fill="#FCD21D"/>
<path d="M21.8379 107.091C23.6986 107.885 24.6695 109.44 25.1741 110.911C25.6786 109.44 26.6496 107.885 28.5101 107.091C26.6496 106.298 25.6786 104.743 25.1741 103.273C24.6695 104.743 23.6986 106.298 21.8379 107.091ZM25.1741 114.441C24.8856 114.441 24.649 114.212 24.6393 113.924C24.5758 112.031 23.8963 107.627 18.9705 107.627C18.675 107.627 18.4355 107.387 18.4355 107.091C18.4355 106.796 18.675 106.556 18.9705 106.556C23.8963 106.556 24.5758 102.152 24.6393 100.259C24.649 99.9706 24.8856 99.7421 25.1741 99.7421C25.4626 99.7421 25.6992 99.9706 25.7088 100.259C25.7723 102.152 26.4519 106.556 31.3777 106.556C31.673 106.556 31.9127 106.796 31.9127 107.091C31.9127 107.387 31.673 107.627 31.3777 107.627C26.4519 107.627 25.7723 112.031 25.7088 113.924C25.6992 114.212 25.4626 114.441 25.1741 114.441Z" fill="#000072"/>
<path d="M143.425 75.5068C137.919 75.5068 137.279 70.4231 137.221 68.6913C137.164 70.4231 136.525 75.5068 131.018 75.5068C136.525 75.5068 137.164 80.5885 137.221 82.3203C137.279 80.5885 137.919 75.5068 143.425 75.5068Z" fill="#FCD21D"/>
<path d="M133.885 75.5052C135.746 76.2992 136.717 77.8551 137.221 79.3249C137.726 77.854 138.697 76.2992 140.558 75.5052C138.697 74.7122 137.726 73.1574 137.221 71.6865C136.717 73.1574 135.746 74.7122 133.885 75.5052ZM137.221 82.8555C136.933 82.8555 136.697 82.6264 136.686 82.3382C136.623 80.4444 135.944 76.0411 131.017 76.0411C130.722 76.0411 130.482 75.8017 130.482 75.5052C130.482 75.2108 130.722 74.9703 131.017 74.9703C135.944 74.9703 136.623 70.567 136.686 68.6732C136.697 68.3851 136.933 68.156 137.221 68.156C137.51 68.156 137.747 68.3851 137.756 68.6732C137.819 70.567 138.499 74.9703 143.425 74.9703C143.72 74.9703 143.96 75.2108 143.96 75.5052C143.96 75.8017 143.72 76.0411 143.425 76.0411C138.499 76.0411 137.819 80.4444 137.756 82.3382C137.747 82.6264 137.51 82.8555 137.221 82.8555Z" fill="#000072"/>
<path d="M135.321 140.745C131.501 140.745 131.057 137.22 131.018 136.018C130.978 137.22 130.534 140.745 126.714 140.745C130.534 140.745 130.978 144.272 131.018 145.473C131.057 144.272 131.501 140.745 135.321 140.745Z" fill="#FCD21D"/>
<path d="M128.703 140.745C129.995 141.296 130.668 142.375 131.018 143.395C131.368 142.375 132.041 141.296 133.332 140.745C132.041 140.195 131.368 139.116 131.018 138.096C130.668 139.116 129.995 140.195 128.703 140.745ZM131.018 145.844C130.818 145.844 130.654 145.685 130.647 145.485C130.603 144.172 130.132 141.116 126.715 141.116C126.51 141.116 126.343 140.951 126.343 140.745C126.343 140.54 126.51 140.374 126.715 140.374C130.131 140.374 130.603 137.319 130.647 136.006C130.654 135.805 130.818 135.647 131.018 135.647C131.218 135.647 131.383 135.805 131.39 136.006C131.433 137.319 131.904 140.374 135.321 140.374C135.526 140.374 135.693 140.54 135.693 140.745C135.693 140.951 135.526 141.116 135.321 141.116C131.904 141.116 131.433 144.171 131.39 145.485C131.383 145.685 131.218 145.844 131.018 145.844Z" fill="#000072"/>
</g>
<defs>
<clipPath id="clip0_916_6147">
<rect width="214" height="214" fill="white" transform="translate(-25)"/>
</clipPath>
</defs>
</svg>
