<svg width="60" height="87" fill="none" xmlns="http://www.w3.org/2000/svg"><path d="M11.562 82c-.288 0-.522-.084-.702-.252a.94.94 0 0 1-.252-.666V70.3h1.926v10.782a.877.877 0 0 1-.288.666.963.963 0 0 1-.684.252ZM7.476 71.128a.956.956 0 0 1-.648-.234.847.847 0 0 1-.27-.648c0-.252.09-.456.27-.612a.956.956 0 0 1 .648-.234h8.19c.252 0 .462.084.63.252.18.156.27.36.27.612 0 .264-.09.474-.27.63a.89.89 0 0 1-.63.234h-8.19Zm12.62 9.954a.94.94 0 0 1-.252.666.877.877 0 0 1-.648.252.916.916 0 0 1-.648-.252.94.94 0 0 1-.251-.666v-7.704c0-.264.084-.48.252-.648.18-.18.396-.27.648-.27.264 0 .48.09.648.27a.877.877 0 0 1 .252.648v7.704Zm-.918-9.81c-.348 0-.6-.06-.756-.18-.155-.132-.233-.348-.233-.648v-.288c0-.3.084-.51.252-.63.168-.12.42-.18.756-.18.36 0 .617.066.774.198.155.12.233.324.233.612v.288c0 .312-.084.528-.252.648-.155.12-.414.18-.774.18Zm8.092 1.098c.888 0 1.572.222 2.052.666.48.432.798 1.02.954 1.764l-.288-.09.126-.288c.156-.312.39-.624.702-.936a3.934 3.934 0 0 1 1.152-.792 3.208 3.208 0 0 1 1.422-.324c.828 0 1.47.18 1.926.54.456.348.774.822.954 1.422.18.588.27 1.248.27 1.98v4.77a.94.94 0 0 1-.252.666.877.877 0 0 1-.648.252.916.916 0 0 1-.648-.252.94.94 0 0 1-.252-.666V76.33c0-.42-.06-.804-.18-1.152a1.547 1.547 0 0 0-.594-.828c-.276-.216-.66-.324-1.152-.324-.468 0-.888.108-1.26.324a2.243 2.243 0 0 0-1.152 1.98v4.752a.94.94 0 0 1-.252.666.877.877 0 0 1-.648.252.877.877 0 0 1-.648-.252.94.94 0 0 1-.252-.666v-4.77c0-.42-.06-.804-.18-1.152a1.581 1.581 0 0 0-.576-.828c-.276-.204-.66-.306-1.152-.306-.468 0-.882.102-1.242.306-.36.204-.642.48-.846.828a2.345 2.345 0 0 0-.288 1.152v4.77c0 .264-.09.486-.27.666a.855.855 0 0 1-.63.252.877.877 0 0 1-.648-.252.94.94 0 0 1-.252-.666V73.45c0-.264.084-.48.252-.648a.847.847 0 0 1 .648-.27c.252 0 .462.09.63.27.18.168.27.384.27.648v1.062l-.342.198a3.05 3.05 0 0 1 .414-.81c.192-.276.432-.528.72-.756.3-.228.63-.414.99-.558.36-.144.75-.216 1.17-.216Zm16.199 9.81c-.996 0-1.86-.204-2.592-.612a4.5 4.5 0 0 1-1.71-1.71c-.396-.732-.594-1.566-.594-2.502 0-1.056.21-1.956.63-2.7.432-.756.99-1.332 1.674-1.728a4.183 4.183 0 0 1 2.178-.612c.588 0 1.146.12 1.674.36a4.34 4.34 0 0 1 1.404.972c.42.408.75.894.99 1.458a4.73 4.73 0 0 1 .378 1.818.809.809 0 0 1-.288.594.932.932 0 0 1-.63.234H39.58l-.432-1.53h6.768l-.342.324v-.45a1.872 1.872 0 0 0-.414-1.098 2.443 2.443 0 0 0-.936-.738 2.654 2.654 0 0 0-1.17-.27c-.36 0-.708.06-1.044.18a2.341 2.341 0 0 0-.882.54c-.252.252-.456.588-.612 1.008-.144.408-.216.918-.216 1.53 0 .66.138 1.236.414 1.728a3.03 3.03 0 0 0 1.116 1.152c.468.264.984.396 1.548.396.444 0 .81-.042 1.098-.126.288-.096.528-.21.72-.342.192-.132.36-.258.504-.378.18-.108.36-.162.54-.162.216 0 .396.078.54.234a.711.711 0 0 1 .216.522c0 .264-.132.504-.396.72-.324.312-.774.588-1.35.828-.564.24-1.158.36-1.782.36Zm6.966-.18a.877.877 0 0 1-.648-.252.94.94 0 0 1-.252-.666V73.45c0-.264.084-.48.252-.648a.847.847 0 0 1 .648-.27c.252 0 .462.09.63.27.18.168.27.384.27.648v2.016l-.18-.774c.096-.336.24-.648.432-.936.204-.288.444-.54.72-.756.276-.216.582-.384.918-.504a3.29 3.29 0 0 1 1.08-.18c.312 0 .582.084.81.252.228.168.342.378.342.63 0 .324-.084.564-.252.72a.837.837 0 0 1-.558.216c-.18 0-.354-.036-.522-.108a1.313 1.313 0 0 0-.594-.126c-.252 0-.51.066-.774.198s-.504.33-.72.594c-.216.252-.39.552-.522.9-.12.348-.18.738-.18 1.17v4.32c0 .264-.09.486-.27.666a.855.855 0 0 1-.63.252Z" fill="#333F61"/><path d="M52.988 6.715C52.29 6.09 45.83.745 29.993.615c-15.85.133-22.3 5.491-22.976 6.097C-2.2 14.454.272 40.352.379 41.448c.74 8.157 5.336 13.52 14.04 16.398 6.93 2.29 14.199 2.187 15.576 2.136.168 0 .533.016 1.063.016 2.399 0 8.616-.211 14.522-2.163 8.707-2.878 13.299-8.241 14.038-16.387.11-1.086 2.581-26.986-6.63-34.733Z" fill="#932C00"/><path d="M52.871 6.05C52.325 5.56 45.886.13 29.995 0 14.117.13 7.677 5.561 7.13 6.05-1.816 13.57.523 38.567.676 40.105c.715 7.868 5.226 13.082 13.796 15.901 7.083 2.344 14.577 2.17 15.534 2.136.166 0 .53.016 1.058.016 2.496 0 8.625-.221 14.474-2.157 8.566-2.83 13.077-8.033 13.796-15.901.145-1.533 2.485-26.53-6.463-34.05Z" fill="#FFF0E9"/><path d="M52.286 8.882S46.14 3.212 30 3.075C13.863 3.211 7.716 8.882 7.716 8.882-.29 15.575 2.148 39.515 2.148 39.515 3.483 54.465 25.018 55.248 30 55.069c4.982.179 26.517-.593 27.852-15.554.002 0 2.44-23.94-5.566-30.633Z" fill="#C63B00"/><path d="M50.774 10.116S44.657 4.8 29.152 4.675c-15.5.125-21.193 5.44-21.193 5.44C.515 16.39 3.743 38.822 3.743 38.822c1.834 14.022 22.55 14.745 27.332 14.58 4.793.165 25.452-.558 26.18-14.58 0 0 1.457-22.431-6.48-28.705Z" fill="#FF7F48"/><path d="M20.957 40.105c-.373 0-.69-.14-.952-.42a1.592 1.592 0 0 1-.42-.952l-.028-1.904c0-.933.084-3.248.252-6.944a1.57 1.57 0 0 0 .028-.308c.112-1.773.168-3.546.168-5.32l-.924.728c-.448.318-.896.654-1.344 1.008a.746.746 0 0 1-.196.14c-.112.112-.29.27-.532.476a17.6 17.6 0 0 0-.784.644c-.28.243-.625.364-1.036.364-.317 0-.616-.121-.896-.364-.243-.28-.364-.634-.364-1.064 0-.336.121-.625.364-.868.97-.84 1.979-1.642 3.024-2.408.093-.056.187-.121.28-.196.112-.093.205-.168.28-.224.075-.056.14-.112.196-.168.71-.541 1.437-1.232 2.184-2.072.224-.224.495-.354.812-.392.336 0 .625.066.868.196.41.28.635.672.672 1.176a56.543 56.543 0 0 1-.028 8.344l-.084 1.512c-.13 1.81-.196 3.63-.196 5.46l.028 2.184c0 .374-.14.69-.42.952-.28.28-.597.42-.952.42Zm13.596-.112c-1.997 0-3.668-.56-5.012-1.68-.784-.634-1.297-1.465-1.54-2.492l-.028-.336c0-.242.066-.504.196-.784.224-.41.607-.616 1.148-.616.71 0 1.148.336 1.316 1.008l.112.448h.028v.028c.094.15.16.27.196.364.056.075.215.224.476.448l.056.028c.224.168.467.308.728.42l.056.028c.094.038.196.066.308.084.467.168.812.252 1.036.252.318.038.635.056.952.056l.98-.056a8.592 8.592 0 0 0 1.372-.364l.448-.224.476-.336c.15-.112.262-.224.336-.336.168-.224.271-.457.308-.7l.112-.644c.038-.522.056-1.082.056-1.68a2.853 2.853 0 0 1-.028-.448v-.028a5.081 5.081 0 0 0-.28-1.008 2.506 2.506 0 0 0-.308-.532l-.364-.364-.056-.028a3.126 3.126 0 0 0-.42-.252h-.028v-.028l-.112-.028c-.298-.112-.54-.168-.728-.168v-.028l-.924-.028a5.526 5.526 0 0 1-.784.056 14.584 14.584 0 0 0-3.024.84l-.168.084c-.41.168-.784.355-1.12.56a1.546 1.546 0 0 1-.7.168c-.354 0-.672-.121-.952-.364a1.491 1.491 0 0 1-.392-1.008v-.112c0-.112.02-.298.056-.56.038-.28.066-.56.084-.84v-.028c.15-1.792.336-3.341.56-4.648.224-1.418.626-2.454 1.204-3.108.654-.634 1.867-.952 3.64-.952l4.536.14h.7c.112-.018.215-.028.308-.028.112 0 .224-.018.336-.056a.93.93 0 0 1 .364-.084c.243 0 .495.084.756.252.411.243.616.616.616 1.12 0 1.027-.896 1.54-2.688 1.54-1.064 0-1.96-.028-2.688-.084a24.028 24.028 0 0 0-1.652-.056c-1.064 0-1.68.028-1.848.084a.792.792 0 0 0-.532.224v.028c-.074.187-.13.383-.168.588-.168.616-.289 1.242-.364 1.876-.018.019-.028.056-.028.112 0 .038-.009.075-.028.112l-.056.644c-.112.784-.168 1.326-.168 1.624v.028c1.568-.597 3.09-.896 4.564-.896 1.456 0 2.763.486 3.92 1.456 1.14 1.083 1.708 2.614 1.708 4.592 0 1.904-.308 3.276-.924 4.116a5.42 5.42 0 0 1-2.24 1.82 9.262 9.262 0 0 1-3.696.784Z" fill="#fff"/><path d="M25.727 4.8c-12.913.8-17.762 5.318-17.762 5.318C.52 16.392 3.749 38.826 3.749 38.826c.064.49.151.967.26 1.423-.248-23.005 9.154-31.394 21.718-35.45Z" fill="#EB7340"/><path d="M10.321 11.865c-.9-1.66-2.755-.969-4.145 1.543-1.39 2.513-1.786 5.898-.883 7.558.904 1.661 1.373-.953 2.762-3.47 1.389-2.518 3.165-3.97 2.266-5.63ZM4.981 21.615c-.52-.416-1.097-.12-1.364.967-.267 1.086-.12 2.555.39 2.974.51.419 1.148-.126 1.415-1.215.267-1.09.073-2.307-.44-2.726Z" fill="#fff"/><path d="M56.357 22.215a52.51 52.51 0 0 1-.26 3.943c-1.4 13.6-7.855 23.28-16.433 26.676 7.624-1.18 17.097-4.6 17.586-14.01.004 0 .558-8.578-.893-16.61Z" fill="#EB7340"/><path d="M52.234 44.905c.83 1.228 2.361.3 3.418-2.074 1.057-2.374 1.242-5.294.411-6.523-.83-1.228-1.171.825-2.223 3.204-1.051 2.379-2.436 4.162-1.606 5.393Z" fill="#fff"/></svg>