<svg width="56" height="56" viewBox="0 0 56 56" fill="none" xmlns="http://www.w3.org/2000/svg">
<path fill-rule="evenodd" clip-rule="evenodd" d="M37.3047 18.7372C37.3141 18.7639 37.331 18.7864 37.3553 18.8048C37.3827 18.6745 37.377 18.5506 37.3384 18.4332C37.1918 16.693 37.879 15.4149 39.3992 14.5989C40.6555 14.0323 41.9619 13.6269 43.318 13.3827C45.5574 12.9726 47.7985 12.9613 50.0407 13.3489C51.3575 13.6073 52.1629 14.39 52.4561 15.6968C52.5392 16.3442 52.5055 16.9861 52.3548 17.6224C52.0099 18.8487 51.6045 20.0536 51.1386 21.2371C49.7556 24.472 47.2952 26.0093 43.7571 25.8485C43.3967 25.8035 43.0362 25.7697 42.6761 25.7471C43.5301 26.2984 44.4649 26.6136 45.48 26.693C45.602 26.7251 45.6584 26.8038 45.649 26.9295C45.2642 28.0632 44.521 28.8686 43.4193 29.345C43.6879 29.7375 43.7608 30.1655 43.6389 30.6287C43.57 30.8456 43.474 31.0483 43.3517 31.2368C44.35 34.1823 44.5358 37.1778 43.9091 40.2229C43.5609 41.4496 42.767 42.2212 41.5275 42.5371C39.94 42.9631 38.33 43.0982 36.6966 42.9424C36.0321 42.7661 35.7561 42.3438 35.8689 41.6756C36.0199 41.3445 36.2449 41.0743 36.5445 40.8648C36.5547 40.7496 36.577 40.6368 36.6121 40.527C37.5563 38.647 38.1249 36.665 38.3181 34.5813C36.4956 35.5528 34.5588 35.9809 32.5075 35.865C32.0988 37.5869 31.6146 39.2872 31.0549 40.9662C31.5042 41.1283 31.8139 41.4324 31.9839 41.8783C32.0207 42.4729 31.7448 42.8391 31.1562 42.9762C29.2463 43.3451 27.3657 43.2326 25.5145 42.6384C25.0521 42.4688 24.7537 42.1479 24.6193 41.6756C24.0042 39.7547 23.931 37.8122 24.3997 35.8481C24.3885 35.8312 24.3772 35.8143 24.3659 35.7974C21.4104 37.2302 18.3249 37.6075 15.1095 36.9291C14.9281 36.8694 14.7536 36.796 14.5859 36.7096C14.1106 37.5237 13.5081 38.2332 12.7785 38.8379C13.2001 39.1733 13.3634 39.601 13.2683 40.1216C12.9992 40.4125 12.667 40.5871 12.2718 40.6452C11.3538 40.8067 10.4304 40.8405 9.50159 40.7466C8.28234 40.6317 7.09995 40.3615 5.95442 39.9358C4.78537 39.4466 4.52075 38.6527 5.16053 37.5541C5.88017 36.3785 6.60649 35.2072 7.33951 34.0407C6.74074 33.9107 6.15516 33.7364 5.58281 33.5171C4.88023 33.2198 4.32282 32.7523 3.91057 32.1151C3.71382 31.7807 3.68004 31.4314 3.80923 31.0679C3.85345 30.9841 3.91537 30.9165 3.99503 30.8652C3.82301 30.6091 3.81737 30.3503 3.97814 30.0882C4.03662 30.0166 4.10982 29.9659 4.19773 29.9362C4.47508 29.8726 4.75659 29.8389 5.04229 29.8348C5.34893 29.5281 5.67548 29.2467 6.02198 28.9902C6.51747 28.6524 7.01293 28.3146 7.50842 27.9768C7.63152 27.8869 7.76665 27.8251 7.91381 27.791C8.00617 27.3697 8.14691 26.9643 8.33609 26.5748C9.41409 24.3585 10.8949 22.4498 12.7785 20.8486C15.1853 18.8395 17.8992 17.3643 20.9201 16.4231C23.988 15.4611 27.1298 14.9994 30.3454 15.038C32.2231 15.1347 33.9348 15.709 35.4804 16.7609C36.2121 17.3068 36.8202 17.9656 37.3047 18.7372Z" fill="#12120F"/>
<path fill-rule="evenodd" clip-rule="evenodd" d="M46.6286 13.6006C47.2573 13.7068 47.8877 13.825 48.5204 13.9553C49.1785 14.1043 49.7866 14.3633 50.3447 14.7323C50.8264 15.1047 51.1024 15.5945 51.1724 16.2018C51.195 16.4609 51.195 16.7198 51.1724 16.9788C51.0822 17.6095 50.9923 18.24 50.9021 18.8707C50.8795 19.186 50.8795 19.5013 50.9021 19.8166C50.9274 19.8926 50.9781 19.9377 51.0541 19.9517C50.9869 20.104 50.8855 20.2335 50.7501 20.3402C49.3576 21.5354 47.7809 21.862 46.0205 21.3199C45.6155 21.1314 45.2043 20.9568 44.7874 20.7963C44.5932 20.9218 44.5875 21.0625 44.7706 21.2186C45.3888 21.6875 46.0867 21.9578 46.8651 22.0293C48.3069 22.1548 49.5795 21.7551 50.6825 20.8301C49.5839 23.7829 47.4444 25.2579 44.2638 25.2556C42.7845 25.2306 41.3714 24.9153 40.0241 24.3097C39.7403 24.38 39.6616 24.5489 39.7876 24.8164C40.1569 24.9984 40.5342 25.1561 40.9193 25.2894C40.9028 25.3221 40.8859 25.3559 40.8687 25.3907C40.8575 25.5485 40.846 25.7059 40.8349 25.8637C40.1508 27.4052 39.188 28.7511 37.9465 29.9007C37.3147 30.4523 36.6729 30.9871 36.0209 31.5054C35.478 31.5925 34.9375 31.6996 34.3993 31.8263C33.9845 31.9493 33.6014 32.1351 33.2507 32.3837C33.2395 32.3725 33.2281 32.3611 33.2169 32.3499C33.397 31.3439 33.5037 30.3304 33.5378 29.3095C33.5037 29.2811 33.4642 29.27 33.4196 29.2757C33.0086 31.1898 32.5976 33.1043 32.1865 35.0187C31.7089 36.9744 31.1684 38.9112 30.565 40.8293C30.3579 40.9249 30.1946 41.0712 30.0751 41.2685C29.7507 40.7682 29.3228 40.65 28.7914 40.9138C28.6782 41.0331 28.6051 41.1739 28.5718 41.3361C28.2549 40.7763 27.7988 40.6131 27.2036 40.8462C26.8017 41.2101 26.6835 41.6546 26.8489 42.1806C26.8616 42.2651 26.8897 42.3438 26.9334 42.4171C26.4716 42.3975 26.0212 42.3019 25.5821 42.13C25.419 42.054 25.2614 41.9695 25.1091 41.8766C25.173 41.7597 25.1899 41.6357 25.1598 41.505C24.3663 39.1172 24.4338 36.7525 25.3625 34.4107C25.4997 34.0573 25.663 33.7195 25.8523 33.3972C26.6009 32.5077 27.4342 31.7026 28.3522 30.9817C28.8755 30.5905 29.4048 30.2078 29.94 29.8331C30.9325 29.1456 31.9347 28.4757 32.9467 27.8231C33.1963 27.8359 33.4328 27.7741 33.6561 27.6372C34.6186 26.9734 35.4405 26.168 36.1222 25.2218C36.1823 25.4633 36.233 25.711 36.2742 25.965C36.4959 26.2055 36.7492 26.2336 37.0343 26.0495C37.1175 25.9461 37.2188 25.8674 37.3384 25.813C37.7401 25.4343 37.8134 25.0006 37.558 24.5124C37.3468 24.2452 37.0823 24.1439 36.7641 24.2083C37.2664 23.2021 37.61 22.1436 37.7945 21.0328C37.8809 20.3526 37.8586 19.677 37.7269 19.0058C37.6465 18.2326 37.7252 17.4781 37.9634 16.7424C38.3286 15.9268 38.9198 15.3356 39.737 14.9688C40.0957 14.7911 40.4673 14.6503 40.8518 14.5465C40.8768 14.5421 40.8994 14.5477 40.9193 14.5634C40.3363 15.0455 40.3363 15.5297 40.9193 16.016C41.0889 16.1006 41.269 16.1401 41.4599 16.1343C42.0477 16.0867 42.5767 15.8897 43.0476 15.5431C43.226 15.3802 43.3047 15.1775 43.2841 14.935C43.2845 14.6963 43.2453 14.4654 43.1659 14.2425C43.1024 14.145 43.0179 14.0718 42.9125 14.0229C42.9544 14.015 42.9882 13.9981 43.0139 13.9722C44.2064 13.7392 45.4111 13.6153 46.6286 13.6006Z" fill="#B0DD78"/>
<path fill-rule="evenodd" clip-rule="evenodd" d="M46.6279 13.6031C47.6701 13.5954 48.7059 13.6686 49.7359 13.8227C51.3078 14.1105 52.0453 15.0508 51.9487 16.6435C51.9115 17.0429 51.844 17.437 51.746 17.8259C51.5308 18.541 51.2997 19.2504 51.0534 19.9542C50.9774 19.9402 50.9268 19.8951 50.9014 19.8191C50.8788 19.5038 50.8788 19.1885 50.9014 18.8732C50.9916 18.2426 51.0815 17.612 51.1717 16.9813C51.1943 16.7223 51.1943 16.4634 51.1717 16.2043C51.1018 15.597 50.8258 15.1072 50.344 14.7348C49.7859 14.3658 49.1778 14.1068 48.5198 13.9578C47.887 13.8275 47.2566 13.7093 46.6279 13.6031Z" fill="#DCE389"/>
<path fill-rule="evenodd" clip-rule="evenodd" d="M43.0143 13.9746C42.9886 14.0006 42.9548 14.0174 42.9129 14.0253C43.0183 14.0742 43.1028 14.1474 43.1663 14.2449C43.2457 14.4678 43.2849 14.6987 43.2845 14.9374C43.3051 15.1799 43.2264 15.3826 43.048 15.5455C42.5771 15.8921 42.0481 16.0891 41.4603 16.1367C41.2694 16.1425 41.0893 16.103 40.9197 16.0185C40.3367 15.5321 40.3367 15.0479 40.9197 14.5658C40.8998 14.5501 40.8772 14.5445 40.8522 14.5489C41.5555 14.3055 42.2761 14.114 43.0143 13.9746Z" fill="#89AB55"/>
<path fill-rule="evenodd" clip-rule="evenodd" d="M30.3473 15.6288C30.2677 15.6233 30.1888 15.6289 30.1108 15.6457C30.4673 15.8334 30.6812 16.1262 30.7527 16.5241C30.7405 16.7288 30.6504 16.8865 30.4824 16.997C29.8273 17.3021 29.1516 17.5499 28.4555 17.7402C27.0966 18.0856 25.7227 18.3559 24.334 18.551C23.8374 18.6109 23.3645 18.5321 22.9151 18.3145C22.3032 17.9618 21.7852 17.5001 21.3611 16.9294C21.3291 16.9131 21.2953 16.9075 21.2598 16.9126C24.2176 15.9672 27.2468 15.5392 30.3473 15.6288Z" fill="#7C905B"/>
<path fill-rule="evenodd" clip-rule="evenodd" d="M30.3458 15.631C31.032 15.6717 31.7077 15.7786 32.3727 15.9519C32.497 16.0012 32.6209 16.0463 32.7443 16.087C32.0482 16.8511 31.2374 17.4592 30.312 17.9113C29.8225 18.124 29.3158 18.2817 28.7918 18.3842C27.875 18.534 26.9628 18.7029 26.0554 18.891C25.7216 18.9835 25.395 19.0961 25.0757 19.2288C24.9832 19.3174 24.9944 19.3905 25.1095 19.4484C26.0218 19.2382 26.9452 19.0974 27.8797 19.0261C28.9309 18.9182 29.9331 18.648 30.8863 18.2153C30.7254 18.4201 30.7085 18.6397 30.8356 18.8741C31.1313 19.1568 31.4016 19.1343 31.6464 18.8065C31.8604 18.9754 32.0518 19.1669 32.2207 19.3808C32.8288 20.2141 33.4369 21.0474 34.045 21.8807C34.2605 22.1556 34.4521 22.1443 34.6193 21.8469C34.6419 21.7906 34.6419 21.7343 34.6193 21.678C33.8872 20.7096 33.1555 19.7412 32.4234 18.7727C32.0767 18.394 31.6544 18.1519 31.1566 18.0464C31.9212 17.5185 32.6363 16.9273 33.3018 16.2728C35.1551 16.9776 36.5121 18.2219 37.3726 20.0058C37.4161 20.0223 37.4614 20.028 37.5077 20.0227C37.4351 20.6001 37.3226 21.1688 37.1699 21.7287C34.7601 22.1253 32.7389 23.2233 31.1059 25.0225C31.0893 25.0662 31.0837 25.1113 31.089 25.1576C31.1464 25.163 31.2027 25.1574 31.2579 25.1407C32.6621 23.9034 34.2723 23.025 36.0888 22.5057C36.3912 22.412 36.6952 22.3613 37.0009 22.3537C36.8885 22.6352 36.7756 22.9167 36.6631 23.1982C36.4273 23.2263 36.1908 23.2432 35.9537 23.2489C35.8557 23.2808 35.777 23.3371 35.7172 23.4178C34.5054 23.7591 33.4129 24.3221 32.4403 25.107C31.8685 25.5661 31.3167 26.0502 30.785 26.5596C30.0755 27.2691 29.3661 27.9785 28.6567 28.6879C25.9146 31.1848 22.694 32.705 18.9948 33.2486C16.5418 33.5877 14.0982 33.5317 11.664 33.0797C9.12485 32.5935 6.70375 31.7716 4.40076 30.6135C4.30181 30.5152 4.27931 30.4027 4.33319 30.2757C4.47714 30.2298 4.62355 30.2183 4.77237 30.2419C5.4364 30.4784 6.10077 30.7149 6.76554 30.9514C6.96746 31.0223 7.16451 31.0166 7.35673 30.9345C7.37819 30.8622 7.3669 30.7946 7.32295 30.7318C7.21887 30.6375 7.10063 30.5642 6.96823 30.5122C6.40119 30.327 5.83814 30.1355 5.27911 29.9379C5.56609 29.7889 5.8476 29.6311 6.12367 29.4649C6.77382 29.0301 7.43258 28.6079 8.09995 28.1981C8.98593 26.0309 10.2359 24.1053 11.8498 22.4212C11.9987 22.2553 12.162 22.1089 12.3397 21.9821C13.6006 20.7434 15.0082 19.7018 16.5625 18.8572C17.5791 18.301 18.632 17.8225 19.7212 17.4214C20.9919 18.4088 22.4051 19.1351 23.9609 19.6004C24.1055 19.633 24.2407 19.6105 24.3663 19.5328C24.4291 19.3926 24.3953 19.28 24.2649 19.195C22.7852 18.7566 21.4001 18.1204 20.1097 17.2863C20.4842 17.1352 20.8671 17.0113 21.2583 16.9147C21.2938 16.9097 21.3276 16.9153 21.3596 16.9316C21.7837 17.5022 22.3017 17.9639 22.9136 18.3167C23.363 18.5342 23.8359 18.613 24.3325 18.5531C25.7212 18.358 27.0951 18.0877 28.454 17.7424C29.1501 17.552 29.8258 17.3042 30.4809 16.9991C30.6489 16.8886 30.739 16.731 30.7512 16.5262C30.6797 16.1283 30.4658 15.8355 30.1093 15.6478C30.1873 15.6311 30.2662 15.6254 30.3458 15.631Z" fill="#9BB578"/>
<path fill-rule="evenodd" clip-rule="evenodd" d="M43.4867 15.8998C43.8425 15.8897 43.9833 16.0586 43.909 16.4066C43.8056 16.5801 43.6536 16.642 43.4529 16.5924C43.1729 16.3436 43.184 16.1127 43.4867 15.8998Z" fill="#8AAD56"/>
<path fill-rule="evenodd" clip-rule="evenodd" d="M39.2297 16C39.5108 16.0165 39.5672 16.1347 39.3986 16.3547C39.1145 16.3484 39.0581 16.2301 39.2297 16Z" fill="#8AAD56"/>
<path fill-rule="evenodd" clip-rule="evenodd" d="M40.481 16.2373C40.7857 16.285 41.0502 16.4202 41.2749 16.6427C41.4755 17.2709 41.2445 17.5581 40.5823 17.5042C40.307 17.3479 40.1492 17.1114 40.1094 16.7947C40.1307 16.5768 40.2432 16.436 40.4472 16.3724C40.4448 16.3231 40.4563 16.2781 40.481 16.2373Z" fill="#8AAC56"/>
<path fill-rule="evenodd" clip-rule="evenodd" d="M42.0004 16.3386C42.199 16.3287 42.2835 16.4188 42.2538 16.6089C42.1436 16.7705 42.0197 16.7818 41.8822 16.6427C41.8477 16.5093 41.8872 16.408 42.0004 16.3386Z" fill="#8CAF57"/>
<path fill-rule="evenodd" clip-rule="evenodd" d="M32.8118 17.2837C33.4976 17.2271 34.1394 17.3678 34.7374 17.7059C35.4103 18.0974 35.9904 18.5985 36.4772 19.2093C36.5938 19.5661 36.5262 19.8814 36.2745 20.1552C35.9526 20.4541 35.5978 20.7075 35.2104 20.9153C34.9864 21.0381 34.7722 21.0268 34.5685 20.8815C34.4502 20.7407 34.332 20.6 34.2138 20.4592C33.8594 19.8911 33.4594 19.3562 33.0145 18.8545C32.8665 18.7178 32.7089 18.5939 32.5415 18.4829C32.3988 18.3572 32.2749 18.2165 32.1699 18.0607C32.3982 17.8102 32.6121 17.5512 32.8118 17.2837Z" fill="#7D915C"/>
<path fill-rule="evenodd" clip-rule="evenodd" d="M46.5625 17.251C47.1865 17.2614 47.451 17.5767 47.3564 18.1969C47.3162 18.3391 47.2318 18.4461 47.103 18.5178C46.3912 18.6732 46.0703 18.386 46.1402 17.6564C46.2338 17.467 46.3747 17.3319 46.5625 17.251Z" fill="#11110E"/>
<path fill-rule="evenodd" clip-rule="evenodd" d="M38.5894 17.8934C39.0337 17.859 39.2306 18.0617 39.1806 18.5015C39.1208 18.5723 39.0759 18.6511 39.0455 18.7379C38.881 18.9085 38.7063 18.9141 38.5219 18.7548C38.2374 18.4433 38.26 18.1561 38.5894 17.8934Z" fill="#12120F"/>
<path fill-rule="evenodd" clip-rule="evenodd" d="M17.1042 21.2028C17.385 20.6635 17.7004 20.1455 18.0501 19.6488C18.5145 18.9535 19.0888 18.3623 19.773 17.8752C19.9138 17.8358 19.9644 17.8865 19.925 18.0273C19.1602 18.882 18.4733 19.7941 17.8643 20.7637C16.9432 22.401 16.4027 24.1577 16.2427 26.0337C16.1856 26.1591 16.0898 26.1986 15.9556 26.152C15.9231 26.104 15.895 26.0533 15.8711 26C15.9067 24.6039 16.1995 23.2638 16.7494 21.9798C16.8681 21.7201 16.9863 21.4611 17.1042 21.2028Z" fill="#11110E"/>
<path fill-rule="evenodd" clip-rule="evenodd" d="M37.3375 18.4336C37.376 18.551 37.3817 18.6749 37.3544 18.8052C37.3301 18.7868 37.3132 18.7643 37.3037 18.7376C37.3368 18.6435 37.348 18.5421 37.3375 18.4336Z" fill="#787776"/>
<path fill-rule="evenodd" clip-rule="evenodd" d="M48.8262 18.8384C48.9549 18.827 49.0785 18.8439 49.1978 18.8891C49.288 18.9679 49.288 19.0467 49.1978 19.1256C48.8965 19.079 48.6938 19.1972 48.5897 19.4803C48.562 19.5102 48.5282 19.5214 48.4884 19.5141C48.4073 19.1903 48.5198 18.9651 48.8262 18.8384Z" fill="#141510"/>
<path fill-rule="evenodd" clip-rule="evenodd" d="M20.0084 18.8716C20.5995 18.8504 21.1625 18.9686 21.6975 19.2263C22.3344 19.469 22.8129 19.8912 23.1333 20.4931C23.3119 20.9794 23.3345 21.4748 23.2008 21.9796C22.8451 23.2557 22.4735 24.5282 22.086 25.797C21.9871 25.9281 21.8576 26.0125 21.6975 26.0504C20.6479 26.2014 19.6119 26.1338 18.5895 25.8477C18.2189 25.7777 17.8979 25.6146 17.6267 25.3578C17.5616 25.2413 17.5166 25.1174 17.4916 24.9862C17.4648 23.4425 17.8364 22.0011 18.6064 20.662C18.9038 20.1176 19.2473 19.6053 19.6368 19.1249C19.7629 19.0397 19.8867 18.9552 20.0084 18.8716Z" fill="#7D915C"/>
<path fill-rule="evenodd" clip-rule="evenodd" d="M18.0483 19.6487C17.6985 20.1454 17.3832 20.6634 17.1023 21.2027C16.182 22.6417 15.2643 24.1056 14.3491 25.5945C14.2534 25.7127 14.1576 25.831 14.0619 25.9492C13.7746 26.1833 13.4593 26.2286 13.116 26.0843C12.5564 25.7837 12.0666 25.3952 11.6465 24.9188C11.258 24.2521 11.2692 23.5877 11.6802 22.9256C11.9092 22.6131 12.1288 22.2978 12.339 21.9797C13.5904 20.8973 14.9642 19.9908 16.4605 19.2602C16.9112 19.0648 17.3729 19.031 17.8456 19.1589C17.9059 19.1854 17.9566 19.2248 17.9976 19.2771C18.0457 19.4046 18.0625 19.5285 18.0483 19.6487Z" fill="#7D915C"/>
<path fill-rule="evenodd" clip-rule="evenodd" d="M38.8921 19.2442C39.2208 19.2181 39.3505 19.3645 39.2806 19.6833C39.1809 19.8109 39.0512 19.8503 38.8921 19.8016C38.7377 19.7157 38.687 19.5862 38.7401 19.4131C38.7978 19.3612 38.8485 19.3048 38.8921 19.2442Z" fill="#13130F"/>
<path fill-rule="evenodd" clip-rule="evenodd" d="M29.4325 19.279C30.2978 19.1298 30.9791 19.4113 31.4764 20.1236C31.6811 20.4072 31.8725 20.7 32.0507 21.0019C32.3493 21.7166 32.1973 22.3191 31.5946 22.8093C30.7879 23.3478 29.932 23.7983 29.0271 24.1606C27.992 24.5671 26.9279 24.8655 25.8347 25.0558C25.5638 25.0442 25.3611 24.9203 25.2266 24.6842C24.9928 24.135 24.8858 23.5607 24.9056 22.9613C24.9426 22.2238 25.0721 21.5031 25.2941 20.7992C25.4855 20.1912 25.8965 19.8365 26.5272 19.7351C27.4907 19.52 28.4592 19.368 29.4325 19.279Z" fill="#7D915C"/>
<path fill-rule="evenodd" clip-rule="evenodd" d="M39.974 19.7178C40.1868 19.7321 40.2432 19.8278 40.1429 20.0049C39.9037 20.0227 39.8473 19.927 39.974 19.7178Z" fill="#161712"/>
<path fill-rule="evenodd" clip-rule="evenodd" d="M24.7366 19.6148C24.8299 19.5951 24.8861 19.6289 24.9055 19.7162C24.6114 20.5408 24.3467 21.3741 24.1116 22.2161C23.908 23.1616 23.8179 24.1188 23.8413 25.0876C23.8284 25.2279 23.7946 25.363 23.74 25.493C23.6699 25.5656 23.5911 25.5768 23.5035 25.5268C23.4202 25.367 23.3639 25.198 23.3346 25.0201C23.286 23.6115 23.5112 22.249 24.0103 20.9324C24.2013 20.4598 24.4434 20.0207 24.7366 19.6148Z" fill="#11110E"/>
<path fill-rule="evenodd" clip-rule="evenodd" d="M37.474 23.297C37.9128 23.291 38.1097 23.5049 38.0652 23.9389C37.954 24.2016 37.7571 24.2973 37.474 24.226C37.1588 24.0476 37.0855 23.7942 37.2544 23.4659C37.3209 23.3967 37.3939 23.3403 37.474 23.297Z" fill="#8AAC56"/>
<path fill-rule="evenodd" clip-rule="evenodd" d="M32.9481 27.8258C31.9362 28.4785 30.934 29.1484 29.9415 29.8359C29.4062 30.2105 28.877 30.5933 28.3537 30.9845C27.4357 31.7054 26.6024 32.5104 25.8538 33.3999C26.0949 32.9178 26.3708 32.456 26.6814 32.0148C26.7155 31.9635 26.7324 31.9071 26.7321 31.8459C26.6747 31.8405 26.6184 31.8463 26.5632 31.8628C25.8617 32.5726 25.3155 33.3891 24.9247 34.312C22.6278 35.2759 20.2349 35.8448 17.7459 36.0181C16.8003 36.0569 15.8544 36.0853 14.9082 36.1025C15.1848 35.4242 15.3987 34.7262 15.5501 34.008C18.9833 34.0448 22.2264 33.2847 25.2795 31.7277C26.3007 31.178 27.2579 30.5362 28.151 29.8021C28.723 29.3203 29.2748 28.8136 29.8063 28.2819C30.7445 27.2873 31.7354 26.3525 32.7792 25.4779C33.8342 24.6436 35.0224 24.0862 36.3433 23.8057C36.0118 24.4763 35.5953 25.0957 35.0933 25.6637C34.8173 25.9397 34.5416 26.2154 34.2656 26.4914C33.794 26.837 33.338 27.2032 32.8974 27.5893C32.8693 27.6795 32.8862 27.7582 32.9481 27.8258Z" fill="#809D4B"/>
<path fill-rule="evenodd" clip-rule="evenodd" d="M44.7704 23.8725C45.0612 23.8558 45.168 23.991 45.0913 24.2779C44.9933 24.4351 44.8528 24.4858 44.669 24.4299C44.4231 24.1893 44.4569 24.0035 44.7704 23.8725Z" fill="#DDE48A"/>
<path fill-rule="evenodd" clip-rule="evenodd" d="M36.7639 24.2112C37.0822 24.1467 37.3467 24.2481 37.5578 24.5152C37.8132 25.0034 37.7399 25.4371 37.3382 25.8158C37.2187 25.8702 37.1173 25.9489 37.0342 26.0523C36.7491 26.2364 36.4957 26.2084 36.2741 25.9679C36.2329 25.7138 36.1822 25.4662 36.1221 25.2246C36.3373 24.886 36.5511 24.5482 36.7639 24.2112Z" fill="#8AAC56"/>
<path fill-rule="evenodd" clip-rule="evenodd" d="M45.4132 24.4131C45.7182 24.4193 45.8081 24.5601 45.6834 24.8354C45.3956 24.948 45.2662 24.8522 45.2949 24.5482C45.3182 24.4857 45.3578 24.4407 45.4132 24.4131Z" fill="#DCE48A"/>
<path fill-rule="evenodd" clip-rule="evenodd" d="M38.1158 25.0549C38.5506 25.0112 38.7364 25.2026 38.6732 25.6292C38.556 25.8856 38.3587 25.9701 38.082 25.8826C37.7587 25.5948 37.7699 25.3191 38.1158 25.0549Z" fill="#8AAC56"/>
<path fill-rule="evenodd" clip-rule="evenodd" d="M40.9195 25.292C41.0637 25.3325 41.21 25.3663 41.3586 25.3933C40.8884 26.6338 40.2296 27.7598 39.3824 28.7716C38.4638 29.8145 37.4334 30.7209 36.2913 31.4911C36.2017 31.508 36.1119 31.5134 36.021 31.508C36.673 30.9898 37.3149 30.455 37.9466 29.9033C39.1881 28.7537 40.1509 27.4078 40.835 25.8663C40.8462 25.7085 40.8576 25.5511 40.8688 25.3933C40.886 25.3585 40.9029 25.3248 40.9195 25.292Z" fill="#D9E188"/>
<path fill-rule="evenodd" clip-rule="evenodd" d="M29.8373 25.2901C30.0569 25.2563 30.1413 25.3465 30.0907 25.5604C29.8796 25.8097 29.6263 26.0066 29.3305 26.1516C28.1634 26.8009 26.9135 27.1161 25.5807 27.0975C25.4795 26.9853 25.4964 26.9009 25.6314 26.8441C27.1222 26.5573 28.5242 26.0391 29.8373 25.2901Z" fill="#12110E"/>
<path fill-rule="evenodd" clip-rule="evenodd" d="M41.8656 25.5615C42.7287 26.4267 43.776 26.9446 45.0073 27.1155C44.7195 27.7358 44.2803 28.2256 43.6898 28.5851C43.3354 28.754 42.9807 28.9171 42.6257 29.0749C41.9696 28.6371 41.2544 28.333 40.4805 28.1628C40.9936 27.4297 41.4385 26.6527 41.8149 25.8318C41.8514 25.7453 41.8683 25.6551 41.8656 25.5615Z" fill="#7F9C4B"/>
<path fill-rule="evenodd" clip-rule="evenodd" d="M10.0097 25.4268C10.0671 25.4214 10.1235 25.4271 10.1787 25.4437C11.3789 25.9714 12.6288 26.3203 13.9285 26.4909C14.4916 26.5021 15.0546 26.5136 15.6176 26.5247C15.721 26.5534 15.8224 26.5872 15.9217 26.6261C15.9775 26.7622 15.9325 26.8524 15.7866 26.8963C15.5272 27.0058 15.257 27.0564 14.9758 27.0483C13.6354 27.0409 12.3516 26.7764 11.1246 26.2544C10.7232 26.0781 10.3573 25.8474 10.0266 25.5619C10.0101 25.5183 10.0044 25.4731 10.0097 25.4268Z" fill="#12120F"/>
<path fill-rule="evenodd" clip-rule="evenodd" d="M35.4143 26.438C35.9119 26.3897 36.1541 26.6147 36.1406 27.1137C35.9758 27.4296 35.7224 27.5367 35.3805 27.4346C35.0579 27.2576 34.9734 27.0042 35.1271 26.6745C35.2096 26.5749 35.3052 26.4958 35.4143 26.438Z" fill="#8AAC56"/>
<path fill-rule="evenodd" clip-rule="evenodd" d="M24.7731 26.6417C24.8415 26.6363 24.9091 26.6417 24.9758 26.6586C25.0179 26.7089 25.0179 26.7596 24.9758 26.8106C24.6781 26.9829 24.3628 27.1126 24.0298 27.1991C22.4016 27.6605 20.7462 27.7842 19.0638 27.5707C18.4415 27.4656 17.8334 27.3082 17.2395 27.0977C17.1827 27.0035 17.2052 26.9417 17.3071 26.9119C19.8192 27.3396 22.3079 27.2498 24.7731 26.6417Z" fill="#12110E"/>
<path fill-rule="evenodd" clip-rule="evenodd" d="M11.0887 27.9609C11.3167 27.965 11.542 27.993 11.7644 28.0454C12.5019 28.2467 13.2451 28.4268 13.994 28.5859C14.4364 28.6315 14.8756 28.6991 15.3116 28.7886C15.9827 29.0325 16.2699 29.5112 16.173 30.2244C16.0068 31.0666 15.5 31.528 14.6528 31.6095C14.3519 31.5763 14.0535 31.5257 13.7576 31.4574C13.037 31.2774 12.3163 31.097 11.5955 30.9169C10.6698 30.6933 10.3039 30.1132 10.4975 29.1771C10.5881 28.8268 10.7119 28.489 10.8691 28.1636C10.9388 28.0883 11.012 28.0207 11.0887 27.9609Z" fill="#7D915C"/>
<path fill-rule="evenodd" clip-rule="evenodd" d="M25.3444 28.0266C25.5024 28.0208 25.6601 28.0266 25.8173 28.0435C25.8997 28.0695 25.9617 28.1202 26.0031 28.1955C26.0611 28.4705 26.0047 28.7181 25.8342 28.9387C24.6749 30.2535 23.2166 31.0136 21.4594 31.219C20.708 31.3221 19.9535 31.3558 19.1959 31.3204C19.0879 31.2917 18.9922 31.241 18.9088 31.1684C18.3663 30.5147 18.2199 29.7829 18.4696 28.9725C18.5351 28.8843 18.6195 28.8225 18.723 28.7867C19.1809 28.6948 19.6426 28.6272 20.1081 28.584C21.1899 28.5559 22.271 28.5107 23.3512 28.4489C24.039 28.3945 24.7034 28.2536 25.3444 28.0266Z" fill="#7D915C"/>
<path fill-rule="evenodd" clip-rule="evenodd" d="M40.1093 28.6016C40.8853 28.7755 41.6174 29.0627 42.3052 29.463C42.5066 29.5948 42.6924 29.7468 42.8626 29.9191C42.9032 30.064 42.8636 30.1822 42.7444 30.2738C41.989 30.7133 41.1782 31.0062 40.312 31.1521C39.1678 31.3028 38.0192 31.393 36.8662 31.4224C38.151 30.7177 39.232 29.7772 40.1093 28.6016Z" fill="#646F51"/>
<path fill-rule="evenodd" clip-rule="evenodd" d="M26.3247 29.1777C26.5016 29.1943 26.541 29.2845 26.443 29.448C26.1497 29.7378 25.8287 29.9912 25.4802 30.2081C23.0752 31.6928 20.457 32.453 17.6257 32.4884C17.3866 32.4881 17.1502 32.4769 16.9163 32.4546C16.8932 32.4114 16.8988 32.3719 16.9332 32.3364C19.4761 32.2242 21.886 31.605 24.1626 30.4784C24.8891 30.0493 25.6098 29.6159 26.3247 29.1777Z" fill="#12120F"/>
<path fill-rule="evenodd" clip-rule="evenodd" d="M4.2998 31.168C5.5527 31.7595 6.84772 32.2831 8.1848 32.7389C8.03592 32.9422 7.8839 33.1392 7.72874 33.3301C6.92015 33.0581 6.16004 32.6919 5.44841 32.2321C5.24572 32.0632 5.04302 31.8943 4.84033 31.7254C4.67692 31.5227 4.49676 31.3369 4.2998 31.168Z" fill="#7E9B4A"/>
<path fill-rule="evenodd" clip-rule="evenodd" d="M4.13086 31.5752C4.97178 32.5478 6.01904 33.1954 7.27264 33.5177C7.39652 33.5288 7.52037 33.5403 7.64425 33.5515C7.60351 33.6373 7.54158 33.6991 7.45844 33.7373C6.5681 33.6133 5.75171 33.3035 5.00921 32.8083C4.57584 32.4937 4.28305 32.0826 4.13086 31.5752Z" fill="#AAD474"/>
<path fill-rule="evenodd" clip-rule="evenodd" d="M42.5063 41.5075C42.4762 41.4305 42.4705 41.3514 42.4894 41.271C43.0293 40.394 43.311 39.4366 43.334 38.3995C43.3634 37.4637 43.3407 36.5289 43.2664 35.5955C43.1424 34.2942 42.9793 32.9993 42.7766 31.7105C42.8212 31.6619 42.8776 31.6393 42.9455 31.643C43.8275 34.4152 43.9907 37.2303 43.4353 40.0886C43.2853 40.6717 42.9756 41.1447 42.5063 41.5075Z" fill="#DBE189"/>
<path fill-rule="evenodd" clip-rule="evenodd" d="M42.777 31.709C42.9797 32.9978 43.1429 34.2927 43.2669 35.594C43.3412 36.5274 43.3638 37.4622 43.3344 38.3979C43.3115 39.4351 43.0297 40.3925 42.4899 41.2695C42.471 41.3499 42.4767 41.4289 42.5068 41.5059C42.1558 41.7826 41.7619 41.9684 41.3244 42.0633C41.472 41.5705 41.3031 41.2326 40.8176 41.0499C40.395 41.0049 40.0629 41.157 39.821 41.5059C39.3008 40.9826 38.8221 41.0164 38.3853 41.6073C38.1231 41.0874 37.7404 40.9691 37.2367 41.2526C36.8634 41.6005 36.762 42.0174 36.9326 42.5025C36.76 42.4937 36.6026 42.4373 36.4597 42.3336C36.2553 42.1515 36.2046 41.9319 36.3077 41.6748C36.4712 41.3198 36.7191 41.0384 37.0509 40.8303C37.56 39.9165 37.9596 38.9594 38.2502 37.9588C38.9542 38.0382 39.3653 37.723 39.4832 37.0128C39.5059 36.8102 39.5059 36.6075 39.4832 36.4048C39.3998 36.073 39.1917 35.9321 38.8582 35.9825C38.7751 36.0318 38.7018 36.0936 38.6387 36.1683C38.6224 36.1362 38.6167 36.1024 38.6218 36.0669C38.6549 35.5136 38.6664 34.9619 38.6556 34.4116C39.5227 33.9099 40.3166 33.3133 41.0372 32.6211C41.0977 32.5296 41.1372 32.4282 41.1555 32.3171C41.7257 32.187 42.2662 31.9843 42.777 31.709Z" fill="#B0DD78"/>
<path fill-rule="evenodd" clip-rule="evenodd" d="M43.0811 30.6289C43.0993 30.6309 43.1108 30.6421 43.1149 30.6627C42.9656 30.9529 42.7514 31.1836 42.473 31.3552C41.8392 31.664 41.1751 31.8778 40.4798 31.9971C39.9201 32.0981 39.3569 32.1768 38.7907 32.2336C37.5718 32.3187 36.3557 32.4312 35.1422 32.5714C34.4557 32.667 33.7912 32.8417 33.149 33.095C33.1379 33.067 33.1265 33.0386 33.1152 33.0106C33.149 32.8373 33.1713 32.6626 33.1828 32.4869C33.32 32.4876 33.4551 32.4707 33.5882 32.4363C34.2172 32.2424 34.8591 32.1072 35.5138 32.0309C36.6834 31.9295 37.8543 31.8508 39.0272 31.7944C40.314 31.7464 41.5413 31.4539 42.7095 30.9161C42.8493 30.838 42.973 30.7421 43.0811 30.6289Z" fill="#636D50"/>
<path fill-rule="evenodd" clip-rule="evenodd" d="M40.1773 32.4883C40.2458 32.4829 40.3134 32.4883 40.3799 32.5052C38.8888 33.8592 37.1547 34.7714 35.1774 35.2416C34.32 35.4345 33.4528 35.5642 32.5762 35.6301C32.7445 34.8832 32.9022 34.1342 33.0491 33.3836C33.663 33.2407 34.2822 33.1278 34.9072 33.0458C36.2561 32.8958 37.6074 32.7718 38.9611 32.6741C39.3759 32.6431 39.7813 32.5812 40.1773 32.4883Z" fill="#D7944E"/>
<path fill-rule="evenodd" clip-rule="evenodd" d="M31.8996 32.5889C32.3999 32.5973 32.5407 32.8338 32.3219 33.2983C32.0285 33.5571 31.792 33.5121 31.6125 33.1632C31.5834 32.9061 31.6791 32.7145 31.8996 32.5889Z" fill="#8AAC56"/>
<path fill-rule="evenodd" clip-rule="evenodd" d="M8.4537 39.7488C8.44012 39.8495 8.40634 39.9393 8.35235 40.019C7.60309 39.8883 6.87112 39.6913 6.15649 39.4278C5.8871 39.3184 5.65623 39.1552 5.46394 38.938C5.39476 38.8062 5.35533 38.6654 5.3457 38.5157C5.39661 38.2732 5.48107 38.0421 5.59907 37.8232C6.62475 36.1999 7.61005 34.5503 8.55505 32.874C10.2951 33.4 12.0743 33.749 13.8927 33.9213C14.2431 33.9341 14.5922 33.9625 14.94 34.0057C14.8667 34.1297 14.7936 34.2534 14.7204 34.3773C14.6936 34.4986 14.7218 34.6054 14.8048 34.6983C14.3585 36.233 13.5364 37.5282 12.3387 38.5833C12.1312 38.5995 12.0299 38.712 12.0347 38.9211C11.7919 38.989 11.6005 39.1295 11.4604 39.3434C11.1281 39.0079 10.7565 38.9573 10.3455 39.1914C10.2364 39.2836 10.1463 39.3903 10.0753 39.5123C9.73953 39.0346 9.31161 38.9279 8.79153 39.1914C8.6139 39.3383 8.50127 39.5241 8.4537 39.7488Z" fill="#B0DC78"/>
<path fill-rule="evenodd" clip-rule="evenodd" d="M30.954 32.926C31.3215 32.8824 31.4735 33.0402 31.41 33.399C31.2422 33.6675 31.0395 33.7013 30.8019 33.5003C30.7024 33.2676 30.753 33.0764 30.954 32.926Z" fill="#8AAC56"/>
<path fill-rule="evenodd" clip-rule="evenodd" d="M31.4283 33.7031C32.058 33.8126 32.3001 34.1842 32.1546 34.818C32.0801 35.1652 31.8943 35.4301 31.5972 35.6118C30.8853 35.7318 30.5644 35.4335 30.6344 34.7166C30.8064 34.3028 31.0711 33.9649 31.4283 33.7031Z" fill="#8AAC56"/>
<path fill-rule="evenodd" clip-rule="evenodd" d="M13.5215 34.4785C13.8955 34.4866 14.0587 34.6782 14.0113 35.0528C13.9017 35.268 13.7271 35.341 13.4877 35.2724C13.2691 35.1329 13.1959 34.9359 13.2681 34.6812C13.3395 34.5927 13.424 34.5251 13.5215 34.4785Z" fill="#8AAC56"/>
<path fill-rule="evenodd" clip-rule="evenodd" d="M29.5686 34.5129C29.7859 34.474 29.9717 34.5301 30.126 34.6818C30.3915 35.1108 30.414 35.55 30.1936 35.9993C30.0866 36.1064 29.9797 36.2132 29.8727 36.3203C29.417 36.4834 29.1524 36.3199 29.0788 35.8304C29 35.2946 29.1633 34.8555 29.5686 34.5129Z" fill="#8AAC56"/>
<path fill-rule="evenodd" clip-rule="evenodd" d="M7.84656 34.7832C8.45279 34.8136 8.63859 35.1065 8.40397 35.6616C8.27756 35.8234 8.11425 35.8852 7.91412 35.8474C7.83325 35.7815 7.78257 35.697 7.7621 35.594C7.52556 35.4382 7.48052 35.2356 7.62697 34.9859C7.69666 34.9106 7.76984 34.843 7.84656 34.7832Z" fill="#12120E"/>
<path fill-rule="evenodd" clip-rule="evenodd" d="M26.7328 34.6143C26.9698 34.6207 27.0318 34.7332 26.9186 34.9521C26.6692 35.12 26.5678 35.0524 26.6146 34.7494C26.6611 34.7085 26.7005 34.6636 26.7328 34.6143Z" fill="#131410"/>
<path fill-rule="evenodd" clip-rule="evenodd" d="M40.0762 34.8184C40.3218 34.8423 40.3667 34.9491 40.2113 35.1393C39.9232 35.1423 39.8779 35.0352 40.0762 34.8184Z" fill="#8BAD56"/>
<path fill-rule="evenodd" clip-rule="evenodd" d="M11.2591 34.9191C11.5064 34.8576 11.6246 34.9478 11.6138 35.1893C11.5056 35.3799 11.3705 35.4022 11.2084 35.2569C11.1759 35.1336 11.1928 35.0211 11.2591 34.9191Z" fill="#8AAD56"/>
<path fill-rule="evenodd" clip-rule="evenodd" d="M12.6437 35.1895C13.1967 35.1618 13.512 35.4206 13.5896 35.9665C13.4929 36.5648 13.1551 36.9644 12.5761 37.1658C12.2323 37.3198 11.8832 37.3421 11.5289 37.2334C11.4017 37.1084 11.3341 36.9563 11.3262 36.7773C11.4152 36.2334 11.6516 35.7658 12.0356 35.3753C12.2238 35.2547 12.4265 35.1925 12.6437 35.1895Z" fill="#8AAC56"/>
<path fill-rule="evenodd" clip-rule="evenodd" d="M25.8187 35.5264C26.4156 35.5324 26.6352 35.8253 26.4774 36.4047C26.2867 36.7574 25.9996 36.8645 25.616 36.7256C25.322 36.5307 25.2376 36.2662 25.3626 35.9318C25.5111 35.7926 25.6632 35.6574 25.8187 35.5264Z" fill="#11110E"/>
<path fill-rule="evenodd" clip-rule="evenodd" d="M42.4746 35.4933C42.9097 35.4754 43.1182 35.6781 43.0996 36.1014C42.98 36.4642 42.7378 36.5824 42.3733 36.4561C42.2493 36.3997 42.1763 36.3041 42.1537 36.1689C42.1311 36.0449 42.1311 35.9213 42.1537 35.7973C42.2351 35.6652 42.3419 35.5639 42.4746 35.4933Z" fill="#12120F"/>
<path fill-rule="evenodd" clip-rule="evenodd" d="M24.5682 34.9182C24.6079 34.9108 24.6417 34.922 24.6696 34.952C24.6189 35.0868 24.5683 35.2219 24.5175 35.3574C24.4024 35.3196 24.2841 35.3138 24.1628 35.3405C21.8457 36.4567 19.4021 36.9297 16.832 36.7594C16.1082 36.6972 15.3875 36.6128 14.6699 36.506C14.7108 36.4233 14.7671 36.3557 14.8388 36.3033C18.1911 36.5824 21.4343 36.1209 24.5682 34.9182Z" fill="#636E50"/>
<path fill-rule="evenodd" clip-rule="evenodd" d="M38.252 37.9589C38.4026 37.3292 38.5266 36.6984 38.6236 36.0671C38.6185 36.1025 38.6242 36.1363 38.6405 36.1684C38.7036 36.0937 38.7769 36.0319 38.86 35.9826C39.1935 35.9323 39.4016 36.0731 39.485 36.4049C39.5077 36.6076 39.5077 36.8103 39.485 37.013C39.3671 37.7231 38.956 38.0383 38.252 37.9589Z" fill="#89AA55"/>
<path fill-rule="evenodd" clip-rule="evenodd" d="M31.2245 36.1367C31.5908 36.1377 31.7428 36.3178 31.6806 36.6772C31.5877 37.0184 31.3682 37.1705 31.0218 37.1333C30.7999 37.0097 30.7267 36.8239 30.8022 36.5759C30.8585 36.4857 30.9148 36.3958 30.9711 36.3056C31.0549 36.2445 31.1393 36.1881 31.2245 36.1367Z" fill="#8AAD56"/>
<path fill-rule="evenodd" clip-rule="evenodd" d="M10.7856 36.1679C10.9714 36.1452 11.0446 36.2239 11.0052 36.4043C10.8138 36.5621 10.7124 36.5168 10.7012 36.2692C10.7365 36.2398 10.7646 36.206 10.7856 36.1679Z" fill="#8CAF57"/>
<path fill-rule="evenodd" clip-rule="evenodd" d="M39.9727 36.3719C40.2531 36.3371 40.3997 36.4611 40.4118 36.7435C40.3351 37.0584 40.1324 37.1989 39.8037 37.1658C39.7757 37.1378 39.7473 37.1094 39.7193 37.0814C39.6639 36.9101 39.6639 36.7412 39.7193 36.5746C39.8031 36.5023 39.8875 36.4348 39.9727 36.3719Z" fill="#8AAD56"/>
<path fill-rule="evenodd" clip-rule="evenodd" d="M26.7316 36.6433C26.9588 36.6332 27.0151 36.7234 26.9005 36.9136C26.7691 36.966 26.6902 36.921 26.6641 36.7785C26.6726 36.7254 26.6951 36.6802 26.7316 36.6433Z" fill="#1A1C15"/>
<path fill-rule="evenodd" clip-rule="evenodd" d="M42.8793 36.7778C43.1715 36.7606 43.2898 36.8957 43.234 37.1832C43.1482 37.3376 43.0189 37.3883 42.8455 37.3352C42.6162 37.1386 42.6277 36.9528 42.8793 36.7778Z" fill="#141410"/>
<path fill-rule="evenodd" clip-rule="evenodd" d="M39.634 37.791C39.9384 37.7951 40.0175 37.9302 39.8705 38.1964C39.629 38.2643 39.5107 38.1744 39.5158 37.9261C39.5624 37.8853 39.6016 37.8403 39.634 37.791Z" fill="#8BAE57"/>
<path fill-rule="evenodd" clip-rule="evenodd" d="M38.5541 38.0947C38.8551 38.0748 38.9619 38.2099 38.8751 38.5001C38.8051 38.6568 38.6869 38.7075 38.5204 38.6521C38.291 38.4555 38.3025 38.2697 38.5541 38.0947Z" fill="#8AAD56"/>
<path fill-rule="evenodd" clip-rule="evenodd" d="M12.0001 39.2776C12.2436 39.2445 12.4069 39.3458 12.49 39.5816C12.5053 39.6921 12.5335 39.7989 12.5744 39.9026C12.5425 39.9526 12.4975 39.9864 12.4393 40.0039C12.1836 40.1282 11.9133 40.1901 11.6285 40.1897C11.5946 39.8188 11.7184 39.5148 12.0001 39.2776Z" fill="#ADD977"/>
<path fill-rule="evenodd" clip-rule="evenodd" d="M9.13004 39.3785C9.69317 39.3538 9.92964 39.6241 9.83948 40.1893C9.47973 40.192 9.12501 40.1582 8.77533 40.0879C8.71435 39.7596 8.83259 39.5231 9.13004 39.3785Z" fill="#ACD876"/>
<path fill-rule="evenodd" clip-rule="evenodd" d="M10.6171 39.3782C10.9529 39.3076 11.1894 39.4258 11.3265 39.7329C11.2696 39.891 11.2471 40.0542 11.259 40.2228C10.8759 40.2285 10.493 40.2228 10.1104 40.2059C10.1531 40.1954 10.1925 40.1785 10.2286 40.1552C10.2165 39.8191 10.346 39.5599 10.6171 39.3782Z" fill="#AEDA77"/>
<path fill-rule="evenodd" clip-rule="evenodd" d="M8.45486 39.749C8.45486 39.8504 8.45486 39.9517 8.45486 40.0531C8.41125 40.0612 8.37747 40.0497 8.35352 40.0193C8.4075 39.9396 8.44128 39.8497 8.45486 39.749Z" fill="#4F6037"/>
<path fill-rule="evenodd" clip-rule="evenodd" d="M29.4676 42.6209C29.2472 42.6317 29.0333 42.6205 28.8257 42.5871C28.851 42.1942 28.8566 41.7999 28.8426 41.4047C28.9351 41.1077 29.1322 41.001 29.4338 41.0837C29.7741 41.2567 29.9317 41.5385 29.9067 41.9283C29.8907 42.1601 29.8682 42.3908 29.8392 42.6209C29.7153 42.6209 29.5914 42.6209 29.4676 42.6209Z" fill="#AEDA77"/>
<path fill-rule="evenodd" clip-rule="evenodd" d="M28.3868 42.0471C28.3868 42.2387 28.3868 42.4299 28.3868 42.6214C28.353 42.6214 28.3192 42.6214 28.2854 42.6214C27.9595 42.5907 27.6329 42.5684 27.3057 42.5539C27.2933 42.3353 27.254 42.1215 27.1875 41.912C27.1421 41.6792 27.1872 41.4654 27.3226 41.2701C27.6543 41.0188 27.9471 41.0641 28.201 41.4053C28.331 41.5985 28.3929 41.8127 28.3868 42.0471Z" fill="#AEDA77"/>
<path fill-rule="evenodd" clip-rule="evenodd" d="M40.4136 41.3717C40.7794 41.2838 41.0048 41.4189 41.0892 41.777C41.0477 41.9166 40.997 42.0517 40.9372 42.1824C40.6105 42.2652 40.2784 42.3216 39.9406 42.3513C39.8741 41.9105 40.0315 41.5838 40.4136 41.3717Z" fill="#AEDA77"/>
<path fill-rule="evenodd" clip-rule="evenodd" d="M30.4793 41.4053C30.7583 41.4553 31.0173 41.5624 31.2563 41.7262C31.4926 41.9576 31.4813 42.1715 31.2225 42.3681C30.9052 42.4846 30.5786 42.5579 30.2428 42.5877C30.2095 42.4772 30.1982 42.3647 30.2091 42.2498C30.2537 42.2556 30.2931 42.2444 30.3273 42.2161C30.2866 42.0519 30.2754 41.883 30.2935 41.7093C30.3218 41.5857 30.3837 41.4843 30.4793 41.4053Z" fill="#ADD976"/>
<path fill-rule="evenodd" clip-rule="evenodd" d="M37.5416 41.5058C37.7821 41.4598 37.9453 41.55 38.0314 41.776C38.0581 42.0145 38.0466 42.251 37.9976 42.4855C37.9287 42.5277 37.85 42.5503 37.7611 42.553C37.5868 42.5706 37.4122 42.5817 37.2375 42.5868C37.2318 42.3388 37.2375 42.0912 37.2544 41.8436C37.3213 41.7037 37.4169 41.5912 37.5416 41.5058Z" fill="#AEDA77"/>
<path fill-rule="evenodd" clip-rule="evenodd" d="M38.9931 41.5059C39.537 41.545 39.717 41.8268 39.5336 42.3504C39.5228 42.3893 39.5005 42.4173 39.466 42.4349C39.1393 42.466 38.813 42.494 38.4863 42.5193C38.5032 42.2717 38.565 42.0352 38.6721 41.8099C38.7535 41.6778 38.8603 41.5765 38.9931 41.5059Z" fill="#ADD876"/>
<path fill-rule="evenodd" clip-rule="evenodd" d="M28.3865 42.0469C28.4199 42.2432 28.4312 42.4458 28.4203 42.655C28.3663 42.6641 28.3212 42.6526 28.2852 42.6212C28.3189 42.6212 28.3527 42.6212 28.3865 42.6212C28.3865 42.4296 28.3865 42.2384 28.3865 42.0469Z" fill="#3A4529"/>
<path fill-rule="evenodd" clip-rule="evenodd" d="M28.8268 42.5879C29.0343 42.6213 29.2483 42.6325 29.4686 42.6217C29.2487 42.6663 29.0234 42.6663 28.793 42.6217C28.7972 42.6011 28.8084 42.5899 28.8268 42.5879Z" fill="#7D9A56"/>
</svg>
