<svg width="51" height="24" viewBox="0 0 51 24" fill="none" xmlns="http://www.w3.org/2000/svg">
<path d="M7.71124 23C7.11391 23 6.62324 22.8187 6.23924 22.456C5.85524 22.072 5.66324 21.6027 5.66324 21.048V4.92L6.11124 5.624L3.77524 7.352C3.47657 7.58667 3.10324 7.704 2.65524 7.704C2.14324 7.704 1.69524 7.512 1.31124 7.128C0.927242 6.744 0.735242 6.28533 0.735242 5.752C0.735242 5.06933 1.06591 4.51467 1.72724 4.088L6.33524 1.016C6.54858 0.866666 6.78324 0.76 7.03924 0.695999C7.31658 0.631999 7.57258 0.599998 7.80724 0.599998C8.42591 0.599998 8.91658 0.791999 9.27924 1.176C9.64191 1.53867 9.82324 1.99733 9.82324 2.552V21.048C9.82324 21.6027 9.62058 22.072 9.21524 22.456C8.83124 22.8187 8.32991 23 7.71124 23ZM22.3567 23.32C20.5221 23.32 18.9647 22.84 17.6847 21.88C16.4261 20.8987 15.4661 19.544 14.8047 17.816C14.1434 16.0667 13.8127 14.0613 13.8127 11.8C13.8127 9.51733 14.1434 7.512 14.8047 5.784C15.4661 4.056 16.4261 2.712 17.6847 1.752C18.9647 0.770665 20.5221 0.279999 22.3567 0.279999C24.1914 0.279999 25.7381 0.770665 26.9967 1.752C28.2767 2.712 29.2474 4.056 29.9087 5.784C30.5701 7.512 30.9007 9.51733 30.9007 11.8C30.9007 14.0613 30.5701 16.0667 29.9087 17.816C29.2474 19.544 28.2767 20.8987 26.9967 21.88C25.7381 22.84 24.1914 23.32 22.3567 23.32ZM22.3567 19.48C23.2527 19.48 24.0207 19.2027 24.6607 18.648C25.3221 18.072 25.8341 17.2187 26.1967 16.088C26.5594 14.936 26.7407 13.5067 26.7407 11.8C26.7407 10.072 26.5594 8.64267 26.1967 7.512C25.8341 6.38133 25.3221 5.53867 24.6607 4.984C24.0207 4.408 23.2527 4.12 22.3567 4.12C21.4821 4.12 20.7141 4.408 20.0527 4.984C19.3914 5.53867 18.8794 6.38133 18.5167 7.512C18.1541 8.64267 17.9727 10.072 17.9727 11.8C17.9727 13.5067 18.1541 14.936 18.5167 16.088C18.8794 17.2187 19.3914 18.072 20.0527 18.648C20.7141 19.2027 21.4821 19.48 22.3567 19.48ZM42.013 23.32C40.1783 23.32 38.621 22.84 37.341 21.88C36.0823 20.8987 35.1223 19.544 34.461 17.816C33.7997 16.0667 33.469 14.0613 33.469 11.8C33.469 9.51733 33.7997 7.512 34.461 5.784C35.1223 4.056 36.0823 2.712 37.341 1.752C38.621 0.770665 40.1783 0.279999 42.013 0.279999C43.8477 0.279999 45.3943 0.770665 46.653 1.752C47.933 2.712 48.9037 4.056 49.565 5.784C50.2263 7.512 50.557 9.51733 50.557 11.8C50.557 14.0613 50.2263 16.0667 49.565 17.816C48.9037 19.544 47.933 20.8987 46.653 21.88C45.3943 22.84 43.8477 23.32 42.013 23.32ZM42.013 19.48C42.909 19.48 43.677 19.2027 44.317 18.648C44.9783 18.072 45.4903 17.2187 45.853 16.088C46.2157 14.936 46.397 13.5067 46.397 11.8C46.397 10.072 46.2157 8.64267 45.853 7.512C45.4903 6.38133 44.9783 5.53867 44.317 4.984C43.677 4.408 42.909 4.12 42.013 4.12C41.1383 4.12 40.3703 4.408 39.709 4.984C39.0477 5.53867 38.5357 6.38133 38.173 7.512C37.8103 8.64267 37.629 10.072 37.629 11.8C37.629 13.5067 37.8103 14.936 38.173 16.088C38.5357 17.2187 39.0477 18.072 39.709 18.648C40.3703 19.2027 41.1383 19.48 42.013 19.48Z" fill="#903903"/>
</svg>
