<svg width="88" height="88" viewBox="0 0 88 88" fill="none" xmlns="http://www.w3.org/2000/svg">
<g clip-path="url(#clip0_2097_11679)">
<path d="M3.67931 31.8005V56.195C3.66879 59.9617 4.42185 63.6899 5.8912 67.1456C7.32228 70.4998 9.38233 73.5363 11.9555 76.0843C14.5493 78.6597 17.6043 80.7024 20.9541 82.1012C24.4498 83.5716 28.1955 84.3242 31.9767 84.3161H55.9904C59.7717 84.3242 63.5173 83.5716 67.013 82.1012C70.3613 80.7014 73.4149 78.6588 76.008 76.0843C78.5835 73.5383 80.6439 70.5013 82.0723 67.1456C83.5473 63.6911 84.3067 59.9629 84.3026 56.195V31.8005C84.3072 28.0325 83.5479 24.3042 82.0723 20.8499C80.6451 17.4901 78.5847 14.4491 76.008 11.8998C73.4149 9.32534 70.3613 7.28274 67.013 5.88298C63.5173 4.41256 59.7717 3.65988 55.9904 3.66803H32.0062C28.225 3.65988 24.4793 4.41256 20.9836 5.88298C17.6355 7.28505 14.581 9.32734 11.9849 11.8998C9.58701 14.2763 7.63547 17.0801 6.22667 20.1729C6.12345 20.4023 6.02022 20.6317 5.92069 20.8611C4.4427 24.3111 3.67961 28.0355 3.67931 31.8005Z" fill="#D58900"/>
<path d="M85.4821 19.4232C83.8647 15.6298 81.5353 12.1959 78.6252 9.31489C75.6922 6.40055 72.2382 4.08738 68.4506 2.50083C64.4981 0.841722 60.2643 -0.00800298 55.9903 7.98876e-05H32.006C27.7271 -0.00948679 23.4882 0.840257 19.531 2.50083L18.7273 2.8543C15.2527 4.4216 12.0804 6.60951 9.36 9.31489C7.04844 11.6037 5.09961 14.245 3.58328 17.1443C3.19252 17.8964 2.84598 18.6485 2.50314 19.4232V19.4608C2.40729 19.6839 2.31513 19.9058 2.22666 20.1264C1.89487 20.9612 1.60364 21.8036 1.34559 22.6534C0.656916 24.9228 0.230088 27.2665 0.0737536 29.6367C0.0221429 30.355 2.51772e-05 31.077 2.51772e-05 31.8028V56.1973C-0.00535577 60.4566 0.851843 64.6712 2.51789 68.5769C4.134 72.371 6.46354 75.8052 9.37474 78.6851C12.3027 81.597 15.7502 83.91 19.531 85.4992C23.4847 87.1583 27.7198 88.008 31.995 87.9999H55.9903C57.8719 88.0015 59.7502 87.8392 61.6048 87.5148C62.6296 87.3343 63.6471 87.1012 64.6535 86.8229C65.9446 86.4614 67.2126 86.0193 68.4506 85.4992L68.9446 85.2849C72.5407 83.7088 75.8222 81.4717 78.6252 78.6851C81.1524 76.1801 83.2441 73.2555 84.8112 70.0359C85.0471 69.5508 85.2683 69.062 85.4821 68.5619C87.1481 64.6562 88.0054 60.4416 88 56.1822V31.7877C88.0033 27.5334 87.1462 23.3242 85.4821 19.4232ZM78.6658 65.7151C77.4234 68.6326 75.6324 71.2734 73.3941 73.4881C71.14 75.7298 68.4842 77.5083 65.5714 78.7265C65.1733 78.8957 64.7752 79.0499 64.3733 79.1966C62.5925 79.8333 60.7477 80.2659 58.8731 80.4864C57.9159 80.5964 56.9535 80.6516 55.9903 80.6519H32.006C28.718 80.66 25.4607 80.0057 22.4212 78.7265C19.5084 77.5083 16.8526 75.7298 14.5985 73.4881C12.3603 71.2726 10.5682 68.632 9.32313 65.7151C8.04354 62.712 7.38589 59.4717 7.39142 56.1973V31.8028C7.39087 30.2884 7.53159 28.7774 7.81168 27.2902C7.95476 26.5202 8.13687 25.7583 8.35727 25.0075C8.46049 24.6315 8.57477 24.293 8.69643 23.9395C8.88321 23.3855 9.09211 22.839 9.32313 22.3C9.43004 22.0555 9.53695 21.8111 9.64754 21.5742C10.873 18.9429 12.5497 16.5563 14.5985 14.527C16.8521 12.2781 19.5093 10.4932 22.4249 9.26976C22.9742 9.03661 23.5308 8.82976 24.0875 8.63798C26.6423 7.77839 29.3158 7.34292 32.006 7.34814H55.9903C59.2781 7.339 62.5353 7.99202 65.5751 9.26976C68.4879 10.488 71.1437 12.2665 73.3978 14.5082C75.6361 16.7229 77.4271 19.3636 78.6695 22.2811C79.952 25.2834 80.611 28.5241 80.6049 31.799V56.1935C80.6098 59.4639 79.9535 62.7002 78.6769 65.7001L78.6658 65.7151Z" fill="#8415FA"/>
<path d="M52.7093 11.4382C52.7093 11.4382 61.8554 10.9305 68.4801 15.5748C75.1047 20.219 71.3592 21.5465 62.7255 18.5832C54.0917 15.6199 44.599 12.0512 52.7093 11.4382Z" fill="#D58900"/>
<path d="M45.2021 11.2255C42.3155 11.045 38.9866 11.0714 38.5664 12.5531C38.1461 14.0348 43.4952 13.828 45.5007 13.3691C47.5061 12.9103 46.8462 11.3271 45.2021 11.2255Z" fill="#D58900"/>
<path d="M5.95389 31.8056V56.2001C5.94838 59.6665 6.64624 63.0966 8.00357 66.2745C9.31877 69.363 11.215 72.1584 13.5849 74.5025C15.9713 76.8741 18.7822 78.7559 21.8647 80.0455C25.0808 81.3991 28.5272 82.0918 32.0062 82.0837H55.9905C59.4695 82.0918 62.9159 81.3991 66.132 80.0455C69.214 78.7549 72.0248 76.8733 74.4118 74.5025C76.7792 72.1571 78.674 69.3619 79.9895 66.2745C80.4154 65.277 80.7762 64.2519 81.0696 63.2059C81.7149 60.929 82.0401 58.5702 82.0354 56.2001V31.8056C82.04 28.3397 81.3435 24.91 79.9895 21.7312C78.6729 18.6434 76.7769 15.8482 74.4081 13.5032C72.0211 11.1324 69.2103 9.2507 66.1283 7.96016C62.9122 6.60655 59.4659 5.91389 55.9868 5.92194H32.0062C28.5272 5.91389 25.0808 6.60655 21.8647 7.96016C18.7822 9.24979 15.9713 11.1316 13.5849 13.5032C11.6442 15.4232 10.0186 17.649 8.77036 20.0954C8.4951 20.6293 8.23951 21.1746 8.00357 21.7312C6.64624 24.9091 5.94838 28.3392 5.95389 31.8056ZM8.83303 31.8056C8.82954 27.6568 9.9524 23.5879 12.0771 20.0502C14.1728 16.5853 17.1064 13.7279 20.5962 11.7524C24.0861 9.77685 28.0151 8.74941 32.0062 8.76868H55.9905C68.7899 8.76868 79.1637 19.0762 79.1637 31.7906V56.185C79.1638 57.3383 79.0775 58.4898 78.9056 59.6297C77.232 70.7119 67.6103 79.2069 55.9905 79.2069H32.0062C19.2068 79.2069 8.83303 68.8993 8.83303 56.185V31.8056Z" fill="#D58900"/>
<path d="M6.39972 30.4606V53.8247C6.39681 57.3628 7.0777 60.8667 8.40343 64.1361C9.72916 67.4055 11.6737 70.3763 14.1259 72.8784C16.5781 75.3806 19.4898 77.365 22.6945 78.7182C25.8991 80.0715 29.3339 80.7671 32.8023 80.7651H55.1792C60.3708 80.765 65.4473 79.2044 69.7746 76.2784C74.1018 73.3524 77.488 69.1905 79.51 64.3128C80.1886 62.6936 80.7073 61.0093 81.0583 59.285C81.4176 57.4944 81.5979 55.6713 81.5965 53.8436V30.4795C81.5994 26.9408 80.9183 23.4362 79.5921 20.1663C78.2659 16.8964 76.3207 13.9254 73.8677 11.4231C71.4147 8.92089 68.5022 6.93659 65.2967 5.58376C62.0912 4.23093 58.6556 3.53615 55.1866 3.53912H32.8023C29.2703 3.5317 25.7733 4.25181 22.5207 5.65629C19.3842 7.01068 16.5338 8.97076 14.1266 11.4287C11.884 13.71 10.0633 16.3851 8.75169 19.3258C8.65584 19.5439 8.56 19.762 8.46784 19.9839C7.09538 23.2989 6.39201 26.8621 6.39972 30.4606Z" fill="#A856FF"/>
<path d="M82.6997 18.6033C80.4169 13.0852 76.5888 8.3768 71.695 5.06765C66.8011 1.7585 61.0589 -0.00427617 55.1875 4.50133e-05H32.8032C28.809 -0.00697746 24.8545 0.807744 21.1761 2.39549C20.9254 2.50455 20.6747 2.61737 20.4388 2.73395C14.3633 5.55825 9.3882 10.3738 6.3048 16.4147C5.94353 17.1267 5.60806 17.855 5.2984 18.5996V18.6372C5.20992 18.8478 5.12513 19.0621 5.04403 19.2727C4.73436 20.0699 4.45911 20.8772 4.21826 21.6945C3.57709 23.8718 3.17888 26.116 3.03121 28.3844C2.98698 29.0726 2.96485 29.7608 2.96485 30.4565V53.8206C2.96146 57.8216 3.73151 61.7841 5.23094 65.4813C6.73036 69.1785 8.92974 72.5377 11.7032 75.3669C14.4767 78.1961 17.7698 80.4396 21.3942 81.9692C25.0186 83.4987 28.903 84.2842 32.8253 84.2807H55.2023C56.9573 84.2828 58.709 84.1267 60.4371 83.8145C61.3955 83.6415 62.3467 83.4384 63.283 83.1526C64.4888 82.8063 65.672 82.383 66.8257 81.8853L67.2866 81.6823C73.7551 78.7532 78.9985 73.583 82.0878 67.0877C82.3053 66.6251 82.5154 66.1551 82.7145 65.6775C84.2696 61.9261 85.0682 57.8936 85.0628 53.8206V30.4565C85.0631 26.3837 84.2594 22.3525 82.6997 18.6033ZM76.3405 62.9398C74.0141 68.5528 69.638 73.0223 64.1383 75.4022C63.7696 75.5651 63.401 75.7156 63.0323 75.8535C62.1144 76.1915 61.1761 76.469 60.2233 76.6845C59.4566 76.8603 58.6813 76.9946 57.9008 77.0869C57.0087 77.1925 56.1114 77.2452 55.2133 77.2448H32.8032C29.7873 77.2478 26.8005 76.644 24.0136 75.4681C21.2267 74.2922 18.6945 72.5671 16.562 70.3918C14.4294 68.2164 12.7384 65.6333 11.5856 62.7905C10.4328 59.9476 9.84092 56.9008 9.84383 53.8243V30.4602C9.84183 29.0057 9.97265 27.5541 10.2346 26.1243C10.3698 25.3873 10.5406 24.6578 10.747 23.9357C10.8429 23.5935 10.9498 23.2513 11.0604 22.9129C11.2373 22.3814 11.4327 21.8587 11.6465 21.3447C11.746 21.1116 11.8456 20.8784 11.9488 20.6453C14.3561 15.3537 18.607 11.1648 23.8746 8.89368C24.3833 8.67181 24.9031 8.46874 25.4229 8.28824C27.7977 7.46726 30.2884 7.04929 32.7958 7.05101H55.1728C58.1886 7.04755 61.1754 7.6505 63.9626 8.82537C66.7498 10.0002 69.2827 11.724 71.4164 13.8981C73.5501 16.0722 75.2427 18.654 76.3976 21.4958C77.5525 24.3377 78.1469 27.3839 78.1469 30.4602V53.8243C78.1535 56.952 77.5403 60.0487 76.3442 62.9285L76.3405 62.9398Z" fill="#A856FF"/>
<path d="M25.4284 8.27333C24.9086 8.45383 24.3888 8.64937 23.8801 8.87876C18.6134 11.1542 14.365 15.3472 11.9617 20.6417C9.83264 19.605 7.91318 18.17 6.30298 16.4111C9.38479 10.3694 14.3586 5.55251 20.4333 2.72656C22.573 4.06386 24.3033 5.98521 25.4284 8.27333Z" fill="white" fill-opacity="0.6"/>
<path d="M52.1196 10.9534C52.1196 10.9534 60.6538 10.4645 66.836 14.9134C73.0183 19.3623 69.5198 20.6334 61.4685 17.7978C53.4173 14.9623 44.5476 11.5288 52.1196 10.9534Z" fill="white" fill-opacity="0.6"/>
<path d="M45.1221 10.773C42.431 10.6 39.3233 10.6263 38.9399 12.0441C38.5565 13.4619 43.5406 13.2663 45.4097 12.8263C47.2787 12.3863 46.6557 10.8519 45.1221 10.773Z" fill="white" fill-opacity="0.6"/>
<path d="M10.7538 23.9368C10.5473 24.6589 10.3765 25.3884 10.2413 26.1255C8.37966 24.8695 6.04243 23.2261 4.20288 21.6992C4.44865 20.8844 4.72391 20.0771 5.02865 19.2773C6.55854 20.6049 8.84047 22.5266 10.7538 23.9368Z" fill="white" fill-opacity="0.6"/>
<path d="M8.5079 30.4612V53.8253C8.50499 57.0809 9.13133 60.3051 10.3511 63.3135C11.5709 66.3219 13.3601 69.0556 15.6165 71.3579C17.8729 73.6603 20.5521 75.4863 23.5009 76.7315C26.4498 77.9767 29.6103 78.6166 32.8018 78.6146H55.1787C58.3707 78.6171 61.5318 77.9776 64.4813 76.7327C67.4307 75.4878 70.1107 73.6619 72.3677 71.3595C74.6248 69.0571 76.4147 66.3234 77.6351 63.3147C78.8555 60.306 79.4824 57.0814 79.48 53.8253V30.4612C79.4829 27.205 78.8563 23.9801 77.6361 20.9712C76.4159 17.9623 74.626 15.2284 72.3688 12.9259C70.1116 10.6234 67.4315 8.79752 64.4819 7.55279C61.5322 6.30806 58.3708 5.66892 55.1787 5.67189H32.8018C28.313 5.67422 23.9124 6.94318 20.0867 9.33843C16.261 11.7337 13.1595 15.1618 11.1253 19.2436C10.8795 19.745 10.6411 20.2677 10.4101 20.8117C9.14618 23.8649 8.4992 27.1469 8.5079 30.4612ZM11.1917 30.4612C11.1907 27.5657 11.7489 24.6984 12.8345 22.023C13.9201 19.3476 15.5117 16.9165 17.5185 14.8688C19.5253 12.821 21.9079 11.1965 24.5302 10.0882C27.1526 8.97995 29.9633 8.40951 32.8018 8.40951H55.1787C60.9121 8.40951 66.4105 10.7328 70.4646 14.8683C74.5187 19.0038 76.7962 24.6127 76.7962 30.4612V53.8253C76.7976 54.9293 76.7162 56.0319 76.5529 57.1233C75.7791 62.3421 73.1958 67.1047 69.2724 70.5459C65.349 73.9872 60.3457 75.8787 55.1713 75.877H32.8018C29.9628 75.8774 27.1515 75.3074 24.5286 74.1994C21.9056 73.0913 19.5223 71.467 17.5148 69.4193C15.5074 67.3715 13.915 64.9403 12.8288 62.2647C11.7426 59.589 11.1838 56.7213 11.1843 53.8253L11.1917 30.4612Z" fill="#8415FA"/>
<path d="M52.6809 39.3038C52.4554 39.0246 52.1281 38.8464 51.7711 38.8084C51.4141 38.7704 51.0567 38.8758 50.7774 39.1014C50.4981 39.3269 50.3199 39.6542 50.2819 40.0111C50.244 40.3681 50.3494 40.7255 50.5749 41.0048C51.257 41.9321 51.6248 43.0531 51.6248 44.2042C51.6248 45.3554 51.257 46.4764 50.5749 47.4037C50.414 47.6021 50.3126 47.842 50.2826 48.0957C50.2527 48.3494 50.2953 48.6064 50.4056 48.8369C50.5158 49.0673 50.6892 49.2617 50.9056 49.3976C51.122 49.5334 51.3725 49.605 51.6279 49.6041C51.8296 49.6048 52.0289 49.5603 52.2111 49.4739C52.3933 49.3874 52.5539 49.2613 52.6809 49.1046C53.7517 47.6954 54.3315 45.9742 54.3315 44.2042C54.3315 42.4343 53.7517 40.7131 52.6809 39.3038Z" fill="white"/>
<path d="M54.5131 35.0622C54.3766 34.9487 54.2191 34.8633 54.0496 34.8107C53.88 34.7581 53.7018 34.7394 53.525 34.7557C53.3483 34.772 53.1765 34.823 53.0194 34.9057C52.8623 34.9883 52.7231 35.1012 52.6096 35.2377C52.4962 35.3742 52.4107 35.5317 52.3581 35.7012C52.3055 35.8708 52.2869 36.049 52.3032 36.2258C52.3194 36.4025 52.3704 36.5743 52.4531 36.7314C52.5358 36.8884 52.6486 37.0277 52.7851 37.1411C53.8679 37.9779 54.7498 39.0462 55.3665 40.2678C55.9831 41.4894 56.3189 42.8334 56.3491 44.2015C56.3189 45.5696 55.9831 46.9136 55.3665 48.1351C54.7498 49.3567 53.8679 50.425 52.7851 51.2618C52.6484 51.3752 52.5354 51.5143 52.4526 51.6714C52.3698 51.8285 52.3188 52.0003 52.3025 52.1772C52.2862 52.354 52.3049 52.5323 52.3576 52.7018C52.4103 52.8714 52.496 53.0289 52.6096 53.1653C52.7366 53.3177 52.8955 53.4402 53.0752 53.5242C53.2548 53.6082 53.4508 53.6516 53.6491 53.6513C53.9646 53.6519 54.2702 53.542 54.5131 53.3408C55.9042 52.2533 57.0338 50.8678 57.8188 49.2861C58.6038 47.7045 59.0242 45.967 59.0491 44.2015C59.0242 42.436 58.6038 40.6985 57.8188 39.1168C57.0338 37.5352 55.9042 36.1497 54.5131 35.0622Z" fill="white"/>
<path d="M47.534 32.2121C47.3288 32.0936 47.096 32.0312 46.859 32.0312C46.622 32.0312 46.3892 32.0936 46.184 32.2121L37.4495 38.2195H30.6995C30.3414 38.2195 29.9981 38.3617 29.7449 38.6149C29.4917 38.868 29.3495 39.2114 29.3495 39.5695V48.8303C29.3495 49.1883 29.4917 49.5317 29.7449 49.7848C29.9981 50.038 30.3414 50.1802 30.6995 50.1802H37.4495L46.103 56.1201C46.34 56.2735 46.6172 56.3534 46.8995 56.3496C47.2575 56.3496 47.6009 56.2074 47.8541 55.9542C48.1073 55.701 48.2495 55.3577 48.2495 54.9996V33.4001C48.2488 33.1559 48.1819 32.9164 48.0559 32.7072C47.9299 32.498 47.7496 32.3269 47.534 32.2121Z" fill="white"/>
</g>
<defs>
<clipPath id="clip0_2097_11679">
<rect width="88" height="88" fill="white"/>
</clipPath>
</defs>
</svg>
