<?xml version="1.0" encoding="UTF-8"?>
<svg version="1.1" xmlns="http://www.w3.org/2000/svg" width="148" height="91">
<path d="M0 0 C48.84 0 97.68 0 148 0 C148 30.03 148 60.06 148 91 C99.16 91 50.32 91 0 91 C0 60.97 0 30.94 0 0 Z " fill="#FEFEFD" transform="translate(0,0)"/>
<path d="M0 0 C3.63 0.66 7.26 1.32 11 2 C10.34 3.093125 9.68 4.18625 9 5.3125 C5.55608706 12.18815658 6.74556629 19.32878034 7.76171875 26.71484375 C8.91077443 37.73447612 8.22142916 46.66785626 2 56 C1.34 56 0.68 56 0 56 C-0.37125 56.86625 -0.37125 56.86625 -0.75 57.75 C-2.18299988 60.32939979 -3.78424676 62.06121592 -6 64 C-6.66 64 -7.32 64 -8 64 C-8 64.66 -8 65.32 -8 66 C-16.2577383 72.31561313 -31.3993641 82 -42 82 C-42 82.66 -42 83.32 -42 84 C-45.40299218 85.13433073 -48.02246136 85.12943135 -51.609375 85.1328125 C-52.92164062 85.13410156 -54.23390625 85.13539062 -55.5859375 85.13671875 C-56.27010742 85.13462402 -56.95427734 85.1325293 -57.65917969 85.13037109 C-59.72859148 85.125055 -61.79778276 85.13030429 -63.8671875 85.13671875 C-65.18460937 85.13542969 -66.50203125 85.13414063 -67.859375 85.1328125 C-69.06045898 85.13168457 -70.26154297 85.13055664 -71.49902344 85.12939453 C-78.06193873 84.88683211 -81.41401438 84.680101 -86 80 C-88.75359401 78.7167354 -91.62720031 77.79341244 -94.5 76.8125 C-102.91072693 73.74206476 -109.237562 69.96372485 -116 64 C-116.68449219 63.401875 -117.36898437 62.80375 -118.07421875 62.1875 C-124.7733865 55.90975495 -130.21303051 48.12385386 -132 39 C-131.93443672 35.45958264 -131.86117349 33.8333937 -129.3046875 31.359375 C-124.9387366 28.78420396 -119.90573655 29.50362455 -115 30 C-112.46305745 30.76806517 -110.39079721 31.8046014 -108 33 C-106.948125 33.165 -105.89625 33.33 -104.8125 33.5 C-101.72840598 34.04828338 -100.24326653 34.84301296 -98 37 C-98 37.66 -98 38.32 -98 39 C-96.88625 39.103125 -95.7725 39.20625 -94.625 39.3125 C-92.830625 39.6528125 -92.830625 39.6528125 -91 40 C-90.34 40.99 -89.68 41.98 -89 43 C-73.85054422 49.13552959 -53.8559778 46.70217712 -38 45 C-38 44.34 -38 43.68 -38 43 C-37.41992188 42.74605469 -36.83984375 42.49210937 -36.2421875 42.23046875 C-34.61954807 41.51554346 -32.99988506 40.79383544 -31.3828125 40.06640625 C-29.51495963 39.23046554 -27.63464899 38.4223515 -25.75 37.625 C-22.96111451 35.97702221 -21.37487936 34.227998 -19.41796875 31.67578125 C-17.7484199 29.70267806 -15.90768587 28.10906251 -13.9375 26.4375 C-5.23386657 18.95858047 -1.85904382 11.15426292 0 0 Z " fill="#E9C84B" transform="translate(134,3)"/>
<path d="M0 0 C0 30.03 0 60.06 0 91 C-23.09821764 91.08021762 -23.09821764 91.08021762 -32.97460938 91.09765625 C-39.70307587 91.10959309 -46.43148772 91.12368642 -53.15991211 91.15087891 C-58.58694621 91.17267364 -64.01392167 91.18458262 -69.44099617 91.18975449 C-71.50734441 91.19343835 -73.57368959 91.20063192 -75.64001274 91.21146011 C-78.54319977 91.22606313 -81.44614715 91.22797426 -84.34936523 91.22705078 C-85.19597717 91.23424133 -86.04258911 91.24143188 -86.91485596 91.24884033 C-91.82550068 91.23203349 -96.26379098 90.67373605 -101.02835178 89.46995354 C-103.85506647 88.79619006 -106.66822165 88.5746054 -109.5625 88.375 C-110.59503906 88.30023438 -111.62757812 88.22546875 -112.69140625 88.1484375 C-113.83416016 88.07496094 -113.83416016 88.07496094 -115 88 C-114.01 87.01 -114.01 87.01 -113 86 C-113.3185177 83.89179203 -113.3185177 83.89179203 -114 82 C-113.01 82 -112.02 82 -111 82 C-111.33 80.68 -111.66 79.36 -112 78 C-110.58208592 78.45445964 -109.16571954 78.91374944 -107.75 79.375 C-106.56664062 79.75785156 -106.56664062 79.75785156 -105.359375 80.1484375 C-103.13372042 80.95173667 -101.09068328 81.89711662 -99 83 C-99 83.66 -99 84.32 -99 85 C-90.0292723 87.45058068 -81.0821363 87.22989644 -71.875 87.125 C-70.33073499 87.11494704 -68.78646362 87.10582529 -67.2421875 87.09765625 C-63.49465751 87.07583336 -59.74737054 87.04143206 -56 87 C-56 86.34 -56 85.68 -56 85 C-55.13217896 84.64603149 -55.13217896 84.64603149 -54.24682617 84.28491211 C-39.50167528 78.30840775 -39.50167528 78.30840775 -25.86328125 70.21484375 C-24 69 -24 69 -22 69 C-22 68.34 -22 67.68 -22 67 C-20.50390625 65.5625 -20.50390625 65.5625 -18.5625 64 C-15.84811762 61.85474956 -15.84811762 61.85474956 -14 59 C-13.34 59 -12.68 59 -12 59 C-11.32438252 57.3369416 -10.66066719 55.66905395 -10 54 C-9.46375 52.865625 -8.9275 51.73125 -8.375 50.5625 C-5.71879235 43.49269478 -6.46643551 35.18424673 -7.5 27.8125 C-8.60522162 19.38518516 -9.05089342 13.10281887 -4 6 C-7.3 5.01 -10.6 4.02 -14 3 C-14.103125 4.52625 -14.20625 6.0525 -14.3125 7.625 C-14.73465826 11.99557968 -15.69806513 15.19680326 -18 19 C-19.32435978 15.02692066 -18.18129186 12.19025432 -17.0625 8.3125 C-16.86720703 7.61060547 -16.67191406 6.90871094 -16.47070312 6.18554688 C-15.98800864 4.45491056 -15.49499154 2.72715934 -15 1 C-11 0 -11 0 0 0 Z M-116 83 C-114 84 -114 84 -114 84 Z " fill="#FDFDFB" transform="translate(148,0)"/>
<path d="M0 0 C0.33 0.66 0.66 1.32 1 2 C0.01 2.495 0.01 2.495 -1 3 C-1.65555119 5.52733235 -1.65555119 5.52733235 -2 8 C-1.401875 8.2475 -0.80375 8.495 -0.1875 8.75 C2.28647521 10.16370012 3.43370255 11.65055383 5 14 C4.34 14.66 3.68 15.32 3 16 C2.67 15.67 2.34 15.34 2 15 C1.34 16.98 0.68 18.96 0 21 C0.99 21.33 1.98 21.66 3 22 C3 23.65 3 25.3 3 27 C3.99 27 4.98 27 6 27 C6.66 27.33 7.32 27.66 8 28 C8 28.66 8 29.32 8 30 C8.67546875 30.06058594 9.3509375 30.12117188 10.046875 30.18359375 C10.93890625 30.26738281 11.8309375 30.35117188 12.75 30.4375 C13.63171875 30.51871094 14.5134375 30.59992188 15.421875 30.68359375 C19.32379071 31.16246522 22.5909719 32.00160422 26 34 C26.33 34.66 26.66 35.32 27 36 C31.455 35.505 31.455 35.505 36 35 C35.67 37.97 35.34 40.94 35 44 C36.155 44.144375 37.31 44.28875 38.5 44.4375 C42.66666667 44.95833333 46.83333333 45.47916667 51 46 C51.495 45.01 51.495 45.01 52 44 C52.76666992 44.01047363 53.53333984 44.02094727 54.32324219 44.03173828 C57.79879474 44.07332699 61.27429491 44.09933551 64.75 44.125 C65.9565625 44.14175781 67.163125 44.15851563 68.40625 44.17578125 C70.14648438 44.18544922 70.14648438 44.18544922 71.921875 44.1953125 C73.52434082 44.21102295 73.52434082 44.21102295 75.15917969 44.22705078 C78.00975926 43.99922 79.63077675 43.56687748 82 42 C82.495 41.01 82.495 41.01 83 40 C84.65 40 86.3 40 88 40 C87.67 39.01 87.34 38.02 87 37 C92.31147541 31.24590164 92.31147541 31.24590164 96 31 C97.485 31.495 97.485 31.495 99 32 C99 31.34 99 30.68 99 30 C99.59167969 29.96261719 100.18335937 29.92523438 100.79296875 29.88671875 C105.72788724 29.47614641 108.78189827 28.72935995 113 26 C114.485 26.495 114.485 26.495 116 27 C116 28.65 116 30.3 116 32 C114.515 32.495 114.515 32.495 113 33 C113 33.66 113 34.32 113 35 C104.7422617 41.31561313 89.6006359 51 79 51 C79 51.66 79 52.32 79 53 C75.59700782 54.13433073 72.97753864 54.12943135 69.390625 54.1328125 C68.07835938 54.13410156 66.76609375 54.13539062 65.4140625 54.13671875 C64.72989258 54.13462402 64.04572266 54.1325293 63.34082031 54.13037109 C61.27140852 54.125055 59.20221724 54.13030429 57.1328125 54.13671875 C55.81539063 54.13542969 54.49796875 54.13414063 53.140625 54.1328125 C51.93954102 54.13168457 50.73845703 54.13055664 49.50097656 54.12939453 C42.93806127 53.88683211 39.58598562 53.680101 35 49 C32.24640599 47.7167354 29.37279969 46.79341244 26.5 45.8125 C18.08927307 42.74206476 11.762438 38.96372485 5 33 C4.31550781 32.401875 3.63101562 31.80375 2.92578125 31.1875 C-3.7733865 24.90975495 -9.21303051 17.12385386 -11 8 C-10.93256852 4.35869989 -10.69602827 2.79914357 -8.3125 0.0625 C-5.17069634 -1.38103141 -3.27264446 -0.94543062 0 0 Z " fill="#CCA429" transform="translate(13,34)"/>
<path d="M0 0 C0.495 1.98 0.495 1.98 1 4 C1.66 4 2.32 4 3 4 C3 4.66 3 5.32 3 6 C1.35 6.33 -0.3 6.66 -2 7 C-2.226875 8.051875 -2.45375 9.10375 -2.6875 10.1875 C-4.38649533 15.9710663 -8.31027661 18.72594198 -13.375 21.625 C-19.61098775 24.9081856 -24.9371072 27.03058334 -32 28 C-32.66 28.66 -33.32 29.32 -34 30 C-36.48946978 30.33523305 -38.87476427 30.55727939 -41.375 30.6875 C-42.04789062 30.73455078 -42.72078125 30.78160156 -43.4140625 30.83007812 C-46.12650899 30.9929317 -48.53001153 31.13149497 -51.1640625 30.39453125 C-53.12299616 29.79405211 -53.12299616 29.79405211 -55.3515625 30.94921875 C-64.1498117 34.43996954 -77.99577794 30.38514881 -87 28 C-87.99 27.34 -88.98 26.68 -90 26 C-90 25.34 -90 24.68 -90 24 C-90.5775 23.855625 -91.155 23.71125 -91.75 23.5625 C-92.4925 23.376875 -93.235 23.19125 -94 23 C-94.721875 22.855625 -95.44375 22.71125 -96.1875 22.5625 C-96.785625 22.376875 -97.38375 22.19125 -98 22 C-98.33 21.34 -98.66 20.68 -99 20 C-100.75047087 19.20285858 -100.75047087 19.20285858 -102.8125 18.5625 C-108.77438393 16.41108408 -108.77438393 16.41108408 -111 14 C-111.375 11.4375 -111.375 11.4375 -111 9 C-110.34 8.34 -109.68 7.68 -109 7 C-109.66 6.34 -110.32 5.68 -111 5 C-105.01187798 4.68483568 -101.52821688 5.44064033 -96 8 C-94.948125 8.165 -93.89625 8.33 -92.8125 8.5 C-89.72840598 9.04828338 -88.24326653 9.84301296 -86 12 C-86 12.66 -86 13.32 -86 14 C-84.88625 14.103125 -83.7725 14.20625 -82.625 14.3125 C-80.830625 14.6528125 -80.830625 14.6528125 -79 15 C-78.34 15.99 -77.68 16.98 -77 18 C-61.85054422 24.13552959 -41.8559778 21.70217712 -26 20 C-26 19.34 -26 18.68 -26 18 C-25.41992188 17.74605469 -24.83984375 17.49210937 -24.2421875 17.23046875 C-22.61954807 16.51554346 -20.99988506 15.79383544 -19.3828125 15.06640625 C-17.51495963 14.23046554 -15.63464899 13.4223515 -13.75 12.625 C-10.93020344 10.95875658 -9.28376873 9.14619704 -7.30078125 6.5625 C-5.16535893 3.99742814 -2.61235291 2.06558137 0 0 Z " fill="#F6E57B" transform="translate(122,28)"/>
<path d="M0 0 C0.33 0.66 0.66 1.32 1 2 C0.01 2.495 0.01 2.495 -1 3 C-1.65555119 5.52733235 -1.65555119 5.52733235 -2 8 C-1.401875 8.2475 -0.80375 8.495 -0.1875 8.75 C2.28647521 10.16370012 3.43370255 11.65055383 5 14 C4.34 14.66 3.68 15.32 3 16 C2.67 15.67 2.34 15.34 2 15 C1.34 16.98 0.68 18.96 0 21 C0.99 21.33 1.98 21.66 3 22 C3 23.65 3 25.3 3 27 C3.99 27 4.98 27 6 27 C6.66 27.33 7.32 27.66 8 28 C8 28.66 8 29.32 8 30 C8.67546875 30.06058594 9.3509375 30.12117188 10.046875 30.18359375 C10.93890625 30.26738281 11.8309375 30.35117188 12.75 30.4375 C13.63171875 30.51871094 14.5134375 30.59992188 15.421875 30.68359375 C19.32379071 31.16246522 22.5909719 32.00160422 26 34 C26.33 34.66 26.66 35.32 27 36 C31.455 35.505 31.455 35.505 36 35 C35.67 37.64 35.34 40.28 35 43 C32.525 43.495 32.525 43.495 30 44 C30 44.66 30 45.32 30 46 C31.32 46.33 32.64 46.66 34 47 C32 48 32 48 28.9453125 47.1015625 C13.54364282 41.35038347 0.09735616 31.60459707 -8 17 C-10.29634609 11.94803861 -11.94659103 7.45045489 -10 2 C-6.88498625 -1.57649727 -4.38651949 -1.26721674 0 0 Z " fill="#CEB632" transform="translate(13,34)"/>
<path d="M0 0 C-0.33 0.99 -0.66 1.98 -1 3 C-0.01 3.33 0.98 3.66 2 4 C1.7215625 5.175625 1.7215625 5.175625 1.4375 6.375 C0.74037734 8.97089775 0.74037734 8.97089775 2 11 C1.01257813 11.06058594 0.02515625 11.12117188 -0.9921875 11.18359375 C-2.27351563 11.26738281 -3.55484375 11.35117188 -4.875 11.4375 C-6.15117188 11.51871094 -7.42734375 11.59992188 -8.7421875 11.68359375 C-11.88300152 11.79206027 -11.88300152 11.79206027 -14 13 C-15.37081256 13.12718437 -16.74716025 13.19747435 -18.12329102 13.23706055 C-18.97500381 13.26346115 -19.82671661 13.28986176 -20.70423889 13.31706238 C-22.09007423 13.35154228 -22.09007423 13.35154228 -23.50390625 13.38671875 C-24.45635727 13.41224319 -25.40880829 13.43776764 -26.39012146 13.46406555 C-28.41178999 13.51615002 -30.4335287 13.56556766 -32.45532227 13.61254883 C-35.52597945 13.68661905 -38.59583997 13.77748253 -41.66601562 13.86914062 C-43.63278709 13.91770672 -45.59958378 13.96526407 -47.56640625 14.01171875 C-48.47612686 14.04077805 -49.38584747 14.06983734 -50.32313538 14.09977722 C-55.47539785 14.19968884 -60.0599131 13.76635899 -65.05587769 12.4775238 C-67.87132482 11.7859814 -70.67559724 11.57409674 -73.5625 11.375 C-75.11130859 11.26285156 -75.11130859 11.26285156 -76.69140625 11.1484375 C-77.45324219 11.09945312 -78.21507812 11.05046875 -79 11 C-78.34 10.34 -77.68 9.68 -77 9 C-77.3185177 6.89179203 -77.3185177 6.89179203 -78 5 C-77.01 5 -76.02 5 -75 5 C-75.33 3.68 -75.66 2.36 -76 1 C-74.58208592 1.45445964 -73.16571954 1.91374944 -71.75 2.375 C-70.96109375 2.63023438 -70.1721875 2.88546875 -69.359375 3.1484375 C-67.13372042 3.95173667 -65.09068328 4.89711662 -63 6 C-63 6.66 -63 7.32 -63 8 C-54.0292723 10.45058068 -45.0821363 10.22989644 -35.875 10.125 C-34.33073499 10.11494704 -32.78646362 10.10582529 -31.2421875 10.09765625 C-27.49465751 10.07583336 -23.74737054 10.04143206 -20 10 C-20 9.34 -20 8.68 -20 8 C-17.04435292 6.66065284 -14.0850622 5.32955753 -11.125 4 C-10.28324219 3.6184375 -9.44148438 3.236875 -8.57421875 2.84375 C-7.76855469 2.4828125 -6.96289062 2.121875 -6.1328125 1.75 C-5.38918457 1.41484375 -4.64555664 1.0796875 -3.87939453 0.734375 C-2 0 -2 0 0 0 Z M-80 6 C-78 7 -78 7 -78 7 Z " fill="#EEEEE8" transform="translate(112,77)"/>
<path d="M0 0 C1.32 0 2.64 0 4 0 C4 0.66 4 1.32 4 2 C-17.44382022 13 -17.44382022 13 -22 13 C-22 13.66 -22 14.32 -22 15 C-25.40299218 16.13433073 -28.02246136 16.12943135 -31.609375 16.1328125 C-32.92164063 16.13410156 -34.23390625 16.13539062 -35.5859375 16.13671875 C-36.27010742 16.13462402 -36.95427734 16.1325293 -37.65917969 16.13037109 C-39.72859148 16.125055 -41.79778276 16.13030429 -43.8671875 16.13671875 C-45.84332031 16.13478516 -45.84332031 16.13478516 -47.859375 16.1328125 C-49.06045898 16.13168457 -50.26154297 16.13055664 -51.49902344 16.12939453 C-61.05394674 15.77624883 -61.05394674 15.77624883 -64.4375 13 C-66 11 -66 11 -66 10 C-55.44 10 -44.88 10 -34 10 C-34 9.34 -34 8.68 -34 8 C-32.95199219 7.93941406 -31.90398437 7.87882812 -30.82421875 7.81640625 C-29.44529952 7.73198262 -28.06639395 7.64733553 -26.6875 7.5625 C-25.99720703 7.52318359 -25.30691406 7.48386719 -24.59570312 7.44335938 C-21.52838465 7.25072585 -18.93031848 6.97677283 -16 6 C-14.845 6.020625 -13.69 6.04125 -12.5 6.0625 C-8.88461063 6.3128976 -8.88461063 6.3128976 -6 4 C-4.68 4 -3.36 4 -2 4 C-2 3.34 -2 2.68 -2 2 C-1.34 1.34 -0.68 0.68 0 0 Z " fill="#A79030" transform="translate(114,72)"/>
<path d="M0 0 C5.98812202 -0.31516432 9.47178312 0.44064033 15 3 C16.5778125 3.2475 16.5778125 3.2475 18.1875 3.5 C21.27159402 4.04828338 22.75673347 4.84301296 25 7 C25 7.66 25 8.32 25 9 C26.11375 9.103125 27.2275 9.20625 28.375 9.3125 C30.169375 9.6528125 30.169375 9.6528125 32 10 C32.66 10.99 33.32 11.98 34 13 C46.30685269 17.79967255 61.02449418 16.73510416 74 17 C74 17.33 74 17.66 74 18 C69.75266168 18.98142381 65.52675467 19.30920379 61.1875 19.5625 C60.49462891 19.60568359 59.80175781 19.64886719 59.08789062 19.69335938 C57.39211314 19.79861453 55.69607948 19.89972863 54 20 C54 20.99 54 21.98 54 23 C45.55790841 25.81403053 34.54350857 22.79588037 26 21 C25.67 20.01 25.34 19.02 25 18 C24.01 17.67 23.02 17.34 22 17 C23.65 15.35 25.3 13.7 27 12 C18.9354669 6.35482683 9.71946781 2.68397559 0 1 C0 0.67 0 0.34 0 0 Z " fill="#F9EEA7" transform="translate(11,33)"/>
<path d="M0 0 C1.41702513 0.14230808 2.8336096 0.28900746 4.25 0.4375 C5.43335938 0.55931641 5.43335938 0.55931641 6.640625 0.68359375 C10.44416893 1.19367166 13.67185614 2.04901911 17 4 C17.33 4.66 17.66 5.32 18 6 C22.455 5.505 22.455 5.505 27 5 C26.67 7.64 26.34 10.28 26 13 C24.35 13.33 22.7 13.66 21 14 C21 14.66 21 15.32 21 16 C22.32 16.33 23.64 16.66 25 17 C23 18 23 18 19.62890625 16.9609375 C18.27011542 16.44088998 16.9147488 15.91182878 15.5625 15.375 C14.5405957 15.00181641 14.5405957 15.00181641 13.49804688 14.62109375 C10.18881172 13.31814318 8.2022498 12.26512746 6.02734375 9.4140625 C5 7 5 7 5 5 C3.35 4.67 1.7 4.34 0 4 C0 2.68 0 1.36 0 0 Z " fill="#DCB835" transform="translate(22,64)"/>
<path d="M0 0 C13.38440111 2.59052925 13.38440111 2.59052925 19 6 C19.87109375 7.9296875 19.87109375 7.9296875 20 10 C18.5625 13.25 18.5625 13.25 17 16 C17.66 16.66 18.32 17.32 19 18 C17.66666667 17.66666667 16.33333333 17.33333333 15 17 C14.278125 16.855625 13.55625 16.71125 12.8125 16.5625 C12.214375 16.376875 11.61625 16.19125 11 16 C10.67 15.34 10.34 14.68 10 14 C8.24952913 13.20285858 8.24952913 13.20285858 6.1875 12.5625 C0.22561607 10.41108408 0.22561607 10.41108408 -2 8 C-2.561068 4.2595467 -2.14762184 3.22143276 0 0 Z " fill="#F1E370" transform="translate(13,34)"/>
<path d="M0 0 C3.3 0.66 6.6 1.32 10 2 C9.360625 3.010625 8.72125 4.02125 8.0625 5.0625 C5.31760097 10.40782968 5.42523407 15.93132799 5.2734375 21.8046875 C5 25 5 25 3 27 C2.67 26.01 2.34 25.02 2 24 C-0.64 23.67 -3.28 23.34 -6 23 C-5.6875 20.125 -5.6875 20.125 -5 17 C-4.01 16.34 -3.02 15.68 -2 15 C-1.45524022 12.40729301 -1.07599851 9.99548055 -0.8125 7.375 C-0.73064453 6.66859375 -0.64878906 5.9621875 -0.56445312 5.234375 C-0.36419275 3.4909317 -0.18050599 1.74559914 0 0 Z " fill="#BFBE3A" transform="translate(135,3)"/>
<path d="M0 0 C0.495 1.98 0.495 1.98 1 4 C1.66 4 2.32 4 3 4 C3 4.66 3 5.32 3 6 C1.35 6.33 -0.3 6.66 -2 7 C-2.226875 8.051875 -2.45375 9.10375 -2.6875 10.1875 C-4.38649533 15.9710663 -8.31027661 18.72594198 -13.375 21.625 C-19.13594121 24.6631083 -24.44635752 27.20077531 -31 28 C-31.33 27.34 -31.66 26.68 -32 26 C-30.02 26 -28.04 26 -26 26 C-26 25.34 -26 24.68 -26 24 C-25.319375 23.649375 -24.63875 23.29875 -23.9375 22.9375 C-20.24580397 20.50255155 -18.20115712 17.53012467 -15.6484375 13.9609375 C-14 12 -14 12 -11 11 C-9.78665592 9.55710434 -8.57697608 8.11049724 -7.40625 6.6328125 C-5.20023266 4.07138126 -2.64769854 2.09352908 0 0 Z " fill="#F3E47E" transform="translate(122,28)"/>
<path d="M0 0 C0.98484375 0.00902344 1.9696875 0.01804688 2.984375 0.02734375 C4.10585937 0.04474609 4.10585937 0.04474609 5.25 0.0625 C5.25 2.0425 5.25 4.0225 5.25 6.0625 C4.26 6.3925 3.27 6.7225 2.25 7.0625 C2.18941406 7.68898438 2.12882813 8.31546875 2.06640625 8.9609375 C1.98261719 9.77820312 1.89882812 10.59546875 1.8125 11.4375 C1.73128906 12.24960938 1.65007812 13.06171875 1.56640625 13.8984375 C1.25 16.0625 1.25 16.0625 0.25 18.0625 C-0.27402708 26.38528304 0.57221989 34.77179688 1.25 43.0625 C0.26 43.5575 0.26 43.5575 -0.75 44.0625 C-4.115469 13.60769078 -4.115469 13.60769078 1.25 6.0625 C-2.05 5.0725 -5.35 4.0825 -8.75 3.0625 C-8.9046875 5.351875 -8.9046875 5.351875 -9.0625 7.6875 C-9.48465826 12.05807968 -10.44806513 15.25930326 -12.75 19.0625 C-14.07435978 15.08942066 -12.93129186 12.25275432 -11.8125 8.375 C-11.51956055 7.3221582 -11.51956055 7.3221582 -11.22070312 6.24804688 C-10.73800864 4.51741056 -10.24499154 2.78965934 -9.75 1.0625 C-6.43929162 0.06140485 -3.44915231 -0.04106134 0 0 Z " fill="#F8F7E1" transform="translate(142.75,-0.0625)"/>
<path d="M0 0 C0.99 0.33 1.98 0.66 3 1 C2.25 2.9375 2.25 2.9375 1 5 C-0.32594105 5.36162029 -1.65938457 5.69728039 -3 6 C-3.33 6.99 -3.66 7.98 -4 9 C-5.06927734 9.07347656 -5.06927734 9.07347656 -6.16015625 9.1484375 C-14.25929542 9.75036689 -14.25929542 9.75036689 -22 12 C-23.13350534 14.01669827 -23.13350534 14.01669827 -24 16 C-26.625 16.75 -26.625 16.75 -29 17 C-29.33 16.01 -29.66 15.02 -30 14 C-28.35 14 -26.7 14 -25 14 C-25.33 13.01 -25.66 12.02 -26 11 C-20.68852459 5.24590164 -20.68852459 5.24590164 -17 5 C-16.01 5.33 -15.02 5.66 -14 6 C-14 5.34 -14 4.68 -14 4 C-13.40832031 3.96261719 -12.81664063 3.92523438 -12.20703125 3.88671875 C-7.27211276 3.47614641 -4.21810173 2.72935995 0 0 Z " fill="#DAAA2A" transform="translate(126,60)"/>
<path d="M0 0 C0 0.99 0 1.98 0 3 C-11.83515689 7.27069463 -24.47875152 7.32920422 -36.92041016 7.26074219 C-39.2896368 7.24981723 -41.65813694 7.26081726 -44.02734375 7.2734375 C-45.5442725 7.27211902 -47.06120079 7.26956312 -48.578125 7.265625 C-49.2811676 7.26967346 -49.98421021 7.27372192 -50.70855713 7.27789307 C-54.36427115 7.24254979 -55.87062594 7.08624938 -59 5 C-46.13 5 -33.26 5 -20 5 C-20 4.34 -20 3.68 -20 3 C-13.04983123 -0.99849216 -7.84382203 -1.34884416 0 0 Z " fill="#D6D7D5" transform="translate(112,82)"/>
<path d="M0 0 C0.99 0.33 1.98 0.66 3 1 C4.04976964 4.14930893 4.10131595 6.38814456 4.0625 9.6875 C4.05347656 10.68136719 4.04445312 11.67523438 4.03515625 12.69921875 C4.02355469 13.45847656 4.01195312 14.21773437 4 15 C3.34 14.67 2.68 14.34 2 14 C1.67 15.65 1.34 17.3 1 19 C0.34 19 -0.32 19 -1 19 C-1.33 19.99 -1.66 20.98 -2 22 C-2.99 22 -3.98 22 -5 22 C-5.1875 19.625 -5.1875 19.625 -5 17 C-4.01 16.34 -3.02 15.68 -2 15 C-1.45524022 12.40729301 -1.07599851 9.99548055 -0.8125 7.375 C-0.73064453 6.66859375 -0.64878906 5.9621875 -0.56445312 5.234375 C-0.36419275 3.4909317 -0.18050599 1.74559914 0 0 Z " fill="#B5B732" transform="translate(135,3)"/>
<path d="M0 0 C3.37462715 0.54723683 5.08235 1.0549 8 3 C10.75218977 3.24073135 13.41217466 3.37282688 16.16796875 3.4140625 C16.96278152 3.43342865 17.7575943 3.4527948 18.57649231 3.4727478 C21.11338595 3.53249442 23.65032509 3.57890883 26.1875 3.625 C27.90822284 3.66318435 29.62892665 3.70223635 31.34960938 3.7421875 C35.56625165 3.83819179 39.7829834 3.92224076 44 4 C40.37843607 6.41437596 38.69639168 6.24525424 34.390625 6.23046875 C33.07835937 6.22853516 31.76609375 6.22660156 30.4140625 6.22460938 C29.72989258 6.21840576 29.04572266 6.21220215 28.34082031 6.20581055 C26.27135732 6.18768704 24.20234618 6.18530015 22.1328125 6.18554688 C5.3548494 6.1116713 5.3548494 6.1116713 1.5625 3 C0 1 0 1 0 0 Z " fill="#A6A092" transform="translate(48,82)"/>
<path d="M0 0 C13.2 0 26.4 0 40 0 C36.75225863 3.24774137 35.92013736 3.35527743 31.55322266 3.4168396 C30.83440918 3.41076691 30.1155957 3.40469421 29.375 3.3984375 C28.2600415 3.40274277 28.2600415 3.40274277 27.12255859 3.40713501 C25.5524011 3.40917476 23.98221814 3.403651 22.41210938 3.39111328 C20.00853668 3.37505703 17.60664539 3.39096352 15.203125 3.41015625 C13.67707962 3.4081738 12.15103529 3.40433009 10.625 3.3984375 C9.90618652 3.40451019 9.18737305 3.41058289 8.44677734 3.4168396 C4.07986264 3.35527743 3.24774137 3.24774137 0 0 Z " fill="#837740" transform="translate(53,83)"/>
<path d="M0 0 C0.33 0 0.66 0 1 0 C1.53880912 10.38704246 0.83537601 18.24693599 -5 27 C-5.66 27 -6.32 27 -7 27 C-7.268125 27.61875 -7.53625 28.2375 -7.8125 28.875 C-9 31 -9 31 -12 33 C-12.70703125 31.25390625 -12.70703125 31.25390625 -13 29 C-11.63671875 26.96484375 -11.63671875 26.96484375 -9.6875 24.9375 C-7.52842545 22.65580052 -5.75305737 20.62958605 -4 18 C-3.34 18 -2.68 18 -2 18 C-1.34 12.06 -0.68 6.12 0 0 Z " fill="#D5B840" transform="translate(141,32)"/>
<path d="M0 0 C0.33 1.32 0.66 2.64 1 4 C1.66 4 2.32 4 3 4 C3 4.66 3 5.32 3 6 C1.35 6.33 -0.3 6.66 -2 7 C-2.226875 8.051875 -2.45375 9.10375 -2.6875 10.1875 C-3.79360531 14.1597906 -5.88629885 16.29599637 -9 19 C-9.66 18.67 -10.32 18.34 -11 18 C-4.06818182 2.03409091 -4.06818182 2.03409091 0 0 Z " fill="#EBDB69" transform="translate(122,28)"/>
<path d="M0 0 C0.66 0.33 1.32 0.66 2 1 C1.67 1.33 1.34 1.66 1 2 C1.495 2.4125 1.99 2.825 2.5 3.25 C4 5 4 5 4 9 C3 10 2 11 1 12 C0.27802838 14.60611077 0.27802838 14.60611077 0 17 C-1.85200448 14.22199328 -2.4857952 12.66558555 -3.1875 9.5 C-3.36667969 8.7265625 -3.54585938 7.953125 -3.73046875 7.15625 C-4 5 -4 5 -3 2 C-2.01 1.34 -1.02 0.68 0 0 Z " fill="#AA9C46" transform="translate(6,34)"/>
<path d="M0 0 C5.44567686 1.02862785 10.11817117 2.24614784 15 5 C15 5.33 15 5.66 15 6 C14.40832031 5.98839844 13.81664062 5.97679687 13.20703125 5.96484375 C8.99768215 5.91677614 5.1077667 5.93993117 1 7 C1.66 8.32 2.32 9.64 3 11 C0.5 9.8125 0.5 9.8125 -2 8 C-2.65325876 4.26709281 -2.14201526 3.21302289 0 0 Z " fill="#DACA56" transform="translate(13,34)"/>
<path d="M0 0 C-2.35735884 2.72957339 -4.58133526 3.88893396 -8 5 C-8.99 5 -9.98 5 -11 5 C-11 5.66 -11 6.32 -11 7 C-19.22407655 8.82526269 -27.09096035 9.30733436 -35.5 9.25 C-37.24796875 9.26160156 -37.24796875 9.26160156 -39.03125 9.2734375 C-40.145 9.27085938 -41.25875 9.26828125 -42.40625 9.265625 C-43.91155273 9.26224121 -43.91155273 9.26224121 -45.44726562 9.25878906 C-48 9 -48 9 -51 7 C-50.20940186 7.01571045 -49.41880371 7.0314209 -48.60424805 7.04760742 C-44.96540703 7.1105981 -41.32668131 7.14919283 -37.6875 7.1875 C-36.44419922 7.21263672 -35.20089844 7.23777344 -33.91992188 7.26367188 C-24.7157009 7.33614606 -16.15111626 6.65748793 -8.125 1.8125 C-4.98727019 -0.00738329 -3.53681838 -0.42870526 0 0 Z " fill="#FDFAE1" transform="translate(107,41)"/>
<path d="M0 0 C2.26882665 0.28846976 4.54927671 0.49202588 6.83203125 0.6328125 C8.12431641 0.71660156 9.41660156 0.80039063 10.74804688 0.88671875 C12.10285398 0.96632657 13.45767184 1.04575137 14.8125 1.125 C16.18689717 1.21147674 17.56124705 1.2987086 18.93554688 1.38671875 C22.28997399 1.5985773 25.64468901 1.80272205 29 2 C29 2.33 29 2.66 29 3 C24.37355096 3.04950925 19.74725682 3.08577116 15.12060547 3.10986328 C13.54733595 3.11990887 11.97408504 3.13354781 10.40087891 3.15087891 C8.13699748 3.17519096 5.87336334 3.18649747 3.609375 3.1953125 C2.90818542 3.20563507 2.20699585 3.21595764 1.48455811 3.22659302 C-2.18563476 3.22743257 -4.88089213 3.02112595 -8 1 C-8 0.34 -8 -0.32 -8 -1 C-4.26129014 -2.24623662 -3.55707866 -1.43094671 0 0 Z " fill="#B89C27" transform="translate(51,79)"/>
<path d="M0 0 C1.46373047 0.16628906 1.46373047 0.16628906 2.95703125 0.3359375 C3.69308594 0.43132812 4.42914063 0.52671875 5.1875 0.625 C5.1875 1.615 5.1875 2.605 5.1875 3.625 C2.48033758 4.52738747 0.94973232 4.74351302 -1.82421875 4.72265625 C-2.96020508 4.71782227 -2.96020508 4.71782227 -4.11914062 4.71289062 C-4.90482422 4.70451172 -5.69050781 4.69613281 -6.5 4.6875 C-7.29728516 4.68298828 -8.09457031 4.67847656 -8.91601562 4.67382812 C-10.88154257 4.6620585 -12.84703085 4.64412348 -14.8125 4.625 C-9.95252922 0.66502381 -6.27012318 -0.75543653 0 0 Z " fill="#CFCABE" transform="translate(106.8125,81.375)"/>
<path d="M0 0 C0.5 2.1875 0.5 2.1875 0 5 C-1.88986842 6.50289536 -3.86433328 7.6261971 -5.97265625 8.80078125 C-8.17649955 9.98480132 -8.17649955 9.98480132 -10.1875 12.25 C-12.40221362 14.38834418 -14.02074226 14.51687712 -17 15 C-17.33 15.66 -17.66 16.32 -18 17 C-18 16.34 -18 15.68 -18 15 C-18.66 14.67 -19.32 14.34 -20 14 C-18.21190303 12.82786955 -16.41940875 11.66244474 -14.625 10.5 C-13.62726563 9.8503125 -12.62953125 9.200625 -11.6015625 8.53125 C-9 7 -9 7 -7 7 C-7 6.34 -7 5.68 -7 5 C-1.4047619 0 -1.4047619 0 0 0 Z " fill="#F5EED0" transform="translate(133,62)"/>
<path d="M0 0 C2.64 0.99 5.28 1.98 8 3 C8 3.66 8 4.32 8 5 C8.99 5.33 9.98 5.66 11 6 C11 6.33 11 6.66 11 7 C8.89646505 7.0810206 6.79204048 7.13919907 4.6875 7.1875 C3.51574219 7.22230469 2.34398437 7.25710937 1.13671875 7.29296875 C-2 7 -2 7 -3.91796875 5.48828125 C-4.27503906 4.99714844 -4.63210937 4.50601563 -5 4 C-4.360625 3.71125 -3.72125 3.4225 -3.0625 3.125 C-0.84793921 2.17176549 -0.84793921 2.17176549 0 0 Z " fill="#DDDCCF" transform="translate(41,80)"/>
<path d="M0 0 C0.33 0 0.66 0 1 0 C1.17711172 10.09536785 1.17711172 10.09536785 0 15 C-0.66 15.309375 -1.32 15.61875 -2 15.9375 C-2.66 16.288125 -3.32 16.63875 -4 17 C-4.59240461 19.6490546 -4.74206616 22.29169465 -5 25 C-5.66 25.33 -6.32 25.66 -7 26 C-7.66 25.67 -8.32 25.34 -9 25 C-9 25.66 -9 26.32 -9 27 C-9.66 27 -10.32 27 -11 27 C-10.59362387 24.25696109 -9.95279728 22.94140352 -8.1875 20.75 C-3.14334174 14.40877248 -1.23558418 7.93375104 0 0 Z " fill="#D7D364" transform="translate(134,3)"/>
<path d="M0 0 C5.98812202 -0.31516432 9.47178312 0.44064033 15 3 C16.5778125 3.2475 16.5778125 3.2475 18.1875 3.5 C21.27159402 4.04828338 22.75673347 4.84301296 25 7 C25 7.66 25 8.32 25 9 C26.134375 9.12375 27.26875 9.2475 28.4375 9.375 C29.613125 9.58125 30.78875 9.7875 32 10 C32.495 10.99 32.495 10.99 33 12 C27.57605909 11.04578817 23.02774141 9.67817026 18.17578125 7.08203125 C12.43523012 4.22721498 6.30815079 2.12523771 0 1 C0 0.67 0 0.34 0 0 Z " fill="#FCF9DC" transform="translate(11,33)"/>
<path d="M0 0 C3.37503669 1.1858237 5.64722731 2.27573689 8 5 C6.68 5 5.36 5 4 5 C3.34 6.32 2.68 7.64 2 9 C2.99 9.99 3.98 10.98 5 12 C4.01 12.495 4.01 12.495 3 13 C2.01 12.67 1.02 12.34 0 12 C0 11.34 0 10.68 0 10 C-0.99 9.67 -1.98 9.34 -3 9 C-2.505 7.88625 -2.01 6.7725 -1.5 5.625 C0.1274506 2.34584251 0.1274506 2.34584251 0 0 Z " fill="#F5E989" transform="translate(32,41)"/>
<path d="M0 0 C0.66 0 1.32 0 2 0 C1 3 1 3 -0.99609375 4.24609375 C-2.62056859 5.03883747 -4.24556728 5.83050865 -5.87109375 6.62109375 C-8.29977375 8.19416538 -8.80508813 9.43492253 -10 12 C-12.625 12.75 -12.625 12.75 -15 13 C-15.33 12.01 -15.66 11.02 -16 10 C-14.35 10 -12.7 10 -11 10 C-11.33 9.01 -11.66 8.02 -12 7 C-6.68852459 1.24590164 -6.68852459 1.24590164 -3 1 C-2.01 1.33 -1.02 1.66 0 2 C0 1.34 0 0.68 0 0 Z " fill="#DDB434" transform="translate(112,64)"/>
<path d="M0 0 C1.1446875 0.2475 1.1446875 0.2475 2.3125 0.5 C5.03596236 1.09145396 5.03596236 1.09145396 8 1 C8.2475 1.969375 8.495 2.93875 8.75 3.9375 C9.36875 5.4534375 9.36875 5.4534375 10 7 C11.93618425 7.67156616 11.93618425 7.67156616 14 8 C15.75 10.0625 15.75 10.0625 17 12 C16.01 12.495 16.01 12.495 15 13 C8.91132843 9.30620592 4.38748386 5.6249793 0 0 Z " fill="#D4B63B" transform="translate(13,61)"/>
<path d="M0 0 C-0.33 0.99 -0.66 1.98 -1 3 C-0.01 3.33 0.98 3.66 2 4 C1.67 5.32 1.34 6.64 1 8 C0.34 7.34 -0.32 6.68 -1 6 C-3.65537372 5.43479997 -6.29144713 5.26211802 -9 5 C-6.45523312 2.20075644 -3.92372883 0 0 0 Z M0 8 C0 8.66 0 9.32 0 10 C-1.98 10 -3.96 10 -6 10 C-3 8 -3 8 0 8 Z " fill="#EBEBDE" transform="translate(112,77)"/>
<path d="M0 0 C2.31 0.33 4.62 0.66 7 1 C6.360625 2.134375 5.72125 3.26875 5.0625 4.4375 C2.80237891 8.90183812 2.22937207 13.04556318 2 18 C1.67 18 1.34 18 1 18 C0.67 12.06 0.34 6.12 0 0 Z " fill="#B2B550" transform="translate(138,4)"/>
<path d="M0 0 C1.65 0 3.3 0 5 0 C6 3 6 3 6 6 C7.32 6.33 8.64 6.66 10 7 C8 8 8 8 5.6171875 7.22265625 C4.71226563 6.83980469 3.80734375 6.45695312 2.875 6.0625 C1.96492188 5.68222656 1.05484375 5.30195312 0.1171875 4.91015625 C-0.93082031 4.45962891 -0.93082031 4.45962891 -2 4 C-1.34 2.68 -0.68 1.36 0 0 Z " fill="#C3AB3D" transform="translate(37,74)"/>
<path d="M0 0 C0.66 0.33 1.32 0.66 2 1 C-3.6824182 6.53671517 -9.18565165 8.07716489 -17.0625 8.125 C-18.031875 8.08375 -19.00125 8.0425 -20 8 C-20 7.67 -20 7.34 -20 7 C-14.555 6.505 -14.555 6.505 -9 6 C-9 5.34 -9 4.68 -9 4 C-7.54618103 3.30300448 -6.08677047 2.61766134 -4.625 1.9375 C-3.81289062 1.55464844 -3.00078125 1.17179687 -2.1640625 0.77734375 C-1.44992188 0.52082031 -0.73578125 0.26429687 0 0 Z " fill="#F0E898" transform="translate(105,42)"/>
<path d="M0 0 C-5.93998566 4.20145327 -11.66264111 7.10520014 -19 8 C-19.33 7.34 -19.66 6.68 -20 6 C-18.02 6 -16.04 6 -14 6 C-14 5.34 -14 4.68 -14 4 C-10.2680422 1.28584888 -4.46817355 -2.23408677 0 0 Z " fill="#F3DC67" transform="translate(110,48)"/>
<path d="M0 0 C0.99 0.33 1.98 0.66 3 1 C3 1.66 3 2.32 3 3 C2.01 3 1.02 3 0 3 C0 3.66 0 4.32 0 5 C-6.625 8 -6.625 8 -10 8 C-9.375 6.125 -9.375 6.125 -8 4 C-5 2.875 -5 2.875 -2 2 C-1.34 1.34 -0.68 0.68 0 0 Z " fill="#C1981E" transform="translate(112,71)"/>
<path d="M0 0 C0.99 0 1.98 0 3 0 C3.6875 2.8125 3.6875 2.8125 4 6 C2.6875 7.875 2.6875 7.875 1 9 C0.34 9 -0.32 9 -1 9 C-1.33 6.69 -1.66 4.38 -2 2 C-1.34 2 -0.68 2 0 2 C0 1.34 0 0.68 0 0 Z " fill="#BA9F15" transform="translate(6,37)"/>
<path d="M0 0 C0.33 0 0.66 0 1 0 C1.46321804 8.92981438 1.1428035 15.97331823 -3 24 C-3.33 24 -3.66 24 -4 24 C-4 22.02 -4 20.04 -4 18 C-3.34 18 -2.68 18 -2 18 C-1.34 12.06 -0.68 6.12 0 0 Z " fill="#D6C05A" transform="translate(141,32)"/>
<path d="M0 0 C3.96 0.33 7.92 0.66 12 1 C12 1.66 12 2.32 12 3 C12.99 3.33 13.98 3.66 15 4 C12.03668994 5.48165503 10.10295983 4.48358108 6.9375 3.6875 C5.85339844 3.42324219 4.76929688 3.15898438 3.65234375 2.88671875 C1 2 1 2 0 0 Z " fill="#F2DF73" transform="translate(32,53)"/>
<path d="M0 0 C6.51858013 -0.47407856 11.34617369 0.61017853 17 4 C17.33 4.66 17.66 5.32 18 6 C11.98922864 4.36959185 5.98336072 2.72852643 0 1 C0 0.67 0 0.34 0 0 Z " fill="#F6F0C5" transform="translate(11,33)"/>
<path d="M0 0 C0.99 0.33 1.98 0.66 3 1 C3.33 3.64 3.66 6.28 4 9 C2.68 8.67 1.36 8.34 0 8 C0 5.36 0 2.72 0 0 Z " fill="#9EA224" transform="translate(135,3)"/>
<path d="M0 0 C-0.625 1.875 -0.625 1.875 -2 4 C-5.125 5.25 -5.125 5.25 -8 6 C-7.75 3.625 -7.75 3.625 -7 1 C-4.12732844 -1.10662581 -3.46720491 -1.15573497 0 0 Z " fill="#D9B030" transform="translate(129,61)"/>
<path d="M0 0 C0.33 0 0.66 0 1 0 C1.08950818 5.10196601 1.10279554 9.98729298 0 15 C-0.99 15.66 -1.98 16.32 -3 17 C-2.25339288 11.27601207 -1.17122859 5.65146223 0 0 Z " fill="#C4C85A" transform="translate(134,3)"/>
<path d="M0 0 C3.4375 1.25 3.4375 1.25 7 3 C7.9375 5.1875 7.9375 5.1875 8 7 C6.35 7.33 4.7 7.66 3 8 C2.87625 7.195625 2.7525 6.39125 2.625 5.5625 C2.315625 4.2940625 2.315625 4.2940625 2 3 C1.34 2.67 0.68 2.34 0 2 C0 1.34 0 0.68 0 0 Z " fill="#FAF5E5" transform="translate(29,75)"/>
<path d="M0 0 C2.9375 0.375 2.9375 0.375 6 1 C6.33 1.66 6.66 2.32 7 3 C6.01 3.495 6.01 3.495 5 4 C4.01 5.485 4.01 5.485 3 7 C2.67 6.01 2.34 5.02 2 4 C1.01 3.67 0.02 3.34 -1 3 C-0.67 2.01 -0.34 1.02 0 0 Z " fill="#C6BA44" transform="translate(7,33)"/>
<path d="M0 0 C8.35010941 2.3107221 8.35010941 2.3107221 11.0625 5.1875 C11.371875 5.785625 11.68125 6.38375 12 7 C11.01 7.495 11.01 7.495 10 8 C8.51714758 7.04737966 7.03881799 6.08771595 5.5625 5.125 C4.73878906 4.59132813 3.91507813 4.05765625 3.06640625 3.5078125 C1 2 1 2 0 0 Z " fill="#CCB64D" transform="translate(18,66)"/>
<path d="M0 0 C0 0.66 0 1.32 0 2 C0.99 2.33 1.98 2.66 3 3 C3 3.33 3 3.66 3 4 C-3.75 3.125 -3.75 3.125 -6 2 C-6 1.34 -6 0.68 -6 0 C-3 -1 -3 -1 0 0 Z " fill="#C8C2BF" transform="translate(49,83)"/>
<path d="M0 0 C1.32 0.66 2.64 1.32 4 2 C1.703463 3.1482685 0.41686833 3.11561175 -2.1328125 3.09765625 C-2.93847656 3.09443359 -3.74414062 3.09121094 -4.57421875 3.08789062 C-5.41597656 3.07951172 -6.25773437 3.07113281 -7.125 3.0625 C-7.97449219 3.05798828 -8.82398437 3.05347656 -9.69921875 3.04882812 C-11.79950909 3.03702874 -13.8997633 3.01909306 -16 3 C-16 2.67 -16 2.34 -16 2 C-14.92878906 1.93941406 -13.85757813 1.87882812 -12.75390625 1.81640625 C-11.35675609 1.73201463 -9.95962143 1.64736594 -8.5625 1.5625 C-7.50192383 1.50352539 -7.50192383 1.50352539 -6.41992188 1.44335938 C-2.91309581 1.52375562 -2.91309581 1.52375562 0 0 Z " fill="#BC9E25" transform="translate(96,78)"/>
<path d="M0 0 C-0.33 0.99 -0.66 1.98 -1 3 C-1.66 3 -2.32 3 -3 3 C-3 3.66 -3 4.32 -3 5 C-4.98 5.99 -6.96 6.98 -9 8 C-9 7.01 -9 6.02 -9 5 C-8.01 5 -7.02 5 -6 5 C-6 4.01 -6 3.02 -6 2 C-2.25 0 -2.25 0 0 0 Z " fill="#C0A13A" transform="translate(129,64)"/>
<path d="M0 0 C2.64 1.65 5.28 3.3 8 5 C6.68 5.99 5.36 6.98 4 8 C3.34 7.67 2.68 7.34 2 7 C1.26924352 4.6859378 0.59861742 2.35171131 0 0 Z " fill="#FBF7D9" transform="translate(21,69)"/>
<path d="M0 0 C1.32 0.66 2.64 1.32 4 2 C2.68 3.32 1.36 4.64 0 6 C-1.98 5.34 -3.96 4.68 -6 4 C-5.34 3.67 -4.68 3.34 -4 3 C-3.01 3.33 -2.02 3.66 -1 4 C-0.67 2.68 -0.34 1.36 0 0 Z M3 0 C5 1 5 1 5 1 Z " fill="#D4B546" transform="translate(35,71)"/>
<path d="M0 0 C0 1.65 0 3.3 0 5 C-0.66 5 -1.32 5 -2 5 C-2.33 5.99 -2.66 6.98 -3 8 C-3.99 8 -4.98 8 -6 8 C-5.57004265 4.99029853 -3.66008917 0 0 0 Z " fill="#B1B22A" transform="translate(136,17)"/>
<path d="M0 0 C0 0.66 0 1.32 0 2 C-1.11375 2.309375 -2.2275 2.61875 -3.375 2.9375 C-6.7945155 3.82326483 -6.7945155 3.82326483 -9 5 C-9.33 4.01 -9.66 3.02 -10 2 C-6.5980513 -0.09350689 -3.94727588 -0.17942163 0 0 Z " fill="#F8F6E4" transform="translate(13,31)"/>
<path d="M0 0 C0.99 0 1.98 0 3 0 C1.50902342 3.7952131 -0.75700849 5.61042731 -4 8 C-4 7.01 -4 6.02 -4 5 C-3.34 5 -2.68 5 -2 5 C-1.7834375 4.0409375 -1.7834375 4.0409375 -1.5625 3.0625 C-1 1 -1 1 0 0 Z " fill="#FBF9D8" transform="translate(125,21)"/>
<path d="M0 0 C0.66 0.33 1.32 0.66 2 1 C2.625 3.5625 2.625 3.5625 3 6 C0.36 6 -2.28 6 -5 6 C-3.625 4 -3.625 4 -2 2 C-1.34 2 -0.68 2 0 2 C0 1.34 0 0.68 0 0 Z " fill="#D3A426" transform="translate(120,63)"/>
<path d="M0 0 C0.66 0 1.32 0 2 0 C1.38441495 4.0013028 -0.63737859 6.77824353 -3 10 C-3.99 10.495 -3.99 10.495 -5 11 C-4.731875 10.484375 -4.46375 9.96875 -4.1875 9.4375 C-2.67650593 6.33598585 -1.34427274 3.17737194 0 0 Z " fill="#EAD357" transform="translate(120,35)"/>
<path d="M0 0 C0 0.66 0 1.32 0 2 C-0.99 2 -1.98 2 -3 2 C-3 2.99 -3 3.98 -3 5 C-4.98 5 -6.96 5 -9 5 C-6.45523312 2.20075644 -3.92372883 0 0 0 Z " fill="#ECE3BE" transform="translate(112,77)"/>
<path d="M0 0 C0.6875 1.625 0.6875 1.625 1 4 C-0.4375 7.25 -0.4375 7.25 -2 10 C-3.26066301 6.21801096 -2.42292658 4.63636792 -1 1 C-0.67 0.67 -0.34 0.34 0 0 Z " fill="#F7F9C9" transform="translate(132,9)"/>
<path d="M0 0 C-1.65 0.33 -3.3 0.66 -5 1 C-4.34 2.32 -3.68 3.64 -3 5 C-5 3.6875 -5 3.6875 -7 2 C-7 1.01 -7 0.02 -7 -1 C-3.51418144 -2.2020064 -3.32007656 -2.21338437 0 0 Z " fill="#E9D95B" transform="translate(19,40)"/>
<path d="M0 0 C0 0.33 0 0.66 0 1 C-2.64 1 -5.28 1 -8 1 C-8 0.34 -8 -0.32 -8 -1 C-4.37673261 -2.2077558 -3.35853631 -1.54311128 0 0 Z " fill="#C3A328" transform="translate(51,79)"/>
<path d="M0 0 C1.32 0 2.64 0 4 0 C3.67 1.32 3.34 2.64 3 4 C1.35 3.67 -0.3 3.34 -2 3 C-1.34 2.01 -0.68 1.02 0 0 Z " fill="#CFAC2E" transform="translate(31,71)"/>
<path d="M0 0 C1.98 1.65 3.96 3.3 6 5 C5.01 6.485 5.01 6.485 4 8 C3.34 7.67 2.68 7.34 2 7 C1.26924352 4.6859378 0.59861742 2.35171131 0 0 Z " fill="#DAC235" transform="translate(12,42)"/>
<path d="M0 0 C3.465 1.485 3.465 1.485 7 3 C7 3.33 7 3.66 7 4 C4.125 4.125 4.125 4.125 1 4 C0.34 3.34 -0.32 2.68 -1 2 C-0.67 1.34 -0.34 0.68 0 0 Z " fill="#DED263" transform="translate(21,36)"/>
</svg>
