<svg width="321" height="387" viewBox="0 0 321 387" fill="none" xmlns="http://www.w3.org/2000/svg">
<path d="M151.952 303.319V303.344L150.795 344.461C148.089 345.396 144.643 345.79 140.953 345.839C141.961 324.11 139.451 301.742 139.451 301.742C143.608 302.36 147.768 302.901 151.952 303.319Z" fill="#DB5223"/>
<path d="M236.423 355.704C254.804 355.607 262.112 364.98 261.056 375.955C260.244 384.396 255.445 386.167 244.322 386.264C260.662 374.257 237.383 356.443 236.423 355.704Z" fill="#703928"/>
<path d="M150.794 344.484L149.907 376.595C149.907 376.916 149.686 384.076 127.809 385.478C136.889 381.418 140.137 363.849 140.949 345.862C144.642 345.811 148.087 345.417 150.794 344.484Z" fill="#703928"/>
<path d="M236.424 355.712C237.383 356.451 260.662 374.265 244.322 386.273H244.298C236.448 386.346 225.449 385.583 210.441 385.707C178.697 386.003 178.993 376.579 178.993 376.579L178.109 344.468C189.895 348.504 215.07 342.5 215.07 342.5H215.094L216.005 358.791C223.928 356.699 230.695 355.739 236.405 355.715C236.399 355.712 236.399 355.712 236.424 355.712Z" fill="#834A34"/>
<path d="M113.859 342.531C114.598 342.68 129.042 346.049 140.95 345.853C140.138 363.839 136.89 381.408 127.81 385.468C125.152 385.665 122.003 385.738 118.461 385.714C82.2147 385.393 69.2476 390.364 67.8457 375.971C66.4681 361.575 79.4595 349.961 112.902 358.795L113.859 342.531Z" fill="#834A34"/>
<path d="M220.823 79.0669C201.334 81.1831 188.613 58.4219 188.613 58.4219C192.327 59.4544 195.848 60.7349 199.145 62.2123C208.497 66.3963 216.051 72.2275 220.823 79.0669Z" fill="#834A34"/>
<path d="M188.615 58.4204L184.627 77.3913L175.596 55.8594C180.125 56.4039 184.503 57.2639 188.615 58.4204Z" fill="#834A34"/>
<path d="M175.597 55.869L169.494 75.0609C169.494 75.0609 164.892 57.6402 164.45 55.2031C168.264 55.2058 171.979 55.4269 175.597 55.869Z" fill="#834A34"/>
<path d="M150.819 56.2114C155.1 55.5725 159.554 55.2274 164.107 55.2031C162.336 57.1711 154.658 77.471 154.658 77.471L150.819 56.2114Z" fill="#834A34"/>
<path d="M132.633 61.0096C138.195 58.7936 144.322 57.1464 150.817 56.2109C138.195 74.7882 110.98 76.6591 109.848 76.7319C115.188 70.2349 123.087 64.7973 132.633 61.0096Z" fill="#834A34"/>
<path d="M164.449 33.3594C171.979 33.3594 178.082 36.7562 178.082 40.9375C178.082 45.1457 171.979 48.5398 164.449 48.5398C156.92 48.5398 150.816 45.143 150.816 40.9375C150.819 36.7562 156.92 33.3594 164.449 33.3594Z" fill="#7D403F"/>
<path d="M107.092 36.817C103.278 40.3351 99.9077 44.1983 97.1013 48.358C69.6169 26.9501 82.8293 9.97147 82.8293 9.97147C97.6432 9.38108 106.108 33.7922 107.092 36.817Z" fill="#FED07E"/>
<path d="M246.463 9.97179C246.463 9.97179 259.776 27.0744 231.922 48.5551C229.167 44.4466 225.894 40.6077 222.128 37.1138C222.128 37.1138 230.692 9.33287 246.463 9.97179Z" fill="#FED07E"/>
<path d="M164.449 48.5515C171.978 48.5515 178.082 45.1547 178.082 40.9491C178.082 40.9491 194.518 40.1376 199.145 62.2088C195.848 60.7314 192.329 59.4536 188.612 58.4184C184.503 57.2618 180.123 56.4019 175.593 55.86C171.976 55.4179 168.261 55.1968 164.446 55.1968C164.422 55.0728 164.398 55.0243 164.322 55.0243L164.449 48.5515Z" fill="#FED07E"/>
<path d="M164.107 55.193C159.553 55.2173 155.1 55.5623 150.819 56.2012C144.322 57.1367 138.197 58.7839 132.635 60.9999C137.385 46.4071 150.819 40.9453 150.819 40.9453C150.819 45.1536 156.922 48.5477 164.452 48.5477L164.328 55.0205C164.279 55.0205 164.204 55.069 164.107 55.193Z" fill="#FED07E"/>
<path d="M193.781 137.641C267.257 299.38 181.601 282.894 126.333 268.967C71.0671 255.041 139.275 138.945 139.275 138.945C147.15 141.186 155.639 142.415 164.449 142.415C174.834 142.412 184.752 140.717 193.781 137.641Z" fill="#FED07E"/>
<path d="M236.423 56.6073C239.648 63.5708 241.419 71.1489 241.419 79.0747C241.419 92.6835 236.202 105.281 227.319 115.615L226.605 115.024C243.29 77.7214 201.434 25.3325 199.242 22.6016C205.173 25.0386 210.659 28.1389 215.582 31.7541C217.895 33.4282 220.084 35.2236 222.127 37.1188C225.891 40.6127 229.163 44.4516 231.921 48.5601C233.644 51.1428 235.146 53.8252 236.423 56.6073Z" fill="#DB5223"/>
<path d="M298.632 232.727L295.777 233.932L284.753 238.583C296.812 220.52 265.904 165.773 265.092 164.344C279.043 177.659 292.577 198.894 298.632 232.727Z" fill="#C43D1E"/>
<path d="M265.092 164.34C265.903 165.767 296.808 220.517 284.753 238.579V238.604L276.829 241.949L274.492 242.933C274.492 242.933 268.513 191.259 244.571 183.187C237.877 166.209 229.832 152.085 223.556 142.391C223.556 142.391 244.743 144.925 265.067 164.316C265.067 164.316 265.067 164.316 265.092 164.34Z" fill="#CC441F"/>
<path d="M68.3595 164.283L68.3837 164.259C73.4762 159.412 78.6199 155.622 83.4671 152.67C92.5711 147.108 100.643 144.501 105.393 143.32C100.521 153.605 94.1724 167.804 88.3143 183.405C87.1578 183.799 86.0498 184.341 84.9687 184.955C80.073 187.759 76.0373 192.485 72.7403 198.047C62.0107 216.058 58.8861 242.954 58.8861 242.954L56.5488 241.97L37.6022 233.947L34.7473 232.742C40.8022 198.855 54.3841 177.596 68.3595 164.283Z" fill="#DB5223"/>
<path d="M244.57 183.209C252.396 203.091 258.349 226.936 257.292 252.256C256.111 280.897 238.173 295.417 213.099 301.445C267.356 248.196 204.854 132.988 204.854 132.988C207.831 131.486 210.661 129.815 213.344 127.992C213.344 127.992 217.649 133.233 223.556 142.412C229.829 152.107 237.876 166.23 244.57 183.209Z" fill="#DB5223"/>
<path d="M84.97 184.938C84.8972 190.227 84.6734 193.451 84.6734 193.451C83.2958 197.462 81.9667 201.547 80.7105 205.631C77.1924 203.245 74.634 200.708 72.7388 198.029C76.0385 192.467 80.0742 187.741 84.97 184.938Z" fill="#ED6028"/>
<path d="M46.4617 94.3163C71.3392 94.5859 80.3703 125.443 83.4706 152.658C78.6234 155.61 73.4797 159.4 68.3872 164.247L68.3629 164.272C68.8293 152.337 68.1904 138.731 59.1349 123.424C35.538 83.6353 28.5745 118.946 28.5745 118.946C28.5745 118.946 23.482 141.241 10.2426 137.623C-11.5616 131.695 1.87462 93.8742 46.4617 94.3163Z" fill="#ED6028"/>
<path d="M231.921 48.5514C259.775 27.0707 246.463 9.96804 246.463 9.96804C230.69 9.32911 222.127 37.1101 222.127 37.1101C220.084 35.2149 217.895 33.4194 215.582 31.7453L215.606 31.721C215.606 31.721 224.785 -1.49751 250.499 0.052612C250.499 0.052612 272.866 14.6939 236.448 56.5986H236.424C235.146 53.8164 233.644 51.134 231.921 48.5514Z" fill="#ED6028"/>
<path d="M82.8298 9.97054C82.8298 9.97054 69.6146 26.9491 97.1017 48.3571C95.4033 50.8912 93.8775 53.5493 92.5996 56.3045C56.5504 14.6209 78.7941 0.0524193 78.7941 0.0524193C103.351 -1.42492 112.824 28.7931 113.638 31.5241C111.325 33.147 109.136 34.9451 107.093 36.8134C106.109 33.7913 97.6436 9.38014 82.8298 9.97054Z" fill="#ED6028"/>
<path d="M102.293 96.4192C102.293 119.18 130.122 137.636 164.449 137.636C198.775 137.636 226.605 119.18 226.605 96.4192C226.605 90.2187 224.537 84.3363 220.846 79.0712H220.822C216.048 72.2318 208.494 66.3979 199.145 62.2166C194.518 40.1455 178.082 40.957 178.082 40.957C178.082 36.773 171.978 33.3789 164.449 33.3789C156.919 33.3789 150.816 36.7757 150.816 40.957C150.816 40.957 137.379 46.4188 132.632 61.0116C123.083 64.802 115.187 70.2395 109.846 76.7339C109.822 76.7339 109.822 76.7339 109.822 76.7339C105.023 82.5893 102.293 89.2832 102.293 96.4192ZM113.71 126.661C97.6179 115.096 87.4788 98.0448 87.4788 79.0712C87.4788 71.0483 89.2985 63.3732 92.5982 56.31C93.8788 53.5548 95.4019 50.8966 97.1003 48.3625C99.9067 44.2055 103.277 40.3396 107.091 36.8215C109.135 34.9506 111.324 33.1551 113.637 31.5322C127.194 21.6896 144.984 15.7344 164.449 15.7344C176.974 15.7344 188.784 18.1957 199.217 22.5738C199.217 22.5981 199.217 22.5981 199.242 22.5981C201.431 25.329 243.287 77.7179 226.605 115.021L227.319 115.611C223.359 120.237 218.633 124.397 213.344 127.988C210.661 129.808 207.831 131.482 204.854 132.983C201.36 134.779 197.646 136.329 193.782 137.634C184.751 140.71 174.836 142.408 164.451 142.408C155.641 142.408 147.152 141.179 139.277 138.938C129.78 136.232 121.118 132.051 113.71 126.661Z" fill="#ED6028"/>
<path d="M212.778 301.751L215.091 342.499H215.067C215.067 342.499 189.893 348.502 178.106 344.467L176.999 304.899C189.869 305.072 202.17 304.064 213.096 301.43C212.999 301.529 212.875 301.653 212.778 301.751Z" fill="#ED6028"/>
<path d="M139.45 301.759C139.45 301.759 141.96 324.126 140.952 345.855C129.041 346.052 114.597 342.679 113.861 342.534L116.519 297.75C123.997 299.273 131.672 300.651 139.45 301.759Z" fill="#ED6028"/>
<path d="M105.393 143.314C110.265 133.054 113.686 126.68 113.686 126.68L113.71 126.656C121.116 132.045 129.777 136.229 139.275 138.936C139.275 138.936 71.0667 255.031 126.332 268.958C181.598 282.885 267.253 299.373 193.78 137.631C197.643 136.326 201.358 134.776 204.852 132.981C204.852 132.981 267.353 248.189 213.096 301.438C202.17 304.072 189.868 305.08 176.998 304.907C168.806 304.835 160.389 304.268 151.948 303.333C147.764 302.915 143.607 302.373 139.448 301.759C131.673 300.651 123.995 299.273 116.514 297.747C109.475 296.321 102.635 294.744 96.1384 293.121C83.368 289.921 76.4773 281.211 73.6224 269.352C69.4896 252.3 73.6952 228.725 80.7099 205.645C81.9634 201.561 83.2925 197.477 84.6728 193.465C85.8536 190.069 87.0586 186.699 88.3149 183.402C94.173 167.798 100.522 153.599 105.393 143.314Z" fill="#ED6028"/>
<path d="M52.393 289.403C42.5989 289.821 49.7349 273.063 47.8909 266.987L54.5847 266.617C56.674 273.729 60.2164 289.033 52.393 289.403Z" fill="#FFD4AB"/>
<path d="M26.7003 260.023L33.8363 261.795C33.7392 262.016 33.6395 262.261 33.6152 262.509C33.1488 266.175 29.9245 287.705 21.7291 284.631C14.5203 281.925 23.1094 266.051 26.7003 260.023Z" fill="#FFD4AB"/>
<path d="M54.4084 261.147C53.6697 262.058 53.5214 263.288 53.8908 264.396C54.0876 264.986 54.3086 265.725 54.5809 266.609L47.887 266.978C47.8143 266.733 47.7145 266.512 47.6175 266.288C46.6092 264.272 45.5983 264.272 44.9108 264.69C44.4687 264.959 44.1721 265.38 44.0481 265.87L37.0604 265.107C37.1575 264.148 37.109 263.361 36.8394 262.794C35.8069 260.63 34.8956 260.775 34.3052 261.22C34.1084 261.368 33.9602 261.565 33.8389 261.786L26.7029 260.015C27.4415 258.734 27.9834 257.899 28.1047 257.726C27.4658 258.365 17.5477 268.183 13.6117 262.204C9.55175 256.052 25.4466 249.558 29.5066 247.587C33.5666 245.619 37.6023 233.93 37.6023 233.93L56.5489 241.953C56.5489 241.953 55.8102 251.474 59.5494 255.731L55.1955 260.702C54.9017 260.705 54.6294 260.851 54.4084 261.147Z" fill="#FFD4AB"/>
<path d="M43.9999 266.446C44.1724 270.63 44.4663 289.528 36.8396 287.779C29.3343 286.032 36.4218 271.66 37.0607 265.117L44.0484 265.88C44.0241 266.053 43.9999 266.249 43.9999 266.446Z" fill="#FFD4AB"/>
<path d="M269.891 259.727L276.706 261.67C274.393 264.525 276.46 282.412 268.685 281.035C262.188 279.857 265.558 266.199 269.891 259.727Z" fill="#FFD4AB"/>
<path d="M280.987 289.403C273.163 289.033 276.706 273.729 278.798 266.617L285.492 266.987C283.645 273.066 290.781 289.821 280.987 289.403Z" fill="#FFD4AB"/>
<path d="M64.6936 281.045C56.9187 282.423 58.9838 264.533 56.6707 261.681C56.1774 261.066 55.6624 260.721 55.1934 260.721L59.5472 255.75C59.9408 256.192 60.3586 256.561 60.852 256.882C63.4589 258.556 66.365 264.215 67.6429 269.653C68.9261 275.114 68.608 280.331 64.6936 281.045Z" fill="#FFD4AB"/>
<path d="M296.342 265.117C296.956 271.639 304.044 286.032 296.563 287.779C288.909 289.526 289.206 270.628 289.378 266.446C289.378 266.249 289.354 266.053 289.33 265.88L296.342 265.117Z" fill="#FFD4AB"/>
<path d="M305.273 257.747C305.988 258.831 320.357 281.344 311.646 284.641C303.454 287.717 300.229 266.185 299.76 262.519C299.687 262.025 299.466 261.559 299.073 261.238C298.482 260.796 297.571 260.648 296.563 262.812C296.293 263.354 296.242 264.166 296.342 265.126L289.33 265.888C289.206 265.398 288.912 264.977 288.47 264.708C287.78 264.29 286.772 264.29 285.763 266.306C285.666 266.527 285.566 266.748 285.494 266.996L278.8 266.627C279.069 265.74 279.29 265.004 279.49 264.414C279.859 263.306 279.711 262.076 278.972 261.165C278.382 260.402 277.495 260.699 276.708 261.683L269.893 259.739C270.753 258.434 271.64 257.45 272.527 256.884C277.743 253.539 276.832 241.973 276.832 241.973L284.755 238.628V238.604L295.778 233.953C295.778 233.953 299.814 245.642 303.874 247.61C307.934 249.578 323.829 256.075 319.769 262.227C315.83 268.204 305.912 258.386 305.273 257.747Z" fill="#FFD4AB"/>
<path d="M220.85 79.0697C224.54 84.3347 226.608 90.2171 226.608 96.4176C226.608 119.179 198.778 137.635 164.452 137.635C130.125 137.635 102.296 119.179 102.296 96.4176C102.296 89.2817 105.027 82.5878 109.825 76.7324C109.825 76.7324 109.825 76.7324 109.85 76.7324C110.982 76.6596 138.197 74.7886 150.819 56.2114L154.658 77.471C154.658 77.471 162.336 57.1711 164.107 55.2031C164.231 55.2031 164.328 55.2031 164.452 55.2031C164.894 57.6402 169.496 75.0609 169.496 75.0609L175.599 55.869L184.631 77.4009L188.618 58.4301C188.618 58.4301 201.34 81.1914 220.828 79.0751H220.85V79.0697Z" fill="#FFD4AB"/>
<path d="M145.699 103.506C151.582 103.506 156.351 98.7371 156.351 92.8545C156.351 86.9719 151.582 82.2031 145.699 82.2031C139.817 82.2031 135.048 86.9719 135.048 92.8545C135.048 98.7371 139.817 103.506 145.699 103.506Z" fill="white"/>
<path d="M145.7 99.6619C148.642 99.6619 151.027 97.2769 151.027 94.3349C151.027 91.3928 148.642 89.0078 145.7 89.0078C142.758 89.0078 140.373 91.3928 140.373 94.3349C140.373 97.2769 142.758 99.6619 145.7 99.6619Z" fill="black"/>
<path d="M182.104 103.506C187.987 103.506 192.756 98.7371 192.756 92.8545C192.756 86.9719 187.987 82.2031 182.104 82.2031C176.222 82.2031 171.453 86.9719 171.453 92.8545C171.453 98.7371 176.222 103.506 182.104 103.506Z" fill="white"/>
<path d="M182.104 99.6619C185.046 99.6619 187.431 97.2769 187.431 94.3349C187.431 91.3928 185.046 89.0078 182.104 89.0078C179.162 89.0078 176.777 91.3928 176.777 94.3349C176.777 97.2769 179.162 99.6619 182.104 99.6619Z" fill="black"/>
<path d="M164.449 115.121C167.421 115.121 169.83 112.712 169.83 109.74C169.83 106.769 167.421 104.359 164.449 104.359C161.478 104.359 159.068 106.769 159.068 109.74C159.068 112.712 161.478 115.121 164.449 115.121Z" fill="#FFB297"/>
<path d="M165.209 128.491C153.067 128.491 144.354 119.765 144.227 119.635C143.753 119.15 143.764 118.371 144.249 117.896C144.737 117.425 145.516 117.43 145.988 117.915C146.686 118.624 163.247 135.118 182.312 119.169C182.832 118.732 183.606 118.8 184.048 119.323C184.482 119.843 184.412 120.619 183.894 121.056C177.268 126.596 170.868 128.491 165.209 128.491Z" fill="#834A34"/>
<path d="M151.905 18.1646C152.509 21.7285 148.842 25.3249 143.712 26.1956C138.582 27.0664 133.934 24.8827 133.328 21.3161C132.724 17.7521 136.39 14.1558 141.521 13.2851C146.651 12.4143 151.301 14.598 151.905 18.1646Z" fill="#7D403F"/>
<path d="M141.254 16.5026C141.431 17.5486 140.356 18.6027 138.851 18.8561C137.347 19.1122 135.986 18.4706 135.808 17.4246C135.63 16.3786 136.706 15.3245 138.21 15.0711C139.712 14.8177 141.076 15.4566 141.254 16.5026Z" fill="white"/>
<path d="M195.363 20.9547C194.576 24.4836 189.823 26.4273 184.744 25.2977C179.665 24.1655 176.188 20.3886 176.972 16.8597C177.759 13.3308 182.512 11.387 187.591 12.5166C192.667 13.6462 196.148 17.4258 195.363 20.9547Z" fill="#7D403F"/>
<path d="M186.149 15.2603C186.327 16.3063 185.251 17.3603 183.747 17.6138C182.243 17.8699 180.881 17.2282 180.703 16.1822C180.525 15.1362 181.601 14.0821 183.105 13.8287C184.607 13.5753 185.971 14.217 186.149 15.2603Z" fill="white"/>
</svg>
