<svg width="100" height="100" viewBox="0 0 100 100" fill="none" xmlns="http://www.w3.org/2000/svg">
<path d="M8.33301 49.9987C8.33301 55.4704 9.41075 60.8886 11.5047 65.9438C13.5986 70.9991 16.6678 75.5924 20.5369 79.4615C24.406 83.3306 28.9993 86.3997 34.0545 88.4937C39.1098 90.5876 44.5279 91.6654 49.9997 91.6654C55.4714 91.6654 60.8896 90.5876 65.9448 88.4937C71 86.3997 75.5933 83.3306 79.4624 79.4615C83.3316 75.5924 86.4007 70.9991 88.4946 65.9438C90.5886 60.8886 91.6663 55.4704 91.6663 49.9987C91.6663 44.527 90.5886 39.1088 88.4946 34.0536C86.4007 28.9983 83.3316 24.405 79.4624 20.5359C75.5933 16.6668 71 13.5977 65.9448 11.5037C60.8896 9.40977 55.4714 8.33203 49.9997 8.33203C44.5279 8.33203 39.1098 9.40977 34.0545 11.5037C28.9993 13.5977 24.406 16.6668 20.5369 20.5359C16.6678 24.405 13.5986 28.9983 11.5047 34.0536C9.41075 39.1088 8.33301 44.527 8.33301 49.9987Z" fill="#FF4BC2" stroke="#EEEEEE" stroke-width="4" stroke-linecap="round" stroke-linejoin="round"/>
<g clip-path="url(#clip0_3723_14040)">
<path d="M50.3924 35.8352C52.0602 35.8311 53.7032 36.1102 55.2554 36.6486C55.0641 36.6581 54.8737 36.6848 54.6864 36.7289C54.2801 36.8245 53.8968 36.9994 53.5583 37.2437C53.2199 37.4879 52.9331 37.7967 52.7144 38.1522C52.4962 38.5068 52.3502 38.9009 52.2845 39.312C52.2172 39.7231 52.2317 40.1433 52.3271 40.5488C52.4226 40.955 52.5976 41.3384 52.8418 41.6769C53.0861 42.0153 53.3949 42.3021 53.7504 42.5208C54.1048 42.7389 54.4988 42.8849 54.9098 42.9506C54.911 42.9508 54.9121 42.951 54.9133 42.9511L64.0938 44.4668L64.1747 44.4802H64.2567L64.625 44.4802L64.6262 44.4802C64.9934 44.4797 65.3577 44.4154 65.7028 44.2902L65.7097 44.2877L65.7165 44.2851C65.8443 44.2366 65.9657 44.173 66.078 44.096C66.2691 44.0114 66.4499 43.9048 66.6166 43.7781L66.7108 43.7066L66.7856 43.6151L66.9806 43.3767L67.1005 43.2302C67.1571 43.177 67.2424 43.0902 67.3204 42.9732C67.3674 42.9027 67.407 42.8284 67.4388 42.7507C67.4705 42.6733 67.4916 42.5996 67.5056 42.5323C67.5837 42.3662 67.65 42.1949 67.704 42.0195L67.7207 41.9652L67.7312 41.9095L69.3558 33.2452C69.3558 33.245 69.3558 33.2449 69.3558 33.2448C69.4343 32.8314 69.4307 32.4065 69.345 31.9945C69.2594 31.5824 69.0933 31.1911 68.8565 30.8432C68.6196 30.4952 68.3166 30.1973 67.9646 29.9664C67.6126 29.7356 67.2185 29.5763 66.805 29.4977C66.3915 29.4192 65.9665 29.4228 65.5543 29.5085C65.1422 29.5941 64.751 29.7601 64.403 29.997C63.7002 30.4754 63.2163 31.2133 63.0576 32.0485L63.0569 32.0521L62.7766 33.5574C59.1971 30.9329 54.8624 29.5036 50.3945 29.5018C44.9094 29.4544 39.6293 31.5843 35.7123 35.4245C31.7943 39.2657 29.5601 44.5043 29.5001 49.9909L29.4999 50.0018L29.5001 50.0128C29.5601 55.4993 31.7943 60.7379 35.7123 64.5792C39.6275 68.4175 44.9045 70.5472 50.3868 70.5019C54.8285 70.5675 59.1743 69.2067 62.7854 66.6192C66.3998 64.0293 69.0871 60.3473 70.4517 56.1154L70.4554 56.104L70.4588 56.0926C70.5789 55.6871 70.6166 55.2618 70.5697 54.8415C70.5228 54.4213 70.3921 54.0147 70.1855 53.6458C69.9789 53.2768 69.7005 52.953 69.3667 52.6934C69.0383 52.4379 68.6628 52.2498 68.2617 52.1395C67.4692 51.898 66.6132 51.9767 65.8777 52.3592C65.1374 52.7441 64.579 53.4057 64.3238 54.2C63.3661 57.1264 61.4999 59.671 58.9965 61.4639C56.4925 63.2572 53.4815 64.2047 50.4017 64.1686L50.3902 64.1684L50.3786 64.1686C46.5708 64.2118 42.9012 62.7433 40.1745 60.085C37.4512 57.4299 35.8905 53.8044 35.8334 50.0018C35.8905 46.1992 37.4512 42.5737 40.1745 39.9187C42.9012 37.2604 46.5708 35.7918 50.3786 35.8351L50.3786 35.8352L50.3924 35.8352ZM67.5328 42.3061C67.5329 42.3046 67.5329 42.3052 67.5328 42.3073L67.5328 42.3061Z" fill="white" stroke="white" stroke-width="2"/>
</g>
<defs>
<clipPath id="clip0_3723_14040">
<rect width="52" height="52" fill="white" transform="translate(24 24)"/>
</clipPath>
</defs>
</svg>
