<svg width="241" height="191" viewBox="0 0 241 191" fill="none" xmlns="http://www.w3.org/2000/svg">
<g filter="url(#filter0_d_2582_72203)">
<path d="M219.417 80.973C225.857 110.736 174.344 145.364 120.416 144.559C66.1835 144.559 21.4146 122.004 21.4146 81.7779C21.4146 51.1055 67.7933 21.4296 122.026 21.4296C175.953 19.8016 219.417 50.3006 219.417 80.973Z" fill="white"/>
<path d="M90.6351 139.736L61.6591 133.297L60.0493 150.2L45.5613 167.907L57.6346 168.712L72.1226 161.468L90.6351 139.736Z" fill="white"/>
<path d="M89.5742 145.04C87.2287 149.837 83.7564 153.437 80.1489 156.927C79.0687 157.972 77.9612 158.986 76.8875 160.035C73.6341 163.215 69.9059 165.734 65.8557 167.754C61.3934 169.981 56.6606 171.284 51.6478 171.447C50.7189 171.478 49.7885 171.573 48.8612 171.55C47.9356 171.528 47.0052 171.449 46.0924 171.294C45.0139 171.111 44.0689 170.584 43.2705 169.836C42.0342 168.677 41.8667 167.381 42.8358 165.996C43.2817 165.357 43.8452 164.792 44.4021 164.24C45.8767 162.782 47.3835 161.357 48.8628 159.903C52.7971 156.04 55.7269 151.505 57.8535 146.433C59.0463 143.587 60.2553 138.994 60.046 135.629C59.4391 135.319 58.7565 134.953 58.0611 134.614C51.2888 131.301 44.9285 127.344 39.1688 122.458C34.6742 118.646 30.6627 114.39 27.3288 109.517C23.6956 104.205 21.0764 98.4484 19.816 92.1139C18.0871 83.4275 19.1447 75.0358 22.617 66.9305C25.7947 59.5111 30.6128 53.2571 36.4482 47.7548C43.0065 41.5701 50.4678 36.6989 58.5199 32.7002C68.1158 27.9369 78.1995 24.5933 88.6711 22.3976C100.619 19.8944 112.708 18.7997 124.904 19.0299C142.663 19.3648 159.846 22.6197 176.303 29.4404C178.073 30.1744 179.942 30.6413 181.692 31.4623C189.24 35.0022 196.32 39.2729 202.66 44.7172C207.352 48.7481 211.483 53.278 214.849 58.484C218.065 63.4582 220.361 68.8124 221.502 74.643C223.175 83.1941 222.086 91.433 218.695 99.4062C216.692 104.112 213.971 108.382 210.741 112.334C205.763 118.424 199.87 123.485 193.318 127.799C185.144 133.183 176.312 137.196 167.042 140.264C157.921 143.282 148.576 145.304 139.039 146.481C131.359 147.429 123.656 147.833 115.921 147.68C107.757 147.519 99.6514 146.75 91.6138 145.29C90.9924 145.179 90.3581 145.135 89.5742 145.04ZM48.5489 166.859C50.3921 166.719 52.2611 166.729 54.0737 166.41C61.2324 165.151 67.4526 161.94 72.8003 157.041C74.7497 155.254 76.6525 153.413 78.5214 151.542C80.5433 149.519 82.5024 147.426 84.0414 144.994C85.1682 143.212 86.8536 142.389 88.8498 142.154C90.627 141.945 92.4074 141.951 94.191 142.271C99.8269 143.281 105.516 143.902 111.231 144.169C119.595 144.561 127.951 144.419 136.292 143.5C144.767 142.566 153.112 140.996 161.298 138.62C171.716 135.596 181.631 131.412 190.815 125.586C196.578 121.932 201.89 117.727 206.497 112.669C210.525 108.247 213.841 103.353 216.146 97.8141C219.367 90.0743 220.269 82.0947 218.447 73.8735C217.048 67.5664 214.273 61.8855 210.462 56.6923C207.14 52.164 203.189 48.2491 198.815 44.7462C192.809 39.9362 186.206 36.1033 179.244 32.8724C177.375 32.0048 175.657 30.8361 173.658 30.2163C170.451 29.2231 167.304 28.035 164.081 27.103C154.368 24.2955 144.443 22.6455 134.365 21.8599C125.289 21.1532 116.218 21.1597 107.159 22.0289C98.605 22.8499 90.1778 24.4227 81.9003 26.7424C72.1612 29.4726 62.789 33.1155 54.0109 38.1944C47.604 41.9001 41.6848 46.2449 36.4997 51.5523C31.965 56.1933 28.1788 61.3655 25.5388 67.3169C21.4628 76.5039 20.7352 85.9211 23.7857 95.5492C25.645 101.418 28.6987 106.637 32.5944 111.381C36.804 116.507 41.7782 120.781 47.2402 124.509C51.3226 127.296 55.6126 129.723 60.083 131.827C62.4526 132.943 63.5923 134.95 63.9175 137.383C64.1026 138.773 63.9255 140.24 63.7308 141.648C63.082 146.325 61.2984 150.589 58.8225 154.581C56.7363 157.946 54.2089 160.942 51.3162 163.638C50.331 164.557 49.3329 165.462 48.5489 166.859Z" fill="#C5A47B"/>
</g>
<defs>
<filter id="filter0_d_2582_72203" x="0.5" y="0.5" width="240.275" height="189.555" filterUnits="userSpaceOnUse" color-interpolation-filters="sRGB">
<feFlood flood-opacity="0" result="BackgroundImageFix"/>
<feColorMatrix in="SourceAlpha" type="matrix" values="0 0 0 0 0 0 0 0 0 0 0 0 0 0 0 0 0 0 127 0" result="hardAlpha"/>
<feOffset/>
<feGaussianBlur stdDeviation="9.25"/>
<feComposite in2="hardAlpha" operator="out"/>
<feColorMatrix type="matrix" values="0 0 0 0 0 0 0 0 0 0 0 0 0 0 0 0 0 0 0.25 0"/>
<feBlend mode="normal" in2="BackgroundImageFix" result="effect1_dropShadow_2582_72203"/>
<feBlend mode="normal" in="SourceGraphic" in2="effect1_dropShadow_2582_72203" result="shape"/>
</filter>
</defs>
</svg>
