<svg width="88" height="88" viewBox="0 0 88 88" fill="none" xmlns="http://www.w3.org/2000/svg">
<path d="M11 44H14.6667H11ZM44 11V14.6667V11ZM73.3333 44H77H73.3333ZM20.5333 20.5333L23.1 23.1L20.5333 20.5333ZM67.4667 20.5333L64.9 23.1L67.4667 20.5333Z" fill="#FFD517"/>
<path d="M33 58.6667C29.9217 56.358 27.6479 53.1392 26.5006 49.4664C25.3533 45.7936 25.3907 41.8529 26.6075 38.2025C27.8243 34.5521 30.1588 31.3771 33.2803 29.1272C36.4018 26.8774 40.1522 25.6667 44 25.6667C47.8478 25.6667 51.5982 26.8774 54.7197 29.1272C57.8412 31.3771 60.1757 34.5521 61.3925 38.2025C62.6093 41.8529 62.6467 45.7936 61.4994 49.4664C60.3521 53.1392 58.0783 56.358 55 58.6667C53.5684 60.0838 52.4905 61.818 51.8535 63.729C51.2165 65.6399 51.0383 67.674 51.3333 69.6667C51.3333 71.6116 50.5607 73.4768 49.1854 74.8521C47.8102 76.2274 45.9449 77 44 77C42.0551 77 40.1898 76.2274 38.8146 74.8521C37.4393 73.4768 36.6667 71.6116 36.6667 69.6667C36.9617 67.674 36.7835 65.6399 36.1465 63.729C35.5095 61.818 34.4316 60.0838 33 58.6667Z" fill="#FFD517"/>
<path d="M35.5665 62.3333H52.4332H35.5665Z" fill="#FFD517"/>
<path d="M11 44H14.6667M44 11V14.6667M73.3333 44H77M20.5333 20.5333L23.1 23.1M67.4667 20.5333L64.9 23.1M35.5665 62.3333H52.4332M33 58.6667C29.9217 56.358 27.6479 53.1392 26.5006 49.4664C25.3533 45.7936 25.3907 41.8529 26.6075 38.2025C27.8243 34.5521 30.1588 31.3771 33.2803 29.1272C36.4018 26.8774 40.1522 25.6667 44 25.6667C47.8478 25.6667 51.5982 26.8774 54.7197 29.1272C57.8412 31.3771 60.1757 34.5521 61.3925 38.2025C62.6093 41.8529 62.6467 45.7936 61.4994 49.4664C60.3521 53.1392 58.0783 56.358 55 58.6667C53.5684 60.0838 52.4905 61.818 51.8535 63.729C51.2165 65.6399 51.0383 67.674 51.3333 69.6667C51.3333 71.6116 50.5607 73.4768 49.1854 74.8521C47.8102 76.2274 45.9449 77 44 77C42.0551 77 40.1898 76.2274 38.8146 74.8521C37.4393 73.4768 36.6667 71.6116 36.6667 69.6667C36.9617 67.674 36.7835 65.6399 36.1465 63.729C35.5095 61.818 34.4316 60.0838 33 58.6667Z" stroke="black" stroke-width="2" stroke-linecap="round" stroke-linejoin="round"/>
</svg>
