<svg width="238" height="321" viewBox="0 0 238 321" fill="none" xmlns="http://www.w3.org/2000/svg">
<path d="M98.1406 192.461L100.649 233.664L104.73 230.771L102.617 194.028L98.1406 192.461Z" fill="url(#paint0_linear_3352_8563)"/>
<path d="M96.1641 191.766L99.1657 232.447L100.65 233.66L98.1408 192.457L96.1641 191.766Z" fill="url(#paint1_linear_3352_8563)"/>
<path d="M102.617 194.023L104.73 230.766L107.975 233.192L105.82 195.145L102.617 194.023Z" fill="url(#paint2_linear_3352_8563)"/>
<path d="M107.326 195.668L105.82 195.141L107.974 233.188L109.365 232.068L107.326 195.668Z" fill="url(#paint3_linear_3352_8563)"/>
<g opacity="0.5">
<path d="M102.384 202.593C105.309 201.833 107.32 210.022 108.591 218.242L107.327 195.674L105.821 195.147L102.618 194.025L98.1408 192.457L96.1641 191.766L98.3418 221.283C98.4569 212.782 99.2937 203.396 102.384 202.593Z" fill="url(#paint4_linear_3352_8563)"/>
</g>
<path d="M168.847 6.11573C162.277 5.81985 156.323 6.0639 150.906 6.75717C107.972 12.2537 99.122 46.2435 90.482 67.9078C80.7527 92.3055 63.5906 92.839 45.546 100.319C27.5014 107.799 21.0448 116.982 17.4689 142.179C13.893 167.376 6.15625 271.215 6.15625 271.215L9.73928 273.485L12.3933 270.68C12.3933 270.68 12.4634 273.922 15.1453 247.106C18.9 218.309 25.8729 185.913 25.8729 185.913C28.5549 178.774 35.349 177.215 42.739 179.134C50.1289 181.053 75.16 186.093 95.4239 191.853C115.687 197.612 115.925 199.532 117.594 211.77C119.262 224.009 125.127 312.877 125.127 312.877L133.555 314.998C133.555 314.998 128.679 204.81 139.049 163.775C147.989 130.659 149.947 127.839 179.823 115.81C208.014 104.264 227.483 90.4222 231.752 57.6368C230.102 28.9952 206.421 9.20414 168.847 6.11573ZM136.903 98.2642C133.804 111.223 129.989 125.621 125.46 126.341C120.931 127.061 117.951 125.621 109.965 127.3C104.597 128.429 92.3236 133.779 73.4908 140.498C56.2079 146.664 40.3395 154.441 34.8019 154.011C34.0882 154.399 33.3852 154.758 32.7243 155.058C28.6493 157.217 30.7941 138.434 33.3673 127.64C35.9412 116.845 37.6569 111.017 57.6025 103.892C77.5495 96.7682 95.7786 87.917 101.14 71.9407C106.503 55.9645 112.294 41.5 121.087 35.6709C128.783 30.5689 136.973 27.4517 140.047 29.6489C143.098 30.4696 142.862 41.6843 142.625 52.1907C142.386 62.7489 140.002 85.3058 136.903 98.2642ZM142.148 126.581C138.334 126.341 138.81 118.422 142.386 105.704C147.63 84.3469 150.968 42.8319 150.968 42.8319C150.968 28.1939 157.047 28.4337 158 38.5124C158.954 48.5911 155.557 73.6678 153.173 89.986C150.789 106.304 145.962 126.821 142.148 126.581ZM159.073 119.382L152.875 122.262C152.875 122.262 161.933 69.2288 163.602 51.951C165.272 34.6731 167.417 31.0736 170.516 31.0736C173.615 31.0736 173.616 35.6328 173.616 35.6328C173.616 35.6328 171.231 54.5902 168.132 69.4685C165.06 84.2195 159.177 118.777 159.075 119.368C159.075 119.373 159.073 119.382 159.073 119.382ZM173.681 112.554C173.658 112.675 173.636 112.795 173.616 112.903L166.444 115.93L166.225 116.022C166.225 116.022 172.662 72.3475 178.622 49.3103C183.151 31.5523 186.727 30.8324 190.065 32.2722C192.514 33.329 189.588 40.6714 188.157 46.4307C186.743 52.1216 175.557 102.559 173.681 112.554ZM182.198 108.583C185.535 80.7474 198.229 41.572 198.229 41.572C200.792 33.1131 202.938 32.2729 208.659 36.5924C217.003 42.8319 222.248 56.03 217.956 75.2278C213.665 94.4257 182.198 108.583 182.198 108.583Z" fill="url(#paint5_linear_3352_8563)"/>
<path d="M209.318 36.171C209.318 36.171 204.133 32.5714 201.094 41.2103C198.054 49.8492 184.645 108.882 184.645 108.882C184.645 108.882 180.354 112.301 181.784 103.123C183.214 93.9437 193.584 48.9494 196.803 40.4904C200.021 32.0315 203.061 31.1316 209.318 36.171Z" fill="url(#paint6_linear_3352_8563)"/>
<path d="M173.617 112.903C173.636 112.795 173.659 112.675 173.682 112.555C171.685 113.486 169.29 114.604 166.445 115.93L173.617 112.903Z" fill="url(#paint7_linear_3352_8563)"/>
<path d="M189.048 31.9203C185.997 31.1536 182.696 33.345 178.623 49.3105C172.664 72.3476 166.227 116.022 166.227 116.022L166.445 115.93C167.086 115.631 167.701 115.344 168.297 115.066C169.272 108.573 175.11 70.3434 180.552 49.3105C183.782 36.6437 186.527 32.6489 189.048 31.9203Z" fill="url(#paint8_linear_3352_8563)"/>
<path d="M159.073 119.382C159.073 119.382 159.075 119.373 159.076 119.367C157.152 120.265 155.091 121.227 152.875 122.261L159.073 119.382Z" fill="url(#paint9_linear_3352_8563)"/>
<path d="M170.703 31.0876C170.639 31.0833 170.583 31.0703 170.516 31.0703C167.417 31.0703 165.272 34.6699 163.603 51.9477C161.933 69.2255 152.875 122.258 152.875 122.258C153.716 121.866 154.528 121.487 155.324 121.115C156.001 117.141 164.406 67.6468 166.008 51.0673C167.246 38.2521 168.745 32.9651 170.703 31.0876Z" fill="url(#paint10_linear_3352_8563)"/>
<path d="M168.847 6.11573C162.277 5.81985 156.323 6.0639 150.906 6.75717C107.972 12.2537 99.122 46.2435 90.482 67.9078C80.7527 92.3055 63.5906 92.839 45.546 100.319C27.5014 107.799 21.0448 116.982 17.4689 142.179C13.893 167.376 6.15625 271.215 6.15625 271.215L9.73928 273.485L12.3933 270.68C12.3933 270.68 12.4634 273.922 15.1453 247.106C18.9 218.309 25.8729 185.913 25.8729 185.913C28.5549 178.774 35.349 177.215 42.739 179.134C50.1289 181.053 75.16 186.093 95.4239 191.853C115.687 197.612 115.925 199.532 117.594 211.77C119.262 224.009 125.127 312.877 125.127 312.877L133.555 314.998C133.555 314.998 128.679 204.81 139.049 163.775C147.989 130.659 149.947 127.839 179.823 115.81C208.014 104.264 227.483 90.4222 231.752 57.6368C230.102 28.9952 206.421 9.20414 168.847 6.11573ZM136.903 98.2642C133.804 111.223 129.989 125.621 125.46 126.341C120.931 127.061 117.951 125.621 109.965 127.3C104.597 128.429 92.3236 133.779 73.4908 140.498C54.6581 147.217 37.4939 155.856 33.5604 153.697C33.5604 153.697 31.7724 145.778 34.9907 130.659C38.209 115.541 43.2782 111.308 55.7931 106.779C68.3079 102.249 92.2871 92.9455 98.522 81.946C104.342 71.6801 112.24 45.8987 117.832 40.6714C124.507 34.432 136.902 28.9131 140.002 29.633C143.101 30.3529 142.862 41.6318 142.624 52.19C142.386 62.7489 140.002 85.3058 136.903 98.2642ZM142.148 126.581C138.334 126.341 138.81 118.422 142.386 105.704C147.63 84.3469 150.968 42.8319 150.968 42.8319C150.968 28.1939 157.047 28.4337 158 38.5124C158.954 48.5911 155.557 73.6678 153.173 89.986C150.789 106.304 145.962 126.821 142.148 126.581ZM159.073 119.382L152.875 122.262C152.875 122.262 161.933 69.2288 163.602 51.951C165.272 34.6731 167.417 31.0736 170.516 31.0736C173.615 31.0736 173.616 35.6328 173.616 35.6328C173.616 35.6328 171.231 54.5902 168.132 69.4685C165.06 84.2195 159.177 118.777 159.075 119.368C159.075 119.373 159.073 119.382 159.073 119.382ZM173.681 112.554C173.658 112.675 173.636 112.795 173.616 112.903L166.444 115.93L166.225 116.022C166.225 116.022 172.662 72.3475 178.622 49.3103C183.151 31.5523 186.727 30.8324 190.065 32.2722C192.514 33.329 189.588 40.6714 188.157 46.4307C186.743 52.1216 175.557 102.559 173.681 112.554ZM182.198 108.583C185.535 80.7474 198.229 41.572 198.229 41.572C200.792 33.1131 202.938 32.2729 208.659 36.5924C217.003 42.8319 222.248 56.03 217.956 75.2278C213.665 94.4257 182.198 108.583 182.198 108.583Z" fill="url(#paint11_linear_3352_8563)"/>
<path d="M144.138 105.048C149.382 83.6903 152.72 42.1752 152.72 42.1752C152.72 36.2899 153.703 32.8135 154.94 31.4111C153.031 30.8431 150.971 34.3145 150.971 42.8354C150.971 42.8354 147.633 84.3504 142.389 105.707C138.813 118.426 138.337 126.345 142.151 126.585C142.591 126.613 143.045 126.353 143.506 125.866C140.125 125.107 140.69 117.309 144.138 105.048Z" fill="url(#paint12_linear_3352_8563)"/>
<path d="M198.24 163.768C197.073 155.541 194.641 149.668 189.135 144.141C188.38 156.085 166.223 165.915 156.212 170.496C150.796 172.974 148.053 171.803 146.663 170.093C144.626 182.475 142.882 197.549 141.234 213.894C143.165 199.827 147.55 193.999 152.095 190.705C157.363 186.887 166.213 182.009 174.22 178.403C182.226 174.797 186.23 174.373 190.023 186.039C193.816 197.705 206.459 264.942 206.459 264.942L210.041 265.366L212.359 261.336C212.359 261.336 199.505 172.676 198.24 163.768Z" fill="url(#paint13_linear_3352_8563)"/>
<path d="M198.24 163.768C197.073 155.541 194.641 149.668 189.135 144.141C188.38 156.085 166.223 165.915 156.212 170.496C150.796 172.974 148.053 171.803 146.663 170.093C144.626 182.475 142.882 197.549 141.234 213.894C143.165 199.827 147.55 193.999 152.095 190.705C157.363 186.887 166.213 182.009 174.22 178.403C182.226 174.797 186.23 174.373 190.023 186.039C193.816 197.705 206.459 264.942 206.459 264.942L210.041 265.366L212.359 261.336C212.359 261.336 199.505 172.676 198.24 163.768Z" fill="url(#paint14_linear_3352_8563)"/>
<path d="M179.819 115.814C149.944 127.843 147.985 130.663 139.046 163.778C128.675 204.814 133.552 315.002 133.552 315.002L138.398 310.547C138.398 310.547 139.083 253.771 140.145 228.324C140.155 226.083 140.263 223.733 140.504 221.251C140.678 218.573 140.925 216.135 141.233 213.896C144.648 180.009 148.477 151.556 154.465 141.327C160.883 130.367 183.278 121.985 183.278 121.985C183.278 121.985 219.31 112.652 228.919 80.0291C231.25 72.1159 232.149 64.6166 231.748 57.6406C227.479 90.4261 208.011 104.267 179.819 115.814Z" fill="url(#paint15_linear_3352_8563)"/>
<path d="M165.992 130.649C166.333 131.62 166.998 132.35 168.265 132.279C170.423 132.159 171.504 129.366 172.024 127.142C178.109 123.915 183.282 121.977 183.282 121.977C183.282 121.977 181.174 136.824 187.707 142.763C188.207 143.218 188.679 143.676 189.136 144.135C188.382 156.08 166.225 165.91 156.213 170.491C150.797 172.969 148.054 171.798 146.664 170.088C148.849 156.801 151.369 146.614 154.469 141.32C154.469 141.32 156.759 136.162 165.992 130.649Z" fill="url(#paint16_linear_3352_8563)"/>
<g opacity="0.5">
<path d="M109.247 194.27C101.108 190.714 53.3289 179.19 39.5096 176.871C25.6902 174.553 22.8031 177.13 19.4618 194.724C17.1718 206.782 11.1106 262.937 9.69531 273.118L12.3951 270.676C12.3951 270.676 12.4652 273.918 15.1471 247.102C18.9018 218.305 25.8747 185.909 25.8747 185.909C28.5567 178.77 35.3508 177.211 42.7408 179.13C50.1307 181.049 75.1618 186.089 95.4257 191.848C115.689 197.608 115.927 199.528 117.596 211.766C119.264 224.005 125.128 312.873 125.128 312.873L126.533 313.227C125.451 297.518 119.834 216.202 119.026 210.025C118.133 203.187 117.385 197.825 109.247 194.27Z" fill="url(#paint17_linear_3352_8563)"/>
</g>
<path opacity="0.5" d="M34.993 130.659C38.2113 115.54 43.2805 111.307 55.7954 106.778C68.3102 102.248 91.9654 92.7524 98.5243 81.9451C104.935 71.3819 111.25 47.1857 117.835 40.6705C124.329 34.2424 136.904 28.9122 140.004 29.6321C140.019 29.6357 140.033 29.6437 140.049 29.648C136.976 27.4508 127.698 30.2981 120.001 35.4001C111.209 41.2292 107.372 55.2069 100.209 71.9772C93.5917 87.4697 75.9176 93.5853 55.972 100.71C36.025 107.835 28.3891 118.185 25.8145 128.98C23.2413 139.775 20.4478 161.032 24.5221 158.874C25.183 158.575 35.1647 154.591 35.8791 154.202C35.3828 154.164 33.8859 153.875 33.5627 153.697C33.5627 153.696 31.7747 145.777 34.993 130.659Z" fill="url(#paint18_linear_3352_8563)"/>
<path d="M35.349 173.676C51.2617 176.555 162.039 194.14 79.3238 176.341C39.3304 168.587 35.6909 167.092 26.2148 163.598C19.4471 161.102 16.6586 161.897 14.674 167.833C10.8993 207.559 6.15625 271.215 6.15625 271.215L7.80473 272.26C8.47485 264.183 11.9671 222.511 14.4201 202.027C17.1442 179.286 19.4364 170.796 35.349 173.676Z" fill="url(#paint19_linear_3352_8563)"/>
<path opacity="0.3" d="M137.09 137.659C133.796 143.44 129.824 164.428 128.346 176.62C123.991 189.311 112.989 184.465 86.8579 177.543C60.3563 170.522 20.3615 163.609 25.3842 162.122C25.3842 162.122 88.6594 136.546 101.658 132.09C109.507 129.4 117.251 127.214 140.811 132.174C140.811 132.174 138.437 135.295 137.09 137.659Z" fill="url(#paint20_linear_3352_8563)"/>
<g opacity="0.3">
<path d="M159.407 135.414C155.589 138.808 154.469 141.324 154.469 141.324C151.369 146.619 148.849 156.805 146.664 170.092C148.054 171.802 150.796 172.972 156.213 170.495C164.5 166.702 181.097 159.313 187.001 150.107C184.577 139.631 167.934 136.391 159.407 135.414Z" fill="url(#paint21_linear_3352_8563)"/>
</g>
<g opacity="0.5">
<path d="M231.749 57.6406C227.479 90.4261 208.011 104.268 179.819 115.814C149.944 127.843 147.985 130.663 139.046 163.778C128.675 204.814 133.552 315.002 133.552 315.002L138.398 310.547C138.398 310.547 139.083 253.771 140.145 228.324C140.155 226.083 140.263 223.733 140.504 221.251C140.678 218.573 140.925 216.135 141.233 213.896C141.553 210.716 141.877 207.583 142.207 204.509C140.314 216.2 139.302 232.97 138.399 250.613C136.886 280.164 135.707 314.48 135.23 298.642C134.276 273.685 133.723 221.85 139.057 182.369C144.391 142.889 152.018 129.972 172.296 122.356C209.52 108.952 220.637 91.7212 217.814 97.7223C216.591 100.32 214.311 103.389 212.118 106.037C219.153 99.7539 225.606 91.2763 228.92 80.0291C231.251 72.1159 232.15 64.6166 231.749 57.6406Z" fill="url(#paint22_linear_3352_8563)"/>
</g>
<path d="M172.078 179.193C171.972 179.308 171.878 179.419 171.773 179.535C172.594 179.147 173.413 178.767 174.221 178.403C182.227 174.797 186.231 174.373 190.024 186.039C193.817 197.705 206.46 264.943 206.46 264.943L209.584 265.313C207.801 254.262 201.483 215.663 196.987 195.403C191.703 171.595 187.426 171.343 172.078 179.193Z" fill="url(#paint23_linear_3352_8563)"/>
<path d="M28.9089 164.414C28.9089 164.414 97.1489 179.999 98.0085 180.865C98.8689 181.731 18.586 165.28 28.9089 164.414Z" fill="url(#paint24_linear_3352_8563)"/>
<path opacity="0.8" d="M182.496 108.703C182.496 108.703 181.133 109.275 178.747 110.275C176.364 111.282 172.984 112.779 168.962 114.644C164.941 116.509 160.3 118.798 155.465 121.493C153.051 122.845 150.596 124.316 148.209 125.962C145.839 127.61 143.467 129.42 141.638 131.673C141.429 131.962 141.185 132.241 140.999 132.537L140.395 133.472L139.19 135.338C138.767 135.949 138.435 136.597 138.089 137.239C137.742 137.88 137.396 138.518 137.052 139.154C136.868 139.466 136.718 139.795 136.585 140.132L136.163 141.126C135.883 141.789 135.604 142.447 135.327 143.102C134.839 144.438 134.45 145.795 134.017 147.11C133.599 148.431 133.349 149.78 133.002 151.07C132.842 151.719 132.685 152.361 132.528 152.996C132.4 153.637 132.274 154.271 132.149 154.897C131.646 157.398 131.167 159.762 130.814 161.964C130.434 164.161 130.086 166.174 129.778 167.959C129.485 169.746 129.229 171.305 129.019 172.589C128.589 175.154 128.344 176.622 128.344 176.622C128.344 176.622 128.539 175.147 128.882 172.569C129.057 171.279 129.27 169.713 129.515 167.918C129.758 166.122 130.077 164.102 130.418 161.897C130.734 159.689 131.175 157.31 131.639 154.794C131.753 154.165 131.87 153.526 131.987 152.88C132.133 152.24 132.282 151.591 132.432 150.935C132.585 150.28 132.741 149.618 132.897 148.949C133.062 148.283 133.19 147.6 133.421 146.937C133.852 145.604 134.238 144.231 134.724 142.874C135.002 142.208 135.282 141.538 135.563 140.864L135.986 139.85C136.12 139.508 136.271 139.173 136.455 138.853C136.803 138.202 137.153 137.548 137.502 136.893C137.853 136.238 138.192 135.57 138.608 134.962L139.802 133.089L140.401 132.151C140.61 131.819 140.853 131.534 141.08 131.224C143.013 128.871 145.426 127.066 147.833 125.408C150.254 123.758 152.732 122.293 155.164 120.948C160.036 118.264 164.745 116.091 168.796 114.277C172.851 112.469 176.288 111.1 178.694 110.147C181.103 109.201 182.496 108.703 182.496 108.703Z" fill="#E1F4F4"/>
<path opacity="0.3" d="M106.626 193.293C106.626 193.293 117.593 195.452 118.784 207.691C119.976 219.929 124.029 275.603 124.744 291.681C125.459 307.758 129.035 300.799 128.558 266.724C128.081 232.648 128.32 214.41 128.558 201.932C128.797 189.453 120.214 189.934 107.58 188.014C94.9451 186.094 86.3623 187.773 106.626 193.293Z" fill="url(#paint25_linear_3352_8563)"/>
<path d="M118.789 207.697C118.789 207.697 123.446 269.005 123.988 279.537C124.529 290.068 123.085 256.659 122.185 234.688C121.281 212.717 118.823 199.954 118.789 207.697Z" fill="url(#paint26_linear_3352_8563)"/>
<path opacity="0.3" d="M101.658 132.09C96.9991 133.687 85.8824 137.997 73.5356 142.87L74.328 142.899C74.328 142.899 98.644 135.34 115.093 135.7C131.541 136.06 126.535 149.379 125.462 158.017C124.39 166.656 123.674 182.494 98.644 175.655C73.9454 168.908 25.5816 164.612 41.8153 155.509C32.1998 159.367 25.3842 162.122 25.3842 162.122C20.3615 163.609 60.3563 170.523 86.8579 177.544C112.989 184.466 123.991 189.311 128.346 176.621C129.823 164.428 133.795 143.441 137.09 137.66C138.438 135.296 140.812 132.174 140.812 132.174C117.25 127.214 109.506 129.4 101.658 132.09Z" fill="url(#paint27_linear_3352_8563)"/>
<path d="M88.5391 137.022C88.5391 137.022 89.3022 136.67 90.6503 136.082C91.3268 135.794 92.15 135.444 93.0926 135.044C94.0338 134.64 95.0972 134.185 96.2794 133.745C97.4559 133.29 98.7318 132.798 100.081 132.278C101.447 131.798 102.908 131.34 104.417 130.864C105.169 130.607 105.952 130.423 106.737 130.23C107.517 130.021 108.335 129.875 109.15 129.701C109.961 129.507 110.798 129.42 111.632 129.299L112.887 129.126C113.307 129.078 113.73 129.068 114.151 129.037C114.996 128.993 115.839 128.95 116.681 128.906C117.522 128.924 118.358 128.942 119.189 128.96C120.018 128.993 120.844 128.967 121.653 129.047C122.463 129.119 123.262 129.19 124.05 129.26C124.836 129.332 125.609 129.402 126.365 129.471C127.119 129.561 127.85 129.696 128.565 129.802C129.994 130.026 131.344 130.237 132.59 130.432C133.834 130.633 134.959 130.913 135.962 131.119C136.962 131.335 137.835 131.523 138.553 131.678C139.988 131.996 140.808 132.178 140.808 132.178C140.808 132.178 139.978 132.046 138.527 131.815C137.803 131.695 136.923 131.55 135.915 131.383C134.904 131.228 133.772 131.005 132.527 130.832C131.279 130.674 129.928 130.503 128.5 130.322C127.785 130.238 127.054 130.125 126.302 130.058C125.549 130.001 124.78 129.941 123.998 129.881C123.217 129.819 122.422 129.756 121.618 129.692C120.814 129.622 119.997 129.655 119.176 129.631C118.355 129.621 117.526 129.612 116.695 129.602C115.867 129.652 115.035 129.703 114.203 129.754C113.788 129.78 113.371 129.785 112.957 129.828L111.722 129.988C110.9 130.098 110.077 130.176 109.277 130.359C108.472 130.524 107.675 130.657 106.887 130.859C106.096 131.046 105.319 131.22 104.577 131.467C103.084 131.936 101.622 132.334 100.252 132.771C98.8934 133.251 97.6075 133.704 96.421 134.123C94.0452 134.953 92.0863 135.711 90.7039 136.211C89.325 136.727 88.5391 137.022 88.5391 137.022Z" fill="#E1F4F4"/>
<path d="M159.406 135.414C159.406 135.414 159.922 135.434 160.82 135.52C161.717 135.616 163.004 135.741 164.53 136.004C166.056 136.27 167.838 136.597 169.715 137.094C171.591 137.587 173.571 138.215 175.504 138.978C176.468 139.366 177.409 139.813 178.323 140.276C178.781 140.507 179.221 140.766 179.663 141.005C180.091 141.271 180.52 141.521 180.928 141.792C181.743 142.336 182.499 142.915 183.159 143.53C183.493 143.832 183.812 144.131 184.093 144.452C184.237 144.607 184.379 144.76 184.518 144.91C184.646 145.071 184.77 145.229 184.892 145.383C185.14 145.689 185.365 145.991 185.545 146.304C185.734 146.609 185.918 146.894 186.045 147.19C186.18 147.48 186.325 147.741 186.421 148C186.512 148.26 186.596 148.499 186.672 148.715C186.835 149.142 186.859 149.508 186.923 149.742C186.973 149.979 187 150.106 187 150.106C187 150.106 186.96 149.982 186.886 149.75C186.8 149.523 186.731 149.172 186.542 148.763C186.451 148.557 186.351 148.329 186.242 148.082C186.13 147.837 185.965 147.592 185.813 147.32C185.67 147.044 185.467 146.78 185.261 146.499C185.159 146.358 185.055 146.214 184.947 146.066C184.828 145.928 184.706 145.786 184.581 145.641C184.456 145.497 184.329 145.35 184.199 145.201C184.058 145.062 183.913 144.92 183.765 144.776C183.481 144.48 183.156 144.205 182.818 143.927C182.151 143.362 181.386 142.844 180.592 142.317C180.191 142.06 179.767 141.821 179.345 141.569C178.909 141.342 178.476 141.096 178.024 140.877C177.121 140.437 176.19 140.016 175.237 139.646C173.349 138.865 171.403 138.214 169.552 137.697C167.702 137.178 165.962 136.724 164.455 136.402C162.95 136.076 161.69 135.812 160.802 135.659C159.914 135.503 159.406 135.414 159.406 135.414Z" fill="#E1F4F4"/>
<g opacity="0.3">
<path d="M164.101 140.394C171.19 141.715 181.959 145.058 186.599 150.696C186.735 150.5 186.873 150.305 187.001 150.107C184.577 139.631 167.935 136.391 159.407 135.414C155.589 138.808 154.469 141.324 154.469 141.324C151.369 146.619 148.849 156.805 146.664 170.092C148.054 171.802 150.796 172.972 156.213 170.495C158.924 169.254 162.524 167.628 166.348 165.679C148.225 172.041 155.414 138.775 164.101 140.394Z" fill="url(#paint28_linear_3352_8563)"/>
</g>
<g opacity="0.5">
<path d="M168.046 177.563C156.993 183.017 146.807 191.743 148.974 184.108C151.141 176.473 151.791 177.127 163.278 171.018C174.764 164.911 183.433 159.674 188.633 155.093C193.834 150.513 196.653 156.402 198.602 167.092C198.703 167.644 198.821 168.176 198.947 168.697C198.612 166.368 198.367 164.66 198.24 163.768C197.073 155.541 194.641 149.668 189.135 144.141C188.38 156.085 166.223 165.915 156.212 170.496C150.796 172.974 148.053 171.803 146.663 170.093C144.626 182.475 142.882 197.549 141.234 213.894C143.165 199.827 147.55 193.999 152.095 190.705C157.363 186.887 166.213 182.009 174.22 178.403C182.226 174.797 186.23 174.373 190.023 186.039C193.816 197.705 206.459 264.942 206.459 264.942L210.041 265.366L211.475 262.874C209.015 246.937 199.095 184.457 193.618 176.473C187.325 167.299 179.098 172.109 168.046 177.563Z" fill="url(#paint29_linear_3352_8563)"/>
</g>
<path opacity="0.7" d="M93.8785 65.5826C96.3816 66.3025 101.13 57.2503 100.671 59.3906C98.8211 68 101.312 69.6364 103.962 62.7116C106.785 55.3332 111.845 45.4978 109.7 48.0175C107.554 50.5372 103.407 52.4205 104.097 48.1413C104.633 44.8117 99.6271 53.7206 100.074 49.3112C100.502 45.0954 105.426 35.6019 109.131 29.5547C101.636 39.195 97.1947 50.3766 93.4365 60.2401C92.8028 62.5057 92.363 65.147 93.8785 65.5826Z" fill="url(#paint30_linear_3352_8563)"/>
<path opacity="0.8" d="M110.086 28.436C110.086 28.436 111.572 26.5462 114.671 23.7264C116.22 22.3196 118.173 20.6869 120.54 18.9814C122.903 17.2738 125.684 15.4985 128.881 13.865C135.247 10.5822 143.298 7.77026 152.254 6.89773C156.722 6.45787 161.383 6.46867 166.07 6.95101C167.238 7.10075 168.416 7.21233 169.589 7.39591C170.761 7.6018 171.925 7.78322 173.112 8.00999C174.27 8.27348 175.43 8.53697 176.592 8.80117C177.748 9.10426 178.913 9.38862 180.065 9.70898C184.668 11.0084 189.186 12.6275 193.483 14.5684C197.774 16.5143 201.862 18.7568 205.547 21.3391C209.237 23.9078 212.568 26.7485 215.361 29.7923C218.158 32.8303 220.472 36.0095 222.236 39.1569C223.999 42.3079 225.217 45.4086 226.011 48.2278C226.808 51.0491 227.197 53.5846 227.381 55.6774C227.534 57.7745 227.527 59.4267 227.475 60.5498C227.409 61.6728 227.373 62.2711 227.373 62.2711C227.373 62.2711 227.398 61.6721 227.444 60.549C227.474 59.426 227.451 57.7752 227.261 55.6889C227.039 53.6062 226.606 51.0894 225.763 48.3012C224.92 45.5151 223.655 42.4663 221.887 39.3578C220.107 36.2564 217.782 33.1313 214.981 30.1515C212.185 27.1654 208.853 24.3959 205.196 21.8531C201.536 19.3075 197.474 17.0974 193.209 15.1817C188.94 13.2697 184.449 11.6801 179.874 10.4015C178.731 10.0797 177.58 9.79465 176.434 9.49013C175.274 9.22232 174.116 8.95452 172.96 8.68815C171.817 8.46642 170.64 8.2778 169.486 8.07119C168.326 7.88545 167.158 7.77098 166.001 7.61836C161.358 7.1245 156.741 7.09787 152.314 7.5183C147.887 7.94304 143.653 8.80693 139.745 9.97823C135.835 11.1495 132.251 12.6261 129.062 14.225C122.673 17.4271 117.887 21.0728 114.749 23.8163C111.607 26.5743 110.086 28.436 110.086 28.436Z" fill="#E1F4F4"/>
<path opacity="0.5" d="M23.8917 121.738C25.6811 118.79 22.7517 127.799 24.0533 125.342C25.3549 122.885 25.6803 123.868 25.8105 128.976C30.0093 111.478 46.6729 104.539 46.6729 104.539C46.6729 104.539 42.1165 105.686 38.2109 108.306C34.3054 110.928 37.0717 107.979 35.1192 108.798C33.1668 109.617 36.2585 107.16 33.0037 108.306C32.2306 108.578 32.0633 108.355 32.2485 107.859C27.4697 111.785 24.1384 116.679 21.6954 123.46C21.6875 126.346 22.3877 124.217 23.8917 121.738Z" fill="url(#paint31_linear_3352_8563)"/>
<path opacity="0.5" d="M144.685 35.855C144.685 35.855 144.297 79.3325 134.42 113.646C129.965 127.878 140.423 122.615 144.491 88.4955C148.558 54.3761 150.301 36.829 149.332 33.7096C148.364 30.591 144.491 30.7854 144.685 35.855Z" fill="url(#paint32_linear_3352_8563)"/>
<path opacity="0.5" d="M159.331 43.1853C159.331 43.1853 155.517 92.1392 147.888 118.056C146.458 123.576 150.511 125.015 154.087 105.337C157.663 85.66 162.193 53.5038 163.384 41.5058C164.576 29.5077 159.331 27.3473 159.331 43.1853Z" fill="url(#paint33_linear_3352_8563)"/>
<path opacity="0.5" d="M179.225 37.2078C179.225 37.2078 170.267 79.0331 166.324 104.833C163.038 122.032 161.285 112.55 162.162 105.053C163.039 97.5557 171.831 52.1754 173.486 43.2896C175.751 31.126 180.585 29.301 179.225 37.2078Z" fill="url(#paint34_linear_3352_8563)"/>
<path d="M174.332 125.942L179.36 123.578C179.36 123.578 178.925 131.795 177.033 132.096C173.014 132.735 174.332 125.942 174.332 125.942Z" fill="url(#paint35_linear_3352_8563)"/>
<path opacity="0.5" d="M175.703 111.415L179.637 109.795C179.637 109.795 191.975 52.3647 194.836 41.566C197.696 30.7674 192.869 33.2871 190.366 41.2061C187.863 49.1251 175.703 111.415 175.703 111.415Z" fill="url(#paint36_linear_3352_8563)"/>
<path opacity="0.7" d="M132.82 149.706C132.82 149.706 136.488 132.033 148.018 125.703C142.778 132.298 144.612 133.881 146.708 131.506C148.804 129.132 144.35 136.254 147.494 133.089C150.638 129.923 155.094 127.285 155.094 127.285C155.094 127.285 145.397 133.352 139.633 158.41C140.42 146.54 137.276 154.717 137.013 150.233C136.75 145.75 134.393 144.959 132.82 149.706Z" fill="url(#paint37_linear_3352_8563)"/>
<path opacity="0.5" d="M120.001 35.3997C111.209 41.2288 107.372 55.2066 100.209 71.9769C93.5917 87.4694 75.9176 93.585 55.972 100.71C36.025 107.834 28.3891 118.185 25.8145 128.98C23.2413 139.775 20.4478 161.032 24.5221 158.874C25.183 158.574 35.1647 154.59 35.8791 154.202C35.3828 154.163 33.8859 153.875 33.5627 153.697C33.5627 153.697 31.9385 146.483 34.584 132.691C33.8073 135.142 33.0992 138.116 32.6687 141.638C31.9535 149.917 30.702 149.737 30.702 141.098C30.702 132.459 25.3382 150.097 26.2321 141.818C27.1261 133.539 30.1656 112.302 53.9452 104.023C77.7248 95.744 87.7373 91.7845 95.0679 81.8858C101.781 72.8192 97.9872 85.7934 81.9179 95.369C89.1941 91.3785 95.5814 86.7948 98.5243 81.9455C104.935 71.3823 111.25 47.1861 117.835 40.6709C124.329 34.2428 136.904 28.9126 140.004 29.6325C140.019 29.6361 140.033 29.6441 140.049 29.6484C136.976 27.4505 127.698 30.2977 120.001 35.3997Z" fill="url(#paint38_linear_3352_8563)"/>
<path d="M52.6195 97.8203C52.6195 97.8203 51.6297 98.1644 49.9312 98.8469C48.2291 99.5222 45.8304 100.57 43.0269 101.97C40.2263 103.373 37.0401 105.191 33.8934 107.505C32.3214 108.661 30.7773 109.968 29.3692 111.446C27.9631 112.923 26.6873 114.576 25.7711 116.426C24.7699 118.288 23.9474 120.18 23.1779 122.099C22.4491 124.024 21.809 125.95 21.2834 127.843C20.7699 129.739 20.3014 131.582 19.9324 133.349C19.5462 135.112 19.2451 136.793 18.9705 138.346C17.9571 144.578 17.2812 148.735 17.2812 148.735C17.2812 148.735 17.4007 147.688 17.6102 145.857C17.8369 144.028 18.1066 141.409 18.5736 138.281C19.0513 135.157 19.6463 131.504 20.6848 127.676C21.2011 125.761 21.8319 123.811 22.555 121.857C23.3116 119.925 24.1534 117.947 25.1353 116.098C26.1037 114.18 27.4403 112.481 28.89 110.981C30.3447 109.478 31.9266 108.162 33.5286 107.001C36.7383 104.677 40.0138 102.964 42.8524 101.608C45.6995 100.258 48.159 99.3386 49.8826 98.7166C51.6112 98.104 52.6195 97.8203 52.6195 97.8203Z" fill="#E1F4F4"/>
<path d="M14.6483 175.258C14.6483 175.258 14.5561 176.731 14.3959 179.311C14.2235 181.889 13.9761 185.572 13.68 189.991C13.361 194.41 12.9891 199.564 12.5908 205.087C12.1681 210.607 11.7168 216.496 11.2663 222.383C10.7828 228.269 10.2993 234.155 9.84664 239.673C9.3689 245.189 8.92334 250.338 8.54072 254.75C8.13665 259.161 7.79908 262.836 7.56308 265.41C7.3142 267.982 7.17188 269.452 7.17188 269.452C7.17188 269.452 7.26413 267.978 7.42362 265.398C7.59597 262.82 7.84343 259.137 8.13951 254.718C8.45776 250.3 8.82965 245.145 9.22801 239.623C9.65139 234.103 10.1027 228.214 10.5539 222.326C11.0374 216.44 11.5209 210.554 11.9736 205.036C12.4513 199.52 12.8976 194.371 13.2795 189.96C13.6836 185.549 14.0211 181.873 14.2571 179.299C14.5067 176.728 14.6483 175.258 14.6483 175.258Z" fill="#E1F4F4"/>
<path d="M133.626 210.828C133.626 210.828 133.578 212.387 133.493 215.117C133.451 216.481 133.373 218.137 133.352 220.039C133.313 221.939 133.27 224.083 133.222 226.422C133.169 228.761 133.11 231.294 133.048 233.974C132.985 236.653 132.909 239.478 132.906 242.403C132.864 248.251 132.82 254.489 132.775 260.727C132.736 263.845 132.698 266.964 132.66 270.034C132.666 273.105 132.734 276.125 132.765 279.049C132.821 284.898 132.873 290.356 132.918 295.034C132.94 299.714 132.958 303.614 132.971 306.344C132.971 309.075 132.971 310.635 132.971 310.635C132.971 310.635 132.92 309.076 132.832 306.348C132.756 303.619 132.646 299.72 132.516 295.042C132.408 290.363 132.281 284.903 132.145 279.054C132.098 276.129 132.014 273.107 131.992 270.036C132.014 266.963 132.037 263.843 132.06 260.723C132.137 254.483 132.215 248.242 132.287 242.391C132.291 239.465 132.425 236.64 132.529 233.96C132.632 231.279 132.73 228.746 132.821 226.407C132.919 224.069 133.008 221.926 133.087 220.026C133.157 218.126 133.278 216.472 133.354 215.11C133.528 212.385 133.626 210.828 133.626 210.828Z" fill="#E1F4F4"/>
<path opacity="0.8" d="M231.754 57.6406C231.223 48.4027 228.386 40.0935 223.545 32.9599C223.622 33.1075 223.694 33.2501 223.774 33.3984C231.325 47.3668 228.468 53.7351 227.447 47.7779C221.529 23.1274 192.144 12.4461 193.572 12.2409C194.706 12.0782 200.461 14.2416 202.792 15.1429C193.403 10.3209 181.978 7.19724 168.851 6.1181C166.731 6.02307 164.681 5.98924 162.688 6.00291C177.891 8.2224 210.586 15.6979 222.487 39.6594C232.295 62.0731 226.864 78.0551 216.68 92.6513C224.534 83.9404 229.776 72.825 231.754 57.6406Z" fill="url(#paint39_linear_3352_8563)"/>
<path opacity="0.3" d="M131.784 130.492C134.303 131.659 135.98 132.977 135.167 134.27C132.846 137.969 129.17 154.129 127.43 170.288C125.884 180.412 113.311 183.917 89.9087 177.686C82.4823 175.709 74.5503 174.085 67.1797 172.788C73.9774 174.325 80.7709 175.93 86.8542 177.542C112.985 184.464 123.987 189.31 128.342 176.619C129.819 164.426 133.791 143.439 137.087 137.658C138.434 135.295 140.808 132.172 140.808 132.172C137.499 131.476 134.513 130.925 131.784 130.492Z" fill="url(#paint40_linear_3352_8563)"/>
<path opacity="0.5" d="M161.172 135.644C160.554 135.559 159.963 135.485 159.407 135.422C155.589 138.816 154.469 141.332 154.469 141.332C151.369 146.627 148.849 156.813 146.664 170.1C147.102 170.638 147.675 171.123 148.421 171.457C148.904 168.14 149.837 162.743 151.639 154.654C154.033 143.902 158.593 138.16 161.172 135.644Z" fill="url(#paint41_linear_3352_8563)"/>
<defs>
<linearGradient id="paint0_linear_3352_8563" x1="83.0521" y1="214.989" x2="99.112" y2="213.12" gradientUnits="userSpaceOnUse">
<stop offset="0.0256" stop-color="#C1E8E9"/>
<stop offset="0.5526" stop-color="#83D1D2"/>
<stop offset="0.8876" stop-color="#4CBCBE"/>
</linearGradient>
<linearGradient id="paint1_linear_3352_8563" x1="89.043" y1="212.916" x2="113.357" y2="212.395" gradientUnits="userSpaceOnUse">
<stop offset="0.0256" stop-color="#C1E8E9"/>
<stop offset="0.5526" stop-color="#83D1D2"/>
<stop offset="0.8876" stop-color="#4CBCBE"/>
</linearGradient>
<linearGradient id="paint2_linear_3352_8563" x1="113.026" y1="213.608" x2="101.184" y2="213.608" gradientUnits="userSpaceOnUse">
<stop offset="0.0256" stop-color="#C1E8E9"/>
<stop offset="0.5526" stop-color="#83D1D2"/>
<stop offset="0.8876" stop-color="#4CBCBE"/>
</linearGradient>
<linearGradient id="paint3_linear_3352_8563" x1="128.717" y1="210.678" x2="120.434" y2="211.984" gradientUnits="userSpaceOnUse">
<stop offset="0.0256" stop-color="#C1E8E9"/>
<stop offset="0.5526" stop-color="#83D1D2"/>
<stop offset="0.8876" stop-color="#4CBCBE"/>
</linearGradient>
<linearGradient id="paint4_linear_3352_8563" x1="157.919" y1="196.831" x2="135.972" y2="200.292" gradientUnits="userSpaceOnUse">
<stop offset="0.0256" stop-color="#C1E8E9"/>
<stop offset="0.5526" stop-color="#83D1D2"/>
<stop offset="0.8876" stop-color="#4CBCBE"/>
</linearGradient>
<linearGradient id="paint5_linear_3352_8563" x1="118.954" y1="22.585" x2="118.954" y2="278.658" gradientUnits="userSpaceOnUse">
<stop offset="0.0256" stop-color="#C1E8E9"/>
<stop offset="0.5526" stop-color="#83D1D2"/>
<stop offset="0.8876" stop-color="#4CBCBE"/>
</linearGradient>
<linearGradient id="paint6_linear_3352_8563" x1="219.243" y1="77.7323" x2="179.77" y2="68.0681" gradientUnits="userSpaceOnUse">
<stop offset="0.0256" stop-color="#C1E8E9"/>
<stop offset="0.5526" stop-color="#83D1D2"/>
<stop offset="0.8876" stop-color="#4CBCBE"/>
</linearGradient>
<linearGradient id="paint7_linear_3352_8563" x1="166.445" y1="114.243" x2="173.682" y2="114.243" gradientUnits="userSpaceOnUse">
<stop offset="0.1746" stop-color="#83D1D2"/>
<stop offset="0.8876" stop-color="#4CBCBE"/>
</linearGradient>
<linearGradient id="paint8_linear_3352_8563" x1="212.249" y1="78.6218" x2="167.565" y2="72.6781" gradientUnits="userSpaceOnUse">
<stop offset="0.0256" stop-color="#C1E8E9"/>
<stop offset="0.5526" stop-color="#83D1D2"/>
<stop offset="0.8876" stop-color="#4CBCBE"/>
</linearGradient>
<linearGradient id="paint9_linear_3352_8563" x1="152.875" y1="120.814" x2="159.075" y2="120.814" gradientUnits="userSpaceOnUse">
<stop offset="0.1746" stop-color="#83D1D2"/>
<stop offset="0.8876" stop-color="#4CBCBE"/>
</linearGradient>
<linearGradient id="paint10_linear_3352_8563" x1="206.947" y1="76.9761" x2="150.092" y2="76.5892" gradientUnits="userSpaceOnUse">
<stop offset="0.0256" stop-color="#C1E8E9"/>
<stop offset="0.5526" stop-color="#83D1D2"/>
<stop offset="0.8876" stop-color="#4CBCBE"/>
</linearGradient>
<linearGradient id="paint11_linear_3352_8563" x1="139.389" y1="-9.74922" x2="101.247" y2="269.521" gradientUnits="userSpaceOnUse">
<stop stop-color="#4CBCBE"/>
<stop offset="0.0778" stop-color="#83D1D2"/>
<stop offset="0.104" stop-color="#94D7D8"/>
<stop offset="0.16" stop-color="#B5E3E4"/>
<stop offset="0.1909" stop-color="#C1E8E9"/>
<stop offset="0.2304" stop-color="#CFEDEE"/>
<stop offset="0.2874" stop-color="#DCF2F2"/>
<stop offset="0.3382" stop-color="#E1F4F4"/>
<stop offset="0.3752" stop-color="#CBECEC"/>
<stop offset="0.4379" stop-color="#ACE0E1"/>
<stop offset="0.4989" stop-color="#95D8D9"/>
<stop offset="0.5567" stop-color="#88D3D4"/>
<stop offset="0.6082" stop-color="#83D1D2"/>
<stop offset="0.6562" stop-color="#79CDCE"/>
<stop offset="0.8254" stop-color="#58C1C2"/>
<stop offset="0.9187" stop-color="#4CBCBE"/>
</linearGradient>
<linearGradient id="paint12_linear_3352_8563" x1="201.951" y1="79.7085" x2="145.094" y2="78.9345" gradientUnits="userSpaceOnUse">
<stop offset="0.0256" stop-color="#C1E8E9"/>
<stop offset="0.5526" stop-color="#83D1D2"/>
<stop offset="0.8876" stop-color="#4CBCBE"/>
</linearGradient>
<linearGradient id="paint13_linear_3352_8563" x1="234.596" y1="305.613" x2="145.973" y2="144.365" gradientUnits="userSpaceOnUse">
<stop offset="0.0256" stop-color="#C1E8E9"/>
<stop offset="0.5526" stop-color="#83D1D2"/>
<stop offset="0.8876" stop-color="#4CBCBE"/>
</linearGradient>
<linearGradient id="paint14_linear_3352_8563" x1="234.596" y1="305.613" x2="145.973" y2="144.365" gradientUnits="userSpaceOnUse">
<stop offset="0.0256" stop-color="#C1E8E9"/>
<stop offset="0.5526" stop-color="#83D1D2"/>
<stop offset="0.8876" stop-color="#4CBCBE"/>
</linearGradient>
<linearGradient id="paint15_linear_3352_8563" x1="237.475" y1="221.952" x2="117.937" y2="145.281" gradientUnits="userSpaceOnUse">
<stop offset="0.0256" stop-color="#C1E8E9"/>
<stop offset="0.5526" stop-color="#83D1D2"/>
<stop offset="0.8876" stop-color="#4CBCBE"/>
</linearGradient>
<linearGradient id="paint16_linear_3352_8563" x1="167.9" y1="22.5784" x2="167.9" y2="278.653" gradientUnits="userSpaceOnUse">
<stop offset="0.0256" stop-color="#C1E8E9"/>
<stop offset="0.5526" stop-color="#83D1D2"/>
<stop offset="0.8876" stop-color="#4CBCBE"/>
</linearGradient>
<linearGradient id="paint17_linear_3352_8563" x1="68.114" y1="21.5462" x2="68.114" y2="278.531" gradientUnits="userSpaceOnUse">
<stop offset="0.0256" stop-color="#C1E8E9"/>
<stop offset="0.5526" stop-color="#83D1D2"/>
<stop offset="0.8876" stop-color="#4CBCBE"/>
</linearGradient>
<linearGradient id="paint18_linear_3352_8563" x1="182.573" y1="203.057" x2="47.7418" y2="59.4338" gradientUnits="userSpaceOnUse">
<stop offset="0.0256" stop-color="#C1E8E9"/>
<stop offset="0.5526" stop-color="#83D1D2"/>
<stop offset="0.8876" stop-color="#4CBCBE"/>
</linearGradient>
<linearGradient id="paint19_linear_3352_8563" x1="57.921" y1="137.55" x2="57.921" y2="221.388" gradientUnits="userSpaceOnUse">
<stop offset="0.1738" stop-color="#C1E8E9"/>
<stop offset="0.1904" stop-color="#BCE6E7"/>
<stop offset="0.3476" stop-color="#94D7D9"/>
<stop offset="0.5021" stop-color="#75CBCD"/>
<stop offset="0.6513" stop-color="#5EC3C5"/>
<stop offset="0.7929" stop-color="#51BEC0"/>
<stop offset="0.9187" stop-color="#4CBCBE"/>
</linearGradient>
<linearGradient id="paint20_linear_3352_8563" x1="79.6832" y1="200.842" x2="83.5154" y2="137.546" gradientUnits="userSpaceOnUse">
<stop offset="0.1738" stop-color="#C1E8E9"/>
<stop offset="0.2642" stop-color="#ACE0E1"/>
<stop offset="0.3871" stop-color="#95D8D9"/>
<stop offset="0.5041" stop-color="#88D3D4"/>
<stop offset="0.6082" stop-color="#83D1D2"/>
<stop offset="0.6562" stop-color="#79CDCE"/>
<stop offset="0.8254" stop-color="#58C1C2"/>
<stop offset="0.9187" stop-color="#4CBCBE"/>
</linearGradient>
<linearGradient id="paint21_linear_3352_8563" x1="212.849" y1="207.466" x2="159.559" y2="152.023" gradientUnits="userSpaceOnUse">
<stop offset="0.1738" stop-color="#C1E8E9"/>
<stop offset="0.2642" stop-color="#ACE0E1"/>
<stop offset="0.3871" stop-color="#95D8D9"/>
<stop offset="0.5041" stop-color="#88D3D4"/>
<stop offset="0.6082" stop-color="#83D1D2"/>
<stop offset="0.6562" stop-color="#79CDCE"/>
<stop offset="0.8254" stop-color="#58C1C2"/>
<stop offset="0.9187" stop-color="#4CBCBE"/>
</linearGradient>
<linearGradient id="paint22_linear_3352_8563" x1="248.98" y1="220.969" x2="160.529" y2="175.372" gradientUnits="userSpaceOnUse">
<stop offset="0.0256" stop-color="#C1E8E9"/>
<stop offset="0.5526" stop-color="#83D1D2"/>
<stop offset="0.8876" stop-color="#4CBCBE"/>
</linearGradient>
<linearGradient id="paint23_linear_3352_8563" x1="242.179" y1="301.446" x2="153.555" y2="140.197" gradientUnits="userSpaceOnUse">
<stop offset="0.0256" stop-color="#C1E8E9"/>
<stop offset="0.5526" stop-color="#83D1D2"/>
<stop offset="0.8876" stop-color="#4CBCBE"/>
</linearGradient>
<linearGradient id="paint24_linear_3352_8563" x1="63.5324" y1="168.879" x2="62.6717" y2="175.181" gradientUnits="userSpaceOnUse">
<stop stop-color="#83D1D2"/>
<stop offset="0.0403" stop-color="#94D7D8"/>
<stop offset="0.1264" stop-color="#B5E3E4"/>
<stop offset="0.1738" stop-color="#C1E8E9"/>
<stop offset="0.2179" stop-color="#CFEDEE"/>
<stop offset="0.2816" stop-color="#DCF2F2"/>
<stop offset="0.3382" stop-color="#E1F4F4"/>
<stop offset="0.3752" stop-color="#CBECEC"/>
<stop offset="0.4379" stop-color="#ACE0E1"/>
<stop offset="0.4989" stop-color="#95D8D9"/>
<stop offset="0.5567" stop-color="#88D3D4"/>
<stop offset="0.6082" stop-color="#83D1D2"/>
<stop offset="0.6562" stop-color="#79CDCE"/>
<stop offset="0.8254" stop-color="#58C1C2"/>
<stop offset="0.9187" stop-color="#4CBCBE"/>
</linearGradient>
<linearGradient id="paint25_linear_3352_8563" x1="101.159" y1="244.075" x2="175.181" y2="240.877" gradientUnits="userSpaceOnUse">
<stop offset="0.1738" stop-color="#C1E8E9"/>
<stop offset="0.1904" stop-color="#BCE6E7"/>
<stop offset="0.3476" stop-color="#94D7D9"/>
<stop offset="0.5021" stop-color="#75CBCD"/>
<stop offset="0.6513" stop-color="#5EC3C5"/>
<stop offset="0.7929" stop-color="#51BEC0"/>
<stop offset="0.9187" stop-color="#4CBCBE"/>
</linearGradient>
<linearGradient id="paint26_linear_3352_8563" x1="170.016" y1="255.494" x2="92.376" y2="236.485" gradientUnits="userSpaceOnUse">
<stop stop-color="#83D1D2"/>
<stop offset="0.0403" stop-color="#94D7D8"/>
<stop offset="0.1264" stop-color="#B5E3E4"/>
<stop offset="0.1738" stop-color="#C1E8E9"/>
<stop offset="0.2179" stop-color="#CFEDEE"/>
<stop offset="0.2816" stop-color="#DCF2F2"/>
<stop offset="0.3382" stop-color="#E1F4F4"/>
<stop offset="0.3752" stop-color="#CBECEC"/>
<stop offset="0.4379" stop-color="#ACE0E1"/>
<stop offset="0.4989" stop-color="#95D8D9"/>
<stop offset="0.5567" stop-color="#88D3D4"/>
<stop offset="0.6082" stop-color="#83D1D2"/>
<stop offset="0.6562" stop-color="#79CDCE"/>
<stop offset="0.8254" stop-color="#58C1C2"/>
<stop offset="0.9187" stop-color="#4CBCBE"/>
</linearGradient>
<linearGradient id="paint27_linear_3352_8563" x1="79.6825" y1="200.842" x2="83.5147" y2="137.546" gradientUnits="userSpaceOnUse">
<stop offset="0.1738" stop-color="#C1E8E9"/>
<stop offset="0.2642" stop-color="#ACE0E1"/>
<stop offset="0.3871" stop-color="#95D8D9"/>
<stop offset="0.5041" stop-color="#88D3D4"/>
<stop offset="0.6082" stop-color="#83D1D2"/>
<stop offset="0.6562" stop-color="#79CDCE"/>
<stop offset="0.8254" stop-color="#58C1C2"/>
<stop offset="0.9187" stop-color="#4CBCBE"/>
</linearGradient>
<linearGradient id="paint28_linear_3352_8563" x1="212.849" y1="207.466" x2="159.56" y2="152.023" gradientUnits="userSpaceOnUse">
<stop offset="0.1738" stop-color="#C1E8E9"/>
<stop offset="0.2642" stop-color="#ACE0E1"/>
<stop offset="0.3871" stop-color="#95D8D9"/>
<stop offset="0.5041" stop-color="#88D3D4"/>
<stop offset="0.6082" stop-color="#83D1D2"/>
<stop offset="0.6562" stop-color="#79CDCE"/>
<stop offset="0.8254" stop-color="#58C1C2"/>
<stop offset="0.9187" stop-color="#4CBCBE"/>
</linearGradient>
<linearGradient id="paint29_linear_3352_8563" x1="234.596" y1="305.613" x2="145.972" y2="144.364" gradientUnits="userSpaceOnUse">
<stop offset="0.0256" stop-color="#C1E8E9"/>
<stop offset="0.5526" stop-color="#83D1D2"/>
<stop offset="0.8876" stop-color="#4CBCBE"/>
</linearGradient>
<linearGradient id="paint30_linear_3352_8563" x1="111.235" y1="-16.5268" x2="70.5168" y2="281.601" gradientUnits="userSpaceOnUse">
<stop stop-color="#83D1D2"/>
<stop offset="0.0403" stop-color="#94D7D8"/>
<stop offset="0.1264" stop-color="#B5E3E4"/>
<stop offset="0.1738" stop-color="#C1E8E9"/>
<stop offset="0.2179" stop-color="#CFEDEE"/>
<stop offset="0.2816" stop-color="#DCF2F2"/>
<stop offset="0.3382" stop-color="#E1F4F4"/>
<stop offset="0.3752" stop-color="#CBECEC"/>
<stop offset="0.4379" stop-color="#ACE0E1"/>
<stop offset="0.4989" stop-color="#95D8D9"/>
<stop offset="0.5567" stop-color="#88D3D4"/>
<stop offset="0.6082" stop-color="#83D1D2"/>
<stop offset="0.6562" stop-color="#79CDCE"/>
<stop offset="0.8254" stop-color="#58C1C2"/>
<stop offset="0.9187" stop-color="#4CBCBE"/>
</linearGradient>
<linearGradient id="paint31_linear_3352_8563" x1="52.4658" y1="-21.6273" x2="14.3225" y2="257.648" gradientUnits="userSpaceOnUse">
<stop stop-color="#83D1D2"/>
<stop offset="0.0403" stop-color="#94D7D8"/>
<stop offset="0.1264" stop-color="#B5E3E4"/>
<stop offset="0.1738" stop-color="#C1E8E9"/>
<stop offset="0.2179" stop-color="#CFEDEE"/>
<stop offset="0.2816" stop-color="#DCF2F2"/>
<stop offset="0.3382" stop-color="#E1F4F4"/>
<stop offset="0.3752" stop-color="#CBECEC"/>
<stop offset="0.4379" stop-color="#ACE0E1"/>
<stop offset="0.4989" stop-color="#95D8D9"/>
<stop offset="0.5567" stop-color="#88D3D4"/>
<stop offset="0.6082" stop-color="#83D1D2"/>
<stop offset="0.6562" stop-color="#79CDCE"/>
<stop offset="0.8254" stop-color="#58C1C2"/>
<stop offset="0.9187" stop-color="#4CBCBE"/>
</linearGradient>
<linearGradient id="paint32_linear_3352_8563" x1="163.086" y1="-75.7375" x2="66.8769" y2="628.681" gradientUnits="userSpaceOnUse">
<stop stop-color="#83D1D2"/>
<stop offset="0.0403" stop-color="#94D7D8"/>
<stop offset="0.1264" stop-color="#B5E3E4"/>
<stop offset="0.1738" stop-color="#C1E8E9"/>
<stop offset="0.2179" stop-color="#CFEDEE"/>
<stop offset="0.2816" stop-color="#DCF2F2"/>
<stop offset="0.3382" stop-color="#E1F4F4"/>
<stop offset="0.3752" stop-color="#CBECEC"/>
<stop offset="0.4379" stop-color="#ACE0E1"/>
<stop offset="0.4989" stop-color="#95D8D9"/>
<stop offset="0.5567" stop-color="#88D3D4"/>
<stop offset="0.6082" stop-color="#83D1D2"/>
<stop offset="0.6562" stop-color="#79CDCE"/>
<stop offset="0.8254" stop-color="#58C1C2"/>
<stop offset="0.9187" stop-color="#4CBCBE"/>
</linearGradient>
<linearGradient id="paint33_linear_3352_8563" x1="176.722" y1="-76.1307" x2="80.0624" y2="631.582" gradientUnits="userSpaceOnUse">
<stop stop-color="#83D1D2"/>
<stop offset="0.0403" stop-color="#94D7D8"/>
<stop offset="0.1264" stop-color="#B5E3E4"/>
<stop offset="0.1738" stop-color="#C1E8E9"/>
<stop offset="0.2179" stop-color="#CFEDEE"/>
<stop offset="0.2816" stop-color="#DCF2F2"/>
<stop offset="0.3382" stop-color="#E1F4F4"/>
<stop offset="0.3752" stop-color="#CBECEC"/>
<stop offset="0.4379" stop-color="#ACE0E1"/>
<stop offset="0.4989" stop-color="#95D8D9"/>
<stop offset="0.5567" stop-color="#88D3D4"/>
<stop offset="0.6082" stop-color="#83D1D2"/>
<stop offset="0.6562" stop-color="#79CDCE"/>
<stop offset="0.8254" stop-color="#58C1C2"/>
<stop offset="0.9187" stop-color="#4CBCBE"/>
</linearGradient>
<linearGradient id="paint34_linear_3352_8563" x1="189.351" y1="-67.2561" x2="100.51" y2="583.216" gradientUnits="userSpaceOnUse">
<stop stop-color="#83D1D2"/>
<stop offset="0.0403" stop-color="#94D7D8"/>
<stop offset="0.1264" stop-color="#B5E3E4"/>
<stop offset="0.1738" stop-color="#C1E8E9"/>
<stop offset="0.2179" stop-color="#CFEDEE"/>
<stop offset="0.2816" stop-color="#DCF2F2"/>
<stop offset="0.3382" stop-color="#E1F4F4"/>
<stop offset="0.3752" stop-color="#CBECEC"/>
<stop offset="0.4379" stop-color="#ACE0E1"/>
<stop offset="0.4989" stop-color="#95D8D9"/>
<stop offset="0.5567" stop-color="#88D3D4"/>
<stop offset="0.6082" stop-color="#83D1D2"/>
<stop offset="0.6562" stop-color="#79CDCE"/>
<stop offset="0.8254" stop-color="#58C1C2"/>
<stop offset="0.9187" stop-color="#4CBCBE"/>
</linearGradient>
<linearGradient id="paint35_linear_3352_8563" x1="178.528" y1="112.682" x2="169.059" y2="182.007" gradientUnits="userSpaceOnUse">
<stop stop-color="#83D1D2"/>
<stop offset="0.0403" stop-color="#94D7D8"/>
<stop offset="0.1264" stop-color="#B5E3E4"/>
<stop offset="0.1738" stop-color="#C1E8E9"/>
<stop offset="0.2179" stop-color="#CFEDEE"/>
<stop offset="0.2816" stop-color="#DCF2F2"/>
<stop offset="0.3382" stop-color="#E1F4F4"/>
<stop offset="0.3752" stop-color="#CBECEC"/>
<stop offset="0.4379" stop-color="#ACE0E1"/>
<stop offset="0.4989" stop-color="#95D8D9"/>
<stop offset="0.5567" stop-color="#88D3D4"/>
<stop offset="0.6082" stop-color="#83D1D2"/>
<stop offset="0.6562" stop-color="#79CDCE"/>
<stop offset="0.8254" stop-color="#58C1C2"/>
<stop offset="0.9187" stop-color="#4CBCBE"/>
</linearGradient>
<linearGradient id="paint36_linear_3352_8563" x1="203.828" y1="-60.1959" x2="119.732" y2="555.531" gradientUnits="userSpaceOnUse">
<stop stop-color="#83D1D2"/>
<stop offset="0.0403" stop-color="#94D7D8"/>
<stop offset="0.1264" stop-color="#B5E3E4"/>
<stop offset="0.1738" stop-color="#C1E8E9"/>
<stop offset="0.2179" stop-color="#CFEDEE"/>
<stop offset="0.2816" stop-color="#DCF2F2"/>
<stop offset="0.3382" stop-color="#E1F4F4"/>
<stop offset="0.3752" stop-color="#CBECEC"/>
<stop offset="0.4379" stop-color="#ACE0E1"/>
<stop offset="0.4989" stop-color="#95D8D9"/>
<stop offset="0.5567" stop-color="#88D3D4"/>
<stop offset="0.6082" stop-color="#83D1D2"/>
<stop offset="0.6562" stop-color="#79CDCE"/>
<stop offset="0.8254" stop-color="#58C1C2"/>
<stop offset="0.9187" stop-color="#4CBCBE"/>
</linearGradient>
<linearGradient id="paint37_linear_3352_8563" x1="166.571" y1="-29.2767" x2="119.247" y2="317.215" gradientUnits="userSpaceOnUse">
<stop stop-color="#83D1D2"/>
<stop offset="0.0403" stop-color="#94D7D8"/>
<stop offset="0.1264" stop-color="#B5E3E4"/>
<stop offset="0.1738" stop-color="#C1E8E9"/>
<stop offset="0.2179" stop-color="#CFEDEE"/>
<stop offset="0.2816" stop-color="#DCF2F2"/>
<stop offset="0.3382" stop-color="#E1F4F4"/>
<stop offset="0.3752" stop-color="#CBECEC"/>
<stop offset="0.4379" stop-color="#ACE0E1"/>
<stop offset="0.4989" stop-color="#95D8D9"/>
<stop offset="0.5567" stop-color="#88D3D4"/>
<stop offset="0.6082" stop-color="#83D1D2"/>
<stop offset="0.6562" stop-color="#79CDCE"/>
<stop offset="0.8254" stop-color="#58C1C2"/>
<stop offset="0.9187" stop-color="#4CBCBE"/>
</linearGradient>
<linearGradient id="paint38_linear_3352_8563" x1="182.573" y1="203.057" x2="47.7425" y2="59.4342" gradientUnits="userSpaceOnUse">
<stop offset="0.0256" stop-color="#C1E8E9"/>
<stop offset="0.5526" stop-color="#83D1D2"/>
<stop offset="0.8876" stop-color="#4CBCBE"/>
</linearGradient>
<linearGradient id="paint39_linear_3352_8563" x1="255.503" y1="-32.7959" x2="184.55" y2="54.6555" gradientUnits="userSpaceOnUse">
<stop offset="0.1738" stop-color="#C1E8E9"/>
<stop offset="0.2642" stop-color="#ACE0E1"/>
<stop offset="0.3871" stop-color="#95D8D9"/>
<stop offset="0.5041" stop-color="#88D3D4"/>
<stop offset="0.6082" stop-color="#83D1D2"/>
<stop offset="0.6562" stop-color="#79CDCE"/>
<stop offset="0.8254" stop-color="#58C1C2"/>
<stop offset="0.9187" stop-color="#4CBCBE"/>
</linearGradient>
<linearGradient id="paint40_linear_3352_8563" x1="22.5188" y1="119.128" x2="76.2578" y2="140.838" gradientUnits="userSpaceOnUse">
<stop offset="0.1738" stop-color="#C1E8E9"/>
<stop offset="0.2642" stop-color="#ACE0E1"/>
<stop offset="0.3871" stop-color="#95D8D9"/>
<stop offset="0.5041" stop-color="#88D3D4"/>
<stop offset="0.6082" stop-color="#83D1D2"/>
<stop offset="0.6562" stop-color="#79CDCE"/>
<stop offset="0.8254" stop-color="#58C1C2"/>
<stop offset="0.9187" stop-color="#4CBCBE"/>
</linearGradient>
<linearGradient id="paint41_linear_3352_8563" x1="209.11" y1="211.067" x2="155.82" y2="155.624" gradientUnits="userSpaceOnUse">
<stop offset="0.1738" stop-color="#C1E8E9"/>
<stop offset="0.2642" stop-color="#ACE0E1"/>
<stop offset="0.3871" stop-color="#95D8D9"/>
<stop offset="0.5041" stop-color="#88D3D4"/>
<stop offset="0.6082" stop-color="#83D1D2"/>
<stop offset="0.6562" stop-color="#79CDCE"/>
<stop offset="0.8254" stop-color="#58C1C2"/>
<stop offset="0.9187" stop-color="#4CBCBE"/>
</linearGradient>
</defs>
</svg>
