<svg width="44" height="44" viewBox="0 0 44 44" fill="none" xmlns="http://www.w3.org/2000/svg">
<path d="M22.2674 21.5384C22.5622 6.98031 22.4695 11.5636 22.5153 9.28083C29.6882 9.42562 34.2862 14.6061 34.1414 21.779C31.858 21.7331 36.8255 21.8333 22.2674 21.5384Z" fill="white"/>
<path d="M22.2673 21.5415C7.70855 21.2466 11.5612 21.3246 9.27783 21.2787C9.42322 14.1058 15.3424 9.1385 22.5152 9.28389C22.4694 11.5666 22.5621 6.98338 22.2673 21.5415Z" fill="white"/>
<circle cx="21.5711" cy="21.5725" r="14.1429" fill="#D9D9D9"/>
<circle cx="22.0009" cy="21.9978" r="12.8571" fill="white"/>
<mask id="mask0_2010_12673" style="mask-type:luminance" maskUnits="userSpaceOnUse" x="3" y="3" width="38" height="38">
<path d="M33.6859 22.0541C34.0547 22.0613 34.5528 22.0715 35.0923 22.0824C35.5128 22.091 35.9582 22.0999 36.3869 22.1088C37.0189 22.1214 37.6143 22.1337 38.0383 22.1422C38.7758 22.1572 39.5133 22.1719 40.2512 22.187C40.0448 32.3705 31.6224 40.4587 21.4388 40.2526C11.2552 40.0462 3.16691 31.6238 3.37315 21.4402C3.57935 11.2567 12.002 3.1682 22.1855 3.37459C32.3691 3.58066 40.4572 12.0034 40.2512 22.187C39.5133 22.1719 38.7758 22.1572 38.0383 22.1422C37.6143 22.1337 37.0189 22.1214 36.3869 22.1088C35.9582 22.0999 35.5128 22.091 35.0923 22.0824C34.5528 22.0715 34.0547 22.0613 33.6859 22.0541Z" fill="white"/>
</mask>
<g mask="url(#mask0_2010_12673)">
<mask id="mask1_2010_12673" style="mask-type:luminance" maskUnits="userSpaceOnUse" x="3" y="3" width="38" height="38">
<path d="M33.6836 22.054C34.0525 22.0614 34.5505 22.0715 35.0899 22.0826C35.5106 22.091 35.9557 22.0999 36.3848 22.1086C37.0167 22.1215 37.6121 22.1335 38.0359 22.142C38.7735 22.1572 39.5112 22.172 40.2488 22.1868C40.0426 32.3705 31.6201 40.4587 21.4364 40.2526C11.2529 40.0462 3.16459 31.6238 3.37084 21.4402C3.57702 11.2566 11.9997 3.16823 22.1833 3.37444C32.367 3.58068 40.455 12.0032 40.2488 22.1868C39.5112 22.172 38.7735 22.1572 38.0359 22.142C37.6121 22.1335 37.0167 22.1215 36.3848 22.1086C35.9557 22.0999 35.5106 22.091 35.0899 22.0826C34.5505 22.0715 34.0525 22.0614 33.6836 22.054Z" fill="white"/>
</mask>
<g mask="url(#mask1_2010_12673)">
<path d="M35.0899 22.1208C35.2503 14.197 30.0078 8.44797 22.084 8.28752C22.0862 8.19307 22.0879 8.09792 22.0897 8.00217C30.0944 8.16442 35.5708 14.1225 35.4092 22.1273C35.301 22.1253 35.1949 22.123 35.0899 22.1208Z" fill="#D54A33"/>
<path d="M35.4093 22.1271C35.5709 14.1222 30.0945 8.16417 22.0898 8.00193C22.0916 7.90618 22.0935 7.80983 22.096 7.71358C30.2781 7.87892 35.8996 13.9512 35.7341 22.1338C35.6254 22.1317 35.5167 22.1296 35.4093 22.1271Z" fill="#D74C34"/>
<path d="M35.7339 22.1326C35.8994 13.95 30.2779 7.87773 22.0958 7.71238C22.0997 7.51908 22.1031 7.32566 22.1073 7.13426C30.548 7.30521 36.5546 13.7048 36.3843 22.1457C36.17 22.1414 35.9513 22.1369 35.7339 22.1326Z" fill="#D94E36"/>
<path d="M22.0851 8.28514C18.1231 8.20492 14.567 9.54373 11.9811 11.893C11.9458 11.8449 11.8977 11.7842 11.8439 11.7169C14.4759 9.30781 18.0887 7.91903 22.0908 7.9998C22.089 8.09555 22.0873 8.1907 22.0851 8.28514Z" fill="#D54A33"/>
<path d="M22.0897 7.99894C18.0876 7.91817 14.4748 9.30695 11.8428 11.7161C11.7896 11.6489 11.7294 11.5756 11.6699 11.5018C14.3363 9.04267 18.0043 7.62781 22.0959 7.71059C22.0934 7.80684 22.0915 7.90319 22.0897 7.99894Z" fill="#D84E35"/>
<path d="M22.0969 7.71093C18.0052 7.62816 14.3372 9.04301 11.6709 11.5021C11.6114 11.4283 11.5519 11.3545 11.4981 11.2872C14.1981 8.77861 17.9221 7.3366 22.1027 7.42128C22.1008 7.51764 22.0988 7.61458 22.0969 7.71093Z" fill="#DE5539"/>
<path d="M22.1035 7.42539C17.9229 7.34071 14.1989 8.78271 11.4988 11.2913C11.4452 11.2235 11.3971 11.1627 11.3613 11.114C14.1081 8.54439 17.8884 7.0517 22.1091 7.13692C22.1073 7.23267 22.1054 7.32903 22.1035 7.42539Z" fill="#E55D3D"/>
<path d="M11.9806 11.8949C9.3952 14.2443 7.77996 17.6041 7.69974 21.5661C7.62629 21.5643 7.55215 21.563 7.47871 21.5612C7.56008 17.5592 9.21136 14.1285 11.8434 11.7188C11.8972 11.7861 11.9453 11.8468 11.9806 11.8949Z" fill="#D54A33"/>
<path d="M11.8426 11.7174C9.21056 14.1272 7.55928 17.5578 7.4779 21.5598C7.40436 21.5587 7.3303 21.5568 7.25676 21.5556C7.33943 17.4646 9.00406 13.9618 11.6697 11.5032C11.7292 11.577 11.7894 11.6503 11.8426 11.7174Z" fill="#D94F36"/>
<path d="M11.6711 11.5024C9.00548 13.961 7.34085 17.4638 7.25818 21.5548C7.18473 21.553 7.11058 21.5517 7.03703 21.5506C7.12171 17.37 8.79838 13.7955 11.4983 11.2875C11.5521 11.3547 11.6116 11.4286 11.6711 11.5024Z" fill="#E1583C"/>
<path d="M11.4994 11.2902C8.79939 13.7982 7.12272 17.3727 7.03804 21.5533C6.964 21.5514 6.89046 21.5502 6.81702 21.5484C6.90214 17.3283 8.61554 13.6825 11.3618 11.1128C11.3976 11.1616 11.4457 11.2223 11.4994 11.2902Z" fill="#E96242"/>
<path d="M7.69905 21.5635C7.61882 25.5255 9.06175 29.0445 11.5152 31.5934C11.4774 31.6373 11.4272 31.6927 11.3711 31.7539C8.87406 29.1475 7.39715 25.5614 7.47802 21.5587C7.55146 21.5605 7.6256 21.5618 7.69905 21.5635Z" fill="#D54A33"/>
<path d="M7.4786 21.5596C7.39773 25.5623 8.87464 29.1484 11.3717 31.7548C11.3156 31.8161 11.2535 31.8831 11.1913 31.9508C8.66087 29.2997 7.17478 25.6464 7.25746 21.5554C7.331 21.5566 7.40506 21.5585 7.4786 21.5596Z" fill="#D94F36"/>
<path d="M7.25839 21.5557C7.17572 25.6468 8.6618 29.3 11.1923 31.9511C11.1296 32.0181 11.0674 32.0857 11.0113 32.147C8.44874 29.4509 6.95267 25.7314 7.03724 21.5515C7.11079 21.5527 7.18495 21.5539 7.25839 21.5557Z" fill="#E2593D"/>
<path d="M7.03572 21.5518C6.95114 25.7318 8.44721 29.4512 11.0098 32.1473C10.9536 32.2091 10.9034 32.2646 10.8655 32.309C8.25932 29.5554 6.72886 25.7676 6.81469 21.547C6.88813 21.5487 6.96167 21.5499 7.03572 21.5518Z" fill="#EB6445"/>
<path d="M11.5159 31.5972C13.9694 34.1455 17.4333 35.7243 21.3952 35.8045C21.3939 35.8936 21.3921 35.9819 21.3903 36.0702C17.3882 35.9894 13.8696 34.3637 11.3718 31.7577C11.428 31.6965 11.4782 31.6411 11.5159 31.5972Z" fill="#D54A33"/>
<path d="M11.3719 31.7545C13.8696 34.3605 17.3882 35.9862 21.3903 36.067C21.389 36.156 21.3872 36.2443 21.386 36.3327C17.295 36.2501 13.7214 34.6014 11.1915 31.9505C11.2536 31.8828 11.3157 31.8158 11.3719 31.7545Z" fill="#D94F36"/>
<path d="M11.1898 31.9539C13.7197 34.6048 17.2934 36.2534 21.3844 36.3361C21.3831 36.4251 21.3813 36.5135 21.38 36.6025C17.2 36.5179 13.5714 34.8458 11.0089 32.1497C11.065 32.0885 11.1272 32.0208 11.1898 31.9539Z" fill="#E2593C"/>
<path d="M11.012 32.148C13.5746 34.8441 17.2031 36.5162 21.3831 36.6008C21.3818 36.6898 21.3798 36.7793 21.3777 36.8695C17.1577 36.7837 13.4746 35.0635 10.8677 32.3097C10.9056 32.2653 10.9558 32.2099 11.012 32.148Z" fill="#EB6343"/>
<path d="M21.3954 35.8014C25.3579 35.8817 28.7413 34.4421 31.1546 31.9919C31.2059 32.0371 31.2705 32.095 31.341 32.1589C28.8571 34.6641 25.3931 36.1485 21.3905 36.0671C21.3923 35.9787 21.3941 35.8904 21.3954 35.8014Z" fill="#D54A33"/>
<path d="M21.3904 36.0692C25.393 36.1507 28.857 34.6663 31.3409 32.1611C31.412 32.225 31.4895 32.2951 31.5664 32.365C29.0232 34.9135 25.4772 36.4176 21.3861 36.335C21.3873 36.2465 21.3891 36.1582 21.3904 36.0692Z" fill="#D94E35"/>
<path d="M21.3858 36.3309C25.4768 36.4136 29.0228 34.9095 31.566 32.3609C31.6435 32.4309 31.7209 32.5015 31.7925 32.5656C29.1889 35.1567 25.5613 36.6818 21.3814 36.5973C21.3827 36.5082 21.3845 36.4199 21.3858 36.3309Z" fill="#E2563A"/>
<path d="M21.3811 36.6004C25.5611 36.685 29.1887 35.1599 31.7923 32.5688C31.8634 32.6328 31.9286 32.6908 31.9816 32.7369C29.306 35.3841 25.5965 36.9543 21.3757 36.8691C21.3778 36.779 21.3798 36.6895 21.3811 36.6004Z" fill="#EA5E3E"/>
<path d="M31.1537 31.9943C33.5663 29.544 35.0095 26.0834 35.0898 22.1209C35.1948 22.123 35.301 22.1254 35.4091 22.1274C35.3276 26.13 33.8239 29.656 31.3401 32.1613C31.2696 32.0974 31.205 32.0395 31.1537 31.9943Z" fill="#D54A33"/>
<path d="M31.3418 32.161C33.8256 29.6558 35.3293 26.1297 35.4108 22.1271C35.5182 22.1296 35.6269 22.1317 35.7356 22.1339C35.6524 26.2248 34.1109 29.817 31.5672 32.3649C31.4903 32.295 31.4128 32.225 31.3418 32.161Z" fill="#D84D35"/>
<path d="M31.5661 32.3652C34.1098 29.8173 35.6512 26.2251 35.7345 22.1341C35.9519 22.1384 36.1705 22.1428 36.3849 22.1472C36.299 26.3678 34.6575 30.0914 31.982 32.738C31.8766 32.6459 31.7211 32.5052 31.5661 32.3652Z" fill="#DF5137"/>
<path d="M36.386 22.1486C36.4711 17.9285 35.0119 14.2183 32.4771 11.5417C32.6377 11.4045 32.8569 11.2095 33.0624 11.0227C35.7794 13.8656 37.378 17.7825 37.2895 22.1669C37.0085 22.1613 36.7016 22.1551 36.386 22.1486Z" fill="#DF563B"/>
<path d="M37.2889 22.1669C37.3774 17.7824 35.7787 13.8655 33.0617 11.0226C33.2678 10.836 33.4605 10.6582 33.5685 10.5542C36.4288 13.5364 38.1281 17.6332 38.0362 22.1819C37.8243 22.178 37.5699 22.1725 37.2889 22.1669Z" fill="#E96243"/>
<path d="M32.4749 11.5391C29.9393 8.86305 26.3275 7.22041 22.1068 7.13458C22.1126 6.85296 22.1179 6.57746 22.1233 6.31995C26.5083 6.40856 30.3438 8.17733 33.0602 11.0201C32.8547 11.2069 32.6355 11.4019 32.4749 11.5391Z" fill="#E45A3B"/>
<path d="M33.0614 11.0199C30.345 8.17712 26.5095 6.40835 22.1245 6.31974C22.13 6.06163 22.1345 5.8207 22.139 5.6089C26.6882 5.70151 30.7084 7.56943 33.5682 10.5515C33.4603 10.6555 33.2675 10.8332 33.0614 11.0199Z" fill="#EB6340"/>
<path d="M22.1066 7.13125C17.8858 7.04603 14.1056 8.53873 11.3588 11.1083C11.2532 10.9654 11.087 10.7628 10.922 10.5684C13.793 7.8387 17.7381 6.22742 22.123 6.31663C22.1176 6.57414 22.1123 6.84963 22.1066 7.13125Z" fill="#E96240"/>
<path d="M22.1254 6.31733C17.7405 6.22812 13.7954 7.8394 10.9244 10.5691C10.8415 10.4721 10.7589 10.3771 10.6838 10.2932C13.6088 7.50011 17.6354 5.85355 22.1329 5.94429C22.1308 6.06355 22.1279 6.18823 22.1254 6.31733Z" fill="#ED6741"/>
<path d="M22.1319 5.94812C17.6344 5.85738 13.6078 7.50394 10.6827 10.2971C10.6082 10.2133 10.5407 10.1394 10.489 10.0855C13.4822 7.22197 17.5897 5.51833 22.1389 5.61033C22.1366 5.71652 22.1344 5.82956 22.1319 5.94812Z" fill="#EE6841"/>
<path d="M11.3584 11.1115C8.61212 13.6812 6.89872 17.327 6.8136 21.5471C6.59618 21.5429 6.37936 21.5388 6.16385 21.5342C6.25246 17.1492 8.04997 13.3012 10.9216 10.5716C11.0867 10.766 11.2528 10.9686 11.3584 11.1115Z" fill="#EE6A47"/>
<path d="M10.9226 10.5732C8.051 13.3028 6.25349 17.1508 6.16488 21.5358C6.05748 21.5333 5.94997 21.5313 5.84246 21.5294C5.9339 17.0315 7.75683 13.0911 10.682 10.2974C10.7571 10.3812 10.8397 10.4763 10.9226 10.5732Z" fill="#EF6D48"/>
<path d="M10.6824 10.2971C7.75725 13.0909 5.93432 17.0313 5.84288 21.5292C5.73608 21.5268 5.62988 21.5245 5.52358 21.5227C5.61618 16.9736 7.49527 12.9496 10.4886 10.0855C10.5403 10.1395 10.6078 10.2134 10.6824 10.2971Z" fill="#EF6E48"/>
<path d="M6.81413 21.5478C6.72831 25.7684 8.25876 29.5562 10.865 32.3098C10.7538 32.4405 10.5981 32.5191 10.4434 32.5917C7.70049 29.7922 6.07587 25.9192 6.16438 21.5348C6.37989 21.5394 6.59671 21.5435 6.81413 21.5478Z" fill="#EF6C4A"/>
<path d="M6.16642 21.5347C6.07791 25.9191 7.70252 29.7921 10.4454 32.5916C10.2908 32.6636 10.1372 32.7296 10.0288 32.8328C7.15058 30.0088 5.4328 26.0706 5.52469 21.5219C5.73659 21.5259 5.9509 21.5302 6.16642 21.5347Z" fill="#EF704E"/>
<path d="M10.8659 32.3072C13.4727 35.0609 17.1558 36.7812 21.3758 36.8669C21.3709 37.1325 21.4024 37.1738 21.4342 37.202C17.0493 37.1128 13.1879 35.388 10.4443 32.589C10.599 32.5165 10.7547 32.4379 10.8659 32.3072Z" fill="#EF6A47"/>
<path d="M10.4436 32.5926C13.1873 35.3916 17.0487 37.1164 21.4336 37.2056C21.4648 37.2338 21.497 37.2485 21.4931 37.4604C16.9439 37.3678 12.9052 35.6579 10.027 32.8338C10.1354 32.7306 10.289 32.6646 10.4436 32.5926Z" fill="#EF6C48"/>
<path d="M21.3757 36.8706C25.5965 36.9559 29.306 35.3856 31.9816 32.7384C32.1366 32.8747 32.3663 32.961 32.5829 33.0407C29.7377 35.727 25.8185 37.2943 21.4341 37.2058C21.4023 37.1775 21.3708 37.1363 21.3757 36.8706Z" fill="#EE6341"/>
<path d="M21.4329 37.2021C25.8173 37.2906 29.7365 35.7233 32.5816 33.037C32.7982 33.1167 33.0022 33.19 33.1061 33.2979C30.1308 36.0033 26.0411 37.5488 21.4924 37.4569C21.4964 37.245 21.4641 37.2303 21.4329 37.2021Z" fill="#EE6541"/>
<path d="M31.9825 32.7348C34.658 30.0882 36.2995 26.3647 36.3854 22.144C36.7009 22.1505 37.0079 22.1567 37.2889 22.1624C37.2003 26.5474 35.4287 30.3514 32.5837 33.0371C32.3672 32.9574 32.1374 32.8711 31.9825 32.7348Z" fill="#EA5B3C"/>
<path d="M32.5832 33.038C35.4283 30.3523 37.1998 26.5483 37.2884 22.1633C37.5694 22.1689 37.8238 22.1744 38.0357 22.1783C37.9437 26.7276 36.0825 30.5934 33.1077 33.2989C33.0038 33.1909 32.7998 33.1177 32.5832 33.038Z" fill="#ED6241"/>
<path d="M38.0379 22.1765C38.0842 19.9019 37.6821 17.7405 36.9112 15.775C37.0673 15.7497 37.2337 15.6959 37.4051 15.6273C38.2135 17.6536 38.6385 19.8709 38.5913 22.1881C38.4067 22.1838 38.2226 22.1802 38.0379 22.1765Z" fill="#EF6A49"/>
<path d="M38.5888 22.1888C38.6361 19.8716 38.2111 17.6543 37.4027 15.628C37.574 15.5601 37.7507 15.4782 37.9269 15.3956C38.7565 17.4911 39.1909 19.7893 39.1422 22.1999C38.9576 22.1961 38.7735 22.1925 38.5888 22.1888Z" fill="#ED6948"/>
<path d="M36.9097 15.7778C36.1389 13.8123 34.9986 12.0426 33.5687 10.5516C33.6632 10.4615 33.7829 10.3465 33.9157 10.2194C35.4031 11.7703 36.5951 13.6044 37.4036 15.6301C37.2322 15.6986 37.0658 15.7525 36.9097 15.7778Z" fill="#EF6A46"/>
<path d="M37.4034 15.632C36.5949 13.6063 35.4029 11.7722 33.9155 10.2213C34.049 10.0943 34.195 9.95526 34.3405 9.81605C35.8728 11.4129 37.0979 13.3046 37.9276 15.3996C37.7514 15.4822 37.5747 15.5641 37.4034 15.632Z" fill="#EF704D"/>
<path d="M39.1427 22.2022C39.3273 22.2059 39.5114 22.2095 39.6961 22.2133C39.7214 20.9614 39.6231 19.7408 39.4117 18.5626C39.2302 18.596 39.0475 18.6391 38.8643 18.6821C39.0707 19.8198 39.167 20.9972 39.1427 22.2022Z" fill="#E76545"/>
<path d="M38.8648 18.6778C39.048 18.6348 39.2306 18.5917 39.4122 18.5583C39.2016 17.3797 38.8778 16.2434 38.452 15.1612C38.2808 15.2291 38.1039 15.3116 37.9278 15.3937C38.3426 16.4417 38.6584 17.5401 38.8648 18.6778Z" fill="#EB7252"/>
<path d="M39.695 22.2124C39.879 22.216 40.0637 22.2197 40.2483 22.224C40.2741 20.9505 40.1701 19.7054 39.9484 18.5001C39.7722 18.5046 39.5922 18.5284 39.4107 18.5617C39.622 19.7399 39.7203 20.9605 39.695 22.2124Z" fill="#DD6040"/>
<path d="M39.4112 18.5628C39.5928 18.5294 39.7728 18.5057 39.9489 18.5011C39.7279 17.2959 39.3891 16.1305 38.9449 15.0179C38.7887 15.0438 38.6223 15.0977 38.451 15.1656C38.8768 16.2478 39.2006 17.3841 39.4112 18.5628Z" fill="#E57657"/>
<path d="M37.927 15.3986C37.0973 13.3036 35.8722 11.4119 34.3398 9.81508C34.4859 9.67597 34.6319 9.53686 34.7647 9.4098C36.3421 11.0526 37.6003 13.0019 38.4512 15.1661C38.28 15.2341 38.1031 15.3166 37.927 15.3986Z" fill="#EF7C5B"/>
<path d="M38.45 15.1667C38.6213 15.0988 38.7877 15.0449 38.9439 15.019C38.4996 13.9065 37.9499 12.8469 37.3074 11.8524C37.1802 11.9085 37.034 11.993 36.8791 12.0928C37.4971 13.056 38.0242 14.0845 38.45 15.1667Z" fill="#EB8769"/>
<path d="M36.8797 12.0935C37.0346 11.9936 37.1808 11.9091 37.3079 11.853C36.6647 10.8589 35.9288 9.92985 35.1117 9.07887C35.0172 9.169 34.8975 9.28402 34.7641 9.41098C35.5527 10.2324 36.2616 11.1303 36.8797 12.0935Z" fill="#F09476"/>
<path d="M33.5675 10.5507C32.1376 9.05963 30.4175 7.8471 28.4861 6.99576C28.5183 6.84066 28.5792 6.67736 28.6543 6.51025C30.6447 7.40124 32.4276 8.66828 33.9145 10.2185C33.7816 10.3455 33.6619 10.4605 33.5675 10.5507Z" fill="#EF6A44"/>
<path d="M33.9158 10.2179C32.4289 8.66774 30.646 7.40069 28.6556 6.5097C28.7308 6.34259 28.8203 6.17107 28.9097 6.00016C30.9693 6.91453 32.809 8.21591 34.3407 9.81266C34.1953 9.95186 34.0493 10.091 33.9158 10.2179Z" fill="#F1764E"/>
<path d="M28.4876 6.99912C26.5562 6.14778 24.4143 5.65773 22.1397 5.61143C22.1433 5.42737 22.1469 5.24391 22.151 5.06055C24.4676 5.1077 26.6654 5.62262 28.6557 6.51361C28.5806 6.68073 28.5198 6.84403 28.4876 6.99912Z" fill="#EF6B43"/>
<path d="M28.6551 6.5086C26.6648 5.61761 24.467 5.10269 22.1504 5.05554C22.1538 4.87268 22.1577 4.69052 22.1611 4.50766C24.5715 4.55692 26.8503 5.08419 28.9092 5.99906C28.8198 6.16997 28.7303 6.34149 28.6551 6.5086Z" fill="#F17A4D"/>
<path d="M34.3398 9.81107C32.808 8.21433 30.9683 6.91294 28.9087 5.99857C28.9982 5.82706 29.0877 5.65555 29.1635 5.48854C31.2915 6.4268 33.188 7.76308 34.7647 9.40579C34.6318 9.53285 34.4858 9.67197 34.3398 9.81107Z" fill="#F38963"/>
<path d="M34.7646 9.40911C33.1879 7.76641 31.2914 6.43012 29.1634 5.49187C29.2385 5.32475 29.2987 5.16134 29.331 5.00624C31.5181 5.98415 33.4774 7.37436 35.1122 9.07701C35.0178 9.16713 34.8981 9.28215 34.7646 9.40911Z" fill="#F39E7E"/>
<path d="M28.9103 6.00212C26.8515 5.08725 24.5727 4.55998 22.1622 4.51073C22.1661 4.32857 22.1701 4.1464 22.1736 3.96294C24.6773 4.0136 27.0364 4.55373 29.1651 5.49209C29.0893 5.6591 28.9998 5.83061 28.9103 6.00212Z" fill="#F48F65"/>
<path d="M29.1634 5.4942C27.0348 4.55584 24.6757 4.01571 22.1719 3.96505C22.1754 3.78219 22.1795 3.59883 22.1832 3.41417C24.7288 3.46628 27.1438 4.03127 29.331 5.00857C29.2988 5.16367 29.2386 5.32709 29.1634 5.4942Z" fill="#F6A987"/>
<path d="M22.1395 5.6092C19.8648 5.56351 17.7007 5.96645 15.7307 6.73843C15.7055 6.58236 15.6521 6.41662 15.5845 6.24664C17.6136 5.43684 19.8334 5.01167 22.1507 5.05832C22.1466 5.24168 22.1431 5.42514 22.1395 5.6092Z" fill="#EF6D42"/>
<path d="M22.1494 5.05878C19.8321 5.01213 17.6123 5.4373 15.5832 6.2471C15.5157 6.07713 15.4341 5.90232 15.3531 5.72761C17.4501 4.89698 19.7502 4.46235 22.1601 4.5109C22.1567 4.69376 22.1528 4.87592 22.1494 5.05878Z" fill="#F17C4D"/>
<path d="M15.731 6.73817C13.7616 7.51025 11.9861 8.65258 10.4898 10.0841C10.3996 9.99023 10.2857 9.87075 10.1611 9.73829C11.716 8.24909 13.5552 7.05608 15.5849 6.24638C15.6524 6.41636 15.7058 6.5821 15.731 6.73817Z" fill="#EF6F45"/>
<path d="M15.5824 6.24367C13.5528 7.05337 11.7136 8.24637 10.1587 9.73558C10.0333 9.60362 9.89712 9.45871 9.76093 9.31378C11.3598 7.78052 13.2547 6.5547 15.3523 5.72418C15.4333 5.89889 15.5149 6.0737 15.5824 6.24367Z" fill="#F17E50"/>
<path d="M22.1621 4.51033C17.3416 4.41312 12.962 6.25021 9.76371 9.31664C9.62692 9.17161 9.49072 9.02668 9.36547 8.89412C12.653 5.73917 17.1665 3.86132 22.1734 3.96254C22.1699 4.14601 22.166 4.32817 22.1621 4.51033Z" fill="#F49164"/>
<path d="M22.1734 3.96171C17.1665 3.86049 12.653 5.73833 9.3655 8.89328C9.24075 8.76143 9.12693 8.64195 9.03681 8.54752C12.4414 5.27835 17.0925 3.30771 22.1847 3.41083C22.181 3.59549 22.1768 3.77885 22.1734 3.96171Z" fill="#F7AC88"/>
<path d="M10.488 10.0862C8.99108 11.5182 7.77333 13.2399 6.91736 15.173C6.76286 15.1409 6.60196 15.0804 6.43797 15.0052C7.33218 13.0141 8.60386 11.2295 10.1594 9.74042C10.284 9.87288 10.3978 9.99237 10.488 10.0862Z" fill="#EF724A"/>
<path d="M10.1595 9.74015C8.604 11.2293 7.33232 13.0138 6.43811 15.0049C6.27462 14.9304 6.10802 14.8411 5.94143 14.7518C6.85771 12.6919 8.16231 10.8515 9.76176 9.31835C9.89795 9.46328 10.0342 9.60819 10.1595 9.74015Z" fill="#F18056"/>
<path d="M6.91942 15.1715C6.06416 17.104 5.57138 19.2473 5.52508 21.5219C5.34112 21.5177 5.16018 21.514 4.98164 21.5107C5.02818 19.194 5.54572 16.9953 6.44003 15.0037C6.60402 15.0789 6.76492 15.1393 6.91942 15.1715Z" fill="#EF744F"/>
<path d="M6.43843 15.0038C5.54412 16.9955 5.02658 19.1941 4.98004 21.5108C4.80089 21.5074 4.62425 21.5038 4.44702 21.5001C4.49568 19.0896 5.02486 16.8105 5.94174 14.7507C6.10834 14.84 6.27494 14.9293 6.43843 15.0038Z" fill="#F1825C"/>
<path d="M9.76459 9.3149C8.16514 10.8481 6.86054 12.6885 5.94426 14.7483C5.77766 14.6591 5.61038 14.5703 5.44699 14.4951C6.38585 12.3672 7.72284 10.4702 9.36635 8.89238C9.4916 9.02494 9.6278 9.16987 9.76459 9.3149Z" fill="#F4946C"/>
<path d="M9.36482 8.89067C7.72131 10.4685 6.38432 12.3655 5.44546 14.4934C5.28136 14.4188 5.12107 14.3585 4.96597 14.3262C5.94327 12.139 7.33408 10.1798 9.03613 8.54491C9.12626 8.63934 9.24007 8.75882 9.36482 8.89067Z" fill="#F7AD8D"/>
<path d="M5.94201 14.7469C5.02512 16.8067 4.49594 19.0858 4.44729 21.4963C4.27066 21.4927 4.09343 21.489 3.91489 21.4857C3.96555 18.9819 4.50577 16.6222 5.44474 14.4937C5.60813 14.5688 5.77541 14.6576 5.94201 14.7469Z" fill="#F39572"/>
<path d="M5.44451 14.4989C4.50555 16.6275 3.96533 18.9872 3.91467 21.4909C3.73563 21.4869 3.55468 21.4832 3.37062 21.4796C3.42212 18.9338 3.98711 16.5188 4.96502 14.3317C5.12012 14.3639 5.28042 14.4243 5.44451 14.4989Z" fill="#F6AD90"/>
<path d="M5.52442 21.5226C5.47882 23.7967 5.88512 25.9185 6.66279 27.825C6.50673 27.8503 6.34351 27.9109 6.17623 27.9882C5.36246 26.0124 4.93383 23.8279 4.98098 21.5113C5.15951 21.5147 5.34046 21.5184 5.52442 21.5226Z" fill="#F07452"/>
<path d="M4.98002 21.5091C4.93287 23.8257 5.3615 26.0102 6.17528 27.986C6.00861 28.0634 5.83839 28.1581 5.66819 28.2529C4.83482 26.1871 4.39845 23.9083 4.447 21.4984C4.62423 21.5021 4.80087 21.5057 4.98002 21.5091Z" fill="#F1825F"/>
<path d="M6.66183 27.8249C7.4396 29.7308 8.58876 31.4214 10.0276 32.8334C9.93364 32.9242 9.81503 33.0586 9.68405 33.2151C8.18905 31.7318 6.98965 29.964 6.17527 27.9881C6.34254 27.9108 6.50576 27.8502 6.66183 27.8249Z" fill="#EF724F"/>
<path d="M6.17512 27.9856C6.9895 29.9615 8.1889 31.7293 9.6839 33.2126C9.55342 33.3698 9.41007 33.5484 9.2672 33.7277C7.73008 32.1703 6.50081 30.3182 5.66804 28.2525C5.83824 28.1577 6.00845 28.063 6.17512 27.9856Z" fill="#F07D59"/>
<path d="M4.44717 21.4973C4.27054 21.4937 4.09331 21.49 3.91477 21.4867C3.88894 22.7379 3.98743 23.9572 4.1992 25.133C4.37507 25.0968 4.55084 25.0501 4.72722 25.0035C4.52002 23.8743 4.42289 22.7023 4.44717 21.4973Z" fill="#F39473"/>
<path d="M4.72717 25.0045C4.55079 25.0511 4.37502 25.0978 4.19915 25.134C4.41032 26.3097 4.73466 27.4424 5.16065 28.5196C5.32732 28.4422 5.4975 28.3475 5.66831 28.2528C5.25162 27.2199 4.93427 26.1342 4.72717 25.0045Z" fill="#F29270"/>
<path d="M3.91492 21.4875C3.73588 21.4835 3.55493 21.4798 3.37087 21.4762C3.34511 22.7491 3.44849 23.9946 3.67017 25.2C3.84691 25.1955 4.02288 25.1699 4.19935 25.1338C3.98758 23.958 3.88909 22.7387 3.91492 21.4875Z" fill="#F6AC90"/>
<path d="M4.19958 25.1353C4.02311 25.1714 3.84714 25.197 3.6704 25.2015C3.89148 26.4067 4.23027 27.5716 4.67451 28.6841C4.83057 28.6588 4.99441 28.5983 5.16108 28.5209C4.73509 27.4437 4.41075 26.311 4.19958 25.1353Z" fill="#F4A78A"/>
<path d="M5.66935 28.2552C6.50212 30.3209 7.73139 32.1731 9.26852 33.7304C9.12576 33.9091 8.98239 34.0877 8.85191 34.2449C7.27317 32.6143 6.01355 30.6771 5.16169 28.522C5.32836 28.4446 5.49854 28.3499 5.66935 28.2552Z" fill="#EF8B6A"/>
<path d="M5.16184 28.5202C6.0137 30.6753 7.27332 32.6125 8.85206 34.2431C8.72108 34.3996 8.60238 34.5346 8.50854 34.6249C6.8736 32.9228 5.56374 30.9084 4.67527 28.6834C4.83133 28.6582 4.99517 28.5976 5.16184 28.5202Z" fill="#EE9C80"/>
<path d="M10.0286 32.8308C11.468 34.2428 13.197 35.3763 15.1352 36.1687C15.103 36.3237 15.0422 36.5199 14.9666 36.7378C12.9709 35.8967 11.1805 34.6966 9.68503 33.2125C9.81601 33.056 9.93462 32.9216 10.0286 32.8308Z" fill="#EF6D4A"/>
<path d="M9.68417 33.214C11.1797 34.6981 12.9701 35.8983 14.9657 36.7393C14.8908 36.9567 14.8008 37.1944 14.7112 37.4328C12.6486 36.5477 10.8041 35.2858 9.26747 33.7291C9.41034 33.5498 9.55369 33.3713 9.68417 33.214Z" fill="#EE734F"/>
<path d="M15.134 36.1721C17.0716 36.9638 19.2189 37.4144 21.4935 37.4607C21.4892 37.6447 21.4853 37.8677 21.4799 38.1104C19.1633 38.0632 16.9617 37.5817 14.9654 36.7412C15.041 36.5233 15.1018 36.3272 15.134 36.1721Z" fill="#EF6844"/>
<path d="M14.9653 36.7374C16.9617 37.578 19.1633 38.0594 21.4799 38.1066C21.4752 38.3487 21.4697 38.6105 21.4642 38.8724C19.0543 38.8238 16.7734 38.316 14.7108 37.4309C14.8004 37.1925 14.8905 36.9547 14.9653 36.7374Z" fill="#EB6845"/>
<path d="M9.26694 33.7297C10.8036 35.2863 12.648 36.5482 14.7107 37.4334C14.6211 37.6718 14.531 37.9095 14.4561 38.1269C12.3265 37.1983 10.4286 35.8741 8.85033 34.2442C8.98081 34.087 9.12418 33.9084 9.26694 33.7297Z" fill="#E87857"/>
<path d="M8.8518 34.2409C10.43 35.8709 12.3279 37.195 14.4576 38.1236C14.382 38.3415 14.3212 38.5376 14.289 38.6927C12.1019 37.7148 10.1426 36.3246 8.50827 34.6226C8.60211 34.5324 8.72082 34.3974 8.8518 34.2409Z" fill="#DF7E61"/>
<path d="M14.7122 37.4327C14.6226 37.6711 14.5325 37.9089 14.4576 38.1262C15.5218 38.591 16.6441 38.9565 17.8132 39.2128C17.8553 38.9769 17.9067 38.7221 17.9588 38.4669C16.829 38.2234 15.7435 37.8753 14.7122 37.4327Z" fill="#E16645"/>
<path d="M17.9595 38.4645C17.9074 38.7197 17.856 38.9745 17.8139 39.2104C18.9832 39.466 20.1992 39.6124 21.4511 39.6377C21.4559 39.3949 21.4613 39.1337 21.4662 38.8718C20.2612 38.8475 19.0885 38.7084 17.9595 38.4645Z" fill="#DE603F"/>
<path d="M14.4567 38.1291C14.3812 38.347 14.3204 38.5431 14.2882 38.6982C15.3817 39.1872 16.5322 39.5729 17.7276 39.8428C17.7392 39.6663 17.771 39.451 17.8124 39.2157C16.6432 38.9594 15.5209 38.5939 14.4567 38.1291Z" fill="#CF6144"/>
<path d="M17.8132 39.2131C17.7719 39.4484 17.7401 39.6637 17.7284 39.8402C18.9238 40.1101 20.164 40.2643 21.4369 40.29C21.4411 40.1061 21.4451 39.8824 21.4504 39.6404C20.1985 39.615 18.9825 39.4687 17.8132 39.2131Z" fill="#CA573A"/>
<path d="M21.4937 37.4595C26.0424 37.5514 30.132 36.0059 33.1074 33.3006C33.1976 33.3944 33.3124 33.5339 33.4395 33.6959C30.3441 36.5404 26.114 38.203 21.4802 38.1092C21.4855 37.8666 21.4895 37.6435 21.4937 37.4595Z" fill="#EF6641"/>
<path d="M21.4803 38.1071C26.1142 38.2009 30.3443 36.5382 33.4397 33.6937C33.5668 33.8557 33.7063 34.0403 33.8457 34.2254C30.6557 37.2126 26.285 38.9707 21.4646 38.8728C21.4701 38.611 21.4757 38.3492 21.4803 38.1071Z" fill="#EA6340"/>
<path d="M21.4644 38.8735C23.8749 38.9222 26.1724 38.5069 28.2668 37.7068C28.3477 37.9484 28.4286 38.1901 28.4964 38.4103C26.3319 39.2519 23.9525 39.69 21.4493 39.6394C21.4541 39.3967 21.4595 39.1354 21.4644 38.8735Z" fill="#DE5D3C"/>
<path d="M21.45 39.6421C23.9531 39.6927 26.3325 39.2546 28.497 38.413C28.5642 38.6331 28.6177 38.8317 28.6434 38.9885C26.4185 39.8763 23.9828 40.3434 21.4365 40.2918C21.4407 40.1078 21.4447 39.8842 21.45 39.6421Z" fill="#C85336"/>
<path d="M28.2666 37.7059C30.3604 36.9051 32.2506 35.7188 33.8453 34.2251C33.9847 34.4096 34.1242 34.5941 34.2513 34.7561C32.6093 36.3212 30.6602 37.567 28.4962 38.4094C28.4284 38.1891 28.3475 37.9475 28.2666 37.7059Z" fill="#DD5E3D"/>
<path d="M28.4961 38.4102C30.6601 37.5679 32.6092 36.322 34.2512 34.757C34.3783 34.919 34.4931 35.0585 34.5833 35.1523C32.8813 36.7872 30.8675 38.0972 28.6425 38.9857C28.6167 38.8289 28.5633 38.6303 28.4961 38.4102Z" fill="#C95437"/>
<path d="M33.1066 33.2981C34.594 31.9451 35.8028 30.3024 36.6518 28.4296C36.807 28.4612 36.9705 28.5282 37.1386 28.6122C36.2503 30.5534 34.9861 32.2712 33.4387 33.6935C33.3116 33.5315 33.1968 33.392 33.1066 33.2981Z" fill="#EF6743"/>
<path d="M33.4404 33.6943C34.9878 32.272 36.252 30.5543 37.1403 28.613C37.309 28.6971 37.4815 28.7992 37.6541 28.9006C36.741 30.9307 35.4411 32.7322 33.8464 34.2259C33.707 34.0408 33.5676 33.8563 33.4404 33.6943Z" fill="#EA6442"/>
<path d="M36.6511 28.4284C37.4996 26.5548 37.9882 24.4511 38.0339 22.1764C38.2186 22.1801 38.4026 22.1837 38.5872 22.1881C38.5407 24.5047 38.0269 26.6699 37.1379 28.6111C36.9698 28.5271 36.8063 28.46 36.6511 28.4284Z" fill="#EF6845"/>
<path d="M37.1391 28.614C38.0281 26.6729 38.5419 24.5077 38.5884 22.191C38.7731 22.1947 38.9572 22.1983 39.1418 22.202C39.0927 24.6119 38.5661 26.8716 37.653 28.9016C37.4803 28.8002 37.3079 28.6981 37.1391 28.614Z" fill="#EB6644"/>
<path d="M33.8452 34.2265C35.4399 32.7329 36.7398 30.9313 37.6529 28.9013C37.8255 29.0028 37.9987 29.1049 38.1668 29.1889C37.2288 31.3077 35.8932 33.1925 34.2512 34.7576C34.1241 34.5956 33.9846 34.4111 33.8452 34.2265Z" fill="#DE5F3E"/>
<path d="M34.2503 34.7583C35.8922 33.1932 37.2278 31.3084 38.1658 29.1896C38.3338 29.2741 38.498 29.3407 38.6531 29.3729C37.6752 31.5601 36.285 33.5194 34.5824 35.1536C34.4922 35.0597 34.3774 34.9203 34.2503 34.7583Z" fill="#CB5638"/>
<path d="M37.6539 28.902C37.9996 29.1057 38.3448 29.3086 38.655 29.373C39.6323 27.1858 40.1974 24.7708 40.2495 22.2251C39.8802 22.2171 39.5115 22.2098 39.1428 22.2024C39.0936 24.6123 38.567 26.872 37.6539 28.902Z" fill="#E06141"/>
</g>
</g>
<path d="M21.819 21.8197C22.0453 10.6391 21.9739 14.1592 22.0095 12.4057C27.5182 12.5171 31.0498 16.4958 30.9379 22.0045C29.1844 21.9689 32.9996 22.046 21.819 21.8197Z" fill="white"/>
<path d="M21.8178 21.8185C10.6367 21.5921 13.5955 21.652 11.8419 21.6164C11.9532 16.1081 16.4997 12.2927 22.0083 12.4045C21.9728 14.1581 22.0442 10.6379 21.8178 21.8185Z" fill="white"/>
<path d="M30.9359 22.0033C31.0478 16.4946 27.5162 12.5159 22.0075 12.4045C22.0241 11.5751 22.0526 10.1737 22.0692 9.34489C29.0568 9.48613 34.42 15.0835 34.2783 22.0711C33.4495 22.054 31.7652 22.0199 30.9359 22.0033Z" fill="white"/>
<path d="M22.0097 12.4081C16.5011 12.2963 11.9546 16.1117 11.8433 21.62C11.0139 21.6034 10.1406 21.5856 9.31124 21.569C9.45295 14.5815 15.0843 9.20691 22.0714 9.34855C22.0548 10.1774 22.0263 11.5788 22.0097 12.4081Z" fill="white"/>
<path d="M34.2791 22.0741C34.5625 22.0799 34.8459 22.0856 35.1293 22.0913C35.1667 20.2399 34.8328 18.4749 34.1958 16.8657C33.9248 16.9918 33.6538 17.1184 33.4139 17.1574C34.0059 18.6672 34.3146 20.3269 34.2791 22.0741Z" fill="white"/>
<path d="M33.4137 17.1534C33.6535 17.1145 33.9246 16.9879 34.1956 16.8617C33.5585 15.2525 32.6178 13.7994 31.4406 12.5734C31.2167 12.7871 30.9923 13.0008 30.8479 13.1399C31.9463 14.285 32.8216 15.6441 33.4137 17.1534Z" fill="white"/>
<path d="M35.1286 22.0903C35.166 20.2389 34.8322 18.4739 34.1951 16.8647C34.3307 16.8014 34.4662 16.7381 34.598 16.6858C35.2513 18.3484 35.5921 20.1762 35.5535 22.0989C35.4115 22.096 35.2701 22.0932 35.1286 22.0903Z" fill="white"/>
<path d="M35.5533 22.0969C35.592 20.1742 35.2512 18.3463 34.5978 16.6838C34.7291 16.6314 34.857 16.5902 34.977 16.5705C35.6591 18.2792 36.018 20.1499 35.9782 22.1054C35.8367 22.1026 35.6948 22.0997 35.5533 22.0969Z" fill="white"/>
<path d="M34.1954 16.8636C33.5584 15.2543 32.6176 13.8012 31.4405 12.5752C31.5527 12.4681 31.665 12.3611 31.7669 12.2635C32.9784 13.5253 33.9443 15.0225 34.5982 16.6847C34.4665 16.737 34.3309 16.8003 34.1954 16.8636Z" fill="white"/>
<path d="M34.5991 16.6851C33.9452 15.0229 32.9793 13.5257 31.7678 12.2639C31.8702 12.1663 31.9623 12.0783 32.0346 12.0092C33.29 13.3163 34.2957 14.863 34.9783 16.5718C34.8583 16.5915 34.7304 16.6327 34.5991 16.6851Z" fill="white"/>
<path d="M30.8479 13.1393C28.6513 10.8485 25.5639 9.41389 22.0698 9.34346C22.0755 9.06008 22.0812 8.77963 22.0869 8.49964C25.7893 8.57438 29.0869 10.1201 31.4406 12.5729C31.2167 12.7866 30.9923 13.0002 30.8479 13.1393Z" fill="white"/>
<path d="M31.4407 12.5725C31.6652 12.3584 31.8892 12.1447 32.0339 12.0061C30.7786 10.6985 29.2735 9.6309 27.5938 8.87962C27.5447 9.11779 27.4072 9.38102 27.2697 9.64425C28.8511 10.3465 30.2641 11.3461 31.4407 12.5725Z" fill="white"/>
<path d="M27.2678 9.64699C27.4053 9.38377 27.5428 9.12054 27.5919 8.88236C25.9122 8.13155 24.0577 7.69798 22.1022 7.65818C22.0965 7.94156 22.0908 8.22155 22.0851 8.50201C23.9365 8.53942 25.6864 8.94475 27.2678 9.64699Z" fill="white"/>
<path d="M22.0697 9.34762C15.0826 9.20599 9.45127 14.5805 9.30956 21.5681C9.02617 21.5623 8.75445 21.5566 8.48265 21.5514C8.63253 14.1472 14.6826 8.35393 22.0868 8.5038C22.0812 8.78379 22.0754 9.06425 22.0697 9.34762Z" fill="white"/>
<path d="M22.0872 8.50288C14.683 8.35301 8.63294 14.1463 8.48307 21.5505C8.21135 21.5447 7.93957 21.5395 7.65619 21.5337C7.81478 13.7125 14.2831 7.50046 22.1044 7.65905C22.0986 7.94243 22.093 8.22242 22.0872 8.50288Z" fill="white"/>
<path d="M9.31041 21.5651C9.02703 21.5593 8.75531 21.5536 8.48351 21.5484C8.44618 23.3993 8.78155 25.1495 9.42144 26.7359C9.68307 26.5902 9.94462 26.445 10.1845 26.4055C9.58732 24.9415 9.275 23.3118 9.31041 21.5651Z" fill="white"/>
<path d="M10.183 26.4084C9.94303 26.4479 9.68148 26.5931 9.41985 26.7388C10.0593 28.3251 11.0037 29.7477 12.184 30.9436C12.4036 30.6689 12.6236 30.3942 12.768 30.2551C11.6629 29.1705 10.7802 27.8725 10.183 26.4084Z" fill="white"/>
<path d="M8.483 21.5533C8.21129 21.5476 7.9395 21.5424 7.65612 21.5366C7.6365 22.5142 7.71619 23.4705 7.88607 24.3962C8.1574 24.3898 8.42755 24.3179 8.69816 24.2462C8.53886 23.3791 8.46438 22.4786 8.483 21.5533Z" fill="white"/>
<path d="M8.69679 24.2417C8.42617 24.3134 8.15602 24.3852 7.88469 24.3917C8.05457 25.3175 8.31471 26.2122 8.65599 27.0666C8.89591 27.0271 9.15745 26.8819 9.41955 26.7363C9.09957 25.9434 8.85553 25.1092 8.69679 24.2417Z" fill="white"/>
<path d="M9.4217 26.7366C9.15959 26.8822 8.89806 27.0274 8.65813 27.0669C9.34068 28.7756 10.3464 30.3223 11.6018 31.6299C11.7465 31.4914 11.9662 31.2162 12.1858 30.9414C11.0055 29.7456 10.0611 28.323 9.4217 26.7366Z" fill="white"/>
<path d="M12.7688 30.2537C13.8739 31.3383 15.2021 32.209 16.6905 32.8169C16.6661 32.9363 16.6194 33.0869 16.5612 33.2541C15.0282 32.6081 13.6531 31.6867 12.5053 30.5469C12.6056 30.4266 12.6964 30.3232 12.7688 30.2537Z" fill="white"/>
<path d="M12.5053 30.5454C13.6532 31.6853 15.0282 32.6066 16.5613 33.2526C16.5037 33.4194 16.4345 33.6027 16.3659 33.7856C14.7817 33.1057 13.3651 32.1366 12.1848 30.9407C12.2949 30.8031 12.4044 30.666 12.5053 30.5454Z" fill="white"/>
<path d="M16.6906 32.8177C18.1789 33.4261 19.8279 33.7722 21.5746 33.8076C21.5718 33.9491 21.5683 34.1205 21.5648 34.3066C19.7851 34.2705 18.0944 33.9009 16.5614 33.2549C16.6195 33.0877 16.6662 32.9371 16.6906 32.8177Z" fill="white"/>
<path d="M16.5611 33.2517C18.0941 33.8977 19.7848 34.2673 21.5645 34.3034C21.5605 34.4894 21.5565 34.6904 21.5524 34.8914C19.7015 34.8541 17.9495 34.464 16.3657 33.7846C16.4343 33.6017 16.5035 33.4184 16.5611 33.2517Z" fill="white"/>
<path d="M12.186 30.9437C13.3663 32.1396 14.7829 33.1087 16.3671 33.7886C16.298 33.9714 16.229 34.1543 16.1713 34.3211C14.5358 33.6078 13.0781 32.5909 11.8659 31.3392C11.9664 31.2185 12.0764 31.0814 12.186 30.9437Z" fill="white"/>
<path d="M11.8647 31.3358C13.0769 32.5876 14.5346 33.6045 16.1701 34.3177C16.1119 34.4849 16.0652 34.636 16.0409 34.7549C14.3612 34.0041 12.8561 32.936 11.6007 31.6289C11.6731 31.5594 11.7643 31.4561 11.8647 31.3358Z" fill="white"/>
<path d="M16.367 33.7869C17.9508 34.4662 19.7027 34.8563 21.5537 34.8937C21.5496 35.0947 21.5455 35.2957 21.542 35.4818C19.6189 35.4431 17.8061 35.033 16.1712 34.3194C16.2288 34.1526 16.2979 33.9697 16.367 33.7869Z" fill="white"/>
<path d="M16.1701 34.3177C16.1119 34.4849 16.0652 34.636 16.0409 34.7549C16.8805 35.1305 17.7645 35.4265 18.6824 35.6339C18.691 35.4983 18.7154 35.3328 18.7477 35.1521C17.8494 34.9552 16.9876 34.6745 16.1701 34.3177Z" fill="white"/>
<path d="M18.7488 35.1523C18.7165 35.3331 18.6922 35.4986 18.6835 35.6342C19.6014 35.8417 20.5542 35.9597 21.5317 35.9798C21.5346 35.8379 21.538 35.6669 21.5421 35.4804C20.5805 35.4611 19.6467 35.3486 18.7488 35.1523Z" fill="white"/>
<path d="M21.5731 33.8082C25.0667 33.8785 28.2078 32.6921 30.4929 30.614C30.5619 30.6863 30.6504 30.7935 30.7481 30.9178C28.3708 33.1024 25.1218 34.3791 21.5633 34.3071C21.5668 34.1211 21.5703 33.9496 21.5731 33.8082Z" fill="white"/>
<path d="M21.5645 34.3029C25.123 34.3749 28.3721 33.0982 30.7493 30.9136C30.8466 31.0378 30.954 31.1798 31.061 31.3217C28.6109 33.6161 25.2547 34.9662 21.5524 34.891C21.5565 34.6899 21.5605 34.4889 21.5645 34.3029Z" fill="white"/>
<path d="M21.5523 34.896C23.4032 34.9338 25.1681 34.615 26.7761 33.9996C26.8387 34.1856 26.901 34.371 26.9528 34.5401C25.2904 35.1867 23.4633 35.5232 21.5407 35.4841C21.5442 35.298 21.5483 35.097 21.5523 34.896Z" fill="white"/>
<path d="M21.5394 35.4809C23.462 35.52 25.2891 35.1835 26.9515 34.5369C27.0033 34.706 27.0442 34.8591 27.064 34.9791C25.3553 35.6612 23.4842 36.0195 21.529 35.9803C21.5319 35.8383 21.5353 35.6673 21.5394 35.4809Z" fill="white"/>
<path d="M26.7772 33.9981C28.3856 33.3833 29.8372 32.4724 31.062 31.3252C31.1689 31.467 31.276 31.6084 31.3736 31.7332C30.1124 32.9351 28.6158 33.8919 26.9539 34.5385C26.902 34.3694 26.8398 34.1841 26.7772 33.9981Z" fill="white"/>
<path d="M26.9511 34.5395C28.613 33.8928 30.1097 32.9361 31.3709 31.7342C31.4686 31.8585 31.5566 31.9656 31.6262 32.0376C30.3191 33.293 28.7723 34.2992 27.0636 34.9818C27.0438 34.8618 27.0029 34.7086 26.9511 34.5395Z" fill="white"/>
<path d="M30.4946 30.6125C31.6371 29.5735 32.5657 28.3119 33.2172 26.8731C33.3365 26.898 33.4621 26.9492 33.5912 27.0136C32.909 28.5046 31.9383 29.8238 30.7498 30.9163C30.6521 30.792 30.5636 30.6848 30.4946 30.6125Z" fill="white"/>
<path d="M30.7506 30.9157C31.939 29.8232 32.9098 28.504 33.592 27.013C33.7216 27.078 33.8538 27.1561 33.9865 27.2343C33.2851 28.7935 32.287 30.1766 31.0622 31.3238C30.9553 31.1819 30.8478 31.0399 30.7506 30.9157Z" fill="white"/>
<path d="M33.2182 26.8726C33.8702 25.4339 34.2447 23.8184 34.2801 22.0716C34.4221 22.0745 34.5636 22.0773 34.7055 22.0803C34.6695 23.8595 34.2749 25.5222 33.5922 27.0131C33.463 26.9487 33.3374 26.8975 33.2182 26.8726Z" fill="white"/>
<path d="M33.5915 27.0131C34.2742 25.5222 34.6688 23.8595 34.7048 22.0803C34.8462 22.0831 34.9877 22.0859 35.1296 22.0888C35.0918 23.9397 34.6874 25.6751 33.986 27.2344C33.8533 27.1562 33.721 27.0781 33.5915 27.0131Z" fill="white"/>
<path d="M31.0599 31.3258C32.2847 30.1786 33.2827 28.7955 33.9841 27.2363C34.1169 27.314 34.2496 27.3921 34.3787 27.457C33.6585 29.0846 32.6328 30.5315 31.3715 31.7339C31.2738 31.6091 31.1668 31.4677 31.0599 31.3258Z" fill="white"/>
<path d="M31.374 31.7325C32.6352 30.5301 33.661 29.0832 34.3812 27.4556C34.5103 27.5201 34.6364 27.5713 34.7552 27.5961C34.0044 29.2759 32.9369 30.7805 31.6293 32.0358C31.5597 31.9639 31.4717 31.8568 31.374 31.7325Z" fill="white"/>
<path d="M33.9862 27.2351C34.2516 27.391 34.5171 27.5473 34.7548 27.5964C35.5061 25.9167 35.9397 24.0618 35.9794 22.1067C35.6961 22.101 35.4127 22.0952 35.1298 22.0896C35.092 23.9405 34.6876 25.6759 33.9862 27.2351Z" fill="white"/>
<mask id="mask2_2010_12673" style="mask-type:luminance" maskUnits="userSpaceOnUse" x="20" y="20" width="11" height="3">
<path d="M21.1613 20.9952C21.0386 21.1214 20.9478 21.2789 20.9021 21.4536C20.8555 21.632 20.8581 21.8229 20.9098 21.9998C20.9605 22.1734 21.0558 22.3281 21.1822 22.4511C21.3716 22.6352 21.631 22.7472 21.9144 22.7432C22.6313 22.733 23.3481 22.7227 24.065 22.7125C25.0587 22.6981 26.0524 22.6841 27.0458 22.6698C27.7629 22.6596 28.4797 22.6493 29.1966 22.6391C29.48 22.6351 29.7358 22.5153 29.9203 22.3257C30.0429 22.1995 30.1337 22.0421 30.1793 21.867C30.2262 21.6886 30.2232 21.4981 30.1715 21.3212C30.1207 21.1475 30.0255 20.9928 29.8993 20.8702C29.7097 20.6861 29.4506 20.5737 29.1671 20.5778C28.4503 20.588 27.7332 20.5982 27.0163 20.6085C26.0229 20.6228 25.0292 20.6372 24.0355 20.6512C23.3187 20.6614 22.6018 20.6716 21.8849 20.6819C21.6014 20.6862 21.3455 20.8056 21.1613 20.9952Z" fill="white"/>
</mask>
<g mask="url(#mask2_2010_12673)">
<mask id="mask3_2010_12673" style="mask-type:luminance" maskUnits="userSpaceOnUse" x="20" y="20" width="11" height="3">
<path d="M21.1587 20.9952C21.0359 21.1214 20.9451 21.2789 20.8994 21.4536C20.8528 21.632 20.8554 21.8229 20.9071 21.9998C20.9578 22.1734 21.0531 22.3281 21.1795 22.4511C21.3689 22.6352 21.6283 22.7472 21.9117 22.7432C22.6286 22.733 23.3454 22.7227 24.0623 22.7125C25.056 22.6981 26.0497 22.6841 27.0431 22.6698C27.7602 22.6596 28.4771 22.6493 29.1939 22.6391C29.4774 22.6351 29.7332 22.5153 29.9176 22.3257C30.0402 22.1995 30.131 22.0421 30.1766 21.867C30.2235 21.6886 30.2205 21.4981 30.1688 21.3212C30.118 21.1475 30.0228 20.9928 29.8966 20.8702C29.707 20.6861 29.4479 20.5737 29.1645 20.5778C28.4476 20.588 27.7305 20.5982 27.0136 20.6085C26.0202 20.6228 25.0265 20.6372 24.0328 20.6512C23.316 20.6614 22.5991 20.6716 21.8822 20.6819C21.5987 20.6862 21.3428 20.8056 21.1587 20.9952Z" fill="white"/>
</mask>
<g mask="url(#mask3_2010_12673)">
<path d="M21.1568 20.9954C21.034 21.1217 20.9432 21.279 20.8975 21.4538C21.1688 21.3843 21.4503 21.3433 21.7368 21.32C21.7514 21.0852 21.7957 20.8683 21.8803 20.6822C21.5968 20.6863 21.3408 20.8058 21.1568 20.9954Z" fill="#EF6A46"/>
<path d="M21.8812 20.678C21.7967 20.8641 21.7523 21.081 21.7377 21.3158C22.48 21.2558 23.2562 21.3149 23.9776 21.3047C23.9818 21.0631 23.9758 20.8398 24.0318 20.6473C23.3151 20.6574 22.5981 20.6677 21.8812 20.678Z" fill="#EF6A46"/>
<path d="M20.8973 21.4526C21.8715 21.2027 22.9767 21.322 23.9764 21.3077C23.9727 21.37 23.9702 21.4324 23.9688 21.4947C22.972 21.5089 21.8427 21.4172 20.8716 21.5883C20.877 21.5426 20.8856 21.4973 20.8973 21.4526Z" fill="#EF6A46"/>
<path d="M20.8729 21.5886C21.8439 21.4175 22.9733 21.5091 23.97 21.495C23.9684 21.5572 23.968 21.6197 23.9687 21.682C22.9786 21.6962 21.8299 21.7288 20.8655 21.7263C20.8648 21.6804 20.8673 21.6343 20.8729 21.5886Z" fill="#ED6845"/>
<path d="M20.8644 21.7252C21.8288 21.7277 22.9775 21.6951 23.9676 21.6809C23.968 21.7431 23.9697 21.8055 23.9723 21.8679C22.9892 21.8818 21.8331 22.0387 20.8757 21.8629C20.8689 21.8173 20.865 21.7713 20.8644 21.7252Z" fill="#E96140"/>
<path d="M20.8772 21.8637C21.8346 22.0394 22.9907 21.8826 23.9738 21.8686C23.9766 21.9308 23.9804 21.9932 23.9853 22.0555C23.0051 22.0695 21.8611 22.2532 20.9067 21.9986C20.8937 21.9544 20.8839 21.9093 20.8772 21.8637Z" fill="#E45A3C"/>
<path d="M20.9049 21.9999C20.9555 22.1734 21.0509 22.3284 21.1772 22.4512C21.3668 22.6351 21.6261 22.7475 21.9095 22.7434C21.8252 22.5642 21.7667 22.3533 21.7387 22.1238C21.4513 22.1077 21.1707 22.0707 20.9049 21.9999Z" fill="#E3583B"/>
<path d="M21.7396 22.1228C21.7677 22.3524 21.8261 22.5633 21.9105 22.7424C22.6272 22.7321 23.3441 22.722 24.0611 22.7117C24.0292 22.5201 24.0101 22.2969 23.9845 22.0558C23.2772 22.0659 22.4848 22.1643 21.7396 22.1228Z" fill="#E3583B"/>
<path d="M24.0313 20.6479C24.0034 20.7442 23.9909 20.8481 23.9848 20.9581C24.4919 20.951 25.0051 20.9435 25.5184 20.9362C25.515 20.8263 25.5143 20.7226 25.5218 20.6265C25.025 20.6336 24.5282 20.6408 24.0313 20.6479Z" fill="#EF6A46"/>
<path d="M25.5224 20.6273C25.5148 20.7234 25.5155 20.827 25.5189 20.937C26.0321 20.9297 26.5456 20.9224 27.0525 20.915C27.0397 20.8052 27.0256 20.7016 27.0129 20.6059C26.516 20.613 26.0192 20.6202 25.5224 20.6273Z" fill="#EF6A46"/>
<path d="M23.9859 20.959C23.9798 21.0693 23.9803 21.1855 23.9783 21.3062C24.4955 21.2988 25.0138 21.2914 25.5323 21.284C25.529 21.1633 25.5229 21.0471 25.5195 20.9371C25.0063 20.9444 24.4931 20.952 23.9859 20.959Z" fill="#EF6A46"/>
<path d="M25.5189 20.9356C25.5223 21.0456 25.5284 21.1618 25.5317 21.2825C26.0499 21.2751 26.5683 21.2676 27.0855 21.2601C27.0772 21.1397 27.0653 21.0235 27.0525 20.9137C26.5456 20.921 26.0321 20.9283 25.5189 20.9356Z" fill="#F36F4C"/>
<path d="M23.9785 21.3065C24.4957 21.299 25.014 21.2917 25.5325 21.2842C25.5332 21.3464 25.5343 21.4088 25.5352 21.471C25.0116 21.4785 24.4881 21.486 23.9708 21.4935C23.9723 21.4312 23.9747 21.3688 23.9785 21.3065Z" fill="#EF6A46"/>
<path d="M23.9687 21.4919C24.4859 21.4844 25.0094 21.4769 25.533 21.4695C25.5338 21.532 25.5347 21.5942 25.5356 21.6565C25.0102 21.6639 24.4848 21.6715 23.9673 21.6789C23.9666 21.6167 23.967 21.5542 23.9687 21.4919Z" fill="#ED6845"/>
<path d="M25.5322 21.287C26.0505 21.2796 26.5688 21.2721 27.086 21.2646C27.0915 21.3271 27.0958 21.3893 27.099 21.4515C26.5817 21.4588 26.0582 21.4663 25.5349 21.4738C25.534 21.4115 25.5329 21.3492 25.5322 21.287Z" fill="#F5714E"/>
<path d="M25.5344 21.4722C26.0577 21.4647 26.5813 21.4572 27.0985 21.4499C27.1019 21.5122 27.104 21.5745 27.1053 21.6368C26.5877 21.6442 26.0622 21.6516 25.537 21.6592C25.5361 21.5969 25.5352 21.5347 25.5344 21.4722Z" fill="#F26D4B"/>
<path d="M23.9667 21.6804C25.0018 21.6655 26.068 21.6502 27.1033 21.6355C27.1044 21.6979 27.1045 21.76 27.1036 21.8224C26.0679 21.8372 25.0073 21.8524 23.9714 21.8674C23.9688 21.805 23.9671 21.7426 23.9667 21.6804Z" fill="#E96140"/>
<path d="M23.9736 21.8672C25.0096 21.8523 26.0701 21.8371 27.1059 21.8223C27.1048 21.8847 27.1028 21.9471 27.0997 22.0094C26.0637 22.0243 25.021 22.0392 23.9851 22.0541C23.9802 21.9918 23.9764 21.9294 23.9736 21.8672Z" fill="#E45A3C"/>
<path d="M23.9858 22.0556C24.0115 22.2967 24.0305 22.5199 24.0624 22.7114C25.0561 22.6972 26.0498 22.6829 27.0432 22.6688C27.0776 22.4764 27.0962 22.2524 27.1004 22.0108C26.0644 22.0258 25.0218 22.0407 23.9858 22.0556Z" fill="#E3583B"/>
<path d="M27.0145 20.6073C27.7314 20.5972 28.4481 20.5869 29.1651 20.5766C29.2049 20.6685 29.2394 20.7681 29.2667 20.8743C28.5363 20.8599 27.7742 20.9063 27.0541 20.9165C27.0413 20.8067 27.0272 20.7031 27.0145 20.6073Z" fill="#EF6A46"/>
<path d="M27.0532 20.9138C27.7732 20.9036 28.5353 20.8571 29.2657 20.8716C29.2931 20.9775 29.3133 21.0899 29.3243 21.207C28.5807 21.1681 27.8092 21.2499 27.0862 21.2602C27.0778 21.1398 27.066 21.0236 27.0532 20.9138Z" fill="#F87452"/>
<path d="M29.164 20.575C29.2436 20.7586 29.3019 20.9741 29.3242 21.2082C29.6114 21.2232 29.8943 21.2561 30.1685 21.3183C30.1178 21.1448 30.0224 20.99 29.8963 20.8673C29.7067 20.6833 29.4474 20.5711 29.164 20.575Z" fill="#EF6A46"/>
<path d="M27.0847 21.2645C27.5857 21.2574 28.1102 21.2159 28.6324 21.204C28.6415 21.2574 28.649 21.3228 28.6544 21.3945C28.127 21.4095 27.5975 21.4441 27.0977 21.4514C27.0945 21.3891 27.0902 21.3269 27.0847 21.2645Z" fill="#FA7756"/>
<path d="M27.0992 21.45C27.599 21.4427 28.1286 21.4081 28.6559 21.3931C28.6615 21.4647 28.6652 21.5428 28.6666 21.6207C28.1361 21.6262 27.6023 21.6296 27.1061 21.6369C27.1048 21.5745 27.1026 21.5123 27.0992 21.45Z" fill="#F77251"/>
<path d="M28.6318 21.2012C29.154 21.1894 29.6742 21.2072 30.1666 21.3186C30.1796 21.3627 30.1894 21.4078 30.1963 21.4535C29.7062 21.3816 29.1813 21.3769 28.6538 21.3917C28.6484 21.32 28.6409 21.2545 28.6318 21.2012Z" fill="#F87452"/>
<path d="M28.6566 21.3907C29.1841 21.3759 29.7089 21.3806 30.199 21.4526C30.2059 21.498 30.2095 21.544 30.2102 21.5901C29.7258 21.6054 29.1981 21.6128 28.6673 21.6184C28.6659 21.5405 28.6622 21.4624 28.6566 21.3907Z" fill="#F46F4E"/>
<path d="M27.1058 21.6356C28.0984 21.6213 29.2404 21.6215 30.2093 21.5911C30.2099 21.6372 30.2076 21.6834 30.2021 21.729C29.2443 21.9334 28.0922 21.8084 27.1061 21.8225C27.107 21.7601 27.1069 21.6979 27.1058 21.6356Z" fill="#EE6748"/>
<path d="M27.1073 21.8226C28.0934 21.8085 29.2455 21.9335 30.2032 21.7291C30.1977 21.7748 30.1892 21.8202 30.1775 21.8648C29.2249 22.1484 28.0842 21.9957 27.1011 22.0096C27.1042 21.9474 27.1063 21.885 27.1073 21.8226Z" fill="#E65C3F"/>
<path d="M27.0996 22.0111C27.0954 22.2526 27.0767 22.4766 27.0423 22.669C27.7593 22.6587 28.4762 22.6484 29.1931 22.6381C29.2739 22.457 29.3272 22.2445 29.3439 22.0147C28.6003 22.0777 27.8089 22.001 27.0996 22.0111Z" fill="#E3583B"/>
<path d="M29.3429 22.0142C29.3262 22.244 29.2729 22.4566 29.1921 22.6376C29.4756 22.6335 29.7316 22.514 29.9156 22.3246C30.0384 22.1981 30.1293 22.0408 30.175 21.8658C29.9096 21.9447 29.6298 21.9897 29.3429 22.0142Z" fill="#E3583B"/>
</g>
</g>
<mask id="mask4_2010_12673" style="mask-type:luminance" maskUnits="userSpaceOnUse" x="20" y="10" width="3" height="13">
<path d="M21.1833 22.4543C21.3097 22.5769 21.467 22.6677 21.6419 22.7133C21.8202 22.7602 22.0109 22.7572 22.1879 22.7055C22.3615 22.655 22.5163 22.5595 22.6391 22.4334C22.8232 22.2438 22.9354 21.9846 22.9314 21.7012C22.9173 20.7148 22.9032 19.7283 22.889 18.7423C22.871 17.479 22.8529 16.216 22.8348 14.953C22.8207 13.9666 22.8066 12.9805 22.7925 11.9941C22.7884 11.7106 22.6688 11.4545 22.4793 11.2704C22.3529 11.1478 22.1954 11.057 22.0205 11.0111C21.8421 10.9645 21.6514 10.9675 21.4745 11.0192C21.301 11.0697 21.1463 11.1652 21.0236 11.2914C20.8394 11.481 20.7272 11.7401 20.7312 12.0236C20.7453 13.01 20.7595 13.9961 20.7736 14.9825C20.7917 16.2454 20.8097 17.5087 20.8278 18.7717C20.842 19.7578 20.8561 20.7442 20.8702 21.7306C20.8742 22.0141 20.9939 22.2699 21.1833 22.4543Z" fill="white"/>
</mask>
<g mask="url(#mask4_2010_12673)">
<mask id="mask5_2010_12673" style="mask-type:luminance" maskUnits="userSpaceOnUse" x="20" y="10" width="3" height="13">
<path d="M21.1814 22.4465C21.3077 22.5691 21.4651 22.6599 21.6399 22.7055C21.8182 22.7523 22.0089 22.7494 22.1859 22.6977C22.3595 22.6472 22.5143 22.5517 22.6371 22.4255C22.8213 22.236 22.9335 21.9768 22.9294 21.6934C22.9153 20.7069 22.9012 19.7205 22.8871 18.7344C22.869 17.4711 22.8509 16.2082 22.8329 14.9452C22.8188 13.9588 22.8046 12.9727 22.7905 11.9863C22.7864 11.7028 22.6668 11.4467 22.4773 11.2626C22.3509 11.14 22.1935 11.0492 22.0186 11.0033C21.8402 10.9567 21.6495 10.9597 21.4725 11.0113C21.2991 11.0619 21.1443 11.1574 21.0216 11.2836C20.8375 11.4732 20.7252 11.7323 20.7293 12.0158C20.7434 13.0022 20.7575 13.9882 20.7717 14.9747C20.7897 16.2376 20.8078 17.5009 20.8259 18.7639C20.84 19.75 20.8541 20.7364 20.8682 21.7228C20.8723 22.0063 20.992 22.2621 21.1814 22.4465Z" fill="white"/>
</mask>
<g mask="url(#mask5_2010_12673)">
<path d="M21.1819 22.4462C21.3082 22.5689 21.4656 22.6596 21.6404 22.7053C21.5717 22.4409 21.5264 22.1652 21.4973 21.883C21.2657 21.8643 21.0518 21.8128 20.8687 21.7227C20.8728 22.0059 20.9926 22.2619 21.1819 22.4462Z" fill="#E3583B"/>
<path d="M20.8687 21.7218C20.9603 21.7669 21.0595 21.8023 21.1648 21.8288C21.1355 21.3306 21.1319 20.8201 21.1339 20.312C21.0347 20.2994 20.9414 20.279 20.8477 20.2422C20.8547 20.7353 20.8616 21.2287 20.8687 21.7218Z" fill="#E75F3F"/>
<path d="M20.8493 20.2423C20.943 20.2791 21.0364 20.2995 21.1355 20.3121C21.1378 19.804 21.1454 19.2983 21.1385 18.8098C21.0283 18.8037 20.9243 18.791 20.828 18.7629C20.835 19.256 20.8423 19.7492 20.8493 20.2423Z" fill="#ED6845"/>
<path d="M21.1664 21.8281C21.2717 21.8546 21.3832 21.8721 21.499 21.8814C21.4472 21.3782 21.4475 20.8539 21.4587 20.3346C21.3404 20.3288 21.235 20.3238 21.1356 20.3112C21.1335 20.8194 21.1372 21.3299 21.1664 21.8281Z" fill="#EB6344"/>
<path d="M21.134 20.3132C21.2334 20.3258 21.3389 20.3308 21.4571 20.3366C21.4683 19.8173 21.491 19.3026 21.484 18.8185C21.3632 18.8164 21.247 18.8169 21.137 18.8109C21.1439 19.2994 21.1363 19.8051 21.134 20.3132Z" fill="#F67151"/>
<path d="M21.6412 22.7053C21.4841 22.1017 21.4494 21.4399 21.4519 20.7739C21.5052 20.7815 21.5739 20.7871 21.6503 20.7906C21.6473 21.4622 21.6692 22.1299 21.7769 22.731C21.7311 22.7256 21.6859 22.7171 21.6412 22.7053Z" fill="#E3583B"/>
<path d="M21.7768 22.73C21.6692 22.1288 21.6473 21.4612 21.6503 20.7896C21.7265 20.7929 21.8103 20.7945 21.8941 20.7938C21.9063 21.4695 21.9157 22.1412 21.9147 22.7374C21.8687 22.7379 21.8226 22.7356 21.7768 22.73Z" fill="#E3583B"/>
<path d="M21.4506 20.7719C21.4529 20.106 21.4923 19.436 21.4834 18.8161C21.5458 18.8198 21.6081 18.8223 21.6704 18.8237C21.6793 19.4411 21.6518 20.117 21.649 20.7886C21.5726 20.7851 21.5039 20.7795 21.4506 20.7719Z" fill="#F87253"/>
<path d="M21.6509 20.7909C21.6537 20.1192 21.6812 19.4434 21.6724 18.826C21.7346 18.8276 21.7971 18.8281 21.8593 18.8274C21.8681 19.4396 21.8826 20.1193 21.8947 20.7951C21.811 20.7958 21.7272 20.7942 21.6509 20.7909Z" fill="#F46E4F"/>
<path d="M21.915 22.7413C21.916 22.145 21.9065 21.4733 21.8944 20.7976C21.9781 20.7969 22.0619 20.7942 22.1382 20.7896C22.1652 21.4662 22.1624 22.139 22.0527 22.7299C22.0071 22.7368 21.9611 22.7406 21.915 22.7413Z" fill="#E3583B"/>
<path d="M22.0517 22.727C22.1615 22.136 22.1642 21.4633 22.1372 20.7866C22.2133 20.7817 22.282 20.7749 22.3351 20.7661C22.3615 21.4395 22.3458 22.1087 22.1865 22.6974C22.1424 22.7104 22.0972 22.7203 22.0517 22.727Z" fill="#E3583B"/>
<path d="M21.8943 20.7959C21.8821 20.1202 21.8676 19.4404 21.8588 18.8282C21.9213 18.8276 21.9836 18.8261 22.0457 18.8233C22.0545 19.4303 22.1111 20.111 22.1381 20.7878C22.0618 20.7925 21.978 20.7952 21.8943 20.7959Z" fill="#ED6547"/>
<path d="M22.1377 20.7872C22.1107 20.1103 22.0541 19.4296 22.0453 18.8227C22.1076 18.82 22.1701 18.8162 22.2323 18.8115C22.241 19.4161 22.3091 20.0933 22.3356 20.7667C22.2824 20.7754 22.2137 20.7823 22.1377 20.7872Z" fill="#E65C3E"/>
<path d="M22.1882 22.6961C22.3619 22.6455 22.5165 22.5502 22.6395 22.4238C22.8235 22.2344 22.9357 21.9749 22.9318 21.6917C22.7565 21.7844 22.5492 21.8501 22.3234 21.8822C22.3002 22.1648 22.258 22.4382 22.1882 22.6961Z" fill="#E3583B"/>
<path d="M22.3225 21.8834C22.5484 21.8512 22.7556 21.7856 22.9309 21.6929C22.9167 20.7064 22.9027 19.7201 22.8885 18.7338C22.697 18.7658 22.4738 18.7848 22.2327 18.8107C22.2462 19.7552 22.4053 20.8766 22.3225 21.8834Z" fill="#E3583B"/>
<path d="M20.8283 18.7607C20.8102 17.4977 20.7923 16.2348 20.7742 14.9716C20.8698 14.9593 20.9735 14.9452 21.0833 14.9322C21.1016 16.2158 21.1203 17.5239 21.1389 18.8076C21.0286 18.8015 20.9247 18.7889 20.8283 18.7607Z" fill="#EF6A46"/>
<path d="M21.1366 18.8121C21.118 17.5285 21.0993 16.2203 21.081 14.9367C21.1908 14.9236 21.3068 14.9116 21.4274 14.9033C21.4462 16.2073 21.4649 17.5157 21.4836 18.8198C21.3627 18.8176 21.2466 18.8181 21.1366 18.8121Z" fill="#FB7756"/>
<path d="M21.4847 18.8191C21.466 17.515 21.4473 16.2066 21.4285 14.9026C21.4909 14.8972 21.553 14.8929 21.6154 14.8895C21.6341 16.194 21.653 17.5224 21.6717 18.8267C21.6094 18.8253 21.5471 18.8228 21.4847 18.8191Z" fill="#FF7B5C"/>
<path d="M21.6712 18.8257C21.6525 17.5215 21.6335 16.1931 21.6149 14.8886C21.6771 14.8854 21.7393 14.8832 21.8018 14.8819C21.8204 16.1868 21.8395 17.5222 21.8581 18.8272C21.7959 18.8279 21.7334 18.8274 21.6712 18.8257Z" fill="#FA7556"/>
<path d="M21.8597 18.8277C21.8411 17.5228 21.822 16.1874 21.8034 14.8824C21.8657 14.8813 21.928 14.8811 21.9902 14.882C22.0089 16.1877 22.0281 17.5172 22.0466 18.8228C21.9845 18.8256 21.9221 18.8271 21.8597 18.8277Z" fill="#F1694B"/>
<path d="M22.0459 18.821C22.0274 17.5153 22.0082 16.1858 21.9895 14.8802C22.0519 14.8811 22.1143 14.8832 22.1768 14.8862C22.1955 16.1918 22.2142 17.5041 22.2329 18.8097C22.1707 18.8145 22.1082 18.8183 22.0459 18.821Z" fill="#E75D40"/>
<path d="M22.2333 18.8109C22.4744 18.7849 22.6976 18.7659 22.889 18.7339C22.8711 17.471 22.853 16.208 22.8349 14.9449C22.6424 14.9117 22.4186 14.8909 22.1772 14.8873C22.1959 16.193 22.2146 17.5052 22.2333 18.8109Z" fill="#E3583B"/>
<path d="M20.7726 14.9749C20.8683 14.9626 20.9719 14.9485 21.0818 14.9354C21.0747 14.4466 21.0526 13.9382 21.0359 13.4274C20.937 13.4452 20.8444 13.4675 20.7514 13.4954C20.7584 13.9886 20.7656 14.4817 20.7726 14.9749Z" fill="#EF6A46"/>
<path d="M20.7509 13.495C20.844 13.4671 20.9366 13.4448 21.0354 13.427C21.0187 12.9161 21.0073 12.4028 21.0226 11.9041C20.918 11.9341 20.8199 11.972 20.7299 12.0156C20.7369 12.5088 20.7439 13.0019 20.7509 13.495Z" fill="#EF6A46"/>
<path d="M21.0817 14.934C21.1915 14.9209 21.3075 14.9088 21.4281 14.9005C21.4212 14.4158 21.384 13.902 21.3576 13.3834C21.2396 13.3942 21.1344 13.4078 21.0358 13.4259C21.0525 13.9368 21.0746 14.4451 21.0817 14.934Z" fill="#FB7756"/>
<path d="M21.035 13.4262C21.1337 13.4081 21.2388 13.3944 21.3569 13.3836C21.3306 12.8651 21.3155 12.3416 21.3528 11.8373C21.2375 11.8504 21.1267 11.873 21.0222 11.9033C21.007 12.402 21.0183 12.9153 21.035 13.4262Z" fill="#F87453"/>
<path d="M20.7315 12.019C20.9118 11.9319 21.124 11.8675 21.3548 11.8414C21.3757 11.5583 21.4134 11.2814 21.4747 11.0145C21.3012 11.0652 21.1465 11.1605 21.0236 11.2867C20.8395 11.4763 20.7274 11.7355 20.7315 12.019Z" fill="#EF6A46"/>
<path d="M21.429 14.8988C21.42 14.278 21.3615 13.6099 21.3401 12.9446C21.3933 12.9354 21.4618 12.9279 21.538 12.9223C21.5601 13.5931 21.607 14.2672 21.6158 14.8857C21.5534 14.8891 21.4913 14.8934 21.429 14.8988Z" fill="#FF7B5C"/>
<path d="M21.6152 14.8891C21.6064 14.2706 21.5595 13.5965 21.5374 12.9257C21.6136 12.9201 21.6974 12.9163 21.7813 12.9145C21.7884 13.5896 21.7933 14.2691 21.8022 14.8824C21.7397 14.8837 21.6774 14.8859 21.6152 14.8891Z" fill="#FA7556"/>
<path d="M21.3388 12.9455C21.3173 12.2805 21.333 11.6183 21.473 11.0093C21.5171 10.9963 21.5622 10.9864 21.6078 10.9796C21.5174 11.5849 21.5146 12.2524 21.5367 12.9232C21.4605 12.9288 21.392 12.9363 21.3388 12.9455Z" fill="#FB7756"/>
<path d="M21.5373 12.9262C21.5152 12.2553 21.518 11.5878 21.6084 10.9825C21.654 10.9759 21.6999 10.972 21.746 10.9714C21.7644 11.5686 21.7739 12.2398 21.7812 12.915C21.6973 12.9168 21.6135 12.9206 21.5373 12.9262Z" fill="#F77252"/>
<path d="M21.8017 14.8817C21.7929 14.2684 21.7879 13.5889 21.7808 12.9138C21.8645 12.912 21.9486 12.9122 22.0247 12.9148C22.017 13.5915 21.98 14.2731 21.9885 14.8813C21.9264 14.8804 21.864 14.8806 21.8017 14.8817Z" fill="#F1694B"/>
<path d="M21.9896 14.8828C21.9811 14.2745 22.0181 13.593 22.0258 12.9163C22.1022 12.9189 22.1709 12.9239 22.2243 12.9312C22.2172 13.6044 22.1682 14.2828 22.1769 14.8888C22.1144 14.8858 22.052 14.8837 21.9896 14.8828Z" fill="#E75D40"/>
<path d="M21.7826 12.9121C21.7753 12.237 21.7657 11.5658 21.7474 10.9685C21.7935 10.9679 21.8395 10.9704 21.8853 10.9758C22.0122 11.565 22.0341 12.2367 22.0265 12.9132C21.9503 12.9106 21.8663 12.9103 21.7826 12.9121Z" fill="#EF6748"/>
<path d="M22.0245 12.915C22.0322 12.2385 22.0102 11.5668 21.8834 10.9776C21.9291 10.9833 21.9744 10.9916 22.0191 11.0033C22.1955 11.5888 22.2303 12.2568 22.223 12.9299C22.1696 12.9226 22.1009 12.9176 22.0245 12.915Z" fill="#E65C3F"/>
<path d="M22.1759 14.8867C22.4173 14.8902 22.6411 14.911 22.8336 14.9442C22.8195 13.9579 22.8053 12.9716 22.7912 11.9854C22.6133 11.8964 22.4045 11.8353 22.178 11.8129C22.2896 12.8172 22.1622 13.9399 22.1759 14.8867Z" fill="#E3583B"/>
<path d="M22.1782 11.8143C22.4046 11.8367 22.6135 11.8978 22.7914 11.9868C22.7873 11.7033 22.6678 11.4473 22.4782 11.2633C22.352 11.1403 22.1943 11.0495 22.0195 11.0039C22.0968 11.2605 22.1468 11.5326 22.1782 11.8143Z" fill="#E3583B"/>
</g>
</g>
<mask id="mask6_2010_12673" style="mask-type:luminance" maskUnits="userSpaceOnUse" x="19" y="19" width="5" height="5">
<path d="M23.0395 21.8314C23.1506 21.8338 23.3761 21.8384 23.4869 21.8403C23.5628 21.842 23.6387 21.8437 23.7145 21.8453C23.6933 22.8922 22.8273 23.7238 21.7804 23.7025C20.7334 23.6813 19.9018 22.8152 19.923 21.7683C19.9442 20.7213 20.8102 19.8898 21.8572 19.9111C22.9042 19.932 23.7358 20.798 23.7145 21.8453C23.6387 21.8437 23.5628 21.842 23.4869 21.8403C23.3761 21.8384 23.1506 21.8338 23.0395 21.8314Z" fill="white"/>
</mask>
<g mask="url(#mask6_2010_12673)">
<mask id="mask7_2010_12673" style="mask-type:luminance" maskUnits="userSpaceOnUse" x="19" y="19" width="5" height="5">
<path d="M23.0402 21.8314C23.1513 21.8338 23.3769 21.8384 23.4877 21.8403C23.5635 21.842 23.6394 21.8437 23.7153 21.8453C23.694 22.8922 22.828 23.7238 21.7812 23.7025C20.7341 23.6813 19.9026 22.8152 19.9237 21.7683C19.945 20.7213 20.8109 19.8898 21.8579 19.9111C22.905 19.932 23.7366 20.798 23.7153 21.8453C23.6394 21.8437 23.5635 21.842 23.4877 21.8403C23.3769 21.8384 23.1513 21.8338 23.0402 21.8314Z" fill="white"/>
</mask>
<g mask="url(#mask7_2010_12673)">
<path d="M21.8225 21.8072C21.8528 20.3104 21.8432 20.7816 21.848 20.5468C22.5855 20.5619 23.0582 21.0945 23.0433 21.8319C22.8085 21.8272 23.3193 21.8375 21.8225 21.8072Z" fill="#ED5E40"/>
<path d="M21.8224 21.8065C20.3256 21.7762 20.7217 21.7842 20.4869 21.7794C20.5019 21.0419 21.1105 20.5312 21.8479 20.5461C21.8432 20.7809 21.8527 20.3097 21.8224 21.8065Z" fill="#ED5E40"/>
<path d="M21.8227 21.8085C21.7924 23.3054 21.8029 22.7867 21.7982 23.0215C21.0607 23.0064 20.4722 22.5189 20.4871 21.7815C20.7219 21.7862 20.3258 21.7782 21.8227 21.8085Z" fill="#ED5E40"/>
<path d="M21.8236 21.8041C23.3204 21.8343 22.8097 21.824 23.0445 21.8288C23.0295 22.5663 22.5365 23.0319 21.7991 23.017C21.8038 22.7822 21.7933 23.3009 21.8236 21.8041Z" fill="#ED5E40"/>
<path d="M23.0444 21.8327C23.0519 21.4641 22.9374 21.1465 22.7289 20.9193C22.7572 20.8921 22.819 20.8375 22.8807 20.7827C23.132 21.0497 23.2766 21.4191 23.2682 21.8373C23.184 21.8356 23.0999 21.8339 23.0444 21.8327Z" fill="#ED5E40"/>
<path d="M23.2663 21.8331C23.2748 21.415 23.1301 21.0456 22.8788 20.7786C22.9406 20.724 23.0024 20.6694 23.0307 20.6421C23.3247 20.9488 23.4995 21.37 23.49 21.8376C23.4345 21.8366 23.3504 21.8349 23.2663 21.8331Z" fill="#EE6444"/>
<path d="M22.728 20.9176C22.5194 20.6904 22.2169 20.5534 21.8482 20.546C21.8493 20.4905 21.8509 20.4158 21.8524 20.3412C22.2705 20.3497 22.6285 20.5142 22.8798 20.7811C22.8181 20.8358 22.7562 20.8904 22.728 20.9176Z" fill="#ED5E40"/>
<path d="M22.8798 20.779C22.6285 20.5122 22.2706 20.3476 21.8524 20.3392C21.8531 20.3019 21.8538 20.2646 21.8545 20.2296C22.3068 20.2387 22.6952 20.4142 22.9683 20.7005C22.9415 20.7244 22.9107 20.7517 22.8798 20.779Z" fill="#EE6241"/>
<path d="M22.9685 20.7017C22.6955 20.4155 22.3071 20.24 21.8548 20.2308C21.8555 20.1959 21.8562 20.1634 21.8568 20.1356C22.3244 20.1451 22.7378 20.3371 23.0319 20.6438C23.0177 20.6574 22.9953 20.6778 22.9685 20.7017Z" fill="#EE6543"/>
<path d="M21.8471 20.545C21.4784 20.5376 21.1418 20.6615 20.8956 20.8796C20.8684 20.8512 20.8225 20.7944 20.7766 20.7375C21.0536 20.4813 21.433 20.3318 21.8513 20.3402C21.8498 20.4149 21.8482 20.4896 21.8471 20.545Z" fill="#ED5E40"/>
<path d="M21.8528 20.3392C21.4345 20.3307 21.055 20.4802 20.7781 20.7364C20.7551 20.7081 20.7322 20.6797 20.7116 20.6548C21.0017 20.3799 21.4027 20.2205 21.8549 20.2296C21.8542 20.2645 21.8535 20.3019 21.8528 20.3392Z" fill="#EE6040"/>
<path d="M21.8534 20.2312C21.4012 20.222 21.0002 20.3814 20.71 20.6564C20.6893 20.6315 20.6711 20.6102 20.6575 20.5961C20.9652 20.3016 21.3876 20.1265 21.8553 20.136C21.8548 20.1637 21.8541 20.1962 21.8534 20.2312Z" fill="#EE6441"/>
<path d="M20.8975 20.8789C20.6512 21.0969 20.4954 21.4089 20.4878 21.7777C20.4324 21.7765 20.3754 21.7754 20.3184 21.7743C20.3269 21.356 20.5015 20.9932 20.7784 20.7369C20.8243 20.7937 20.8702 20.8506 20.8975 20.8789Z" fill="#ED5E40"/>
<path d="M20.7774 20.7377C20.5004 20.994 20.3258 21.3568 20.3174 21.7751C20.2889 21.7745 20.2604 21.7738 20.2321 21.7733C20.2412 21.321 20.4206 20.9309 20.7109 20.6561C20.7315 20.6809 20.7544 20.7093 20.7774 20.7377Z" fill="#EE6141"/>
<path d="M20.7119 20.6575C20.4217 20.9323 20.2423 21.3224 20.2332 21.7747C20.2049 21.7742 20.1767 21.7736 20.1489 21.773C20.1585 21.3053 20.3516 20.8916 20.6594 20.5971C20.673 20.6112 20.6912 20.6326 20.7119 20.6575Z" fill="#EE6744"/>
<path d="M20.4854 21.7816C20.478 22.1503 20.6214 22.4567 20.8588 22.6725C20.8305 22.6998 20.7823 22.7525 20.7342 22.8052C20.4676 22.552 20.3075 22.1964 20.316 21.7782C20.373 21.7793 20.43 21.7805 20.4854 21.7816Z" fill="#ED5E40"/>
<path d="M20.3166 21.7757C20.3082 22.1938 20.4682 22.5495 20.7349 22.8027C20.7108 22.829 20.6866 22.8553 20.6651 22.8785C20.3859 22.6078 20.2221 22.2262 20.2314 21.7739C20.2596 21.7744 20.2881 21.7751 20.3166 21.7757Z" fill="#EE6142"/>
<path d="M20.2311 21.7716C20.2219 22.2239 20.3857 22.6054 20.6648 22.8761C20.6433 22.8994 20.6242 22.9193 20.61 22.933C20.3141 22.6426 20.1375 22.2376 20.1469 21.7699C20.1747 21.7705 20.2028 21.7711 20.2311 21.7716Z" fill="#EE6847"/>
<path d="M20.8603 22.6729C21.0977 22.8889 21.4292 23.0145 21.7979 23.022C21.7967 23.0775 21.7953 23.1477 21.7939 23.2179C21.3757 23.2094 21.0024 23.0587 20.7357 22.8056C20.7838 22.7529 20.8319 22.7002 20.8603 22.6729Z" fill="#ED5E40"/>
<path d="M20.7361 22.8019C21.0028 23.055 21.3761 23.2057 21.7944 23.2142C21.7929 23.2844 21.7915 23.3546 21.7904 23.41C21.3226 23.4006 20.9074 23.2248 20.6114 22.9345C20.6397 22.9073 20.6879 22.8546 20.7361 22.8019Z" fill="#EE6241"/>
<path d="M21.7977 23.0199C22.5351 23.0348 23.028 22.5692 23.0431 21.8317C23.0985 21.8329 23.1827 21.8345 23.2668 21.8362C23.2498 22.6727 22.6301 23.2328 21.7937 23.2158C21.7951 23.1456 21.7965 23.0754 21.7977 23.0199Z" fill="#ED5E40"/>
<path d="M21.7954 23.2158C22.6318 23.2329 23.2515 22.6728 23.2685 21.8363C23.3525 21.838 23.4366 21.8397 23.4921 21.8408C23.4732 22.7762 22.7267 23.4307 21.7914 23.4117C21.7925 23.3563 21.7939 23.286 21.7954 23.2158Z" fill="#EE6240"/>
<path d="M23.4906 21.8413C23.4954 21.6075 23.4541 21.3853 23.3748 21.1832C23.3909 21.1806 23.4079 21.175 23.4256 21.168C23.5087 21.3763 23.5524 21.6044 23.5476 21.8426C23.5287 21.8421 23.5097 21.8417 23.4906 21.8413Z" fill="#EF6A49"/>
<path d="M23.5469 21.8393C23.5516 21.6011 23.5079 21.3731 23.4248 21.1648C23.4424 21.1578 23.4606 21.1493 23.4788 21.141C23.564 21.3563 23.6087 21.5926 23.6038 21.8405C23.5848 21.8401 23.5658 21.8397 23.5469 21.8393Z" fill="#ED6948"/>
<path d="M23.3757 21.1818C23.2965 20.9798 23.1793 20.7978 23.0323 20.6445C23.042 20.6352 23.0542 20.6234 23.0679 20.6104C23.2208 20.7698 23.3434 20.9584 23.4265 21.1667C23.4088 21.1737 23.3918 21.1793 23.3757 21.1818Z" fill="#EF6A46"/>
<path d="M23.4245 21.1664C23.3414 20.9581 23.2189 20.7695 23.066 20.6101C23.0797 20.5971 23.0946 20.5827 23.1097 20.5685C23.2673 20.7326 23.3932 20.9271 23.4785 21.1426C23.4604 21.151 23.4422 21.1594 23.4245 21.1664Z" fill="#EF704C"/>
<path d="M23.603 21.844C23.6219 21.8444 23.6409 21.8448 23.6599 21.8452C23.6624 21.7165 23.6523 21.591 23.6306 21.4698C23.612 21.4732 23.5932 21.4777 23.5743 21.4821C23.5955 21.5991 23.6055 21.7201 23.603 21.844Z" fill="#E76545"/>
<path d="M23.575 21.4791C23.5939 21.4747 23.6127 21.4702 23.6313 21.4667C23.6097 21.3456 23.5764 21.2288 23.5325 21.1175C23.515 21.1245 23.4968 21.133 23.4787 21.1415C23.5214 21.2491 23.5538 21.3621 23.575 21.4791Z" fill="#EB7252"/>
<path d="M23.6632 21.8437C23.6822 21.8441 23.7012 21.8444 23.7201 21.8448C23.7227 21.7139 23.712 21.5858 23.6893 21.462C23.6711 21.4623 23.6526 21.4648 23.6339 21.4682C23.6557 21.5894 23.6658 21.7149 23.6632 21.8437Z" fill="#DD6040"/>
<path d="M23.6305 21.4699C23.6492 21.4665 23.6677 21.464 23.6859 21.4637C23.6631 21.3397 23.6283 21.2199 23.5827 21.1055C23.5666 21.1082 23.5495 21.1137 23.5318 21.1207C23.5756 21.232 23.6089 21.3487 23.6305 21.4699Z" fill="#E57657"/>
<path d="M23.4795 21.1453C23.3942 20.9298 23.2682 20.7353 23.1106 20.5712C23.1256 20.5568 23.1407 20.5425 23.1544 20.5294C23.3165 20.6983 23.4459 20.8988 23.5333 21.1213C23.5157 21.1283 23.4976 21.1368 23.4795 21.1453Z" fill="#EF7B5A"/>
<path d="M23.5348 21.1207C23.5525 21.1137 23.5696 21.1082 23.5857 21.1056C23.54 20.9912 23.4835 20.8822 23.4174 20.7799C23.4043 20.7856 23.3893 20.7944 23.3734 20.8046C23.4369 20.9037 23.4912 21.0094 23.5348 21.1207Z" fill="#EB8769"/>
<path d="M23.3716 20.8031C23.3875 20.7929 23.4025 20.7841 23.4156 20.7784C23.3495 20.6762 23.2738 20.5807 23.1897 20.4932C23.1801 20.5024 23.1677 20.5142 23.1541 20.5273C23.2352 20.6117 23.308 20.7041 23.3716 20.8031Z" fill="#EF9375"/>
<path d="M23.0308 20.6456C22.7367 20.3389 22.3233 20.1469 21.8556 20.1375C21.856 20.1185 21.8564 20.0996 21.8568 20.0808C22.3332 20.0905 22.7606 20.2926 23.0664 20.6114C23.0527 20.6245 23.0405 20.6363 23.0308 20.6456Z" fill="#EF6A44"/>
<path d="M23.0676 20.6101C22.7618 20.2912 22.3343 20.0892 21.858 20.0795C21.8583 20.0607 21.8587 20.042 21.8591 20.0232C22.3547 20.0332 22.7962 20.2402 23.1113 20.5685C23.0962 20.5828 23.0813 20.5971 23.0676 20.6101Z" fill="#F0744D"/>
<path d="M23.11 20.5684C22.9524 20.4042 22.7632 20.2704 22.5515 20.1764C22.5607 20.1587 22.57 20.1411 22.5777 20.1239C22.7965 20.2204 22.9915 20.3578 23.1537 20.5267C23.14 20.5397 23.1249 20.5541 23.11 20.5684Z" fill="#F28662"/>
<path d="M23.1538 20.5244C22.9916 20.3555 22.7966 20.2181 22.5778 20.1216C22.5855 20.1044 22.5918 20.0877 22.595 20.0718C22.8199 20.1722 23.0214 20.3152 23.1894 20.4903C23.1798 20.4995 23.1674 20.5114 23.1538 20.5244Z" fill="#F29C7E"/>
<path d="M22.5515 20.1792C22.3398 20.0851 22.1056 20.0308 21.8578 20.0259C21.8582 20.0071 21.8585 19.9884 21.8589 19.9695C22.1163 19.9747 22.3589 20.0302 22.5777 20.1267C22.57 20.1439 22.5608 20.1615 22.5515 20.1792Z" fill="#F28A63"/>
<path d="M22.579 20.1245C22.3602 20.0281 22.1176 19.9726 21.8602 19.9673C21.8606 19.9485 21.861 19.9296 21.8614 19.9108C22.1231 19.9161 22.3714 19.9741 22.5962 20.0746C22.593 20.0906 22.5867 20.1073 22.579 20.1245Z" fill="#F5A585"/>
<path d="M21.8558 20.1361C21.6219 20.1314 21.3994 20.1728 21.1969 20.2522C21.1942 20.2362 21.1887 20.2191 21.1818 20.2016C21.3904 20.1184 21.6187 20.0747 21.857 20.0795C21.8566 20.0983 21.8562 20.1172 21.8558 20.1361Z" fill="#EF6D42"/>
<path d="M21.8582 20.0811C21.6199 20.0763 21.3917 20.1201 21.1831 20.2033C21.1761 20.1858 21.1677 20.1679 21.1594 20.1499C21.375 20.0645 21.6115 20.0198 21.8593 20.0248C21.859 20.0436 21.8586 20.0624 21.8582 20.0811Z" fill="#F0784B"/>
<path d="M21.1964 20.2528C20.9939 20.3323 20.8114 20.4496 20.6575 20.5969C20.6482 20.5872 20.6365 20.575 20.6237 20.5613C20.7835 20.4083 20.9727 20.2855 21.1813 20.2023C21.1883 20.2198 21.1937 20.2368 21.1964 20.2528Z" fill="#EF6F45"/>
<path d="M21.1825 20.2034C20.9739 20.2867 20.7847 20.4094 20.6248 20.5625C20.612 20.5489 20.598 20.534 20.584 20.5191C20.7483 20.3615 20.9432 20.2354 21.1588 20.1501C21.1671 20.1681 21.1755 20.186 21.1825 20.2034Z" fill="#F07B4E"/>
<path d="M21.8585 20.0227C21.6107 20.0176 21.3741 20.0624 21.1586 20.1478C21.1502 20.1298 21.1418 20.1117 21.1348 20.0943C21.3575 20.0067 21.6023 19.9611 21.8596 19.9663C21.8592 19.9852 21.8589 20.0039 21.8585 20.0227Z" fill="#F28B62"/>
<path d="M21.8615 19.9668C21.6042 19.9616 21.3594 20.0072 21.1367 20.0948C21.1298 20.0773 21.1243 20.0602 21.1217 20.0442C21.3505 19.9528 21.6009 19.9049 21.8627 19.9102C21.8623 19.9291 21.8619 19.9479 21.8615 19.9668Z" fill="#F6A786"/>
<path d="M21.1579 20.1475C20.9422 20.2328 20.7474 20.3589 20.583 20.5165C20.5689 20.5016 20.5549 20.4867 20.5421 20.4731C20.7111 20.3109 20.9115 20.1815 21.1341 20.094C21.1411 20.1115 21.1495 20.1295 21.1579 20.1475Z" fill="#F28E65"/>
<path d="M21.1345 20.0925C20.9119 20.18 20.7114 20.3094 20.5424 20.4716C20.5296 20.4581 20.5179 20.4457 20.5086 20.436C20.6836 20.2679 20.8907 20.1333 21.1194 20.042C21.1221 20.058 21.1276 20.075 21.1345 20.0925Z" fill="#F6A988"/>
<path d="M20.6589 20.5988C20.505 20.7461 20.3798 20.923 20.2918 21.1218C20.2759 21.1185 20.2593 21.1123 20.2425 21.1046C20.3345 20.8998 20.4652 20.7164 20.6251 20.5632C20.6379 20.5769 20.6496 20.5891 20.6589 20.5988Z" fill="#EF724A"/>
<path d="M20.6238 20.5609C20.4639 20.7141 20.3332 20.8975 20.2413 21.1023C20.2244 21.0946 20.2073 21.0855 20.1901 21.0762C20.2843 20.8644 20.4185 20.6752 20.583 20.5176C20.597 20.5325 20.611 20.5473 20.6238 20.5609Z" fill="#F07E55"/>
<path d="M20.2907 21.1202C20.2028 21.3189 20.1521 21.5392 20.1474 21.7731C20.1284 21.7727 20.1098 21.7724 20.0915 21.772C20.0963 21.5338 20.1495 21.3077 20.2415 21.103C20.2583 21.1107 20.2748 21.1169 20.2907 21.1202Z" fill="#EF744F"/>
<path d="M20.2438 21.1018C20.1519 21.3065 20.0986 21.5326 20.0938 21.7708C20.0754 21.7703 20.0573 21.77 20.039 21.7697C20.0441 21.5219 20.0984 21.2875 20.1926 21.0757C20.2098 21.085 20.227 21.0941 20.2438 21.1018Z" fill="#F1815C"/>
<path d="M20.584 20.5152C20.4196 20.6729 20.2854 20.8621 20.1912 21.0739C20.1741 21.0647 20.1569 21.0556 20.1401 21.0479C20.2367 20.829 20.3741 20.6341 20.5431 20.4719C20.5559 20.4854 20.57 20.5003 20.584 20.5152Z" fill="#F3916B"/>
<path d="M20.5421 20.4743C20.3731 20.6365 20.2357 20.8315 20.1392 21.0504C20.1224 21.0426 20.1058 21.0365 20.0898 21.0332C20.1904 20.8083 20.3334 20.6068 20.5083 20.4387C20.5176 20.4484 20.5293 20.4608 20.5421 20.4743Z" fill="#F6AB8C"/>
<path d="M20.1928 21.0744C20.0985 21.2862 20.0442 21.5206 20.0391 21.7684C20.021 21.768 20.0027 21.7677 19.9844 21.7673C19.9896 21.5099 20.0451 21.2672 20.1417 21.0485C20.1585 21.0561 20.1757 21.0653 20.1928 21.0744Z" fill="#F39472"/>
<path d="M20.1407 21.0507C20.0441 21.2694 19.9886 21.5121 19.9834 21.7695C19.965 21.7691 19.9464 21.7687 19.9275 21.7683C19.9328 21.5065 19.9909 21.2583 20.0913 21.0334C20.1073 21.0367 20.1239 21.0429 20.1407 21.0507Z" fill="#F6AC90"/>
<path d="M20.1473 21.7748C20.1426 22.0087 20.1844 22.2268 20.2643 22.4228C20.2484 22.4254 20.2315 22.4316 20.2144 22.4396C20.1306 22.2364 20.0866 22.0118 20.0914 21.7736C20.1098 21.774 20.1283 21.7744 20.1473 21.7748Z" fill="#F07452"/>
<path d="M20.0923 21.7746C20.0875 22.0128 20.1315 22.2374 20.2153 22.4405C20.1981 22.4485 20.1806 22.4583 20.1631 22.468C20.0774 22.2556 20.0325 22.0213 20.0375 21.7735C20.0557 21.7738 20.0739 21.7742 20.0923 21.7746Z" fill="#F1825F"/>
<path d="M20.2651 22.4217C20.345 22.6178 20.4632 22.7916 20.6111 22.9368C20.6014 22.9461 20.5893 22.9599 20.5758 22.976C20.4221 22.8234 20.2988 22.6417 20.2151 22.4386C20.2322 22.4306 20.2491 22.4244 20.2651 22.4217Z" fill="#EF724F"/>
<path d="M20.214 22.4375C20.2977 22.6406 20.421 22.8223 20.5747 22.9749C20.5612 22.9911 20.5466 23.0094 20.5318 23.0278C20.3739 22.8677 20.2474 22.6773 20.1618 22.4649C20.1793 22.4552 20.1969 22.4454 20.214 22.4375Z" fill="#F07D59"/>
<path d="M20.0383 21.7707C20.0201 21.7703 20.0019 21.7699 19.9836 21.7695C19.981 21.8983 19.9911 22.0236 20.0128 22.1444C20.0309 22.1408 20.049 22.136 20.0671 22.1311C20.0458 22.0151 20.0358 21.8946 20.0383 21.7707Z" fill="#F39573"/>
<path d="M20.066 22.1296C20.0479 22.1345 20.0298 22.1393 20.0117 22.1429C20.0334 22.2639 20.0667 22.3802 20.1106 22.491C20.1277 22.4831 20.1452 22.4733 20.1628 22.4636C20.1199 22.3574 20.0873 22.2458 20.066 22.1296Z" fill="#F29270"/>
<path d="M19.9809 21.767C19.9625 21.7667 19.9439 21.7662 19.9249 21.7658C19.9223 21.8967 19.933 22.0248 19.9557 22.1487C19.9739 22.1483 19.992 22.1456 20.0101 22.1419C19.9884 22.021 19.9783 21.8957 19.9809 21.767Z" fill="#F6AC90"/>
<path d="M20.0132 22.1415C19.9951 22.1453 19.977 22.1479 19.9588 22.1483C19.9816 22.2723 20.0165 22.392 20.0621 22.5064C20.0781 22.5038 20.0949 22.4977 20.1121 22.4896C20.0682 22.3788 20.0349 22.2625 20.0132 22.1415Z" fill="#F4A78B"/>
<path d="M20.1625 22.4648C20.2482 22.6772 20.3746 22.8676 20.5325 23.0277C20.5179 23.0461 20.5031 23.0645 20.4897 23.0807C20.3274 22.913 20.1979 22.7138 20.1103 22.4922C20.1275 22.4843 20.145 22.4745 20.1625 22.4648Z" fill="#EF8B6A"/>
<path d="M20.1106 22.4921C20.1982 22.7137 20.3277 22.9128 20.49 23.0805C20.4766 23.0966 20.4644 23.1105 20.4547 23.1197C20.2866 22.9447 20.152 22.7376 20.0606 22.5089C20.0767 22.5062 20.0934 22.5001 20.1106 22.4921Z" fill="#EE9C80"/>
<path d="M20.6104 22.9344C20.7584 23.0795 20.9362 23.1961 21.1355 23.2775C21.1322 23.2934 21.126 23.3136 21.1182 23.336C20.913 23.2495 20.7289 23.1261 20.5752 22.9736C20.5887 22.9575 20.6007 22.9436 20.6104 22.9344Z" fill="#EF6D4A"/>
<path d="M20.5758 22.9743C20.7296 23.1268 20.9137 23.2502 21.1189 23.3367C21.1112 23.359 21.1019 23.3835 21.0927 23.408C20.8806 23.317 20.691 23.1873 20.5329 23.0272C20.5477 23.0088 20.5623 22.9904 20.5758 22.9743Z" fill="#EE734F"/>
<path d="M21.1359 23.2786C21.3352 23.36 21.5559 23.4063 21.7898 23.411C21.7894 23.43 21.7889 23.4529 21.7884 23.4778C21.5502 23.473 21.3238 23.4235 21.1186 23.337C21.1264 23.3147 21.1326 23.2945 21.1359 23.2786Z" fill="#EF6844"/>
<path d="M21.1191 23.3383C21.3243 23.4247 21.5507 23.4742 21.7889 23.479C21.7884 23.504 21.7879 23.5309 21.7873 23.5578C21.5394 23.5528 21.305 23.5006 21.0929 23.4096C21.1021 23.3851 21.1114 23.3606 21.1191 23.3383Z" fill="#EB6845"/>
<path d="M20.5335 23.029C20.6915 23.1891 20.8812 23.3188 21.0932 23.4098C21.0841 23.4343 21.0748 23.4588 21.0671 23.4812C20.8481 23.3856 20.653 23.2496 20.4907 23.082C20.5041 23.0658 20.5189 23.0474 20.5335 23.029Z" fill="#E87857"/>
<path d="M20.4886 23.0828C20.6509 23.2504 20.846 23.3865 21.065 23.482C21.0572 23.5044 21.051 23.5245 21.0477 23.5405C20.8229 23.44 20.6214 23.297 20.4533 23.122C20.463 23.1128 20.4752 23.0989 20.4886 23.0828Z" fill="#DF7E61"/>
<path d="M21.0934 23.4086C21.0843 23.4331 21.075 23.4576 21.0672 23.48C21.1767 23.5276 21.2921 23.5653 21.4122 23.5916C21.4167 23.5674 21.4219 23.5412 21.4272 23.515C21.3111 23.4898 21.1995 23.4541 21.0934 23.4086Z" fill="#E16645"/>
<path d="M21.4253 23.5145C21.42 23.5408 21.4147 23.567 21.4103 23.5912C21.5306 23.6174 21.6556 23.6327 21.7843 23.6351C21.7847 23.6102 21.7854 23.5833 21.7859 23.5564C21.662 23.5538 21.5414 23.5396 21.4253 23.5145Z" fill="#DE603F"/>
<path d="M21.0656 23.4817C21.0579 23.504 21.0516 23.5242 21.0483 23.5402C21.1608 23.5904 21.279 23.6301 21.402 23.6578C21.4032 23.6397 21.4064 23.6175 21.4107 23.5934C21.2906 23.567 21.1751 23.5294 21.0656 23.4817Z" fill="#CF6144"/>
<path d="M21.4116 23.5925C21.4072 23.6167 21.4041 23.6389 21.4029 23.657C21.5258 23.6848 21.6533 23.7007 21.7842 23.7033C21.7846 23.6843 21.785 23.6614 21.7855 23.6364C21.6569 23.6339 21.5318 23.6188 21.4116 23.5925Z" fill="#CA573A"/>
<path d="M21.7904 23.4114C22.258 23.421 22.6785 23.2621 22.9844 22.9839C22.9937 22.9936 23.0055 23.0079 23.0186 23.0246C22.7003 23.3171 22.2654 23.4879 21.7889 23.4782C21.7895 23.4533 21.79 23.4305 21.7904 23.4114Z" fill="#EF6641"/>
<path d="M21.7873 23.4778C22.2638 23.4875 22.6987 23.3166 23.017 23.0241C23.0301 23.0407 23.0443 23.0598 23.0588 23.0788C22.7308 23.3858 22.2814 23.5666 21.7858 23.5566C21.7864 23.5297 21.7869 23.5028 21.7873 23.4778Z" fill="#EA6340"/>
<path d="M21.786 23.5551C22.0338 23.56 22.2701 23.5174 22.4854 23.435C22.4936 23.4599 22.502 23.4847 22.5089 23.5074C22.2864 23.594 22.0418 23.639 21.7844 23.6338C21.7849 23.6089 21.7855 23.5819 21.786 23.5551Z" fill="#DE5D3C"/>
<path d="M21.7843 23.6357C22.0417 23.6409 22.2863 23.5959 22.5088 23.5093C22.5158 23.5319 22.5213 23.5524 22.5238 23.5685C22.2951 23.6598 22.0447 23.7078 21.7829 23.7025C21.7833 23.6836 21.7838 23.6606 21.7843 23.6357Z" fill="#C85336"/>
<path d="M22.4867 23.4377C22.702 23.3554 22.8963 23.2335 23.0603 23.0799C23.0746 23.0988 23.089 23.1178 23.1021 23.1345C22.9332 23.2954 22.7328 23.4235 22.5103 23.51C22.5034 23.4874 22.495 23.4625 22.4867 23.4377Z" fill="#DD5E3D"/>
<path d="M22.509 23.5087C22.7315 23.4221 22.9319 23.294 23.1008 23.1332C23.1138 23.1497 23.1256 23.1642 23.1349 23.1737C22.9599 23.3418 22.7529 23.4765 22.524 23.5679C22.5215 23.5518 22.516 23.5314 22.509 23.5087Z" fill="#C95437"/>
<path d="M22.9848 22.9838C23.1378 22.8448 23.262 22.6759 23.3493 22.4833C23.3653 22.4865 23.3821 22.4934 23.3994 22.5021C23.308 22.7017 23.1781 22.8783 23.019 23.0245C23.0058 23.0078 22.994 22.9935 22.9848 22.9838Z" fill="#EF6743"/>
<path d="M23.0181 23.0273C23.1773 22.881 23.3071 22.7044 23.3985 22.5048C23.4158 22.5135 23.4336 22.5238 23.4514 22.5343C23.3574 22.7431 23.2238 22.9283 23.0599 23.0819C23.0455 23.0629 23.0312 23.0439 23.0181 23.0273Z" fill="#EA6442"/>
<path d="M23.3484 22.4847C23.4357 22.292 23.4859 22.0757 23.4905 21.8418C23.5096 21.8423 23.5286 21.8427 23.5475 21.8431C23.5426 22.0812 23.4899 22.3039 23.3985 22.5035C23.3812 22.4948 23.3644 22.4879 23.3484 22.4847Z" fill="#EF6845"/>
<path d="M23.399 22.503C23.4904 22.3034 23.5432 22.0807 23.548 21.8426C23.567 21.843 23.586 21.8434 23.605 21.8437C23.5999 22.0915 23.5458 22.3238 23.4518 22.5325C23.4341 22.522 23.4163 22.5116 23.399 22.503Z" fill="#EB6644"/>
<path d="M23.0606 23.0808C23.2246 22.9272 23.3582 22.742 23.4521 22.5333C23.4699 22.5438 23.4876 22.5542 23.5049 22.5629C23.4085 22.7808 23.2712 22.9744 23.1023 23.1354C23.0893 23.1188 23.0749 23.0998 23.0606 23.0808Z" fill="#DE5F3E"/>
<path d="M23.1031 23.1343C23.2719 22.9733 23.4093 22.7796 23.5057 22.5617C23.5229 22.5704 23.5398 22.5772 23.5557 22.5805C23.4552 22.8054 23.3122 23.0069 23.1372 23.1749C23.1279 23.1653 23.1161 23.1509 23.1031 23.1343Z" fill="#CB5638"/>
<path d="M23.4515 22.5316C23.4869 22.5526 23.5225 22.5734 23.5543 22.58C23.6549 22.3551 23.713 22.1068 23.7184 21.8451C23.6804 21.8444 23.6425 21.8436 23.6046 21.8427C23.5995 22.0906 23.5454 22.3228 23.4515 22.5316Z" fill="#E06141"/>
</g>
</g>
</svg>
