<svg width="56" height="56" viewBox="0 0 56 56" fill="none" xmlns="http://www.w3.org/2000/svg">
<path fill-rule="evenodd" clip-rule="evenodd" d="M29.9688 8.32812C29.9688 9.74479 29.9688 11.1615 29.9688 12.5781C29.823 12.5781 29.677 12.5781 29.5312 12.5781C28.3645 12.5781 27.198 12.5781 26.0312 12.5781C26.0312 11.1615 26.0312 9.74479 26.0312 8.32812C27.3438 8.16146 28.6562 8.16146 29.9688 8.32812Z" fill="#54575D"/>
<path fill-rule="evenodd" clip-rule="evenodd" d="M25.9766 11.9766C27.1433 11.9766 28.3099 11.9766 29.4766 11.9766C37.3828 13.228 42.7605 17.603 45.6094 25.1016C47.7853 33.0058 45.9442 39.8053 40.0859 45.5C35.0371 49.7213 29.2767 51.1432 22.8047 49.7656C15.6795 47.7619 11.031 43.2228 8.85938 36.1484C8.4412 34.2599 8.20422 32.364 8.14844 30.4609C8.50279 26.1455 10.034 22.3174 12.7422 18.9766C13.3193 18.3708 13.9208 17.7875 14.5469 17.2266C14.5976 17.1616 14.6159 17.0886 14.6016 17.0078C17.8466 14.1467 21.6383 12.4696 25.9766 11.9766Z" fill="url(#paint0_linear_2871_25249)"/>
<path opacity="0.992" fill-rule="evenodd" clip-rule="evenodd" d="M14.6016 17.0078C14.6159 17.0886 14.5976 17.1616 14.5469 17.2266C13.9208 17.7875 13.3193 18.3708 12.7422 18.9766C12.2706 18.432 11.7601 17.9215 11.2109 17.4453C10.9392 17.6622 10.6841 17.8992 10.4453 18.1562C10.2266 18.2292 10.0078 18.2292 9.78906 18.1562C9.19567 17.6364 8.68526 17.0531 8.25781 16.4062C8.29744 16.2723 8.35213 16.1447 8.42188 16.0234C9.53386 14.9114 10.6458 13.7995 11.7578 12.6875C12.013 12.4688 12.2683 12.4688 12.5234 12.6875C12.9427 13.1067 13.362 13.5261 13.7812 13.9453C13.9235 14.1493 13.9601 14.368 13.8906 14.6016C13.6744 14.9091 13.4374 15.2007 13.1797 15.4766C13.656 15.9892 14.1299 16.4997 14.6016 17.0078Z" fill="#51575D"/>
<path opacity="0.973" fill-rule="evenodd" clip-rule="evenodd" d="M42.1641 18.9716C41.4684 18.3489 40.8122 17.6926 40.1953 17.0029C40.7399 16.5313 41.2503 16.0208 41.7266 15.4716C41.5462 15.2365 41.3457 15.0177 41.125 14.8154C40.9748 14.5753 40.9384 14.32 41.0156 14.0498C41.4714 13.594 41.927 13.1383 42.3828 12.6826C42.5868 12.5403 42.8055 12.5038 43.0391 12.5732C44.3052 13.7843 45.5083 15.0421 46.6484 16.3466C46.2808 16.9888 45.8069 17.5539 45.2266 18.042C45.0226 18.1843 44.8038 18.2208 44.5703 18.1513C44.2628 17.9351 43.9712 17.6981 43.6953 17.4404C43.1461 17.9166 42.6357 18.4271 42.1641 18.9716Z" fill="#52575D"/>
<circle cx="27.3438" cy="31.1719" r="16.4062" fill="#F5F3E5"/>
<path d="M14 31.1172C14 33.7455 14.7794 36.3148 16.2396 38.5002C17.6998 40.6856 19.7753 42.3889 22.2036 43.3947C24.6318 44.4005 27.3038 44.6637 29.8816 44.1509C32.4595 43.6381 34.8273 42.3725 36.6858 40.514C38.5444 38.6555 39.81 36.2876 40.3228 33.7098C40.8355 31.1319 40.5724 28.4599 39.5666 26.0317C38.5607 23.6034 36.8574 21.528 34.6721 20.0677C32.4867 18.6075 29.9174 17.8281 27.2891 17.8281L27.2891 31.1172L14 31.1172Z" fill="url(#paint1_linear_2871_25249)"/>
<rect x="22.75" y="4.375" width="10.5" height="3.82812" rx="0.984375" fill="url(#paint2_linear_2871_25249)"/>
<defs>
<linearGradient id="paint0_linear_2871_25249" x1="46.4933" y1="50.274" x2="10.8909" y2="45.0537" gradientUnits="userSpaceOnUse">
<stop stop-color="#39394F"/>
<stop offset="1" stop-color="#8585A2"/>
</linearGradient>
<linearGradient id="paint1_linear_2871_25249" x1="40.5781" y1="44.4062" x2="19.1363" y2="40.7362" gradientUnits="userSpaceOnUse">
<stop stop-color="#E15404"/>
<stop offset="1" stop-color="#FF9050"/>
</linearGradient>
<linearGradient id="paint2_linear_2871_25249" x1="33.25" y1="8.20312" x2="26.1057" y2="4.84903" gradientUnits="userSpaceOnUse">
<stop stop-color="#E15404"/>
<stop offset="1" stop-color="#FF9050"/>
</linearGradient>
</defs>
</svg>
