<?xml version="1.0"?>
<svg width="361" height="243" xmlns="http://www.w3.org/2000/svg" xmlns:svg="http://www.w3.org/2000/svg">
 <g class="layer">
  <title>Layer 1</title>
  <path d="m28.23,242.74c-0.41,0 -0.83,-0.15 -1.15,-0.47c-0.15,-0.15 -0.26,-0.32 -0.34,-0.5c-0.41,-0.45 -1.6,-1.53 -2.42,-2.26c-2.83,-2.57 -3.35,-3.03 -3.37,-3.97c-0.01,-0.45 0.17,-0.91 0.49,-1.23c0.72,-0.71 1.11,-0.78 9.25,-0.16c1.34,0.1 2.91,0.22 4.28,0.31c-1.22,-1.15 -2.74,-2.52 -4.01,-3.67c-6.53,-5.91 -7.02,-6.52 -7.04,-7.59c-0.01,-0.45 0.18,-0.94 0.49,-1.26c1.06,-1.04 1.62,-1.02 13.41,3.62c1.94,0.76 4.22,1.66 6.2,2.4c-1.93,-1.83 -4.36,-4.02 -6.39,-5.87c-9.3,-8.41 -10.71,-9.88 -10.74,-11.23c-0.01,-0.45 0.19,-0.98 0.51,-1.29c1.31,-1.32 2.34,-1 17.28,7.38c2.74,1.53 5.99,3.35 8.72,4.82c-2.7,-2.57 -6.2,-5.74 -9.12,-8.38c-12.23,-11.06 -14.39,-13.29 -14.43,-14.88c-0.01,-0.44 0.21,-1.01 0.53,-1.32c1.48,-1.49 3.03,-0.86 21.05,11.12c4.28,2.84 9.55,6.34 13.32,8.65c-5.18,-5.38 -15.43,-14.66 -23.49,-21.95c-21.49,-19.44 -27.75,-25.49 -27.82,-28.1c-0.01,-0.44 0.25,-1.13 0.57,-1.45c2.26,-2.26 6.19,0.23 39.71,29.74c12.03,10.58 26.46,23.28 33.01,27.82c-6,-7.17 -24.72,-24.1 -40.25,-38.15c-29.99,-27.13 -43.15,-39.43 -43.24,-43.32c-0.02,-0.62 0.2,-1.19 0.62,-1.6c3,-2.98 11.63,4.09 54.45,44.46c18.57,17.53 41.23,38.89 48.64,43.38c-5.26,-7.52 -30.94,-30.75 -51.97,-49.78c-36.62,-33.13 -53.89,-49.26 -54,-53.94c-0.02,-0.67 0.21,-1.27 0.65,-1.71c3.35,-3.33 14.06,5.69 63.82,53.85c22.8,22.05 50.76,49.11 58.43,53.11c-4.59,-7.68 -35.4,-35.55 -60.5,-58.26c-42.14,-38.13 -62,-56.67 -62.14,-61.98c-0.02,-0.89 0.36,-1.46 0.68,-1.78c3.68,-3.67 15.64,6.64 71.21,61.22c26.07,25.62 58.16,57.14 65.97,60.66c-4.01,-7.78 -38.83,-39.28 -67.11,-64.87c-46.5,-42.08 -68.43,-62.53 -68.57,-68.32c-0.02,-0.93 0.37,-1.52 0.7,-1.86c4.12,-4.09 21.04,11.5 77.12,67.15c28.72,28.48 64.13,63.62 72.04,66.71c-3.54,-7.85 -41.56,-42.25 -72.38,-70.13c-49.99,-45.23 -73.57,-67.22 -73.72,-73.4c-0.03,-0.96 0.38,-1.56 0.72,-1.91c2.43,-2.42 9.26,1.86 25.57,16.88c-13.59,-13.23 -21.09,-21.78 -21.17,-25.16c-0.03,-0.98 0.38,-1.59 0.72,-1.94c0.35,-0.35 0.96,-0.76 1.94,-0.76l0,0c2.9,0.01 9.55,4.87 19.65,13.9c-10.33,-10.41 -15.95,-17.25 -16.02,-20.23c-0.03,-0.98 0.39,-1.62 0.74,-1.97c0.35,-0.34 0.97,-0.76 1.96,-0.76c0,0 0,0 0.01,0c2.76,0.01 8.85,4.33 18.02,12.4c-8.65,-8.94 -13.32,-14.89 -13.39,-17.64c-0.02,-1 0.4,-1.63 0.75,-1.99c0.36,-0.35 0.99,-0.77 1.99,-0.77c0,0 0,0 0,0c2.73,0.01 8.59,4.11 17.38,11.79c-7.52,-7.95 -11.56,-13.3 -11.63,-15.87c-0.02,-1.01 0.4,-1.65 0.76,-2.01c0.35,-0.35 0.98,-0.77 2,-0.77c0,0 0,0 0.01,0c2.71,0 8.49,4.02 17.14,11.54c-6.79,-7.29 -10.43,-12.23 -10.49,-14.69c-0.03,-1.01 0.4,-1.66 0.76,-2.02c0.36,-0.35 0.99,-0.78 2,-0.78c0.01,0 0.01,0 0.02,0c2.73,0.01 8.56,4.07 17.28,11.66c-6.35,-6.88 -9.73,-11.58 -9.79,-13.95c-0.03,-1.02 0.39,-1.66 0.76,-2.02c0.35,-0.36 1.05,-0.77 2.01,-0.78c2.77,0.01 8.67,4.13 17.51,11.85c-6.09,-6.66 -9.34,-11.2 -9.4,-13.52c-0.03,-1.02 0.4,-1.67 0.76,-2.03c0.36,-0.35 0.99,-0.77 2,-0.77c0.01,0 0.01,0 0.02,0c2.82,0.01 8.96,4.35 18.17,12.44c-5.87,-6.44 -9.01,-10.86 -9.07,-13.13c-0.03,-1.01 0.4,-1.65 0.76,-2.01c0.35,-0.35 0.98,-0.77 1.99,-0.77c0.01,0 0.01,0 0.01,0c2.9,0 9.29,4.59 18.95,13.14c-5.89,-6.44 -9.04,-10.86 -9.09,-13.12c-0.03,-1.01 0.39,-1.64 0.75,-2c0.35,-0.35 0.98,-0.77 1.98,-0.77c0,0 0.01,0 0.01,0c2.97,0.01 9.7,4.92 19.91,14.03c-6.13,-6.64 -9.4,-11.16 -9.46,-13.45c-0.02,-0.99 0.39,-1.62 0.74,-1.98c0.36,-0.35 0.98,-0.76 1.97,-0.76c0,0 0,0 0.01,0c3.08,0 10.3,5.39 21.33,15.36c-6.48,-6.94 -9.95,-11.64 -10.01,-13.96c-0.02,-0.98 0.39,-1.6 0.74,-1.95c0.35,-0.35 0.96,-0.76 1.94,-0.76c0,0 0,0 0,0c3.24,0 11.13,6.06 23.29,17.19c-7.2,-7.55 -11.07,-12.62 -11.13,-15.04c-0.03,-0.97 0.38,-1.58 0.72,-1.93c2.55,-2.52 9.78,2.17 27.34,18.48c-8.44,-8.62 -12.58,-13.95 -12.64,-16.52c-0.03,-0.96 0.37,-1.56 0.71,-1.9c2.81,-2.8 11.65,3.57 34.84,25.68c-12.97,-12.57 -19.29,-19.89 -19.36,-23c-0.03,-0.93 0.37,-1.53 0.7,-1.86c4.01,-3.99 20.41,11.06 74.78,64.8c27.53,27.21 61.42,60.7 69.52,64.28c-4.04,-7.51 -36.67,-37.03 -63.19,-61.02c-43.86,-39.69 -64.54,-58.98 -64.68,-64.48c-0.02,-0.91 0.37,-1.49 0.69,-1.81c3.59,-3.58 15.35,6.46 69.84,59.84c25.27,24.77 56.31,55.19 64.39,59.18c-4.44,-7.38 -33.84,-33.97 -57.79,-55.64c-40.29,-36.46 -59.29,-54.19 -59.42,-59.29c-0.02,-0.88 0.36,-1.44 0.67,-1.76c3.35,-3.36 14.16,5.75 64.29,54.3c22.74,22.04 50.59,49.01 58.63,53.46c-4.85,-7.2 -30.56,-30.46 -51.58,-49.48c-36.26,-32.8 -53.35,-48.76 -53.47,-53.41c-0.01,-0.66 0.22,-1.26 0.65,-1.7c3.12,-3.13 12.33,4.47 57.92,47.94c19.78,18.85 43.89,41.83 51.87,46.75c-5.25,-6.94 -26.72,-26.36 -44.37,-42.33c-32.33,-29.25 -46.51,-42.5 -46.61,-46.65c-0.02,-0.63 0.21,-1.21 0.63,-1.63c2.83,-2.86 10.36,3.19 50.44,40.46c16.23,15.08 35.81,33.3 43.67,38.67c-5.55,-6.48 -21.91,-21.28 -35.49,-33.57c-26.67,-24.13 -38.37,-35.08 -38.46,-38.6c-0.01,-0.6 0.2,-1.16 0.6,-1.56c2.47,-2.45 8.23,1.93 41.16,31.18c11.53,10.24 25.17,22.36 32.56,27.91c-5.34,-5.46 -15.28,-14.46 -23.14,-21.57c-21.6,-19.54 -27.89,-25.62 -27.95,-28.23c-0.01,-0.45 0.25,-1.14 0.56,-1.46c1.7,-1.7 3.77,-0.69 25.77,15.81c3.38,2.53 7.26,5.44 10.84,8.05c-3.6,-3.34 -3.96,-3.96 -3.98,-4.83c-0.01,-0.45 0.18,-0.94 0.5,-1.26c0.64,-0.64 1.67,-0.64 2.3,0c0.22,0.22 0.37,0.49 0.44,0.78c0.8,1 4.12,4.01 6.59,6.24c7.04,6.37 7.61,7.07 7.63,8.18c0.01,0.44 -0.18,0.94 -0.5,1.26c-1.7,1.7 -3.76,0.69 -25.77,-15.81c-5.63,-4.22 -12.61,-9.46 -17.36,-12.7c5.34,5.46 15.27,14.44 23.12,21.55c21.6,19.54 27.89,25.62 27.95,28.23c0.01,0.45 -0.25,1.14 -0.56,1.46c-2.46,2.44 -8.22,-1.92 -41.15,-31.17c-12.36,-10.98 -27.16,-24.12 -34.06,-29.02c5.87,6.69 21.81,21.12 35.11,33.14c26.68,24.15 38.38,35.09 38.47,38.62c0.01,0.6 -0.2,1.15 -0.61,1.55c-2.83,2.83 -10.36,-3.19 -50.44,-40.46c-16.62,-15.45 -36.78,-34.2 -44.22,-39.05c5.58,7.15 26.72,26.29 44.16,42.07c32.34,29.25 46.52,42.51 46.62,46.65c0.02,0.64 -0.21,1.22 -0.63,1.64c-3.14,3.13 -12.36,-4.51 -57.92,-47.94c-20.03,-19.09 -44.49,-42.41 -52.16,-46.93c5.13,7.39 30.61,30.45 51.48,49.33c36.25,32.79 53.34,48.75 53.46,53.39c0.01,0.66 -0.22,1.27 -0.65,1.71c-3.35,3.35 -14.17,-5.75 -64.3,-54.32c-22.92,-22.2 -51.01,-49.42 -58.8,-53.54c4.66,7.53 33.88,33.97 57.71,55.53c40.3,36.46 59.3,54.19 59.43,59.29c0.02,0.88 -0.36,1.44 -0.67,1.76c-3.62,3.59 -15.34,-6.46 -69.83,-59.84c-25.41,-24.9 -56.64,-55.51 -64.52,-59.24c4.24,7.64 36.73,37.03 63.15,60.93c43.86,39.69 64.54,58.98 64.68,64.48c0.02,0.91 -0.37,1.48 -0.69,1.81c-3.98,3.98 -20.38,-11.03 -74.8,-64.81c-27.63,-27.31 -61.66,-60.94 -69.6,-64.3c3.84,7.73 39.27,39.79 68.04,65.81c47.08,42.6 69.29,63.32 69.43,69.17c0.03,0.93 -0.37,1.53 -0.7,1.86c-4.21,4.17 -21.55,-11.85 -79.07,-69.08c-29.53,-29.39 -65.98,-65.64 -73.97,-68.66c3.48,7.79 41.43,42.12 72.19,69.95c49.86,45.11 73.36,67.04 73.51,73.2c0.03,0.95 -0.37,1.56 -0.71,1.9c-2.44,2.42 -9.15,-1.77 -25.04,-16.35c11.12,11.04 17.19,18.25 17.27,21.28c0.02,0.97 -0.39,1.59 -0.73,1.93c-0.35,0.34 -0.96,0.76 -1.94,0.76c-2.97,-0.01 -9.87,-5.11 -20.4,-14.57c9.22,9.4 14.21,15.62 14.28,18.41c0.03,0.99 -0.39,1.61 -0.73,1.96c-0.35,0.35 -0.98,0.77 -1.97,0.77c0,0 0,0 0,0c-2.86,-0.01 -9.25,-4.62 -18.93,-13.2c8,8.34 12.31,13.92 12.37,16.54c0.03,1 -0.39,1.63 -0.74,1.98c-0.35,0.35 -0.99,0.77 -1.99,0.77c0,0 0,0 0,0c-2.79,0 -8.87,-4.31 -18.02,-12.35c7.29,7.72 11.2,12.93 11.27,15.45c0.02,1 -0.4,1.64 -0.75,2c-0.36,0.35 -0.99,0.77 -2,0.77c-0.01,0 -0.01,0 -0.01,0c-2.75,-0.01 -8.68,-4.16 -17.57,-11.93c6.69,7.19 10.27,12.07 10.32,14.5c0.03,1.01 -0.39,1.65 -0.75,2.01c-0.36,0.35 -0.99,0.77 -2,0.77c0,0 -0.01,0 -0.01,0c-2.74,0 -8.56,-4.06 -17.27,-11.64c6.4,6.93 9.83,11.66 9.88,14.05c0.03,1.01 -0.39,1.66 -0.76,2.01c-0.35,0.36 -0.99,0.78 -2,0.78c0,0 -0.01,0 -0.01,0c-2.75,0 -8.64,-4.11 -17.44,-11.79c6.14,6.7 9.41,11.28 9.47,13.6c0.03,1.03 -0.39,1.67 -0.76,2.03c-0.35,0.35 -0.98,0.78 -2,0.78c0,0 -0.01,0 -0.01,0c-2.77,-0.01 -8.7,-4.16 -17.58,-11.92c6.15,6.7 9.43,11.29 9.49,13.61c0.03,1.02 -0.39,1.66 -0.75,2.03c-0.36,0.35 -0.99,0.77 -2,0.77c0,0 -0.01,0 -0.01,0c-2.83,-0.01 -8.97,-4.36 -18.2,-12.48c6.13,6.68 9.4,11.23 9.46,13.55c0.03,1.01 -0.4,1.65 -0.75,2.01c-0.36,0.35 -0.99,0.77 -1.99,0.77c-0.01,0 -0.01,0 -0.01,0c-2.88,-0.01 -9.28,-4.61 -18.95,-13.17c6.45,6.95 9.91,11.68 9.97,14.04c0.03,1 -0.39,1.64 -0.75,1.99c-0.35,0.35 -0.97,0.77 -1.96,0.77c0,0 -0.01,0 -0.01,0c-2.98,-0.01 -9.83,-5.04 -20.23,-14.37c6.96,7.38 10.69,12.37 10.75,14.79c0.03,0.99 -0.39,1.62 -0.74,1.97c-0.35,0.35 -0.96,0.76 -1.93,0.76l-0.01,0c-3.15,-0.01 -10.7,-5.74 -22.3,-16.3c7.85,8.15 12.09,13.6 12.15,16.14c0.03,0.98 -0.38,1.59 -0.72,1.94c-2.52,2.5 -9.72,-2.15 -27.26,-18.43c9.77,9.81 14.55,15.77 14.62,18.54c0.02,0.96 -0.38,1.56 -0.72,1.9c-4.12,4.09 -21.04,-11.51 -77.13,-67.15c-28.61,-28.38 -63.87,-63.36 -71.94,-66.67c3.79,7.63 38.77,39.28 67.16,64.97c46.5,42.07 68.42,62.53 68.57,68.32c0.02,0.92 -0.37,1.51 -0.7,1.85c-3.68,3.65 -15.64,-6.64 -71.2,-61.21c-25.93,-25.48 -57.81,-56.8 -65.85,-60.61c4.28,7.47 35.32,35.55 60.57,58.4c42.14,38.13 62.01,56.67 62.14,61.98c0.03,0.89 -0.35,1.46 -0.67,1.79c-3.35,3.34 -14.08,-5.7 -63.85,-53.86c-22.55,-21.83 -50.18,-48.56 -58.17,-52.98c4.86,7.25 30.88,30.79 52.15,50.03c36.62,33.13 53.89,49.26 54,53.95c0.02,0.66 -0.21,1.27 -0.65,1.7c-3,3 -11.63,-4.09 -54.45,-44.46c-18.15,-17.13 -40.2,-37.92 -48.12,-43.05c5.43,6.79 24.76,24.28 40.72,38.72c29.99,27.13 43.15,39.43 43.24,43.32c0.02,0.62 -0.21,1.19 -0.62,1.61c-2.26,2.25 -6.19,-0.24 -39.71,-29.74c-10.94,-9.63 -23.86,-21 -31.04,-26.4c5.34,5.45 15.14,14.32 22.91,21.35c21.49,19.44 27.74,25.48 27.81,28.09c0.01,0.45 -0.25,1.14 -0.56,1.46c-1.49,1.48 -3.04,0.85 -21.06,-11.12c-3.45,-2.3 -7.55,-5.02 -10.99,-7.2c2.47,2.31 5.35,4.91 7.82,7.14c12.22,11.06 14.38,13.29 14.42,14.88c0.01,0.44 -0.21,1.01 -0.52,1.32c-1.32,1.31 -2.35,0.99 -17.28,-7.38c-2.52,-1.41 -5.45,-3.06 -8.04,-4.45c1.57,1.44 3.27,2.99 4.77,4.34c9.29,8.41 10.69,9.88 10.73,11.23c0.01,0.44 -0.2,0.98 -0.51,1.29c-1.06,1.05 -1.62,1.02 -13.41,-3.61c-1.77,-0.7 -3.82,-1.5 -5.67,-2.2c0.75,0.68 1.51,1.36 2.19,1.98c6.55,5.93 7.03,6.53 7.06,7.61c0.01,0.44 -0.19,0.94 -0.5,1.25c-0.72,0.72 -1.12,0.79 -9.26,0.17c-1.22,-0.09 -2.64,-0.2 -3.91,-0.28c2.8,2.53 3.3,2.99 3.33,3.92c0.01,0.44 -0.17,0.9 -0.48,1.22c-0.33,0.32 -0.75,0.47 -1.17,0.47zm21,-128.35c10.72,10.39 24.06,23.6 40.6,40.12c30.83,30.8 68.91,68.83 76.89,71.57c-3.16,-7.9 -43.73,-44.6 -76.57,-74.32c-15.78,-14.28 -29.54,-26.77 -40.92,-37.37zm14.81,-0.91c10.18,10.01 21.79,21.63 34.76,34.65c32.53,32.66 72.75,73.03 80.79,75.47c-2.86,-7.94 -45.44,-46.46 -79.88,-77.63c-13.34,-12.07 -25.31,-22.93 -35.67,-32.49zm11.92,-3.59c9.57,9.49 20.29,20.25 32.08,32.13c33.85,34.09 75.71,76.24 83.78,78.45c-2.62,-7.96 -46.7,-47.84 -82.34,-80.09c-12.39,-11.2 -23.61,-21.38 -33.52,-30.49zm11.31,-4.14c9.15,9.11 19.27,19.31 30.32,30.46c34.8,35.13 77.86,78.61 85.97,80.65c-2.46,-7.98 -47.53,-48.76 -83.97,-81.72c-11.86,-10.73 -22.67,-20.54 -32.32,-29.39zm11.16,-4.26c8.85,8.86 18.59,18.68 29.16,29.36c35.46,35.86 79.36,80.24 87.49,82.17c-2.36,-7.98 -48.08,-49.35 -85.03,-82.78c-11.56,-10.46 -22.14,-20.06 -31.62,-28.75zm10.84,-4.53c8.68,8.68 18.18,18.28 28.47,28.69c35.78,36.2 80.05,81 88.21,82.88c-2.32,-7.98 -48.24,-49.52 -85.34,-83.09c-11.44,-10.35 -21.93,-19.86 -31.34,-28.48zm10.89,-4.47c8.58,8.59 17.95,18.05 28.08,28.3c35.87,36.31 80.28,81.26 88.45,83.13c-2.32,-7.97 -48.2,-49.48 -85.26,-83.02c-11.41,-10.32 -21.87,-19.8 -31.27,-28.41zm10.84,-4.51c8.49,8.5 17.75,17.85 27.76,27.97c35.71,36.13 79.9,80.84 88.08,82.76c-2.38,-7.95 -47.75,-48.99 -84.41,-82.16c-11.49,-10.39 -22,-19.93 -31.43,-28.57zm10.92,-4.41c8.48,8.48 17.76,17.83 27.78,27.97c35.29,35.66 78.95,79.8 87.12,81.81c-2.48,-7.92 -47.04,-48.24 -83.07,-80.84c-11.67,-10.56 -22.32,-20.22 -31.83,-28.94zm-131.24,1.7c3.37,7.73 41.5,42.23 72.41,70.19c15.57,14.1 28.58,25.93 39.12,35.73c-9.61,-9.39 -21.06,-20.76 -34.69,-34.37c-30.76,-30.73 -68.74,-68.66 -76.84,-71.55zm141.9,-6.34c8.58,8.55 17.98,18.01 28.17,28.3c34.59,34.9 77.38,78.08 85.55,80.24c-2.64,-7.89 -46.08,-47.19 -81.21,-78.98c-11.99,-10.84 -22.87,-20.71 -32.51,-29.56zm-136.84,-3.95c3.03,7.81 43.68,44.6 76.59,74.37c13.24,11.97 25.05,22.7 35.23,32.09c-9.27,-9.16 -19.64,-19.54 -31.07,-31.01c-32.49,-32.6 -72.63,-72.9 -80.75,-75.45zm147.49,-0.7c8.7,8.66 18.29,18.3 28.74,28.81c33.71,33.95 75.4,75.92 83.57,78.26c-2.83,-7.83 -44.82,-45.82 -78.79,-76.55c-12.46,-11.27 -23.69,-21.46 -33.52,-30.52zm10.27,-4.97c8.97,8.87 18.95,18.86 29.89,29.85c32.54,32.66 72.74,73.01 80.89,75.6c-3.07,-7.78 -43.22,-44.1 -75.72,-73.51c-13.18,-11.93 -24.94,-22.6 -35.06,-31.94zm-151.51,-3.43c2.77,7.88 45.41,46.46 79.9,77.67c12.39,11.21 23.58,21.37 33.42,30.42c-8.92,-8.88 -18.8,-18.8 -29.58,-29.65c-33.8,-34.04 -75.59,-76.14 -83.74,-78.44zm160.62,-2.64c9.15,8.99 19.88,19.66 32.43,32.21c31.12,31.11 69.54,69.53 77.68,72.39c-3.36,-7.7 -41.39,-42.11 -72.21,-70c-14.98,-13.56 -27.6,-25.03 -37.9,-34.6zm-153.29,-5.38c2.56,7.92 46.68,47.84 82.35,80.11c11.89,10.76 22.71,20.58 32.34,29.41c-8.73,-8.71 -18.32,-18.36 -28.73,-28.88c-34.78,-35.11 -77.81,-78.55 -85.96,-80.64zm8.48,-6.88c2.41,7.95 47.52,48.76 83.98,81.75c11.59,10.48 22.19,20.1 31.66,28.78c-8.59,-8.59 -18,-18.08 -28.17,-28.37c-35.44,-35.84 -79.31,-80.19 -87.47,-82.16zm149.67,2.16c10.37,10 23.29,22.75 39.31,38.69c29.46,29.31 65.78,65.45 73.91,68.64c-3.68,-7.62 -39.22,-39.77 -68.05,-65.87c-19.08,-17.25 -34.08,-30.92 -45.17,-41.46zm-140.27,-8.1c2.34,7.96 48.08,49.35 85.04,82.78c11.45,10.37 21.95,19.89 31.37,28.52c-8.61,-8.62 -18.01,-18.11 -28.18,-28.4c-35.78,-36.2 -80.07,-81.02 -88.23,-82.9zm10.26,-5.1c2.32,7.98 48.24,49.52 85.33,83.08c11.42,10.34 21.89,19.83 31.3,28.44c-8.61,-8.61 -18,-18.09 -28.16,-28.38c-35.89,-36.32 -80.3,-81.27 -88.47,-83.14zm10.89,-4.46c2.34,7.98 48.2,49.48 85.26,83.01c11.47,10.37 21.96,19.9 31.4,28.54c-8.71,-8.72 -18.24,-18.34 -28.57,-28.78c-35.72,-36.15 -79.93,-80.88 -88.09,-82.77zm11.89,-3.47c2.41,7.96 47.75,48.98 84.38,82.13c11.64,10.53 22.28,20.17 31.79,28.9c-8.81,-8.81 -18.51,-18.58 -29.02,-29.21c-35.31,-35.69 -79.01,-79.86 -87.15,-81.82zm12.63,-2.74c2.53,7.96 47.07,48.26 83.07,80.83c11.96,10.82 22.84,20.69 32.51,29.57c-9.07,-9.03 -19.08,-19.12 -30.02,-30.15c-34.61,-34.93 -77.45,-78.16 -85.56,-80.25zm13.21,-2.14c2.69,7.92 46.1,47.2 81.19,78.95c12.43,11.25 23.67,21.44 33.57,30.54c-9.33,-9.26 -19.75,-19.72 -31.18,-31.23c-33.75,-33.98 -75.48,-76 -83.58,-78.26zm14.08,-1.28c2.91,7.89 44.85,45.83 78.77,76.53c13.23,11.97 25.08,22.71 35.34,32.18c-9.8,-9.66 -20.89,-20.76 -33.19,-33.11c-32.58,-32.7 -72.85,-73.13 -80.92,-75.6zm14.88,-0.49c3.17,7.85 43.25,44.11 75.71,73.47c14.87,13.45 27.91,25.3 38.84,35.45c-10.08,-9.83 -22.22,-21.9 -36.85,-36.53c-31.17,-31.17 -69.67,-69.66 -77.7,-72.39z" fill="#5C7587" id="svg_1"/>
  <path d="m19.02,116.01c-11.51,-88.99 72.57,-122.48 188.36,-106.27c83.56,11.69 185.46,43.05 128.19,115.94c-57.75,73.51 -187.16,108.13 -247.31,76.27l-52.44,25.54l13.18,-54.52c-16.39,-16.78 -27.33,-36.49 -29.98,-56.96z" fill="white" id="svg_2"/>
  <path d="m39.82,229.25c-0.84,0 -1.68,-0.28 -2.36,-0.83c-1.14,-0.91 -1.65,-2.4 -1.3,-3.82l12.69,-52.51c-16.77,-17.66 -26.98,-37.54 -29.57,-57.6c-4.22,-32.57 3.72,-59.05 23.58,-78.71c31.65,-31.31 91.67,-42.6 169.04,-31.78c57.56,8.06 129.46,25.81 145.09,64.63c6.89,17.09 2.02,36.4 -14.46,57.38c-27.43,34.92 -72.87,63.69 -124.65,78.94c-49.06,14.44 -95.82,14.12 -125.67,-0.78l-50.74,24.71c-0.52,0.25 -1.08,0.37 -1.65,0.37zm117.72,-221.73c-49.05,0 -86.99,11.48 -109.37,33.62c-18.1,17.92 -25.3,42.27 -21.41,72.39c2.46,18.99 12.46,37.94 28.93,54.8c0.91,0.93 1.28,2.26 0.97,3.52l-11.29,46.74l45.24,-22.03c1.08,-0.52 2.36,-0.5 3.41,0.06c56.57,29.95 184.36,-1.16 242.59,-75.27c14.69,-18.7 19.2,-35.49 13.39,-49.9c-15.04,-37.34 -93.63,-53.6 -139.14,-59.98c-18.93,-2.64 -36.76,-3.95 -53.32,-3.95z" fill="#5C7587" id="svg_3"/>
  <path d="m54,110c0,2.63 0.52,5.23 1.52,7.65c1.01,2.43 2.48,4.63 4.34,6.49c1.86,1.86 4.06,3.33 6.49,4.34c2.42,1 5.02,1.52 7.65,1.52c2.63,0 5.23,-0.52 7.65,-1.52c2.43,-1.01 4.63,-2.48 6.49,-4.34c1.86,-1.86 3.33,-4.06 4.34,-6.49c1,-2.42 1.52,-5.02 1.52,-7.65c0,-2.63 -0.52,-5.23 -1.52,-7.65c-1.01,-2.43 -2.48,-4.63 -4.34,-6.49c-1.86,-1.86 -4.06,-3.33 -6.49,-4.34c-2.42,-1 -5.02,-1.52 -7.65,-1.52c-2.63,0 -5.23,0.52 -7.65,1.52c-2.43,1.01 -4.63,2.48 -6.49,4.34c-1.86,1.86 -3.33,4.06 -4.34,6.49c-1,2.42 -1.52,5.02 -1.52,7.65z" fill="#58CC02" id="svg_4"/>
  <path d="m67.33,110l4.45,4.44l8.89,-8.88" fill="#58CC02" id="svg_5"/>
  <path d="m67.33,110l4.45,4.44l8.89,-8.88m-26.67,4.44c0,2.63 0.52,5.23 1.52,7.65c1.01,2.43 2.48,4.63 4.34,6.49c1.86,1.86 4.06,3.33 6.49,4.34c2.42,1 5.02,1.52 7.65,1.52c2.63,0 5.23,-0.52 7.65,-1.52c2.43,-1.01 4.63,-2.48 6.49,-4.34c1.86,-1.86 3.33,-4.06 4.34,-6.49c1,-2.42 1.52,-5.02 1.52,-7.65c0,-2.63 -0.52,-5.23 -1.52,-7.65c-1.01,-2.43 -2.48,-4.63 -4.34,-6.49c-1.86,-1.86 -4.06,-3.33 -6.49,-4.34c-2.42,-1 -5.02,-1.52 -7.65,-1.52c-2.63,0 -5.23,0.52 -7.65,1.52c-2.43,1.01 -4.63,2.48 -6.49,4.34c-1.86,1.86 -3.33,4.06 -4.34,6.49c-1,2.42 -1.52,5.02 -1.52,7.65z" fill="#00cc58" id="svg_6" stroke="white" stroke-linecap="round" stroke-linejoin="round" stroke-width="4.5"/>
  <path d="m111.88,125c-0.75,0 -1.41,-0.23 -2,-0.68c-0.59,-0.48 -0.88,-1.07 -0.88,-1.76l0,-23.12c0,-0.69 0.23,-1.27 0.68,-1.72c0.48,-0.48 1.07,-0.72 1.76,-0.72l11.52,0c1.39,0 2.68,0.37 3.88,1.12c1.23,0.72 2.21,1.73 2.96,3.04c0.75,1.28 1.12,2.76 1.12,4.44c0,1.01 -0.21,2 -0.64,2.96c-0.4,0.96 -0.96,1.83 -1.68,2.6c-0.69,0.77 -1.48,1.37 -2.36,1.8l0.04,-0.92c0.75,0.4 1.36,0.88 1.84,1.44c0.51,0.53 0.89,1.12 1.16,1.76c0.29,0.61 0.47,1.28 0.52,2c0.11,0.67 0.17,1.25 0.2,1.76c0.05,0.51 0.13,0.93 0.24,1.28c0.13,0.35 0.37,0.61 0.72,0.8c0.59,0.35 0.95,0.85 1.08,1.52c0.16,0.64 0.01,1.21 -0.44,1.72c-0.29,0.35 -0.67,0.57 -1.12,0.68c-0.45,0.08 -0.91,0.08 -1.36,0c-0.45,-0.11 -0.83,-0.24 -1.12,-0.4c-0.45,-0.27 -0.91,-0.65 -1.36,-1.16c-0.45,-0.53 -0.83,-1.24 -1.12,-2.12c-0.27,-0.88 -0.4,-2.01 -0.4,-3.4c0,-0.45 -0.08,-0.87 -0.24,-1.24c-0.16,-0.4 -0.39,-0.73 -0.68,-1c-0.29,-0.29 -0.67,-0.51 -1.12,-0.64c-0.45,-0.16 -0.99,-0.24 -1.6,-0.24l-8.08,0l0.6,-0.92l0,8.68c0,0.69 -0.19,1.28 -0.56,1.76c-0.37,0.45 -0.89,0.68 -1.56,0.68zm1.56,-14.32l9.32,0c0.48,0 0.95,-0.21 1.4,-0.64c0.45,-0.45 0.83,-1.05 1.12,-1.8c0.29,-0.77 0.44,-1.61 0.44,-2.52c0,-1.17 -0.32,-2.15 -0.96,-2.92c-0.61,-0.8 -1.28,-1.2 -2,-1.2l-9.24,0l0.48,-1.28l0,11.32l-0.56,-0.96zm54.79,0.32c0,2 -0.33,3.87 -1,5.6c-0.67,1.73 -1.61,3.27 -2.84,4.6c-1.2,1.31 -2.64,2.33 -4.32,3.08c-1.65,0.75 -3.47,1.12 -5.44,1.12c-1.97,0 -3.79,-0.37 -5.44,-1.12c-1.65,-0.75 -3.09,-1.77 -4.32,-3.08c-1.2,-1.33 -2.13,-2.87 -2.8,-4.6c-0.67,-1.73 -1,-3.6 -1,-5.6c0,-2 0.33,-3.87 1,-5.6c0.67,-1.73 1.6,-3.25 2.8,-4.56c1.23,-1.33 2.67,-2.37 4.32,-3.12c1.65,-0.75 3.47,-1.12 5.44,-1.12c1.97,0 3.79,0.37 5.44,1.12c1.68,0.75 3.12,1.79 4.32,3.12c1.23,1.31 2.17,2.83 2.84,4.56c0.67,1.73 1,3.6 1,5.6zm-5.2,0c0,-1.79 -0.36,-3.4 -1.08,-4.84c-0.72,-1.47 -1.71,-2.63 -2.96,-3.48c-1.25,-0.85 -2.71,-1.28 -4.36,-1.28c-1.65,0 -3.11,0.43 -4.36,1.28c-1.25,0.85 -2.24,2 -2.96,3.44c-0.69,1.44 -1.04,3.07 -1.04,4.88c0,1.79 0.35,3.41 1.04,4.88c0.72,1.44 1.71,2.59 2.96,3.44c1.25,0.85 2.71,1.28 4.36,1.28c1.65,0 3.11,-0.43 4.36,-1.28c1.25,-0.85 2.24,-2 2.96,-3.44c0.72,-1.47 1.08,-3.09 1.08,-4.88zm35.79,-12.64c0.69,0.35 1.09,0.89 1.2,1.64c0.14,0.75 -0.05,1.43 -0.56,2.04c-0.34,0.48 -0.8,0.75 -1.36,0.8c-0.53,0.05 -1.08,-0.05 -1.64,-0.32c-0.64,-0.29 -1.32,-0.52 -2.04,-0.68c-0.69,-0.16 -1.42,-0.24 -2.2,-0.24c-1.44,0 -2.73,0.23 -3.88,0.68c-1.12,0.45 -2.08,1.11 -2.88,1.96c-0.8,0.83 -1.41,1.81 -1.84,2.96c-0.4,1.15 -0.6,2.41 -0.6,3.8c0,1.63 0.23,3.04 0.68,4.24c0.48,1.2 1.14,2.2 1.96,3c0.83,0.8 1.8,1.4 2.92,1.8c1.12,0.37 2.33,0.56 3.64,0.56c0.72,0 1.44,-0.07 2.16,-0.2c0.72,-0.13 1.41,-0.37 2.08,-0.72c0.56,-0.27 1.11,-0.36 1.64,-0.28c0.56,0.08 1.03,0.36 1.4,0.84c0.53,0.67 0.72,1.36 0.56,2.08c-0.13,0.69 -0.53,1.2 -1.2,1.52c-0.69,0.35 -1.41,0.64 -2.16,0.88c-0.72,0.21 -1.45,0.37 -2.2,0.48c-0.75,0.13 -1.5,0.2 -2.28,0.2c-1.92,0 -3.75,-0.31 -5.48,-0.92c-1.71,-0.61 -3.24,-1.52 -4.6,-2.72c-1.33,-1.2 -2.39,-2.69 -3.16,-4.48c-0.77,-1.81 -1.16,-3.91 -1.16,-6.28c0,-2.05 0.35,-3.95 1.04,-5.68c0.72,-1.73 1.72,-3.23 3,-4.48c1.31,-1.28 2.84,-2.27 4.6,-2.96c1.76,-0.72 3.68,-1.08 5.76,-1.08c1.18,0 2.32,0.13 3.44,0.4c1.12,0.27 2.18,0.65 3.16,1.16zm31.16,26.64c-0.75,0 -1.35,-0.31 -1.8,-0.92l-9.24,-12.16l3.64,-3.72l9.56,12.64c0.37,0.51 0.56,1.05 0.56,1.64c0,0.75 -0.28,1.36 -0.84,1.84c-0.56,0.45 -1.19,0.68 -1.88,0.68zm0.48,-28.2c0.64,0 1.16,0.27 1.56,0.8c0.43,0.51 0.64,1.03 0.64,1.56c0,0.56 -0.24,1.08 -0.72,1.56l-16.76,16.04l-0.2,-5.72l13.52,-13.32c0.61,-0.61 1.27,-0.92 1.96,-0.92zm-17.28,28.2c-0.75,0 -1.35,-0.23 -1.8,-0.68c-0.45,-0.48 -0.68,-1.07 -0.68,-1.76l0,-23.12c0,-0.69 0.24,-1.27 0.72,-1.72c0.48,-0.48 1.09,-0.72 1.84,-0.72c0.75,0 1.33,0.24 1.76,0.72c0.45,0.45 0.68,1.03 0.68,1.72l0,23.12c0,0.69 -0.23,1.28 -0.68,1.76c-0.45,0.45 -1.07,0.68 -1.84,0.68zm32.57,-28l13.4,0c0.69,0 1.27,0.23 1.72,0.68c0.48,0.43 0.72,0.99 0.72,1.68c0,0.67 -0.24,1.21 -0.72,1.64c-0.45,0.4 -1.03,0.6 -1.72,0.6l-11.2,0l0.36,-0.68l0,7.8l-0.32,-0.32l9.36,0c0.69,0 1.27,0.23 1.72,0.68c0.48,0.43 0.72,0.99 0.72,1.68c0,0.67 -0.24,1.21 -0.72,1.64c-0.45,0.4 -1.03,0.6 -1.72,0.6l-9.24,0l0.2,-0.32l0,8.08l-0.32,-0.36l11.16,0c0.69,0 1.27,0.24 1.72,0.72c0.48,0.45 0.72,0.99 0.72,1.6c0,0.67 -0.24,1.21 -0.72,1.64c-0.45,0.43 -1.03,0.64 -1.72,0.64l-13.4,0c-0.69,0 -1.28,-0.23 -1.76,-0.68c-0.45,-0.48 -0.68,-1.07 -0.68,-1.76l0,-23.12c0,-0.69 0.23,-1.27 0.68,-1.72c0.48,-0.48 1.07,-0.72 1.76,-0.72zm36.33,28c-0.75,0 -1.36,-0.23 -1.84,-0.68c-0.48,-0.48 -0.72,-1.07 -0.72,-1.76l0,-23.2l5.2,0l0,23.2c0,0.69 -0.25,1.28 -0.76,1.76c-0.48,0.45 -1.1,0.68 -1.88,0.68zm-8.84,-23.4c-0.69,0 -1.28,-0.21 -1.76,-0.64c-0.45,-0.43 -0.68,-0.99 -0.68,-1.68c0,-0.69 0.23,-1.24 0.68,-1.64c0.48,-0.43 1.07,-0.64 1.76,-0.64l17.76,0c0.69,0 1.27,0.21 1.72,0.64c0.48,0.43 0.72,0.99 0.72,1.68c0,0.69 -0.24,1.25 -0.72,1.68c-0.45,0.4 -1.03,0.6 -1.72,0.6l-17.76,0z" fill="#333F61" id="svg_7"/>
  <path d="m166.17,101.33c-0.71,1.66 -1.25,2.21 -1.83,3.17c-0.48,0.78 -0.72,1.44 -1.09,2.17c-0.21,0.41 -1.06,1.86 -1.42,2.41c-0.39,0.59 -0.81,1.21 -1.26,1.84c-0.47,0.66 -0.97,1.34 -1.49,2.02c-1.07,1.4 -1.63,2.1 -2.19,2.79c-0.56,0.69 -1.11,1.36 -1.66,2.02c-0.53,0.64 -1.04,1.25 -1.52,1.84c-0.88,1.07 -1.26,1.55 -1.6,2c-0.59,0.77 -1.13,1.38 -1.61,2.41c-0.39,0.84 -0.34,0.87 -0.33,0c0,-0.95 0.01,-1.53 0.06,-2.18c0.12,-1.45 0.25,-2.25 0.45,-3.07c0.43,-1.77 0.8,-2.67 1.2,-3.59c0.41,-0.94 0.88,-1.89 1.37,-2.83c0.5,-0.95 1.03,-1.89 1.55,-2.83c1.03,-1.84 1.52,-2.72 1.99,-3.59c0.45,-0.84 0.88,-1.66 1.29,-2.45c0.39,-0.76 0.76,-1.49 1.11,-2.18c0.64,-1.28 0.93,-1.86 1.2,-2.4c0.25,-0.5 0.49,-0.97 0.71,-1.4c0.2,-0.4 0.39,-0.76 0.57,-1.08c0.31,-0.56 0.11,-1.35 1.04,-1.56c0.48,-0.11 0.45,1.26 0.45,1.87c0,1.09 0,1.91 0,2.79c0,0.93 -0.01,1.98 -0.02,2.56c-0.01,0.64 -0.03,1.35 -0.06,2.13c-0.07,1.81 -0.13,2.86 -0.2,3.98c-0.07,1.18 -0.15,2.4 -0.24,3.64c-0.09,1.23 -0.18,2.44 -0.28,3.6c-0.19,2.09 -0.29,2.99 -0.4,3.78c-0.09,0.7 -0.19,1.33 -0.3,1.87c-0.09,0.48 -0.19,0.91 -0.3,1.29c-0.19,0.66 -0.29,0.94 -0.4,1.21c-0.26,0.66 -0.78,0.83 -0.8,-0.22c-0.01,-0.8 -0.03,-1.6 0,-2.6c0.03,-0.8 0.22,-1.6 0.5,-2.4l0.33,-1l0.14,-0.82l0.08,-0.69" fill="none" id="svg_8"/>
  <polyline fill="none" id="svg_9" opacity="0.5" points="159.16830648978612,108.33332540591579 " stroke-linecap="round"/>
  <path d="m119.17,95.33c0,1.86 0,2.52 0,3.64c0,0.68 0,1.46 0,2.34c0,1.52 0,2.08 0,2.67c0,1.21 0,1.83 0,2.44c0,1.17 0,2.25 0,3.17c0,0.8 0,1.82 0,2.74c0,0.9 0,1.76 0,2.83c0,0.71 -0.02,1.56 0,2.56c0.02,0.73 0.59,1.62 1.32,1.16c0.6,-0.38 1.25,-1.09 2.18,-1.89c0.36,-0.31 1.17,-0.98 1.6,-1.33c0.9,-0.73 1.36,-1.09 1.82,-1.46c1.36,-1.07 1.8,-1.4 2.63,-2.05c0.41,-0.31 1.2,-0.92 2.28,-1.84c0.35,-0.3 1,-0.89 1.58,-1.46l0.73,-0.77l0.6,-0.8l0.25,-0.77" fill="none" id="svg_11"/>
  <path d="m122.17,113.33c0.33,-0.83 1.13,-0.99 1.94,-1.08c1.14,-0.13 1.6,-0.2 2.6,-0.35c0.54,-0.08 1.67,-0.27 2.26,-0.37c1.19,-0.2 2.4,-0.4 3.01,-0.5c0.62,-0.11 1.27,-0.21 2.61,-0.45c0.71,-0.13 2.24,-0.41 3.06,-0.56c0.85,-0.16 1.73,-0.33 2.63,-0.5c0.91,-0.17 1.82,-0.35 2.73,-0.52c0.9,-0.17 2.65,-0.49 3.49,-0.63c0.8,-0.14 1.58,-0.26 2.31,-0.38c0.7,-0.11 1.37,-0.2 2.01,-0.29l0.6,-0.07" fill="none" id="svg_17"/>
  <path d="m109.17,98.33c14,25 62,6 61.83,5.67c-0.17,-0.33 23.17,0.33 23,0" fill="#fff9f9" id="svg_18"/>
  <path d="m109.17,85.33c27,37 99,27 99,24c0,-3 12,-8 14,-11c2,-3 -113,-13 -113,-13z" fill="white" id="svg_19"/>
  <path d="m99.17,82.33c0,0 11,53 11,53c0,0 177,-5 177,-5c0,0 18,-47 17.83,-47.33c-0.17,-0.33 -205.83,-0.67 -205.83,-0.67z" fill="white" id="svg_20"/>
 </g>

</svg>