<svg width="335" height="118" viewBox="0 0 335 118" fill="none" xmlns="http://www.w3.org/2000/svg">
<path d="M16.2338 50.1112C20.6943 52.6318 25.7534 53.9017 30.967 54.248C33.8634 54.6329 36.818 54.7675 39.7723 54.8829C41.8385 54.9214 44.2133 55.0754 46.5691 54.9215C43.8465 55.6334 41.0468 56.1337 38.1889 56.3838C38.3241 57.0573 38.4979 57.7692 38.7296 58.4426C40.004 62.06 42.2438 65.2925 44.5803 68.2942C49.6587 74.7208 56.5715 79.9351 64.0057 83.3216C71.3047 86.6696 80.3802 88.0164 88.3165 86.9389C90.0543 86.6696 91.7728 86.2655 93.4721 85.6883C92.2363 82.3018 91.522 78.7421 91.5799 74.9324C91.5799 74.8554 91.5799 74.74 91.6185 74.7015C91.773 78.9154 94.2447 83.1484 96.3301 86.6119C97.7976 88.9785 99.4581 91.2682 101.389 93.3463C104.884 97.4062 109.074 100.947 113.496 103.948C124.773 111.645 138.483 116.32 152.019 117.629C164.126 118.841 176.696 117.148 187.568 111.606C192.202 109.278 196.856 105.738 200.679 101.505C202.591 99.8499 204.271 97.8873 205.603 95.6745C208.268 91.249 208.924 86.3232 209.716 81.3589C210.179 87.343 208.48 93.1924 205.468 98.503C220.703 106.7 239.24 108.528 255.827 103.467C265.405 100.581 273.186 95.1935 276.836 85.5728C277.743 83.2061 278.207 80.6855 278.303 78.1264C279.23 74.586 279.095 70.8725 277.222 67.3706C274.866 62.9451 271.101 60.7131 266.949 58.7312C271.082 58.5773 274.635 61.9253 277.029 64.9654C277.879 66.0622 278.574 67.1782 279.153 68.4289C281.007 67.1974 282.706 65.7543 284.251 64.1765C288.016 61.502 290.777 57.596 292.921 53.5361C294.427 50.6499 295.566 47.7059 296.512 44.5889C296.783 43.723 297.014 42.8572 297.227 41.9913C296.956 47.4366 295.779 52.8434 293.77 57.8846C300.953 59.0199 308.291 59.347 315.397 58.0001C326.462 55.8643 335.518 46.8401 334.977 35.2184C334.359 21.8841 322.271 11.0128 309.372 9.93532C302.691 9.4158 296.088 9.81984 289.58 11.3207C288.518 11.59 287.533 11.8402 286.549 12.225C288.46 14.2261 290.14 16.4004 291.589 18.6901C291.994 19.7099 292.419 20.7104 292.786 21.7302C290.16 17.1893 286.413 13.5719 282.03 10.7627C273.978 3.66264 262.624 -0.0894241 252.235 -0.166389C245.245 -0.243355 238.004 1.93093 231.555 4.60547C231.96 7.60711 231.748 10.5511 231.034 13.3603C231.362 8.39604 230.126 3.27785 227.403 -0.801296C226.921 -1.85957 226.399 -2.86015 225.859 -3.80298C220.799 -12.7887 212.844 -20.2927 203.556 -24.8144C193.361 -29.7787 181.833 -29.8172 171.193 -26.1613C169.204 -25.5264 167.274 -24.8145 165.42 -23.9486C165.439 -23.9101 165.439 -23.9101 165.439 -23.8716C165.13 -23.7562 164.802 -23.6022 164.473 -23.4868C164.415 -23.4868 164.358 -23.4484 164.319 -23.4099C163.856 -23.2175 163.373 -23.025 162.929 -22.7749C161.036 -21.909 159.067 -21.0047 157.213 -19.8887C158.758 -21.7743 160.805 -23.1982 162.794 -24.4681C163.103 -24.6606 163.373 -24.8529 163.701 -24.9876C162.716 -26.7963 161.674 -28.5088 160.573 -30.1828C155.997 -37.0904 149.084 -41.8046 141.051 -43.7094C137.015 -44.7292 132.902 -45.2487 128.731 -44.8831C124.715 -44.5368 121.49 -42.7473 118.053 -40.8232C112.28 -37.6292 108.958 -32.1838 107.124 -26.1998C106.776 -25.4879 106.487 -24.7375 106.255 -23.9101C105.328 -21.9667 104.749 -19.8887 104.286 -17.7914C104.054 -17.9453 103.88 -18.1955 103.88 -18.5033C103.938 -19.5231 103.977 -20.5621 104.073 -21.5819C102.084 -22.6017 100.057 -23.4676 98.2031 -24.141C89.5718 -27.2966 80.0134 -26.7386 71.3434 -24.1795C63.2913 -21.8128 55.2586 -16.8871 51.0491 -9.51765C49.234 -6.36208 48.0753 -3.0141 47.5347 0.372364C51.7441 1.64229 56.591 3.98974 58.9661 7.43393C53.5594 3.14312 46.7237 0.81496 39.9267 1.35372C35.1187 1.1613 30.1175 1.79627 25.6184 2.81606C14.6892 5.29819 4.16541 9.95453 0.76692 21.6148C-2.74742 33.6598 6.40522 44.5119 16.2338 50.1112Z" fill="white" fill-opacity="0.4"/>
</svg>
