<svg width="130" height="97" viewBox="0 0 130 97" fill="none" xmlns="http://www.w3.org/2000/svg">
<g filter="url(#filter0_d_2974_21398)">
<path d="M86.7628 61.3921V53.5281H84.5092C80.5624 46.9896 71.8439 42.4453 61.7256 42.4453C51.6073 42.4453 42.8864 46.9896 38.9396 53.5281H36.686V61.3921C36.686 71.859 47.8962 80.3412 61.7256 80.3412C75.555 80.3412 86.7628 71.871 86.7628 61.3921Z" fill="#E86124"/>
<path d="M44.0841 61.3921V53.5281H46.3377C49.7963 47.8003 56.9202 43.6048 65.4247 42.6498C64.1964 42.5132 62.9615 42.4449 61.7256 42.4453C51.6049 42.4453 42.8864 46.9896 38.9396 53.5281H36.686V61.3921C36.686 71.859 47.8962 80.3412 61.7256 80.3412C62.9615 80.342 64.1965 80.2729 65.4247 80.1343C53.3486 78.7824 44.0841 70.9087 44.0841 61.3921Z" fill="#DC4A26"/>
<path d="M61.7256 72.4765C75.5546 72.4765 86.7652 63.9926 86.7652 53.5273C86.7652 43.062 75.5546 34.5781 61.7256 34.5781C47.8966 34.5781 36.686 43.062 36.686 53.5273C36.686 63.9926 47.8966 72.4765 61.7256 72.4765Z" fill="#F0E92D"/>
<path d="M61.7275 67.2133C71.7349 67.2133 79.8476 61.0741 79.8476 53.5012C79.8476 45.9282 71.7349 39.7891 61.7275 39.7891C51.7201 39.7891 43.6074 45.9282 43.6074 53.5012C43.6074 61.0741 51.7201 67.2133 61.7275 67.2133Z" fill="#EF8521"/>
<path d="M48.9251 55.8803C48.9251 48.2425 54.6974 41.8074 62.5573 39.8059C62.2831 39.8059 62.0065 39.7891 61.7299 39.7891C51.7199 39.7891 43.6074 45.9282 43.6074 53.5012C43.6074 58.375 46.9746 62.6426 52.0253 65.0843C50.0238 62.4324 48.936 59.2029 48.9251 55.8803Z" fill="#E86124"/>
<path d="M84.1211 50.0116V42.1452H81.8676C77.9184 35.6067 69.2023 31.0625 59.0816 31.0625C48.9609 31.0625 40.2448 35.6067 36.2956 42.1452H34.042V50.0116C34.042 60.4761 45.2522 68.9608 59.0816 68.9608C72.9109 68.9608 84.1211 60.4761 84.1211 50.0116Z" fill="#E86124"/>
<path d="M41.4425 50.0116V42.1452H43.6961C47.1522 36.4198 54.2786 32.2244 62.7806 31.2694C61.5524 31.1319 60.3175 31.0628 59.0816 31.0625C48.9609 31.0625 40.2448 35.6067 36.2956 42.1452H34.042V50.0116C34.042 60.4761 45.2522 68.9608 59.0816 68.9608C60.3175 68.9605 61.5524 68.8914 62.7806 68.7539C50.707 67.402 41.4425 59.5259 41.4425 50.0116Z" fill="#DC4A26"/>
<path d="M59.0816 61.0936C72.9105 61.0936 84.1211 52.6098 84.1211 42.1445C84.1211 31.6791 72.9105 23.1953 59.0816 23.1953C45.2526 23.1953 34.042 31.6791 34.042 42.1445C34.042 52.6098 45.2526 61.0936 59.0816 61.0936Z" fill="#F0E92D"/>
<path d="M59.0835 55.8305C69.0909 55.8305 77.2035 49.6913 77.2035 42.1184C77.2035 34.5454 69.0909 28.4062 59.0835 28.4062C49.076 28.4062 40.9634 34.5454 40.9634 42.1184C40.9634 49.6913 49.076 55.8305 59.0835 55.8305Z" fill="#EF8521"/>
<path d="M46.2811 44.4975C46.2811 36.8596 52.0533 30.4246 59.9132 28.4231C59.6366 28.4231 59.3625 28.4062 59.0835 28.4062C49.0758 28.4062 40.9634 34.5454 40.9634 42.1184C40.9634 46.9922 44.3305 51.2598 49.3813 53.7015C47.3781 51.0505 46.2901 47.8205 46.2811 44.4975Z" fill="#E86124"/>
<path d="M86.7628 38.4804V30.614H84.5092C80.5624 24.0755 71.8439 19.5312 61.7256 19.5312C51.6073 19.5312 42.8864 24.0755 38.9396 30.614H36.686V38.4804C36.686 48.9449 47.8962 57.4272 61.7256 57.4272C75.555 57.4272 86.7628 48.9449 86.7628 38.4804Z" fill="#E86124"/>
<path d="M44.0841 38.4804V30.614H46.3377C49.7963 24.8862 56.9202 20.6908 65.4247 19.7381C64.1965 19.5995 62.9615 19.5305 61.7256 19.5313C51.6049 19.5313 42.8864 24.0755 38.9396 30.614H36.686V38.4804C36.686 48.9449 47.8962 57.4272 61.7256 57.4272C62.9615 57.4275 64.1964 57.3593 65.4247 57.2227C53.3486 55.8683 44.0841 47.9923 44.0841 38.4804Z" fill="#DC4A26"/>
<path d="M61.7256 49.5858C75.5546 49.5858 86.7652 41.102 86.7652 30.6367C86.7652 20.1713 75.5546 11.6875 61.7256 11.6875C47.8966 11.6875 36.686 20.1713 36.686 30.6367C36.686 41.102 47.8966 49.5858 61.7256 49.5858Z" fill="#F0E92D"/>
<path d="M61.7275 44.3461C71.7349 44.3461 79.8476 38.207 79.8476 30.634C79.8476 23.061 71.7349 16.9219 61.7275 16.9219C51.7201 16.9219 43.6074 23.061 43.6074 30.634C43.6074 38.207 51.7201 44.3461 61.7275 44.3461Z" fill="#EF8521"/>
<path d="M48.9251 33.0107C48.9251 25.3753 54.6974 18.9378 62.5573 16.9363C62.2831 16.9363 62.0065 16.9219 61.7299 16.9219C51.7199 16.9219 43.6074 23.061 43.6074 30.634C43.6074 35.5078 46.9746 39.7754 52.0253 42.2171C50.0233 39.5646 48.9355 36.3342 48.9251 33.0107Z" fill="#E86124"/>
<path d="M84.1211 27.121V19.2546H81.8676C77.9184 12.7161 69.2023 8.17188 59.0816 8.17188C48.9609 8.17188 40.2448 12.7161 36.2956 19.2546H34.042V27.121C34.042 37.5855 45.2522 46.0678 59.0816 46.0678C72.9109 46.0678 84.1211 37.5855 84.1211 27.121Z" fill="#E86124"/>
<path d="M41.4425 27.121V19.2546H43.6961C47.1522 13.5268 54.2786 9.3314 62.7806 8.37636C61.5523 8.23971 60.3174 8.17143 59.0816 8.17188C48.9609 8.17188 40.2448 12.7161 36.2956 19.2546H34.042V27.121C34.042 37.5855 45.2522 46.0678 59.0816 46.0678C60.3175 46.0686 61.5525 45.9996 62.7806 45.8609C50.707 44.5089 41.4425 36.6329 41.4425 27.121Z" fill="#DC4A26"/>
<path d="M59.0816 38.203C72.9105 38.203 84.1211 29.7192 84.1211 19.2538C84.1211 8.7885 72.9105 0.304688 59.0816 0.304688C45.2526 0.304688 34.042 8.7885 34.042 19.2538C34.042 29.7192 45.2526 38.203 59.0816 38.203Z" fill="#F0E92D"/>
<path d="M59.0835 32.9398C69.0909 32.9398 77.2035 26.8007 77.2035 19.2277C77.2035 11.6547 69.0909 5.51562 59.0835 5.51562C49.076 5.51562 40.9634 11.6547 40.9634 19.2277C40.9634 26.8007 49.076 32.9398 59.0835 32.9398Z" fill="#EF8521"/>
<path d="M46.2811 21.6069C46.2811 13.969 52.0533 7.53395 59.9132 5.53247C59.6366 5.53247 59.3625 5.51562 59.0835 5.51562C49.0758 5.51562 40.9634 11.6548 40.9634 19.2277C40.9634 24.1015 44.3305 28.3691 49.3813 30.8108C47.3789 28.1595 46.291 24.9297 46.2811 21.6069Z" fill="#E86124"/>
<path d="M129.926 65.0195V57.1531H127.672C123.723 50.6146 115.007 46.0703 104.886 46.0703C94.7656 46.0703 86.047 50.6146 82.1003 57.1531H79.8467V65.0195C79.8467 75.484 91.0569 83.9686 104.886 83.9686C118.716 83.9686 129.926 75.4768 129.926 65.0195Z" fill="#E86124"/>
<path d="M87.2448 65.0195V57.1531H89.4984C92.9569 51.4277 100.081 47.2298 108.585 46.2772C107.357 46.1386 106.122 46.0695 104.886 46.0703C94.7656 46.0703 86.047 50.6146 82.1003 57.1531H79.8467V65.0195C79.8467 75.484 91.0569 83.9687 104.886 83.9687C106.122 83.9682 107.357 83.8991 108.585 83.7617C96.5117 82.4074 87.2448 74.5338 87.2448 65.0195Z" fill="#DC4A26"/>
<path d="M104.886 76.1092C118.715 76.1092 129.926 67.6254 129.926 57.1601C129.926 46.6948 118.715 38.2109 104.886 38.2109C91.0573 38.2109 79.8467 46.6948 79.8467 57.1601C79.8467 67.6254 91.0573 76.1092 104.886 76.1092Z" fill="#F0E92D"/>
<path d="M104.888 70.8617C114.896 70.8617 123.008 64.7226 123.008 57.1496C123.008 49.5766 114.896 43.4375 104.888 43.4375C94.8807 43.4375 86.7681 49.5766 86.7681 57.1496C86.7681 64.7226 94.8807 70.8617 104.888 70.8617Z" fill="#EF8521"/>
<path d="M92.074 59.5264C92.074 51.8909 97.8463 45.4534 105.706 43.4519C105.432 43.4519 105.155 43.4375 104.879 43.4375C94.8712 43.4375 86.7563 49.5767 86.7563 57.1496C86.7563 62.0234 90.1235 66.291 95.1742 68.7327C93.172 66.0804 92.0841 62.8499 92.074 59.5264Z" fill="#E86124"/>
<path d="M126.105 51.8867V44.0202H123.851C119.904 37.4817 111.186 32.9375 101.065 32.9375C90.9443 32.9375 82.2282 37.4817 78.2814 44.0202H76.0278V51.8867C76.0278 62.3512 87.238 70.8334 101.065 70.8334C114.892 70.8334 126.105 62.3512 126.105 51.8867Z" fill="#E86124"/>
<path d="M83.4259 51.8867V44.0202H85.6723C89.1309 38.2924 96.2548 34.097 104.759 33.142C103.533 33.0056 102.299 32.9373 101.065 32.9375C90.9467 32.9375 82.2282 37.4817 78.2814 44.0202H76.0278V51.8867C76.0278 62.3512 87.238 70.8334 101.065 70.8334C102.302 70.8339 103.537 70.7656 104.766 70.6289C92.6904 69.2746 83.4259 61.3985 83.4259 51.8867Z" fill="#DC4A26"/>
<path d="M101.067 63.0155C114.896 63.0155 126.107 54.5317 126.107 44.0664C126.107 33.601 114.896 25.1172 101.067 25.1172C87.2384 25.1172 76.0278 33.601 76.0278 44.0664C76.0278 54.5317 87.2384 63.0155 101.067 63.0155Z" fill="#F0E92D"/>
<path d="M101.057 57.7523C111.065 57.7523 119.177 51.6132 119.177 44.0402C119.177 36.4672 111.065 30.3281 101.057 30.3281C91.0496 30.3281 82.937 36.4672 82.937 44.0402C82.937 51.6132 91.0496 57.7523 101.057 57.7523Z" fill="#EF8521"/>
<path d="M88.2547 46.417C88.2547 38.7815 94.027 32.344 101.887 30.3426C101.613 30.3329 101.336 30.3281 101.057 30.3281C91.0494 30.3281 82.937 36.4673 82.937 44.0402C82.937 48.914 86.3042 53.1816 91.3549 55.6233C89.3529 52.9708 88.2651 49.7404 88.2547 46.417Z" fill="#E86124"/>
<path d="M53.6626 50.174L47.8014 44.9297L46.2982 46.6136C38.7942 45.1967 29.5971 48.668 22.8508 56.2121C16.1044 63.7561 13.6777 73.2945 15.9216 80.5859L14.4185 82.2699L20.2797 87.5142C28.0795 94.4905 41.8752 91.789 51.0939 81.4784C60.3127 71.1679 61.4624 57.1503 53.6626 50.174Z" fill="#E86124"/>
<path d="M25.2126 82.0097L19.3513 76.7654L20.8545 75.0814C18.892 68.6849 20.5082 60.5827 25.4723 53.6016C24.5504 54.4279 23.6759 55.3058 22.8532 56.2309C16.1189 63.7774 13.6801 73.3109 15.9216 80.6072L14.4185 82.2911L20.2797 87.5354C28.0795 94.5117 41.8752 91.8102 51.0939 81.4997C51.9181 80.5817 52.6898 79.6179 53.4053 78.6129C44.3476 86.6934 32.3028 88.3533 25.2126 82.0097Z" fill="#DC4A26"/>
<path d="M45.2286 76.2463C54.4479 65.9365 55.5995 51.9229 47.8007 44.946C40.002 37.9692 26.2062 40.6711 16.9869 50.9809C7.76763 61.2907 6.61608 75.3043 14.4148 82.2811C22.2136 89.258 36.0094 86.5561 45.2286 76.2463Z" fill="#F0E92D"/>
<path d="M41.3299 72.7269C48.0015 65.2661 48.835 55.1253 43.1917 50.0766C37.5483 45.028 27.565 46.9834 20.8935 54.4442C14.2219 61.905 13.3883 72.0458 19.0317 77.0945C24.6751 82.1431 34.6583 80.1877 41.3299 72.7269Z" fill="#EF8521"/>
<path d="M24.3417 74.7613C18.6512 69.671 17.6964 61.0829 21.4556 53.8828C21.2648 54.0801 21.0772 54.2821 20.8928 54.489C14.221 61.9465 13.3865 72.091 19.0312 77.1405C22.663 80.3905 28.0937 80.7345 33.2815 78.5838C29.966 78.3129 26.8284 76.9713 24.3417 74.7613Z" fill="#E86124"/>
</g>
<defs>
<filter id="filter0_d_2974_21398" x="9.24268" y="0.304688" width="120.683" height="95.8159" filterUnits="userSpaceOnUse" color-interpolation-filters="sRGB">
<feFlood flood-opacity="0" result="BackgroundImageFix"/>
<feColorMatrix in="SourceAlpha" type="matrix" values="0 0 0 0 0 0 0 0 0 0 0 0 0 0 0 0 0 0 127 0" result="hardAlpha"/>
<feOffset dy="4.71438"/>
<feComposite in2="hardAlpha" operator="out"/>
<feColorMatrix type="matrix" values="0 0 0 0 0 0 0 0 0 0 0 0 0 0 0 0 0 0 0.15 0"/>
<feBlend mode="normal" in2="BackgroundImageFix" result="effect1_dropShadow_2974_21398"/>
<feBlend mode="normal" in="SourceGraphic" in2="effect1_dropShadow_2974_21398" result="shape"/>
</filter>
</defs>
</svg>
