<svg width="95" height="39" viewBox="0 0 95 39" fill="none" xmlns="http://www.w3.org/2000/svg">
<path d="M41.3906 7.26826L41.9426 6.94876L41.9923 6.3125L42.4673 6.73888L43.0876 6.58963L42.8287 7.17303L43.1622 7.71679L42.5275 7.65071L42.1136 8.13617L41.9802 7.51234L41.3906 7.26826Z" fill="#6A32D6"/>
<path d="M3.63621 10.8584C3.2281 10.7445 3.44887 8.26513 3.00578 8.14581C1.36012 7.693 -0.402911 7.1438 -1.43368 5.82812C-1.52308 6.17832 -1.57089 6.54174 -1.53474 6.93391C-0.72746 9.2959 1.1549 10.1782 3.63621 10.8584Z" fill="#418BD6"/>
<path d="M21.169 -0.960938C20.9859 -0.559046 20.5623 -0.539612 20.1868 -0.431949C19.7733 -0.313791 19.5117 -0.0168445 19.5 0.420417C19.4973 0.518752 19.6625 0.719311 19.7103 0.805209C19.7585 0.891495 19.9311 1.08661 19.9284 1.18572C19.94 0.747683 20.202 0.453066 20.6152 0.333354C20.9914 0.224135 21.4139 0.2082 21.5973 -0.195635C21.6187 -0.243054 21.4147 -0.531063 21.3871 -0.580424C21.3595 -0.629009 21.1476 -0.913908 21.169 -0.960938Z" fill="#D32F72"/>
<path d="M42.6256 3.79587C42.5101 3.34111 41.8035 3.51952 41.9189 3.97504C42.0344 4.42941 42.741 4.25101 42.6256 3.79587Z" fill="#D32F72"/>
<path d="M38.4302 4.30368C38.3148 3.84893 37.6082 4.02733 37.7236 4.48286C37.8391 4.93761 38.5457 4.75921 38.4302 4.30368Z" fill="#6AA7EF"/>
<path d="M30.7485 8.05702C30.4892 8.02981 30.2331 8.00455 29.9766 7.97656C30.0733 7.99444 30.1635 8.01893 30.2517 8.04924L30.2545 8.04886C30.4142 8.04536 30.5782 8.04886 30.7485 8.05702Z" fill="#FFD348"/>
<path d="M30.8719 10.5947C30.7432 10.5796 30.6126 10.5675 30.4844 10.5547C30.5524 10.5617 30.6208 10.5687 30.6892 10.578C30.7495 10.5834 30.812 10.5889 30.8719 10.5947Z" fill="#FFD348"/>
<path d="M31.9501 8.18858C31.5544 8.14738 31.1592 8.10618 30.7658 8.06459C30.7608 8.06537 30.7553 8.06653 30.7522 8.0642C30.582 8.05604 30.4179 8.05254 30.2578 8.05604C30.486 8.13688 30.6865 8.25776 30.8486 8.40352C31.1914 8.2772 31.5591 8.20296 31.9501 8.18858Z" fill="#FFD348"/>
<path d="M30.8471 8.40217C30.685 8.25602 30.4849 8.13553 30.2563 8.05469L30.2536 8.05508C29.9598 8.06052 29.6807 8.08734 29.4141 8.14175C29.4755 8.46591 29.5695 8.77646 29.7075 9.06058C30.0499 8.77918 30.4312 8.5522 30.8471 8.40217Z" fill="#FFD348"/>
<path d="M30.485 10.5489C30.6133 10.5613 30.7439 10.5737 30.8725 10.5889C30.8127 10.5831 30.7501 10.578 30.6903 10.5722C31.0373 10.611 31.3836 10.6476 31.7311 10.6888C31.3938 10.5974 31.0991 10.4742 30.8449 10.3203C30.6642 10.4214 30.4326 10.4909 30.1484 10.5216C30.3307 10.5384 30.5107 10.5551 30.6903 10.5722C30.6215 10.5625 30.5534 10.5558 30.485 10.5489Z" fill="#FFD348"/>
<path d="M30.1509 10.5192C30.4351 10.4885 30.6667 10.4189 30.8474 10.3179C30.3161 10.0031 29.9508 9.56541 29.7121 9.05469C29.3646 9.33726 29.0537 9.67501 28.7812 10.052C28.9394 10.1612 29.1112 10.2545 29.2959 10.3323C29.524 10.4267 29.8151 10.5153 30.1331 10.5888L30.1509 10.5192Z" fill="#FFD348"/>
<path d="M30.7679 8.0625C31.1609 8.10409 31.5565 8.14529 31.9522 8.18649C31.5608 8.20087 31.1935 8.27511 30.8511 8.40143C31.4975 8.96151 31.6063 9.899 30.8468 10.323C31.1014 10.477 31.396 10.6002 31.733 10.6915C31.3855 10.6499 31.0392 10.6138 30.6921 10.5749C30.5125 10.5578 30.3326 10.5407 30.1503 10.5244L30.1328 10.5943C30.9926 10.7933 32.0564 10.8742 32.686 10.6258C33.6084 10.2597 33.5578 9.15118 32.8738 8.55728C32.4291 8.17094 31.7901 8.16394 31.2304 8.10292C31.0718 8.08465 30.9195 8.07105 30.7679 8.0625Z" fill="#E5B633"/>
<path d="M29.7291 -0.316629C29.0738 -0.620963 28.4577 -0.835514 27.8852 -1.14062L27.4207 -0.652837C29.9728 0.267938 27.7499 3.6537 27.4063 5.47349C27.2027 6.55362 27.2606 7.86152 27.7732 8.88685C28.2805 8.49078 28.8207 8.25486 29.4173 8.14097C29.1394 6.70792 29.5048 4.98609 29.9257 3.70501C30.3393 2.44414 31.3747 0.445566 29.7291 -0.316629Z" fill="#FFD348"/>
<path d="M29.711 9.05946C29.5734 8.77534 29.4793 8.46478 29.4175 8.14062C28.8213 8.2549 28.2807 8.49044 27.7734 8.8865C28.0094 9.35174 28.3401 9.76063 28.7801 10.0568C29.0522 9.68017 29.3635 9.34203 29.711 9.05946Z" fill="#FFD348"/>
<path d="M28.7763 10.0531C28.3363 9.75694 28.0059 9.34845 27.7696 8.88281C27.4699 9.1168 27.18 9.40558 26.8986 9.76005C23.7872 13.6589 25.8165 18.8415 28.51 22.3093C28.7961 22.6773 30.2043 22.1627 30.4771 22.5145C28.5928 20.0849 27.0455 17.1546 27.3339 13.9838C27.4501 12.7074 27.9371 11.2087 28.7763 10.0531Z" fill="#FFD348"/>
<path d="M48.6846 16.0351L48.1311 17.1615L48.7452 18.256L47.5026 18.078L46.6514 19.0003L46.4373 17.7632L45.2969 17.2389L46.4069 16.6527L46.5535 15.4062L47.4536 16.2808L48.6846 16.0351Z" fill="#6AA7EF"/>
<path d="M9.6997 6.44042L8.46409 6.21848L7.58103 7.1105L7.41039 5.86712L6.28906 5.30315L7.41894 4.75628L7.60901 3.51562L8.47809 4.42124L9.7168 4.21835L9.12407 5.32491L9.6997 6.44042Z" fill="#6AA7EF"/>
<path d="M74.3003 20.3322L73.4639 20.6529L73.254 21.5239L72.6901 20.8274L71.7969 20.897L72.285 20.1457L71.943 19.3178L72.8082 19.5498L73.4899 18.9688L73.5366 19.8635L74.3003 20.3322Z" fill="#D32F72"/>
<path d="M3.18998 37.7999L3.00303 37.2417L2.4375 37.0793L2.91052 36.7291L2.89031 36.1406L3.36954 36.4823L3.92263 36.2813L3.74578 36.8426L4.10803 37.3067L3.51919 37.3121L3.18998 37.7999Z" fill="#D32F72"/>
<path d="M50.798 36.7667L50.0642 37.0485L49.8799 37.8126L49.3855 37.2016L48.6016 37.2626L49.0299 36.6034L48.7298 35.877L49.4889 36.0803L50.0871 35.5703L50.1283 36.3554L50.798 36.7667Z" fill="#D32F72"/>
<path d="M65.7531 37.215L64.9166 37.5357L64.7068 38.4067L64.1432 37.7106L63.25 37.7802L63.7382 37.0289L63.3958 36.2006L64.2613 36.4326L64.9431 35.8516L64.9897 36.7463L65.7531 37.215Z" fill="#D32F72"/>
<path d="M5.22964 14.4338L4.39321 14.7548L4.18332 15.6259L3.61974 14.9294L2.72656 14.9989L3.21435 14.2476L2.87232 13.4197L3.7379 13.6518L4.41963 13.0703L4.46628 13.965L5.22964 14.4338Z" fill="#F7639C"/>
<path d="M62.4428 -3.79378C62.6453 -2.25034 62.8746 -0.732172 62.0129 0.670951C60.5332 3.07919 56.4576 3.82662 55.4859 6.5322C54.9359 5.468 54.8943 4.45861 55.2569 7.71533C55.2636 7.78568 55.2702 7.85603 55.2768 7.92677L55.2601 7.9291C55.0237 6.64919 54.6172 4.97438 55.0031 3.70535C55.4847 2.13082 56.971 1.13037 58.3011 0.319588C59.6373 -0.493524 61.1124 -1.32374 61.8186 -2.79216C61.964 -3.09571 62.0716 -3.41793 62.1443 -3.74791C62.2411 -3.53919 62.3398 -3.32425 62.4572 -3.10504C62.3868 -4.06235 62.3355 -4.63215 62.2994 -4.8125H62.3056C62.3554 -4.47707 62.3969 -4.13542 62.4428 -3.79378Z" fill="#FFD348"/>
<path d="M58.8171 11.7578C59.0767 13.1473 59.4273 14.812 59.0794 16.1953C58.7941 17.3377 58.2034 18.3366 57.8808 19.4291C57.5675 19.0766 57.3972 18.6941 57.2923 18.2075C57.4035 19.0342 57.5162 19.8606 57.6293 20.6873C57.6293 20.6915 57.6293 20.6954 57.6293 20.6997C57.6402 20.8074 57.6514 20.9131 57.6623 21.0208H57.6561C57.6281 20.8614 57.6064 20.6978 57.5826 20.5299C57.4587 19.6289 57.2849 18.7073 57.2523 17.7971C57.1959 16.1261 58.2053 14.7265 58.6266 13.1773C58.6853 13.2721 58.7397 13.3716 58.7922 13.4727C59.0044 13.892 59.2015 14.9193 58.9924 13.3036C58.929 12.7898 58.8676 12.2759 58.8043 11.7601L58.8171 11.7578Z" fill="#FFD348"/>
<path d="M58.9907 13.3012C59.1999 14.917 59.0028 13.8901 58.7906 13.4703C58.7381 13.3693 58.6837 13.2698 58.625 13.1749C58.7486 12.7202 58.8224 12.251 58.8026 11.7578C58.866 12.2736 58.9274 12.7874 58.9907 13.3012Z" fill="#FFD348"/>
<path d="M58.7936 11.654C58.8002 11.6894 58.8064 11.7244 58.813 11.7617L58.8006 11.764C58.8204 12.2573 58.7466 12.7264 58.623 13.1812C58.5141 12.9973 58.3948 12.8197 58.2693 12.6463C57.8717 12.0952 57.4084 11.5965 56.9657 11.0807C56.1801 10.165 55.4945 9.24892 55.2773 8.03935C55.2706 8.00632 55.2644 7.97095 55.2578 7.93597L55.2745 7.93363C55.2566 7.4132 55.3324 6.95261 55.4833 6.53906C55.5672 6.70231 55.6616 6.86749 55.7705 7.0183C56.1658 7.56711 56.6271 8.06617 57.0659 8.57767C57.8596 9.49961 58.5682 10.4344 58.7936 11.654Z" fill="#E5B633"/>
<path d="M58.2498 21.1274C58.2824 21.3863 58.2579 22.4272 58.4192 22.6522C57.933 22.1741 57.7616 21.6323 57.6562 21.0213H57.6625C57.6403 20.4554 57.7301 19.9322 57.8805 19.4297C57.9287 19.4833 57.9785 19.5346 58.0329 19.5883C58.2641 19.8129 58.2082 20.8188 58.2498 21.1274Z" fill="#FFD348"/>
<path d="M57.6435 20.8337C57.6346 20.7447 57.6237 20.6596 57.6128 20.5706C57.6171 20.6098 57.6218 20.6514 57.626 20.6907C57.5129 19.864 57.3998 19.0377 57.2891 18.2109C57.3936 18.6976 57.5642 19.08 57.8775 19.4326C57.7271 19.9351 57.6373 20.4583 57.6595 21.0242C57.6486 20.9165 57.6373 20.8108 57.6264 20.7031C57.6327 20.7467 57.6393 20.7902 57.6435 20.8337Z" fill="#FFD348"/>
<path d="M57.6172 20.5703C57.6281 20.6593 57.6389 20.7444 57.6479 20.8334C57.6436 20.7899 57.637 20.7464 57.6304 20.7029C57.6304 20.6986 57.6304 20.6947 57.6304 20.6904C57.6261 20.6512 57.6215 20.6096 57.6172 20.5703Z" fill="#FFD348"/>
<path d="M55.4876 6.53739C55.3368 6.95095 55.261 7.41153 55.2789 7.93196C55.2723 7.86161 55.2657 7.79088 55.2591 7.72052C54.8961 4.46341 54.9376 5.4732 55.4876 6.53739Z" fill="#FFD348"/>
<path d="M97.7177 23.7161C97.6785 24.6474 96.851 25.5413 96.8121 26.4633C96.9586 22.99 90.5004 24.9047 90.9178 21.3584C90.9357 21.2087 90.9649 21.0583 91.0022 20.9083L91.0193 20.9114C91.2385 20.3948 91.5599 20.0023 91.9533 19.6797C92.8939 21.6452 97.8433 20.7715 97.7177 23.7161Z" fill="#D32F72"/>
<path d="M95.5387 15.1571C95.5387 15.159 95.5387 15.159 95.5363 15.161C95.1799 15.7226 94.6031 16.0215 94.0073 16.3107C93.8075 16.1711 93.5805 16.058 93.3477 15.9659C93.2727 15.9348 94.2906 13.2316 94.2549 13.2188C95.007 13.5184 95.7587 14.0661 95.6133 14.9678C95.473 15.8314 95.0684 16.7821 94.7481 17.5964C94.7407 17.6151 94.7333 17.6341 94.7244 17.6528C94.9879 16.8435 95.2515 16.0363 95.5154 15.2274C95.5251 15.201 95.5352 15.175 95.5449 15.1485C95.543 15.1516 95.541 15.1536 95.5387 15.1571Z" fill="#D32F72"/>
<path d="M95.5369 15.1641C95.5167 15.2224 95.4968 15.2787 95.4766 15.3374C95.4891 15.3017 95.5034 15.2659 95.5163 15.2301C95.2527 16.0394 94.9892 16.8466 94.7253 17.6555C94.7249 17.6594 94.723 17.6609 94.7206 17.6648C94.7751 17.0558 94.4571 16.622 94.0078 16.3134C94.6033 16.0242 95.1804 15.7257 95.5369 15.1641Z" fill="#F7639C"/>
<path d="M94.0064 16.3125C94.4561 16.6211 94.7737 17.0545 94.7192 17.6639C94.4274 18.341 93.8999 18.601 93.2326 18.9116C92.7607 19.1296 92.3254 19.3714 91.9507 19.6784C91.7731 19.3065 91.7393 18.8335 91.9107 18.2124C91.6126 19.1117 91.3148 20.0108 91.0171 20.9102L91 20.907C91.1166 20.4402 91.3102 19.9758 91.4555 19.5327C91.6646 18.9011 91.8287 18.175 92.1987 17.6103C92.6305 16.9499 93.3305 16.6378 94.0064 16.3125Z" fill="#F7639C"/>
<path d="M91.9496 19.677C91.5563 20 91.2348 20.3922 91.0156 20.9087C91.3137 20.0093 91.6115 19.1103 91.9092 18.2109C91.7382 18.832 91.772 19.3051 91.9496 19.677Z" fill="#F7639C"/>
<path d="M65.3543 6.58998C65.4391 5.66144 66.3097 4.80946 66.3932 3.89062C66.0765 7.35257 72.621 5.75666 72.0298 9.27846C72.005 9.42694 71.968 9.5758 71.9237 9.72388L71.9066 9.71961C71.6625 10.2249 71.3221 10.6011 70.9136 10.9043C70.0705 8.89484 65.0842 9.52488 65.3543 6.58998Z" fill="#6AA7EF"/>
<path d="M67.107 15.2412C67.1074 15.2393 67.1074 15.2393 67.1094 15.2377C67.4926 14.694 68.0838 14.4242 68.6932 14.1646C68.886 14.3138 69.1072 14.4378 69.3349 14.5412C69.4084 14.5758 68.2587 17.2262 68.2941 17.2406C67.5575 16.9044 66.8334 16.3206 67.0227 15.427C67.205 14.5715 67.6558 13.6418 68.0158 12.8439C68.0239 12.8256 68.0321 12.8069 68.0422 12.7891C67.739 13.5843 67.4362 14.3776 67.1335 15.1728C67.1222 15.1985 67.1113 15.2245 67.1 15.2502C67.1024 15.2463 67.1047 15.2447 67.107 15.2412Z" fill="#6AA7EF"/>
<path d="M67.1016 15.2492C67.1128 15.2236 67.1237 15.1975 67.135 15.1719C67.1264 15.194 67.1179 15.2142 67.1109 15.2368C67.1086 15.2383 67.1086 15.2383 67.1086 15.2403C67.1062 15.2438 67.1039 15.2453 67.1016 15.2492Z" fill="#418BD6"/>
<path d="M67.1094 15.2402C67.1164 15.2176 67.1245 15.1974 67.1335 15.1753C67.1479 15.1403 67.1638 15.1053 67.1782 15.0703C67.1552 15.1274 67.1323 15.1826 67.1094 15.2402Z" fill="#418BD6"/>
<path d="M67.1094 15.2392C67.1323 15.1821 67.1552 15.1265 67.1782 15.069C67.1638 15.104 67.1479 15.139 67.1335 15.1739C67.4366 14.3787 67.7394 13.5854 68.0422 12.7902C68.0426 12.7863 68.0449 12.7847 68.0473 12.7812C67.9633 13.3868 68.2591 13.8357 68.6932 14.1657C68.0838 14.4257 67.493 14.6955 67.1094 15.2392Z" fill="#418BD6"/>
<path d="M68.6993 14.1644C68.2655 13.8341 67.9694 13.3855 68.0533 12.78C68.3782 12.1181 68.9177 11.8841 69.5995 11.6066C70.0814 11.4122 70.5284 11.1918 70.9175 10.9034C71.0764 11.2839 71.0873 11.7577 70.8856 12.3695C71.2272 11.4861 71.5689 10.6022 71.9105 9.71875L71.9276 9.72302C71.7885 10.1836 71.5724 10.638 71.4053 11.0733C71.1654 11.694 70.9661 12.4111 70.5688 12.9568C70.1051 13.5954 69.3904 13.8725 68.6993 14.1644Z" fill="#418BD6"/>
<path d="M70.9147 10.9034C71.3232 10.6003 71.6637 10.224 71.9078 9.71875C71.5661 10.6022 71.2245 11.4861 70.8828 12.3695C71.0845 11.7577 71.0737 11.2839 70.9147 10.9034Z" fill="#418BD6"/>
<path d="M63.9812 18.5335C64.4371 17.7204 65.5794 17.2971 66.0307 16.4922C64.3302 19.5243 70.9563 20.7354 68.9811 23.7099C68.8975 23.8355 68.8035 23.9563 68.7028 24.0733L68.6888 24.0624C68.2597 24.4243 67.7956 24.6291 67.2989 24.7391C67.3479 22.5614 62.538 21.1034 63.9812 18.5335Z" fill="#D32F72"/>
<path d="M62.0576 27.1469C62.0588 27.1454 62.0588 27.1454 62.0611 27.1446C62.6329 26.8045 63.2827 26.7991 63.9446 26.8103C64.0597 27.0253 64.2113 27.2286 64.3772 27.4159C64.4301 27.4777 62.3001 29.4289 62.3262 29.4565C61.7906 28.849 61.3677 28.0211 61.9049 27.2822C62.4202 26.5756 63.2108 25.9102 63.8646 25.3283C63.8797 25.3147 63.8945 25.3015 63.9112 25.2891C63.3103 25.8915 62.7106 26.4928 62.1097 27.0952C62.0891 27.1143 62.0685 27.1333 62.0479 27.1524C62.0514 27.1497 62.0541 27.1493 62.0576 27.1469Z" fill="#D32F72"/>
<path d="M62.0469 27.1587C62.0675 27.1397 62.0881 27.1206 62.1087 27.1016C62.0916 27.1183 62.0756 27.1334 62.0605 27.1513C62.0577 27.1521 62.0578 27.1521 62.057 27.1536C62.0531 27.156 62.0504 27.1564 62.0469 27.1587Z" fill="#F7639C"/>
<path d="M62.0625 27.1509C62.078 27.133 62.094 27.1179 62.1107 27.1012C62.1379 27.0747 62.1671 27.0495 62.1943 27.0234C62.15 27.0666 62.1068 27.1078 62.0625 27.1509Z" fill="#F7639C"/>
<path d="M62.0625 27.1508C62.1068 27.1077 62.1504 27.0665 62.1947 27.0237C62.1675 27.0498 62.1383 27.075 62.1111 27.1015C62.712 26.499 63.3117 25.8977 63.9126 25.2953C63.9145 25.2922 63.9173 25.2914 63.9208 25.2891C63.597 25.8079 63.6845 26.3381 63.946 26.8166C63.2837 26.8053 62.6342 26.8107 62.0625 27.1508Z" fill="#F7639C"/>
<path d="M63.9451 26.8124C63.6835 26.3339 63.5961 25.8038 63.9198 25.2849C64.4861 24.8126 65.0742 24.8193 65.81 24.8437C66.3296 24.8628 66.8271 24.8437 67.3001 24.7392C67.2904 25.1512 67.107 25.5884 66.6732 26.065C67.3452 25.3976 68.0176 24.7299 68.6897 24.0625L68.7037 24.0734C68.3888 24.4372 68.006 24.7637 67.676 25.0933C67.2041 25.5624 66.7296 26.1357 66.1442 26.4723C65.4609 26.866 64.6952 26.8279 63.9451 26.8124Z" fill="#F7639C"/>
<path d="M67.2984 24.7392C67.7952 24.6292 68.2592 24.4244 68.6883 24.0625C68.0163 24.7302 67.3439 25.3976 66.6719 26.065C67.1049 25.5884 67.2883 25.1512 67.2984 24.7392Z" fill="#F7639C"/>
<path d="M24.4543 26.559C24.3136 26.6931 24.1729 26.8272 24.0365 26.9671C23.6291 27.3876 24.5169 26.522 24.5958 26.4766C24.5519 26.5178 24.3427 26.9997 24.3307 27.0464C24.0718 27.8968 24.3544 28.7519 24.9464 29.3788C24.967 29.4006 23.331 30.9596 23.3283 30.9553C21.9788 29.5261 22.839 28.1106 23.9945 26.9725C24.1414 26.8291 24.2922 26.688 24.4411 26.5454L24.4543 26.559Z" fill="#D32F72"/>
<path d="M24.4438 26.5442C24.5927 26.402 24.7384 26.2601 24.883 26.112C24.9518 26.0413 24.9844 26.0086 24.9895 26.0012C24.9833 25.9942 24.4819 26.4746 24.3474 26.5912C24.4275 26.4789 24.581 26.0362 24.5954 25.9779C24.7815 25.1228 24.3077 24.2572 23.9105 23.5374C23.8071 23.3466 25.6164 22.1226 25.5286 21.9609C25.9522 22.7309 26.4486 23.6525 26.1652 24.5515C25.9651 25.1912 25.3856 25.6545 24.923 26.1093C24.7711 26.2605 24.6132 26.4078 24.4562 26.5582L24.4438 26.5442Z" fill="#F7639C"/>
<path d="M24.3339 26.6016C24.3265 26.6128 24.3176 26.6179 24.3125 26.6171C24.3168 26.6148 24.3238 26.6086 24.3339 26.6016Z" fill="#D32F72"/>
<path d="M73.3783 -0.308108C73.2489 -0.147974 73.1226 0.0113844 72.9982 0.176572C72.9391 0.255473 72.9107 0.292009 72.9068 0.300171C72.9138 0.306002 73.3495 -0.23426 73.4681 -0.367188C73.4032 -0.245532 73.3076 0.213497 73.3006 0.272964C73.2252 1.14477 73.8059 1.94272 74.2921 2.6058C74.4192 2.78187 72.7813 4.22736 72.8894 4.37622C72.3705 3.66689 71.7603 2.81646 71.9262 1.88869C72.0428 1.22872 72.5582 0.694679 72.9589 0.184736C73.0903 0.0152726 73.2279 -0.151082 73.3643 -0.320157L73.3783 -0.308108Z" fill="#F7639C"/>
<path d="M13.7585 14.8859C13.4029 15.0795 14.2782 17.4873 13.956 17.6611C15.5009 16.8169 17.093 15.928 18.4864 14.8424C19.1747 14.3052 19.3873 13.8252 19.4239 13.1878C19.2742 12.6343 18.8525 12.3102 18.4028 12C17.992 12.344 17.4976 12.6246 17.0615 12.913C15.9895 13.6188 14.8864 14.2691 13.7585 14.8859Z" fill="#76DDC9"/>
<path d="M13.9609 -1.86719C14.3457 -1.69034 13.7371 0.722955 14.1557 0.910686C15.7092 1.6173 17.3638 2.43818 18.1738 3.89922C18.3172 3.56729 18.4218 3.21593 18.4482 2.82336C18.0234 0.364206 16.3039 -0.804157 13.9609 -1.86719Z" fill="#50CCB4"/>
<path d="M16.7578 7.35938C16.8169 8.23623 16.8787 9.11308 16.9405 9.99266C16.9432 10.0148 16.9463 10.0374 16.949 10.0595C16.9914 9.50526 17.1819 9.03107 17.4252 8.58215C17.0956 8.29647 16.8383 7.94122 16.7578 7.35938Z" fill="#50CCB4"/>
<path d="M16.9453 9.99219C16.9484 10.0229 16.9484 10.0563 16.9511 10.0866C16.9511 10.0785 16.9539 10.0672 16.9539 10.0587C16.9508 10.0369 16.948 10.0147 16.9453 9.99219Z" fill="#6A32D6"/>
<path d="M18.4541 2.82812C18.4277 3.22069 18.3235 3.57205 18.1797 3.90398C18.4179 4.32919 18.5843 4.80999 18.6531 5.35841C18.6002 4.61254 18.547 3.86356 18.4969 3.11497C18.4883 3.01741 18.4739 2.92296 18.4541 2.82812Z" fill="#50CCB4"/>
<path d="M16.8775 6.47337C16.6357 7.30125 16.8009 8.22242 16.8623 9.06585C16.886 9.38884 16.9008 9.69783 16.9412 9.99012C16.8794 9.11054 16.8176 8.23369 16.7585 7.35683C16.8386 7.93829 17.0963 8.29393 17.4259 8.57922C17.8321 7.80925 18.3863 7.11352 18.5861 6.22462C18.7832 5.35787 18.5982 4.34809 18.5336 3.4794C18.5247 3.35424 18.513 3.22909 18.4932 3.10938C18.5434 3.85835 18.5966 4.60695 18.6495 5.35282C18.5807 4.8044 18.4143 4.3236 18.176 3.89839C17.806 4.77136 17.1632 5.50051 16.8775 6.47337Z" fill="#76DDC9"/>
<path d="M19.4312 12.859C19.3783 12.1046 19.3251 11.3533 19.2722 10.6016C19.1855 11.1978 18.842 11.6362 18.4062 12.0027C18.8556 12.3129 19.2773 12.6371 19.4273 13.1905C19.4347 13.0875 19.4343 12.976 19.4312 12.859Z" fill="#76DDC9"/>
<path d="M19.41 12.3518C19.3598 11.5834 19.4613 10.5056 18.9797 9.85299C18.5374 9.2587 17.9073 8.99401 17.4293 8.57812C17.1859 9.02744 16.9955 9.50123 16.9531 10.0555C17.0301 10.5592 17.1964 11.0151 17.6461 11.4256C17.8782 11.639 18.1487 11.8162 18.4056 11.9962C18.8413 11.6296 19.1849 11.1912 19.2716 10.595C19.3244 11.3467 19.3777 12.098 19.4305 12.8524C19.4305 12.6969 19.4216 12.5329 19.41 12.3518Z" fill="#50CCB4"/>
<path d="M19.4219 13.1827C19.4417 13.2441 19.4557 13.3051 19.4642 13.372C19.4526 13.1994 19.4378 13.0241 19.4261 12.8516C19.4293 12.9682 19.4296 13.0797 19.4219 13.1827Z" fill="#6A32D6"/>
<path d="M79.7746 23.7109C79.7653 24.9217 78.726 25.444 77.9051 26.132C77.0014 26.8895 76.6781 27.925 77.1371 29.0331C77.2401 29.2818 77.8775 29.6009 78.0932 29.7619C78.3101 29.9239 78.9596 30.2197 79.0638 30.4716C78.6039 29.3619 78.9312 28.3315 79.8318 27.5705C80.6523 26.8771 81.692 26.366 81.7013 25.149C81.7025 25.0064 80.8696 24.5132 80.7452 24.4203C80.6224 24.3293 79.7735 23.852 79.7746 23.7109Z" fill="#6AA7EF"/>
<path d="M52.9549 26.0542C52.5771 25.5376 52.8534 24.9884 52.9848 24.4373C53.1294 23.831 52.9401 23.2895 52.396 22.9642C52.2739 22.8911 51.9027 22.9568 51.7605 22.9564C51.6175 22.9561 51.2486 23.0353 51.125 22.9615C51.6699 23.2872 51.8561 23.8279 51.7139 24.4346C51.5844 24.9877 51.3042 25.5322 51.6839 26.0515C51.7286 26.1125 52.2374 26.0592 52.3194 26.0592C52.3999 26.0592 52.911 25.994 52.9549 26.0542Z" fill="#FFD348"/>
<path d="M48.0509 -2.47656C48.0458 -1.83641 47.4966 -1.56045 47.0625 -1.19665C46.5848 -0.796313 46.4137 -0.248668 46.6567 0.337068C46.7111 0.46844 47.0481 0.637128 47.1623 0.722248C47.277 0.807757 47.6202 0.964392 47.6754 1.09732C47.4325 0.510807 47.6054 -0.0341179 48.0812 -0.436398C48.5149 -0.80292 49.0645 -1.07305 49.0696 -1.71631C49.07 -1.79171 48.63 -2.05251 48.5639 -2.10149C48.4994 -2.14968 48.0505 -2.40194 48.0509 -2.47656Z" fill="#F7639C"/>
<path d="M33.4414 31.2109C33.6353 31.6078 33.3812 31.9471 33.2253 32.3054C33.0539 32.7 33.1169 33.0902 33.4468 33.3774C33.5211 33.4419 33.7807 33.4423 33.8775 33.4598C33.9747 33.4773 34.2347 33.4684 34.3097 33.5333C33.9789 33.246 33.9179 32.8562 34.0882 32.4613C34.2428 32.1014 34.4994 31.7652 34.3043 31.3668C34.2813 31.3202 33.9292 31.2945 33.8736 31.2844C33.8188 31.2747 33.4639 31.2572 33.4414 31.2109Z" fill="#6AA7EF"/>
<path d="M78.7743 18.9552C79.0184 18.5871 79.4397 18.6345 79.8276 18.5879C80.2547 18.5366 80.5595 18.2847 80.6399 17.8545C80.6578 17.7581 80.5268 17.5334 80.493 17.4413C80.4592 17.3484 80.3196 17.1288 80.3379 17.0312C80.2575 17.4619 79.952 17.7114 79.5256 17.7647C79.1369 17.8133 78.7175 17.762 78.4723 18.132C78.4435 18.1755 78.5998 18.4919 78.6192 18.5451C78.6382 18.5976 78.8027 18.9124 78.7743 18.9552Z" fill="#D32F72"/>
<path d="M25.1493 18.963C25.3934 18.5949 25.8147 18.6423 26.2026 18.5957C26.6297 18.5444 26.9345 18.2925 27.0149 17.8623C27.0332 17.7659 26.9018 17.5412 26.868 17.4491C26.8338 17.3566 26.6947 17.1366 26.7129 17.0391C26.6325 17.4697 26.327 17.7192 25.9006 17.7725C25.5119 17.8211 25.0921 17.7698 24.8473 18.1398C24.8185 18.1833 24.9748 18.4997 24.9942 18.553C25.0132 18.605 25.1777 18.9199 25.1493 18.963Z" fill="#D32F72"/>
<path d="M90.4582 27.7088C90.0497 27.5413 90.0139 27.1188 89.8922 26.7472C89.7585 26.3383 89.4519 26.0888 89.0142 26.0938C88.9159 26.095 88.7215 26.2676 88.6376 26.3189C88.5532 26.3702 88.3651 26.5501 88.2656 26.5513C88.7037 26.5462 89.008 26.7969 89.1436 27.2047C89.2672 27.5766 89.2991 27.998 89.7096 28.1662C89.7578 28.1861 90.0376 27.9707 90.0862 27.9412C90.134 27.9121 90.4107 27.6893 90.4582 27.7088Z" fill="#6AA7EF"/>
<path d="M1.21177 29.5099C1.45586 29.1418 1.87719 29.1892 2.26509 29.1426C2.69224 29.0913 2.99696 28.8394 3.07742 28.4092C3.0953 28.3128 2.96432 28.0881 2.9305 27.996C2.8963 27.9035 2.75715 27.6835 2.77542 27.5859C2.69497 28.0166 2.38946 28.2661 1.96308 28.3194C1.57441 28.368 1.15503 28.3166 0.909772 28.6867C0.88101 28.7302 1.03726 29.0466 1.05669 29.0998C1.07574 29.1523 1.24014 29.4671 1.21177 29.5099Z" fill="#D32F72"/>
<path d="M45.6684 30.9585C45.4873 30.5559 45.7524 30.2247 45.9199 29.8714C46.1041 29.4827 46.054 29.0906 45.7333 28.7928C45.6614 28.726 45.4014 28.717 45.3054 28.6968C45.209 28.6762 44.9486 28.6766 44.8759 28.6094C45.197 28.9071 45.2452 29.2985 45.0625 29.688C44.8961 30.0424 44.6291 30.3701 44.811 30.7751C44.8324 30.8225 45.1833 30.8594 45.2389 30.8711C45.2933 30.8827 45.6474 30.9119 45.6684 30.9585Z" fill="#6AA7EF"/>
<path d="M89.379 2.95312C89.3739 3.59328 88.8247 3.86924 88.3906 4.23304C87.9129 4.63337 87.7419 5.18102 87.9848 5.76676C88.0392 5.89813 88.3762 6.06681 88.4905 6.15232C88.6051 6.23783 88.9483 6.39447 89.0035 6.5274C88.7606 5.94088 88.9336 5.39596 89.4093 4.99368C89.8431 4.62716 90.3927 4.35703 90.3977 3.71377C90.3981 3.63836 89.9581 3.37756 89.892 3.3282C89.8275 3.28 89.3786 3.02775 89.379 2.95312Z" fill="#76DDC9"/>
<path d="M47.8232 9.27344C48.3005 10.546 47.7808 11.988 46.6016 12.6635C46.794 12.5535 47.473 12.6942 47.7027 12.6996C47.9623 12.7055 48.5718 12.8465 48.8042 12.7136C49.9838 12.0381 50.5035 10.5961 50.0258 9.32358C49.9986 9.2509 49.0292 9.28976 48.9247 9.28743C48.8248 9.2851 47.8469 9.3364 47.8232 9.27344Z" fill="#F7639C"/>
<path d="M94.8873 -0.0625C95.2095 0.796864 94.8589 1.77011 94.0625 2.22603C94.1923 2.15179 94.651 2.24663 94.806 2.25051C94.9813 2.2544 95.3929 2.35002 95.55 2.25984C96.3464 1.80392 96.697 0.83029 96.3747 -0.0286859C96.3565 -0.0776592 95.7019 -0.0512305 95.6312 -0.0531739C95.564 -0.0547286 94.9036 -0.0201342 94.8873 -0.0625Z" fill="#F7639C"/>
<path d="M16.8873 22.75C17.2095 23.609 16.8589 24.5826 16.0625 25.0385C16.1923 24.9643 16.651 25.0595 16.806 25.063C16.9813 25.0669 17.3929 25.1625 17.55 25.0723C18.3464 24.6164 18.697 23.6428 18.3747 22.7838C18.3565 22.7348 17.7019 22.7613 17.6312 22.7593C17.5636 22.7578 16.9032 22.7924 16.8873 22.75Z" fill="#76DDC9"/>
<path d="M32.9835 15.1875C33.3282 16.1059 32.9528 17.1468 32.1016 17.6342C32.2403 17.5549 32.7304 17.6564 32.8964 17.6603C33.0838 17.6645 33.5237 17.7664 33.6916 17.6704C34.5428 17.183 34.9179 16.1421 34.5736 15.2236C34.5537 15.1712 33.8545 15.1992 33.7787 15.1976C33.7064 15.1961 33.0002 15.233 32.9835 15.1875Z" fill="#6A32D6"/>
<path d="M25.7859 8.75569C25.2262 8.25002 25.1146 7.40698 25.5239 6.77344C25.457 6.87683 25.0863 6.9806 24.972 7.03657C24.8426 7.09992 24.506 7.18543 24.4255 7.31059C24.0162 7.94413 24.1278 8.78756 24.6875 9.29284C24.7193 9.3216 25.1873 9.05536 25.2394 9.02971C25.2891 9.00522 25.7583 8.73081 25.7859 8.75569Z" fill="#6A32D6"/>
<path d="M8.42177 23.6421C9.80273 22.9491 10.5762 21.4554 10.3449 19.9279C10.3201 19.7635 7.77074 19.9991 7.7513 19.8728C7.98218 21.4006 7.2087 22.8939 5.82812 23.587C6.08232 23.4595 6.83247 23.6211 7.12476 23.6274C7.45086 23.6348 8.12249 23.7926 8.42177 23.6421Z" fill="#6AA7EF"/>
<path d="M89.8308 22.351C89.8941 23.0518 90.9828 22.9546 90.9195 22.2527C90.8565 21.5523 89.7674 21.6491 89.8308 22.351Z" fill="#D32F72"/>
<path d="M89.7995 11.601C89.8629 12.3018 90.9516 12.2046 90.8882 11.5027C90.8253 10.8023 89.7362 10.8991 89.7995 11.601Z" fill="#F7639C"/>
<path d="M3.32988 9.23679C3.37185 9.70398 4.0979 9.63907 4.05592 9.17111C4.01395 8.70392 3.2879 8.76883 3.32988 9.23679Z" fill="#D32F72"/>
<path d="M27.2596 29.0102C27.3015 29.4774 28.0276 29.4125 27.9856 28.9445C27.9436 28.4774 27.2176 28.5423 27.2596 29.0102Z" fill="#F7639C"/>
<path d="M72.1658 11.9709C72.2078 12.4381 72.9338 12.3732 72.8919 11.9052C72.8499 11.4384 72.1238 11.5033 72.1658 11.9709Z" fill="#D32F72"/>
<path d="M79.6797 2.489C79.9385 2.45829 80.1943 2.42953 80.4504 2.39844C80.3537 2.41787 80.2643 2.44353 80.1764 2.47501L80.1737 2.47462C80.0136 2.47307 79.8495 2.47889 79.6797 2.489Z" fill="#76DDC9"/>
<path d="M79.5938 5.02165C79.722 5.00455 79.8526 4.99094 79.9805 4.97656C79.9125 4.98434 79.8444 4.99211 79.7756 5.0026C79.7162 5.00882 79.6536 5.01504 79.5938 5.02165Z" fill="#76DDC9"/>
<path d="M78.4844 2.63179C78.8793 2.58515 79.2746 2.5389 79.6667 2.49187C79.6718 2.49264 79.6772 2.49342 79.6803 2.49148C79.8502 2.48137 80.0142 2.47554 80.1743 2.47671C79.947 2.56066 79.7484 2.68387 79.5882 2.83196C79.2446 2.7103 78.8762 2.64073 78.4844 2.63179Z" fill="#76DDC9"/>
<path d="M79.5859 2.83181C79.7461 2.68372 79.9447 2.56052 80.1721 2.47656L80.1748 2.47695C80.4686 2.47851 80.7481 2.50183 81.0155 2.55235C80.9584 2.87729 80.8682 3.18901 80.7345 3.47507C80.3882 3.19795 80.0038 2.97601 79.5859 2.83181Z" fill="#76DDC9"/>
<path d="M79.9785 4.98169C79.8507 4.99607 79.7201 5.01006 79.5918 5.02678C79.6517 5.02017 79.7142 5.01434 79.7737 5.00773C79.4274 5.05126 79.0815 5.09208 78.7344 5.13833C79.0706 5.04233 79.3633 4.91523 79.6155 4.75781C79.7974 4.85654 80.0302 4.923 80.3143 4.94982C80.1324 4.96887 79.9529 4.9883 79.7733 5.00773C79.8425 4.99763 79.9105 4.98985 79.9785 4.98169Z" fill="#76DDC9"/>
<path d="M80.316 4.94654C80.0315 4.91972 79.7991 4.85325 79.6172 4.75453C80.1442 4.43232 80.5038 3.99 80.7354 3.47656C81.0868 3.75447 81.402 4.08834 81.6795 4.46147C81.5229 4.57263 81.3526 4.66863 81.1684 4.7487C80.9418 4.84626 80.6515 4.93876 80.3343 5.0165L80.316 4.94654Z" fill="#76DDC9"/>
<path d="M79.6646 2.49219C79.2721 2.53922 78.8772 2.58547 78.4823 2.63211C78.8737 2.64105 79.2421 2.71062 79.5861 2.83267C78.9475 3.40169 78.8507 4.34035 79.6161 4.7539C79.3638 4.91131 79.0707 5.03841 78.7349 5.13441C79.0816 5.08816 79.4279 5.04735 79.7743 5.00382C79.9538 4.98438 80.1334 4.96495 80.3153 4.9459L80.3336 5.01548C79.4765 5.22614 78.4139 5.32098 77.7811 5.08078C76.8541 4.72708 76.8895 3.6178 77.5658 3.01496C78.0054 2.62278 78.644 2.60724 79.2029 2.53883C79.3607 2.51823 79.5131 2.50268 79.6646 2.49219Z" fill="#94EDDC"/>
<path d="M80.5916 -5.90152C81.2431 -6.2144 81.856 -6.43712 82.4243 -6.75L82.8953 -6.26843C80.3557 -5.31345 82.6237 -1.95762 82.9913 -0.142885C83.2094 0.934527 83.169 2.24281 82.6699 3.27514C82.1572 2.88568 81.6139 2.65753 81.0161 2.55103C81.2749 1.11448 80.8863 -0.602303 80.4486 -1.87755C80.0184 -3.13336 78.9565 -5.11795 80.5916 -5.90152Z" fill="#76DDC9"/>
<path d="M80.7344 3.47741C80.8681 3.19134 80.9582 2.87962 81.0154 2.55469C81.6132 2.6608 82.1565 2.88934 82.6692 3.27879C82.4395 3.74715 82.1142 4.16031 81.6785 4.46231C81.4009 4.08918 81.0854 3.75531 80.7344 3.47741Z" fill="#76DDC9"/>
<path d="M81.6751 4.46477C82.1108 4.16277 82.4362 3.74961 82.6659 3.28125C82.9686 3.51135 83.2625 3.79625 83.5485 4.14644C86.712 8.00367 84.7519 13.2127 82.1046 16.7162C81.8232 17.0882 80.4084 16.5923 80.1406 16.9479C81.9919 14.4934 83.5003 11.543 83.1696 8.37602C83.037 7.10116 82.5294 5.60903 81.6751 4.46477Z" fill="#76DDC9"/>
</svg>
