<svg width="364" height="64" viewBox="0 0 364 64" fill="none" xmlns="http://www.w3.org/2000/svg">
<path d="M362.631 29.6393C361.875 29.6393 361.262 29.9842 361.262 30.4091V32V33.5909C361.262 34.0161 361.875 34.3607 362.631 34.3607C363.387 34.3607 364 34.0161 364 33.5909V32V30.4091C364 29.9842 363.387 29.6393 362.631 29.6393ZM357.682 28.0941C356.926 28.0941 356.314 28.4387 356.314 28.8639V32V35.1364C356.314 35.5613 356.926 35.9061 357.682 35.9061C358.438 35.9061 359.051 35.5613 359.051 35.1364V32V28.8639C359.051 28.4387 358.438 28.0941 357.682 28.0941ZM352.733 26.274C351.977 26.274 351.365 26.6189 351.365 27.044V32V36.9562C351.365 37.3811 351.977 37.726 352.733 37.726C353.49 37.726 354.102 37.3811 354.102 36.9562V32V27.044C354.102 26.6189 353.49 26.274 352.733 26.274ZM347.785 28.7523C347.029 28.7523 346.416 29.0969 346.416 29.522V32V34.478C346.416 34.9031 347.029 35.2478 347.785 35.2478C348.541 35.2478 349.154 34.9031 349.154 34.478V32V29.522C349.154 29.0969 348.541 28.7523 347.785 28.7523ZM342.836 20.077C342.08 20.077 341.467 20.4216 341.467 20.8469V32V43.1533C341.467 43.5784 342.08 43.9231 342.836 43.9231C343.592 43.9231 344.205 43.5784 344.205 43.1533V32V20.8469C344.205 20.4216 343.592 20.077 342.836 20.077ZM337.887 16.915C337.131 16.915 336.518 17.2598 336.518 17.6849V32V46.3151C336.518 46.7402 337.131 47.0848 337.887 47.0848C338.643 47.0848 339.256 46.7402 339.256 46.3151V32V17.6849C339.256 17.2598 338.643 16.915 337.887 16.915ZM332.939 23.6718C332.182 23.6718 331.57 24.0165 331.57 24.4416V32V39.5586C331.57 39.9835 332.182 40.3284 332.939 40.3284C333.694 40.3284 334.308 39.9835 334.308 39.5586V32V24.4416C334.308 24.0165 333.694 23.6718 332.939 23.6718ZM327.99 20.911C327.233 20.911 326.621 21.2556 326.621 21.6807V32V42.3195C326.621 42.7446 327.233 43.0893 327.99 43.0893C328.745 43.0893 329.359 42.7446 329.359 42.3195V32V21.6807C329.359 21.2556 328.745 20.911 327.99 20.911ZM323.041 17.4496C322.285 17.4496 321.672 17.7942 321.672 18.2194V32V45.7806C321.672 46.2058 322.285 46.5504 323.041 46.5504C323.797 46.5504 324.41 46.2058 324.41 45.7806V32V18.2194C324.41 17.7942 323.797 17.4496 323.041 17.4496ZM318.092 13.9087C317.336 13.9087 316.723 14.2533 316.723 14.6784V32V49.3216C316.723 49.7469 317.336 50.0913 318.092 50.0913C318.848 50.0913 319.461 49.7469 319.461 49.3216V32V14.6784C319.461 14.2533 318.848 13.9087 318.092 13.9087ZM313.143 17.2024C312.387 17.2024 311.774 17.547 311.774 17.9722V32V46.0278C311.774 46.453 312.387 46.7976 313.143 46.7976C313.899 46.7976 314.512 46.453 314.512 46.0278V32V17.9722C314.512 17.547 313.899 17.2024 313.143 17.2024ZM308.194 21.4673C307.438 21.4673 306.825 21.8117 306.825 22.2371V32V41.7634C306.825 42.1883 307.438 42.5331 308.194 42.5331C308.951 42.5331 309.563 42.1883 309.563 41.7634V32V22.2371C309.563 21.8117 308.951 21.4673 308.194 21.4673ZM303.245 24.0727C302.49 24.0727 301.876 24.4174 301.876 24.8425V32V39.1578C301.876 39.5827 302.49 39.9275 303.245 39.9275C304.002 39.9275 304.615 39.5827 304.615 39.1578V32V24.8425C304.615 24.4174 304.002 24.0727 303.245 24.0727ZM298.297 25.6536C297.541 25.6536 296.928 25.9982 296.928 26.4234V32V37.5767C296.928 38.0018 297.541 38.3464 298.297 38.3464C299.053 38.3464 299.666 38.0018 299.666 37.5767V32V26.4234C299.666 25.9982 299.053 25.6536 298.297 25.6536ZM293.348 28.4422C292.592 28.4422 291.979 28.7866 291.979 29.2119V32V34.7886C291.979 35.2134 292.592 35.5583 293.348 35.5583C294.104 35.5583 294.717 35.2134 294.717 34.7886V32V29.2119C294.717 28.7866 294.104 28.4422 293.348 28.4422ZM288.399 29.4406C287.643 29.4406 287.03 29.7852 287.03 30.2103V32V33.7899C287.03 34.215 287.643 34.5599 288.399 34.5599C289.156 34.5599 289.768 34.215 289.768 33.7899V32V30.2103C289.768 29.7852 289.156 29.4406 288.399 29.4406ZM283.451 27.6516C282.694 27.6516 282.082 27.996 282.082 28.4214V32V35.5789C282.082 36.004 282.694 36.3486 283.451 36.3486C284.206 36.3486 284.819 36.004 284.819 35.5789V32V28.4214C284.819 27.996 284.206 27.6516 283.451 27.6516ZM278.502 26.9063C277.746 26.9063 277.133 27.251 277.133 27.6761V32V36.3239C277.133 36.7493 277.746 37.0939 278.502 37.0939C279.258 37.0939 279.87 36.7493 279.87 36.3239V32V27.6761C279.87 27.251 279.258 26.9063 278.502 26.9063ZM273.553 24.8667C272.797 24.8667 272.184 25.2113 272.184 25.6365V32V38.3636C272.184 38.7889 272.797 39.1335 273.553 39.1335C274.309 39.1335 274.921 38.7889 274.921 38.3636V32V25.6365C274.921 25.2113 274.309 24.8667 273.553 24.8667ZM268.604 27.6516C267.848 27.6516 267.235 27.996 267.235 28.4214V32V35.5789C267.235 36.004 267.848 36.3486 268.604 36.3486C269.36 36.3486 269.973 36.004 269.973 35.5789V32V28.4214C269.973 27.996 269.36 27.6516 268.604 27.6516ZM263.655 26.0705C262.899 26.0705 262.287 26.4151 262.287 26.8405V32V37.1598C262.287 37.5849 262.899 37.9295 263.655 37.9295C264.412 37.9295 265.024 37.5849 265.024 37.1598V32V26.8405C265.024 26.4151 264.412 26.0705 263.655 26.0705ZM258.706 23.383C257.95 23.383 257.338 23.7279 257.338 24.153V32V39.8472C257.338 40.2721 257.95 40.617 258.706 40.617C259.462 40.617 260.076 40.2721 260.076 39.8472V32V24.153C260.076 23.7279 259.462 23.383 258.706 23.383ZM253.757 26.3486C253.002 26.3486 252.389 26.6932 252.389 27.1183V32V36.8817C252.389 37.3066 253.002 37.6514 253.757 37.6514C254.514 37.6514 255.127 37.3066 255.127 36.8817V32V27.1183C255.127 26.6932 254.514 26.3486 253.757 26.3486ZM248.809 18.9331C248.052 18.9331 247.44 19.2777 247.44 19.7028V32V44.2974C247.44 44.7225 248.052 45.0672 248.809 45.0672C249.565 45.0672 250.178 44.7225 250.178 44.2974V32V19.7028C250.178 19.2777 249.565 18.9331 248.809 18.9331ZM243.86 22.209C243.104 22.209 242.491 22.5536 242.491 22.9787V32V41.0213C242.491 41.4466 243.104 41.7913 243.86 41.7913C244.616 41.7913 245.229 41.4466 245.229 41.0213V32V22.9787C245.229 22.5536 244.616 22.209 243.86 22.209ZM238.911 19.2395C238.155 19.2395 237.542 19.5841 237.542 20.0095V32V43.9907C237.542 44.4159 238.155 44.7607 238.911 44.7607C239.667 44.7607 240.28 44.4159 240.28 43.9907V32V20.0095C240.28 19.5841 239.667 19.2395 238.911 19.2395ZM233.963 16.1132C233.206 16.1132 232.594 16.4578 232.594 16.8832V32V47.1171C232.594 47.5422 233.206 47.8868 233.963 47.8868C234.718 47.8868 235.332 47.5422 235.332 47.1171V32V16.8832C235.332 16.4578 234.718 16.1132 233.963 16.1132ZM229.013 12.5668C228.258 12.5668 227.645 12.9114 227.645 13.3365V32V50.6635C227.645 51.0888 228.258 51.4334 229.013 51.4334C229.769 51.4334 230.382 51.0888 230.382 50.6635V32V13.3365C230.382 12.9114 229.769 12.5668 229.013 12.5668ZM224.065 7.43654C223.309 7.43654 222.696 7.78139 222.696 8.20628V32V55.7935C222.696 56.2186 223.309 56.5632 224.065 56.5632C224.821 56.5632 225.434 56.2186 225.434 55.7935V32V8.20628C225.434 7.78139 224.821 7.43654 224.065 7.43654ZM219.116 0C218.36 0 217.747 0.344639 217.747 0.769985V32V63.2303C217.747 63.6554 218.36 64 219.116 64C219.873 64 220.485 63.6554 220.485 63.2303V32V0.769985C220.485 0.344639 219.873 0 219.116 0ZM214.167 2.65341C213.411 2.65341 212.798 2.99804 212.798 3.42316V32V60.5771C212.798 61.002 213.411 61.3468 214.167 61.3468C214.924 61.3468 215.536 61.002 215.536 60.5771V32V3.42316C215.536 2.99804 214.924 2.65341 214.167 2.65341ZM209.219 6.11955C208.463 6.11955 207.85 6.46418 207.85 6.8893V32V57.1109C207.85 57.5358 208.463 57.8807 209.219 57.8807C209.975 57.8807 210.588 57.5358 210.588 57.1109V32V6.8893C210.588 6.46418 209.975 6.11955 209.219 6.11955ZM204.27 11.8913C203.514 11.8913 202.9 12.2359 202.9 12.661V32V51.339C202.9 51.7641 203.514 52.109 204.27 52.109C205.026 52.109 205.638 51.7641 205.638 51.339V32V12.661C205.638 12.2359 205.026 11.8913 204.27 11.8913ZM199.321 16.915C198.565 16.915 197.952 17.2598 197.952 17.6849V32V46.3151C197.952 46.7402 198.565 47.0848 199.321 47.0848C200.077 47.0848 200.69 46.7402 200.69 46.3151V32V17.6849C200.69 17.2598 200.077 16.915 199.321 16.915ZM194.372 18.9331C193.616 18.9331 193.003 19.2777 193.003 19.7028V32V44.2974C193.003 44.7225 193.616 45.0672 194.372 45.0672C195.128 45.0672 195.741 44.7225 195.741 44.2974V32V19.7028C195.741 19.2777 195.128 18.9331 194.372 18.9331ZM189.423 16.6764C188.667 16.6764 188.055 17.0211 188.055 17.4464V32V46.5538C188.055 46.9787 188.667 47.3236 189.423 47.3236C190.179 47.3236 190.792 46.9787 190.792 46.5538V32V17.4464C190.792 17.0211 190.179 16.6764 189.423 16.6764ZM184.474 13.9087C183.718 13.9087 183.106 14.2533 183.106 14.6784V32V49.3216C183.106 49.7469 183.718 50.0913 184.474 50.0913C185.23 50.0913 185.843 49.7469 185.843 49.3216V32V14.6784C185.843 14.2533 185.23 13.9087 184.474 13.9087ZM179.526 10.8332C178.77 10.8332 178.157 11.1776 178.157 11.6029V32V52.3971C178.157 52.8222 178.77 53.1671 179.526 53.1671C180.282 53.1671 180.894 52.8222 180.894 52.3971V32V11.6029C180.894 11.1776 180.282 10.8332 179.526 10.8332ZM174.577 16.6764C173.821 16.6764 173.208 17.0211 173.208 17.4464V32V46.5538C173.208 46.9787 173.821 47.3236 174.577 47.3236C175.333 47.3236 175.946 46.9787 175.946 46.5538V32V17.4464C175.946 17.0211 175.333 16.6764 174.577 16.6764ZM169.628 19.3335C168.872 19.3335 168.259 19.6781 168.259 20.1033V32V43.897C168.259 44.3221 168.872 44.6667 169.628 44.6667C170.384 44.6667 170.997 44.3221 170.997 43.897V32V20.1033C170.997 19.6781 170.384 19.3335 169.628 19.3335ZM164.679 21.4673C163.923 21.4673 163.311 21.8117 163.311 22.2371V32V41.7634C163.311 42.1883 163.923 42.5331 164.679 42.5331C165.436 42.5331 166.048 42.1883 166.048 41.7634V32V22.2371C166.048 21.8117 165.436 21.4673 164.679 21.4673ZM159.73 23.9536C158.974 23.9536 158.362 24.298 158.362 24.7233V32V39.2769C158.362 39.702 158.974 40.0469 159.73 40.0469C160.486 40.0469 161.099 39.702 161.099 39.2769V32V24.7233C161.099 24.298 160.486 23.9536 159.73 23.9536ZM154.782 21.0317C154.026 21.0317 153.413 21.3763 153.413 21.8015V32V42.1986C153.413 42.6237 154.026 42.9683 154.782 42.9683C155.538 42.9683 156.151 42.6237 156.151 42.1986V32V21.8015C156.151 21.3763 155.538 21.0317 154.782 21.0317ZM149.833 19.7522C149.077 19.7522 148.464 20.0966 148.464 20.522V32V43.4783C148.464 43.9034 149.077 44.248 149.833 44.248C150.589 44.248 151.202 43.9034 151.202 43.4783V32V20.522C151.202 20.0966 150.589 19.7522 149.833 19.7522ZM144.884 16.915C144.128 16.915 143.515 17.2598 143.515 17.6849V32V46.3151C143.515 46.7402 144.128 47.0848 144.884 47.0848C145.64 47.0848 146.253 46.7402 146.253 46.3151V32V17.6849C146.253 17.2598 145.64 16.915 144.884 16.915ZM139.935 22.5694C139.179 22.5694 138.567 22.9142 138.567 23.3391V32V40.6609C138.567 41.086 139.179 41.4306 139.935 41.4306C140.692 41.4306 141.305 41.086 141.305 40.6609V32V23.3391C141.305 22.9142 140.692 22.5694 139.935 22.5694ZM134.987 13.1399C134.23 13.1399 133.618 13.4843 133.618 13.9096V32V50.0906C133.618 50.5157 134.23 50.8604 134.987 50.8604C135.742 50.8604 136.356 50.5157 136.356 50.0906V32V13.9096C136.356 13.4843 135.742 13.1399 134.987 13.1399ZM130.038 19.3335C129.282 19.3335 128.669 19.6781 128.669 20.1033V32V43.897C128.669 44.3221 129.282 44.6667 130.038 44.6667C130.794 44.6667 131.407 44.3221 131.407 43.897V32V20.1033C131.407 19.6781 130.794 19.3335 130.038 19.3335ZM125.089 15.6151C124.333 15.6151 123.72 15.96 123.72 16.3849V32V47.6149C123.72 48.0402 124.333 48.3849 125.089 48.3849C125.845 48.3849 126.458 48.0402 126.458 47.6149V32V16.3849C126.458 15.96 125.845 15.6151 125.089 15.6151ZM120.14 13.9087C119.384 13.9087 118.771 14.2533 118.771 14.6784V32V49.3216C118.771 49.7469 119.384 50.0913 120.14 50.0913C120.896 50.0913 121.509 49.7469 121.509 49.3216V32V14.6784C121.509 14.2533 120.896 13.9087 120.14 13.9087ZM115.191 8.93669C114.435 8.93669 113.822 9.28109 113.822 9.70644V32V54.2938C113.822 54.7189 114.435 55.0638 115.191 55.0638C115.947 55.0638 116.56 54.7189 116.56 54.2938V32V9.70644C116.56 9.28109 115.947 8.93669 115.191 8.93669ZM110.243 16.0151C109.487 16.0151 108.874 16.3597 108.874 16.7848V32V47.2152C108.874 47.6405 109.487 47.9851 110.243 47.9851C110.999 47.9851 111.612 47.6405 111.612 47.2152V32V16.7848C111.612 16.3597 110.999 16.0151 110.243 16.0151ZM105.294 19.2395C104.538 19.2395 103.924 19.5841 103.924 20.0095V32V43.9907C103.924 44.4159 104.538 44.7607 105.294 44.7607C106.05 44.7607 106.662 44.4159 106.662 43.9907V32V20.0095C106.662 19.5841 106.05 19.2395 105.294 19.2395ZM100.345 20.911C99.5889 20.911 98.9761 21.2556 98.9761 21.6807V32V42.3195C98.9761 42.7446 99.5889 43.0893 100.345 43.0893C101.101 43.0893 101.714 42.7446 101.714 42.3195V32V21.6807C101.714 21.2556 101.101 20.911 100.345 20.911ZM95.3964 24.2628C94.6405 24.2628 94.0274 24.6076 94.0274 25.0325V32V38.9675C94.0274 39.3926 94.6405 39.7372 95.3964 39.7372C96.1523 39.7372 96.7654 39.3926 96.7654 38.9675V32V25.0325C96.7654 24.6076 96.1523 24.2628 95.3964 24.2628ZM90.4473 24.9527C89.6914 24.9527 89.0783 25.2973 89.0783 25.7224V32V38.2778C89.0783 38.7029 89.6914 39.0478 90.4473 39.0478C91.2036 39.0478 91.8163 38.7029 91.8163 38.2778V32V25.7224C91.8163 25.2973 91.2036 24.9527 90.4473 24.9527ZM85.499 23.9536C84.7427 23.9536 84.1299 24.298 84.1299 24.7233V32V39.2769C84.1299 39.702 84.7427 40.0469 85.499 40.0469C86.2548 40.0469 86.8676 39.702 86.8676 39.2769V32V24.7233C86.8676 24.298 86.2548 23.9536 85.499 23.9536ZM80.5498 28.0484C79.7936 28.0484 79.1808 28.3932 79.1808 28.8181V32V35.1819C79.1808 35.607 79.7936 35.9516 80.5498 35.9516C81.3057 35.9516 81.9185 35.607 81.9185 35.1819V32V28.8181C81.9185 28.3932 81.3057 28.0484 80.5498 28.0484ZM75.6011 29.6393C74.8448 29.6393 74.2321 29.9842 74.2321 30.4091V32V33.5909C74.2321 34.0161 74.8448 34.3607 75.6011 34.3607C76.3574 34.3607 76.9701 34.0161 76.9701 33.5909V32V30.4091C76.9701 29.9842 76.3574 29.6393 75.6011 29.6393ZM70.652 28.0914C69.8961 28.0914 69.283 28.436 69.283 28.8613V32V35.1389C69.283 35.564 69.8961 35.9086 70.652 35.9086C71.4083 35.9086 72.021 35.564 72.021 35.1389V32V28.8613C72.021 28.436 71.4083 28.0914 70.652 28.0914ZM65.7037 29.3887C64.9474 29.3887 64.3347 29.7333 64.3347 30.1584V32V33.8416C64.3347 34.2667 64.9474 34.6113 65.7037 34.6113C66.4595 34.6113 67.0723 34.2667 67.0723 33.8416V32V30.1584C67.0723 29.7333 66.4595 29.3887 65.7037 29.3887ZM60.755 27.7467C59.9987 27.7467 59.3859 28.0911 59.3859 28.5165V32V35.484C59.3859 35.9089 59.9987 36.2537 60.755 36.2537C61.5108 36.2537 62.1236 35.9089 62.1236 35.484V32V28.5165C62.1236 28.0911 61.5108 27.7467 60.755 27.7467ZM55.8058 24.9527C55.0496 24.9527 54.4368 25.2973 54.4368 25.7224V32V38.2778C54.4368 38.7029 55.0496 39.0478 55.8058 39.0478C56.5621 39.0478 57.1749 38.7029 57.1749 38.2778V32V25.7224C57.1749 25.2973 56.5621 24.9527 55.8058 24.9527ZM50.8571 28.0914C50.1008 28.0914 49.4885 28.436 49.4885 28.8613V32V35.1389C49.4885 35.564 50.1008 35.9086 50.8571 35.9086C51.6134 35.9086 52.2261 35.564 52.2261 35.1389V32V28.8613C52.2261 28.436 51.6134 28.0914 50.8571 28.0914ZM45.908 29.6393C45.1521 29.6393 44.5394 29.9842 44.5394 30.4091V32V33.5909C44.5394 34.0161 45.1521 34.3607 45.908 34.3607C46.6643 34.3607 47.277 34.0161 47.277 33.5909V32V30.4091C47.277 29.9842 46.6643 29.6393 45.908 29.6393ZM40.9597 26.8997C40.2034 26.8997 39.5907 27.2443 39.5907 27.6697V32V36.3306C39.5907 36.7555 40.2034 37.1003 40.9597 37.1003C41.7155 37.1003 42.3283 36.7555 42.3283 36.3306V32V27.6697C42.3283 27.2443 41.7155 26.8997 40.9597 26.8997ZM36.0105 25.2349C35.2543 25.2349 34.6415 25.5795 34.6415 26.0046V32V37.9954C34.6415 38.4205 35.2543 38.7651 36.0105 38.7651C36.7668 38.7651 37.3796 38.4205 37.3796 37.9954V32V26.0046C37.3796 25.5795 36.7668 25.2349 36.0105 25.2349ZM31.0618 26.8997C30.306 26.8997 29.6932 27.2443 29.6932 27.6697V32V36.3306C29.6932 36.7555 30.306 37.1003 31.0618 37.1003C31.8181 37.1003 32.4308 36.7555 32.4308 36.3306V32V27.6697C32.4308 27.2443 31.8181 26.8997 31.0618 26.8997ZM26.1127 29.4884C25.3568 29.4884 24.7441 29.833 24.7441 30.2581V32V33.7419C24.7441 34.167 25.3568 34.5119 26.1127 34.5119C26.869 34.5119 27.4817 34.167 27.4817 33.7419V32V30.2581C27.4817 29.833 26.869 29.4884 26.1127 29.4884ZM21.1644 24.6001C20.4081 24.6001 19.7954 24.9449 19.7954 25.37V32V38.6302C19.7954 39.0553 20.4081 39.4002 21.1644 39.4002C21.9203 39.4002 22.5334 39.0553 22.5334 38.6302V32V25.37C22.5334 24.9449 21.9203 24.6001 21.1644 24.6001ZM16.2157 26.0101C15.4594 26.0101 14.8466 26.3547 14.8466 26.7799V32V37.2201C14.8466 37.6455 15.4594 37.9901 16.2157 37.9901C16.9715 37.9901 17.5847 37.6455 17.5847 37.2201V32V26.7799C17.5847 26.3547 16.9715 26.0101 16.2157 26.0101ZM11.2666 28.0973C10.5106 28.0973 9.89764 28.4422 9.89764 28.8671V32V35.133C9.89764 35.5583 10.5106 35.9029 11.2666 35.9029C12.0226 35.9029 12.6355 35.5583 12.6355 35.133V32V28.8671C12.6355 28.4422 12.0226 28.0973 11.2666 28.0973ZM1.3691 29.6393C0.612908 29.6393 0 29.9842 0 30.4091V32V33.5909C0 34.0161 0.612908 34.3607 1.3691 34.3607C2.12509 34.3607 2.73804 34.0161 2.73804 33.5909V32V30.4091C2.73804 29.9842 2.12509 29.6393 1.3691 29.6393ZM7.68676 30.4091V33.5909C7.68676 34.0161 7.07418 34.3607 6.31798 34.3607C5.56199 34.3607 4.94904 34.0161 4.94904 33.5909V32V30.4091C4.94904 29.9842 5.56199 29.6393 6.31798 29.6393C7.07418 29.6393 7.68676 29.9842 7.68676 30.4091Z" fill="white"/>
</svg>
