<svg width="410" height="72" viewBox="0 0 410 72" fill="none" xmlns="http://www.w3.org/2000/svg">
<mask id="mask0_2974_13399" style="mask-type:luminance" maskUnits="userSpaceOnUse" x="0" y="0" width="410" height="72">
<path d="M407.96 33.3442C407.11 33.3442 406.42 33.7322 406.42 34.2102V36V37.7898C406.42 38.2681 407.11 38.6558 407.96 38.6558C408.81 38.6558 409.5 38.2681 409.5 37.7898V36V34.2102C409.5 33.7322 408.81 33.3442 407.96 33.3442ZM402.393 31.6059C401.542 31.6059 400.853 31.9936 400.853 32.4718V36V39.5284C400.853 40.0064 401.542 40.3944 402.393 40.3944C403.243 40.3944 403.933 40.0064 403.933 39.5284V36V32.4718C403.933 31.9936 403.243 31.6059 402.393 31.6059ZM396.825 29.5583C395.974 29.5583 395.285 29.9462 395.285 30.4245V36V41.5758C395.285 42.0538 395.974 42.4417 396.825 42.4417C397.676 42.4417 398.365 42.0538 398.365 41.5758V36V30.4245C398.365 29.9462 397.676 29.5583 396.825 29.5583ZM391.258 32.3463C390.407 32.3463 389.718 32.734 389.718 33.2122V36V38.7878C389.718 39.266 390.407 39.6537 391.258 39.6537C392.109 39.6537 392.798 39.266 392.798 38.7878V36V33.2122C392.798 32.734 392.109 32.3463 391.258 32.3463ZM385.691 22.5866C384.84 22.5866 384.15 22.9743 384.15 23.4528V36V48.5475C384.15 49.0257 384.84 49.4134 385.691 49.4134C386.541 49.4134 387.231 49.0257 387.231 48.5475V36V23.4528C387.231 22.9743 386.541 22.5866 385.691 22.5866ZM380.123 19.0293C379.272 19.0293 378.583 19.4173 378.583 19.8956V36V52.1045C378.583 52.5827 379.272 52.9704 380.123 52.9704C380.974 52.9704 381.663 52.5827 381.663 52.1045V36V19.8956C381.663 19.4173 380.974 19.0293 380.123 19.0293ZM374.556 26.6308C373.705 26.6308 373.016 27.0185 373.016 27.4968V36V44.5035C373.016 44.9815 373.705 45.3694 374.556 45.3694C375.406 45.3694 376.096 44.9815 376.096 44.5035V36V27.4968C376.096 27.0185 375.406 26.6308 374.556 26.6308ZM368.988 23.5248C368.137 23.5248 367.448 23.9125 367.448 24.3908V36V47.6095C367.448 48.0877 368.137 48.4754 368.988 48.4754C369.839 48.4754 370.528 48.0877 370.528 47.6095V36V24.3908C370.528 23.9125 369.839 23.5248 368.988 23.5248ZM363.421 19.6308C362.571 19.6308 361.881 20.0185 361.881 20.4968V36V51.5032C361.881 51.9815 362.571 52.3692 363.421 52.3692C364.272 52.3692 364.961 51.9815 364.961 51.5032V36V20.4968C364.961 20.0185 364.272 19.6308 363.421 19.6308ZM357.854 15.6473C357.003 15.6473 356.313 16.035 356.313 16.5133V36V55.4868C356.313 55.9653 357.003 56.3527 357.854 56.3527C358.704 56.3527 359.393 55.9653 359.393 55.4868V36V16.5133C359.393 16.035 358.704 15.6473 357.854 15.6473ZM352.286 19.3527C351.436 19.3527 350.746 19.7404 350.746 20.2187V36V51.7813C350.746 52.2596 351.436 52.6473 352.286 52.6473C353.137 52.6473 353.826 52.2596 353.826 51.7813V36V20.2187C353.826 19.7404 353.137 19.3527 352.286 19.3527ZM346.719 24.1508C345.868 24.1508 345.178 24.5382 345.178 25.0167V36V46.9838C345.178 47.4618 345.868 47.8498 346.719 47.8498C347.569 47.8498 348.258 47.4618 348.258 46.9838V36V25.0167C348.258 24.5382 347.569 24.1508 346.719 24.1508ZM341.151 27.0818C340.301 27.0818 339.611 27.4695 339.611 27.9478V36V44.0525C339.611 44.5305 340.301 44.9184 341.151 44.9184C342.002 44.9184 342.691 44.5305 342.691 44.0525V36V27.9478C342.691 27.4695 342.002 27.0818 341.151 27.0818ZM335.584 28.8603C334.734 28.8603 334.044 29.248 334.044 29.7263V36V42.2737C334.044 42.752 334.734 43.1397 335.584 43.1397C336.435 43.1397 337.124 42.752 337.124 42.2737V36V29.7263C337.124 29.248 336.435 28.8603 335.584 28.8603ZM330.017 31.9974C329.166 31.9974 328.476 32.3849 328.476 32.8634V36V39.1371C328.476 39.6151 329.166 40.0031 330.017 40.0031C330.867 40.0031 331.557 39.6151 331.557 39.1371V36V32.8634C331.557 32.3849 330.867 31.9974 330.017 31.9974ZM324.449 33.1207C323.598 33.1207 322.909 33.5084 322.909 33.9866V36V38.0136C322.909 38.4919 323.598 38.8799 324.449 38.8799C325.3 38.8799 325.989 38.4919 325.989 38.0136V36V33.9866C325.989 33.5084 325.3 33.1207 324.449 33.1207ZM318.882 31.1081C318.031 31.1081 317.342 31.4955 317.342 31.974V36V40.0262C317.342 40.5045 318.031 40.8922 318.882 40.8922C319.732 40.8922 320.422 40.5045 320.422 40.0262V36V31.974C320.422 31.4955 319.732 31.1081 318.882 31.1081ZM313.315 30.2696C312.464 30.2696 311.775 30.6573 311.775 31.1356V36V40.8644C311.775 41.3429 312.464 41.7306 313.315 41.7306C314.165 41.7306 314.854 41.3429 314.854 40.8644V36V31.1356C314.854 30.6573 314.165 30.2696 313.315 30.2696ZM307.747 27.9751C306.897 27.9751 306.207 28.3628 306.207 28.841V36V43.159C306.207 43.6375 306.897 44.0252 307.747 44.0252C308.597 44.0252 309.287 43.6375 309.287 43.159V36V28.841C309.287 28.3628 308.597 27.9751 307.747 27.9751ZM302.18 31.1081C301.329 31.1081 300.639 31.4955 300.639 31.974V36V40.0262C300.639 40.5045 301.329 40.8922 302.18 40.8922C303.03 40.8922 303.72 40.5045 303.72 40.0262V36V31.974C303.72 31.4955 303.03 31.1081 302.18 31.1081ZM296.612 29.3293C295.762 29.3293 295.073 29.717 295.073 30.1955V36V41.8047C295.073 42.283 295.762 42.6707 296.612 42.6707C297.463 42.6707 298.152 42.283 298.152 41.8047V36V30.1955C298.152 29.717 297.463 29.3293 296.612 29.3293ZM291.044 26.3059C290.194 26.3059 289.505 26.6939 289.505 27.1721V36V44.8281C289.505 45.3061 290.194 45.6941 291.044 45.6941C291.895 45.6941 292.585 45.3061 292.585 44.8281V36V27.1721C292.585 26.6939 291.895 26.3059 291.044 26.3059ZM285.477 29.6421C284.627 29.6421 283.938 30.0298 283.938 30.5081V36V41.4919C283.938 41.9699 284.627 42.3579 285.477 42.3579C286.328 42.3579 287.018 41.9699 287.018 41.4919V36V30.5081C287.018 30.0298 286.328 29.6421 285.477 29.6421ZM279.91 21.2997C279.059 21.2997 278.37 21.6874 278.37 22.1657V36V49.8346C278.37 50.3128 279.059 50.7005 279.91 50.7005C280.761 50.7005 281.45 50.3128 281.45 49.8346V36V22.1657C281.45 21.6874 280.761 21.2997 279.91 21.2997ZM274.343 24.9851C273.492 24.9851 272.802 25.3728 272.802 25.851V36V46.149C272.802 46.6275 273.492 47.0152 274.343 47.0152C275.193 47.0152 275.883 46.6275 275.883 46.149V36V25.851C275.883 25.3728 275.193 24.9851 274.343 24.9851ZM268.775 21.6445C267.924 21.6445 267.235 22.0322 267.235 22.5107V36V49.4896C267.235 49.9678 267.924 50.3558 268.775 50.3558C269.626 50.3558 270.315 49.9678 270.315 49.4896V36V22.5107C270.315 22.0322 269.626 21.6445 268.775 21.6445ZM263.208 18.1274C262.357 18.1274 261.668 18.5151 261.668 18.9936V36V53.0067C261.668 53.485 262.357 53.8727 263.208 53.8727C264.058 53.8727 264.748 53.485 264.748 53.0067V36V18.9936C264.748 18.5151 264.058 18.1274 263.208 18.1274ZM257.64 14.1376C256.79 14.1376 256.1 14.5254 256.1 15.0036V36V56.9964C256.1 57.4749 256.79 57.8626 257.64 57.8626C258.491 57.8626 259.18 57.4749 259.18 56.9964V36V15.0036C259.18 14.5254 258.491 14.1376 257.64 14.1376ZM252.073 8.3661C251.222 8.3661 250.533 8.75406 250.533 9.23206V36V62.7677C250.533 63.2459 251.222 63.6337 252.073 63.6337C252.923 63.6337 253.613 63.2459 253.613 62.7677V36V9.23206C253.613 8.75406 252.923 8.3661 252.073 8.3661ZM246.506 0C245.655 0 244.966 0.387711 244.966 0.866234V36V71.134C244.966 71.6123 245.655 72 246.506 72C247.357 72 248.046 71.6123 248.046 71.134V36V0.866234C248.046 0.387711 247.357 0 246.506 0ZM240.938 2.98508C240.087 2.98508 239.398 3.3728 239.398 3.85105V36V68.1492C239.398 68.6272 240.087 69.0152 240.938 69.0152C241.789 69.0152 242.478 68.6272 242.478 68.1492V36V3.85105C242.478 3.3728 241.789 2.98508 240.938 2.98508ZM235.371 6.88449C234.521 6.88449 233.831 7.27219 233.831 7.75046V36V64.2498C233.831 64.7278 234.521 65.1158 235.371 65.1158C236.222 65.1158 236.911 64.7278 236.911 64.2498V36V7.75046C236.911 7.27219 236.222 6.88449 235.371 6.88449ZM229.804 13.3777C228.953 13.3777 228.263 13.7654 228.263 14.2436V36V57.7564C228.263 58.2346 228.953 58.6226 229.804 58.6226C230.654 58.6226 231.343 58.2346 231.343 57.7564V36V14.2436C231.343 13.7654 230.654 13.3777 229.804 13.3777ZM224.236 19.0293C223.385 19.0293 222.696 19.4173 222.696 19.8956V36V52.1045C222.696 52.5827 223.385 52.9704 224.236 52.9704C225.087 52.9704 225.776 52.5827 225.776 52.1045V36V19.8956C225.776 19.4173 225.087 19.0293 224.236 19.0293ZM218.669 21.2997C217.818 21.2997 217.129 21.6874 217.129 22.1657V36V49.8346C217.129 50.3128 217.818 50.7005 218.669 50.7005C219.519 50.7005 220.209 50.3128 220.209 49.8346V36V22.1657C220.209 21.6874 219.519 21.2997 218.669 21.2997ZM213.101 18.761C212.25 18.761 211.562 19.1487 211.562 19.6272V36V52.373C211.562 52.851 212.25 53.239 213.101 53.239C213.952 53.239 214.641 52.851 214.641 52.373V36V19.6272C214.641 19.1487 213.952 18.761 213.101 18.761ZM207.533 15.6473C206.683 15.6473 205.994 16.035 205.994 16.5133V36V55.4868C205.994 55.9653 206.683 56.3527 207.533 56.3527C208.384 56.3527 209.074 55.9653 209.074 55.4868V36V16.5133C209.074 16.035 208.384 15.6473 207.533 15.6473ZM201.967 12.1873C201.116 12.1873 200.426 12.5747 200.426 13.0533V36V58.9467C200.426 59.425 201.116 59.813 201.967 59.813C202.817 59.813 203.506 59.425 203.506 58.9467V36V13.0533C203.506 12.5747 202.817 12.1873 201.967 12.1873ZM196.399 18.761C195.548 18.761 194.859 19.1487 194.859 19.6272V36V52.373C194.859 52.851 195.548 53.239 196.399 53.239C197.25 53.239 197.939 52.851 197.939 52.373V36V19.6272C197.939 19.1487 197.25 18.761 196.399 18.761ZM190.832 21.7502C189.981 21.7502 189.292 22.1379 189.292 22.6162V36V49.3841C189.292 49.8624 189.981 50.2501 190.832 50.2501C191.682 50.2501 192.372 49.8624 192.372 49.3841V36V22.6162C192.372 22.1379 191.682 21.7502 190.832 21.7502ZM185.264 24.1508C184.414 24.1508 183.725 24.5382 183.725 25.0167V36V46.9838C183.725 47.4618 184.414 47.8498 185.264 47.8498C186.115 47.8498 186.804 47.4618 186.804 46.9838V36V25.0167C186.804 24.5382 186.115 24.1508 185.264 24.1508ZM179.696 26.9478C178.846 26.9478 178.157 27.3352 178.157 27.8137V36V44.1865C178.157 44.6648 178.846 45.0527 179.696 45.0527C180.547 45.0527 181.237 44.6648 181.237 44.1865V36V27.8137C181.237 27.3352 180.547 26.9478 179.696 26.9478ZM174.13 23.6607C173.279 23.6607 172.589 24.0484 172.589 24.5266V36V47.4734C172.589 47.9516 173.279 48.3393 174.13 48.3393C174.98 48.3393 175.67 47.9516 175.67 47.4734V36V24.5266C175.67 24.0484 174.98 23.6607 174.13 23.6607ZM168.562 22.2213C167.711 22.2213 167.022 22.6087 167.022 23.0872V36V48.913C167.022 49.3913 167.711 49.779 168.562 49.779C169.413 49.779 170.102 49.3913 170.102 48.913V36V23.0872C170.102 22.6087 169.413 22.2213 168.562 22.2213ZM162.995 19.0293C162.144 19.0293 161.455 19.4173 161.455 19.8956V36V52.1045C161.455 52.5827 162.144 52.9704 162.995 52.9704C163.845 52.9704 164.535 52.5827 164.535 52.1045V36V19.8956C164.535 19.4173 163.845 19.0293 162.995 19.0293ZM157.427 25.3905C156.577 25.3905 155.888 25.7785 155.888 26.2565V36V45.7435C155.888 46.2218 156.577 46.6095 157.427 46.6095C158.278 46.6095 158.968 46.2218 158.968 45.7435V36V26.2565C158.968 25.7785 158.278 25.3905 157.427 25.3905ZM151.86 14.7824C151.009 14.7824 150.32 15.1698 150.32 15.6483V36V56.3519C150.32 56.8302 151.009 57.2179 151.86 57.2179C152.71 57.2179 153.4 56.8302 153.4 56.3519V36V15.6483C153.4 15.1698 152.71 14.7824 151.86 14.7824ZM146.293 21.7502C145.442 21.7502 144.752 22.1379 144.752 22.6162V36V49.3841C144.752 49.8624 145.442 50.2501 146.293 50.2501C147.143 50.2501 147.833 49.8624 147.833 49.3841V36V22.6162C147.833 22.1379 147.143 21.7502 146.293 21.7502ZM140.725 17.567C139.874 17.567 139.185 17.955 139.185 18.433V36V53.5668C139.185 54.0453 139.874 54.433 140.725 54.433C141.576 54.433 142.265 54.0453 142.265 53.5668V36V18.433C142.265 17.955 141.576 17.567 140.725 17.567ZM135.158 15.6473C134.307 15.6473 133.618 16.035 133.618 16.5133V36V55.4868C133.618 55.9653 134.307 56.3527 135.158 56.3527C136.008 56.3527 136.698 55.9653 136.698 55.4868V36V16.5133C136.698 16.035 136.008 15.6473 135.158 15.6473ZM129.59 10.0538C128.74 10.0538 128.05 10.4412 128.05 10.9197V36V61.0805C128.05 61.5588 128.74 61.9467 129.59 61.9467C130.441 61.9467 131.13 61.5588 131.13 61.0805V36V10.9197C131.13 10.4412 130.441 10.0538 129.59 10.0538ZM124.023 18.017C123.173 18.017 122.483 18.4047 122.483 18.8829V36V53.1171C122.483 53.5956 123.173 53.9833 124.023 53.9833C124.874 53.9833 125.563 53.5956 125.563 53.1171V36V18.8829C125.563 18.4047 124.874 18.017 124.023 18.017ZM118.456 21.6445C117.605 21.6445 116.915 22.0322 116.915 22.5107V36V49.4896C116.915 49.9678 117.605 50.3558 118.456 50.3558C119.306 50.3558 119.995 49.9678 119.995 49.4896V36V22.5107C119.995 22.0322 119.306 21.6445 118.456 21.6445ZM112.888 23.5248C112.037 23.5248 111.348 23.9125 111.348 24.3908V36V47.6095C111.348 48.0877 112.037 48.4754 112.888 48.4754C113.739 48.4754 114.428 48.0877 114.428 47.6095V36V24.3908C114.428 23.9125 113.739 23.5248 112.888 23.5248ZM107.321 27.2956C106.471 27.2956 105.781 27.6836 105.781 28.1616V36V43.8384C105.781 44.3167 106.471 44.7044 107.321 44.7044C108.171 44.7044 108.861 44.3167 108.861 43.8384V36V28.1616C108.861 27.6836 108.171 27.2956 107.321 27.2956ZM101.753 28.0718C100.903 28.0718 100.213 28.4595 100.213 28.9377V36V43.0625C100.213 43.5408 100.903 43.9287 101.753 43.9287C102.604 43.9287 103.293 43.5408 103.293 43.0625V36V28.9377C103.293 28.4595 102.604 28.0718 101.753 28.0718ZM96.1863 26.9478C95.3355 26.9478 94.6462 27.3352 94.6462 27.8137V36V44.1865C94.6462 44.6648 95.3355 45.0527 96.1863 45.0527C97.0367 45.0527 97.726 44.6648 97.726 44.1865V36V27.8137C97.726 27.3352 97.0367 26.9478 96.1863 26.9478ZM90.6186 31.5544C89.7678 31.5544 89.0784 31.9424 89.0784 32.4204V36V39.5796C89.0784 40.0579 89.7678 40.4456 90.6186 40.4456C91.4689 40.4456 92.1583 40.0579 92.1583 39.5796V36V32.4204C92.1583 31.9424 91.4689 31.5544 90.6186 31.5544ZM85.0513 33.3442C84.2005 33.3442 83.5111 33.7322 83.5111 34.2102V36V37.7898C83.5111 38.2681 84.2005 38.6558 85.0513 38.6558C85.9021 38.6558 86.5914 38.2681 86.5914 37.7898V36V34.2102C86.5914 33.7322 85.9021 33.3442 85.0513 33.3442ZM79.4835 31.6028C78.6331 31.6028 77.9434 31.9905 77.9434 32.469V36V39.5313C77.9434 40.0095 78.6331 40.3972 79.4835 40.3972C80.3343 40.3972 81.0236 40.0095 81.0236 39.5313V36V32.469C81.0236 31.9905 80.3343 31.6028 79.4835 31.6028ZM73.9166 33.0623C73.0658 33.0623 72.3765 33.45 72.3765 33.9282V36V38.0718C72.3765 38.55 73.0658 38.9377 73.9166 38.9377C74.767 38.9377 75.4563 38.55 75.4563 38.0718V36V33.9282C75.4563 33.45 74.767 33.0623 73.9166 33.0623ZM68.3493 31.2151C67.4985 31.2151 66.8092 31.6025 66.8092 32.081V36V39.9195C66.8092 40.3975 67.4985 40.7854 68.3493 40.7854C69.1997 40.7854 69.889 40.3975 69.889 39.9195V36V32.081C69.889 31.6025 69.1997 31.2151 68.3493 31.2151ZM62.7816 28.0718C61.9308 28.0718 61.2414 28.4595 61.2414 28.9377V36V43.0625C61.2414 43.5408 61.9308 43.9287 62.7816 43.9287C63.6324 43.9287 64.3217 43.5408 64.3217 43.0625V36V28.9377C64.3217 28.4595 63.6324 28.0718 62.7816 28.0718ZM57.2143 31.6028C56.3634 31.6028 55.6746 31.9905 55.6746 32.469V36V39.5313C55.6746 40.0095 56.3634 40.3972 57.2143 40.3972C58.0651 40.3972 58.7544 40.0095 58.7544 39.5313V36V32.469C58.7544 31.9905 58.0651 31.6028 57.2143 31.6028ZM51.6465 33.3442C50.7961 33.3442 50.1068 33.7322 50.1068 34.2102V36V37.7898C50.1068 38.2681 50.7961 38.6558 51.6465 38.6558C52.4973 38.6558 53.1866 38.2681 53.1866 37.7898V36V34.2102C53.1866 33.7322 52.4973 33.3442 51.6465 33.3442ZM46.0796 30.2622C45.2288 30.2622 44.5395 30.6499 44.5395 31.1284V36V40.8719C44.5395 41.3499 45.2288 41.7378 46.0796 41.7378C46.93 41.7378 47.6193 41.3499 47.6193 40.8719V36V31.1284C47.6193 30.6499 46.93 30.2622 46.0796 30.2622ZM40.5119 28.3892C39.6611 28.3892 38.9717 28.777 38.9717 29.2552V36V42.7448C38.9717 43.2231 39.6611 43.6108 40.5119 43.6108C41.3627 43.6108 42.052 43.2231 42.052 42.7448V36V29.2552C42.052 28.777 41.3627 28.3892 40.5119 28.3892ZM34.9446 30.2622C34.0942 30.2622 33.4049 30.6499 33.4049 31.1284V36V40.8719C33.4049 41.3499 34.0942 41.7378 34.9446 41.7378C35.7954 41.7378 36.4847 41.3499 36.4847 40.8719V36V31.1284C36.4847 30.6499 35.7954 30.2622 34.9446 30.2622ZM29.3768 33.1744C28.5264 33.1744 27.8371 33.5621 27.8371 34.0404V36V37.9596C27.8371 38.4379 28.5264 38.8258 29.3768 38.8258C30.2276 38.8258 30.9169 38.4379 30.9169 37.9596V36V34.0404C30.9169 33.5621 30.2276 33.1744 29.3768 33.1744ZM23.8099 27.6751C22.9591 27.6751 22.2698 28.063 22.2698 28.5413V36V43.459C22.2698 43.9372 22.9591 44.3252 23.8099 44.3252C24.6603 44.3252 25.3501 43.9372 25.3501 43.459V36V28.5413C25.3501 28.063 24.6603 27.6751 23.8099 27.6751ZM18.2426 29.2614C17.3918 29.2614 16.7025 29.6491 16.7025 30.1273V36V41.8727C16.7025 42.3512 17.3918 42.7389 18.2426 42.7389C19.093 42.7389 19.7828 42.3512 19.7828 41.8727V36V30.1273C19.7828 29.6491 19.093 29.2614 18.2426 29.2614ZM12.6749 31.6095C11.8244 31.6095 11.1348 31.9974 11.1348 32.4754V36V39.5246C11.1348 40.0031 11.8244 40.3908 12.6749 40.3908C13.5254 40.3908 14.215 40.0031 14.215 39.5246V36V32.4754C14.215 31.9974 13.5254 31.6095 12.6749 31.6095ZM1.54024 33.3442C0.689521 33.3442 0 33.7322 0 34.2102V36V37.7898C0 38.2681 0.689521 38.6558 1.54024 38.6558C2.39073 38.6558 3.08029 38.2681 3.08029 37.7898V36V34.2102C3.08029 33.7322 2.39073 33.3442 1.54024 33.3442ZM8.6476 34.2102V37.7898C8.6476 38.2681 7.95845 38.6558 7.10773 38.6558C6.25724 38.6558 5.56767 38.2681 5.56767 37.7898V36V34.2102C5.56767 33.7322 6.25724 33.3442 7.10773 33.3442C7.95845 33.3442 8.6476 33.7322 8.6476 34.2102Z" fill="white"/>
</mask>
<g mask="url(#mask0_2974_13399)">
<path d="M407.96 33.3442C407.109 33.3442 406.42 33.7322 406.42 34.2102V36V37.7898C406.42 38.2681 407.109 38.6558 407.96 38.6558C408.81 38.6558 409.5 38.2681 409.5 37.7898V36V34.2102C409.5 33.7322 408.81 33.3442 407.96 33.3442ZM402.392 31.6059C401.542 31.6059 400.853 31.9936 400.853 32.4718V36V39.5284C400.853 40.0064 401.542 40.3944 402.392 40.3944C403.243 40.3944 403.933 40.0064 403.933 39.5284V36V32.4718C403.933 31.9936 403.243 31.6059 402.392 31.6059ZM396.825 29.5583C395.974 29.5583 395.285 29.9462 395.285 30.4245V36V41.5758C395.285 42.0538 395.974 42.4417 396.825 42.4417C397.676 42.4417 398.365 42.0538 398.365 41.5758V36V30.4245C398.365 29.9462 397.676 29.5583 396.825 29.5583ZM391.258 32.3463C390.407 32.3463 389.718 32.734 389.718 33.2122V36V38.7878C389.718 39.266 390.407 39.6537 391.258 39.6537C392.109 39.6537 392.798 39.266 392.798 38.7878V36V33.2122C392.798 32.734 392.109 32.3463 391.258 32.3463ZM385.691 22.5866C384.84 22.5866 384.15 22.9743 384.15 23.4528V36V48.5475C384.15 49.0257 384.84 49.4134 385.691 49.4134C386.541 49.4134 387.231 49.0257 387.231 48.5475V36V23.4528C387.231 22.9743 386.541 22.5866 385.691 22.5866ZM380.123 19.0293C379.272 19.0293 378.583 19.4173 378.583 19.8956V36V52.1045C378.583 52.5827 379.272 52.9704 380.123 52.9704C380.974 52.9704 381.663 52.5827 381.663 52.1045V36V19.8956C381.663 19.4173 380.974 19.0293 380.123 19.0293ZM374.556 26.6308C373.705 26.6308 373.016 27.0185 373.016 27.4968V36V44.5035C373.016 44.9815 373.705 45.3694 374.556 45.3694C375.406 45.3694 376.096 44.9815 376.096 44.5035V36V27.4968C376.096 27.0185 375.406 26.6308 374.556 26.6308ZM368.988 23.5248C368.137 23.5248 367.448 23.9125 367.448 24.3908V36V47.6095C367.448 48.0877 368.137 48.4754 368.988 48.4754C369.839 48.4754 370.528 48.0877 370.528 47.6095V36V24.3908C370.528 23.9125 369.839 23.5248 368.988 23.5248ZM363.421 19.6308C362.571 19.6308 361.881 20.0185 361.881 20.4968V36V51.5032C361.881 51.9815 362.571 52.3692 363.421 52.3692C364.272 52.3692 364.961 51.9815 364.961 51.5032V36V20.4968C364.961 20.0185 364.272 19.6308 363.421 19.6308ZM357.854 15.6473C357.003 15.6473 356.313 16.035 356.313 16.5132V36V55.4868C356.313 55.9653 357.003 56.3527 357.854 56.3527C358.704 56.3527 359.393 55.9653 359.393 55.4868V36V16.5132C359.393 16.035 358.704 15.6473 357.854 15.6473ZM352.286 19.3527C351.436 19.3527 350.746 19.7404 350.746 20.2187V36V51.7813C350.746 52.2596 351.436 52.6473 352.286 52.6473C353.137 52.6473 353.826 52.2596 353.826 51.7813V36V20.2187C353.826 19.7404 353.137 19.3527 352.286 19.3527ZM346.719 24.1508C345.868 24.1508 345.178 24.5382 345.178 25.0167V36V46.9838C345.178 47.4618 345.868 47.8498 346.719 47.8498C347.569 47.8498 348.258 47.4618 348.258 46.9838V36V25.0167C348.258 24.5382 347.569 24.1508 346.719 24.1508ZM341.151 27.0818C340.301 27.0818 339.611 27.4695 339.611 27.9478V36V44.0525C339.611 44.5305 340.301 44.9184 341.151 44.9184C342.002 44.9184 342.691 44.5305 342.691 44.0525V36V27.9478C342.691 27.4695 342.002 27.0818 341.151 27.0818ZM335.584 28.8603C334.734 28.8603 334.044 29.248 334.044 29.7263V36V42.2737C334.044 42.752 334.734 43.1397 335.584 43.1397C336.435 43.1397 337.124 42.752 337.124 42.2737V36V29.7263C337.124 29.248 336.435 28.8603 335.584 28.8603ZM330.017 31.9974C329.166 31.9974 328.476 32.3849 328.476 32.8634V36V39.1371C328.476 39.6151 329.166 40.0031 330.017 40.0031C330.867 40.0031 331.557 39.6151 331.557 39.1371V36V32.8634C331.557 32.3849 330.867 31.9974 330.017 31.9974ZM324.449 33.1207C323.598 33.1207 322.909 33.5084 322.909 33.9866V36V38.0136C322.909 38.4919 323.598 38.8799 324.449 38.8799C325.3 38.8799 325.989 38.4919 325.989 38.0136V36V33.9866C325.989 33.5084 325.3 33.1207 324.449 33.1207ZM318.882 31.1081C318.031 31.1081 317.342 31.4955 317.342 31.974V36V40.0262C317.342 40.5045 318.031 40.8922 318.882 40.8922C319.732 40.8922 320.422 40.5045 320.422 40.0262V36V31.974C320.422 31.4955 319.732 31.1081 318.882 31.1081ZM313.315 30.2696C312.464 30.2696 311.774 30.6573 311.774 31.1356V36V40.8644C311.774 41.3429 312.464 41.7306 313.315 41.7306C314.165 41.7306 314.854 41.3429 314.854 40.8644V36V31.1356C314.854 30.6573 314.165 30.2696 313.315 30.2696ZM307.747 27.9751C306.897 27.9751 306.207 28.3628 306.207 28.841V36V43.159C306.207 43.6375 306.897 44.0252 307.747 44.0252C308.597 44.0252 309.287 43.6375 309.287 43.159V36V28.841C309.287 28.3628 308.597 27.9751 307.747 27.9751ZM302.18 31.1081C301.329 31.1081 300.639 31.4955 300.639 31.974V36V40.0262C300.639 40.5045 301.329 40.8922 302.18 40.8922C303.03 40.8922 303.72 40.5045 303.72 40.0262V36V31.974C303.72 31.4955 303.03 31.1081 302.18 31.1081ZM296.612 29.3293C295.762 29.3293 295.073 29.717 295.073 30.1955V36V41.8047C295.073 42.283 295.762 42.6707 296.612 42.6707C297.463 42.6707 298.152 42.283 298.152 41.8047V36V30.1955C298.152 29.717 297.463 29.3293 296.612 29.3293ZM291.044 26.3059C290.194 26.3059 289.505 26.6939 289.505 27.1721V36V44.8281C289.505 45.3061 290.194 45.6941 291.044 45.6941C291.895 45.6941 292.585 45.3061 292.585 44.8281V36V27.1721C292.585 26.6939 291.895 26.3059 291.044 26.3059ZM285.477 29.6421C284.627 29.6421 283.937 30.0298 283.937 30.5081V36V41.4919C283.937 41.9699 284.627 42.3579 285.477 42.3579C286.328 42.3579 287.018 41.9699 287.018 41.4919V36V30.5081C287.018 30.0298 286.328 29.6421 285.477 29.6421ZM279.91 21.2997C279.059 21.2997 278.37 21.6874 278.37 22.1657V36V49.8346C278.37 50.3128 279.059 50.7005 279.91 50.7005C280.761 50.7005 281.45 50.3128 281.45 49.8346V36V22.1657C281.45 21.6874 280.761 21.2997 279.91 21.2997ZM274.343 24.9851C273.492 24.9851 272.802 25.3728 272.802 25.851V36V46.149C272.802 46.6275 273.492 47.0152 274.343 47.0152C275.193 47.0152 275.883 46.6275 275.883 46.149V36V25.851C275.883 25.3728 275.193 24.9851 274.343 24.9851ZM268.775 21.6445C267.924 21.6445 267.235 22.0322 267.235 22.5107V36V49.4896C267.235 49.9678 267.924 50.3558 268.775 50.3558C269.626 50.3558 270.315 49.9678 270.315 49.4896V36V22.5107C270.315 22.0322 269.626 21.6445 268.775 21.6445ZM263.208 18.1274C262.357 18.1274 261.668 18.5151 261.668 18.9936V36V53.0067C261.668 53.485 262.357 53.8727 263.208 53.8727C264.058 53.8727 264.748 53.485 264.748 53.0067V36V18.9936C264.748 18.5151 264.058 18.1274 263.208 18.1274ZM257.64 14.1376C256.79 14.1376 256.1 14.5254 256.1 15.0036V36V56.9964C256.1 57.4749 256.79 57.8626 257.64 57.8626C258.49 57.8626 259.18 57.4749 259.18 56.9964V36V15.0036C259.18 14.5254 258.49 14.1376 257.64 14.1376ZM252.073 8.3661C251.222 8.3661 250.533 8.75406 250.533 9.23206V36V62.7677C250.533 63.2459 251.222 63.6337 252.073 63.6337C252.923 63.6337 253.613 63.2459 253.613 62.7677V36V9.23206C253.613 8.75406 252.923 8.3661 252.073 8.3661ZM246.506 0C245.655 0 244.966 0.387711 244.966 0.866234V36V71.134C244.966 71.6123 245.655 72 246.506 72C247.357 72 248.046 71.6123 248.046 71.134V36V0.866234C248.046 0.387711 247.357 0 246.506 0ZM240.938 2.98508C240.087 2.98508 239.398 3.3728 239.398 3.85105V36V68.1492C239.398 68.6272 240.087 69.0152 240.938 69.0152C241.789 69.0152 242.478 68.6272 242.478 68.1492V36V3.85105C242.478 3.3728 241.789 2.98508 240.938 2.98508ZM235.371 6.88449C234.521 6.88449 233.831 7.27219 233.831 7.75046V36V64.2498C233.831 64.7278 234.521 65.1158 235.371 65.1158C236.222 65.1158 236.911 64.7278 236.911 64.2498V36V7.75046C236.911 7.27219 236.222 6.88449 235.371 6.88449ZM229.804 13.3777C228.953 13.3777 228.263 13.7654 228.263 14.2436V36V57.7564C228.263 58.2346 228.953 58.6226 229.804 58.6226C230.654 58.6226 231.343 58.2346 231.343 57.7564V36V14.2436C231.343 13.7654 230.654 13.3777 229.804 13.3777ZM224.236 19.0293C223.385 19.0293 222.696 19.4173 222.696 19.8956V36V52.1045C222.696 52.5827 223.385 52.9704 224.236 52.9704C225.087 52.9704 225.776 52.5827 225.776 52.1045V36V19.8956C225.776 19.4173 225.087 19.0293 224.236 19.0293ZM218.669 21.2997C217.818 21.2997 217.129 21.6874 217.129 22.1657V36V49.8346C217.129 50.3128 217.818 50.7005 218.669 50.7005C219.519 50.7005 220.209 50.3128 220.209 49.8346V36V22.1657C220.209 21.6874 219.519 21.2997 218.669 21.2997ZM213.101 18.761C212.25 18.761 211.562 19.1487 211.562 19.6272V36V52.373C211.562 52.851 212.25 53.239 213.101 53.239C213.952 53.239 214.641 52.851 214.641 52.373V36V19.6272C214.641 19.1487 213.952 18.761 213.101 18.761ZM207.533 15.6473C206.683 15.6473 205.994 16.035 205.994 16.5132V36V55.4868C205.994 55.9653 206.683 56.3527 207.533 56.3527C208.384 56.3527 209.074 55.9653 209.074 55.4868V36V16.5132C209.074 16.035 208.384 15.6473 207.533 15.6473ZM201.967 12.1873C201.116 12.1873 200.426 12.5747 200.426 13.0533V36V58.9467C200.426 59.425 201.116 59.813 201.967 59.813C202.817 59.813 203.506 59.425 203.506 58.9467V36V13.0533C203.506 12.5747 202.817 12.1873 201.967 12.1873ZM196.399 18.761C195.548 18.761 194.859 19.1487 194.859 19.6272V36V52.373C194.859 52.851 195.548 53.239 196.399 53.239C197.25 53.239 197.939 52.851 197.939 52.373V36V19.6272C197.939 19.1487 197.25 18.761 196.399 18.761ZM190.832 21.7502C189.981 21.7502 189.292 22.1379 189.292 22.6162V36V49.3841C189.292 49.8624 189.981 50.2501 190.832 50.2501C191.682 50.2501 192.372 49.8624 192.372 49.3841V36V22.6162C192.372 22.1379 191.682 21.7502 190.832 21.7502ZM185.264 24.1508C184.414 24.1508 183.725 24.5382 183.725 25.0167V36V46.9838C183.725 47.4618 184.414 47.8498 185.264 47.8498C186.115 47.8498 186.804 47.4618 186.804 46.9838V36V25.0167C186.804 24.5382 186.115 24.1508 185.264 24.1508ZM179.696 26.9478C178.846 26.9478 178.157 27.3352 178.157 27.8137V36V44.1865C178.157 44.6648 178.846 45.0527 179.696 45.0527C180.547 45.0527 181.237 44.6648 181.237 44.1865V36V27.8137C181.237 27.3352 180.547 26.9478 179.696 26.9478ZM174.13 23.6607C173.279 23.6607 172.589 24.0484 172.589 24.5266V36V47.4734C172.589 47.9516 173.279 48.3393 174.13 48.3393C174.98 48.3393 175.67 47.9516 175.67 47.4734V36V24.5266C175.67 24.0484 174.98 23.6607 174.13 23.6607ZM168.562 22.2212C167.711 22.2212 167.022 22.6087 167.022 23.0872V36V48.913C167.022 49.3913 167.711 49.779 168.562 49.779C169.413 49.779 170.102 49.3913 170.102 48.913V36V23.0872C170.102 22.6087 169.413 22.2212 168.562 22.2212ZM162.995 19.0293C162.144 19.0293 161.455 19.4173 161.455 19.8956V36V52.1045C161.455 52.5827 162.144 52.9704 162.995 52.9704C163.845 52.9704 164.535 52.5827 164.535 52.1045V36V19.8956C164.535 19.4173 163.845 19.0293 162.995 19.0293ZM157.427 25.3905C156.577 25.3905 155.888 25.7785 155.888 26.2565V36V45.7435C155.888 46.2218 156.577 46.6095 157.427 46.6095C158.278 46.6095 158.968 46.2218 158.968 45.7435V36V26.2565C158.968 25.7785 158.278 25.3905 157.427 25.3905ZM151.86 14.7824C151.009 14.7824 150.32 15.1698 150.32 15.6483V36V56.3519C150.32 56.8302 151.009 57.2179 151.86 57.2179C152.71 57.2179 153.4 56.8302 153.4 56.3519V36V15.6483C153.4 15.1698 152.71 14.7824 151.86 14.7824ZM146.293 21.7502C145.442 21.7502 144.752 22.1379 144.752 22.6162V36V49.3841C144.752 49.8624 145.442 50.2501 146.293 50.2501C147.143 50.2501 147.833 49.8624 147.833 49.3841V36V22.6162C147.833 22.1379 147.143 21.7502 146.293 21.7502ZM140.725 17.567C139.874 17.567 139.185 17.955 139.185 18.433V36V53.5668C139.185 54.0453 139.874 54.433 140.725 54.433C141.576 54.433 142.265 54.0453 142.265 53.5668V36V18.433C142.265 17.955 141.576 17.567 140.725 17.567ZM135.158 15.6473C134.307 15.6473 133.618 16.035 133.618 16.5132V36V55.4868C133.618 55.9653 134.307 56.3527 135.158 56.3527C136.008 56.3527 136.698 55.9653 136.698 55.4868V36V16.5132C136.698 16.035 136.008 15.6473 135.158 15.6473ZM129.59 10.0538C128.74 10.0538 128.05 10.4412 128.05 10.9197V36V61.0805C128.05 61.5588 128.74 61.9467 129.59 61.9467C130.441 61.9467 131.13 61.5588 131.13 61.0805V36V10.9197C131.13 10.4412 130.441 10.0538 129.59 10.0538ZM124.023 18.017C123.173 18.017 122.483 18.4047 122.483 18.8829V36V53.1171C122.483 53.5956 123.173 53.9833 124.023 53.9833C124.874 53.9833 125.563 53.5956 125.563 53.1171V36V18.8829C125.563 18.4047 124.874 18.017 124.023 18.017ZM118.456 21.6445C117.605 21.6445 116.915 22.0322 116.915 22.5107V36V49.4896C116.915 49.9678 117.605 50.3558 118.456 50.3558C119.306 50.3558 119.995 49.9678 119.995 49.4896V36V22.5107C119.995 22.0322 119.306 21.6445 118.456 21.6445ZM112.888 23.5248C112.037 23.5248 111.348 23.9125 111.348 24.3908V36V47.6095C111.348 48.0877 112.037 48.4754 112.888 48.4754C113.739 48.4754 114.428 48.0877 114.428 47.6095V36V24.3908C114.428 23.9125 113.739 23.5248 112.888 23.5248ZM107.321 27.2956C106.471 27.2956 105.781 27.6836 105.781 28.1616V36V43.8384C105.781 44.3167 106.471 44.7044 107.321 44.7044C108.171 44.7044 108.861 44.3167 108.861 43.8384V36V28.1616C108.861 27.6836 108.171 27.2956 107.321 27.2956ZM101.753 28.0718C100.903 28.0718 100.213 28.4595 100.213 28.9377V36V43.0625C100.213 43.5408 100.903 43.9287 101.753 43.9287C102.604 43.9287 103.293 43.5408 103.293 43.0625V36V28.9377C103.293 28.4595 102.604 28.0718 101.753 28.0718ZM96.1863 26.9478C95.3355 26.9478 94.6462 27.3352 94.6462 27.8137V36V44.1865C94.6462 44.6648 95.3355 45.0527 96.1863 45.0527C97.0367 45.0527 97.726 44.6648 97.726 44.1865V36V27.8137C97.726 27.3352 97.0367 26.9478 96.1863 26.9478ZM90.6186 31.5544C89.7678 31.5544 89.0784 31.9424 89.0784 32.4204V36V39.5796C89.0784 40.0579 89.7678 40.4456 90.6186 40.4456C91.4689 40.4456 92.1583 40.0579 92.1583 39.5796V36V32.4204C92.1583 31.9424 91.4689 31.5544 90.6186 31.5544ZM85.0513 33.3442C84.2004 33.3442 83.5111 33.7322 83.5111 34.2102V36V37.7898C83.5111 38.2681 84.2004 38.6558 85.0513 38.6558C85.9021 38.6558 86.5914 38.2681 86.5914 37.7898V36V34.2102C86.5914 33.7322 85.9021 33.3442 85.0513 33.3442ZM79.4835 31.6028C78.6331 31.6028 77.9433 31.9905 77.9433 32.469V36V39.5313C77.9433 40.0095 78.6331 40.3972 79.4835 40.3972C80.3343 40.3972 81.0236 40.0095 81.0236 39.5313V36V32.469C81.0236 31.9905 80.3343 31.6028 79.4835 31.6028ZM73.9166 33.0623C73.0658 33.0623 72.3765 33.45 72.3765 33.9282V36V38.0718C72.3765 38.55 73.0658 38.9377 73.9166 38.9377C74.767 38.9377 75.4563 38.55 75.4563 38.0718V36V33.9282C75.4563 33.45 74.767 33.0623 73.9166 33.0623ZM68.3493 31.2151C67.4985 31.2151 66.8092 31.6025 66.8092 32.081V36V39.9195C66.8092 40.3975 67.4985 40.7854 68.3493 40.7854C69.1997 40.7854 69.889 40.3975 69.889 39.9195V36V32.081C69.889 31.6025 69.1997 31.2151 68.3493 31.2151ZM62.7816 28.0718C61.9308 28.0718 61.2414 28.4595 61.2414 28.9377V36V43.0625C61.2414 43.5408 61.9308 43.9287 62.7816 43.9287C63.6324 43.9287 64.3217 43.5408 64.3217 43.0625V36V28.9377C64.3217 28.4595 63.6324 28.0718 62.7816 28.0718ZM57.2143 31.6028C56.3634 31.6028 55.6746 31.9905 55.6746 32.469V36V39.5313C55.6746 40.0095 56.3634 40.3972 57.2143 40.3972C58.0651 40.3972 58.7544 40.0095 58.7544 39.5313V36V32.469C58.7544 31.9905 58.0651 31.6028 57.2143 31.6028ZM51.6465 33.3442C50.7961 33.3442 50.1068 33.7322 50.1068 34.2102V36V37.7898C50.1068 38.2681 50.7961 38.6558 51.6465 38.6558C52.4973 38.6558 53.1866 38.2681 53.1866 37.7898V36V34.2102C53.1866 33.7322 52.4973 33.3442 51.6465 33.3442ZM46.0796 30.2622C45.2288 30.2622 44.5395 30.6499 44.5395 31.1284V36V40.8719C44.5395 41.3499 45.2288 41.7378 46.0796 41.7378C46.93 41.7378 47.6193 41.3499 47.6193 40.8719V36V31.1284C47.6193 30.6499 46.93 30.2622 46.0796 30.2622ZM40.5119 28.3892C39.6611 28.3892 38.9717 28.777 38.9717 29.2552V36V42.7448C38.9717 43.2231 39.6611 43.6108 40.5119 43.6108C41.3627 43.6108 42.052 43.2231 42.052 42.7448V36V29.2552C42.052 28.777 41.3627 28.3892 40.5119 28.3892ZM34.9446 30.2622C34.0942 30.2622 33.4049 30.6499 33.4049 31.1284V36V40.8719C33.4049 41.3499 34.0942 41.7378 34.9446 41.7378C35.7954 41.7378 36.4847 41.3499 36.4847 40.8719V36V31.1284C36.4847 30.6499 35.7954 30.2622 34.9446 30.2622ZM29.3768 33.1744C28.5264 33.1744 27.8371 33.5621 27.8371 34.0404V36V37.9596C27.8371 38.4379 28.5264 38.8258 29.3768 38.8258C30.2276 38.8258 30.9169 38.4379 30.9169 37.9596V36V34.0404C30.9169 33.5621 30.2276 33.1744 29.3768 33.1744ZM23.8099 27.6751C22.9591 27.6751 22.2698 28.063 22.2698 28.5413V36V43.459C22.2698 43.9372 22.9591 44.3252 23.8099 44.3252C24.6603 44.3252 25.3501 43.9372 25.3501 43.459V36V28.5413C25.3501 28.063 24.6603 27.6751 23.8099 27.6751ZM18.2426 29.2614C17.3918 29.2614 16.7025 29.6491 16.7025 30.1273V36V41.8727C16.7025 42.3512 17.3918 42.7389 18.2426 42.7389C19.093 42.7389 19.7828 42.3512 19.7828 41.8727V36V30.1273C19.7828 29.6491 19.093 29.2614 18.2426 29.2614ZM12.6749 31.6095C11.8244 31.6095 11.1348 31.9974 11.1348 32.4754V36V39.5246C11.1348 40.0031 11.8244 40.3908 12.6749 40.3908C13.5254 40.3908 14.215 40.0031 14.215 39.5246V36V32.4754C14.215 31.9974 13.5254 31.6095 12.6749 31.6095ZM1.54024 33.3442C0.689521 33.3442 0 33.7322 0 34.2102V36V37.7898C0 38.2681 0.689521 38.6558 1.54024 38.6558C2.39073 38.6558 3.08029 38.2681 3.08029 37.7898V36V34.2102C3.08029 33.7322 2.39073 33.3442 1.54024 33.3442ZM8.6476 34.2102V37.7898C8.6476 38.2681 7.95845 38.6558 7.10773 38.6558C6.25724 38.6558 5.56767 38.2681 5.56767 37.7898V36V34.2102C5.56767 33.7322 6.25724 33.3442 7.10773 33.3442C7.95845 33.3442 8.6476 33.7322 8.6476 34.2102Z" fill="white"/>
</g>
</svg>
