<svg width="228" height="40" viewBox="0 0 228 40" fill="none" xmlns="http://www.w3.org/2000/svg">
<mask id="mask0_2825_33153" style="mask-type:luminance" maskUnits="userSpaceOnUse" x="0" y="0" width="228" height="40">
<path d="M226.615 18.5246C226.143 18.5246 225.76 18.7401 225.76 19.0057V20V20.9943C225.76 21.26 226.143 21.4754 226.615 21.4754C227.087 21.4754 227.471 21.26 227.471 20.9943V20V19.0057C227.471 18.7401 227.087 18.5246 226.615 18.5246ZM223.522 17.5588C223.05 17.5588 222.667 17.7742 222.667 18.0399V20V21.9602C222.667 22.2258 223.05 22.4413 223.522 22.4413C223.995 22.4413 224.378 22.2258 224.378 21.9602V20V18.0399C224.378 17.7742 223.995 17.5588 223.522 17.5588ZM220.43 16.4213C219.957 16.4213 219.574 16.6368 219.574 16.9025V20V23.0976C219.574 23.3632 219.957 23.5787 220.43 23.5787C220.903 23.5787 221.285 23.3632 221.285 23.0976V20V16.9025C221.285 16.6368 220.903 16.4213 220.43 16.4213ZM217.337 17.9702C216.865 17.9702 216.482 18.1855 216.482 18.4512V20V21.5488C216.482 21.8145 216.865 22.0298 217.337 22.0298C217.81 22.0298 218.193 21.8145 218.193 21.5488V20V18.4512C218.193 18.1855 217.81 17.9702 217.337 17.9702ZM214.245 12.5481C213.772 12.5481 213.389 12.7635 213.389 13.0293V20V26.9708C213.389 27.2365 213.772 27.4519 214.245 27.4519C214.717 27.4519 215.1 27.2365 215.1 26.9708V20V13.0293C215.1 12.7635 214.717 12.5481 214.245 12.5481ZM211.152 10.5719C210.68 10.5719 210.297 10.7874 210.297 11.0531V20V28.9469C210.297 29.2126 210.68 29.428 211.152 29.428C211.625 29.428 212.008 29.2126 212.008 28.9469V20V11.0531C212.008 10.7874 211.625 10.5719 211.152 10.5719ZM208.06 14.7949C207.587 14.7949 207.204 15.0103 207.204 15.276V20V24.7242C207.204 24.9897 207.587 25.2052 208.06 25.2052C208.532 25.2052 208.915 24.9897 208.915 24.7242V20V15.276C208.915 15.0103 208.532 14.7949 208.06 14.7949ZM204.967 13.0694C204.494 13.0694 204.112 13.2847 204.112 13.5504V20V26.4497C204.112 26.7154 204.494 26.9308 204.967 26.9308C205.439 26.9308 205.822 26.7154 205.822 26.4497V20V13.5504C205.822 13.2847 205.439 13.0694 204.967 13.0694ZM201.874 10.906C201.402 10.906 201.019 11.1214 201.019 11.3871V20V28.6129C201.019 28.8786 201.402 29.094 201.874 29.094C202.347 29.094 202.73 28.8786 202.73 28.6129V20V11.3871C202.73 11.1214 202.347 10.906 201.874 10.906ZM198.782 8.69294C198.309 8.69294 197.926 8.90833 197.926 9.17403V20V30.826C197.926 31.0918 198.309 31.3071 198.782 31.3071C199.254 31.3071 199.637 31.0918 199.637 30.826V20V9.17403C199.637 8.90833 199.254 8.69294 198.782 8.69294ZM195.689 10.7515C195.217 10.7515 194.834 10.9669 194.834 11.2326V20V28.7674C194.834 29.0331 195.217 29.2485 195.689 29.2485C196.162 29.2485 196.545 29.0331 196.545 28.7674V20V11.2326C196.545 10.9669 196.162 10.7515 195.689 10.7515ZM192.596 13.4171C192.124 13.4171 191.741 13.6323 191.741 13.8982V20V26.1021C191.741 26.3677 192.124 26.5832 192.596 26.5832C193.069 26.5832 193.452 26.3677 193.452 26.1021V20V13.8982C193.452 13.6323 193.069 13.4171 192.596 13.4171ZM189.504 15.0455C189.032 15.0455 188.648 15.2608 188.648 15.5265V20V24.4736C188.648 24.7392 189.032 24.9547 189.504 24.9547C189.977 24.9547 190.359 24.7392 190.359 24.4736V20V15.5265C190.359 15.2608 189.977 15.0455 189.504 15.0455ZM186.411 16.0335C185.939 16.0335 185.556 16.2489 185.556 16.5146V20V23.4854C185.556 23.7511 185.939 23.9665 186.411 23.9665C186.884 23.9665 187.267 23.7511 187.267 23.4854V20V16.5146C187.267 16.2489 186.884 16.0335 186.411 16.0335ZM183.319 17.7764C182.846 17.7764 182.463 17.9916 182.463 18.2574V20V21.7428C182.463 22.0084 182.846 22.2239 183.319 22.2239C183.791 22.2239 184.174 22.0084 184.174 21.7428V20V18.2574C184.174 17.9916 183.791 17.7764 183.319 17.7764ZM180.226 18.4004C179.754 18.4004 179.371 18.6158 179.371 18.8815V20V21.1187C179.371 21.3844 179.754 21.5999 180.226 21.5999C180.699 21.5999 181.082 21.3844 181.082 21.1187V20V18.8815C181.082 18.6158 180.699 18.4004 180.226 18.4004ZM177.134 17.2823C176.661 17.2823 176.278 17.4975 176.278 17.7633V20V22.2368C176.278 22.5025 176.661 22.7179 177.134 22.7179C177.606 22.7179 177.989 22.5025 177.989 22.2368V20V17.7633C177.989 17.4975 177.606 17.2823 177.134 17.2823ZM174.041 16.8165C173.569 16.8165 173.186 17.0318 173.186 17.2975V20V22.7025C173.186 22.9683 173.569 23.1837 174.041 23.1837C174.514 23.1837 174.896 22.9683 174.896 22.7025V20V17.2975C174.896 17.0318 174.514 16.8165 174.041 16.8165ZM170.948 15.5417C170.476 15.5417 170.093 15.7571 170.093 16.0228V20V23.9772C170.093 24.2431 170.476 24.4585 170.948 24.4585C171.421 24.4585 171.804 24.2431 171.804 23.9772V20V16.0228C171.804 15.7571 171.421 15.5417 170.948 15.5417ZM167.856 17.2823C167.383 17.2823 167 17.4975 167 17.7633V20V22.2368C167 22.5025 167.383 22.7179 167.856 22.7179C168.328 22.7179 168.711 22.5025 168.711 22.2368V20V17.7633C168.711 17.4975 168.328 17.2823 167.856 17.2823ZM164.763 16.2941C164.291 16.2941 163.908 16.5094 163.908 16.7753V20V23.2249C163.908 23.4906 164.291 23.7059 164.763 23.7059C165.236 23.7059 165.619 23.4906 165.619 23.2249V20V16.7753C165.619 16.5094 165.236 16.2941 164.763 16.2941ZM161.67 14.6144C161.198 14.6144 160.815 14.8299 160.815 15.0956V20V24.9045C160.815 25.1701 161.198 25.3856 161.67 25.3856C162.143 25.3856 162.526 25.1701 162.526 24.9045V20V15.0956C162.526 14.8299 162.143 14.6144 161.67 14.6144ZM158.578 16.4679C158.106 16.4679 157.723 16.6832 157.723 16.9489V20V23.0511C157.723 23.3166 158.106 23.5321 158.578 23.5321C159.051 23.5321 159.434 23.3166 159.434 23.0511V20V16.9489C159.434 16.6832 159.051 16.4679 158.578 16.4679ZM155.486 11.8332C155.013 11.8332 154.63 12.0486 154.63 12.3143V20V27.6859C154.63 27.9516 155.013 28.167 155.486 28.167C155.958 28.167 156.341 27.9516 156.341 27.6859V20V12.3143C156.341 12.0486 155.958 11.8332 155.486 11.8332ZM152.393 13.8806C151.92 13.8806 151.537 14.096 151.537 14.3617V20V25.6383C151.537 25.9042 151.92 26.1195 152.393 26.1195C152.865 26.1195 153.248 25.9042 153.248 25.6383V20V14.3617C153.248 14.096 152.865 13.8806 152.393 13.8806ZM149.3 12.0247C148.828 12.0247 148.445 12.2401 148.445 12.5059V20V27.4942C148.445 27.7599 148.828 27.9754 149.3 27.9754C149.773 27.9754 150.156 27.7599 150.156 27.4942V20V12.5059C150.156 12.2401 149.773 12.0247 149.3 12.0247ZM146.208 10.0708C145.735 10.0708 145.352 10.2861 145.352 10.552V20V29.4482C145.352 29.7139 145.735 29.9293 146.208 29.9293C146.68 29.9293 147.063 29.7139 147.063 29.4482V20V10.552C147.063 10.2861 146.68 10.0708 146.208 10.0708ZM143.115 7.85425C142.643 7.85425 142.26 8.06964 142.26 8.33534V20V31.6647C142.26 31.9305 142.643 32.1459 143.115 32.1459C143.587 32.1459 143.97 31.9305 143.97 31.6647V20V8.33534C143.97 8.06964 143.587 7.85425 143.115 7.85425ZM140.022 4.64783C139.55 4.64783 139.167 4.86337 139.167 5.12892V20V34.8709C139.167 35.1366 139.55 35.352 140.022 35.352C140.495 35.352 140.878 35.1366 140.878 34.8709V20V5.12892C140.878 4.86337 140.495 4.64783 140.022 4.64783ZM136.93 0C136.457 0 136.075 0.215397 136.075 0.481239V20V39.5189C136.075 39.7846 136.457 40 136.93 40C137.403 40 137.785 39.7846 137.785 39.5189V20V0.481239C137.785 0.215397 137.403 0 136.93 0ZM133.837 1.65838C133.365 1.65838 132.982 1.87378 132.982 2.13947V20V37.8607C132.982 38.1262 133.365 38.3418 133.837 38.3418C134.31 38.3418 134.693 38.1262 134.693 37.8607V20V2.13947C134.693 1.87378 134.31 1.65838 133.837 1.65838ZM130.745 3.82472C130.272 3.82472 129.889 4.04011 129.889 4.30581V20V35.6943C129.889 35.9599 130.272 36.1754 130.745 36.1754C131.217 36.1754 131.6 35.9599 131.6 35.6943V20V4.30581C131.6 4.04011 131.217 3.82472 130.745 3.82472ZM127.652 7.43204C127.18 7.43204 126.796 7.64743 126.796 7.91314V20V32.0869C126.796 32.3526 127.18 32.5681 127.652 32.5681C128.125 32.5681 128.507 32.3526 128.507 32.0869V20V7.91314C128.507 7.64743 128.125 7.43204 127.652 7.43204ZM124.56 10.5719C124.087 10.5719 123.704 10.7874 123.704 11.0531V20V28.9469C123.704 29.2126 124.087 29.428 124.56 29.428C125.032 29.428 125.415 29.2126 125.415 28.9469V20V11.0531C125.415 10.7874 125.032 10.5719 124.56 10.5719ZM121.467 11.8332C120.994 11.8332 120.612 12.0486 120.612 12.3143V20V27.6859C120.612 27.9516 120.994 28.167 121.467 28.167C121.939 28.167 122.322 27.9516 122.322 27.6859V20V12.3143C122.322 12.0486 121.939 11.8332 121.467 11.8332ZM118.374 10.4228C117.902 10.4228 117.519 10.6382 117.519 10.904V20V29.0961C117.519 29.3617 117.902 29.5772 118.374 29.5772C118.847 29.5772 119.23 29.3617 119.23 29.0961V20V10.904C119.23 10.6382 118.847 10.4228 118.374 10.4228ZM115.281 8.69294C114.809 8.69294 114.426 8.90833 114.426 9.17403V20V30.826C114.426 31.0918 114.809 31.3071 115.281 31.3071C115.754 31.3071 116.137 31.0918 116.137 30.826V20V9.17403C116.137 8.90833 115.754 8.69294 115.281 8.69294ZM112.189 6.77072C111.717 6.77072 111.334 6.98597 111.334 7.25181V20V32.7482C111.334 33.0139 111.717 33.2294 112.189 33.2294C112.662 33.2294 113.044 33.0139 113.044 32.7482V20V7.25181C113.044 6.98597 112.662 6.77072 112.189 6.77072ZM109.097 10.4228C108.624 10.4228 108.241 10.6382 108.241 10.904V20V29.0961C108.241 29.3617 108.624 29.5772 109.097 29.5772C109.569 29.5772 109.952 29.3617 109.952 29.0961V20V10.904C109.952 10.6382 109.569 10.4228 109.097 10.4228ZM106.004 12.0834C105.531 12.0834 105.149 12.2988 105.149 12.5645V20V27.4356C105.149 27.7013 105.531 27.9167 106.004 27.9167C106.476 27.9167 106.859 27.7013 106.859 27.4356V20V12.5645C106.859 12.2988 106.476 12.0834 106.004 12.0834ZM102.911 13.4171C102.439 13.4171 102.056 13.6323 102.056 13.8982V20V26.1021C102.056 26.3677 102.439 26.5832 102.911 26.5832C103.384 26.5832 103.767 26.3677 103.767 26.1021V20V13.8982C103.767 13.6323 103.384 13.4171 102.911 13.4171ZM99.8184 14.971C99.3461 14.971 98.9632 15.1862 98.9632 15.4521V20V24.5481C98.9632 24.8138 99.3461 25.0293 99.8184 25.0293C100.291 25.0293 100.674 24.8138 100.674 24.5481V20V15.4521C100.674 15.1862 100.291 14.971 99.8184 14.971ZM96.7261 13.1448C96.2535 13.1448 95.8706 13.3602 95.8706 13.6259V20V26.3741C95.8706 26.6398 96.2535 26.8552 96.7261 26.8552C97.1985 26.8552 97.5817 26.6398 97.5817 26.3741V20V13.6259C97.5817 13.3602 97.1985 13.1448 96.7261 13.1448ZM93.6333 12.3451C93.161 12.3451 92.7781 12.5604 92.7781 12.8262V20V27.1739C92.7781 27.4396 93.161 27.655 93.6333 27.655C94.106 27.655 94.4889 27.4396 94.4889 27.1739V20V12.8262C94.4889 12.5604 94.106 12.3451 93.6333 12.3451ZM90.5408 10.5719C90.0684 10.5719 89.6855 10.7874 89.6855 11.0531V20V28.9469C89.6855 29.2126 90.0684 29.428 90.5408 29.428C91.0134 29.428 91.3963 29.2126 91.3963 28.9469V20V11.0531C91.3963 10.7874 91.0134 10.5719 90.5408 10.5719ZM87.4482 14.1059C86.9759 14.1059 86.593 14.3214 86.593 14.5869V20V25.4131C86.593 25.6788 86.9759 25.8941 87.4482 25.8941C87.9209 25.8941 88.304 25.6788 88.304 25.4131V20V14.5869C88.304 14.3214 87.9209 14.1059 87.4482 14.1059ZM84.3557 8.21242C83.8831 8.21242 83.5002 8.42767 83.5002 8.69351V20V31.3066C83.5002 31.5723 83.8831 31.7877 84.3557 31.7877C84.8281 31.7877 85.2112 31.5723 85.2112 31.3066V20V8.69351C85.2112 8.42767 84.8281 8.21242 84.3557 8.21242ZM81.2632 12.0834C80.7908 12.0834 80.4076 12.2988 80.4076 12.5645V20V27.4356C80.4076 27.7013 80.7908 27.9167 81.2632 27.9167C81.7358 27.9167 82.1187 27.7013 82.1187 27.4356V20V12.5645C82.1187 12.2988 81.7358 12.0834 81.2632 12.0834ZM78.1703 9.75946C77.698 9.75946 77.3151 9.97499 77.3151 10.2405V20V29.7593C77.3151 30.0252 77.698 30.2405 78.1703 30.2405C78.643 30.2405 79.0259 30.0252 79.0259 29.7593V20V10.2405C79.0259 9.97499 78.643 9.75946 78.1703 9.75946ZM75.0781 8.69294C74.6054 8.69294 74.2225 8.90833 74.2225 9.17403V20V30.826C74.2225 31.0918 74.6054 31.3071 75.0781 31.3071C75.5504 31.3071 75.9336 31.0918 75.9336 30.826V20V9.17403C75.9336 8.90833 75.5504 8.69294 75.0781 8.69294ZM71.9852 5.58543C71.5129 5.58543 71.1297 5.80068 71.1297 6.06652V20V33.9336C71.1297 34.1993 71.5129 34.4149 71.9852 34.4149C72.4576 34.4149 72.8408 34.1993 72.8408 33.9336V20V6.06652C72.8408 5.80068 72.4576 5.58543 71.9852 5.58543ZM68.8927 10.0094C68.4203 10.0094 68.0372 10.2248 68.0372 10.4905V20V29.5095C68.0372 29.7753 68.4203 29.9907 68.8927 29.9907C69.3653 29.9907 69.7482 29.7753 69.7482 29.5095V20V10.4905C69.7482 10.2248 69.3653 10.0094 68.8927 10.0094ZM65.8001 12.0247C65.3275 12.0247 64.9444 12.2401 64.9444 12.5059V20V27.4942C64.9444 27.7599 65.3275 27.9754 65.8001 27.9754C66.2725 27.9754 66.6554 27.7599 66.6554 27.4942V20V12.5059C66.6554 12.2401 66.2725 12.0247 65.8001 12.0247ZM62.7076 13.0694C62.235 13.0694 61.8521 13.2847 61.8521 13.5504V20V26.4497C61.8521 26.7154 62.235 26.9308 62.7076 26.9308C63.18 26.9308 63.5629 26.7154 63.5629 26.4497V20V13.5504C63.5629 13.2847 63.18 13.0694 62.7076 13.0694ZM59.615 15.1642C59.1427 15.1642 58.7595 15.3798 58.7595 15.6453V20V24.3547C58.7595 24.6204 59.1427 24.8358 59.615 24.8358C60.0874 24.8358 60.4706 24.6204 60.4706 24.3547V20V15.6453C60.4706 15.3798 60.0874 15.1642 59.615 15.1642ZM56.5222 15.5954C56.0499 15.5954 55.6667 15.8108 55.6667 16.0765V20V23.9236C55.6667 24.1893 56.0499 24.4049 56.5222 24.4049C56.9949 24.4049 57.3778 24.1893 57.3778 23.9236V20V16.0765C57.3778 15.8108 56.9949 15.5954 56.5222 15.5954ZM53.4299 14.971C52.9573 14.971 52.5744 15.1862 52.5744 15.4521V20V24.5481C52.5744 24.8138 52.9573 25.0293 53.4299 25.0293C53.9023 25.0293 54.2852 24.8138 54.2852 24.5481V20V15.4521C54.2852 15.1862 53.9023 14.971 53.4299 14.971ZM50.3371 17.5302C49.8645 17.5302 49.4816 17.7458 49.4816 18.0113V20V21.9887C49.4816 22.2544 49.8645 22.4698 50.3371 22.4698C50.8095 22.4698 51.1924 22.2544 51.1924 21.9887V20V18.0113C51.1924 17.7458 50.8095 17.5302 50.3371 17.5302ZM47.2446 18.5246C46.772 18.5246 46.3891 18.7401 46.3891 19.0057V20V20.9943C46.3891 21.26 46.772 21.4754 47.2446 21.4754C47.7172 21.4754 48.1001 21.26 48.1001 20.9943V20V19.0057C48.1001 18.7401 47.7172 18.5246 47.2446 18.5246ZM44.1518 17.5571C43.6794 17.5571 43.2963 17.7725 43.2963 18.0383V20V21.9618C43.2963 22.2275 43.6794 22.4429 44.1518 22.4429C44.6244 22.4429 45.0073 22.2275 45.0073 21.9618V20V18.0383C45.0073 17.7725 44.6244 17.5571 44.1518 17.5571ZM41.0595 18.3679C40.5869 18.3679 40.204 18.5833 40.204 18.849V20V21.151C40.204 21.4167 40.5869 21.6321 41.0595 21.6321C41.5318 21.6321 41.9148 21.4167 41.9148 21.151V20V18.849C41.9148 18.5833 41.5318 18.3679 41.0595 18.3679ZM37.9669 17.3417C37.4943 17.3417 37.1114 17.557 37.1114 17.8228V20V22.1775C37.1114 22.443 37.4943 22.6586 37.9669 22.6586C38.4393 22.6586 38.8222 22.443 38.8222 22.1775V20V17.8228C38.8222 17.557 38.4393 17.3417 37.9669 17.3417ZM34.8741 15.5954C34.4015 15.5954 34.0186 15.8108 34.0186 16.0765V20V23.9236C34.0186 24.1893 34.4015 24.4049 34.8741 24.4049C35.3467 24.4049 35.7297 24.1893 35.7297 23.9236V20V16.0765C35.7297 15.8108 35.3467 15.5954 34.8741 15.5954ZM31.7816 17.5571C31.309 17.5571 30.9263 17.7725 30.9263 18.0383V20V21.9618C30.9263 22.2275 31.309 22.4429 31.7816 22.4429C32.2542 22.4429 32.6371 22.2275 32.6371 21.9618V20V18.0383C32.6371 17.7725 32.2542 17.5571 31.7816 17.5571ZM28.6888 18.5246C28.2164 18.5246 27.8335 18.7401 27.8335 19.0057V20V20.9943C27.8335 21.26 28.2164 21.4754 28.6888 21.4754C29.1614 21.4754 29.5443 21.26 29.5443 20.9943V20V19.0057C29.5443 18.7401 29.1614 18.5246 28.6888 18.5246ZM25.5965 16.8123C25.1239 16.8123 24.741 17.0277 24.741 17.2935V20V22.7066C24.741 22.9722 25.1239 23.1877 25.5965 23.1877C26.0688 23.1877 26.4518 22.9722 26.4518 22.7066V20V17.2935C26.4518 17.0277 26.0688 16.8123 25.5965 16.8123ZM22.5037 15.7718C22.0311 15.7718 21.6482 15.9872 21.6482 16.2529V20V23.7471C21.6482 24.0128 22.0311 24.2282 22.5037 24.2282C22.9763 24.2282 23.3592 24.0128 23.3592 23.7471V20V16.2529C23.3592 15.9872 22.9763 15.7718 22.5037 15.7718ZM19.4111 16.8123C18.9388 16.8123 18.5559 17.0277 18.5559 17.2935V20V22.7066C18.5559 22.9722 18.9388 23.1877 19.4111 23.1877C19.8837 23.1877 20.2667 22.9722 20.2667 22.7066V20V17.2935C20.2667 17.0277 19.8837 16.8123 19.4111 16.8123ZM16.3183 18.4302C15.846 18.4302 15.4631 18.6456 15.4631 18.9113V20V21.0887C15.4631 21.3544 15.846 21.5699 16.3183 21.5699C16.7909 21.5699 17.1739 21.3544 17.1739 21.0887V20V18.9113C17.1739 18.6456 16.7909 18.4302 16.3183 18.4302ZM13.226 15.375C12.7534 15.375 12.3705 15.5906 12.3705 15.8563V20V24.1439C12.3705 24.4096 12.7534 24.6251 13.226 24.6251C13.6984 24.6251 14.0816 24.4096 14.0816 24.1439V20V15.8563C14.0816 15.5906 13.6984 15.375 13.226 15.375ZM10.1335 16.2563C9.66087 16.2563 9.27795 16.4717 9.27795 16.7374V20V23.2626C9.27795 23.5284 9.66087 23.7438 10.1335 23.7438C10.6058 23.7438 10.989 23.5284 10.989 23.2626V20V16.7374C10.989 16.4717 10.6058 16.2563 10.1335 16.2563ZM7.0407 17.5608C6.56827 17.5608 6.18523 17.7764 6.18523 18.0419V20V21.9581C6.18523 22.2239 6.56827 22.4393 7.0407 22.4393C7.51316 22.4393 7.89618 22.2239 7.89618 21.9581V20V18.0419C7.89618 17.7764 7.51316 17.5608 7.0407 17.5608ZM0.855577 18.5246C0.383018 18.5246 0 18.7401 0 19.0057V20V20.9943C0 21.26 0.383018 21.4754 0.855577 21.4754C1.32801 21.4754 1.71105 21.26 1.71105 20.9943V20V19.0057C1.71105 18.7401 1.32801 18.5246 0.855577 18.5246ZM4.8036 19.0057V20.9943C4.8036 21.26 4.42079 21.4754 3.94823 21.4754C3.4758 21.4754 3.09275 21.26 3.09275 20.9943V20V19.0057C3.09275 18.7401 3.4758 18.5246 3.94823 18.5246C4.42079 18.5246 4.8036 18.7401 4.8036 19.0057Z" fill="white"/>
</mask>
<g mask="url(#mask0_2825_33153)">
<path d="M226.615 18.5246C226.143 18.5246 225.76 18.7401 225.76 19.0057V20V20.9943C225.76 21.26 226.143 21.4754 226.615 21.4754C227.087 21.4754 227.471 21.26 227.471 20.9943V20V19.0057C227.471 18.7401 227.087 18.5246 226.615 18.5246ZM223.522 17.5588C223.05 17.5588 222.667 17.7742 222.667 18.0399V20V21.9602C222.667 22.2258 223.05 22.4413 223.522 22.4413C223.995 22.4413 224.378 22.2258 224.378 21.9602V20V18.0399C224.378 17.7742 223.995 17.5588 223.522 17.5588ZM220.43 16.4213C219.957 16.4213 219.574 16.6368 219.574 16.9025V20V23.0976C219.574 23.3632 219.957 23.5787 220.43 23.5787C220.903 23.5787 221.285 23.3632 221.285 23.0976V20V16.9025C221.285 16.6368 220.903 16.4213 220.43 16.4213ZM217.337 17.9702C216.865 17.9702 216.482 18.1855 216.482 18.4512V20V21.5488C216.482 21.8145 216.865 22.0298 217.337 22.0298C217.81 22.0298 218.193 21.8145 218.193 21.5488V20V18.4512C218.193 18.1855 217.81 17.9702 217.337 17.9702ZM214.245 12.5481C213.772 12.5481 213.389 12.7635 213.389 13.0293V20V26.9708C213.389 27.2365 213.772 27.4519 214.245 27.4519C214.717 27.4519 215.1 27.2365 215.1 26.9708V20V13.0293C215.1 12.7635 214.717 12.5481 214.245 12.5481ZM211.152 10.5719C210.68 10.5719 210.297 10.7874 210.297 11.0531V20V28.9469C210.297 29.2126 210.68 29.428 211.152 29.428C211.625 29.428 212.008 29.2126 212.008 28.9469V20V11.0531C212.008 10.7874 211.625 10.5719 211.152 10.5719ZM208.06 14.7949C207.587 14.7949 207.204 15.0103 207.204 15.276V20V24.7242C207.204 24.9897 207.587 25.2052 208.06 25.2052C208.532 25.2052 208.915 24.9897 208.915 24.7242V20V15.276C208.915 15.0103 208.532 14.7949 208.06 14.7949ZM204.967 13.0694C204.494 13.0694 204.112 13.2847 204.112 13.5504V20V26.4497C204.112 26.7154 204.494 26.9308 204.967 26.9308C205.439 26.9308 205.822 26.7154 205.822 26.4497V20V13.5504C205.822 13.2847 205.439 13.0694 204.967 13.0694ZM201.874 10.906C201.402 10.906 201.019 11.1214 201.019 11.3871V20V28.6129C201.019 28.8786 201.402 29.094 201.874 29.094C202.347 29.094 202.73 28.8786 202.73 28.6129V20V11.3871C202.73 11.1214 202.347 10.906 201.874 10.906ZM198.782 8.69294C198.309 8.69294 197.926 8.90833 197.926 9.17403V20V30.826C197.926 31.0918 198.309 31.3071 198.782 31.3071C199.254 31.3071 199.637 31.0918 199.637 30.826V20V9.17403C199.637 8.90833 199.254 8.69294 198.782 8.69294ZM195.689 10.7515C195.217 10.7515 194.834 10.9669 194.834 11.2326V20V28.7674C194.834 29.0331 195.217 29.2485 195.689 29.2485C196.162 29.2485 196.545 29.0331 196.545 28.7674V20V11.2326C196.545 10.9669 196.162 10.7515 195.689 10.7515ZM192.596 13.4171C192.124 13.4171 191.741 13.6323 191.741 13.8982V20V26.1021C191.741 26.3677 192.124 26.5832 192.596 26.5832C193.069 26.5832 193.452 26.3677 193.452 26.1021V20V13.8982C193.452 13.6323 193.069 13.4171 192.596 13.4171ZM189.504 15.0455C189.032 15.0455 188.648 15.2608 188.648 15.5265V20V24.4736C188.648 24.7392 189.032 24.9547 189.504 24.9547C189.977 24.9547 190.359 24.7392 190.359 24.4736V20V15.5265C190.359 15.2608 189.977 15.0455 189.504 15.0455ZM186.411 16.0335C185.939 16.0335 185.556 16.2489 185.556 16.5146V20V23.4854C185.556 23.7511 185.939 23.9665 186.411 23.9665C186.884 23.9665 187.267 23.7511 187.267 23.4854V20V16.5146C187.267 16.2489 186.884 16.0335 186.411 16.0335ZM183.319 17.7764C182.846 17.7764 182.463 17.9916 182.463 18.2574V20V21.7428C182.463 22.0084 182.846 22.2239 183.319 22.2239C183.791 22.2239 184.174 22.0084 184.174 21.7428V20V18.2574C184.174 17.9916 183.791 17.7764 183.319 17.7764ZM180.226 18.4004C179.754 18.4004 179.371 18.6158 179.371 18.8815V20V21.1187C179.371 21.3844 179.754 21.5999 180.226 21.5999C180.699 21.5999 181.082 21.3844 181.082 21.1187V20V18.8815C181.082 18.6158 180.699 18.4004 180.226 18.4004ZM177.134 17.2823C176.661 17.2823 176.278 17.4975 176.278 17.7633V20V22.2368C176.278 22.5025 176.661 22.7179 177.134 22.7179C177.606 22.7179 177.989 22.5025 177.989 22.2368V20V17.7633C177.989 17.4975 177.606 17.2823 177.134 17.2823ZM174.041 16.8165C173.569 16.8165 173.186 17.0318 173.186 17.2975V20V22.7025C173.186 22.9683 173.569 23.1837 174.041 23.1837C174.514 23.1837 174.896 22.9683 174.896 22.7025V20V17.2975C174.896 17.0318 174.514 16.8165 174.041 16.8165ZM170.948 15.5417C170.476 15.5417 170.093 15.7571 170.093 16.0228V20V23.9772C170.093 24.2431 170.476 24.4585 170.948 24.4585C171.421 24.4585 171.804 24.2431 171.804 23.9772V20V16.0228C171.804 15.7571 171.421 15.5417 170.948 15.5417ZM167.856 17.2823C167.383 17.2823 167 17.4975 167 17.7633V20V22.2368C167 22.5025 167.383 22.7179 167.856 22.7179C168.328 22.7179 168.711 22.5025 168.711 22.2368V20V17.7633C168.711 17.4975 168.328 17.2823 167.856 17.2823ZM164.763 16.2941C164.291 16.2941 163.908 16.5094 163.908 16.7753V20V23.2249C163.908 23.4906 164.291 23.7059 164.763 23.7059C165.236 23.7059 165.619 23.4906 165.619 23.2249V20V16.7753C165.619 16.5094 165.236 16.2941 164.763 16.2941ZM161.67 14.6144C161.198 14.6144 160.815 14.8299 160.815 15.0956V20V24.9045C160.815 25.1701 161.198 25.3856 161.67 25.3856C162.143 25.3856 162.526 25.1701 162.526 24.9045V20V15.0956C162.526 14.8299 162.143 14.6144 161.67 14.6144ZM158.578 16.4679C158.106 16.4679 157.723 16.6832 157.723 16.9489V20V23.0511C157.723 23.3166 158.106 23.5321 158.578 23.5321C159.051 23.5321 159.434 23.3166 159.434 23.0511V20V16.9489C159.434 16.6832 159.051 16.4679 158.578 16.4679ZM155.486 11.8332C155.013 11.8332 154.63 12.0486 154.63 12.3143V20V27.6859C154.63 27.9516 155.013 28.167 155.486 28.167C155.958 28.167 156.341 27.9516 156.341 27.6859V20V12.3143C156.341 12.0486 155.958 11.8332 155.486 11.8332ZM152.393 13.8806C151.92 13.8806 151.537 14.096 151.537 14.3617V20V25.6383C151.537 25.9042 151.92 26.1195 152.393 26.1195C152.865 26.1195 153.248 25.9042 153.248 25.6383V20V14.3617C153.248 14.096 152.865 13.8806 152.393 13.8806ZM149.3 12.0247C148.828 12.0247 148.445 12.2401 148.445 12.5059V20V27.4942C148.445 27.7599 148.828 27.9754 149.3 27.9754C149.773 27.9754 150.156 27.7599 150.156 27.4942V20V12.5059C150.156 12.2401 149.773 12.0247 149.3 12.0247ZM146.208 10.0708C145.735 10.0708 145.352 10.2861 145.352 10.552V20V29.4482C145.352 29.7139 145.735 29.9293 146.208 29.9293C146.68 29.9293 147.063 29.7139 147.063 29.4482V20V10.552C147.063 10.2861 146.68 10.0708 146.208 10.0708ZM143.115 7.85425C142.643 7.85425 142.26 8.06964 142.26 8.33534V20V31.6647C142.26 31.9305 142.643 32.1459 143.115 32.1459C143.587 32.1459 143.97 31.9305 143.97 31.6647V20V8.33534C143.97 8.06964 143.587 7.85425 143.115 7.85425ZM140.022 4.64783C139.55 4.64783 139.167 4.86337 139.167 5.12892V20V34.8709C139.167 35.1366 139.55 35.352 140.022 35.352C140.495 35.352 140.878 35.1366 140.878 34.8709V20V5.12892C140.878 4.86337 140.495 4.64783 140.022 4.64783ZM136.93 0C136.457 0 136.075 0.215397 136.075 0.481239V20V39.5189C136.075 39.7846 136.457 40 136.93 40C137.403 40 137.785 39.7846 137.785 39.5189V20V0.481239C137.785 0.215397 137.403 0 136.93 0ZM133.837 1.65838C133.365 1.65838 132.982 1.87378 132.982 2.13948V20V37.8607C132.982 38.1262 133.365 38.3418 133.837 38.3418C134.31 38.3418 134.693 38.1262 134.693 37.8607V20V2.13948C134.693 1.87378 134.31 1.65838 133.837 1.65838ZM130.745 3.82472C130.272 3.82472 129.889 4.04011 129.889 4.30581V20V35.6943C129.889 35.9599 130.272 36.1754 130.745 36.1754C131.217 36.1754 131.6 35.9599 131.6 35.6943V20V4.30581C131.6 4.04011 131.217 3.82472 130.745 3.82472ZM127.652 7.43204C127.18 7.43204 126.796 7.64743 126.796 7.91314V20V32.0869C126.796 32.3526 127.18 32.5681 127.652 32.5681C128.125 32.5681 128.507 32.3526 128.507 32.0869V20V7.91314C128.507 7.64743 128.125 7.43204 127.652 7.43204ZM124.56 10.5719C124.087 10.5719 123.704 10.7874 123.704 11.0531V20V28.9469C123.704 29.2126 124.087 29.428 124.56 29.428C125.032 29.428 125.415 29.2126 125.415 28.9469V20V11.0531C125.415 10.7874 125.032 10.5719 124.56 10.5719ZM121.467 11.8332C120.994 11.8332 120.612 12.0486 120.612 12.3143V20V27.6859C120.612 27.9516 120.994 28.167 121.467 28.167C121.939 28.167 122.322 27.9516 122.322 27.6859V20V12.3143C122.322 12.0486 121.939 11.8332 121.467 11.8332ZM118.374 10.4228C117.902 10.4228 117.519 10.6382 117.519 10.904V20V29.0961C117.519 29.3617 117.902 29.5772 118.374 29.5772C118.847 29.5772 119.23 29.3617 119.23 29.0961V20V10.904C119.23 10.6382 118.847 10.4228 118.374 10.4228ZM115.281 8.69294C114.809 8.69294 114.426 8.90833 114.426 9.17403V20V30.826C114.426 31.0918 114.809 31.3071 115.281 31.3071C115.754 31.3071 116.137 31.0918 116.137 30.826V20V9.17403C116.137 8.90833 115.754 8.69294 115.281 8.69294ZM112.189 6.77072C111.717 6.77072 111.334 6.98597 111.334 7.25181V20V32.7482C111.334 33.0139 111.717 33.2294 112.189 33.2294C112.662 33.2294 113.044 33.0139 113.044 32.7482V20V7.25181C113.044 6.98597 112.662 6.77072 112.189 6.77072ZM109.097 10.4228C108.624 10.4228 108.241 10.6382 108.241 10.904V20V29.0961C108.241 29.3617 108.624 29.5772 109.097 29.5772C109.569 29.5772 109.952 29.3617 109.952 29.0961V20V10.904C109.952 10.6382 109.569 10.4228 109.097 10.4228ZM106.004 12.0834C105.531 12.0834 105.149 12.2988 105.149 12.5645V20V27.4356C105.149 27.7013 105.531 27.9167 106.004 27.9167C106.476 27.9167 106.859 27.7013 106.859 27.4356V20V12.5645C106.859 12.2988 106.476 12.0834 106.004 12.0834ZM102.911 13.4171C102.439 13.4171 102.056 13.6323 102.056 13.8982V20V26.1021C102.056 26.3677 102.439 26.5832 102.911 26.5832C103.384 26.5832 103.767 26.3677 103.767 26.1021V20V13.8982C103.767 13.6323 103.384 13.4171 102.911 13.4171ZM99.8184 14.971C99.3461 14.971 98.9632 15.1862 98.9632 15.4521V20V24.5481C98.9632 24.8138 99.3461 25.0293 99.8184 25.0293C100.291 25.0293 100.674 24.8138 100.674 24.5481V20V15.4521C100.674 15.1862 100.291 14.971 99.8184 14.971ZM96.7262 13.1448C96.2535 13.1448 95.8706 13.3602 95.8706 13.6259V20V26.3741C95.8706 26.6398 96.2535 26.8552 96.7262 26.8552C97.1985 26.8552 97.5817 26.6398 97.5817 26.3741V20V13.6259C97.5817 13.3602 97.1985 13.1448 96.7262 13.1448ZM93.6333 12.3451C93.161 12.3451 92.7781 12.5604 92.7781 12.8262V20V27.1739C92.7781 27.4396 93.161 27.655 93.6333 27.655C94.106 27.655 94.4889 27.4396 94.4889 27.1739V20V12.8262C94.4889 12.5604 94.106 12.3451 93.6333 12.3451ZM90.5408 10.5719C90.0684 10.5719 89.6855 10.7874 89.6855 11.0531V20V28.9469C89.6855 29.2126 90.0684 29.428 90.5408 29.428C91.0134 29.428 91.3963 29.2126 91.3963 28.9469V20V11.0531C91.3963 10.7874 91.0134 10.5719 90.5408 10.5719ZM87.4482 14.1059C86.9759 14.1059 86.593 14.3214 86.593 14.5869V20V25.4131C86.593 25.6788 86.9759 25.8941 87.4482 25.8941C87.9209 25.8941 88.304 25.6788 88.304 25.4131V20V14.5869C88.304 14.3214 87.9209 14.1059 87.4482 14.1059ZM84.3557 8.21242C83.8831 8.21242 83.5002 8.42767 83.5002 8.69351V20V31.3066C83.5002 31.5723 83.8831 31.7877 84.3557 31.7877C84.8281 31.7877 85.2112 31.5723 85.2112 31.3066V20V8.69351C85.2112 8.42767 84.8281 8.21242 84.3557 8.21242ZM81.2631 12.0834C80.7908 12.0834 80.4076 12.2988 80.4076 12.5645V20V27.4356C80.4076 27.7013 80.7908 27.9167 81.2631 27.9167C81.7358 27.9167 82.1187 27.7013 82.1187 27.4356V20V12.5645C82.1187 12.2988 81.7358 12.0834 81.2631 12.0834ZM78.1703 9.75945C77.698 9.75945 77.3151 9.97499 77.3151 10.2405V20V29.7593C77.3151 30.0252 77.698 30.2405 78.1703 30.2405C78.643 30.2405 79.0259 30.0252 79.0259 29.7593V20V10.2405C79.0259 9.97499 78.643 9.75945 78.1703 9.75945ZM75.0781 8.69294C74.6054 8.69294 74.2225 8.90833 74.2225 9.17403V20V30.826C74.2225 31.0918 74.6054 31.3071 75.0781 31.3071C75.5504 31.3071 75.9336 31.0918 75.9336 30.826V20V9.17403C75.9336 8.90833 75.5504 8.69294 75.0781 8.69294ZM71.9852 5.58543C71.5129 5.58543 71.1297 5.80068 71.1297 6.06652V20V33.9336C71.1297 34.1993 71.5129 34.4149 71.9852 34.4149C72.4576 34.4149 72.8408 34.1993 72.8408 33.9336V20V6.06652C72.8408 5.80068 72.4576 5.58543 71.9852 5.58543ZM68.8927 10.0094C68.4203 10.0094 68.0372 10.2248 68.0372 10.4905V20V29.5095C68.0372 29.7753 68.4203 29.9907 68.8927 29.9907C69.3653 29.9907 69.7482 29.7753 69.7482 29.5095V20V10.4905C69.7482 10.2248 69.3653 10.0094 68.8927 10.0094ZM65.8001 12.0247C65.3275 12.0247 64.9444 12.2401 64.9444 12.5059V20V27.4942C64.9444 27.7599 65.3275 27.9754 65.8001 27.9754C66.2725 27.9754 66.6554 27.7599 66.6554 27.4942V20V12.5059C66.6554 12.2401 66.2725 12.0247 65.8001 12.0247ZM62.7076 13.0694C62.235 13.0694 61.8521 13.2847 61.8521 13.5504V20V26.4497C61.8521 26.7154 62.235 26.9308 62.7076 26.9308C63.18 26.9308 63.5629 26.7154 63.5629 26.4497V20V13.5504C63.5629 13.2847 63.18 13.0694 62.7076 13.0694ZM59.615 15.1642C59.1427 15.1642 58.7595 15.3798 58.7595 15.6453V20V24.3547C58.7595 24.6204 59.1427 24.8358 59.615 24.8358C60.0874 24.8358 60.4706 24.6204 60.4706 24.3547V20V15.6453C60.4706 15.3798 60.0874 15.1642 59.615 15.1642ZM56.5222 15.5954C56.0499 15.5954 55.6667 15.8108 55.6667 16.0765V20V23.9236C55.6667 24.1893 56.0499 24.4049 56.5222 24.4049C56.9948 24.4049 57.3778 24.1893 57.3778 23.9236V20V16.0765C57.3778 15.8108 56.9948 15.5954 56.5222 15.5954ZM53.4299 14.971C52.9573 14.971 52.5744 15.1862 52.5744 15.4521V20V24.5481C52.5744 24.8138 52.9573 25.0293 53.4299 25.0293C53.9023 25.0293 54.2852 24.8138 54.2852 24.5481V20V15.4521C54.2852 15.1862 53.9023 14.971 53.4299 14.971ZM50.3371 17.5302C49.8645 17.5302 49.4816 17.7458 49.4816 18.0113V20V21.9887C49.4816 22.2544 49.8645 22.4698 50.3371 22.4698C50.8095 22.4698 51.1924 22.2544 51.1924 21.9887V20V18.0113C51.1924 17.7458 50.8095 17.5302 50.3371 17.5302ZM47.2446 18.5246C46.772 18.5246 46.3891 18.7401 46.3891 19.0057V20V20.9943C46.3891 21.26 46.772 21.4754 47.2446 21.4754C47.7172 21.4754 48.1001 21.26 48.1001 20.9943V20V19.0057C48.1001 18.7401 47.7172 18.5246 47.2446 18.5246ZM44.1518 17.5571C43.6794 17.5571 43.2963 17.7725 43.2963 18.0383V20V21.9618C43.2963 22.2275 43.6794 22.4429 44.1518 22.4429C44.6244 22.4429 45.0073 22.2275 45.0073 21.9618V20V18.0383C45.0073 17.7725 44.6244 17.5571 44.1518 17.5571ZM41.0595 18.3679C40.5869 18.3679 40.204 18.5833 40.204 18.849V20V21.151C40.204 21.4167 40.5869 21.6321 41.0595 21.6321C41.5318 21.6321 41.9148 21.4167 41.9148 21.151V20V18.849C41.9148 18.5833 41.5318 18.3679 41.0595 18.3679ZM37.9669 17.3417C37.4943 17.3417 37.1114 17.557 37.1114 17.8228V20V22.1775C37.1114 22.443 37.4943 22.6586 37.9669 22.6586C38.4393 22.6586 38.8222 22.443 38.8222 22.1775V20V17.8228C38.8222 17.557 38.4393 17.3417 37.9669 17.3417ZM34.8741 15.5954C34.4015 15.5954 34.0186 15.8108 34.0186 16.0765V20V23.9236C34.0186 24.1893 34.4015 24.4049 34.8741 24.4049C35.3467 24.4049 35.7297 24.1893 35.7297 23.9236V20V16.0765C35.7297 15.8108 35.3467 15.5954 34.8741 15.5954ZM31.7816 17.5571C31.309 17.5571 30.9263 17.7725 30.9263 18.0383V20V21.9618C30.9263 22.2275 31.309 22.4429 31.7816 22.4429C32.2542 22.4429 32.6371 22.2275 32.6371 21.9618V20V18.0383C32.6371 17.7725 32.2542 17.5571 31.7816 17.5571ZM28.6888 18.5246C28.2164 18.5246 27.8335 18.7401 27.8335 19.0057V20V20.9943C27.8335 21.26 28.2164 21.4754 28.6888 21.4754C29.1614 21.4754 29.5443 21.26 29.5443 20.9943V20V19.0057C29.5443 18.7401 29.1614 18.5246 28.6888 18.5246ZM25.5965 16.8123C25.1239 16.8123 24.741 17.0277 24.741 17.2935V20V22.7066C24.741 22.9722 25.1239 23.1877 25.5965 23.1877C26.0688 23.1877 26.4518 22.9722 26.4518 22.7066V20V17.2935C26.4518 17.0277 26.0688 16.8123 25.5965 16.8123ZM22.5037 15.7718C22.0311 15.7718 21.6482 15.9872 21.6482 16.2529V20V23.7471C21.6482 24.0128 22.0311 24.2282 22.5037 24.2282C22.9763 24.2282 23.3592 24.0128 23.3592 23.7471V20V16.2529C23.3592 15.9872 22.9763 15.7718 22.5037 15.7718ZM19.4111 16.8123C18.9388 16.8123 18.5559 17.0277 18.5559 17.2935V20V22.7066C18.5559 22.9722 18.9388 23.1877 19.4111 23.1877C19.8837 23.1877 20.2667 22.9722 20.2667 22.7066V20V17.2935C20.2667 17.0277 19.8837 16.8123 19.4111 16.8123ZM16.3183 18.4302C15.846 18.4302 15.4631 18.6456 15.4631 18.9113V20V21.0887C15.4631 21.3544 15.846 21.5699 16.3183 21.5699C16.7909 21.5699 17.1739 21.3544 17.1739 21.0887V20V18.9113C17.1739 18.6456 16.7909 18.4302 16.3183 18.4302ZM13.226 15.375C12.7534 15.375 12.3705 15.5906 12.3705 15.8563V20V24.1439C12.3705 24.4096 12.7534 24.6251 13.226 24.6251C13.6984 24.6251 14.0816 24.4096 14.0816 24.1439V20V15.8563C14.0816 15.5906 13.6984 15.375 13.226 15.375ZM10.1335 16.2563C9.66087 16.2563 9.27795 16.4717 9.27795 16.7374V20V23.2626C9.27795 23.5284 9.66087 23.7438 10.1335 23.7438C10.6058 23.7438 10.989 23.5284 10.989 23.2626V20V16.7374C10.989 16.4717 10.6058 16.2563 10.1335 16.2563ZM7.0407 17.5608C6.56827 17.5608 6.18523 17.7764 6.18523 18.0419V20V21.9581C6.18523 22.2239 6.56827 22.4393 7.0407 22.4393C7.51316 22.4393 7.89618 22.2239 7.89618 21.9581V20V18.0419C7.89618 17.7764 7.51316 17.5608 7.0407 17.5608ZM0.855577 18.5246C0.383018 18.5246 0 18.7401 0 19.0057V20V20.9943C0 21.26 0.383018 21.4754 0.855577 21.4754C1.32801 21.4754 1.71105 21.26 1.71105 20.9943V20V19.0057C1.71105 18.7401 1.32801 18.5246 0.855577 18.5246ZM4.8036 19.0057V20.9943C4.8036 21.26 4.42079 21.4754 3.94823 21.4754C3.4758 21.4754 3.09275 21.26 3.09275 20.9943V20V19.0057C3.09275 18.7401 3.4758 18.5246 3.94823 18.5246C4.42079 18.5246 4.8036 18.7401 4.8036 19.0057Z" fill="url(#paint0_linear_2825_33153)"/>
</g>
<defs>
<linearGradient id="paint0_linear_2825_33153" x1="227.471" y1="-1.07911e-05" x2="97.5462" y2="118.944" gradientUnits="userSpaceOnUse">
<stop stop-color="#0780B9"/>
<stop offset="1" stop-color="#4CC5FF"/>
</linearGradient>
</defs>
</svg>
