<svg width="361" height="243" viewBox="0 0 361 243" fill="none" xmlns="http://www.w3.org/2000/svg">
<path d="M28.2318 242.743C27.8162 242.743 27.4044 242.586 27.0812 242.27C26.9349 242.12 26.8156 241.951 26.7387 241.766C26.3269 241.319 25.1378 240.242 24.3219 239.507C21.4856 236.944 20.9738 236.478 20.9507 235.539C20.9392 235.093 21.1239 234.631 21.4395 234.315C22.1591 233.6 22.5516 233.53 30.691 234.15C32.0302 234.254 33.6042 234.373 34.9665 234.458C33.7504 233.315 32.2341 231.941 30.9642 230.79C24.4258 224.875 23.9409 224.271 23.9178 223.197C23.9063 222.751 24.1025 222.258 24.4142 221.943C25.4725 220.896 26.0344 220.923 37.822 225.557C39.7616 226.322 42.0398 227.215 44.0217 227.958C42.0898 226.13 39.6577 223.936 37.6257 222.093C28.3281 213.68 26.9234 212.21 26.8888 210.856C26.8772 210.409 27.0812 209.878 27.3967 209.567C28.7052 208.254 29.7442 208.574 44.6759 216.948C47.4198 218.483 50.6679 220.303 53.4041 221.77C50.7025 219.199 47.1966 216.028 44.2757 213.388C32.0494 202.328 29.8943 200.103 29.852 198.514C29.8405 198.068 30.0637 197.502 30.3754 197.186C31.8609 195.697 33.4118 196.332 51.4337 208.308C55.7131 211.152 60.9776 214.65 64.7491 216.955C59.573 211.579 49.3171 202.301 41.2586 195.008C19.7693 175.566 13.5118 169.52 13.4425 166.915C13.431 166.469 13.6927 165.776 14.0083 165.46C16.2711 163.201 20.2041 165.695 53.7235 195.197C65.7496 205.776 80.1772 218.476 86.7271 223.017C80.7275 215.855 62.0052 198.918 46.477 184.872C16.4866 157.737 3.33285 145.441 3.24049 141.55C3.22125 140.931 3.44447 140.357 3.85625 139.946C6.86183 136.975 15.4937 144.04 58.3069 184.414C76.883 201.935 99.5383 223.301 106.954 227.792C101.686 220.273 76.0132 197.044 54.9819 178.014C18.3608 144.879 1.09311 128.755 0.977659 124.067C0.958417 123.401 1.19316 122.797 1.62803 122.359C4.97611 119.03 15.6938 128.054 65.4533 176.205C88.2472 198.264 116.209 225.322 123.875 229.324C119.288 221.639 88.482 193.769 63.3829 171.06C21.2432 132.934 1.37789 114.392 1.2432 109.085C1.22011 108.193 1.60111 107.623 1.92052 107.3C5.59572 103.629 17.5642 113.938 73.127 168.524C99.2035 194.138 131.295 225.66 139.1 229.182C135.09 221.4 100.27 189.897 71.9878 164.306C25.4879 122.235 3.56377 101.777 3.42138 95.9856C3.39829 95.0582 3.79082 94.4694 4.12178 94.1345C8.24339 90.0437 25.157 105.633 81.2432 161.277C109.956 189.763 145.369 224.895 153.281 227.989C149.737 220.138 111.722 185.741 80.8968 157.86C30.9065 112.626 7.33132 90.6402 7.17739 84.4559C7.1543 83.5015 7.55836 82.8973 7.89702 82.5548C10.333 80.1303 17.1562 84.4097 33.4733 99.4337C19.877 86.1992 12.3842 77.6519 12.2957 74.2654C12.2688 73.2917 12.6806 72.676 13.0231 72.3258C13.3694 71.9833 13.9813 71.5715 14.9588 71.5715H14.9627C17.8605 71.5754 24.5066 76.4435 34.6086 85.4718C24.2757 75.062 18.6609 68.2234 18.5878 65.2448C18.5609 64.2558 18.9803 63.6246 19.3267 63.2744C19.6769 62.9281 20.3003 62.5125 21.2894 62.5125C21.2932 62.5125 21.2932 62.5125 21.2971 62.5125C24.064 62.5163 30.1522 66.8419 39.319 74.9119C30.6717 65.9722 25.9998 60.0187 25.9344 57.271C25.9074 56.2666 26.3269 55.6354 26.6809 55.2775C27.035 54.9273 27.6661 54.5079 28.6667 54.5079C28.6706 54.5079 28.6705 54.5079 28.6744 54.5079C31.399 54.5155 37.2601 58.6179 46.0536 66.2954C38.5301 58.3523 34.4932 53.0031 34.4239 50.4285C34.3969 49.4164 34.8203 48.7776 35.1782 48.4197C35.5322 48.0657 36.1633 47.6462 37.1755 47.6462C37.1793 47.6462 37.1831 47.6462 37.187 47.6462C39.9001 47.6539 45.6804 51.6677 54.3277 59.1913C47.5391 51.9025 43.9024 46.9573 43.8408 44.5021C43.8139 43.4861 44.2372 42.8434 44.599 42.4817C44.9569 42.1276 45.588 41.7043 46.604 41.7043C46.6078 41.7043 46.6117 41.7043 46.6155 41.7043C49.3517 41.712 55.182 45.7682 63.8986 53.3571C57.5526 46.4763 54.166 41.7813 54.1083 39.4107C54.0814 38.3909 54.5047 37.7482 54.8664 37.3864C55.2243 37.0285 55.917 36.6245 56.883 36.6091C59.6461 36.6168 65.5495 40.7422 74.3931 48.4582C68.3011 41.8044 65.0531 37.2595 64.9915 34.935C64.9646 33.9191 65.3879 33.2725 65.7496 32.9146C66.1075 32.5606 66.7386 32.1411 67.7546 32.1411C67.7585 32.1411 67.7623 32.1411 67.7662 32.1411C70.5909 32.1488 76.7252 36.4859 85.9382 44.579C80.0656 38.1369 76.9292 33.7189 76.8714 31.4522C76.8445 30.4401 77.2678 29.7974 77.6257 29.4395C77.9798 29.0855 78.6109 28.666 79.623 28.666C79.6269 28.666 79.6268 28.666 79.6307 28.666C82.5285 28.6737 88.9246 33.261 98.584 41.8082C92.6883 35.366 89.5441 30.9519 89.4902 28.6929C89.4633 27.6847 89.8828 27.0497 90.2407 26.6918C90.5909 26.3416 91.2182 25.9221 92.2226 25.9221C92.2226 25.9221 92.2264 25.9221 92.2303 25.9221C95.2012 25.9298 101.932 30.8365 112.138 39.9533C106.011 33.3149 102.736 28.7891 102.682 26.5032C102.656 25.5065 103.071 24.8754 103.425 24.5213C103.775 24.1749 104.399 23.7593 105.388 23.7593C105.388 23.7593 105.392 23.7593 105.396 23.7593C108.482 23.7632 115.705 29.1547 126.731 39.1182C120.25 32.1834 116.783 27.4846 116.725 25.164C116.698 24.1788 117.11 23.5554 117.46 23.2052C117.807 22.8627 118.422 22.4509 119.396 22.4509C119.4 22.4509 119.4 22.4509 119.4 22.4509C122.636 22.4547 130.529 28.5083 142.686 39.6377C135.49 32.0911 131.622 27.0227 131.557 24.6021C131.534 23.6323 131.942 23.0166 132.284 22.6702C134.828 20.1495 142.063 24.8407 159.615 41.1463C151.184 32.5298 147.043 27.1998 146.977 24.6252C146.95 23.6747 147.354 23.0666 147.693 22.7279C150.498 19.9263 159.342 26.2993 182.532 48.4082C169.56 35.8394 163.244 28.5236 163.167 25.4064C163.144 24.4751 163.541 23.8825 163.872 23.5477C167.878 19.5608 184.276 34.6079 238.645 88.3466C266.177 115.555 300.066 149.051 308.174 152.626C304.129 145.118 271.499 115.601 244.984 91.6062C201.124 51.9217 180.443 32.626 180.304 27.1305C180.281 26.2223 180.67 25.645 180.993 25.3179C184.584 21.7351 196.336 31.7793 250.826 85.164C276.098 109.928 307.143 140.346 315.22 144.34C310.776 136.963 281.382 110.371 257.433 88.7006C217.137 52.2411 198.141 34.5078 198.011 29.4088C197.987 28.5275 198.365 27.9656 198.68 27.6462C202.032 24.2942 212.842 33.3956 262.971 81.9544C285.711 103.986 313.562 130.963 321.601 135.408C316.748 128.208 291.041 104.948 270.017 85.9298C233.762 53.1301 216.671 37.1709 216.552 32.522C216.537 31.8601 216.768 31.256 217.202 30.8172C220.323 27.6885 229.529 35.2929 275.12 78.7564C294.905 97.6135 319.011 120.592 326.989 125.51C321.736 118.568 300.27 99.149 282.621 83.1782C250.291 53.9267 236.113 40.6768 236.009 36.5321C235.99 35.8971 236.217 35.316 236.637 34.8965C239.465 32.0449 247.004 38.0945 287.085 75.3622C303.306 90.4439 322.894 108.658 330.745 114.035C325.199 107.546 308.844 92.753 295.263 80.4574C268.59 56.3281 256.891 45.3833 256.802 41.8621C256.787 41.2617 257.002 40.7037 257.402 40.3035C259.865 37.8521 265.63 42.2277 298.565 71.483C310.087 81.7158 323.729 93.8382 331.118 99.3914C325.78 93.9267 315.84 84.9331 307.978 77.8174C286.381 58.2792 280.092 52.2027 280.027 49.5896C280.016 49.1432 280.281 48.4467 280.593 48.1311C282.294 46.4301 284.356 47.4422 306.361 63.9364C309.74 66.4724 313.616 69.3779 317.198 71.9948C313.6 68.6506 313.239 68.0272 313.219 67.1613C313.208 66.7149 313.404 66.2184 313.72 65.899C314.355 65.264 315.386 65.2602 316.021 65.8952C316.244 66.1184 316.394 66.3916 316.46 66.6764C317.256 67.6808 320.581 70.6864 323.048 72.9223C330.087 79.2913 330.656 79.9918 330.683 81.0963C330.695 81.5427 330.495 82.0391 330.183 82.3585C328.482 84.0557 326.415 83.0474 304.41 66.5455C298.78 62.3277 291.795 57.0862 287.047 53.8459C292.388 59.3144 302.317 68.2927 310.171 75.4007C331.768 94.9389 338.057 101.015 338.122 103.628C338.134 104.075 337.868 104.771 337.556 105.087C335.101 107.535 329.34 103.167 296.41 73.919C284.052 62.9396 269.255 49.7974 262.348 44.9023C268.216 51.5908 284.164 66.0183 297.456 78.0445C324.137 102.185 335.836 113.13 335.925 116.655C335.94 117.256 335.725 117.81 335.324 118.214C332.488 121.039 324.957 115.016 284.876 77.7482C268.259 62.297 248.101 43.5515 240.658 38.7025C246.235 45.8528 267.385 64.9947 284.818 80.7653C317.156 110.021 331.337 123.278 331.441 127.423C331.461 128.058 331.233 128.639 330.814 129.062C327.67 132.187 318.453 124.552 272.888 81.1155C252.858 62.0276 228.401 38.7103 220.731 34.1923C225.861 41.5773 251.345 64.6367 272.211 83.5169C308.463 116.313 325.549 132.268 325.669 136.913C325.684 137.575 325.449 138.183 325.018 138.618C321.67 141.974 310.849 132.868 260.716 84.2981C237.803 62.1007 209.71 34.885 201.917 30.7595C206.581 38.2908 235.802 64.7253 259.635 86.2877C299.931 122.747 318.926 140.48 319.057 145.58C319.08 146.461 318.703 147.023 318.388 147.342C314.77 150.929 303.048 140.885 248.559 87.4961C223.152 62.6009 191.919 31.9949 184.041 28.2581C188.278 35.8971 220.766 65.291 247.185 89.1932C291.045 128.878 311.726 148.173 311.865 153.669C311.888 154.577 311.499 155.154 311.176 155.481C307.197 159.457 290.795 144.448 236.375 90.6672C208.751 63.3629 174.72 29.732 166.785 26.3685C170.622 34.096 206.054 66.1569 234.816 92.1796C281.905 134.781 304.106 155.497 304.253 161.354C304.276 162.285 303.879 162.878 303.548 163.213C299.342 167.377 282.005 151.356 224.484 94.1307C194.947 64.7445 158.503 28.4928 150.51 25.468C153.993 33.2648 191.942 67.5923 222.698 95.4237C272.557 140.531 296.059 162.459 296.213 168.624C296.24 169.574 295.836 170.182 295.498 170.521C293.058 172.938 286.35 168.755 270.464 154.173C281.582 165.214 287.651 172.418 287.728 175.451C287.751 176.42 287.343 177.036 287 177.383C286.654 177.725 286.038 178.137 285.065 178.137C282.09 178.133 275.186 173.026 264.661 163.571C273.877 172.968 278.869 179.191 278.942 181.981C278.969 182.967 278.553 183.59 278.207 183.944C277.857 184.29 277.233 184.706 276.244 184.706C276.24 184.706 276.24 184.706 276.236 184.706C273.381 184.698 266.985 180.088 257.31 171.51C265.307 179.849 269.617 185.426 269.679 188.05C269.706 189.047 269.29 189.678 268.936 190.032C268.586 190.382 267.955 190.802 266.954 190.802C266.954 190.802 266.95 190.802 266.946 190.802C264.164 190.798 258.08 186.488 248.932 178.449C256.221 186.168 260.131 191.375 260.196 193.896C260.223 194.904 259.804 195.539 259.446 195.897C259.092 196.251 258.461 196.671 257.449 196.671C257.445 196.671 257.445 196.671 257.441 196.671C254.686 196.663 248.759 192.51 239.869 184.741C246.558 191.929 250.137 196.809 250.194 199.237C250.221 200.25 249.798 200.892 249.44 201.25C249.082 201.604 248.451 202.024 247.439 202.024C247.435 202.024 247.431 202.024 247.427 202.024C244.695 202.016 238.869 197.964 230.156 190.375C236.564 197.313 239.985 202.043 240.042 204.425C240.069 205.441 239.646 206.088 239.284 206.445C238.926 206.8 238.295 207.223 237.279 207.223C237.275 207.223 237.272 207.223 237.268 207.223C234.516 207.215 228.628 203.109 219.827 195.431C225.965 202.128 229.244 206.707 229.302 209.035C229.329 210.055 228.905 210.698 228.544 211.06C228.186 211.414 227.555 211.837 226.542 211.837C226.539 211.837 226.535 211.837 226.531 211.837C223.764 211.829 217.834 207.681 208.948 199.919C215.101 206.622 218.384 211.206 218.445 213.534C218.472 214.55 218.049 215.193 217.687 215.555C217.333 215.909 216.702 216.328 215.69 216.328C215.686 216.328 215.682 216.328 215.678 216.328C212.854 216.32 206.708 211.972 197.476 203.852C203.606 210.525 206.881 215.081 206.939 217.398C206.966 218.41 206.542 219.049 206.184 219.407C205.83 219.757 205.203 220.176 204.199 220.176C204.195 220.176 204.195 220.176 204.191 220.176C201.309 220.169 194.905 215.57 185.242 207.007C191.695 213.961 195.151 218.687 195.209 221.05C195.236 222.054 194.816 222.686 194.462 223.043C194.112 223.39 193.489 223.805 192.5 223.805C192.496 223.805 192.492 223.805 192.492 223.805C189.506 223.802 182.659 218.772 172.257 209.443C179.215 216.825 182.948 221.808 183.01 224.233C183.036 225.222 182.621 225.853 182.271 226.203C181.924 226.546 181.312 226.957 180.335 226.957H180.331C177.183 226.953 169.629 221.223 158.026 210.659C165.884 218.814 170.121 224.26 170.183 226.803C170.21 227.777 169.802 228.393 169.456 228.743C166.939 231.244 159.735 226.588 142.198 210.309C151.969 220.119 156.752 226.076 156.821 228.851C156.844 229.805 156.444 230.409 156.102 230.752C151.98 234.843 135.063 219.241 78.9649 163.598C50.3561 135.22 15.0973 100.242 7.0273 96.9323C10.8179 104.56 45.7958 136.209 74.1891 161.897C120.689 203.967 142.613 224.425 142.756 230.217C142.779 231.144 142.386 231.733 142.055 232.068C138.384 235.72 126.415 225.43 70.8603 170.856C44.9261 145.383 13.0461 114.061 5.00689 110.248C9.29398 117.725 40.3273 145.803 65.5842 168.654C107.724 206.78 127.589 225.322 127.724 230.629C127.747 231.521 127.366 232.091 127.047 232.418C123.698 235.759 112.973 226.719 63.202 178.56C40.6467 156.732 13.0231 130.001 5.03385 125.583C9.89434 132.83 35.9132 156.37 57.1831 175.612C93.8004 208.743 111.068 224.868 111.184 229.555C111.203 230.221 110.972 230.829 110.533 231.264C107.528 234.258 98.8957 227.169 56.0825 186.8C37.9259 169.674 15.8786 148.878 7.96247 143.752C13.3887 150.54 32.7229 168.031 48.6821 182.47C78.6725 209.605 91.8262 221.9 91.9186 225.791C91.9378 226.411 91.7146 226.984 91.3028 227.396C89.0438 229.647 85.1108 227.161 51.5876 197.656C40.6544 188.035 27.7315 176.663 20.5505 171.264C25.8882 176.713 35.69 185.58 43.456 192.607C64.9453 212.049 71.2028 218.094 71.272 220.7C71.2836 221.146 71.0219 221.839 70.7063 222.155C69.2208 223.64 67.6661 223.009 49.648 211.037C46.196 208.739 42.1014 206.022 38.6648 203.84C41.1316 206.145 44.0102 208.754 46.477 210.983C58.7033 222.043 60.8583 224.267 60.9007 225.857C60.9122 226.303 60.689 226.869 60.3773 227.184C59.0611 228.493 58.0298 228.173 43.0981 219.799C40.5813 218.391 37.645 216.74 35.0627 215.347C36.629 216.794 38.3338 218.337 39.827 219.688C49.1208 228.096 50.5216 229.566 50.5562 230.917C50.5678 231.364 50.36 231.895 50.0483 232.21C48.9938 233.261 48.4281 233.23 36.6405 228.597C34.8703 227.9 32.8229 227.096 30.9719 226.395C31.7185 227.077 32.4766 227.762 33.1616 228.385C39.7077 234.308 40.1887 234.912 40.2157 235.986C40.2272 236.432 40.0348 236.925 39.7192 237.24C38.9957 237.96 38.6032 238.025 30.46 237.409C29.2362 237.317 27.82 237.205 26.5501 237.125C29.3479 239.657 29.852 240.115 29.879 241.05C29.8905 241.493 29.7096 241.951 29.3979 242.27C29.0669 242.586 28.6513 242.743 28.2318 242.743ZM49.2286 114.392C59.954 124.779 73.2924 137.994 89.825 154.512C120.658 185.31 158.738 223.344 166.719 226.08C163.56 218.179 122.994 181.477 90.1522 151.764C74.3661 137.483 60.6082 124.987 49.2286 114.392ZM64.0371 113.48C74.2161 123.494 85.8266 135.112 98.7956 148.131C131.334 180.788 171.553 221.158 179.592 223.598C176.733 215.659 134.154 177.136 99.7077 145.968C86.3654 133.896 74.4046 123.04 64.0371 113.48ZM75.9594 109.886C85.5341 119.38 96.248 130.14 108.043 142.024C141.89 176.109 183.748 218.264 191.822 220.469C189.198 212.507 145.115 172.626 109.479 140.38C97.0946 129.178 85.8728 118.995 75.9594 109.886ZM87.2736 105.749C96.4212 114.862 106.542 125.056 117.587 136.209C152.388 171.344 195.451 214.816 203.564 216.859C201.097 208.885 156.025 168.104 119.592 135.143C107.732 124.41 96.9176 114.6 87.2736 105.749ZM98.4262 101.493C107.285 110.348 117.021 120.165 127.589 130.852C163.052 166.711 206.946 211.094 215.082 213.018C212.723 205.037 166.996 163.667 130.048 130.24C118.492 119.78 107.909 110.182 98.4262 101.493ZM109.267 96.9554C117.949 105.645 127.454 115.239 137.741 125.649C173.516 161.847 217.791 206.653 225.946 208.531C223.625 200.554 177.706 159.007 140.612 125.441C129.171 115.089 118.684 105.58 109.267 96.9554ZM120.162 92.4874C128.744 101.081 138.111 110.54 148.24 120.792C184.114 157.102 228.524 202.047 236.687 203.917C234.37 195.947 188.493 154.439 151.426 120.904C140.016 110.579 129.56 101.096 120.162 92.4874ZM131.003 87.981C139.488 96.4782 148.755 105.83 158.757 115.951C194.466 152.079 238.661 196.794 246.835 198.714C244.457 190.763 199.088 149.72 162.432 116.551C150.945 106.157 140.427 96.6206 131.003 87.981ZM141.917 83.5669C150.402 92.0526 159.677 101.4 169.702 111.537C204.988 147.204 248.651 191.341 256.825 193.349C254.343 185.429 209.775 145.106 173.754 112.514C162.078 101.951 151.426 92.2873 141.917 83.5669ZM10.6794 85.2679C14.0467 92.9993 52.1841 127.5 83.0865 155.458C98.6609 169.555 111.672 181.389 122.213 191.194C112.6 181.8 101.147 170.429 87.516 156.817C56.756 126.091 18.7841 88.1619 10.6794 85.2679ZM152.584 78.9258C161.155 87.4769 170.556 96.9438 180.747 107.227C215.336 142.131 258.126 185.31 266.296 187.469C263.66 179.584 220.216 140.277 185.088 108.493C173.104 97.652 162.225 87.777 152.584 78.9258ZM15.7362 74.9774C18.7687 82.7934 59.4229 119.576 92.3342 149.351C105.569 161.323 117.379 172.049 127.558 181.443C118.291 172.283 107.916 161.901 96.4943 150.432C64.0024 117.825 23.8639 77.5327 15.7362 74.9774ZM163.229 74.2846C171.93 82.9358 181.524 92.5759 191.969 103.09C225.68 137.04 267.37 179.014 275.536 181.354C272.707 173.519 230.718 135.528 196.748 104.795C184.295 93.5265 173.062 83.336 163.229 74.2846ZM173.504 69.3087C182.471 78.183 192.45 88.1734 203.391 99.1566C235.925 131.818 276.125 172.172 284.283 174.758C281.212 166.98 241.062 130.656 208.559 101.25C195.378 89.3202 183.621 78.6525 173.504 69.3087ZM21.9936 65.8836C24.7568 73.7612 67.4006 112.345 101.89 143.552C114.281 154.762 125.473 164.918 135.309 173.965C126.388 165.095 116.513 155.174 105.734 144.317C71.9339 110.275 30.1368 68.1772 21.9936 65.8836ZM182.609 63.2436C191.765 72.2296 202.494 82.8973 215.043 95.4469C246.165 126.565 284.584 164.979 292.719 167.842C289.363 160.138 251.334 125.726 220.512 97.8444C205.526 84.2827 192.915 72.8145 182.609 63.2436ZM29.3209 57.8598C31.8801 65.7797 76.0017 105.699 111.668 137.968C123.564 148.728 134.385 158.549 144.01 167.377C135.282 158.672 125.692 149.016 115.282 138.502C80.5004 103.394 37.4718 59.9533 29.3209 57.8598ZM37.7951 50.9827C40.2118 58.9258 85.3225 99.7416 121.778 132.726C133.369 143.213 143.968 152.826 153.443 161.512C144.849 152.918 135.444 143.432 125.272 133.142C89.8251 97.3018 45.9575 52.9454 37.7951 50.9827ZM187.47 53.1416C197.845 63.1436 210.756 75.8856 226.781 91.8294C256.24 121.139 292.565 157.275 300.689 160.469C297.01 152.849 261.47 120.696 232.638 94.604C213.558 77.3518 198.565 63.6823 187.47 53.1416ZM47.2043 45.037C49.5441 53.0031 95.2821 94.3885 132.238 127.823C143.691 138.187 154.185 147.708 163.606 156.336C155.001 147.723 145.596 138.233 135.428 127.939C99.6461 91.737 55.3629 46.9227 47.2043 45.037ZM57.4641 39.9417C59.7808 47.9156 105.696 89.4588 142.794 123.024C154.212 133.357 164.68 142.851 174.085 151.464C165.484 142.851 156.09 133.365 145.927 123.082C110.044 86.7649 65.6265 41.8082 57.4641 39.9417ZM68.3511 35.4776C70.6871 43.4553 116.552 84.9562 153.612 118.487C165.076 128.858 175.575 138.387 185.011 147.027C176.302 138.314 166.766 128.689 156.44 118.245C120.72 82.1007 76.5058 37.3672 68.3511 35.4776ZM80.2388 32.0064C82.6478 39.9725 127.986 80.9923 164.622 114.138C176.26 124.668 186.896 134.315 196.413 143.04C187.597 134.227 177.903 124.46 167.389 113.827C132.076 78.1407 88.3819 33.9729 80.2388 32.0064ZM92.8691 29.274C95.3975 37.2286 139.939 77.525 175.94 110.101C187.897 120.919 198.776 130.786 208.451 139.669C199.384 130.64 189.367 120.554 178.434 109.52C143.818 74.5887 100.985 31.3637 92.8691 29.274ZM106.081 27.1305C108.774 35.0543 152.176 74.327 187.274 106.08C199.7 117.325 210.941 127.523 220.843 136.624C211.507 127.358 201.089 116.898 189.656 105.387C155.913 71.4099 114.181 29.3895 106.081 27.1305ZM120.158 25.8452C123.071 33.7382 165.007 71.6831 198.934 102.378C212.161 114.346 224.006 125.095 234.266 134.558C224.468 124.898 213.381 113.804 201.082 101.454C168.501 68.7468 128.228 28.3197 120.158 25.8452ZM135.036 25.3603C138.211 33.2071 178.288 69.4703 210.749 98.8334C225.615 112.283 238.657 124.133 249.586 134.277C239.515 124.448 227.37 112.38 212.738 97.752C181.566 66.584 143.067 28.0888 135.036 25.3603Z" fill="#5C7587"/>
<path d="M23.0227 114.009C11.5122 25.0189 95.5914 -8.46574 211.377 7.73976C294.941 19.435 396.842 50.7877 339.574 123.68C281.822 197.187 152.409 231.807 92.2588 199.954L39.8247 225.485L53.0015 170.969C36.6113 154.19 25.6703 134.482 23.0227 114.009Z" fill="white"/>
<path d="M39.8197 229.253C38.9769 229.253 38.1418 228.968 37.4568 228.422C36.3177 227.506 35.8135 226.016 36.156 224.596L48.848 172.093C32.0845 154.425 21.8747 134.552 19.2771 114.494C15.0631 81.9217 22.9985 55.4411 42.8599 35.7836C74.5089 4.46939 134.532 -6.81794 211.896 4.00369C269.46 12.0583 341.359 29.8109 356.991 68.6256C363.88 85.7239 359.012 105.031 342.533 126.009C315.098 160.929 269.66 189.699 217.876 204.946C168.821 219.389 122.063 219.066 92.2114 204.173L41.4707 228.876C40.9473 229.13 40.3854 229.253 39.8197 229.253ZM157.541 7.51729C108.486 7.51729 70.549 18.997 48.1707 41.1443C30.0679 59.0585 22.8676 83.411 26.7621 113.525C29.2174 132.52 39.2232 151.47 55.6942 168.333C56.6025 169.261 56.968 170.592 56.664 171.854L45.369 218.589L90.6105 196.565C91.6881 196.038 92.9657 196.061 94.024 196.622C150.591 226.571 278.38 195.46 336.61 121.352C351.303 102.649 355.81 85.8586 350.002 71.4465C334.959 34.1057 256.368 17.8463 210.857 11.4734C191.93 8.82574 174.097 7.51729 157.541 7.51729Z" fill="#5C7587"/>
<circle cx="104" cy="102" r="12" fill="#1CB0F6" fill-opacity="0.32"/>
<circle cx="200" cy="102" r="12" fill="#1CB0F6" fill-opacity="0.32"/>
<circle cx="152" cy="102" r="12" fill="#1CB0F6" fill-opacity="0.32"/>
<circle cx="248" cy="102" r="12" fill="#1CB0F6" fill-opacity="0.32"/>
</svg>
