<svg width="343" height="268" viewBox="0 0 343 268" fill="none" xmlns="http://www.w3.org/2000/svg">
<g filter="url(#filter0_d_2582_72517)">
<path d="M24.3562 112.449C14.7644 156.844 91.4987 208.497 171.83 207.296C252.615 207.296 319.304 173.652 319.304 113.65C319.304 67.8976 250.217 23.6321 169.432 23.6321C89.1007 21.2038 24.3562 66.697 24.3562 112.449Z" fill="white"/>
<path d="M216.191 200.081L259.354 190.477L261.752 215.689L283.333 242.102L265.349 243.303L243.767 232.498L216.191 200.081Z" fill="white"/>
<path d="M217.772 208.006C221.266 215.161 226.438 220.53 231.812 225.736C233.421 227.294 235.071 228.807 236.67 230.373C241.517 235.115 247.07 238.873 253.104 241.886C259.751 245.207 266.801 247.152 274.268 247.395C275.651 247.44 277.037 247.582 278.419 247.548C279.798 247.515 281.184 247.397 282.543 247.167C284.15 246.893 285.557 246.108 286.747 244.991C288.588 243.262 288.838 241.329 287.394 239.264C286.73 238.311 285.891 237.468 285.061 236.645C282.865 234.469 280.62 232.344 278.416 230.176C272.556 224.413 268.191 217.649 265.024 210.083C263.247 205.837 261.446 198.987 261.758 193.968C262.662 193.505 263.679 192.96 264.714 192.453C274.803 187.511 284.277 181.609 292.857 174.322C299.552 168.635 305.528 162.287 310.494 155.018C315.906 147.094 319.807 138.508 321.685 129.059C324.26 116.102 322.685 103.585 317.512 91.4947C312.779 80.4275 305.602 71.0989 296.909 62.8916C287.14 53.6662 276.026 46.4002 264.031 40.4356C249.737 33.3305 234.716 28.3432 219.117 25.068C201.32 21.3341 183.311 19.7013 165.144 20.0447C138.69 20.5441 113.095 25.3993 88.5804 35.5732C85.9426 36.6681 83.1586 37.3645 80.552 38.5891C69.3081 43.8693 58.7619 50.2397 49.3188 58.3606C42.3288 64.3732 36.1757 71.1301 31.1615 78.8956C26.3704 86.3153 22.9509 94.3017 21.2508 102.999C18.7593 115.754 20.3803 128.043 25.4328 139.936C28.4159 146.955 32.4684 153.325 37.2811 159.22C44.6956 168.304 53.4744 175.853 63.2341 182.289C75.4109 190.318 88.566 196.304 102.376 200.881C115.963 205.383 129.883 208.399 144.088 210.155C155.529 211.569 167.003 212.172 178.525 211.943C190.687 211.703 202.761 210.556 214.734 208.378C215.66 208.212 216.604 208.147 217.772 208.006ZM278.884 240.551C276.138 240.342 273.354 240.357 270.654 239.881C259.99 238.004 250.725 233.213 242.759 225.906C239.855 223.241 237.021 220.494 234.237 217.704C231.225 214.686 228.306 211.564 226.014 207.936C224.335 205.278 221.825 204.051 218.851 203.7C216.204 203.388 213.552 203.398 210.895 203.875C202.5 205.381 194.025 206.308 185.513 206.706C173.053 207.29 160.605 207.079 148.181 205.708C135.556 204.315 123.125 201.974 110.932 198.43C95.4121 193.918 80.6432 187.677 66.9629 178.987C58.3782 173.536 50.465 167.264 43.6021 159.72C37.6024 153.124 32.6627 145.824 29.2288 137.562C24.4305 126.017 23.0876 114.114 25.8021 101.851C27.8859 92.4431 32.02 83.9693 37.6959 76.223C42.6453 69.4685 48.5298 63.6288 55.0451 58.4038C63.9918 51.229 73.8282 45.5118 84.1993 40.6926C86.9834 39.3983 89.542 37.6551 92.5202 36.7306C97.2969 35.2491 101.985 33.477 106.786 32.0867C121.255 27.899 136.038 25.4377 151.052 24.266C164.571 23.2118 178.084 23.2214 191.577 24.5181C204.32 25.7427 216.873 28.0887 229.203 31.5488C243.711 35.6212 257.672 41.0551 270.748 48.6309C280.292 54.1585 289.109 60.6393 296.833 68.556C303.588 75.4787 309.228 83.1937 313.16 92.071C319.232 105.775 320.316 119.822 315.772 134.183C313.002 142.938 308.453 150.723 302.65 157.799C296.379 165.444 288.97 171.819 280.833 177.381C274.752 181.537 268.362 185.158 261.703 188.296C258.173 189.961 256.475 192.955 255.991 196.583C255.715 198.658 255.979 200.845 256.269 202.946C257.235 209.922 259.892 216.282 263.58 222.237C266.688 227.256 270.453 231.725 274.762 235.747C276.229 237.118 277.716 238.467 278.884 240.551Z" fill="#C5A47B"/>
</g>
<defs>
<filter id="filter0_d_2582_72517" x="0.199947" y="0.100826" width="342.6" height="267.353" filterUnits="userSpaceOnUse" color-interpolation-filters="sRGB">
<feFlood flood-opacity="0" result="BackgroundImageFix"/>
<feColorMatrix in="SourceAlpha" type="matrix" values="0 0 0 0 0 0 0 0 0 0 0 0 0 0 0 0 0 0 127 0" result="hardAlpha"/>
<feOffset/>
<feGaussianBlur stdDeviation="9.94959"/>
<feComposite in2="hardAlpha" operator="out"/>
<feColorMatrix type="matrix" values="0 0 0 0 0 0 0 0 0 0 0 0 0 0 0 0 0 0 0.25 0"/>
<feBlend mode="normal" in2="BackgroundImageFix" result="effect1_dropShadow_2582_72517"/>
<feBlend mode="normal" in="SourceGraphic" in2="effect1_dropShadow_2582_72517" result="shape"/>
</filter>
</defs>
</svg>
