<svg width="742" height="678" viewBox="0 0 742 678" fill="none" xmlns="http://www.w3.org/2000/svg">
<path opacity="0.5" d="M370.798 672.391C556.845 672.391 707.666 665.428 707.666 656.84C707.666 648.251 556.845 641.289 370.798 641.289C184.751 641.289 33.9302 648.251 33.9302 656.84C33.9302 665.428 184.751 672.391 370.798 672.391Z" fill="#BC863F"/>
<path d="M126.364 656.679H108.556L105.588 637.758H129.332L126.364 656.679Z" fill="#3D2D1B"/>
<path d="M633.041 656.679H615.233L612.265 637.758H636.009L633.041 656.679Z" fill="#3D2D1B"/>
<path d="M604.651 386.969H136.945L97.9899 474.031H643.606L604.651 386.969Z" fill="#9F6826"/>
<path d="M643.608 474.031H97.9898V637.765H643.608V474.031Z" fill="#894F2F"/>
<path d="M643.607 514.594H97.9896V518.552H643.607V514.594Z" fill="#3D2D1B"/>
<path d="M97.9896 513.484H643.606" stroke="#644620" stroke-width="2.968" stroke-miterlimit="10"/>
<path d="M97.9896 520.039H643.606" stroke="#9F6826" stroke-width="2.968" stroke-miterlimit="10"/>
<path d="M643.607 552.688H97.9896V556.645H643.607V552.688Z" fill="#3D2D1B"/>
<path d="M97.9896 551.578H643.606" stroke="#644620" stroke-width="2.968" stroke-miterlimit="10"/>
<path d="M97.9896 558.133H643.606" stroke="#9F6826" stroke-width="2.968" stroke-miterlimit="10"/>
<path d="M643.607 592.258H97.9896V596.216H643.607V592.258Z" fill="#3D2D1B"/>
<path d="M97.9896 591.148H643.606" stroke="#644620" stroke-width="2.968" stroke-miterlimit="10"/>
<path d="M97.9896 597.703H643.606" stroke="#9F6826" stroke-width="2.968" stroke-miterlimit="10"/>
<path d="M118.665 497.044C118.665 499.128 116.976 500.817 114.892 500.817C112.809 500.817 111.122 499.128 111.122 497.044C111.122 494.961 112.81 493.273 114.892 493.273C116.976 493.273 118.665 494.962 118.665 497.044Z" fill="#EDC75D"/>
<path d="M118.665 536.28C118.665 538.364 116.976 540.052 114.892 540.052C112.809 540.052 111.122 538.364 111.122 536.28C111.122 534.197 112.81 532.508 114.892 532.508C116.976 532.509 118.665 534.198 118.665 536.28Z" fill="#EDC75D"/>
<path d="M114.894 579.284C116.976 579.284 118.665 577.596 118.665 575.513C118.665 573.43 116.976 571.742 114.894 571.742C112.811 571.742 111.123 573.43 111.123 575.513C111.123 577.596 112.811 579.284 114.894 579.284Z" fill="#EDC75D"/>
<path d="M114.894 618.51C116.976 618.51 118.665 616.822 118.665 614.74C118.665 612.657 116.976 610.969 114.894 610.969C112.811 610.969 111.123 612.657 111.123 614.74C111.123 616.822 112.811 618.51 114.894 618.51Z" fill="#EDC75D"/>
<path d="M630.474 497.044C630.474 499.128 628.786 500.817 626.702 500.817C624.619 500.817 622.93 499.128 622.93 497.044C622.93 494.961 624.619 493.273 626.702 493.273C628.786 493.273 630.474 494.962 630.474 497.044Z" fill="#EDC75D"/>
<path d="M630.474 536.28C630.474 538.364 628.786 540.052 626.702 540.052C624.619 540.052 622.93 538.364 622.93 536.28C622.93 534.197 624.619 532.508 626.702 532.508C628.786 532.509 630.474 534.198 630.474 536.28Z" fill="#EDC75D"/>
<path d="M630.474 575.515C630.474 577.598 628.786 579.287 626.702 579.287C624.619 579.287 622.93 577.598 622.93 575.515C622.93 573.431 624.619 571.742 626.702 571.742C628.786 571.744 630.474 573.432 630.474 575.515Z" fill="#EDC75D"/>
<path d="M630.474 614.741C630.474 616.825 628.786 618.513 626.702 618.513C624.619 618.513 622.93 616.825 622.93 614.741C622.93 612.658 624.619 610.969 626.702 610.969C628.786 610.97 630.474 612.658 630.474 614.741Z" fill="#EDC75D"/>
<path d="M150.301 122.812H136.945V388.943H150.301V122.812Z" fill="#894F2F"/>
<path d="M604.651 122.812H591.295V388.943H604.651V122.812Z" fill="#894F2F"/>
<path d="M111.346 177.719H97.9899V474.025H111.346V177.719Z" fill="#894F2F"/>
<path d="M643.606 177.719H630.25V474.025H643.606V177.719Z" fill="#894F2F"/>
<path d="M81.4178 141.625V176.87C81.4178 192.853 94.3731 205.808 110.356 205.808C126.337 205.808 139.294 192.853 139.294 176.87V141.625H81.4178Z" fill="#E8D3B8"/>
<path d="M139.294 141.625V176.87C139.294 192.853 152.249 205.808 168.232 205.808C184.213 205.808 197.17 192.853 197.17 176.87V141.625H139.294Z" fill="#C14023"/>
<path d="M197.17 141.625V176.87C197.17 192.853 210.125 205.808 226.108 205.808C242.089 205.808 255.046 192.853 255.046 176.87V141.625H197.17Z" fill="#E8D3B8"/>
<path d="M255.046 141.625V176.87C255.046 192.853 268.001 205.808 283.984 205.808C299.965 205.808 312.922 192.853 312.922 176.87V141.625H255.046Z" fill="#C14023"/>
<path d="M312.922 141.625V176.87C312.922 192.853 325.877 205.808 341.86 205.808C357.841 205.808 370.798 192.853 370.798 176.87V141.625H312.922Z" fill="#E8D3B8"/>
<path d="M370.798 141.625V176.87C370.798 192.853 383.753 205.808 399.736 205.808C415.717 205.808 428.674 192.853 428.674 176.87V141.625H370.798Z" fill="#C14023"/>
<path d="M428.674 141.625V176.87C428.674 192.853 441.629 205.808 457.612 205.808C473.593 205.808 486.55 192.853 486.55 176.87V141.625H428.674Z" fill="#E8D3B8"/>
<path d="M486.55 141.625V176.87C486.55 192.853 499.505 205.808 515.488 205.808C531.469 205.808 544.426 192.853 544.426 176.87V141.625H486.55Z" fill="#C14023"/>
<path d="M544.426 141.625V176.87C544.426 192.853 557.381 205.808 573.364 205.808C589.345 205.808 602.302 192.853 602.302 176.87V141.625H544.426Z" fill="#E8D3B8"/>
<path d="M602.302 141.625V176.87C602.302 192.853 615.257 205.808 631.24 205.808C647.221 205.808 660.178 192.853 660.178 176.87V141.625H602.302Z" fill="#C14023"/>
<path d="M607.217 69.6484H134.377L81.418 141.622H660.178L607.217 69.6484Z" fill="#FFF3E3"/>
<path d="M139.294 141.622L181.662 69.6484H228.946L197.17 141.622H139.294Z" fill="#D2542F"/>
<path d="M255.046 141.622L276.23 69.6484H323.513L312.922 141.622H255.046Z" fill="#D2542F"/>
<path d="M370.798 141.622V69.6484H418.081L428.674 141.622H370.798Z" fill="#D2542F"/>
<path d="M486.55 141.622L465.366 69.6484H512.649L544.426 141.622H486.55Z" fill="#D2542F"/>
<path d="M602.302 141.622L559.934 69.6484H607.217L660.178 141.622H602.302Z" fill="#D2542F"/>
<path d="M188.883 348.68V335.886C188.883 327.177 195.943 320.117 204.652 320.117C213.362 320.117 220.421 327.177 220.421 335.886V348.68" stroke="#BDC6BF" stroke-width="7.42" stroke-miterlimit="10"/>
<path d="M204.652 346.062C170.853 346.062 143.452 352.456 143.452 360.343L149.189 420.651C149.189 428.539 174.021 434.932 204.652 434.932C235.283 434.932 260.115 428.539 260.115 420.651L265.852 360.343C265.851 352.456 238.452 346.062 204.652 346.062Z" fill="#9FA7A2"/>
<path d="M204.652 374.624C238.452 374.624 265.852 368.23 265.852 360.343C265.852 352.456 238.452 346.062 204.652 346.062C170.852 346.062 143.452 352.456 143.452 360.343C143.452 368.23 170.852 374.624 204.652 374.624Z" fill="#BDC6BF"/>
<path d="M204.652 372.019C235.284 372.019 260.115 366.796 260.115 360.353C260.115 353.91 235.284 348.688 204.652 348.688C174.021 348.688 149.189 353.91 149.189 360.353C149.189 366.796 174.021 372.019 204.652 372.019Z" fill="#7D8981"/>
<mask id="mask0_2582_70948" style="mask-type:luminance" maskUnits="userSpaceOnUse" x="134" y="308" width="144" height="65">
<path d="M277.072 308.961H134.775V345.006L149.189 354.711V360.352C149.189 366.795 174.021 372.018 204.652 372.018C233.832 372.018 257.731 367.276 259.933 361.257L277.073 361.34V308.961H277.072Z" fill="white"/>
</mask>
<g mask="url(#mask0_2582_70948)">
<path d="M175.383 347.013C175.383 347.013 163.834 350.99 159.695 347.397C155.557 343.804 165.749 341.146 173.963 344.252C173.963 344.252 161.924 339.885 161.26 334.482C160.595 329.08 169.597 333.173 176.763 341.081C176.763 341.081 172.304 332.41 173.765 326.811C175.226 321.212 180.905 325.026 181.2 339.771C181.2 339.771 184.731 334.08 188.85 330.876C192.968 327.672 195.813 333.048 182.384 345.008L175.383 347.013Z" fill="#669B79"/>
<path d="M178.871 347.055C175.468 347.628 172.08 347.549 168.751 346.598C167.479 346.209 166.346 345.573 165.35 344.688C166.084 342.907 167.131 342.311 168.49 342.901C170.759 343.427 172.957 344.151 174.758 345.69C174.84 345.38 174.922 345.069 175.003 344.759C172.627 345.148 170.683 343.792 168.993 342.348C167.738 341.276 164.862 336.43 168.796 336.965C171.075 337.275 172.902 338.62 174.525 340.143C176.17 341.684 174.329 340.867 173.433 339.988C172.399 338.975 172.075 337.574 171.902 336.182C171.603 333.795 173.62 333.085 175.38 334.616C177.064 336.082 178.16 338.617 177.933 340.815C178.278 340.721 178.624 340.628 178.97 340.534C177.612 338.351 175.929 333.318 179.353 331.897C182.502 330.592 182.484 334.898 182.417 336.277C182.392 336.812 180.985 341.468 180.901 338.78C180.864 337.614 181.442 336.167 181.929 335.118C183.09 332.616 186.675 332.101 186.391 335.79C186.109 339.463 184.366 343.597 181.227 345.657C180.629 346.049 181.187 347.013 181.79 346.619C184.894 344.581 186.374 341.198 187.206 337.688C187.685 335.67 188.18 332.742 185.876 331.777C182.236 330.252 177.4 339.074 180.568 340.929C183.496 342.645 184.544 332.956 182.138 331.288C180.19 329.937 177.809 330.89 176.744 332.853C175.439 335.26 176.689 338.97 178.011 341.095C178.321 341.595 178.994 341.349 179.049 340.815C179.377 337.638 177.376 334.438 174.757 332.76C172.785 331.495 171.14 332.687 170.809 334.738C170.471 336.836 171.222 339.239 172.65 340.776C173.531 341.726 176.049 344.035 176.9 341.935C177.504 340.442 173.877 338.019 172.893 337.354C171.093 336.139 168.126 335.139 166.077 336.216C164.038 337.289 166.07 340.6 166.855 341.674C168.736 344.249 172.053 346.365 175.304 345.834C175.708 345.768 175.851 345.16 175.549 344.903C174.067 343.637 163.251 338.583 163.251 343.189C163.251 345.58 166.636 346.997 168.459 347.672C171.792 348.907 175.736 348.708 179.17 348.129C179.872 348.008 179.572 346.936 178.871 347.055Z" fill="#80A17A"/>
<path d="M202.044 398.122C198.861 399.629 168.76 358.601 168.381 353.203C168.003 347.806 185.741 339.093 189.586 342.823C193.431 346.549 206.413 396.055 202.044 398.122Z" fill="#C67036"/>
<path d="M195.206 387.064C193.106 388.057 172.045 358.389 171.796 354.829C171.547 351.269 178.973 347.294 181.509 349.755C184.045 352.214 198.088 385.7 195.206 387.064Z" fill="#D37F3C"/>
<path d="M173.573 363.06C173.573 363.06 175.116 359.016 181.987 356.078" stroke="#BC662B" stroke-width="1.484" stroke-miterlimit="10" stroke-linecap="round" stroke-linejoin="round"/>
<path d="M179.021 371.133C179.021 371.133 181.339 368.461 186.972 365.961" stroke="#BC662B" stroke-width="1.484" stroke-miterlimit="10" stroke-linecap="round" stroke-linejoin="round"/>
<path d="M226.303 336.532C226.303 336.532 215.302 331.225 214.893 325.758C214.483 320.292 223.592 325.583 227.237 333.571C227.237 333.571 221.765 321.993 225.097 317.689C228.428 313.386 231.938 322.631 231.458 333.292C231.458 333.292 234.398 323.995 239.379 321.048C244.359 318.1 245.706 324.807 235.532 335.485C235.532 335.485 242.047 333.93 247.227 334.556C252.408 335.181 250.642 341.003 232.684 340.038L226.303 336.532Z" fill="#669B79"/>
<path d="M228.752 339.021C225.472 336.699 222.615 333.72 221.186 329.901C220.256 328.235 220.74 327.134 222.636 326.596C223.329 327.275 223.909 328.038 224.377 328.884C225.595 330.821 226.57 332.836 226.787 335.149C227.066 334.989 227.345 334.829 227.624 334.669C225.825 333.409 225.343 331.349 225.088 329.32C225.008 328.679 225.312 321.403 228.249 324.2C230.248 326.104 230.549 329.24 230.518 331.821C230.495 333.771 229.862 330.51 229.862 330.03C229.862 328.46 230.843 327.097 231.831 325.963C233.901 323.589 235.041 326.441 235.007 328.391C234.973 330.426 234.058 332.649 232.474 333.922C232.784 334.103 233.094 334.283 233.404 334.464C233.641 333.458 234.024 332.544 234.502 331.629C234.924 330.876 235.439 330.188 236.044 329.567C238.049 327.41 239.566 328.176 240.594 331.862C240.075 332.938 238.881 333.876 237.933 334.542C236.759 335.368 235.022 335.148 237.157 333.741C237.82 333.305 238.586 332.966 239.327 332.69C243.086 331.296 243.992 334.83 241.204 336.926C238.47 338.981 234.83 340.34 231.411 339.683C230.709 339.548 230.411 340.621 231.116 340.756C234.987 341.499 238.571 340.005 241.766 337.886C243.474 336.754 245.754 334.814 244.176 332.731C242.168 330.077 233.256 332.196 234.263 335.863C235.146 339.075 243.241 332.964 242.136 329.843C241.32 327.54 239.058 326.697 236.845 327.614C234.421 328.62 232.896 331.781 232.333 334.167C232.196 334.743 232.84 335.049 233.263 334.709C235.952 332.548 237.883 321.56 232.238 324.202C230.259 325.128 228.836 327.946 228.75 330.028C228.718 330.843 228.796 334.909 230.642 334.118C232.303 333.407 231.717 329.807 231.439 328.466C230.955 326.127 229.759 323.129 227.3 322.307C225.16 321.592 224.104 325.425 223.998 326.734C223.739 329.938 224.254 333.66 227.063 335.626C227.394 335.857 227.938 335.553 227.9 335.145C227.686 332.861 223.918 322.147 220.25 325.408C218.877 326.628 219.931 330.064 220.55 331.342C222.275 334.9 224.979 337.703 228.191 339.977C228.777 340.398 229.332 339.432 228.752 339.021Z" fill="#80A17A"/>
<path d="M209.243 391.595C205.922 390.423 213.438 340.095 216.972 335.996C220.504 331.897 239.235 338.201 239.338 343.557C239.441 348.911 213.8 393.204 209.243 391.595Z" fill="#C67036"/>
<path d="M212.172 378.931C209.982 378.158 215.919 342.262 218.249 339.559C220.579 336.855 228.651 339.264 228.719 342.796C228.787 346.326 215.179 379.992 212.172 378.931Z" fill="#D37F3C"/>
<path d="M213.72 346.647C213.72 346.647 217.665 344.862 224.611 347.615" stroke="#BC662B" stroke-width="1.484" stroke-miterlimit="10" stroke-linecap="round" stroke-linejoin="round"/>
<path d="M211.901 356.213C211.901 356.213 215.428 355.949 221.188 358.139" stroke="#BC662B" stroke-width="1.484" stroke-miterlimit="10" stroke-linecap="round" stroke-linejoin="round"/>
<path d="M210.102 368.015C210.102 368.015 212.028 367.149 217.162 368.868" stroke="#BC662B" stroke-width="1.484" stroke-miterlimit="10" stroke-linecap="round" stroke-linejoin="round"/>
<path d="M251.918 347.694C251.918 347.694 244.674 337.859 246.869 332.836C249.062 327.813 254.642 336.748 254.129 345.514C254.129 345.514 254.704 332.722 259.662 330.473C264.621 328.227 263.401 338.04 257.992 347.24C257.992 347.24 264.937 340.395 270.717 340.119C276.497 339.842 274.553 346.401 260.566 351.083C260.566 351.083 267.051 352.754 271.339 355.73C275.626 358.705 271.343 363.025 255.92 353.777L251.918 347.694Z" fill="#669B79"/>
<path d="M252.925 351.056C251.104 347.472 249.93 343.436 250.502 339.392C250.638 338.007 251.495 337.092 253.068 336.642C253.539 337.663 253.777 338.739 253.778 339.87C253.953 342.183 253.928 344.509 253.001 346.681C253.321 346.681 253.642 346.681 253.962 346.681C252.882 344.527 253.568 342.28 254.445 340.227C254.9 339.162 258.032 334.28 259.299 337.362C260.171 339.485 259.438 342.124 258.563 344.108C258.198 344.935 256.487 347.146 257.699 344.395C258.235 343.178 258.993 342.407 260.114 341.695C262.202 340.367 265.23 340.607 263.757 343.97C262.871 345.993 260.752 347.837 258.609 348.274C258.79 348.584 258.969 348.894 259.15 349.204C259.961 348.271 260.893 347.555 261.948 346.905C262.635 346.5 263.364 346.199 264.132 346.002C266.878 345.26 267.649 346.733 266.449 350.42C265.36 351.107 263.899 351.31 262.65 351.424C260.894 351.586 260.734 350.506 262.795 350.307C264.111 350.179 265.302 350.334 266.51 350.926C268.2 351.636 268.271 352.882 266.725 354.662C265.937 354.867 265.137 355.007 264.325 355.081C261.129 355.465 257.517 354.972 254.972 352.884C254.421 352.433 253.629 353.215 254.185 353.671C256.818 355.83 260.063 356.327 263.389 356.259C264.956 356.226 269.645 355.964 269.576 353.509C269.516 351.421 267.37 349.557 265.346 349.292C263.867 349.097 259.846 348.723 259.274 350.802C258.357 354.135 267.833 352.142 268.84 349.648C269.794 347.279 268.014 345.102 265.662 344.758C263.003 344.368 259.998 346.534 258.364 348.418C257.993 348.845 258.349 349.461 258.906 349.348C262.031 348.713 264.505 345.865 265.325 342.866C265.828 341.023 264.69 339.318 262.722 339.601C260.44 339.931 258.221 341.177 257.064 343.201C256.438 344.297 254.934 347.441 257.195 347.627C258.805 347.759 260.033 343.63 260.384 342.458C261.001 340.397 261.09 337.231 259.461 335.608C258.051 334.204 255.678 336.322 254.896 337.38C252.866 340.125 251.37 343.986 253.005 347.245C253.179 347.593 253.804 347.627 253.967 347.245C254.857 345.16 256.512 333.877 251.784 335.036C249.65 335.559 249.304 339.632 249.221 341.262C249.037 344.816 250.386 348.504 251.969 351.62C252.288 352.258 253.249 351.694 252.925 351.056Z" fill="#80A17A"/>
<path d="M211.093 388.392C208.705 385.802 238.879 344.829 243.919 342.857C248.957 340.885 262.567 355.214 260.155 359.997C257.744 364.78 214.369 391.946 211.093 388.392Z" fill="#D37F3C"/>
<path d="M219.605 378.562C218.03 376.855 240.062 347.9 243.385 346.598C246.707 345.298 252.716 351.2 251.127 354.354C249.536 357.509 221.767 380.907 219.605 378.562Z" fill="#DD8C43"/>
<path d="M236.066 350.75C236.066 350.75 240.387 351.017 245.241 356.696" stroke="#BC662B" stroke-width="1.484" stroke-miterlimit="10" stroke-linecap="round" stroke-linejoin="round"/>
<path d="M229.983 358.359C229.983 358.359 233.224 359.775 237.292 364.404" stroke="#BC662B" stroke-width="1.484" stroke-miterlimit="10" stroke-linecap="round" stroke-linejoin="round"/>
<path d="M222.878 367.953C222.878 367.953 224.985 368.088 228.719 372.007" stroke="#BC662B" stroke-width="1.484" stroke-miterlimit="10" stroke-linecap="round" stroke-linejoin="round"/>
<path d="M153.385 346.398C153.385 346.398 141.896 350.546 137.705 347.014C133.513 343.482 143.666 340.674 151.925 343.66C151.925 343.66 139.824 339.469 139.079 334.078C138.336 328.687 147.396 332.646 154.679 340.449C154.679 340.449 150.092 331.845 151.471 326.225C152.849 320.605 158.584 324.334 159.096 339.075C159.096 339.075 162.543 333.331 166.614 330.068C170.684 326.803 173.609 332.138 160.355 344.295L153.385 346.398Z" fill="#669B79"/>
<path d="M156.88 346.404C153.483 347.029 150.099 347.003 146.754 346.1C145.477 345.732 144.332 345.113 143.323 344.243C143.613 342.1 144.647 341.486 146.423 342.403C148.698 342.894 150.911 343.584 152.735 345.095C152.816 344.785 152.898 344.475 152.981 344.164C150.61 344.587 148.648 343.271 146.934 341.851C145.996 341.073 142.178 336.743 145.589 336.396C147.873 336.163 150.202 337.633 151.849 339.033C152.551 339.629 154.131 341.849 151.853 339.917C150.838 339.056 150.325 338.11 149.96 336.832C149.245 334.33 150.323 331.59 153.193 334.014C154.9 335.455 156.037 337.97 155.842 340.171C156.188 340.077 156.534 339.984 156.88 339.891C155.486 337.721 153.995 333.416 156.58 331.481C160.064 328.872 160.302 334.315 160.26 335.568C160.242 336.1 158.904 340.763 158.781 338.11C158.726 336.945 159.279 335.487 159.751 334.431C160.869 331.923 164.456 331.325 164.227 335.023C164 338.693 162.323 342.864 159.216 344.969C158.625 345.369 159.181 346.334 159.778 345.93C162.85 343.848 164.286 340.447 165.067 336.924C165.514 334.907 165.975 331.959 163.66 331.028C160.001 329.557 155.295 338.39 158.472 340.251C161.379 341.953 162.363 332.24 159.914 330.596C157.954 329.28 155.58 330.246 154.541 332.23C153.268 334.664 154.566 338.344 155.921 340.453C156.234 340.94 156.909 340.717 156.958 340.172C157.239 336.992 155.2 333.818 152.555 332.177C150.543 330.929 148.934 332.145 148.633 334.201C148.324 336.308 149.099 338.693 150.553 340.214C151.441 341.141 154.005 343.433 154.823 341.324C155.408 339.816 151.775 337.463 150.758 336.798C148.951 335.615 145.949 334.65 143.926 335.752C141.902 336.854 143.96 340.116 144.773 341.193C146.691 343.737 150.035 345.816 153.28 345.237C153.676 345.166 153.835 344.564 153.524 344.307C152.027 343.066 141.197 338.147 141.197 342.761C141.197 345.144 144.65 346.531 146.462 347.172C149.814 348.358 153.747 348.107 157.179 347.477C157.88 347.348 157.58 346.275 156.88 346.404Z" fill="#80A17A"/>
<path d="M180.796 397.11C177.635 398.662 146.933 358.082 146.476 352.691C146.019 347.299 163.626 338.327 167.526 341.998C171.425 345.67 185.134 394.979 180.796 397.11Z" fill="#D37F3C"/>
<path d="M173.796 386.161C171.711 387.185 150.215 357.83 149.914 354.275C149.613 350.719 156.98 346.637 159.551 349.059C162.122 351.479 176.657 384.756 173.796 386.161Z" fill="#DD8C43"/>
<path d="M151.812 362.465C151.812 362.465 153.297 358.399 160.123 355.359" stroke="#BC662B" stroke-width="1.484" stroke-miterlimit="10" stroke-linecap="round" stroke-linejoin="round"/>
<path d="M157.377 370.459C157.377 370.459 159.657 367.754 165.252 365.172" stroke="#BC662B" stroke-width="1.484" stroke-miterlimit="10" stroke-linecap="round" stroke-linejoin="round"/>
<path d="M202.417 339.059C202.417 339.059 214.041 335.31 215.197 329.953C216.352 324.594 206.604 328.586 201.898 335.999C201.898 335.999 208.907 325.281 206.197 320.561C203.487 315.84 198.743 324.517 197.756 335.144C197.756 335.144 196.119 325.532 191.59 321.929C187.061 318.326 184.807 324.784 193.42 336.758C193.42 336.758 187.181 334.325 181.963 334.234C176.746 334.142 177.697 340.151 195.618 341.659L202.417 339.059Z" fill="#669B79"/>
<path d="M200.142 342.187C202.966 340.73 205.818 338.774 207.761 336.213C209.022 334.549 211.275 331.155 209.975 328.935C207.465 324.651 201.446 335.671 201.04 337.403C200.925 337.891 201.42 338.256 201.857 338.031C204.679 336.587 205.625 333.365 206.002 330.424C206.183 329.02 205.938 324.67 203.612 324.841C201.145 325.022 199.585 327.678 198.68 329.704C198.19 330.799 196.831 335.109 198.223 335.949C199.979 337.007 200.578 334.08 200.787 332.96C201.267 330.394 200.148 327.847 198.281 326.081C196.828 324.707 194.981 325.697 194.348 327.35C193.241 330.247 193.652 334.059 195.823 336.361C196.14 336.695 196.818 336.459 196.773 335.968C196.525 333.237 195.386 330.483 193.182 328.773C191.803 327.703 189.077 327.858 188.093 329.465C186.166 332.613 192.572 340.071 194.264 337.809C195.565 336.069 193.321 334.39 192.048 333.417C190.109 331.934 187.575 331.531 185.389 332.712C183.261 333.862 185.151 336.406 186.137 337.522C188.803 340.53 192.927 342.808 196.996 342.595C197.71 342.558 197.714 341.445 196.996 341.482C193.351 341.672 190.288 339.783 187.65 337.456C185.804 335.827 186.694 332.857 189.298 333.257C190.511 333.442 191.729 334.534 192.596 335.294C192.686 335.791 192.777 336.288 192.866 336.786C192.275 336.423 191.725 336.009 191.216 335.543C190.143 334.616 189.315 333.485 188.78 332.164C190.183 331.452 191.587 330.738 192.989 330.024C193.553 330.563 194.017 331.173 194.384 331.856C195.125 333.064 195.531 334.568 195.659 335.971C195.975 335.84 196.292 335.708 196.609 335.578C195.297 334.189 194.989 332.44 194.889 330.605C194.868 329.827 194.961 329.06 195.169 328.306C196.105 327.982 197.043 327.659 197.98 327.334C198.444 327.876 198.832 328.468 199.137 329.109C199.775 330.295 199.89 331.385 199.712 332.666C199.642 333.114 199.545 333.556 199.421 333.993C198.882 336.136 199.186 331.875 199.102 332.363C199.296 331.259 202.938 323.152 204.615 327.288C205.87 330.384 204.251 335.56 201.292 337.073C201.565 337.283 201.837 337.492 202.11 337.701C202.653 335.389 203.865 333.634 205.327 331.804C205.763 331.234 206.246 330.707 206.775 330.223C207.565 330.303 208.354 330.384 209.144 330.462C209.03 331.713 208.647 332.875 207.994 333.948C206.283 337.204 202.76 339.586 199.578 341.229C198.943 341.557 199.505 342.517 200.142 342.187Z" fill="#80A17A"/>
<path d="M211.762 395.946C215.213 395.241 214.671 344.357 211.734 339.812C208.797 335.268 189.379 338.942 188.542 344.233C187.704 349.523 207.027 396.915 211.762 395.946Z" fill="#D37F3C"/>
<path d="M210.597 382.996C212.874 382.53 211.916 346.159 209.98 343.163C208.043 340.165 199.718 341.444 199.164 344.932C198.612 348.421 207.473 383.635 210.597 382.996Z" fill="#DD8C43"/>
<path d="M213.493 350.815C213.493 350.815 209.83 348.506 202.572 350.279" stroke="#BC662B" stroke-width="1.484" stroke-miterlimit="10" stroke-linecap="round" stroke-linejoin="round"/>
<path d="M213.983 360.545C213.983 360.545 210.525 359.8 204.519 361.178" stroke="#BC662B" stroke-width="1.484" stroke-miterlimit="10" stroke-linecap="round" stroke-linejoin="round"/>
<path d="M214.144 372.475C214.144 372.475 212.354 371.353 207.036 372.352" stroke="#BC662B" stroke-width="1.484" stroke-miterlimit="10" stroke-linecap="round" stroke-linejoin="round"/>
</g>
<path d="M188.883 383.273V370.48C188.883 361.772 195.942 354.711 204.652 354.711C213.362 354.711 220.421 361.77 220.421 370.48V383.273" stroke="#BDC6BF" stroke-width="7.42" stroke-miterlimit="10"/>
<path d="M312.919 398.641H256.279H199.639C199.639 398.641 197.784 419.788 201.865 435.122C205.946 450.456 210.926 453.718 215.221 455.65C220.167 457.876 232.906 463.193 256.279 463.193C279.652 463.193 292.389 457.876 297.337 455.65C301.631 453.718 306.612 450.456 310.693 435.122C314.774 419.788 312.919 398.641 312.919 398.641Z" fill="#894F2F"/>
<mask id="mask1_2582_70948" style="mask-type:luminance" maskUnits="userSpaceOnUse" x="199" y="398" width="115" height="66">
<path d="M312.919 398.648H256.279H199.639C199.639 398.648 197.784 419.795 201.865 435.13C205.946 450.464 210.926 453.726 215.221 455.658C220.167 457.884 232.906 463.201 256.279 463.201C279.652 463.201 292.389 457.884 297.337 455.658C301.631 453.726 306.612 450.464 310.693 435.13C314.774 419.795 312.919 398.648 312.919 398.648Z" fill="white"/>
</mask>
<g mask="url(#mask1_2582_70948)">
<path d="M160.317 465.156L218.682 395.594" stroke="#9F6826" stroke-width="5.936" stroke-miterlimit="10"/>
<path d="M185.577 465.156L243.943 395.594" stroke="#9F6826" stroke-width="5.936" stroke-miterlimit="10"/>
<path d="M210.838 465.156L269.202 395.594" stroke="#9F6826" stroke-width="5.936" stroke-miterlimit="10"/>
<path d="M236.097 465.156L294.463 395.594" stroke="#9F6826" stroke-width="5.936" stroke-miterlimit="10"/>
<path d="M261.358 465.156L319.723 395.594" stroke="#9F6826" stroke-width="5.936" stroke-miterlimit="10"/>
<path d="M286.618 465.156L344.983 395.594" stroke="#9F6826" stroke-width="5.936" stroke-miterlimit="10"/>
<path d="M344.983 465.156L286.618 395.594" stroke="#644620" stroke-width="5.936" stroke-miterlimit="10"/>
<path d="M319.723 465.156L261.358 395.594" stroke="#644620" stroke-width="5.936" stroke-miterlimit="10"/>
<path d="M294.463 465.156L236.097 395.594" stroke="#644620" stroke-width="5.936" stroke-miterlimit="10"/>
<path d="M269.202 465.156L210.838 395.594" stroke="#644620" stroke-width="5.936" stroke-miterlimit="10"/>
<path d="M243.943 465.156L185.577 395.594" stroke="#644620" stroke-width="5.936" stroke-miterlimit="10"/>
<path d="M218.682 465.156L160.317 395.594" stroke="#644620" stroke-width="5.936" stroke-miterlimit="10"/>
</g>
<path d="M315.389 397.391C312.699 390.323 287.269 384.781 256.279 384.781C225.364 384.781 199.979 390.296 197.184 397.34C195.168 400.788 193.611 411.47 197.523 416.989C197.594 417.106 197.676 417.223 197.759 417.34C202.482 423.888 226.876 428.875 256.277 428.875C286.312 428.875 311.121 423.669 315.073 416.914C318.905 411.397 317.385 400.871 315.389 397.391Z" fill="#9F6826"/>
<path d="M256.279 412.482C289.062 412.482 315.639 406.281 315.639 398.631C315.639 390.982 289.062 384.781 256.279 384.781C223.495 384.781 196.919 390.982 196.919 398.631C196.919 406.281 223.495 412.482 256.279 412.482Z" fill="#B77F35"/>
<path d="M256.279 409.951C285.989 409.951 310.074 404.885 310.074 398.636C310.074 392.386 285.989 387.32 256.279 387.32C226.569 387.32 202.484 392.386 202.484 398.636C202.484 404.885 226.569 409.951 256.279 409.951Z" fill="#894F2F"/>
<mask id="mask2_2582_70948" style="mask-type:luminance" maskUnits="userSpaceOnUse" x="202" y="370" width="109" height="40">
<path d="M309.328 396.773V370.469H202.484V398.647C202.484 404.896 226.569 409.962 256.279 409.962C285.989 409.962 310.074 404.896 310.074 398.647C310.074 398.007 309.81 397.383 309.328 396.773Z" fill="white"/>
</mask>
<g mask="url(#mask2_2582_70948)">
<path d="M255.028 377.452C258.251 380.835 258.131 386.182 254.76 389.395C251.388 392.608 246.041 392.468 242.818 389.085C239.595 385.701 239.715 380.355 243.086 377.142C246.458 373.929 251.805 374.068 255.028 377.452Z" fill="#7A355B"/>
<path d="M248.334 376.639C248.549 377.12 248.034 377.82 247.181 378.203C246.328 378.586 245.462 378.506 245.246 378.025C245.029 377.544 245.546 376.844 246.399 376.461C247.252 376.078 248.117 376.158 248.334 376.639Z" fill="#2D2524"/>
<path d="M242.152 381.945C240.527 384.601 243.297 388.924 245.807 389.291C248.316 389.657 245.896 385.332 246.473 383.242C247.05 381.154 244.326 378.389 242.152 381.945Z" fill="#91476F"/>
<path d="M263.069 373.329C267.742 373.393 271.478 377.218 271.415 381.875C271.351 386.532 267.512 390.255 262.839 390.193C258.166 390.129 254.429 386.304 254.493 381.647C254.556 376.99 258.396 373.267 263.069 373.329Z" fill="#893760"/>
<path d="M257.802 377.542C258.296 377.724 258.436 378.582 258.114 379.459C257.79 380.336 257.128 380.9 256.633 380.717C256.139 380.535 255.999 379.677 256.321 378.8C256.645 377.923 257.308 377.361 257.802 377.542Z" fill="#2D2524"/>
<path d="M257.274 385.676C258.035 388.696 263.063 389.74 265.08 388.201C267.096 386.664 262.312 385.368 261.223 383.494C260.135 381.621 256.254 381.635 257.274 385.676Z" fill="#91476F"/>
<path d="M243.131 381.888C243.878 386.502 240.755 390.844 236.158 391.588C231.56 392.331 227.229 389.194 226.482 384.582C225.736 379.968 228.858 375.626 233.455 374.882C238.053 374.139 242.385 377.276 243.131 381.888Z" fill="#893760"/>
<path d="M238.071 377.429C237.977 377.948 237.155 378.233 236.235 378.067C235.315 377.901 234.646 377.346 234.739 376.826C234.833 376.307 235.655 376.022 236.575 376.188C237.495 376.354 238.164 376.909 238.071 377.429Z" fill="#2D2524"/>
<path d="M229.97 378.328C227.128 379.601 226.969 384.733 228.833 386.454C230.697 388.174 231.145 383.237 232.801 381.842C234.457 380.444 233.773 376.624 229.97 378.328Z" fill="#91476F"/>
<path d="M285.081 380.914C285.554 385.563 282.181 389.714 277.547 390.186C272.914 390.658 268.773 387.27 268.301 382.62C267.828 377.971 271.201 373.82 275.834 373.348C280.469 372.878 284.609 376.266 285.081 380.914Z" fill="#7A355B"/>
<path d="M280.292 376.167C280.167 376.679 279.33 376.917 278.422 376.696C277.514 376.476 276.879 375.881 277.002 375.369C277.127 374.857 277.964 374.619 278.872 374.841C279.781 375.062 280.417 375.655 280.292 376.167Z" fill="#2D2524"/>
<path d="M272.152 376.573C269.241 377.676 268.778 382.79 270.538 384.618C272.298 386.446 273.035 381.543 274.771 380.248C276.506 378.952 276.049 375.098 272.152 376.573Z" fill="#91476F"/>
<path d="M245.531 393.331C245.404 398.003 241.527 401.688 236.871 401.561C232.216 401.435 228.545 397.546 228.671 392.874C228.797 388.202 232.675 384.518 237.33 384.644C241.985 384.77 245.657 388.659 245.531 393.331Z" fill="#7A355B"/>
<path d="M241.389 388.004C241.2 388.497 240.34 388.625 239.467 388.289C238.595 387.954 238.04 387.283 238.23 386.792C238.419 386.301 239.279 386.172 240.151 386.507C241.024 386.841 241.577 387.512 241.389 388.004Z" fill="#2D2524"/>
<path d="M233.264 387.364C230.235 388.085 229.122 393.098 230.633 395.135C232.143 397.173 233.503 392.406 235.39 391.344C237.278 390.28 237.318 386.399 233.264 387.364Z" fill="#91476F"/>
<path d="M288.567 381.821C293.21 381.291 297.403 384.613 297.931 389.24C298.459 393.867 295.125 398.047 290.481 398.578C285.838 399.108 281.645 395.787 281.117 391.16C280.589 386.533 283.923 382.351 288.567 381.821Z" fill="#7A355B"/>
<path d="M283.879 386.662C284.392 386.779 284.64 387.615 284.431 388.525C284.222 389.436 283.635 390.078 283.122 389.961C282.609 389.844 282.361 389.008 282.57 388.099C282.779 387.188 283.364 386.545 283.879 386.662Z" fill="#2D2524"/>
<path d="M284.387 394.806C285.525 397.704 290.645 398.102 292.451 396.321C294.257 394.539 289.346 393.862 288.028 392.142C286.71 390.422 282.862 390.927 284.387 394.806Z" fill="#91476F"/>
<path d="M272.694 395.492C270.901 399.808 265.961 401.858 261.66 400.072C257.36 398.285 255.326 393.339 257.119 389.022C258.912 384.706 263.852 382.655 268.153 384.442C272.452 386.229 274.486 391.177 272.694 395.492Z" fill="#7A355B"/>
<path d="M270.735 389.031C270.382 389.423 269.533 389.234 268.838 388.608C268.144 387.983 267.866 387.158 268.219 386.766C268.573 386.375 269.421 386.565 270.116 387.189C270.811 387.816 271.088 388.639 270.735 389.031Z" fill="#2D2524"/>
<path d="M263.379 385.528C260.292 385.115 257.456 389.395 258.136 391.839C258.815 394.283 261.794 390.32 263.937 390.005C266.081 389.689 267.509 386.08 263.379 385.528Z" fill="#91476F"/>
<path d="M229.93 386.126C233.427 389.226 233.758 394.564 230.67 398.05C227.582 401.536 222.243 401.849 218.745 398.75C215.247 395.652 214.915 390.312 218.004 386.826C221.092 383.34 226.432 383.027 229.93 386.126Z" fill="#893760"/>
<path d="M223.191 385.874C223.446 386.335 222.99 387.076 222.174 387.53C221.356 387.984 220.487 387.976 220.232 387.516C219.976 387.055 220.43 386.314 221.248 385.86C222.064 385.406 222.934 385.412 223.191 385.874Z" fill="#2D2524"/>
<path d="M217.479 391.695C216.084 394.479 219.209 398.554 221.741 398.705C224.273 398.858 221.495 394.752 221.894 392.622C222.293 390.493 219.346 387.968 217.479 391.695Z" fill="#91476F"/>
<path d="M251.818 384.29C256.492 384.354 260.228 388.179 260.164 392.836C260.101 397.493 256.262 401.216 251.588 401.154C246.915 401.09 243.179 397.264 243.242 392.608C243.306 387.951 247.145 384.226 251.818 384.29Z" fill="#893760"/>
<path d="M246.552 388.503C247.046 388.686 247.185 389.543 246.863 390.42C246.54 391.297 245.878 391.861 245.382 391.679C244.888 391.496 244.749 390.639 245.071 389.761C245.394 388.884 246.058 388.321 246.552 388.503Z" fill="#2D2524"/>
<path d="M246.023 396.636C246.785 399.656 251.812 400.701 253.829 399.162C255.846 397.624 251.061 396.329 249.972 394.454C248.884 392.583 245.004 392.595 246.023 396.636Z" fill="#91476F"/>
<path d="M285.79 387.425C288.166 391.45 286.841 396.631 282.831 398.999C278.821 401.366 273.644 400.025 271.268 396C268.892 391.975 270.217 386.795 274.227 384.426C278.237 382.059 283.414 383.402 285.79 387.425Z" fill="#893760"/>
<path d="M279.452 385.119C279.554 385.637 278.892 386.202 277.975 386.382C277.058 386.561 276.232 386.288 276.131 385.772C276.03 385.254 276.69 384.689 277.607 384.509C278.524 384.328 279.351 384.601 279.452 385.119Z" fill="#2D2524"/>
<path d="M272.231 388.9C270.048 391.122 271.769 395.958 274.132 396.881C276.494 397.804 275.113 393.043 276.147 391.139C277.181 389.235 275.153 385.928 272.231 388.9Z" fill="#91476F"/>
<path d="M217.94 391.967C221.642 394.819 222.339 400.121 219.497 403.812C216.655 407.501 211.35 408.18 207.647 405.327C203.945 402.475 203.249 397.173 206.091 393.482C208.933 389.794 214.238 389.115 217.94 391.967Z" fill="#893760"/>
<path d="M211.2 392.183C211.487 392.625 211.083 393.395 210.299 393.904C209.514 394.413 208.646 394.466 208.36 394.023C208.073 393.58 208.477 392.809 209.261 392.301C210.044 391.794 210.912 391.74 211.2 392.183Z" fill="#2D2524"/>
<path d="M205.901 398.375C204.7 401.248 208.097 405.099 210.633 405.077C213.169 405.054 210.117 401.15 210.369 398.998C210.621 396.846 207.506 394.53 205.901 398.375Z" fill="#91476F"/>
<path d="M232.841 401.281C233.886 405.836 231.052 410.372 226.512 411.414C221.972 412.454 217.446 409.605 216.401 405.051C215.357 400.496 218.191 395.96 222.731 394.918C227.27 393.876 231.798 396.725 232.841 401.281Z" fill="#7A355B"/>
<path d="M227.502 397.161C227.442 397.685 226.641 398.023 225.712 397.916C224.783 397.809 224.08 397.299 224.139 396.775C224.198 396.251 225 395.913 225.929 396.02C226.858 396.127 227.563 396.637 227.502 397.161Z" fill="#2D2524"/>
<path d="M219.475 398.57C216.722 400.024 216.895 405.156 218.868 406.753C220.84 408.348 220.966 403.393 222.527 401.892C224.09 400.391 223.159 396.623 219.475 398.57Z" fill="#91476F"/>
<path d="M270.902 400.68C273.181 404.759 271.733 409.909 267.666 412.179C263.6 414.45 258.457 412.984 256.177 408.904C253.898 404.825 255.346 399.675 259.412 397.405C263.48 395.134 268.624 396.6 270.902 400.68Z" fill="#893760"/>
<path d="M264.623 398.221C264.712 398.74 264.038 399.291 263.117 399.448C262.195 399.607 261.376 399.313 261.287 398.794C261.198 398.274 261.872 397.725 262.793 397.567C263.713 397.408 264.532 397.702 264.623 398.221Z" fill="#2D2524"/>
<path d="M257.313 401.823C255.078 403.991 256.683 408.867 259.024 409.847C261.364 410.826 260.095 406.034 261.176 404.156C262.253 402.277 260.304 398.922 257.313 401.823Z" fill="#91476F"/>
<path d="M290.695 395.151C295.135 396.607 297.56 401.375 296.109 405.8C294.657 410.226 289.882 412.633 285.442 411.178C281.002 409.723 278.577 404.954 280.028 400.529C281.479 396.104 286.255 393.695 290.695 395.151Z" fill="#893760"/>
<path d="M284.412 397.598C284.829 397.92 284.706 398.781 284.136 399.521C283.566 400.262 282.765 400.602 282.348 400.28C281.929 399.958 282.054 399.097 282.624 398.356C283.194 397.616 283.995 397.276 284.412 397.598Z" fill="#2D2524"/>
<path d="M281.479 405.211C281.304 408.32 285.79 410.819 288.175 409.952C290.56 409.087 286.38 406.422 285.9 404.308C285.419 402.197 281.712 401.049 281.479 405.211Z" fill="#91476F"/>
<path d="M275.735 396.071C280.378 395.541 284.571 398.863 285.099 403.49C285.627 408.117 282.293 412.299 277.649 412.828C273.006 413.358 268.814 410.037 268.285 405.41C267.757 400.783 271.091 396.602 275.735 396.071Z" fill="#7A355B"/>
<path d="M271.047 400.92C271.56 401.037 271.808 401.871 271.599 402.782C271.39 403.694 270.804 404.336 270.29 404.219C269.777 404.102 269.529 403.266 269.738 402.357C269.947 401.447 270.533 400.803 271.047 400.92Z" fill="#2D2524"/>
<path d="M271.555 409.056C272.693 411.954 277.813 412.352 279.619 410.571C281.425 408.789 276.514 408.112 275.196 406.392C273.879 404.672 270.031 405.178 271.555 409.056Z" fill="#91476F"/>
<path d="M307.831 400.047C308.303 404.696 304.931 408.847 300.298 409.319C295.665 409.791 291.524 406.403 291.052 401.753C290.579 397.104 293.952 392.953 298.587 392.481C303.218 392.009 307.359 395.397 307.831 400.047Z" fill="#7A355B"/>
<path d="M303.042 395.3C302.917 395.812 302.08 396.049 301.172 395.828C300.264 395.609 299.629 395.014 299.752 394.502C299.877 393.99 300.713 393.752 301.622 393.973C302.531 394.194 303.167 394.788 303.042 395.3Z" fill="#2D2524"/>
<path d="M294.902 395.698C291.99 396.801 291.529 401.915 293.287 403.743C295.046 405.57 295.785 400.668 297.521 399.373C299.257 398.077 298.799 394.223 294.902 395.698Z" fill="#91476F"/>
<path d="M255.8 399.285C258.914 402.771 258.621 408.11 255.147 411.213C251.673 414.316 246.334 414.005 243.222 410.52C240.108 407.034 240.401 401.695 243.875 398.592C247.347 395.489 252.687 395.799 255.8 399.285Z" fill="#7A355B"/>
<path d="M249.135 398.254C249.336 398.742 248.797 399.425 247.932 399.779C247.067 400.134 246.204 400.027 246.004 399.539C245.804 399.051 246.342 398.368 247.206 398.013C248.071 397.659 248.935 397.767 249.135 398.254Z" fill="#2D2524"/>
<path d="M242.786 403.363C241.076 405.966 243.706 410.377 246.203 410.822C248.701 411.269 246.419 406.867 247.063 404.798C247.707 402.73 245.074 399.879 242.786 403.363Z" fill="#91476F"/>
<path d="M244.785 407.719C242.97 412.025 238.019 414.05 233.727 412.241C229.435 410.432 227.428 405.475 229.243 401.168C231.058 396.862 236.008 394.838 240.3 396.647C244.592 398.456 246.599 403.412 244.785 407.719Z" fill="#893760"/>
<path d="M242.86 401.261C242.505 401.651 241.656 401.456 240.966 400.827C240.275 400.198 240.002 399.373 240.356 398.983C240.711 398.592 241.558 398.787 242.25 399.416C242.941 400.045 243.214 400.87 242.86 401.261Z" fill="#2D2524"/>
<path d="M235.521 397.71C232.438 397.281 229.579 401.547 230.246 403.994C230.914 406.442 233.911 402.494 236.057 402.19C238.203 401.884 239.65 398.284 235.521 397.71Z" fill="#91476F"/>
</g>
<path d="M477.358 474.047H308.182V543.795H477.358V474.047Z" fill="#E8D3B8"/>
<g opacity="0.3">
<path d="M335.636 474.047H329.206V543.795H335.636V474.047Z" fill="#4C6F89"/>
<path d="M365.81 474.047H359.38V543.795H365.81V474.047Z" fill="#4C6F89"/>
<path d="M395.986 474.047H389.555V543.795H395.986V474.047Z" fill="#4C6F89"/>
<path d="M426.16 474.047H419.73V543.795H426.16V474.047Z" fill="#4C6F89"/>
<path d="M456.334 474.047H449.904V543.795H456.334V474.047Z" fill="#4C6F89"/>
</g>
<path opacity="0.3" d="M477.359 492.344H308.183V498.774H477.359V492.344Z" fill="#4C6F89"/>
<path opacity="0.3" d="M477.359 521.289H308.183V527.719H477.359V521.289Z" fill="#4C6F89"/>
<path d="M477.358 474.048H308.182L329.454 394.406H455.098L477.358 474.048Z" fill="#F7E8D2"/>
<g opacity="0.3">
<path d="M335.636 474.048H329.206L344.85 394.406H349.636L335.636 474.048Z" fill="#4C6F89"/>
<path d="M365.812 474.048H359.38L367.305 394.406H372.09L365.812 474.048Z" fill="#4C6F89"/>
<path d="M395.986 474.048H389.555L389.759 394.406H394.545L395.986 474.048Z" fill="#4C6F89"/>
<path d="M426.16 474.048H419.73L412.215 394.406H416.999L426.16 474.048Z" fill="#4C6F89"/>
<path d="M456.336 474.048H449.904L434.669 394.406H439.454L456.336 474.048Z" fill="#4C6F89"/>
</g>
<g opacity="0.3">
<path d="M309.685 468.415H475.787L473.989 461.984H311.402L309.685 468.415Z" fill="#4C6F89"/>
<path d="M317.018 440.954H468.113L466.316 434.523H318.735L317.018 440.954Z" fill="#4C6F89"/>
<path d="M323.641 416.166H461.182L459.385 409.734H325.358L323.641 416.166Z" fill="#4C6F89"/>
</g>
<path d="M387.12 377.688C387.12 377.688 388.733 370.492 393.697 363.294C393.697 363.294 392.952 361.309 391.091 362.301C391.091 362.301 387.12 368.381 386.377 377.688H387.12Z" fill="#2D2524"/>
<path d="M378.807 361.305C378.807 361.305 389.106 364.531 386.375 377.684C386.375 377.684 375.581 373.588 378.807 361.305Z" fill="#649B83"/>
<path d="M372.63 374.308C379.295 371.613 384.543 375.868 386.953 375.868C389.363 375.868 394.61 371.613 401.275 374.308C407.939 377.003 408.649 385.937 404.111 395.295C399.573 404.655 395.319 406.924 392.765 406.924C390.213 406.924 388.937 403.945 386.951 403.945C384.966 403.945 383.689 406.924 381.137 406.924C378.584 406.924 374.33 404.655 369.792 395.295C365.256 385.937 365.966 377.003 372.63 374.308Z" fill="#D2542F"/>
<path d="M400.141 377.393C404.271 379.457 405.672 385.29 402.905 390.168C400.141 395.046 397.588 387.07 394.61 385.369C391.632 383.667 389.079 381.753 389.931 379.519C390.781 377.287 395.248 374.947 400.141 377.393Z" fill="#E86841"/>
<path d="M368.779 389.773C368.779 389.773 367.166 382.576 362.204 375.38C362.204 375.38 362.949 373.395 364.81 374.387C364.81 374.387 368.781 380.467 369.524 389.773H368.779Z" fill="#2D2524"/>
<path d="M377.093 373.391C377.093 373.391 366.794 376.617 369.524 389.77C369.524 389.77 380.319 385.674 377.093 373.391Z" fill="#649B83"/>
<path d="M383.269 386.394C376.604 383.699 371.357 387.954 368.947 387.954C366.537 387.954 361.29 383.699 354.625 386.394C347.96 389.089 347.251 398.023 351.789 407.381C356.327 416.741 360.58 419.01 363.134 419.01C365.688 419.01 366.963 416.031 368.948 416.031C370.934 416.031 372.21 419.01 374.763 419.01C377.315 419.01 381.57 416.741 386.108 407.381C390.643 398.023 389.934 389.089 383.269 386.394Z" fill="#C14023"/>
<path d="M355.759 389.479C351.629 391.544 350.228 397.376 352.994 402.254C355.759 407.132 358.311 399.156 361.29 397.455C364.268 395.753 366.82 393.839 365.969 391.605C365.118 389.373 360.651 387.033 355.759 389.479Z" fill="#E86841"/>
<path d="M412.217 389.359C412.217 389.359 413.831 382.163 418.793 374.966C418.793 374.966 418.048 372.98 416.187 373.973C416.187 373.973 412.216 380.053 411.472 389.359H412.217Z" fill="#2D2524"/>
<path d="M403.903 372.977C403.903 372.977 414.201 376.203 411.471 389.355C411.471 389.355 400.678 385.261 403.903 372.977Z" fill="#649B83"/>
<path d="M397.728 385.98C404.392 383.287 409.64 387.54 412.05 387.54C414.46 387.54 419.707 383.285 426.372 385.98C433.036 388.675 433.746 397.609 429.208 406.969C424.67 416.328 420.415 418.597 417.862 418.597C415.31 418.597 414.034 415.619 412.048 415.619C410.063 415.619 408.786 418.597 406.234 418.597C403.681 418.597 399.427 416.328 394.889 406.969C390.354 397.609 391.063 388.675 397.728 385.98Z" fill="#C14023"/>
<path d="M425.238 389.065C429.368 391.131 430.769 396.963 428.003 401.841C425.238 406.721 422.686 398.743 419.707 397.042C416.729 395.34 414.176 393.425 415.028 391.192C415.88 388.959 420.345 386.618 425.238 389.065Z" fill="#E86841"/>
<path d="M340.103 400.492C340.103 400.492 338.49 393.296 333.526 386.099C333.526 386.099 334.271 384.113 336.132 385.106C336.132 385.106 340.103 391.186 340.846 400.492H340.103Z" fill="#2D2524"/>
<path d="M348.416 384.109C348.416 384.109 338.117 387.336 340.848 400.488C340.848 400.488 351.642 396.394 348.416 384.109Z" fill="#649B83"/>
<path d="M354.593 397.113C347.928 394.418 342.68 398.673 340.27 398.673C337.86 398.673 332.613 394.418 325.948 397.113C319.284 399.808 318.574 408.742 323.112 418.1C327.651 427.459 331.905 429.728 334.458 429.728C337.01 429.728 338.286 426.75 340.272 426.75C342.258 426.75 343.534 429.728 346.086 429.728C348.639 429.728 352.893 427.459 357.431 418.1C361.967 408.74 361.257 399.807 354.593 397.113Z" fill="#D2542F"/>
<path d="M327.082 400.198C322.952 402.263 321.551 408.095 324.317 412.973C327.082 417.851 329.635 409.875 332.613 408.174C335.591 406.472 338.144 404.558 337.292 402.324C336.442 400.091 331.975 397.752 327.082 400.198Z" fill="#E86841"/>
<path d="M438.673 400.492C438.673 400.492 437.06 393.296 432.098 386.099C432.098 386.099 432.843 384.113 434.704 385.106C434.704 385.106 438.675 391.186 439.418 400.492H438.673Z" fill="#2D2524"/>
<path d="M446.987 384.109C446.987 384.109 436.688 387.336 439.418 400.488C439.418 400.488 450.213 396.394 446.987 384.109Z" fill="#649B83"/>
<path d="M453.163 397.113C446.499 394.418 441.251 398.673 438.841 398.673C436.431 398.673 431.184 394.418 424.519 397.113C417.854 399.808 417.145 408.742 421.683 418.1C426.221 427.459 430.476 429.728 433.028 429.728C435.581 429.728 436.857 426.75 438.843 426.75C440.828 426.75 442.104 429.728 444.657 429.728C447.209 429.728 451.464 427.459 456.002 418.1C460.537 408.74 459.828 399.807 453.163 397.113Z" fill="#D2542F"/>
<path d="M425.653 400.198C421.523 402.263 420.122 408.095 422.888 412.973C425.653 417.851 428.205 409.875 431.184 408.174C434.162 406.472 436.715 404.558 435.863 402.324C435.012 400.091 430.546 397.752 425.653 400.198Z" fill="#E86841"/>
<path d="M398.641 404.611C398.641 404.611 402.057 398.074 402.915 389.374C402.915 389.374 404.765 388.34 405.546 390.299C405.546 390.299 404.651 397.505 399.211 405.092L398.641 404.611Z" fill="#2D2524"/>
<path d="M415.566 397.479C415.566 397.479 405.618 393.291 399.211 405.098C399.211 405.098 410.096 408.943 415.566 397.479Z" fill="#649B83"/>
<path d="M411.885 411.395C408.536 405.034 401.782 404.893 399.942 403.337C398.102 401.78 396.842 395.143 390.014 392.897C383.185 390.65 376.875 397.013 374.296 407.09C371.716 417.166 373.5 421.646 375.449 423.293C377.397 424.942 380.295 423.492 381.811 424.774C383.326 426.057 382.378 429.155 384.326 430.802C386.275 432.451 390.989 433.465 400.497 429.25C410.007 425.034 415.235 417.755 411.885 411.395Z" fill="#D2542F"/>
<path d="M388.888 395.986C384.402 394.895 379.565 398.445 378.526 403.955C377.488 409.465 384.587 405.024 387.96 405.647C391.333 406.27 394.518 406.457 395.311 404.203C396.103 401.947 394.203 397.277 388.888 395.986Z" fill="#E86841"/>
<path d="M360.484 416.547C360.484 416.547 362.097 409.351 367.059 402.154C367.059 402.154 366.314 400.168 364.454 401.161C364.454 401.161 360.482 407.241 359.739 416.547H360.484Z" fill="#2D2524"/>
<path d="M352.171 400.164C352.171 400.164 362.47 403.39 359.739 416.543C359.739 416.543 348.945 412.449 352.171 400.164Z" fill="#649B83"/>
<path d="M345.994 413.168C352.659 410.473 357.906 414.727 360.316 414.727C362.726 414.727 367.974 410.473 374.638 413.168C381.303 415.863 382.012 424.796 377.474 434.155C372.936 443.514 368.682 445.783 366.129 445.783C363.577 445.783 362.3 442.805 360.315 442.805C358.329 442.805 357.053 445.783 354.5 445.783C351.948 445.783 347.693 443.514 343.155 434.155C338.62 424.795 339.329 415.861 345.994 413.168Z" fill="#C14023"/>
<path d="M373.504 416.252C377.634 418.318 379.035 424.15 376.269 429.028C373.504 433.906 370.952 425.929 367.974 424.229C364.995 422.527 362.443 420.612 363.295 418.379C364.146 416.145 368.613 413.807 373.504 416.252Z" fill="#E86841"/>
<path d="M416.386 404.03C422.415 408.676 423.551 417.313 418.921 423.323C414.29 429.332 405.649 430.437 399.618 425.793C393.589 421.146 392.453 412.509 397.084 406.499C401.714 400.489 410.355 399.383 416.386 404.03Z" fill="#EFB05A"/>
<path d="M405.406 404.379C405.873 405.1 405.216 406.356 403.938 407.184C402.66 408.012 401.246 408.098 400.779 407.378C400.311 406.657 400.969 405.402 402.246 404.574C403.524 403.746 404.938 403.658 405.406 404.379Z" fill="#2D2524"/>
<path d="M396.773 414.469C394.817 419.15 400.351 425.421 404.483 425.386C408.614 425.35 403.641 418.988 404.051 415.483C404.463 411.979 399.391 408.205 396.773 414.469Z" fill="#EFD259"/>
<path d="M435.836 403.549C435.836 403.549 418.959 402.505 417.619 421.451C417.619 421.451 437.239 422.074 435.836 403.549Z" fill="#80A17A"/>
<path d="M404.652 421.15C411.718 423.978 415.161 431.982 412.343 439.025C409.524 446.068 401.51 449.484 394.442 446.654C387.375 443.825 383.932 435.822 386.75 428.779C389.57 421.738 397.583 418.321 404.652 421.15Z" fill="#EDC75D"/>
<path d="M394.182 424.474C394.827 425.041 394.537 426.427 393.533 427.571C392.529 428.715 391.192 429.184 390.546 428.619C389.901 428.052 390.191 426.666 391.195 425.52C392.199 424.378 393.536 423.909 394.182 424.474Z" fill="#2D2524"/>
<path d="M388.621 436.53C388.015 441.566 395.046 446.095 399.012 444.936C402.979 443.777 396.461 439.01 395.902 435.526C395.343 432.041 389.435 429.79 388.621 436.53Z" fill="#EFD259"/>
<path d="M437.794 426.345C439.189 433.828 434.274 441.021 426.816 442.412C419.359 443.802 412.181 438.864 410.786 431.38C409.391 423.896 414.305 416.703 421.763 415.313C429.221 413.922 436.397 418.861 437.794 426.345Z" fill="#EFB05A"/>
<path d="M429.378 419.278C429.246 420.127 427.919 420.624 426.414 420.389C424.91 420.155 423.798 419.276 423.93 418.427C424.062 417.579 425.389 417.081 426.894 417.316C428.399 417.55 429.51 418.429 429.378 419.278Z" fill="#2D2524"/>
<path d="M416.219 421.05C411.641 423.233 411.582 431.597 414.685 434.326C417.788 437.055 418.323 428.998 420.966 426.659C423.609 424.321 422.347 418.126 416.219 421.05Z" fill="#EFD259"/>
<path d="M388.858 440.296C388.858 440.296 395.187 422.139 374.856 414.852C374.856 414.852 368.144 436.14 388.858 440.296Z" fill="#80A17A"/>
<path d="M454.277 427.244C454.277 427.244 436.579 419.726 427.961 439.53C427.961 439.53 448.758 447.637 454.277 427.244Z" fill="#80A17A"/>
<path d="M455.683 455.478C451.82 462.037 443.389 464.233 436.852 460.384C430.315 456.534 428.147 448.096 432.01 441.537C435.873 434.978 444.303 432.781 450.84 436.631C457.377 440.48 459.545 448.918 455.683 455.478Z" fill="#EFB05A"/>
<path d="M453.974 444.632C453.317 445.184 451.99 444.689 451.009 443.524C450.03 442.359 449.767 440.965 450.425 440.413C451.082 439.861 452.409 440.357 453.39 441.522C454.369 442.687 454.632 444.079 453.974 444.632Z" fill="#2D2524"/>
<path d="M442.895 437.307C438.008 435.946 432.471 442.214 433.018 446.31C433.565 450.406 439.261 444.682 442.79 444.656C446.32 444.629 449.435 439.128 442.895 437.307Z" fill="#EFD259"/>
<path d="M377.646 461.051C385.232 461.051 391.382 454.88 391.382 447.268C391.382 439.655 385.232 433.484 377.646 433.484C370.06 433.484 363.91 439.655 363.91 447.268C363.91 454.88 370.06 461.051 377.646 461.051Z" fill="#EDC75D"/>
<path d="M384.404 438.787C384.117 439.598 382.722 439.842 381.287 439.336C379.852 438.83 378.919 437.762 379.205 436.953C379.492 436.143 380.887 435.898 382.322 436.404C383.758 436.91 384.69 437.977 384.404 438.787Z" fill="#2D2524"/>
<path d="M371.146 438.1C366.244 439.407 364.653 447.618 367.204 450.87C369.754 454.121 371.757 446.299 374.785 444.484C377.812 442.671 377.705 436.35 371.146 438.1Z" fill="#EFD259"/>
<path d="M431.948 438.284C436.396 444.462 435.008 453.063 428.851 457.495C422.694 461.927 414.097 460.511 409.651 454.333C405.204 448.155 406.591 439.554 412.748 435.121C418.906 430.688 427.501 432.104 431.948 438.284Z" fill="#EDC75D"/>
<path d="M421.329 435.47C421.571 436.295 420.581 437.308 419.119 437.736C417.657 438.163 416.279 437.841 416.037 437.018C415.795 436.192 416.785 435.179 418.247 434.751C419.707 434.324 421.087 434.646 421.329 435.47Z" fill="#2D2524"/>
<path d="M410.169 442.662C406.955 446.585 410.46 454.179 414.43 455.329C418.398 456.479 415.455 448.96 416.852 445.719C418.25 442.478 414.471 437.41 410.169 442.662Z" fill="#EFD259"/>
<path d="M409.227 437.623C415.256 442.27 416.392 450.907 411.762 456.917C407.131 462.927 398.49 464.031 392.459 459.386C386.43 454.74 385.294 446.103 389.924 440.093C394.555 434.083 403.197 432.977 409.227 437.623Z" fill="#EFB05A"/>
<path d="M398.248 437.973C398.716 438.694 398.058 439.95 396.781 440.778C395.503 441.606 394.089 441.693 393.621 440.972C393.154 440.251 393.811 438.995 395.089 438.167C396.367 437.339 397.781 437.252 398.248 437.973Z" fill="#2D2524"/>
<path d="M389.616 448.056C387.66 452.737 393.194 459.008 397.325 458.973C401.457 458.937 396.484 452.577 396.893 449.071C397.304 445.565 392.234 441.791 389.616 448.056Z" fill="#EFD259"/>
<path d="M482.863 348.422C482.863 348.422 483.056 335.389 493.522 332.712C503.989 330.035 507.116 338.175 507.116 338.175C507.116 338.175 512.633 331.387 521.27 334.615C529.907 337.842 530.934 345.685 530.934 345.685C530.934 345.685 537.784 345.82 542.743 351.442C547.704 357.065 548.007 372.691 540.255 381.346C540.255 381.346 538.388 398.508 518.458 397.395C518.458 397.395 500.32 409.159 485.448 391.17C485.448 391.17 465.945 386.064 467.31 371.341C468.131 362.495 472.378 363.872 472.378 363.872C472.378 363.872 472.405 349.977 482.863 348.422Z" fill="#5A917B"/>
<path d="M526.747 367.258C526.747 367.258 536.117 370.26 540.255 381.342" stroke="#3E7760" stroke-width="1.484" stroke-miterlimit="10"/>
<path d="M493.686 381.289C493.686 381.289 494.83 393.293 507.288 401.044" stroke="#3E7760" stroke-width="1.484" stroke-miterlimit="10"/>
<path d="M476.885 366.883L481.925 373.313" stroke="#3E7760" stroke-width="1.484" stroke-miterlimit="10"/>
<path d="M506.113 347.648L506.028 357.078" stroke="#3E7760" stroke-width="1.484" stroke-miterlimit="10"/>
<path d="M530.933 345.69C530.36 345.936 529.756 346.11 529.201 346.374C528.663 346.681 528.129 346.867 527.629 347.209C527.128 347.537 526.617 347.812 526.166 348.201C525.698 348.552 525.227 348.882 524.808 349.293C524.373 349.674 523.952 350.062 523.572 350.502C523.177 350.919 522.79 351.335 522.438 351.789C522.066 352.218 521.72 352.668 521.408 353.147C521.074 353.604 520.767 354.077 520.496 354.576C520.208 355.061 519.923 355.542 519.684 356.051C519.426 356.548 519.173 357.044 518.977 357.569C518.764 358.083 518.528 358.584 518.37 359.117C518.2 359.644 517.994 360.154 517.882 360.696C517.758 361.23 517.565 361.745 517.493 362.29C517.41 362.83 517.274 363.357 517.231 363.897C517.183 364.436 517.1 364.97 517.07 365.507L517.038 367.114L516.898 373.975L511.998 368.819C511.603 368.404 510.934 367.778 510.412 367.482C509.866 367.14 509.41 367.065 509.345 367.083C509.306 367.094 509.257 367.052 508.914 367.456L508.857 367.515L508.827 367.545L508.812 367.56L508.811 367.563C508.781 367.604 509.06 367.209 508.938 367.381L508.926 367.401L508.723 367.714L508.318 368.34C508.205 368.637 508.085 368.883 507.942 369.185L507.519 370.357L507.169 371.598C506.957 372.433 506.78 373.301 506.678 374.171L506.519 375.484C506.482 375.923 506.488 376.364 506.467 376.806C506.399 377.694 506.513 378.566 506.534 379.455C506.623 380.331 506.776 381.202 506.923 382.076C507.18 382.913 507.298 383.818 507.656 384.629C507.979 385.454 508.248 386.323 508.714 387.093L509.333 388.309C509.542 388.717 509.843 389.063 510.094 389.449L510.89 390.59C511.175 390.956 511.507 391.286 511.81 391.648C512.428 392.36 513.044 393.104 513.806 393.694C514.551 394.295 515.198 395.086 516.036 395.598C516.836 396.173 517.642 396.769 518.454 397.397C517.483 397.142 516.504 396.855 515.521 396.547L514.784 396.309L514.085 395.987C513.62 395.767 513.141 395.56 512.678 395.321C511.715 394.899 510.86 394.295 509.984 393.693C509.551 393.387 509.085 393.111 508.687 392.756L507.518 391.651C507.138 391.269 506.709 390.924 506.368 390.504L505.345 389.227C504.617 388.393 504.13 387.408 503.568 386.452C503.268 385.98 503.048 385.474 502.852 384.959L502.229 383.416C501.883 382.368 501.6 381.288 501.374 380.205C501.217 379.113 500.984 378.014 500.985 376.907C500.968 376.354 500.926 375.799 500.932 375.245L501.014 373.583C501.098 372.476 501.267 371.375 501.496 370.274C501.629 369.725 501.741 369.174 501.901 368.627L502.468 366.984C502.725 366.374 503.041 365.725 503.348 365.12L503.744 364.488L503.942 364.172L503.955 364.152L504.096 363.952L504.108 363.939L504.155 363.884L504.25 363.774L504.443 363.557C504.915 362.986 505.583 362.422 506.359 361.963C507.183 361.518 508.15 361.223 509.106 361.199C511.045 361.152 512.506 361.911 513.608 362.652C514.748 363.453 515.54 364.212 516.426 365.314L511.387 367.021L511.578 364.966C511.669 364.286 511.811 363.615 511.933 362.943C512.062 362.272 512.29 361.627 512.467 360.971C512.632 360.31 512.921 359.693 513.148 359.056C513.377 358.42 513.702 357.825 513.993 357.219C514.273 356.608 514.622 356.033 514.971 355.46C515.304 354.88 515.695 354.337 516.093 353.8C516.469 353.251 516.889 352.734 517.344 352.246C517.771 351.739 518.235 351.265 518.724 350.814C519.188 350.345 519.687 349.91 520.209 349.505C520.706 349.076 521.239 348.688 521.807 348.346C522.348 347.975 522.926 347.662 523.513 347.367C524.078 347.046 524.689 346.804 525.295 346.568C525.888 346.315 526.538 346.183 527.154 346.013C527.761 345.831 528.444 345.785 529.063 345.699C529.69 345.65 530.308 345.681 530.933 345.69Z" fill="#91C89C"/>
<path d="M485.448 391.17C484.876 390.658 484.317 390.139 483.796 389.597C483.248 389.086 482.784 388.459 482.319 387.827C481.836 387.199 481.376 386.547 481.012 385.856C480.623 385.17 480.22 384.479 479.951 383.72C479.641 382.977 479.335 382.223 479.159 381.419L478.856 380.217C478.782 379.808 478.743 379.391 478.687 378.976C478.544 378.145 478.563 377.295 478.578 376.437C478.568 375.579 478.743 374.723 478.872 373.867C479.084 373.022 479.264 372.16 479.623 371.351C479.92 370.522 480.337 369.732 480.779 368.96C481.257 368.204 481.784 367.472 482.392 366.782C483.011 366.098 483.72 365.467 484.56 364.881L485.264 364.457L485.442 364.354L485.486 364.329L485.509 364.317L485.771 364.197L485.835 364.172L486.092 364.074C486.211 363.999 487.367 363.666 488.017 363.648C489.355 363.554 490.569 363.912 491.523 364.394C492.486 364.882 493.27 365.467 493.938 366.108C494.616 366.779 495.137 367.367 495.726 368.232L491.715 368.282C491.994 367.95 492.2 367.748 492.443 367.503C492.682 367.272 492.92 367.046 493.169 366.831C493.668 366.401 494.197 366.007 494.758 365.642C495.31 365.27 495.926 364.961 496.555 364.685C496.888 364.562 497.208 364.43 497.542 364.327L498.596 364.1C498.957 364.056 499.332 364.041 499.691 364.037C500.05 364.026 500.429 364.124 500.782 364.175C501.14 364.21 501.476 364.379 501.806 364.503C502.143 364.62 502.448 364.776 502.716 364.997C502.981 365.212 503.275 365.377 503.483 365.629L504.105 366.352C504.321 366.573 504.428 366.883 504.581 367.141C504.723 367.408 504.857 367.674 504.977 367.941L504.211 367.499C503.959 367.362 503.74 367.192 503.469 367.11L502.729 366.813C502.493 366.709 502.224 366.717 501.991 366.666C501.871 366.651 501.76 366.622 501.647 366.599L501.301 366.616C501.076 366.635 500.867 366.601 500.651 366.687C500.439 366.76 500.243 366.769 500.046 366.874C499.85 366.982 499.66 367.045 499.475 367.143L498.928 367.493L498.402 367.91C498.057 368.211 497.732 368.54 497.412 368.892C497.091 369.239 496.797 369.627 496.509 370.013C496.364 370.204 496.229 370.406 496.095 370.602C495.974 370.79 495.821 371.026 495.766 371.152L494.592 373.822L491.755 371.203C491.442 370.913 490.93 370.453 490.496 370.173C490.047 369.869 489.609 369.621 489.238 369.505C488.864 369.392 488.609 369.363 488.481 369.416C488.413 369.495 488.828 369.268 488.285 369.511L488.033 369.619L487.969 369.646L487.962 369.649C487.739 369.75 488.255 369.514 488.201 369.539L488.193 369.545L488.18 369.556L488.123 369.596L487.89 369.744C487.536 370.008 487.16 370.367 486.791 370.764C486.418 371.166 486.081 371.614 485.761 372.089C485.477 372.584 485.138 373.058 484.915 373.601C484.639 374.117 484.468 374.684 484.24 375.235C484.099 375.812 483.888 376.383 483.793 376.989C483.683 377.591 483.57 378.201 483.542 378.834C483.458 379.463 483.468 380.102 483.481 380.757C483.453 381.413 483.548 382.07 483.605 382.745C483.642 383.422 483.774 384.096 483.897 384.783L484.062 385.829L484.311 386.847C484.501 387.525 484.596 388.257 484.853 388.975C485.077 389.686 485.27 390.425 485.448 391.17Z" fill="#91C89C"/>
<path d="M482.863 348.422C482.863 348.422 482.909 348.504 482.996 348.656C483.075 348.808 483.232 349.035 483.348 349.314C483.476 349.594 483.649 349.937 483.775 350.321C483.952 350.683 484.155 351.074 484.32 351.476C484.485 351.881 484.663 352.32 484.851 352.785C485.013 353.242 485.182 353.724 485.357 354.223C485.51 354.717 485.673 355.222 485.82 355.739C485.954 356.256 486.113 356.778 486.233 357.31C486.476 358.371 486.679 359.452 486.817 360.511C486.967 361.564 487.028 362.604 487.05 363.538C487.055 364.479 487.021 365.311 486.966 365.926C486.957 366.224 486.896 366.491 486.883 366.66C486.863 366.835 486.853 366.927 486.853 366.927C486.853 366.927 486.767 366.89 486.604 366.822C486.448 366.748 486.185 366.654 485.927 366.487C485.372 366.173 484.651 365.664 483.916 364.957C482.444 363.55 481.04 361.253 480.454 358.666C480.159 357.379 480.037 356.044 480.137 354.781C480.165 354.155 480.26 353.546 480.402 352.972C480.536 352.4 480.681 351.874 480.896 351.365C481.094 350.865 481.325 350.427 481.53 350.056C481.742 349.711 481.991 349.419 482.181 349.176C482.36 348.932 482.566 348.748 482.677 348.619C482.797 348.49 482.863 348.422 482.863 348.422Z" fill="#91C89C"/>
<path d="M515.573 359.686C515.573 359.686 515.146 359.712 514.468 359.732C513.789 359.749 512.863 359.739 511.832 359.738C510.808 359.726 509.68 359.7 508.628 359.742C508.101 359.757 507.592 359.801 507.148 359.873C506.69 359.929 506.31 360.045 505.985 360.147C505.795 360.168 505.697 360.291 505.529 360.319L505.471 360.337L505.457 360.342C505.252 360.477 505.731 360.159 505.679 360.193L505.673 360.198L505.66 360.207L505.607 360.242L505.388 360.38L504.951 360.652C504.666 360.837 504.366 361.011 504.077 361.167C503.925 361.294 503.774 361.42 503.593 361.521C503.243 361.685 502.833 362.038 502.426 362.352C501.987 362.639 501.652 363.014 501.254 363.317C500.499 363.958 499.841 364.578 499.341 365.034C499.117 365.267 498.884 365.447 498.747 365.58C498.611 365.715 498.537 365.786 498.537 365.786C498.537 365.786 498.501 365.688 498.433 365.506C498.382 365.326 498.264 365.041 498.21 364.693C498.161 364.348 498.069 363.906 498.077 363.419C498.089 362.936 498.06 362.354 498.185 361.76C498.317 361.17 498.418 360.491 498.725 359.843C499.006 359.184 499.295 358.488 499.902 357.762C500.171 357.394 500.476 357.044 500.788 356.689C501.033 356.446 501.282 356.222 501.546 356.002L501.937 355.667L502.134 355.499L502.184 355.459L502.198 355.449L502.44 355.287L502.483 355.263L502.658 355.168C503.125 354.931 503.609 354.64 504.102 354.514C505.092 354.187 506.096 354.07 507.002 354.121C507.462 354.125 507.905 354.173 508.315 354.266C508.738 354.336 509.138 354.425 509.508 354.564C510.271 354.791 510.937 355.116 511.535 355.458C512.136 355.798 512.654 356.18 513.108 356.557C514.009 357.328 514.634 358.101 515.021 358.693C515.226 358.97 515.345 359.249 515.44 359.416C515.527 359.594 515.573 359.686 515.573 359.686Z" fill="#91C89C"/>
<path d="M542.623 368.762C542.623 368.762 549.08 357.439 559.539 360.144C569.998 362.85 568.811 371.488 568.811 371.488C568.811 371.488 576.918 368.204 582.927 375.198C588.936 382.192 586.051 389.557 586.051 389.557C586.051 389.557 591.985 392.979 593.618 400.297C595.25 407.614 587.979 421.45 577.012 425.29C577.012 425.29 567.097 439.422 550.175 428.833C550.175 428.833 528.613 430.388 524.265 407.454C524.265 407.454 509.644 393.573 517.943 381.336C522.929 373.983 525.984 377.238 525.984 377.238C525.984 377.238 532.713 365.079 542.623 368.762Z" fill="#4C8B74"/>
<path d="M571.973 406.438C571.973 406.438 578.733 413.587 577.012 425.292" stroke="#3E7760" stroke-width="1.484" stroke-miterlimit="10"/>
<path d="M536.245 402.781C536.245 402.781 531.456 413.847 538.629 426.647" stroke="#3E7760" stroke-width="1.484" stroke-miterlimit="10"/>
<path d="M528.48 382.055L529.792 390.119" stroke="#3E7760" stroke-width="1.484" stroke-miterlimit="10"/>
<path d="M563.362 379.305L558.738 387.525" stroke="#3E7760" stroke-width="1.484" stroke-miterlimit="10"/>
<path d="M586.051 389.558C585.431 389.498 584.818 389.359 584.203 389.322C583.585 389.333 583.028 389.238 582.424 389.296C581.828 389.34 581.247 389.334 580.664 389.459C580.084 389.542 579.513 389.603 578.949 389.76C578.383 389.883 577.827 390.021 577.282 390.223C576.736 390.398 576.196 390.575 575.669 390.803C575.135 390.999 574.615 391.226 574.112 391.496C573.6 391.735 573.102 392.002 572.624 392.308C572.137 392.595 571.656 392.878 571.201 393.209C570.735 393.519 570.275 393.832 569.85 394.197C569.415 394.545 568.967 394.87 568.572 395.261C568.169 395.641 567.743 395.989 567.384 396.408C567.017 396.817 566.599 397.174 566.275 397.616C565.943 398.05 565.567 398.445 565.269 398.897C564.968 399.347 564.637 399.774 564.352 400.23L563.548 401.622L560.115 407.565L558.311 400.685C558.165 400.13 557.88 399.259 557.567 398.749C557.254 398.185 556.89 397.901 556.825 397.885C556.787 397.875 556.763 397.815 556.267 398.004L556.189 398.029L556.148 398.039L556.128 398.045L556.122 398.047C556.076 398.069 556.511 397.858 556.321 397.95L556.3 397.962L555.972 398.139L555.314 398.492C555.073 398.697 554.848 398.856 554.578 399.05L553.642 399.874L552.737 400.791C552.149 401.42 551.575 402.095 551.064 402.808L550.291 403.882C550.046 404.248 549.838 404.637 549.608 405.014C549.12 405.759 548.8 406.577 548.389 407.366C548.044 408.177 547.756 409.014 547.464 409.849C547.286 410.705 546.954 411.556 546.875 412.439C546.761 413.317 546.577 414.208 546.612 415.108L546.568 416.472C546.553 416.931 546.651 417.379 546.685 417.837L546.832 419.221C546.903 419.679 547.038 420.127 547.127 420.592C547.326 421.515 547.507 422.463 547.889 423.348C548.251 424.234 548.436 425.238 548.923 426.091C549.347 426.98 549.764 427.892 550.172 428.834C549.445 428.142 548.725 427.42 548.013 426.675L547.482 426.111L547.025 425.49C546.724 425.073 546.404 424.661 546.114 424.229C545.473 423.395 545.017 422.454 544.541 421.503C544.309 421.027 544.033 420.559 543.856 420.058L543.367 418.525C543.218 418.008 543.009 417.498 542.913 416.965L542.632 415.353C542.396 414.271 542.445 413.173 542.413 412.065C542.378 411.507 542.43 410.959 542.506 410.412L542.705 408.758C542.908 407.674 543.18 406.592 543.505 405.532C543.894 404.501 544.22 403.425 544.756 402.456C545.007 401.963 545.238 401.457 545.511 400.975L546.384 399.559C546.992 398.63 547.672 397.747 548.403 396.892C548.785 396.475 549.148 396.046 549.554 395.646L550.843 394.479C551.361 394.07 551.952 393.653 552.513 393.271L553.164 392.908L553.491 392.727L553.511 392.716L553.731 392.609L553.747 392.604L553.816 392.578L553.952 392.529L554.225 392.433C554.915 392.16 555.772 391.989 556.672 391.962C557.609 391.97 558.599 392.178 559.447 392.618C561.17 393.513 562.081 394.881 562.69 396.063C563.301 397.315 563.629 398.361 563.874 399.755L558.637 398.818L559.796 397.11C560.203 396.558 560.652 396.04 561.083 395.511C561.519 394.985 562.031 394.53 562.501 394.042C562.964 393.543 563.517 393.141 564.021 392.693C564.529 392.246 565.1 391.881 565.646 391.491C566.186 391.09 566.769 390.754 567.351 390.422C567.923 390.075 568.528 389.787 569.135 389.509C569.73 389.21 570.347 388.96 570.981 388.751C571.6 388.514 572.235 388.322 572.881 388.163C573.514 387.976 574.16 387.837 574.813 387.733C575.455 387.597 576.11 387.515 576.772 387.49C577.423 387.424 578.082 387.43 578.736 387.454C579.386 387.447 580.039 387.53 580.682 387.614C581.325 387.68 581.957 387.877 582.579 388.024C583.199 388.156 583.818 388.445 584.401 388.669C584.981 388.925 585.506 389.25 586.051 389.558Z" fill="#91C89C"/>
<path d="M524.265 407.463C524.011 406.739 523.772 406.015 523.576 405.289C523.343 404.579 523.239 403.804 523.137 403.026C523.017 402.243 522.928 401.452 522.943 400.668C522.932 399.88 522.913 399.079 523.044 398.285C523.13 397.484 523.226 396.676 523.461 395.885L523.775 394.686C523.907 394.293 524.073 393.909 524.225 393.517C524.501 392.72 524.928 391.984 525.354 391.24C525.759 390.485 526.326 389.819 526.852 389.132C527.445 388.495 528.018 387.827 528.723 387.291C529.383 386.708 530.128 386.218 530.888 385.754C531.672 385.322 532.486 384.935 533.351 384.625C534.224 384.323 535.15 384.114 536.168 384.004L536.989 383.973L537.194 383.969H537.245H537.271L537.559 383.991L537.627 384L537.898 384.038C538.039 384.031 539.212 384.297 539.791 384.595C541.009 385.159 541.899 386.058 542.502 386.94C543.11 387.832 543.514 388.723 543.79 389.605C544.061 390.519 544.234 391.286 544.332 392.328L540.794 390.438C541.197 390.28 541.478 390.204 541.809 390.107C542.129 390.02 542.447 389.936 542.769 389.868C543.413 389.731 544.067 389.642 544.735 389.593C545.399 389.534 546.087 389.559 546.773 389.621C547.123 389.673 547.467 389.712 547.81 389.785L548.841 390.093C549.18 390.228 549.515 390.396 549.831 390.565C550.15 390.728 550.435 390.998 550.72 391.211C551.017 391.414 551.229 391.724 551.459 391.991C551.697 392.255 551.89 392.539 552.017 392.862C552.146 393.18 552.324 393.465 552.385 393.785L552.581 394.717C552.663 395.016 552.608 395.339 552.617 395.639C552.614 395.942 552.602 396.24 552.578 396.531L552.121 395.774C551.967 395.534 551.857 395.277 551.66 395.075L551.153 394.458C550.998 394.253 550.757 394.13 550.579 393.972C550.481 393.901 550.398 393.821 550.309 393.748L549.997 393.595C549.791 393.503 549.625 393.373 549.395 393.345C549.174 393.306 548.999 393.22 548.775 393.217C548.551 393.217 548.355 393.181 548.144 393.177L547.495 393.22L546.832 393.331C546.385 393.429 545.942 393.56 545.492 393.714C545.044 393.863 544.599 394.061 544.161 394.26C543.941 394.358 543.725 394.47 543.514 394.576C543.317 394.683 543.069 394.817 542.96 394.9L540.644 396.672L539.422 393.008C539.287 392.604 539.06 391.954 538.817 391.499C538.569 391.015 538.305 390.587 538.036 390.307C537.763 390.028 537.554 389.878 537.416 389.865C537.318 389.9 537.792 389.902 537.199 389.854L536.926 389.828L536.858 389.82L536.849 389.819C536.606 389.801 537.171 389.842 537.112 389.838L537.103 389.839L537.085 389.841L537.015 389.85L536.739 389.866C536.302 389.926 535.8 390.059 535.285 390.228C534.766 390.4 534.254 390.632 533.745 390.892C533.258 391.19 532.731 391.439 532.274 391.807C531.783 392.126 531.361 392.54 530.894 392.913C530.492 393.352 530.032 393.75 529.656 394.234C529.27 394.708 528.877 395.188 528.546 395.729C528.169 396.24 527.87 396.805 527.565 397.386C527.224 397.947 526.99 398.568 526.715 399.186C526.421 399.797 526.212 400.45 525.988 401.11L525.627 402.106L525.354 403.118C525.192 403.804 524.924 404.491 524.801 405.243C524.657 405.985 524.468 406.724 524.265 407.463Z" fill="#91C89C"/>
<path d="M542.623 368.766C542.623 368.766 542.625 368.859 542.628 369.036C542.623 369.206 542.652 369.481 542.619 369.782C542.595 370.089 542.582 370.474 542.506 370.871C542.487 371.274 542.476 371.713 542.426 372.146C542.374 372.581 542.319 373.05 542.26 373.549C542.181 374.026 542.097 374.531 542.01 375.052C541.905 375.558 541.806 376.08 541.685 376.604C541.553 377.121 541.441 377.655 541.289 378.179C540.989 379.225 540.647 380.271 540.258 381.265C539.881 382.261 539.431 383.202 539.001 384.03C538.551 384.857 538.119 385.569 537.775 386.081C537.624 386.338 537.441 386.542 537.348 386.685C537.247 386.829 537.192 386.905 537.192 386.905C537.192 386.905 537.134 386.83 537.026 386.692C536.925 386.551 536.741 386.344 536.594 386.072C536.258 385.53 535.873 384.736 535.57 383.761C534.958 381.819 534.838 379.13 535.571 376.582C535.932 375.313 536.471 374.083 537.168 373.026C537.495 372.49 537.872 372.004 538.272 371.57C538.664 371.134 539.045 370.744 539.482 370.401C539.896 370.058 540.31 369.787 540.667 369.56C541.021 369.361 541.38 369.224 541.662 369.103C541.935 368.975 542.205 368.913 542.365 368.853C542.534 368.794 542.623 368.766 542.623 368.766Z" fill="#91C89C"/>
<path d="M565.845 394.411C565.845 394.411 565.459 394.229 564.854 393.917C564.251 393.605 563.444 393.15 562.542 392.651C561.65 392.147 560.675 391.581 559.732 391.109C559.264 390.867 558.796 390.663 558.375 390.51C557.946 390.338 557.558 390.256 557.223 390.189C557.046 390.115 556.902 390.176 556.741 390.121L556.681 390.108L556.667 390.105C556.423 390.124 556.995 390.077 556.932 390.082H556.925L556.908 390.084L556.845 390.09L556.586 390.105L556.071 390.131C555.733 390.157 555.386 390.163 555.056 390.161C554.862 390.201 554.669 390.238 554.461 390.238C554.075 390.213 553.547 390.324 553.038 390.404C552.514 390.443 552.039 390.609 551.545 390.685C550.575 390.881 549.699 391.108 549.042 391.267C548.733 391.363 548.442 391.408 548.258 391.458C548.073 391.51 547.975 391.537 547.975 391.537C547.975 391.537 547.99 391.434 548.019 391.241C548.062 391.059 548.095 390.753 548.215 390.422C548.338 390.097 548.472 389.665 548.712 389.242C548.956 388.824 549.212 388.302 549.607 387.842C550.008 387.389 550.423 386.843 551.005 386.423C551.569 385.982 552.158 385.512 553.04 385.169C553.452 384.976 553.888 384.817 554.334 384.657C554.666 384.562 554.993 384.486 555.329 384.421L555.834 384.316L556.088 384.264L556.152 384.253L556.168 384.25L556.459 384.227H556.508L556.707 384.228C557.23 384.246 557.794 384.225 558.287 384.351C559.312 384.543 560.249 384.926 561.016 385.405C561.417 385.63 561.783 385.886 562.097 386.166C562.433 386.432 562.742 386.703 562.999 387.003C563.557 387.57 563.984 388.177 564.343 388.765C564.705 389.352 564.974 389.937 565.191 390.486C565.608 391.595 565.781 392.574 565.836 393.28C565.882 393.623 565.851 393.925 565.854 394.116C565.85 394.309 565.845 394.411 565.845 394.411Z" fill="#91C89C"/>
<path d="M506.771 389.009C506.771 389.009 503.046 376.518 492.246 376.785C481.445 377.051 480.647 385.734 480.647 385.734C480.647 385.734 473.494 380.7 466.058 386.152C458.621 391.605 459.764 399.431 459.764 399.431C459.764 399.431 453.208 401.421 449.961 408.179C446.714 414.938 450.664 430.06 460.476 436.283C460.476 436.283 466.933 452.294 485.813 445.811C485.813 445.811 506.462 452.207 515.89 430.855C515.89 430.855 533.274 420.644 527.961 406.845C524.769 398.554 521.056 401.034 521.056 401.034C521.056 401.034 517.259 387.665 506.771 389.009Z" fill="#4C8B74"/>
<path d="M469.653 419.062C469.653 419.062 461.451 424.495 460.478 436.286" stroke="#3E7760" stroke-width="1.484" stroke-miterlimit="10"/>
<path d="M505.282 423.586C505.282 423.586 507.44 435.449 497.555 446.293" stroke="#3E7760" stroke-width="1.484" stroke-miterlimit="10"/>
<path d="M517.537 405.156L514.434 412.714" stroke="#3E7760" stroke-width="1.484" stroke-miterlimit="10"/>
<path d="M484.186 394.578L486.827 403.631" stroke="#3E7760" stroke-width="1.484" stroke-miterlimit="10"/>
<path d="M459.764 399.423C460.364 399.245 460.95 399.048 461.564 398.928C462.183 398.842 462.852 398.701 463.486 398.713C464.124 398.71 464.784 398.661 465.426 398.742C466.071 398.806 466.725 398.873 467.358 399.027C468 399.152 468.644 399.296 469.265 399.507C469.903 399.68 470.522 399.909 471.117 400.188C471.73 400.437 472.328 400.719 472.902 401.044C473.494 401.345 474.07 401.675 474.619 402.047C475.189 402.394 475.733 402.777 476.245 403.203C476.774 403.611 477.297 404.028 477.775 404.496C478.267 404.951 478.758 405.41 479.194 405.922C479.638 406.425 480.113 406.91 480.504 407.461C480.895 408.011 481.341 408.528 481.68 409.118C482.028 409.7 482.422 410.261 482.729 410.871C483.029 411.484 483.348 412.091 483.619 412.72L484.361 414.646L479.049 414.373C479.602 413.072 480.159 412.126 481.037 411.046C481.898 410.034 483.095 408.906 484.976 408.425C485.903 408.189 486.914 408.21 487.826 408.415C488.698 408.645 489.494 409.006 490.103 409.427L490.348 409.583L490.469 409.662L490.53 409.702L490.545 409.712L490.735 409.866L490.753 409.881L491.029 410.132L491.582 410.634C492.042 411.132 492.523 411.671 492.936 412.187L493.927 413.615C494.23 414.097 494.487 414.597 494.764 415.09C495.282 416.087 495.745 417.102 496.126 418.144L496.656 419.722C496.812 420.253 496.923 420.799 497.057 421.336C497.36 422.4 497.434 423.522 497.579 424.616C497.656 425.72 497.677 426.837 497.628 427.94L497.447 429.595C497.398 430.145 497.324 430.691 497.164 431.227C496.882 432.298 496.68 433.38 496.205 434.381L495.567 435.887C495.352 436.384 495.033 436.834 494.772 437.304L493.946 438.686C493.66 439.135 493.286 439.527 492.952 439.94C492.273 440.757 491.615 441.57 490.802 442.238C490.42 442.593 490.017 442.924 489.63 443.261L489.045 443.761L488.399 444.19C487.537 444.754 486.673 445.295 485.808 445.804C486.42 444.979 487.033 444.187 487.647 443.417C488.315 442.695 488.723 441.759 489.276 440.978C489.849 440.204 490.241 439.321 490.642 438.466C490.835 438.036 491.066 437.629 491.24 437.199L491.695 435.884C491.833 435.445 492.029 435.031 492.12 434.579L492.385 433.241C492.624 432.373 492.646 431.463 492.734 430.581C492.857 429.704 492.727 428.799 492.746 427.925C492.651 427.044 492.56 426.164 492.408 425.297C492.186 424.436 492.059 423.567 491.753 422.73C491.614 422.31 491.499 421.884 491.344 421.471L490.835 420.25C490.499 419.441 490.093 418.653 489.662 417.907L488.988 416.808L488.263 415.795C488.043 415.544 487.861 415.339 487.672 415.086L487.113 414.593L486.832 414.347L486.814 414.33C486.651 414.198 487.027 414.501 486.987 414.47L486.982 414.467L486.963 414.456L486.926 414.437L486.854 414.395C486.414 414.1 486.378 414.152 486.338 414.154C486.271 414.155 485.853 414.35 485.419 414.827C484.998 415.253 484.523 416.037 484.256 416.544L480.941 422.837L478.943 416.271L478.476 414.734C478.301 414.226 478.077 413.735 477.885 413.229C477.697 412.72 477.421 412.25 477.195 411.754C476.98 411.249 476.653 410.807 476.388 410.326C476.134 409.835 475.797 409.4 475.49 408.939C475.195 408.468 474.831 408.05 474.485 407.614C474.154 407.161 473.777 406.753 473.393 406.345C473.024 405.919 472.62 405.533 472.21 405.146C471.814 404.739 471.39 404.367 470.944 404.018C470.516 403.642 470.06 403.303 469.585 402.991C469.124 402.65 468.637 402.356 468.144 402.061C467.66 401.74 467.148 401.48 466.626 401.232C466.113 400.95 465.569 400.762 465.023 400.55C464.483 400.298 463.916 400.171 463.346 399.993C462.771 399.8 462.208 399.766 461.607 399.616C461.012 399.51 460.383 399.505 459.764 399.423Z" fill="#91C89C"/>
<path d="M515.892 430.85C515.862 430.084 515.846 429.321 515.873 428.57C515.923 427.809 515.818 427.079 515.815 426.376L515.778 425.328L515.652 424.277C515.583 423.583 515.528 422.9 515.38 422.237C515.252 421.572 515.165 420.914 514.959 420.29C514.792 419.656 514.629 419.037 514.377 418.455C514.178 417.853 513.904 417.298 513.635 416.747C513.38 416.191 513.021 415.7 512.73 415.182C512.359 414.713 512.041 414.214 511.636 413.793C511.275 413.33 510.818 412.969 510.412 412.568C509.974 412.199 509.529 411.859 509.061 411.573C508.597 411.292 508.138 411.047 507.726 410.89L507.461 410.811L507.396 410.788L507.38 410.782L507.371 410.779C507.312 410.768 507.873 410.856 507.631 410.819L507.622 410.817L507.553 410.808L507.28 410.773C506.691 410.685 507.154 410.791 507.067 410.734C506.929 410.716 506.691 410.816 506.363 411.025C506.038 411.237 505.684 411.593 505.333 412.009C504.994 412.398 504.624 412.979 504.401 413.342L502.382 416.633L500.527 414.382C500.439 414.276 500.228 414.09 500.061 413.941C499.88 413.788 499.693 413.631 499.503 413.487C499.12 413.195 498.733 412.901 498.329 412.653C497.925 412.402 497.523 412.174 497.109 411.976L496.489 411.718L495.867 411.53C495.662 411.487 495.462 411.478 495.244 411.427C495.026 411.38 494.834 411.424 494.61 411.411C494.38 411.386 494.189 411.475 493.966 411.519L493.628 411.598C493.525 411.648 493.426 411.708 493.315 411.755C493.105 411.868 492.843 411.933 492.645 412.098L492.013 412.585C491.776 412.738 491.611 412.962 491.405 413.161L490.789 413.794C490.832 413.505 490.888 413.212 490.953 412.917C491.029 412.626 491.05 412.3 491.197 412.028L491.599 411.165C491.731 410.865 491.968 410.627 492.166 410.348C492.363 410.063 492.616 409.83 492.906 409.626C493.19 409.418 493.467 409.164 493.803 409.032C494.128 408.888 494.466 408.691 494.815 408.603C495.162 408.51 495.526 408.422 495.886 408.367L496.961 408.299C497.311 408.306 497.655 408.346 498.007 408.375C498.688 408.47 499.365 408.6 499.997 408.808C500.637 409.007 501.254 409.243 501.849 409.52C502.147 409.661 502.437 409.814 502.73 409.97C503.032 410.141 503.285 410.277 503.645 410.522L499.771 411.562C500.104 410.569 500.445 409.862 500.916 409.034C501.383 408.237 501.978 407.46 502.774 406.729C503.56 406.006 504.631 405.332 505.945 405.059C506.576 404.899 507.778 404.906 507.913 404.945L508.186 404.969L508.254 404.976L508.54 405.021L508.566 405.027L508.616 405.039L508.815 405.089L509.607 405.306C510.573 405.643 511.428 406.057 512.209 406.546C512.982 407.045 513.687 407.606 514.353 408.204C514.988 408.829 515.603 409.474 516.115 410.191C516.68 410.872 517.087 411.653 517.52 412.407C517.878 413.196 518.278 413.972 518.501 414.8C518.749 415.621 518.998 416.434 519.086 417.273C519.145 417.688 519.221 418.101 519.259 418.513L519.295 419.752C519.345 420.575 519.255 421.383 519.158 422.183C519.106 422.986 518.905 423.762 518.718 424.526C518.556 425.292 518.289 426.043 517.995 426.779C517.719 427.514 517.443 428.244 517.054 428.884C516.701 429.551 516.305 430.203 515.892 430.85Z" fill="#91C89C"/>
<path d="M506.771 389.008C506.771 389.008 506.851 389.057 507.001 389.146C507.143 389.239 507.393 389.361 507.63 389.548C507.878 389.73 508.197 389.944 508.495 390.219C508.794 390.522 509.135 390.879 509.46 391.307C509.806 391.738 510.089 392.206 510.373 392.719C510.665 393.233 510.922 393.792 511.119 394.387C511.558 395.575 511.805 396.894 511.869 398.212C512.007 400.861 511.279 403.452 510.245 405.206C509.729 406.087 509.174 406.773 508.725 407.224C508.522 407.454 508.294 407.616 508.164 407.73C508.026 407.841 507.954 407.899 507.954 407.899C507.954 407.899 507.918 407.813 507.853 407.65C507.795 407.491 507.663 407.249 507.574 406.966C507.356 406.388 507.096 405.597 506.845 404.691C506.614 403.787 506.39 402.769 506.247 401.714C506.093 400.657 505.996 399.561 505.941 398.474C505.913 397.931 505.924 397.385 505.912 396.851C505.913 396.314 505.934 395.782 505.946 395.266C505.98 394.739 506.013 394.229 506.042 393.745C506.097 393.248 506.149 392.776 506.198 392.342C506.247 391.909 506.336 391.479 506.409 391.082C506.427 390.677 506.499 390.3 506.545 389.996C506.581 389.696 506.672 389.434 506.706 389.267C506.749 389.098 506.771 389.008 506.771 389.008Z" fill="#91C89C"/>
<path d="M478.348 408.721C478.348 408.721 478.367 408.62 478.403 408.43C478.449 408.244 478.487 407.943 478.609 407.621C478.821 406.946 479.213 406.032 479.87 405.046C480.206 404.561 480.599 404.05 481.086 403.561C481.57 403.07 482.122 402.575 482.794 402.149C483.112 401.915 483.474 401.721 483.862 401.538C484.232 401.336 484.645 401.17 485.087 401.041C485.943 400.747 486.942 400.587 487.984 400.633C488.493 400.621 489.037 400.769 489.551 400.87L489.745 400.915L489.794 400.927L490.071 401.016L490.086 401.022L490.146 401.047L490.382 401.154L490.849 401.37C491.164 401.51 491.464 401.657 491.766 401.826C492.162 402.083 492.553 402.336 492.91 402.618C493.692 403.153 494.16 403.743 494.608 404.301C495.08 404.843 495.362 405.468 495.648 405.999C495.929 406.538 496.059 407.105 496.202 407.566C496.341 408.032 496.374 408.483 496.42 408.827C496.463 409.178 496.426 409.483 496.426 409.67C496.411 409.865 496.402 409.969 496.402 409.969C496.402 409.969 496.312 409.92 496.144 409.828C495.976 409.737 495.703 409.627 495.424 409.464C494.819 409.161 494.017 408.741 493.117 408.33C492.652 408.146 492.228 407.876 491.726 407.72C491.25 407.527 490.76 407.299 490.379 407.237C490.177 407.189 489.996 407.109 489.816 407.026C489.496 406.953 489.159 406.867 488.835 406.768L488.34 406.625L488.092 406.551L488.031 406.53L488.016 406.526L488.009 406.523C487.949 406.503 488.495 406.68 488.263 406.606H488.248H488.187C488.018 406.624 487.892 406.532 487.702 406.564C487.36 406.554 486.964 406.547 486.507 406.616C486.062 406.67 485.56 406.763 485.048 406.892C484.024 407.139 482.945 407.47 481.963 407.757C480.972 408.039 480.083 408.299 479.425 408.467C478.765 408.63 478.348 408.721 478.348 408.721Z" fill="#91C89C"/>
<g filter="url(#filter0_d_2582_70948)">
<path d="M550.711 365.11C550.74 363.727 551.981 362.62 553.57 362.589C557.476 362.513 561.24 363.745 565.383 364.167C565.653 364.196 565.952 364.237 566.134 364.418C566.335 364.619 566.321 364.912 566.292 365.173C565.963 368.3 565.634 371.427 565.305 374.554C565.225 376.229 565.095 376.542 564.947 377.693C564.833 378.576 564.229 379.346 563.316 379.724C559.975 381.107 553.205 380.513 550.467 376.979C550.074 376.473 549.886 375.87 549.934 375.273C550.09 373.308 550.637 368.65 550.711 365.11Z" fill="#FACEBC"/>
<path opacity="0.2" d="M553.57 362.589C554.467 362.571 555.357 362.629 556.245 362.724C555.506 368.322 554.792 373.924 554.204 379.535C552.701 378.975 551.366 378.138 550.467 376.979C550.075 376.472 549.886 375.87 549.934 375.273C550.089 373.309 550.637 368.651 550.711 365.11C550.74 363.727 551.981 362.62 553.57 362.589Z" fill="#F29881"/>
<path d="M591.979 307.339C590.87 301.85 586.913 295.401 581.719 293.12C568.007 286.577 548.507 287.37 538.886 296.692C532.77 302.459 530.843 310.895 530.969 319.23C530.559 329.896 530.513 340.398 534.952 350.113C539.729 361.795 552.245 368.742 566.145 367.937C580.045 367.131 585.015 360.203 589.278 353.415C596.529 340.941 594.725 317.62 591.979 307.339Z" fill="#FACEBC"/>
<path opacity="0.2" d="M543.983 357.959C541.46 353.884 539.41 349.345 537.86 344.812C535.952 339.23 535.317 333.313 535.294 327.44C535.241 314.188 539.516 301.497 550.447 293.207C552.138 291.924 553.92 290.815 555.765 289.844C548.825 290.816 542.653 293.046 538.887 296.694C532.771 302.461 530.845 310.898 530.97 319.232C530.56 329.898 530.514 340.401 534.953 350.115C537.632 356.666 542.745 361.728 549.171 364.769C548.88 364.437 548.595 364.1 548.315 363.764C546.771 361.914 545.252 360.009 543.983 357.959Z" fill="#F39880"/>
<path d="M535.877 336.119C535.877 341.025 531.898 345.004 526.992 345.004C522.085 345.004 518.107 341.027 518.107 336.119C518.107 331.212 522.085 327.234 526.992 327.234C531.898 327.234 535.877 331.213 535.877 336.119Z" fill="#FACEBC"/>
<path opacity="0.2" d="M526.991 327.234C523.978 327.234 521.317 328.735 519.711 331.029C520.864 331.251 522.014 331.653 522.359 331.85C524.944 333.325 526.175 336.099 527.267 338.726C528.067 340.653 528.844 342.645 529.326 344.692C533.1 343.666 535.876 340.218 535.876 336.119C535.876 331.213 531.898 327.234 526.991 327.234Z" fill="#F39880"/>
<path d="M523.35 331.266C526.191 331.585 528.775 333.593 529.785 336.266" stroke="#E66464" stroke-width="1.7858" stroke-miterlimit="10" stroke-linecap="round" stroke-linejoin="round"/>
<path d="M526.099 332.695C525.286 334.001 524.789 335.527 524.844 337.064C524.899 338.6 525.541 340.137 526.703 341.143" stroke="#E66464" stroke-width="1.7858" stroke-miterlimit="10" stroke-linecap="round" stroke-linejoin="round"/>
<path d="M560.379 344.595C561.409 342.688 564.533 344.757 569.961 344.47C575.39 344.185 578.059 343.021 579.28 344.192C580.501 345.362 576.487 352.009 570.165 352.05C563.841 352.09 559.349 346.502 560.379 344.595Z" fill="white"/>
<path d="M569.314 329.828C570.418 337.211 574.329 339.854 573.753 340.183C573.477 340.34 573.097 340.383 572.736 340.413C571.414 340.525 570.077 340.556 568.746 340.507" stroke="#E66464" stroke-width="1.7858" stroke-miterlimit="10" stroke-linecap="round" stroke-linejoin="round"/>
<path d="M561.524 333.448C561.524 335.656 559.735 337.444 557.529 337.444C555.322 337.444 553.534 335.655 553.534 333.448C553.534 331.241 555.323 329.453 557.529 329.453C559.735 329.453 561.524 331.241 561.524 333.448Z" fill="#020203"/>
<path d="M579.332 337.444C581.539 337.444 583.328 335.655 583.328 333.448C583.328 331.242 581.539 329.453 579.332 329.453C577.126 329.453 575.337 331.242 575.337 333.448C575.337 335.655 577.126 337.444 579.332 337.444Z" fill="#020203"/>
<path d="M550.162 317.699C549.651 318.151 549.189 318.684 548.955 319.323C548.722 319.962 548.745 320.723 549.143 321.277C549.587 321.894 550.407 322.148 551.169 322.127C551.932 322.105 552.668 321.855 553.403 321.653C554.915 321.237 556.482 321.017 558.051 321.001C559.103 320.99 560.191 321.065 561.171 320.685C562.15 320.305 562.987 319.291 562.744 318.273C562.505 317.267 561.394 316.751 560.396 316.466C556.942 315.478 553.042 315.152 550.162 317.699Z" fill="#76160D"/>
<path d="M585.811 317.901C586.305 318.354 586.752 318.887 586.978 319.526C587.205 320.165 587.181 320.925 586.797 321.479C586.368 322.097 585.575 322.351 584.836 322.329C584.097 322.308 583.387 322.057 582.675 321.855C581.211 321.44 579.696 321.219 578.178 321.204C577.16 321.194 576.107 321.268 575.159 320.888C574.211 320.508 573.403 319.494 573.637 318.477C573.87 317.47 574.944 316.955 575.911 316.669C579.251 315.682 583.024 315.354 585.811 317.901Z" fill="#76160D"/>
<path d="M542.702 290.385C548.846 286.915 555.686 284.328 562.871 283.407C570.055 282.486 577.6 283.296 584.069 286.252C592.79 290.237 598.829 297.644 604.503 304.806C605.098 305.558 605.721 306.502 605.305 307.345C600.867 306.941 596.493 305.984 592.345 304.509C596.536 306.78 599.92 310.05 603.246 313.276C605.545 315.507 608.022 318.35 607.064 321.267C602.488 321.254 598.566 318.546 594.583 316.52C590.983 314.688 587.102 313.352 583.219 312.071C575.987 309.684 568.597 307.442 560.92 306.868C553.243 306.293 545.158 307.53 538.903 311.571C538.243 310.964 537.583 310.357 536.922 309.75C534.321 314.251 541.128 319.868 538.582 324.396C538.106 325.244 535.608 333.174 534.778 333.762C532.467 335.398 530.769 329.058 528.356 327.543C525.962 326.042 525.702 323.001 525.673 320.377C525.647 317.993 525.62 315.608 525.594 313.223C525.579 311.751 525.564 310.265 525.89 308.822C526.191 307.493 526.775 306.23 527.354 304.976C530.204 298.829 536.48 293.899 542.702 290.385Z" fill="#76160D"/>
<path d="M633.604 357.091C636.537 355.413 637.689 363.03 639.249 365.906C640.32 360.054 642.093 348.843 644.687 349.112C647.283 349.382 644.852 359.6 643.685 363.989C646.341 359.129 649.178 348.319 651.635 349.06C654.092 349.8 650.232 360.546 648.431 366.115C653.319 354.576 656.8 351.85 657.978 352.233C659.312 352.666 657.777 357.591 653.592 367.259C656.112 362.912 661.453 357.518 662.796 358.706C664.139 359.894 658.655 367.07 656.37 370.336C650.385 378.889 646.91 385.604 639.728 382.948C632.547 380.292 630.671 358.77 633.604 357.091Z" fill="#FACEBC"/>
<path opacity="0.5" d="M652.105 358.125C655.001 353.103 657.044 351.758 657.895 352.034C659.249 352.474 657.692 357.469 653.446 367.278C656.002 362.868 661.42 357.395 662.782 358.601C664.145 359.806 658.582 367.085 656.264 370.398C651.761 376.832 648.658 382.231 644.384 383.498C647.908 375.483 650.316 366.887 652.105 358.125Z" fill="#FACEBC"/>
<path d="M575.731 381.262C577.33 379.155 579.536 378.053 582.004 378.115C587.974 378.266 593.245 382.882 598.255 387.563C605.494 394.327 612.601 401.492 619.899 408.114C620.8 405.925 621.747 403.767 622.522 401.522C624.4 396.082 626.185 390.585 627.887 385.024C629.494 379.774 631.539 373.914 636.359 373.637C638.801 373.497 645.146 376.681 646.987 379.131C650.842 384.258 647.455 389.818 646.177 395.784C645.141 400.615 643.076 404.797 641.035 408.909C638.617 413.782 636.375 418.817 633.981 423.711C632.746 426.235 631.427 429.35 629.578 431.408C627.99 434.403 624.508 435.442 621.127 434.231C616.138 432.444 611.366 428.361 606.654 425.188C598.893 419.961 563.986 396.745 575.731 381.262Z" fill="#E41718"/>
<path opacity="0.78" d="M584.754 394.114C587.985 397.395 591.291 400.599 594.579 403.815C597.98 407.14 601.518 410.308 605.156 413.342C608.858 416.43 612.666 419.376 616.546 422.21C619.192 424.142 622.466 426.495 625.599 424.309C627.278 423.136 628.474 421.299 629.592 419.572C630.905 417.545 632.084 415.419 633.118 413.219C635.185 408.814 636.778 404.157 638.173 399.472C639.528 394.921 640.697 390.329 642.29 385.862C643.291 383.055 644.337 380.196 644.94 377.25C645.811 377.88 646.537 378.526 646.99 379.128C650.845 384.254 647.457 389.815 646.179 395.781C645.144 400.612 643.078 404.794 641.037 408.906C638.619 413.779 636.378 418.814 633.983 423.708C632.748 426.232 631.429 429.347 629.58 431.405C627.992 434.4 624.51 435.439 621.129 434.228C616.141 432.441 611.368 428.358 606.656 425.185C599.168 420.142 566.439 398.369 574.66 382.938C577.801 386.891 581.272 390.578 584.754 394.114Z" fill="#A41916"/>
<path d="M548.941 657.773C548.941 657.773 562.402 659.625 573.529 659.033C584.658 658.441 598.974 656.22 598.974 656.22C599.138 645.339 590.636 642.176 579.904 642.509L559.259 637.758C553.724 637.93 549.169 642.619 549.084 648.231L548.941 657.773Z" fill="#7E432B"/>
<path d="M547.232 658.144C564.217 661.096 582.199 660.981 600.229 657.545C600.131 656.672 600.03 655.801 599.927 654.93C582.239 658.307 564.606 658.426 547.955 655.537C547.715 656.407 547.475 657.275 547.232 658.144Z" fill="black"/>
<path d="M550.292 638.563C555.752 612.461 557.594 577.186 556.244 546.694C555.775 502.171 544.051 471.379 553.371 452.262C555.232 451.344 577.854 449.276 578.436 447.477C587.597 481.321 589.332 524.627 589.436 547.419C589.599 582.658 586.123 603.564 577.791 640.752C577.312 650.643 545.756 647.663 550.292 638.563Z" fill="#4BB169"/>
<path d="M511.408 657.618C511.408 657.618 524.789 662.179 538.157 663.375C551.525 664.572 563.702 664.075 563.702 664.075C565.729 652.102 557.35 647.351 546.037 646.124L525.193 637.817C519.358 637.184 513.781 641.677 512.735 647.852L511.408 657.618Z" fill="#7E432B"/>
<path d="M510.356 658.699C527.336 664.732 545.765 667.252 564.71 665.821C564.732 664.767 564.75 663.712 564.767 662.657C546.181 664.07 528.107 661.604 511.463 655.695C511.097 656.697 510.728 657.698 510.356 658.699Z" fill="black"/>
<path d="M514.888 639.341C518.758 613.16 519.202 580.79 519.492 550.968C521.394 507.579 517.622 475.948 527.81 458.306C529.69 457.606 552.063 457.942 552.731 456.25C559.95 490.146 554.336 531.442 553.229 553.64C551.518 587.961 548.828 609.728 541.835 644.328C540.837 653.905 509.94 647.729 514.888 639.341Z" fill="#4BB169"/>
<path d="M582.625 379.431C570.039 374.636 559.066 374.932 537.96 376.922C514.874 379.099 521.355 419.18 521.643 444.135C521.652 444.928 521.609 445.737 521.534 446.555C522.447 447.414 523.055 448.671 523.061 450.333C523.094 458.833 525.88 466.838 527.217 475.087C532.492 475.766 539.964 476.185 549.859 477.833C570.708 481.304 584.319 474.34 584.458 470.199C585.364 443.237 588.98 405.334 590.188 389.519C589.92 385.455 586.614 381.594 582.625 379.431Z" fill="#E41718"/>
<path d="M518.277 488.304C518.104 487.904 517.928 487.499 517.74 487.062C519.198 469.871 519.837 464.27 519.796 447.793C519.792 446.297 520.219 443.926 520.803 442.559C522.252 439.168 523.32 441.174 525.74 443.322C532.663 449.465 538.998 448.164 542.856 434.37C545.832 428.011 539.416 410.077 550.054 411.579C563.319 412.988 577.238 408.552 589.448 405.471C591.621 404.923 593.71 406.609 593.865 409.003C594.43 417.692 590.684 432.111 589.863 445.668C589.863 445.668 600.005 544.734 600.005 565.554C600.005 573.578 533.751 576.496 522.183 571.025C522.183 571.025 524.988 505.737 517.976 488.594L518.277 488.304Z" fill="#F9B215"/>
<path d="M592.151 413.71C592.518 413.655 592.771 413.292 592.703 412.911C592.119 409.612 590.79 395.788 587.591 387.713C584.25 379.281 577.125 374.947 575.986 374.297C575.884 374.239 575.773 374.214 575.655 374.22L566.833 374.653C566.226 374.683 565.983 375.492 566.465 375.875C569.683 378.436 577.163 385.198 579.942 394.632C582.932 404.784 583.859 412.498 584.085 414.775C584.123 415.155 584.451 415.419 584.811 415.365L592.151 413.71Z" fill="#791A15"/>
<path d="M557.129 420.243C557.524 420.181 557.849 419.762 557.841 419.319C557.768 415.493 557.345 399.035 555.309 389.662C553.182 379.875 546.406 374.819 545.316 374.061C545.218 373.992 545.104 373.963 544.98 373.97L534.375 378C533.732 378.031 533.996 378.699 534.439 379.146C537.401 382.128 544.764 386.699 546.135 397.645C547.61 409.422 547.318 418.367 547.181 421.005C547.158 421.446 547.461 421.752 547.848 421.693L557.129 420.243Z" fill="#791A15"/>
<path d="M507.999 519.779C505.069 521.462 503.904 513.847 502.339 510.974C501.278 516.827 499.525 528.041 496.929 527.777C494.334 527.512 496.747 517.29 497.905 512.899C495.257 517.764 492.439 528.579 489.98 527.842C487.522 527.107 491.364 516.354 493.155 510.782C488.288 522.33 484.812 525.062 483.633 524.682C482.297 524.25 483.824 519.324 487.993 509.647C485.48 514 480.149 519.404 478.804 518.219C477.459 517.034 482.931 509.847 485.21 506.577C491.18 498.013 494.643 491.291 501.829 493.934C509.015 496.575 510.929 518.094 507.999 519.779Z" fill="#FACEBC"/>
<path opacity="0.5" d="M489.716 518.931C486.775 524.054 484.694 525.429 483.827 525.149C482.446 524.703 484.024 519.61 488.334 509.608C485.736 514.106 480.225 519.692 478.835 518.467C477.444 517.241 483.1 509.813 485.457 506.434C490.033 499.869 493.187 494.362 497.539 493.062C493.962 501.236 491.524 510 489.716 518.931Z" fill="#FACEBC"/>
<path d="M536.126 412.773C536.126 412.773 542.59 394.17 541.42 389.637C540.249 385.105 539.214 380.709 535.627 379.51C532.041 378.313 527.446 378.45 521.992 385.355C516.538 392.259 491.43 448.729 491.134 494.895C491.725 501.358 507.698 502.897 508.881 498.896C512.727 466.889 536.126 412.773 536.126 412.773Z" fill="#E41718"/>
<path opacity="0.78" d="M521.992 385.356C525.761 380.584 529.119 379.046 532.018 378.945C531.371 379.724 530.72 380.499 530.099 381.3C528.485 383.376 527.018 385.572 525.69 387.858C523.005 392.477 520.879 397.424 519.059 402.472C517.215 407.584 515.687 412.813 514.221 418.055C512.65 423.67 511.032 429.271 509.422 434.875C506.119 446.371 502.843 457.883 500.093 469.539C497.787 479.31 495.863 489.192 494.622 499.173C492.688 498.148 491.3 496.718 491.133 494.897C491.43 448.731 516.538 392.261 521.992 385.356Z" fill="#A41916"/>
</g>
<defs>
<filter id="filter0_d_2582_70948" x="469.308" y="273.761" width="202.983" height="401.736" filterUnits="userSpaceOnUse" color-interpolation-filters="sRGB">
<feFlood flood-opacity="0" result="BackgroundImageFix"/>
<feColorMatrix in="SourceAlpha" type="matrix" values="0 0 0 0 0 0 0 0 0 0 0 0 0 0 0 0 0 0 127 0" result="hardAlpha"/>
<feOffset/>
<feGaussianBlur stdDeviation="4.64308"/>
<feComposite in2="hardAlpha" operator="out"/>
<feColorMatrix type="matrix" values="0 0 0 0 1 0 0 0 0 1 0 0 0 0 1 0 0 0 0.5 0"/>
<feBlend mode="normal" in2="BackgroundImageFix" result="effect1_dropShadow_2582_70948"/>
<feBlend mode="normal" in="SourceGraphic" in2="effect1_dropShadow_2582_70948" result="shape"/>
</filter>
</defs>
</svg>
