<?xml version="1.0" encoding="UTF-8"?>
<svg version="1.1" xmlns="http://www.w3.org/2000/svg" width="100" height="100">
<path d="M0 0 C1.87109375 0.29296875 1.87109375 0.29296875 3.80859375 1.60546875 C6.29310468 5.55145669 5.98796744 9.50091326 5.93359375 13.98046875 C5.92908203 14.68236328 5.92457031 15.38425781 5.91992188 16.10742188 C5.90816302 17.83597413 5.89022829 19.5644824 5.87109375 21.29296875 C6.47308594 21.09832031 7.07507812 20.90367188 7.6953125 20.703125 C9.87109375 20.29296875 9.87109375 20.29296875 12.68359375 21.73046875 C16.37720978 23.54106484 18.81150062 23.3681464 22.87109375 23.29296875 C24.20442708 23.95963542 25.53776042 24.62630208 26.87109375 25.29296875 C28.02609375 25.25171875 29.18109375 25.21046875 30.37109375 25.16796875 C33.87109375 25.29296875 33.87109375 25.29296875 36.06323242 26.79296875 C38.55915023 30.24444726 38.39195484 33.32185169 38.296875 37.41796875 C38.29194283 38.59383545 38.29194283 38.59383545 38.28691101 39.79345703 C38.27118395 42.293858 38.22713781 44.79291436 38.18359375 47.29296875 C38.17210011 48.9752495 38.16231562 50.65754285 38.15429688 52.33984375 C38.14086995 53.9492324 38.12594619 55.5586094 38.109375 57.16796875 C38.10198807 57.92223145 38.09460114 58.67649414 38.08699036 59.45361328 C38.02476911 62.8835201 37.83531621 65.99834614 36.87109375 69.29296875 C36.35017326 74.07092276 36.35017326 74.07092276 38.36328125 78.1640625 C40.28365606 80.87547253 40.27297397 82.56264181 40.24609375 85.85546875 C40.25769531 87.28052734 40.25769531 87.28052734 40.26953125 88.734375 C39.87109375 91.29296875 39.87109375 91.29296875 38.72265625 93.0078125 C34.42012582 95.99416801 29.39506712 96.64084026 24.30859375 97.35546875 C19.57402509 98.03024237 14.92100479 98.8537021 10.24609375 99.85546875 C-2.53359276 101.51209478 -2.53359276 101.51209478 -5.91796875 98.92578125 C-8.39657798 95.58365654 -8.49481374 91.31795112 -8.12890625 87.29296875 C-7.07614015 83.48523683 -5.91758944 79.74448144 -4.02734375 76.265625 C-2.85258512 74.04753312 -2.85258512 74.04753312 -3.12890625 70.29296875 C-3.68320312 70.03644531 -4.2375 69.77992187 -4.80859375 69.515625 C-7.46198218 68.11745904 -9.81452552 66.47444393 -12.25390625 64.73046875 C-15.57982373 62.32565209 -15.57982373 62.32565209 -19.12890625 60.29296875 C-19.12890625 59.63296875 -19.12890625 58.97296875 -19.12890625 58.29296875 C-19.85078125 58.06609375 -20.57265625 57.83921875 -21.31640625 57.60546875 C-24.89155658 55.93706526 -26.76014024 54.4738831 -29.12890625 51.29296875 C-29.76614555 48.1672001 -29.76130366 45.41881883 -29.12890625 42.29296875 C-27.62890625 40.23046875 -27.62890625 40.23046875 -25.12890625 39.29296875 C-19.29471556 38.80678619 -14.76596072 39.85654205 -9.12890625 41.29296875 C-9.1446167 40.15754639 -9.16032715 39.02212402 -9.17651367 37.85229492 C-9.23078657 33.64240606 -9.26524662 29.43254816 -9.29370117 25.22241211 C-9.30879385 23.39976808 -9.3292702 21.57716039 -9.35522461 19.75463867 C-9.39158728 17.13581375 -9.40862749 14.51746868 -9.421875 11.8984375 C-9.43735886 11.08271774 -9.45284271 10.26699799 -9.46879578 9.42655945 C-9.47049854 3.71121577 -9.47049854 3.71121577 -7.72871399 1.5785675 C-5.22597668 -0.43262165 -3.09663501 -0.11931988 0 0 Z " fill="#ECBD80" transform="translate(44.12890625,-0.29296875)"/>
<path d="M0 0 C1.87109375 0.29296875 1.87109375 0.29296875 3.80859375 1.60546875 C6.29310468 5.55145669 5.98796744 9.50091326 5.93359375 13.98046875 C5.92908203 14.68236328 5.92457031 15.38425781 5.91992188 16.10742188 C5.90816302 17.83597413 5.89022829 19.5644824 5.87109375 21.29296875 C6.47308594 21.09832031 7.07507812 20.90367188 7.6953125 20.703125 C9.87109375 20.29296875 9.87109375 20.29296875 12.68359375 21.73046875 C16.37720978 23.54106484 18.81150062 23.3681464 22.87109375 23.29296875 C24.20442708 23.95963542 25.53776042 24.62630208 26.87109375 25.29296875 C28.02609375 25.25171875 29.18109375 25.21046875 30.37109375 25.16796875 C33.87109375 25.29296875 33.87109375 25.29296875 36.06323242 26.79296875 C38.55915023 30.24444726 38.39195484 33.32185169 38.296875 37.41796875 C38.29194283 38.59383545 38.29194283 38.59383545 38.28691101 39.79345703 C38.27118395 42.293858 38.22713781 44.79291436 38.18359375 47.29296875 C38.17210011 48.9752495 38.16231562 50.65754285 38.15429688 52.33984375 C38.14086995 53.9492324 38.12594619 55.5586094 38.109375 57.16796875 C38.10198807 57.92223145 38.09460114 58.67649414 38.08699036 59.45361328 C38.02476911 62.8835201 37.83531621 65.99834614 36.87109375 69.29296875 C36.35017326 74.07092276 36.35017326 74.07092276 38.36328125 78.1640625 C40.28365606 80.87547253 40.27297397 82.56264181 40.24609375 85.85546875 C40.25769531 87.28052734 40.25769531 87.28052734 40.26953125 88.734375 C39.87109375 91.29296875 39.87109375 91.29296875 38.72265625 93.0078125 C34.42012582 95.99416801 29.39506712 96.64084026 24.30859375 97.35546875 C19.57402509 98.03024237 14.92100479 98.8537021 10.24609375 99.85546875 C-2.53359276 101.51209478 -2.53359276 101.51209478 -5.91796875 98.92578125 C-8.39657798 95.58365654 -8.49481374 91.31795112 -8.12890625 87.29296875 C-7.07614015 83.48523683 -5.91758944 79.74448144 -4.02734375 76.265625 C-2.85258512 74.04753312 -2.85258512 74.04753312 -3.12890625 70.29296875 C-3.68320312 70.03644531 -4.2375 69.77992187 -4.80859375 69.515625 C-7.46198218 68.11745904 -9.81452552 66.47444393 -12.25390625 64.73046875 C-15.57982373 62.32565209 -15.57982373 62.32565209 -19.12890625 60.29296875 C-19.12890625 59.63296875 -19.12890625 58.97296875 -19.12890625 58.29296875 C-19.85078125 58.06609375 -20.57265625 57.83921875 -21.31640625 57.60546875 C-24.89155658 55.93706526 -26.76014024 54.4738831 -29.12890625 51.29296875 C-29.76614555 48.1672001 -29.76130366 45.41881883 -29.12890625 42.29296875 C-27.62890625 40.23046875 -27.62890625 40.23046875 -25.12890625 39.29296875 C-19.29471556 38.80678619 -14.76596072 39.85654205 -9.12890625 41.29296875 C-9.1446167 40.15754639 -9.16032715 39.02212402 -9.17651367 37.85229492 C-9.23078657 33.64240606 -9.26524662 29.43254816 -9.29370117 25.22241211 C-9.30879385 23.39976808 -9.3292702 21.57716039 -9.35522461 19.75463867 C-9.39158728 17.13581375 -9.40862749 14.51746868 -9.421875 11.8984375 C-9.43735886 11.08271774 -9.45284271 10.26699799 -9.46879578 9.42655945 C-9.47049854 3.71121577 -9.47049854 3.71121577 -7.72871399 1.5785675 C-5.22597668 -0.43262165 -3.09663501 -0.11931988 0 0 Z M-6.12890625 4.29296875 C-6.21761898 7.32274679 -6.24409975 10.32963897 -6.2265625 13.359375 C-6.22444008 14.72230934 -6.22444008 14.72230934 -6.22227478 16.11277771 C-6.21665818 19.02704096 -6.2041029 21.94122856 -6.19140625 24.85546875 C-6.18639339 26.82617077 -6.18183011 28.79687399 -6.17773438 30.76757812 C-6.16668336 35.60940434 -6.14940763 40.4511737 -6.12890625 45.29296875 C-6.92554687 45.07640625 -7.7221875 44.85984375 -8.54296875 44.63671875 C-9.60257813 44.35828125 -10.6621875 44.07984375 -11.75390625 43.79296875 C-12.79804688 43.51453125 -13.8421875 43.23609375 -14.91796875 42.94921875 C-18.1239544 42.29398081 -20.86872113 42.03140662 -24.12890625 42.29296875 C-26.34199256 44.16090461 -26.34199256 44.16090461 -26.7890625 46.9765625 C-25.7300863 52.29650802 -21.81454563 54.29932483 -17.56640625 57.35546875 C-16.36661133 58.25362305 -16.36661133 58.25362305 -15.14257812 59.16992188 C-12.82054386 60.90054823 -10.47753098 62.59868723 -8.12890625 64.29296875 C-7.09854248 65.05843018 -7.09854248 65.05843018 -6.04736328 65.83935547 C-2.91849028 68.41869501 -2.91849028 68.41869501 0.87109375 69.29296875 C0.87109375 71.27296875 0.87109375 73.25296875 0.87109375 75.29296875 C11.10109375 75.29296875 21.33109375 75.29296875 31.87109375 75.29296875 C33.84909144 68.36997685 35.02754919 62.79246815 35.0390625 55.65625 C35.0423909 54.9355986 35.0457193 54.2149472 35.04914856 53.47245789 C35.05419031 51.95714961 35.05655774 50.44183033 35.05639648 48.92651367 C35.05859654 46.6025192 35.07681751 44.2789896 35.09570312 41.95507812 C35.09863487 40.48047037 35.10062113 39.00586037 35.1015625 37.53125 C35.10874802 36.83542313 35.11593353 36.13959625 35.12333679 35.42268372 C35.2143056 31.41099715 35.2143056 31.41099715 32.87109375 28.29296875 C30.37109375 27.87630208 30.37109375 27.87630208 27.87109375 28.29296875 C25.66195375 31.60667875 25.64627822 32.63757085 25.74609375 36.48046875 C25.76414063 37.38152344 25.7821875 38.28257813 25.80078125 39.2109375 C25.82398438 39.89800781 25.8471875 40.58507813 25.87109375 41.29296875 C25.21109375 41.29296875 24.55109375 41.29296875 23.87109375 41.29296875 C23.89429688 40.37773438 23.9175 39.4625 23.94140625 38.51953125 C23.95945313 37.33101562 23.9775 36.1425 23.99609375 34.91796875 C24.01929688 33.73460938 24.0425 32.55125 24.06640625 31.33203125 C24.19975604 28.18143058 24.19975604 28.18143058 21.87109375 26.29296875 C19.32919373 26.04289145 19.32919373 26.04289145 16.87109375 26.29296875 C15.55846804 27.37849241 15.55846804 27.37849241 15.7734375 30.015625 C15.78503906 31.11777344 15.79664063 32.21992187 15.80859375 33.35546875 C15.81761719 34.46019531 15.82664063 35.56492188 15.8359375 36.703125 C15.84753906 37.55777344 15.85914063 38.41242187 15.87109375 39.29296875 C14.88109375 39.29296875 13.89109375 39.29296875 12.87109375 39.29296875 C12.89429688 38.37773438 12.9175 37.4625 12.94140625 36.51953125 C12.95945313 35.33101562 12.9775 34.1425 12.99609375 32.91796875 C13.01929688 31.73460938 13.0425 30.55125 13.06640625 29.33203125 C13.19975604 26.18143058 13.19975604 26.18143058 10.87109375 24.29296875 C8.32919373 24.04289145 8.32919373 24.04289145 5.87109375 24.29296875 C4.55846804 25.37849241 4.55846804 25.37849241 4.7734375 28.015625 C4.78503906 29.11777344 4.79664062 30.21992188 4.80859375 31.35546875 C4.81761719 32.46019531 4.82664062 33.56492187 4.8359375 34.703125 C4.84753906 35.55777344 4.85914062 36.41242187 4.87109375 37.29296875 C3.88109375 37.29296875 2.89109375 37.29296875 1.87109375 37.29296875 C1.87633057 36.2985376 1.88156738 35.30410645 1.88696289 34.27954102 C1.90501416 30.60262954 1.91652621 26.925722 1.92602539 23.2487793 C1.93106532 21.65502261 1.93789725 20.06127056 1.9465332 18.4675293 C1.95861374 16.18146622 1.9643253 13.89546408 1.96875 11.609375 C1.97391129 10.89270157 1.97907257 10.17602814 1.98439026 9.43763733 C1.98458638 7.72233203 1.93301382 6.00715609 1.87109375 4.29296875 C0.75273151 2.948921 0.75273151 2.948921 -2.12890625 3.16796875 C-5.01054401 2.948921 -5.01054401 2.948921 -6.12890625 4.29296875 Z " fill="#484D4A" transform="translate(44.12890625,-0.29296875)"/>
<path d="M0 0 C1.47057839 0.00031709 2.94118001 0.01164091 4.41162109 0.03173828 C5.18565277 0.03456818 5.95968445 0.03739807 6.75717163 0.04031372 C9.23329016 0.05152325 11.70904909 0.07662875 14.18505859 0.10205078 C15.86213671 0.1120796 17.53922049 0.12120562 19.21630859 0.12939453 C23.33103082 0.15146504 27.44548371 0.18599977 31.56005859 0.22705078 C29.40371823 2.38339114 27.18907147 3.70499069 24.56005859 5.22705078 C24.89005859 6.87705078 25.22005859 8.52705078 25.56005859 10.22705078 C29.02505859 9.73205078 29.02505859 9.73205078 32.56005859 9.22705078 C32.89005859 7.90705078 33.22005859 6.58705078 33.56005859 5.22705078 C34.05505859 8.69205078 34.05505859 8.69205078 34.56005859 12.22705078 C26.43666343 14.35512106 18.30644383 16.37960928 10.06005859 17.97705078 C8.18833984 18.34056641 8.18833984 18.34056641 6.27880859 18.71142578 C2.26190814 19.26839097 -1.39122535 19.3854788 -5.43994141 19.22705078 C-6.43994141 18.22705078 -6.43994141 18.22705078 -6.57275391 16.40673828 C-6.51859634 0.43025512 -6.51859634 0.43025512 0 0 Z " fill="#63C4CC" transform="translate(46.43994140625,77.77294921875)"/>
<path d="M0 0 C0.33 1.98 0.66 3.96 1 6 C-1.1875 8.0625 -1.1875 8.0625 -4 10 C-6.8125 9.75 -6.8125 9.75 -9 9 C-9.6875 6.6875 -9.6875 6.6875 -10 4 C-7.34201574 0.27882204 -4.45663538 0 0 0 Z " fill="#5DAFB6" transform="translate(80,79)"/>
<path d="M0 0 C2.0625 0.4375 2.0625 0.4375 4 1 C4.125 3.375 4.125 3.375 4 6 C3.34 6.66 2.68 7.32 2 8 C-0.625 7.625 -0.625 7.625 -3 7 C-2.67 5.68 -2.34 4.36 -2 3 C-2 3.66 -2 4.32 -2 5 C-0.68 5 0.64 5 2 5 C1.01 3.68 0.02 2.36 -1 1 C-0.67 0.67 -0.34 0.34 0 0 Z " fill="#435151" transform="translate(74,81)"/>
<path d="M0 0 C2.51083114 1.25541557 2.87125446 2.50063488 4 5 C2.02 5.33 0.04 5.66 -2 6 C-1.125 1.125 -1.125 1.125 0 0 Z " fill="#508084" transform="translate(72,81)"/>
</svg>
