<svg width="64" height="64" viewBox="0 0 64 64" fill="none" xmlns="http://www.w3.org/2000/svg">
<g clip-path="url(#clip0_2010_12641)">
<path d="M2.67513 23.128V40.8694C2.66748 43.6088 3.21515 46.3203 4.28377 48.8335C5.32456 51.2729 6.82278 53.4813 8.69414 55.3344C10.5805 57.2074 12.8024 58.693 15.2386 59.7103C17.781 60.7797 20.5051 61.3271 23.2551 61.3211H40.7196C43.4696 61.3271 46.1937 60.7797 48.736 59.7103C51.1711 58.6923 53.3919 57.2068 55.2778 55.3344C57.1509 53.4828 58.6494 51.274 59.6882 48.8335C60.761 46.3211 61.3132 43.6097 61.3103 40.8694V23.128C61.3136 20.3876 60.7613 17.6761 59.6882 15.1639C58.6503 12.7204 57.1518 10.5088 55.2778 8.65476C53.3919 6.78242 51.1711 5.2969 48.736 4.27889C46.1937 3.20949 43.4696 2.66208 40.7196 2.66802H23.2765C20.5265 2.66208 17.8024 3.20949 15.2601 4.27889C12.8251 5.29857 10.6037 6.78387 8.71559 8.65476C6.97164 10.3831 5.55234 12.4223 4.52775 14.6716C4.45268 14.8384 4.37761 15.0052 4.30522 15.1721C3.23032 17.6811 2.67535 20.3898 2.67513 23.128Z" fill="#D58900"/>
<path d="M62.1688 14.1259C60.9925 11.3671 59.2984 8.86972 57.182 6.77446C55.0489 4.65495 52.5369 2.97264 49.7822 1.81879C46.9077 0.612161 43.8286 -0.00582035 40.7202 5.81001e-05H23.2771C20.1652 -0.00689948 17.0823 0.611096 14.2044 1.81879L13.6199 2.07585C11.0928 3.21571 8.78573 4.80692 6.80727 6.77446C5.12614 8.43902 3.70881 10.36 2.60602 12.4686C2.32183 13.0155 2.06981 13.5625 1.82047 14.1259V14.1533C1.75076 14.3155 1.68373 14.4769 1.61939 14.6374C1.37809 15.2445 1.16628 15.8571 0.978609 16.4752C0.477757 18.1257 0.167336 19.8301 0.053639 21.554C0.0161039 22.0764 1.83107e-05 22.6015 1.83107e-05 23.1293V40.8707C-0.00389511 43.9685 0.619522 47.0336 1.83119 49.8741C3.00655 52.6334 4.70075 55.131 6.81799 57.2256C8.94745 59.3432 11.4547 61.0254 14.2044 62.1812C17.0798 63.3879 20.1598 64.0058 23.2691 64H40.7202C42.0886 64.0011 43.4547 63.883 44.8035 63.6471C45.5488 63.5159 46.2888 63.3463 47.0207 63.1439C47.9597 62.881 48.8819 62.5595 49.7822 62.1812L50.1415 62.0254C52.7569 60.8792 55.1434 59.2522 57.182 57.2256C59.0199 55.4037 60.5411 53.2767 61.6808 50.9352C61.8524 50.5824 62.0133 50.2269 62.1688 49.8632C63.3805 47.0227 64.0039 43.9575 64 40.8598V23.1184C64.0024 20.0243 63.379 16.963 62.1688 14.1259ZM57.2115 47.7928C56.3079 49.9146 55.0054 51.8352 53.3776 53.4459C51.7382 55.0762 49.8067 56.3696 47.6883 57.2556C47.3988 57.3787 47.1092 57.4908 46.817 57.5975C45.5218 58.0606 44.1802 58.3752 42.8168 58.5356C42.1207 58.6156 41.4207 58.6557 40.7202 58.6559H23.2771C20.8858 58.6618 18.5169 58.186 16.3063 57.2556C14.1879 56.3696 12.2564 55.0762 10.6171 53.4459C8.98928 51.8346 7.68596 49.9142 6.78046 47.7928C5.84984 45.6088 5.37156 43.2522 5.37558 40.8707V23.1293C5.37518 22.0279 5.47752 20.929 5.68122 19.8474C5.78528 19.2874 5.91773 18.7333 6.07802 18.1873C6.15309 17.9138 6.2362 17.6677 6.32468 17.4106C6.46052 17.0076 6.61244 16.6102 6.78046 16.2182C6.85821 16.0404 6.93596 15.8626 7.01639 15.6903C7.90764 13.7767 9.12704 12.041 10.6171 10.5651C12.2561 8.92953 14.1886 7.6314 16.309 6.74165C16.7085 6.57208 17.1133 6.42165 17.5182 6.28216C19.3762 5.65701 21.3206 5.3403 23.2771 5.34411H40.7202C43.1113 5.33745 45.4802 5.81238 47.691 6.74165C49.8094 7.62763 51.7409 8.92107 53.3802 10.5514C55.0081 12.1621 56.3106 14.0826 57.2142 16.2045C58.1469 18.3879 58.6262 20.7448 58.6217 23.1266V40.868C58.6253 43.2465 58.148 45.6001 57.2195 47.7819L57.2115 47.7928Z" fill="#E78B01"/>
<path d="M38.3344 8.31657C38.3344 8.31657 44.9861 7.94736 49.804 11.325C54.6219 14.7026 51.898 15.668 45.6189 13.5129C39.3398 11.3578 32.436 8.76236 38.3344 8.31657Z" fill="#D58900"/>
<path d="M32.8742 8.16544C30.7749 8.03416 28.3539 8.05331 28.0483 9.13092C27.7426 10.2085 31.6329 10.0581 33.0914 9.72444C34.5499 9.39076 34.07 8.23929 32.8742 8.16544Z" fill="#D58900"/>
<path d="M4.32974 23.1292V40.8707C4.32573 43.3917 4.83327 45.8863 5.82041 48.1975C6.77692 50.4437 8.15599 52.4767 9.87956 54.1815C11.6151 55.9063 13.6594 57.2749 15.9013 58.2128C18.2402 59.1972 20.7467 59.701 23.2769 59.6951H40.72C43.2502 59.701 45.7567 59.1972 48.0956 58.2128C50.3371 57.2742 52.3813 55.9057 54.1173 54.1815C55.8391 52.4758 57.2171 50.4429 58.1738 48.1975C58.4836 47.4721 58.746 46.7266 58.9593 45.9658C59.4286 44.3099 59.6652 42.5944 59.6618 40.8707V23.1292C59.6651 20.6085 59.1585 18.1142 58.1738 15.8024C57.2163 13.5567 55.8373 11.5239 54.1146 9.81835C52.3786 8.09414 50.3344 6.72565 48.0929 5.78708C45.754 4.80263 43.2475 4.29888 40.7173 4.30474H23.2769C20.7467 4.29888 18.2402 4.80263 15.9013 5.78708C13.6594 6.72499 11.6151 8.09355 9.87956 9.81835C8.46813 11.2148 7.28589 12.8335 6.37808 14.6127C6.17789 15.001 5.992 15.3976 5.82041 15.8024C4.83327 18.1136 4.32573 20.6082 4.32974 23.1292ZM6.42366 23.1292C6.42112 20.1119 7.23774 17.1527 8.783 14.5799C10.3071 12.0599 12.4406 9.98183 14.9787 8.54507C17.5168 7.10831 20.3742 6.36108 23.2769 6.37509H40.72C50.0287 6.37509 57.5732 13.8715 57.5732 23.1183V40.8597C57.5733 41.6984 57.5105 42.5359 57.3855 43.3649C56.1683 51.4247 49.1707 57.6029 40.72 57.6029H23.2769C13.9682 57.6029 6.42366 50.1065 6.42366 40.8597V23.1292Z" fill="#D58900"/>
<path d="M4.65471 22.1536V39.1456C4.65259 41.7188 5.14778 44.2671 6.11195 46.6448C7.07612 49.0226 8.49035 51.1831 10.2738 53.0028C12.0572 54.8226 14.1748 56.2658 16.5054 57.25C18.8361 58.2342 21.3341 58.74 23.8566 58.7386H40.1307C43.9064 58.7385 47.5984 57.6036 50.7455 55.4756C53.8926 53.3475 56.3552 50.3207 57.8258 46.7733C58.3194 45.5957 58.6966 44.3708 58.9518 43.1167C59.2131 41.8145 59.3443 40.4886 59.3433 39.1593V22.1672C59.3454 19.5936 58.85 17.0449 57.8855 14.6668C56.921 12.2887 55.5063 10.1279 53.7223 8.30808C51.9384 6.48827 49.8201 5.04515 47.4888 4.06127C45.1576 3.0774 42.659 2.5721 40.1361 2.57426H23.8566C21.2879 2.56886 18.7445 3.09258 16.3791 4.11402C14.0979 5.09903 12.025 6.52454 10.2742 8.31212C8.6433 9.97123 7.3191 11.9168 6.36523 14.0555C6.29552 14.2141 6.22582 14.3727 6.15879 14.5341C5.16064 16.945 4.6491 19.5364 4.65471 22.1536Z" fill="#FEE580"/>
<path d="M60.1453 13.5297C58.485 9.51653 55.701 6.09222 52.1418 3.68557C48.5826 1.27891 44.4065 -0.00310994 40.1364 3.2737e-05H23.8569C20.952 -0.00507451 18.076 0.58745 15.4008 1.74218C15.2185 1.82149 15.0361 1.90354 14.8646 1.98833C10.4461 4.04236 6.82778 7.54462 4.58531 11.938C4.32257 12.4558 4.07859 12.9855 3.85338 13.527V13.5543C3.78903 13.7075 3.72737 13.8633 3.66838 14.0165C3.44317 14.5963 3.24299 15.1834 3.06783 15.7778C2.60152 17.3613 2.31192 18.9934 2.20452 20.6432C2.17235 21.1437 2.15626 21.6442 2.15626 22.1502V39.1422C2.15379 42.0521 2.71382 44.9339 3.80432 47.6228C4.89481 50.3116 6.49436 52.7547 8.51143 54.8123C10.5285 56.8699 12.9235 58.5016 15.5594 59.6139C18.1953 60.7263 21.0204 61.2976 23.873 61.2951H40.1471C41.4235 61.2966 42.6974 61.1831 43.9542 60.956C44.6513 60.8302 45.343 60.6825 46.024 60.4746C46.9009 60.2228 47.7615 59.9149 48.6005 59.553L48.9357 59.4053C53.6401 57.275 57.4534 53.5149 59.7002 48.791C59.8584 48.4546 60.0112 48.1128 60.156 47.7654C61.287 45.0371 61.8678 42.1044 61.8638 39.1422V22.1502C61.8641 19.1881 61.2796 16.2564 60.1453 13.5297ZM55.5204 45.7744C53.8285 49.8566 50.6458 53.1071 46.646 54.8379C46.3779 54.9565 46.1098 55.0659 45.8417 55.1662C45.1741 55.412 44.4917 55.6139 43.7987 55.7706C43.2412 55.8984 42.6773 55.9961 42.1096 56.0632C41.4609 56.14 40.8083 56.1784 40.1552 56.1781H23.8569C21.6635 56.1802 19.4913 55.7411 17.4644 54.8859C15.4376 54.0307 13.596 52.7761 12.0451 51.194C10.4941 49.6119 9.26427 47.7333 8.42588 45.6658C7.58748 43.5983 7.15703 41.3824 7.15915 39.145V22.1529C7.1577 21.0951 7.25284 20.0394 7.44334 18.9995C7.54165 18.4635 7.66587 17.9329 7.81601 17.4078C7.88572 17.1589 7.96347 16.9101 8.0439 16.6639C8.17259 16.2774 8.31469 15.8972 8.47019 15.5234C8.54258 15.3539 8.61497 15.1843 8.69004 15.0148C10.4408 11.1663 13.5324 8.11988 17.3633 6.46813C17.7333 6.30677 18.1113 6.15909 18.4894 6.02781C20.2165 5.43073 22.0279 5.12675 23.8515 5.12801H40.1257C42.319 5.12549 44.4912 5.564 46.5183 6.41845C48.5453 7.27291 50.3874 8.52657 51.9392 10.1077C53.491 11.6889 54.722 13.5665 55.5619 15.6333C56.4018 17.7001 56.8341 19.9155 56.8341 22.1529V39.145C56.8389 41.4196 56.393 43.6718 55.5231 45.7662L55.5204 45.7744Z" fill="#F2D847"/>
<path d="M18.4938 6.01838C18.1157 6.14966 17.7377 6.29187 17.3677 6.4587C13.5374 8.11357 10.4476 11.163 8.6998 15.0135C7.15138 14.2596 5.7554 13.2159 4.58435 11.9368C6.82566 7.54283 10.443 4.03961 14.8609 1.98438C16.4171 2.95696 17.6755 4.3543 18.4938 6.01838Z" fill="#FFEFA1"/>
<path d="M37.9052 7.96467C37.9052 7.96467 44.1119 7.60912 48.608 10.8447C53.1042 14.0802 50.5599 15.0047 44.7044 12.9425C38.8489 10.8802 32.3982 8.38313 37.9052 7.96467Z" fill="white"/>
<path d="M32.8161 7.83488C30.8589 7.70907 28.5988 7.72822 28.3199 8.75933C28.0411 9.79044 31.6659 9.64821 33.0252 9.32821C34.3845 9.00821 33.9314 7.89232 32.8161 7.83488Z" fill="white"/>
<path d="M7.82055 17.4083C7.67041 17.9334 7.54618 18.464 7.44788 19C6.09393 18.0865 4.39413 16.8913 3.05627 15.7809C3.23501 15.1883 3.4352 14.6012 3.65684 14.0195C4.76948 14.985 6.42907 16.3826 7.82055 17.4083Z" fill="#FFEFA1"/>
<path d="M6.18756 22.1536V39.1457C6.18545 41.5134 6.64097 43.8582 7.52807 46.0462C8.41517 48.2341 9.71644 50.2222 11.3574 51.8967C12.9984 53.5712 14.947 54.8992 17.0916 55.8047C19.2362 56.7103 21.5348 57.1757 23.8559 57.1743H40.13C42.4514 57.1761 44.7504 56.711 46.8955 55.8056C49.0405 54.9002 50.9896 53.5723 52.6311 51.8978C54.2726 50.2234 55.5743 48.2352 56.4619 46.047C57.3495 43.8589 57.8054 41.5137 57.8036 39.1457V22.1536C57.8057 19.7854 57.3501 17.4401 56.4626 15.2518C55.5752 13.0635 54.2734 11.0752 52.6319 9.40065C50.9903 7.72611 49.0411 6.39819 46.8959 5.49294C44.7507 4.58768 42.4515 4.12285 40.13 4.12501H23.8559C20.5913 4.1267 17.3908 5.04959 14.6085 6.79159C11.8262 8.53359 9.57057 11.0268 8.09112 13.9953C7.91239 14.36 7.73901 14.7401 7.57099 15.1358C6.65177 17.3563 6.18124 19.7432 6.18756 22.1536ZM8.13939 22.1536C8.13868 20.0478 8.54468 17.9624 9.33419 16.0167C10.1237 14.071 11.2813 12.3029 12.7407 10.8136C14.2002 9.32435 15.933 8.14294 17.8402 7.3369C19.7473 6.53087 21.7915 6.116 23.8559 6.116H40.13C44.2997 6.116 48.2986 7.80568 51.247 10.8133C54.1954 13.8209 55.8518 17.9002 55.8518 22.1536V39.1457C55.8528 39.9486 55.7936 40.7504 55.6749 41.5442C55.1121 45.3397 53.2333 48.8034 50.3799 51.3061C47.5265 53.8088 43.8878 55.1845 40.1246 55.1832H23.8559C21.7911 55.1836 19.7466 54.769 17.839 53.9632C15.9313 53.1573 14.198 51.976 12.7381 50.4867C11.2781 48.9974 10.12 47.2293 9.33006 45.2834C8.54009 43.3375 8.13367 41.2518 8.13402 39.1457L8.13939 22.1536Z" fill="#D58900"/>
<path d="M30.6253 40.0949H26.4192C26.0108 38.3369 24.1683 36.8992 23.412 35.9519C22.117 34.3268 21.3055 32.3674 21.0708 30.2993C20.8361 28.2312 21.1878 26.1386 22.0855 24.2626C22.9832 22.3865 24.3903 20.8033 26.1446 19.6953C27.899 18.5873 29.9294 17.9997 32.0018 18C34.0742 18.0003 36.1043 18.5887 37.8583 19.6972C39.6124 20.8057 41.0189 22.3894 41.916 24.2658C42.8131 26.1421 43.1642 28.2348 42.9288 30.3028C42.6935 32.3708 41.8813 34.33 40.5858 35.9546C39.8295 36.9006 37.9898 38.3383 37.5814 40.0949H33.3753V33.1898H30.6253V40.0949ZM37.5003 42.8569V44.238C37.5003 44.9705 37.2105 45.673 36.6948 46.191C36.1791 46.709 35.4796 47 34.7503 47H29.2503C28.5209 47 27.8215 46.709 27.3057 46.191C26.79 45.673 26.5003 44.9705 26.5003 44.238V42.8569H37.5003Z" fill="#D58900"/>
</g>
<defs>
<clipPath id="clip0_2010_12641">
<rect width="64" height="64" fill="white"/>
</clipPath>
</defs>
</svg>
