<svg width="72" height="73" viewBox="0 0 72 73" fill="none" xmlns="http://www.w3.org/2000/svg">
<path d="M63.586 8.45331C62.7473 7.70364 54.9961 1.28979 35.9921 1.13281C16.9725 1.293 9.23225 7.72286 8.42012 8.45011C-2.63898 17.7409 0.326876 48.817 0.454943 50.1337C1.34361 59.9211 6.85832 66.3573 17.3021 69.811C25.6186 72.5597 34.3413 72.4348 35.9937 72.3739C36.1952 72.3739 36.634 72.3932 37.2697 72.3932C40.1481 72.3932 47.6088 72.14 54.6962 69.7981C65.1447 66.3445 70.6547 59.9082 71.5418 50.1337C71.6745 48.8298 74.6388 17.7505 63.586 8.45331Z" fill="#FF7206"/>
<path d="M63.4456 7.65806C62.7896 7.07178 55.0618 0.55542 35.9938 0.398438C16.9399 0.55542 9.21211 7.07178 8.55616 7.65806C-2.17965 16.6829 0.626902 46.6794 0.811194 48.5247C1.66862 57.9661 7.08182 64.2229 17.3663 67.606C25.8656 70.4189 34.8584 70.2107 36.0063 70.169C36.2062 70.169 36.6435 70.1882 37.2761 70.1882C40.2716 70.1882 47.6261 69.9223 54.6448 67.5996C64.9246 64.2037 70.3378 57.9596 71.1999 48.5183C71.3748 46.6793 74.183 16.6829 63.4456 7.65806Z" fill="#FFD400"/>
<path d="M62.7405 11.0618C62.7405 11.0618 55.3673 4.25714 35.9994 4.09375C16.6331 4.25714 9.2567 11.0618 9.2567 11.0618C-0.349924 19.0936 2.57532 47.8213 2.57532 47.8213C4.17773 65.7621 30.0193 66.7008 35.9978 66.4862C41.9764 66.7008 67.8179 65.775 69.4203 47.8213C69.4203 47.8213 72.3471 19.0936 62.7405 11.0618Z" fill="#FF9F00"/>
<path d="M60.3907 12.8697L60.7585 12.3956L60.3907 12.8697C60.5005 12.9548 60.6048 13.0404 60.7191 13.1349C63.3422 15.3037 65.0978 19.1079 66.244 23.5031C67.3848 27.8779 67.8966 32.737 68.105 36.9038C68.2411 39.6254 68.2254 43.3878 67.7182 46.961C67.2067 50.5646 66.2116 53.8479 64.4834 55.7298C60.9358 59.593 55.292 61.6832 49.8983 62.7781C44.5225 63.8693 39.5012 63.951 37.3103 63.8753L37.2896 63.8746L37.2688 63.8753C34.4384 63.9733 26.8808 63.8065 19.7727 61.5481C12.6501 59.2852 6.17474 54.9953 5.09476 46.9621L5.09461 46.961C5.0892 46.9208 5.08509 46.8902 5.07926 46.8483L4.48507 46.931L5.07926 46.8483C4.99328 46.2306 4.09906 39.5951 4.28047 32.1842C4.37119 28.478 4.73059 24.6006 5.58459 21.1946C6.44175 17.7761 7.77842 14.9093 9.7664 13.1398C9.88606 13.0333 9.99969 12.9338 10.1157 12.8387C11.2101 11.9422 18.2672 6.74023 34.9828 6.60393C51.8261 6.74124 59.2951 12.0196 60.3907 12.8697Z" fill="url(#paint0_linear_1381_38633)" stroke="url(#paint1_linear_1381_38633)" stroke-width="1.2"/>
<path d="M30.8752 6.16016C15.379 7.12127 9.55976 12.542 9.55976 12.542C0.627829 20.0707 4.50109 46.9916 4.50109 46.9916C4.57799 47.5802 4.6826 48.152 4.81345 48.6991C4.51515 21.0927 15.7976 11.0266 30.8752 6.16016Z" fill="#FF9F00"/>
<path d="M12.3852 14.6358C11.3044 12.6431 9.07884 13.4729 7.41084 16.4876C5.74284 19.5023 5.26806 23.5646 6.35194 25.5573C7.43583 27.55 7.99964 24.4136 9.66608 21.3925C11.3325 18.3714 13.4644 16.6285 12.3852 14.6358Z" fill="white"/>
<path d="M5.97482 26.3339C5.3501 25.8341 4.65822 26.1898 4.33805 27.4937C4.01788 28.7976 4.19437 30.5596 4.80659 31.0626C5.41882 31.5656 6.1841 30.912 6.50427 29.6049C6.82444 28.2978 6.59173 26.8369 5.97482 26.3339Z" fill="white"/>
<path d="M67.6286 27.0547C67.5831 28.646 67.4787 30.2278 67.3162 31.7866C65.6357 48.1063 57.8907 59.723 47.5969 63.7981C56.7459 62.3821 68.1127 58.2781 68.6999 46.985C68.7046 46.985 69.37 36.6915 67.6286 27.0547Z" fill="#FF9F00"/>
<path d="M62.6809 54.2838C63.6774 55.7575 65.514 54.6427 66.7822 51.7946C68.0504 48.9464 68.2722 45.4416 67.2757 43.9678C66.2793 42.4941 65.8701 44.9578 64.6082 47.8123C63.3463 50.6668 61.6845 52.8069 62.6809 54.2838Z" fill="white"/>
<path d="M20 35H21.7778M36 19V20.7778M50.2222 35H52M24.6222 23.6222L25.8667 24.8667M47.3778 23.6222L46.1333 24.8667M31.9097 43.8889H40.0875M30.6667 42.1111C29.1742 40.9917 28.0717 39.4311 27.5154 37.6504C26.9592 35.8696 26.9773 33.959 27.5673 32.1891C28.1572 30.4192 29.2891 28.8798 30.8026 27.789C32.316 26.6981 34.1344 26.1111 36 26.1111C37.8656 26.1111 39.684 26.6981 41.1974 27.789C42.7109 28.8798 43.8428 30.4192 44.4327 32.1891C45.0227 33.959 45.0408 35.8696 44.4846 37.6504C43.9283 39.4311 42.8258 40.9917 41.3333 42.1111C40.6392 42.7982 40.1166 43.639 39.8078 44.5656C39.4989 45.4921 39.4125 46.4783 39.5556 47.4444C39.5556 48.3874 39.181 49.2918 38.5142 49.9586C37.8474 50.6254 36.943 51 36 51C35.057 51 34.1526 50.6254 33.4858 49.9586C32.819 49.2918 32.4444 48.3874 32.4444 47.4444C32.5875 46.4783 32.5011 45.4921 32.1922 44.5656C31.8834 43.639 31.3608 42.7982 30.6667 42.1111Z" stroke="black" stroke-width="3" stroke-linecap="round" stroke-linejoin="round"/>
<defs>
<linearGradient id="paint0_linear_1381_38633" x1="36.2441" y1="6.00391" x2="36.2441" y2="64.4961" gradientUnits="userSpaceOnUse">
<stop stop-color="#FFF16B"/>
<stop offset="1" stop-color="#FFC806"/>
</linearGradient>
<linearGradient id="paint1_linear_1381_38633" x1="12.0501" y1="37.6872" x2="67.3507" y2="37.6872" gradientUnits="userSpaceOnUse">
<stop stop-color="#FF6B00"/>
<stop offset="1" stop-color="#FF6B00" stop-opacity="0.42"/>
</linearGradient>
</defs>
</svg>
