<svg width="60" height="60" viewBox="0 0 60 60" fill="none" xmlns="http://www.w3.org/2000/svg">
<path d="M52.9883 6.7137C52.2894 6.08897 45.8301 0.7441 29.9934 0.613281C14.1438 0.74677 7.69354 6.10499 7.01676 6.71103C-2.19915 14.4533 0.272397 40.3501 0.37912 41.4473C1.11967 49.6035 5.71527 54.9671 14.4184 57.8451C21.3489 60.1357 28.6177 60.0316 29.9947 59.9809C30.1626 59.9809 30.5283 59.9969 31.0581 59.9969C33.4567 59.9969 39.674 59.786 45.5802 57.8344C54.2872 54.9564 58.8789 49.5928 59.6182 41.4473C59.7288 40.3608 62.199 14.4614 52.9883 6.7137Z" fill="#161E65"/>
<path d="M52.8715 6.04969C52.3249 5.56112 45.885 0.130819 29.995 0C14.1167 0.130819 7.67692 5.56112 7.13029 6.04969C-1.81621 13.5704 0.522581 38.5674 0.676158 40.1052C1.39068 47.973 5.90168 53.1871 14.4721 56.0063C21.5548 58.3504 29.0488 58.1769 30.0054 58.1422C30.172 58.1422 30.5365 58.1582 31.0636 58.1582C33.5598 58.1582 39.6886 57.9366 45.5375 56.001C54.104 53.171 58.615 47.9677 59.3334 40.0999C59.4792 38.5674 61.8193 13.5704 52.8715 6.04969Z" fill="#E7E9FF"/>
<path d="M52.2857 8.88291C52.2857 8.88291 46.1413 3.21233 30.0014 3.07617C13.8629 3.21233 7.71587 8.88291 7.71587 8.88291C-0.289651 15.576 2.14806 39.5158 2.14806 39.5158C3.4834 54.4665 25.018 55.2487 30.0001 55.0699C34.9823 55.2487 56.5169 54.4772 57.8522 39.5158C57.8535 39.5158 60.2912 15.576 52.2857 8.88291Z" fill="#2A3382"/>
<path d="M50.7732 10.1148C50.7732 10.1148 44.6561 4.79931 29.1514 4.67383C13.6505 4.79931 7.95776 10.1148 7.95776 10.1148C0.514483 16.3888 3.7422 38.8201 3.7422 38.8201C5.57601 52.8417 26.292 53.5652 31.0737 53.3997C35.8671 53.5652 56.5258 52.8417 57.2546 38.8201C57.2533 38.8201 58.711 16.3888 50.7732 10.1148Z" fill="#4B5CF6"/>
<path d="M25.7274 4.80078C12.814 5.60171 7.96459 10.1189 7.96459 10.1189C0.521319 16.3929 3.74904 38.8269 3.74904 38.8269C3.81312 39.3175 3.9003 39.794 4.00934 40.2499C3.76075 17.2446 13.1628 8.85616 25.7274 4.80078Z" fill="#6D7BF3"/>
<path d="M10.321 11.8651C9.42038 10.2045 7.56574 10.896 6.17574 13.4083C4.78574 15.9205 4.39009 19.3058 5.29333 20.9664C6.19657 22.627 6.66641 20.0133 8.05511 17.4957C9.44381 14.9781 11.2204 13.5257 10.321 11.8651Z" fill="white"/>
<path d="M4.98007 21.6142C4.45947 21.1977 3.88291 21.4941 3.6161 22.5807C3.3493 23.6673 3.49636 25.1356 4.00655 25.5548C4.51674 25.9739 5.15448 25.4293 5.42128 24.34C5.68809 23.2508 5.49417 22.0334 4.98007 21.6142Z" fill="white"/>
<path d="M56.3581 22.2148C56.3202 23.5409 56.2332 24.8591 56.0978 26.1581C54.6974 39.7579 48.2432 49.4384 39.665 52.8344C47.2892 51.6543 56.7615 48.2344 57.2509 38.8235C57.2548 38.8235 57.8092 30.2455 56.3581 22.2148Z" fill="#4051E6"/>
<path d="M52.2332 44.9051C53.0636 46.1332 54.5941 45.2042 55.651 42.8307C56.7078 40.4573 56.8926 37.5366 56.0622 36.3085C55.2319 35.0804 54.8909 37.1334 53.8393 39.5122C52.7877 41.891 51.4029 43.6744 52.2332 44.9051Z" fill="white"/>
<path d="M29.0008 36.8568H24.6306C24.2063 35.0381 22.2919 33.5509 21.5061 32.5709C20.1606 30.8898 19.3174 28.8628 19.0735 26.7234C18.8297 24.584 19.1952 22.4193 20.1279 20.4785C21.0605 18.5378 22.5225 16.9 24.3453 15.7538C26.1682 14.6076 28.2777 13.9997 30.431 14C32.5842 14.0003 34.6935 14.609 36.516 15.7557C38.3385 16.9025 39.7999 18.5408 40.732 20.4818C41.6641 22.4229 42.0288 24.5877 41.7843 26.7271C41.5398 28.8664 40.6959 30.8931 39.3498 32.5737C38.5641 33.5524 36.6526 35.0396 36.2283 36.8568H31.858V29.7136H29.0008V36.8568ZM36.144 39.7141V41.1427C36.144 41.9005 35.8429 42.6273 35.3071 43.1631C34.7712 43.699 34.0445 44 33.2867 44H27.5721C26.8143 44 26.0876 43.699 25.5517 43.1631C25.0159 42.6273 24.7149 41.9005 24.7149 41.1427V39.7141H36.144Z" fill="white"/>
</svg>
