<svg width="72" height="72" viewBox="0 0 72 72" fill="none" xmlns="http://www.w3.org/2000/svg">
<rect x="0.75" y="0.75" width="70.5" height="70.5" rx="35.25" fill="white"/>
<rect x="0.75" y="0.75" width="70.5" height="70.5" rx="35.25" stroke="black" stroke-width="1.5"/>
<circle cx="36" cy="36" r="34" stroke="#FFCE55" stroke-width="2"/>
<circle cx="36" cy="36" r="33" fill="#FFEBBB"/>
<circle cx="36" cy="36" r="32" stroke="#FFCE55" stroke-opacity="0.4" stroke-width="2"/>
<path d="M38.2805 43.7556V36.7612V36.1362H37.6555H34.621H33.996V36.7612V43.7556H30.4469C30.1218 42.8343 29.5225 42.0239 28.9364 41.3494C28.6041 40.967 28.2616 40.6126 27.9589 40.2993L27.9182 40.2572C27.5977 39.9255 27.3368 39.653 27.1503 39.4194C25.7947 37.7183 24.9449 35.6667 24.6991 33.5012C24.4533 31.3356 24.8217 29.1444 25.7616 27.1802C26.7014 25.2159 28.1745 23.5587 30.0106 22.3991C31.8467 21.2395 33.9713 20.6247 36.1398 20.625C38.3082 20.6253 40.4327 21.2409 42.2684 22.4011C44.1042 23.5613 45.5766 25.219 46.5159 27.1835C47.4551 29.1481 47.8228 31.3394 47.5763 33.5049C47.3299 35.6703 46.4794 37.7216 45.1232 39.4223C44.9366 39.6557 44.6758 39.928 44.3557 40.2594L44.3179 40.2985C44.0147 40.6123 43.6714 40.9676 43.3385 41.351C42.753 42.0252 42.1545 42.8351 41.8296 43.7556H38.2805ZM41.5822 48.0534V48.9522C41.5822 49.5957 41.3277 50.2122 40.8755 50.6664C40.4234 51.1204 39.8109 51.375 39.1727 51.375H33.1038C32.4656 51.375 31.853 51.1204 31.401 50.6664C30.9488 50.2122 30.6943 49.5957 30.6943 48.9522V48.0534H41.5822Z" fill="#FFCE55" stroke="black" stroke-width="1.25"/>
</svg>
