<svg width="467" height="467" viewBox="0 0 467 467" fill="none" xmlns="http://www.w3.org/2000/svg">
<g clip-path="url(#clip0_2422_11711)">
<path d="M466.878 0.328125H0.351074V466.58H466.878V0.328125Z" fill="#BCE8D0"/>
<g opacity="0.83">
<path d="M326.665 72.3799H466.878V49.0108C465.871 48.9197 464.848 48.8741 463.818 48.8741C459.068 48.8741 454.514 49.7895 450.353 51.5892C445.704 37.8503 433.269 27.9922 418.697 27.9922C405.11 27.9922 393.395 36.4878 388.103 48.7689C385.099 47.6484 381.85 47.0469 378.477 47.0469C368.089 47.0469 358.932 52.7414 353.69 61.3282C350.887 59.4285 347.587 58.4219 344.018 58.4219C335.744 58.4224 328.803 64.4583 326.665 72.3799Z" fill="white"/>
</g>
<g opacity="0.83">
<path d="M0.351074 107.654V165.866H124.973C117.107 147.26 98.5763 134.302 76.9927 134.302C70.1554 134.302 63.6002 135.534 57.6085 137.947C50.9122 119.493 33.0194 106.258 12.0386 106.258C8.00782 106.258 4.09262 106.743 0.351074 107.654Z" fill="white"/>
</g>
<path d="M223.406 381.833C239.298 381.833 252.18 369.13 252.18 353.459C252.18 337.789 239.298 325.086 223.406 325.086C207.515 325.086 194.633 337.789 194.633 353.459C194.633 369.13 207.515 381.833 223.406 381.833Z" fill="#90C681"/>
<path d="M13.8373 356.522C13.8373 362.366 12.049 367.8 8.97508 372.313C6.7202 375.623 3.78264 378.436 0.351074 380.56V332.484C1.31005 333.075 2.22599 333.723 3.10203 334.417C9.64896 339.618 13.8373 347.586 13.8373 356.522Z" fill="#90C681"/>
<path d="M160.489 418.12C187.967 418.12 210.242 396.155 210.242 369.06C210.242 341.965 187.967 320 160.489 320C133.011 320 110.736 341.965 110.736 369.06C110.736 396.155 133.011 418.12 160.489 418.12Z" fill="#90C681"/>
<path d="M59.5906 402.038C91.3727 402.038 117.137 376.632 117.137 345.292C117.137 313.953 91.3727 288.547 59.5906 288.547C27.8084 288.547 2.04395 313.953 2.04395 345.292C2.04395 376.632 27.8084 402.038 59.5906 402.038Z" fill="#90C681"/>
<path d="M294.161 404.527C330.44 404.527 359.851 375.526 359.851 339.752C359.851 303.978 330.44 274.977 294.161 274.977C257.881 274.977 228.47 303.978 228.47 339.752C228.47 375.526 257.881 404.527 294.161 404.527Z" fill="#90C681"/>
<path d="M466.878 338.166V394.499C456.252 416.16 433.748 431.105 407.705 431.105C371.43 431.105 342.018 402.105 342.018 366.333C342.018 330.556 371.43 301.555 407.705 301.555C433.748 301.555 456.252 316.501 466.878 338.166Z" fill="#90C681"/>
<path d="M61.1501 237.086C61.1501 238.513 61.2175 240.008 61.3658 241.402C63.2775 259.988 77.6289 275.05 96.0598 278.263C98.4562 278.688 100.786 278.918 103.304 278.918C105.539 278.918 107.557 278.762 109.727 278.43V273.491C107.557 273.876 105.539 274.076 103.304 274.076C100.773 274.076 98.3826 273.824 95.9862 273.346C81.4871 270.478 70.053 259.232 66.9024 245.027C66.3369 242.492 66.0777 239.94 66.0777 237.086H61.1501V237.086Z" fill="#36394F"/>
<path d="M100.548 335.827C101.999 335.923 103.441 335.951 104.861 335.898C123.795 335.257 139.959 322.14 144.439 304.221C145.029 301.891 145.409 299.468 145.577 296.992C145.727 294.792 145.698 292.622 145.505 290.494L140.508 290.164C140.756 292.283 140.81 294.468 140.661 296.667C140.492 299.158 140.072 301.564 139.428 303.891C135.559 317.965 123.483 328.505 108.899 330.657C106.296 331.044 103.603 331.159 100.876 330.979L100.548 335.827Z" fill="#36394F"/>
<path d="M109.727 248.5H95.9817V360.496H109.727V248.5Z" fill="#36394F"/>
<path d="M30.9346 180.819C30.9346 204.662 42.7418 225.796 60.9167 238.82C62.7206 240.108 64.5784 241.316 66.4901 242.444C75.1872 247.555 85.0558 250.927 95.6108 252.069C98.2497 252.361 100.929 252.507 103.648 252.507C105.641 252.507 107.62 252.428 109.572 252.269C120.315 251.419 130.399 248.259 139.312 243.294C141.264 242.219 143.149 241.051 144.98 239.79C163.935 226.859 176.348 205.273 176.348 180.819C176.348 141.218 143.795 109.117 103.648 109.117C63.4883 109.117 30.9346 141.217 30.9346 180.819Z" fill="#67B26D"/>
<path d="M111.04 259.364C111.04 274.082 118.328 287.13 129.548 295.17C130.662 295.964 131.809 296.71 132.989 297.407C138.358 300.562 144.45 302.644 150.966 303.349C152.595 303.529 154.249 303.619 155.928 303.619C157.158 303.619 158.38 303.57 159.585 303.471C166.217 302.947 172.442 300.997 177.944 297.931C179.149 297.268 180.312 296.547 181.443 295.768C193.144 287.786 200.807 274.46 200.807 259.364C200.807 234.918 180.711 215.102 155.928 215.102C131.136 215.101 111.04 234.917 111.04 259.364Z" fill="#599E5C"/>
<path d="M153.326 247.247C155.066 247.604 156.787 246.493 157.15 244.777L159.131 235.417C159.494 233.7 158.367 232.003 156.626 231.645C154.886 231.287 153.165 232.398 152.802 234.114L150.821 243.475C150.458 245.191 151.585 246.889 153.326 247.247Z" fill="#75B67C"/>
<path d="M126.493 238.655C127.534 240.075 129.565 240.397 131.006 239.37L138.864 233.767C140.305 232.74 140.631 230.737 139.59 229.317C138.548 227.896 136.517 227.574 135.077 228.601L127.218 234.204C125.777 235.231 125.451 237.234 126.493 238.655Z" fill="#75B67C"/>
<path d="M175.806 269.422C176.551 271.014 178.481 271.716 180.095 270.982L188.902 266.979C190.517 266.245 191.229 264.342 190.485 262.75C189.741 261.158 187.811 260.456 186.196 261.19L177.389 265.193C175.774 265.926 175.062 267.83 175.806 269.422Z" fill="#75B67C"/>
<path d="M181.698 246.044L181.78 246.011C182.935 245.547 183.495 244.235 183.024 243.096L180.539 237.086C180.067 235.948 178.737 235.395 177.582 235.86L177.5 235.893C176.345 236.358 175.785 237.67 176.256 238.808L178.741 244.818C179.212 245.957 180.543 246.509 181.698 246.044Z" fill="#75B67C"/>
<path d="M155.874 272.27L155.936 272.208C156.818 271.338 156.818 269.915 155.936 269.046L151.282 264.457C150.401 263.587 148.957 263.587 148.075 264.457L148.013 264.519C147.13 265.389 147.13 266.812 148.013 267.682L152.667 272.271C153.549 273.14 154.992 273.14 155.874 272.27Z" fill="#75B67C"/>
<path d="M133.737 260.581L133.752 260.289C133.81 259.116 132.885 258.111 131.696 258.054L125.909 257.776C124.72 257.719 123.7 258.631 123.642 259.804L123.627 260.096C123.569 261.268 124.494 262.274 125.683 262.331L131.47 262.608C132.659 262.665 133.679 261.753 133.737 260.581Z" fill="#75B67C"/>
<path d="M137.873 283.567L138.11 283.39C139.059 282.683 139.249 281.337 138.531 280.401L135.036 275.844C134.318 274.908 132.955 274.722 132.005 275.429L131.769 275.606C130.819 276.313 130.63 277.659 131.348 278.595L134.842 283.152C135.56 284.087 136.924 284.274 137.873 283.567Z" fill="#75B67C"/>
<path d="M171.127 281.88L170.989 281.621C170.438 280.581 169.125 280.174 168.069 280.717L162.933 283.362C161.878 283.905 161.466 285.2 162.017 286.24L162.154 286.499C162.705 287.54 164.019 287.946 165.074 287.403L170.21 284.759C171.265 284.216 171.678 282.921 171.127 281.88Z" fill="#75B67C"/>
<path d="M103.134 149.931C105.312 150.379 107.467 148.989 107.921 146.84L110.401 135.124C110.855 132.976 109.445 130.852 107.267 130.404C105.089 129.956 102.934 131.347 102.48 133.495L100.001 145.21C99.5457 147.359 100.956 149.483 103.134 149.931Z" fill="#599E5C"/>
<path d="M62.6866 137.461C63.9903 139.239 66.5323 139.642 68.3357 138.356L78.1711 131.343C79.9745 130.058 80.383 127.551 79.0793 125.773C77.7756 123.995 75.2336 123.592 73.4302 124.878L63.5948 131.89C61.7914 133.176 61.3829 135.683 62.6866 137.461Z" fill="#599E5C"/>
<path d="M140.084 186.019C141.016 188.011 143.432 188.89 145.452 187.972L156.475 182.962C158.496 182.043 159.387 179.661 158.456 177.669C157.524 175.677 155.109 174.797 153.088 175.716L142.065 180.726C140.045 181.644 139.153 184.026 140.084 186.019Z" fill="#599E5C"/>
<path d="M146.361 148.89L146.463 148.848C147.909 148.267 148.609 146.625 148.02 145.2L144.909 137.679C144.32 136.253 142.655 135.562 141.209 136.144L141.106 136.185C139.66 136.766 138.96 138.408 139.549 139.834L142.66 147.355C143.25 148.781 144.915 149.471 146.361 148.89Z" fill="#599E5C"/>
<path d="M105.384 190.291L105.463 190.213C106.567 189.125 106.567 187.344 105.463 186.255L99.6381 180.512C98.534 179.423 96.728 179.423 95.6239 180.512L95.5451 180.589C94.441 181.678 94.441 183.459 95.5451 184.547L101.37 190.291C102.474 191.379 104.28 191.379 105.384 190.291Z" fill="#599E5C"/>
<path d="M70.3926 173.101L70.4107 172.735C70.4833 171.268 69.3253 170.009 67.8376 169.937L60.5945 169.589C59.1068 169.518 57.83 170.659 57.7575 172.127L57.7393 172.492C57.6667 173.959 58.8248 175.218 60.3125 175.29L67.5556 175.638C69.0433 175.709 70.32 174.568 70.3926 173.101Z" fill="#599E5C"/>
<path d="M71.4404 210.082L71.7364 209.861C72.9244 208.975 73.1613 207.292 72.263 206.12L67.8896 200.417C66.9913 199.245 65.2838 199.011 64.0957 199.897L63.7997 200.118C62.6116 201.004 62.3747 202.687 63.273 203.859L67.6465 209.562C68.5448 210.734 70.2523 210.968 71.4404 210.082Z" fill="#599E5C"/>
<path d="M93.1428 234.332L93.4387 234.111C94.6268 233.225 94.8637 231.542 93.9654 230.37L89.592 224.667C88.6936 223.495 86.9862 223.261 85.7981 224.147L85.5021 224.368C84.314 225.254 84.0771 226.937 84.9754 228.109L89.3489 233.812C90.2477 234.984 91.9547 235.218 93.1428 234.332Z" fill="#599E5C"/>
<path d="M129.041 207.218L128.87 206.894C128.18 205.592 126.536 205.083 125.215 205.762L118.787 209.072C117.467 209.751 116.951 211.373 117.64 212.675L117.812 213C118.501 214.301 120.145 214.811 121.466 214.131L127.894 210.822C129.215 210.142 129.731 208.52 129.041 207.218Z" fill="#599E5C"/>
<path d="M130.619 166.593L130.448 166.269C129.758 164.967 128.114 164.458 126.793 165.137L120.366 168.447C119.045 169.126 118.529 170.748 119.218 172.05L119.39 172.375C120.079 173.677 121.724 174.186 123.044 173.506L129.473 170.197C130.792 169.517 131.309 167.895 130.619 166.593Z" fill="#599E5C"/>
<path d="M311.318 302.523H301.861V391.377H311.318V302.523Z" fill="#36394F"/>
<path d="M269.668 349.163H306.377H343.087L306.377 244.445L269.668 349.163Z" fill="#16727D"/>
<path d="M275.267 308.355H306.377H337.488L306.377 219.609L275.267 308.355Z" fill="#75B67C"/>
<path d="M284.043 266.386H306.379H328.714L306.379 202.672L284.043 266.386Z" fill="#85C6A5"/>
<path d="M415.075 281.867H403.031V393.007H415.075V281.867Z" fill="#36394F"/>
<path d="M360.434 343.616H408.794H457.155L408.794 205.664L360.434 343.616Z" fill="#16727D"/>
<path d="M367.808 288.989H408.793H449.777L408.793 172.078L367.808 288.989Z" fill="#75B67C"/>
<path d="M379.369 234.358H408.793H438.218L408.793 150.422L379.369 234.358Z" fill="#85C6A5"/>
<path d="M466.878 359.562H0.351074V466.582H466.878V359.562Z" fill="#92BA45"/>
<g opacity="0.22">
<mask id="mask0_2422_11711" style="mask-type:luminance" maskUnits="userSpaceOnUse" x="0" y="357" width="467" height="110">
<path d="M466.878 466.584H0.351074V357.156L466.878 357.07V466.584Z" fill="white"/>
</mask>
<g mask="url(#mask0_2422_11711)">
<path d="M376.534 392.114C378.493 392.114 380.085 391.118 380.085 389.889C380.085 388.661 378.493 387.664 376.534 387.664C374.573 387.664 372.984 388.662 372.984 389.889C372.984 391.118 374.573 392.114 376.534 392.114Z" fill="#231F20"/>
<path d="M447.526 392.114C449.484 392.114 451.076 391.118 451.076 389.889C451.076 388.661 449.485 387.664 447.526 387.664C445.564 387.664 443.975 388.662 443.975 389.889C443.975 391.118 445.564 392.114 447.526 392.114Z" fill="#231F20"/>
<path d="M412.03 369.864C413.988 369.864 415.58 368.868 415.58 367.639C415.58 366.411 413.988 365.414 412.03 365.414C410.069 365.414 408.48 366.412 408.48 367.639C408.48 368.868 410.069 369.864 412.03 369.864Z" fill="#231F20"/>
<path d="M341.039 369.864C342.997 369.864 344.589 368.868 344.589 367.639C344.589 366.411 342.997 365.414 341.039 365.414C339.078 365.414 337.489 366.412 337.489 367.639C337.489 368.868 339.078 369.864 341.039 369.864Z" fill="#231F20"/>
<path d="M305.543 392.114C307.501 392.114 309.093 391.118 309.093 389.889C309.093 388.661 307.502 387.664 305.543 387.664C303.581 387.664 301.993 388.662 301.993 389.889C301.993 391.118 303.581 392.114 305.543 392.114Z" fill="#231F20"/>
</g>
<mask id="mask1_2422_11711" style="mask-type:luminance" maskUnits="userSpaceOnUse" x="0" y="357" width="467" height="110">
<path d="M466.878 466.584H0.351074V357.156L466.878 357.07V466.584Z" fill="white"/>
</mask>
<g mask="url(#mask1_2422_11711)">
<path d="M376.535 436.622C378.493 436.622 380.085 435.626 380.085 434.397C380.085 433.169 378.493 432.172 376.535 432.172C374.573 432.172 372.984 433.17 372.984 434.397C372.984 435.626 374.573 436.622 376.535 436.622Z" fill="#231F20"/>
<path d="M447.526 436.622C449.485 436.622 451.076 435.626 451.076 434.397C451.076 433.169 449.485 432.172 447.526 432.172C445.565 432.172 443.976 433.17 443.976 434.397C443.976 435.626 445.565 436.622 447.526 436.622Z" fill="#231F20"/>
<path d="M412.03 458.872C413.988 458.872 415.58 457.876 415.58 456.647C415.58 455.419 413.988 454.422 412.03 454.422C410.069 454.422 408.48 455.42 408.48 456.647C408.48 457.876 410.069 458.872 412.03 458.872Z" fill="#231F20"/>
<path d="M341.039 458.872C342.997 458.872 344.589 457.876 344.589 456.647C344.589 455.419 342.997 454.422 341.039 454.422C339.077 454.422 337.488 455.42 337.488 456.647C337.489 457.876 339.077 458.872 341.039 458.872Z" fill="#231F20"/>
<path d="M412.03 414.372C413.989 414.372 415.581 413.376 415.581 412.147C415.581 410.919 413.989 409.922 412.03 409.922C410.069 409.922 408.48 410.92 408.48 412.147C408.48 413.376 410.069 414.372 412.03 414.372Z" fill="#231F20"/>
<path d="M341.039 414.372C342.998 414.372 344.59 413.376 344.59 412.147C344.59 410.919 342.998 409.922 341.039 409.922C339.078 409.922 337.489 410.92 337.489 412.147C337.489 413.376 339.078 414.372 341.039 414.372Z" fill="#231F20"/>
<path d="M305.543 436.614C307.501 436.614 309.093 435.618 309.093 434.389C309.093 433.161 307.502 432.164 305.543 432.164C303.581 432.164 301.993 433.162 301.993 434.389C301.993 435.618 303.581 436.614 305.543 436.614Z" fill="#231F20"/>
<path d="M376.535 392.122C378.494 392.122 380.085 391.126 380.085 389.897C380.085 388.669 378.494 387.672 376.535 387.672C374.574 387.672 372.985 388.67 372.985 389.897C372.985 391.126 374.574 392.122 376.535 392.122Z" fill="#231F20"/>
<path d="M447.526 392.122C449.484 392.122 451.076 391.126 451.076 389.897C451.076 388.669 449.485 387.672 447.526 387.672C445.565 387.672 443.976 388.67 443.976 389.897C443.976 391.126 445.565 392.122 447.526 392.122Z" fill="#231F20"/>
<path d="M305.544 392.122C307.502 392.122 309.094 391.126 309.094 389.897C309.094 388.669 307.502 387.672 305.544 387.672C303.582 387.672 301.993 388.67 301.993 389.897C301.993 391.126 303.582 392.122 305.544 392.122Z" fill="#231F20"/>
</g>
<mask id="mask2_2422_11711" style="mask-type:luminance" maskUnits="userSpaceOnUse" x="0" y="357" width="467" height="110">
<path d="M466.878 466.584H0.351074V357.156L466.878 357.07V466.584Z" fill="white"/>
</mask>
<g mask="url(#mask2_2422_11711)">
<path d="M234.551 392.122C236.51 392.122 238.102 391.126 238.102 389.897C238.102 388.669 236.51 387.672 234.551 387.672C232.59 387.672 231.001 388.67 231.001 389.897C231.002 391.126 232.59 392.122 234.551 392.122Z" fill="#231F20"/>
<path d="M305.543 392.122C307.501 392.122 309.093 391.126 309.093 389.897C309.093 388.669 307.502 387.672 305.543 387.672C303.581 387.672 301.993 388.67 301.993 389.897C301.993 391.126 303.581 392.122 305.543 392.122Z" fill="#231F20"/>
<path d="M270.048 369.872C272.006 369.872 273.598 368.876 273.598 367.647C273.598 366.419 272.006 365.422 270.048 365.422C268.086 365.422 266.497 366.42 266.497 367.647C266.497 368.876 268.086 369.871 270.048 369.872Z" fill="#231F20"/>
<path d="M199.056 369.872C201.015 369.872 202.607 368.876 202.607 367.647C202.607 366.419 201.015 365.422 199.056 365.422C197.095 365.422 195.506 366.42 195.506 367.647C195.506 368.876 197.095 369.872 199.056 369.872Z" fill="#231F20"/>
<path d="M163.56 392.114C165.519 392.114 167.111 391.118 167.111 389.889C167.111 388.661 165.519 387.664 163.56 387.664C161.599 387.664 160.01 388.662 160.01 389.889C160.01 391.118 161.599 392.114 163.56 392.114Z" fill="#231F20"/>
</g>
<mask id="mask3_2422_11711" style="mask-type:luminance" maskUnits="userSpaceOnUse" x="0" y="357" width="467" height="110">
<path d="M466.878 466.584H0.351074V357.156L466.878 357.07V466.584Z" fill="white"/>
</mask>
<g mask="url(#mask3_2422_11711)">
<path d="M234.552 436.614C236.51 436.614 238.102 435.618 238.102 434.389C238.102 433.161 236.51 432.164 234.552 432.164C232.59 432.164 231.001 433.162 231.001 434.389C231.001 435.618 232.59 436.614 234.552 436.614Z" fill="#231F20"/>
<path d="M305.542 436.614C307.5 436.614 309.092 435.618 309.092 434.389C309.092 433.161 307.5 432.164 305.542 432.164C303.581 432.164 301.992 433.162 301.992 434.389C301.992 435.618 303.581 436.614 305.542 436.614Z" fill="#231F20"/>
<path d="M270.047 458.864C272.005 458.864 273.597 457.868 273.597 456.639C273.597 455.411 272.005 454.414 270.047 454.414C268.085 454.414 266.497 455.412 266.497 456.639C266.497 457.868 268.085 458.864 270.047 458.864Z" fill="#231F20"/>
<path d="M199.055 458.864C201.014 458.864 202.606 457.868 202.606 456.639C202.606 455.411 201.014 454.414 199.055 454.414C197.094 454.414 195.505 455.412 195.505 456.639C195.505 457.868 197.094 458.864 199.055 458.864Z" fill="#231F20"/>
<path d="M270.047 414.364C272.005 414.364 273.597 413.368 273.597 412.139C273.597 410.911 272.005 409.914 270.047 409.914C268.085 409.914 266.497 410.912 266.497 412.139C266.497 413.368 268.085 414.364 270.047 414.364Z" fill="#231F20"/>
<path d="M199.056 414.364C201.015 414.364 202.606 413.368 202.606 412.139C202.606 410.912 201.015 409.914 199.056 409.914C197.095 409.914 195.506 410.912 195.506 412.139C195.506 413.368 197.095 414.364 199.056 414.364Z" fill="#231F20"/>
<path d="M163.56 436.606C165.519 436.606 167.111 435.611 167.111 434.381C167.111 433.154 165.519 432.156 163.56 432.156C161.599 432.156 160.01 433.154 160.01 434.381C160.01 435.611 161.599 436.606 163.56 436.606Z" fill="#231F20"/>
<path d="M234.552 392.114C236.51 392.114 238.102 391.118 238.102 389.889C238.102 388.661 236.511 387.664 234.552 387.664C232.59 387.664 231.001 388.662 231.001 389.889C231.002 391.118 232.59 392.114 234.552 392.114Z" fill="#231F20"/>
<path d="M305.543 392.114C307.501 392.114 309.093 391.118 309.093 389.889C309.093 388.661 307.502 387.664 305.543 387.664C303.582 387.664 301.993 388.662 301.993 389.889C301.993 391.118 303.582 392.114 305.543 392.114Z" fill="#231F20"/>
<path d="M163.561 392.114C165.519 392.114 167.111 391.118 167.111 389.889C167.111 388.661 165.52 387.664 163.561 387.664C161.599 387.664 160.01 388.662 160.01 389.889C160.01 391.118 161.599 392.114 163.561 392.114Z" fill="#231F20"/>
</g>
<mask id="mask4_2422_11711" style="mask-type:luminance" maskUnits="userSpaceOnUse" x="0" y="357" width="467" height="110">
<path d="M466.878 466.584H0.351074V357.156L466.878 357.07V466.584Z" fill="white"/>
</mask>
<g mask="url(#mask4_2422_11711)">
<path d="M92.5697 392.122C94.5281 392.122 96.1199 391.126 96.1199 389.897C96.1199 388.669 94.5281 387.672 92.5697 387.672C90.6082 387.672 89.0194 388.67 89.0194 389.897C89.0194 391.126 90.6082 392.122 92.5697 392.122Z" fill="#231F20"/>
<path d="M163.561 392.122C165.52 392.122 167.112 391.126 167.112 389.897C167.112 388.669 165.52 387.672 163.561 387.672C161.6 387.672 160.011 388.67 160.011 389.897C160.011 391.126 161.6 392.122 163.561 392.122Z" fill="#231F20"/>
<path d="M128.066 369.872C130.024 369.872 131.616 368.876 131.616 367.647C131.616 366.419 130.025 365.422 128.066 365.422C126.104 365.422 124.516 366.42 124.516 367.647C124.516 368.876 126.104 369.872 128.066 369.872Z" fill="#231F20"/>
<path d="M57.0744 369.872C59.0328 369.872 60.6247 368.876 60.6247 367.647C60.6247 366.42 59.0328 365.422 57.0744 365.422C55.113 365.422 53.5242 366.42 53.5242 367.647C53.5242 368.876 55.113 369.872 57.0744 369.872Z" fill="#231F20"/>
<path d="M21.5788 392.114C23.5372 392.114 25.1291 391.118 25.1291 389.889C25.1291 388.661 23.5377 387.664 21.5788 387.664C19.6173 387.664 18.0286 388.662 18.0286 389.889C18.0286 391.118 19.6173 392.114 21.5788 392.114Z" fill="#231F20"/>
</g>
<mask id="mask5_2422_11711" style="mask-type:luminance" maskUnits="userSpaceOnUse" x="0" y="357" width="467" height="110">
<path d="M466.878 466.584H0.351074V357.156L466.878 357.07V466.584Z" fill="white"/>
</mask>
<g mask="url(#mask5_2422_11711)">
<path d="M92.5694 436.614C94.5278 436.614 96.1197 435.618 96.1197 434.389C96.1197 433.161 94.5278 432.164 92.5694 432.164C90.6079 432.164 89.0192 433.162 89.0192 434.389C89.0197 435.618 90.6085 436.614 92.5694 436.614Z" fill="#231F20"/>
<path d="M163.561 436.614C165.519 436.614 167.111 435.618 167.111 434.389C167.111 433.161 165.519 432.164 163.561 432.164C161.6 432.164 160.011 433.162 160.011 434.389C160.011 435.618 161.6 436.614 163.561 436.614Z" fill="#231F20"/>
<path d="M128.065 458.864C130.023 458.864 131.615 457.868 131.615 456.639C131.615 455.411 130.023 454.414 128.065 454.414C126.103 454.414 124.514 455.412 124.514 456.639C124.515 457.868 126.104 458.864 128.065 458.864Z" fill="#231F20"/>
<path d="M57.0737 458.864C59.0321 458.864 60.624 457.868 60.624 456.639C60.624 455.411 59.0326 454.414 57.0737 454.414C55.1122 454.414 53.5234 455.412 53.5234 456.639C53.5234 457.868 55.1122 458.864 57.0737 458.864Z" fill="#231F20"/>
<path d="M128.065 414.364C130.024 414.364 131.615 413.368 131.615 412.139C131.615 410.911 130.024 409.914 128.065 409.914C126.104 409.914 124.515 410.912 124.515 412.139C124.515 413.368 126.104 414.364 128.065 414.364Z" fill="#231F20"/>
<path d="M57.0737 414.364C59.0321 414.364 60.624 413.368 60.624 412.139C60.624 410.911 59.0321 409.914 57.0737 409.914C55.1122 409.914 53.5234 410.912 53.5234 412.139C53.524 413.368 55.1127 414.364 57.0737 414.364Z" fill="#231F20"/>
<path d="M21.5786 436.606C23.537 436.606 25.1289 435.611 25.1289 434.381C25.1289 433.154 23.5375 432.156 21.5786 432.156C19.6171 432.156 18.0283 433.154 18.0283 434.381C18.0283 435.611 19.6171 436.606 21.5786 436.606Z" fill="#231F20"/>
<path d="M92.5696 392.114C94.5279 392.114 96.1198 391.118 96.1198 389.889C96.1198 388.661 94.5279 387.664 92.5696 387.664C90.6081 387.664 89.0193 388.662 89.0193 389.889C89.0193 391.118 90.6081 392.114 92.5696 392.114Z" fill="#231F20"/>
<path d="M163.561 392.114C165.519 392.114 167.111 391.118 167.111 389.889C167.111 388.661 165.52 387.664 163.561 387.664C161.6 387.664 160.011 388.662 160.011 389.889C160.011 391.118 161.6 392.114 163.561 392.114Z" fill="#231F20"/>
<path d="M21.579 392.114C23.5373 392.114 25.1292 391.118 25.1292 389.889C25.1292 388.661 23.5379 387.664 21.579 387.664C19.6175 387.664 18.0287 388.662 18.0287 389.889C18.0287 391.118 19.6175 392.114 21.579 392.114Z" fill="#231F20"/>
</g>
</g>
<path opacity="0.43" d="M466.878 359.195H0.351074V367.743H466.878V359.195Z" fill="#427569"/>
<path d="M192.513 430.102H257.997C260.708 430.102 262.926 432.318 262.926 435.028C262.926 437.737 260.708 439.954 257.997 439.954H192.513C189.802 439.954 187.584 437.737 187.584 435.028C187.584 432.318 189.802 430.102 192.513 430.102Z" fill="#427050"/>
<path d="M244.316 413.583L250.784 408.073C250.784 408.073 233.309 404.401 229.459 399.886C226.467 396.378 224.715 381.742 224.715 381.742L218.248 387.252C218.248 387.252 219.782 401.632 222.701 405.055C226.624 409.655 244.316 413.583 244.316 413.583Z" fill="#F9C8C0"/>
<path d="M205.131 426.996L213.601 426.308C213.601 426.308 207.195 410.087 206.715 404.175C206.342 399.581 210.186 384.281 210.186 384.281L201.716 384.969C201.716 384.969 197.845 399.933 198.209 404.416C198.698 410.44 205.131 426.996 205.131 426.996Z" fill="#F9C8C0"/>
<path d="M232.723 381.398H216.784V399.511H232.723V381.398Z" fill="#242B57"/>
<path d="M212.565 381.398H196.626V399.511H212.565V381.398Z" fill="#242B57"/>
<path d="M232.35 380.773H198.779V388.27H232.35V380.773Z" fill="#242B57"/>
<path d="M216.376 400.219H233.487V396.236H216.376V400.219Z" fill="#1E9FB3"/>
<path d="M196.453 399.984H213.563V396.002H196.453V399.984Z" fill="#1E9FB3"/>
<path d="M261.111 303.429L264.839 300.671C265.971 299.834 267.583 300.075 268.421 301.206L270.094 303.466C270.933 304.598 270.692 306.208 269.56 307.046L265.832 309.803C264.699 310.641 263.088 310.4 262.25 309.269L260.576 307.009C259.738 305.877 259.979 304.266 261.111 303.429Z" fill="#F9C8C0"/>
<path d="M266.908 306.313L273.407 301.506C273.882 301.155 274.558 301.256 274.909 301.731C275.26 302.205 275.159 302.88 274.685 303.231L268.185 308.039C267.71 308.39 267.035 308.289 266.684 307.814C266.332 307.34 266.433 306.665 266.908 306.313Z" fill="#F9C8C0"/>
<path d="M267.15 302.483L272.368 298.624C272.843 298.272 273.519 298.373 273.87 298.848C274.222 299.322 274.121 299.997 273.646 300.349L268.427 304.208C267.952 304.559 267.277 304.458 266.926 303.984C266.575 303.509 266.676 302.834 267.15 302.483Z" fill="#F9C8C0"/>
<path d="M264.457 301.215L270.634 296.647C271.108 296.296 271.784 296.397 272.135 296.871C272.487 297.346 272.386 298.021 271.911 298.372L265.734 302.94C265.259 303.292 264.584 303.191 264.232 302.716C263.881 302.241 263.982 301.566 264.457 301.215Z" fill="#F9C8C0"/>
<path d="M260.404 306.351L260.996 298.694C261.041 298.105 261.56 297.661 262.149 297.706C262.737 297.752 263.182 298.27 263.137 298.858L262.545 306.515C262.499 307.104 261.981 307.548 261.392 307.503C260.803 307.458 260.359 306.939 260.404 306.351Z" fill="#F9C8C0"/>
<path d="M232.689 331.097C232.689 331.097 242.876 329.065 251.749 321.166C258.62 315.05 263.96 306.422 263.96 306.422" stroke="#F9C8C0" stroke-width="11.4366" stroke-miterlimit="10" stroke-linecap="round" stroke-linejoin="round"/>
<path d="M244.352 332.405L239.851 321.367L229.067 325.759C226.017 327.002 224.552 330.48 225.795 333.528C227.038 336.576 230.518 338.04 233.568 336.798L244.352 332.405Z" fill="#1E9FB3"/>
<path d="M196.753 278.648L217.437 286.253C217.477 286.269 217.522 286.248 217.537 286.207L223.925 268.854C223.94 268.814 223.92 268.769 223.879 268.754L203.195 261.149C198.38 259.378 192.99 261.867 191.219 266.68C189.448 271.492 191.938 276.878 196.753 278.648Z" fill="#DD5C52"/>
<path d="M180.465 363.334L176.261 364.975C174.985 365.473 174.348 366.926 174.847 368.202L175.842 370.749C176.341 372.025 177.794 372.662 179.071 372.163L183.274 370.522C184.551 370.024 185.188 368.571 184.689 367.295L183.693 364.747C183.194 363.472 181.742 362.836 180.465 363.334Z" fill="#F9C8C0"/>
<path d="M179.838 369.595L172.51 372.456C171.974 372.665 171.708 373.273 171.917 373.808C172.126 374.343 172.735 374.61 173.27 374.401L180.599 371.54C181.134 371.331 181.401 370.722 181.192 370.187C180.983 369.653 180.374 369.386 179.838 369.595Z" fill="#F9C8C0"/>
<path d="M176.557 367.813L170.672 370.111C170.137 370.32 169.87 370.928 170.079 371.463C170.288 371.998 170.897 372.264 171.433 372.056L177.317 369.758C177.853 369.549 178.119 368.941 177.91 368.405C177.701 367.871 177.092 367.605 176.557 367.813Z" fill="#F9C8C0"/>
<path d="M176.908 364.946L169.943 367.665C169.408 367.874 169.141 368.483 169.35 369.018C169.559 369.553 170.168 369.82 170.704 369.611L177.668 366.891C178.204 366.683 178.47 366.074 178.261 365.539C178.052 365.004 177.443 364.737 176.908 364.946Z" fill="#F9C8C0"/>
<path d="M181.706 364.724L174.331 363.491C173.765 363.396 173.224 363.782 173.129 364.348C173.034 364.914 173.42 365.455 173.987 365.55L181.361 366.783C181.928 366.878 182.469 366.492 182.564 365.926C182.659 365.36 182.273 364.819 181.706 364.724Z" fill="#F9C8C0"/>
<path d="M205.571 335.914C205.571 335.914 203.743 345.85 196.184 354.595C190.33 361.367 182.009 366.687 182.009 366.687" stroke="#F9C8C0" stroke-width="11.129" stroke-miterlimit="10" stroke-linecap="round" stroke-linejoin="round"/>
<path d="M207.024 347.241L196.211 343.027L200.328 332.475C201.492 329.491 204.857 328.015 207.843 329.179C210.829 330.343 212.305 333.705 211.141 336.689L207.024 347.241Z" fill="#1E9FB3"/>
<path d="M233.874 382.336H196.724L198.111 342.278C198.111 332.026 205.04 321.43 215.299 321.43C225.557 321.43 233.874 329.741 233.874 339.994V382.336Z" fill="#1E9FB3"/>
<path d="M227.393 326.112C227.736 326.386 214.423 338.018 214.423 338.018L203.173 327.205C203.173 327.205 213.33 314.868 227.393 326.112Z" fill="white"/>
<path d="M209.855 315.108L206.706 313.505C195.204 307.649 190.63 293.583 196.489 282.088L197.4 280.301C203.259 268.805 217.333 264.233 228.836 270.089L231.984 271.692C243.487 277.548 248.061 291.614 242.202 303.11L241.291 304.897C235.431 316.392 221.357 320.964 209.855 315.108Z" fill="#DD5C52"/>
<path d="M194.143 285.446L192.319 292.004C192.208 292.403 192.309 292.848 192.214 293.238C191.598 296.051 191.618 299.007 192.073 301.715C193.434 310.005 199.543 317.331 208.142 319.72L208.851 319.917C220.647 323.193 233.302 316.089 236.582 304.3L238.406 297.742C241.684 285.953 234.205 274.443 222.41 271.166L221.7 270.97C209.904 267.693 197.422 273.657 194.143 285.446Z" fill="#F9C8C0"/>
<path d="M199.218 301.688C198.465 304.396 200.274 308.677 203.708 309.631C207.143 310.585 210.903 307.851 211.656 305.143L199.218 301.688Z" fill="white"/>
<path opacity="0.66" d="M204.787 299.337L207.662 300.136C208.116 300.262 208.585 299.997 208.711 299.544L208.757 299.378C208.883 298.925 208.618 298.456 208.165 298.33L205.289 297.531C204.836 297.405 204.366 297.671 204.241 298.123L204.195 298.289C204.068 298.742 204.334 299.211 204.787 299.337Z" fill="#F59082"/>
<path opacity="0.66" d="M217.025 304.108C216.407 306.331 217.709 308.635 219.934 309.253C222.159 309.871 224.464 308.57 225.083 306.346C225.701 304.122 224.399 301.818 222.174 301.2C219.949 300.583 217.644 301.884 217.025 304.108Z" fill="#F59082"/>
<path opacity="0.66" d="M192.41 293.292C191.794 296.105 191.746 298.923 192.202 301.631C194.149 301.769 195.98 300.529 196.521 298.584C197.141 296.355 195.834 294.062 193.604 293.443C193.204 293.332 192.803 293.276 192.41 293.292Z" fill="#F59082"/>
<path d="M215.822 328.453H215.794C218.143 328.453 219.909 326.499 219.909 324.151V314.398H211.471V324.151C211.471 326.499 213.473 328.453 215.822 328.453Z" fill="#F9C8C0"/>
<path d="M216.627 283.953L226.938 288.591C231.869 290.808 234.599 296.152 233.503 301.444L235.378 311.751C235.378 311.751 240.69 307.378 242.878 297.696C245.066 288.014 239.128 268.337 215.377 270.211L216.627 283.953Z" fill="#DD5C52"/>
<path d="M212.926 295.593C212.926 295.593 214.731 293.726 216.893 294.501C219.056 295.277 219.245 297.395 219.245 297.395" stroke="#72391B" stroke-width="2.34199" stroke-miterlimit="10" stroke-linecap="round" stroke-linejoin="round"/>
<path d="M197.643 291.226C197.643 291.226 199.448 289.358 201.61 290.134C203.773 290.909 203.962 293.028 203.962 293.028" stroke="#72391B" stroke-width="2.34199" stroke-miterlimit="10" stroke-linecap="round" stroke-linejoin="round"/>
<path d="M214.746 341.883C216.01 343.616 218.899 344.058 218.899 344.058C218.899 344.058 219.739 341.69 218.475 339.957C217.211 338.223 214.322 337.781 214.322 337.781C214.322 337.781 213.482 340.149 214.746 341.883Z" fill="white"/>
<path d="M209.641 338.917C207.883 340.312 207.959 342.782 207.959 342.782C207.959 342.782 210.885 342.991 212.643 341.595C214.4 340.2 214.325 337.73 214.325 337.73C214.325 337.73 211.398 337.522 209.641 338.917Z" fill="white"/>
<path d="M231.823 286.23C234.519 281.818 233.098 276.04 228.648 273.324C224.199 270.608 218.406 271.983 215.71 276.395C213.014 280.806 214.436 286.584 218.885 289.3C223.335 292.016 229.127 290.641 231.823 286.23Z" fill="#DD5C52"/>
<path d="M216.356 281.773C219.048 277.368 217.62 271.594 213.167 268.876C208.714 266.158 202.923 267.526 200.231 271.931C197.539 276.335 198.967 282.11 203.42 284.827C207.872 287.545 213.664 286.178 216.356 281.773Z" fill="#DD5C52"/>
<path d="M224.612 291.303C222.796 296.098 225.213 301.455 230.009 303.27C234.806 305.084 240.167 302.67 241.983 297.876L242.53 296.429C244.346 291.635 241.93 286.278 237.133 284.463C232.336 282.648 226.976 285.063 225.16 289.857L224.612 291.303Z" fill="#DD5C52"/>
<path d="M212.143 281.615L228.79 287.913C232.187 289.199 235.984 287.488 237.27 284.093L237.599 283.225C238.885 279.83 237.174 276.035 233.776 274.75L217.129 268.451C213.732 267.166 209.935 268.876 208.649 272.272L208.32 273.139C207.033 276.534 208.745 280.329 212.143 281.615Z" fill="#DD5C52"/>
<path d="M235.274 280.969C234.994 280.881 234.756 280.681 234.622 280.408C234.428 280.007 234.496 279.529 234.795 279.198L239.424 274.086C239.827 273.639 240.517 273.603 240.965 274.01C241.412 274.414 241.446 275.103 241.042 275.551L238.233 278.653L244.018 278.245C244.621 278.205 245.14 278.656 245.184 279.257C245.227 279.858 244.773 280.379 244.173 280.422L235.681 281.019C235.541 281.029 235.403 281.01 235.274 280.969Z" fill="#DD5C52"/>
<path d="M230.557 303.531C229.817 306.193 231.375 308.95 234.039 309.69C236.702 310.429 239.461 308.872 240.201 306.21C240.941 303.548 239.383 300.791 236.719 300.051C234.056 299.311 231.297 300.869 230.557 303.531Z" fill="#F9C8C0"/>
<path d="M301.168 24.1406L281.524 113.04L244.753 63.5949" stroke="white" stroke-width="2.70746" stroke-miterlimit="10"/>
<path d="M281.525 113.047C281.525 113.047 292.707 233.355 264.892 302.382C264.892 302.382 261.767 314.25 266.767 325.495C271.767 336.739 271.143 341.112 271.143 341.112" stroke="white" stroke-width="2.70746" stroke-miterlimit="10"/>
<path d="M244.549 405.477C245.457 405.711 250.934 407.027 250.934 407.027L248.41 416.797L242.049 415.154L244.549 405.477Z" fill="#FFF5E6"/>
<path d="M250.139 421.359L253.66 407.729L247.299 406.086L245.362 413.583C244.444 417.135 246.336 420.377 249.888 421.295L250.139 421.359Z" fill="#EA524E"/>
<path d="M214.095 424.734C214.171 425.67 214.723 431.274 214.723 431.274L204.665 432.091L204.133 425.543L214.095 424.734Z" fill="#FFF5E6"/>
<path d="M200.919 435.219L214.95 434.079L214.418 427.531L206.7 428.158C203.044 428.455 200.601 431.305 200.898 434.961L200.919 435.219Z" fill="#EA524E"/>
</g>
<defs>
<clipPath id="clip0_2422_11711">
<rect width="466.527" height="466.252" fill="white" transform="translate(0.351074 0.328125)"/>
</clipPath>
</defs>
</svg>
