<?xml version="1.0" encoding="utf-8"?>
<!-- Uploaded to: SVG Repo, www.svgrepo.com, Generator: SVG Repo Mixer Tools -->
<svg width="800px" height="800px" viewBox="-3.35 0 50.112 50.112" xmlns="http://www.w3.org/2000/svg">
  <g id="Group_1646" data-name="Group 1646" transform="translate(3566.91 -2050.811)">
    <path id="Path_3439" data-name="Path 3439" d="M-3524.466,2052.731h-6.748a.96.96,0,0,1-.96-.96.96.96,0,0,1,.96-.96h6.748a.96.96,0,0,1,.96.96.96.96,0,0,1-.96.96" fill="#6f0911" fill-rule="evenodd"/>
    <path id="Path_3440" data-name="Path 3440" d="M-3538.945,2092.715c7.061-7.063,9.8-17.85,2.894-24.751s-17.69-4.169-24.751,2.894c-5.674,5.673-6.288,12.6-3.591,18.647a5.667,5.667,0,0,1,.423,3.035,3.115,3.115,0,0,0,.657,2.686,3.118,3.118,0,0,0,2.686.657,5.663,5.663,0,0,1,3.034.422c6.044,2.7,12.974,2.083,18.648-3.59" fill="#ffffff" fill-rule="evenodd"/>
    <path id="Path_3441" data-name="Path 3441" d="M-3545.583,2065.7c-5.906,0-10.693-6.416-10.693-6.416s4.787-6.416,10.693-6.416,10.692,6.416,10.692,6.416-4.787,6.416-10.692,6.416" fill="#ffffff" fill-rule="evenodd"/>
    <line id="Line_1" data-name="Line 1" y1="1.25" x2="5.674" transform="translate(-3534.891 2058.036)" fill="#5db67d"/>
    <path id="Path_3442" data-name="Path 3442" d="M-3534.891,2060.247a.961.961,0,0,1-.937-.754.961.961,0,0,1,.73-1.144l5.674-1.25a.959.959,0,0,1,1.145.73.961.961,0,0,1-.731,1.144l-5.674,1.251a.918.918,0,0,1-.207.023" fill="#6f0911" fill-rule="evenodd"/>
    <path id="Path_3443" data-name="Path 3443" d="M-3535.874,2095.787c7.062-7.062,9.8-17.849,2.9-24.751s-17.69-4.169-24.752,2.894c-5.673,5.673-6.288,12.6-3.59,18.647a5.67,5.67,0,0,1,.423,3.035,3.118,3.118,0,0,0,.656,2.686,3.119,3.119,0,0,0,2.686.657,5.665,5.665,0,0,1,3.035.422c6.043,2.7,12.974,2.083,18.647-3.59" fill="#ecf443" fill-rule="evenodd"/>
    <path id="Path_3444" data-name="Path 3444" d="M-3538.945,2092.715h0Zm-20.916,2.159a6.512,6.512,0,0,1,2.66.554c6.23,2.782,12.638,1.546,17.578-3.392,6.372-6.372,9.55-16.737,2.893-23.394s-17.021-3.477-23.394,2.9c-4.937,4.938-6.175,11.344-3.392,17.577a6.653,6.653,0,0,1,.5,3.546,2.345,2.345,0,0,0,.383,1.887,2.348,2.348,0,0,0,1.888.383A7.186,7.186,0,0,1-3559.861,2094.874Zm9.251,3.948a18.024,18.024,0,0,1-7.374-1.641,4.747,4.747,0,0,0-2.524-.346,3.955,3.955,0,0,1-3.483-.93,3.959,3.959,0,0,1-.932-3.484,4.741,4.741,0,0,0-.346-2.525c-3.125-7-1.744-14.185,3.788-19.717,7.031-7.03,18.571-10.433,26.109-2.9s4.136,19.08-2.9,26.11h0a17.313,17.313,0,0,1-12.343,5.428" fill="#6f0911" fill-rule="evenodd"/>
    <path id="Path_3445" data-name="Path 3445" d="M-3542.512,2068.775c-5.905,0-10.692-6.416-10.692-6.416s4.787-6.416,10.692-6.416,10.693,6.416,10.693,6.416-4.787,6.416-10.693,6.416" fill="#5db67d" fill-rule="evenodd"/>
    <path id="Path_3446" data-name="Path 3446" d="M-3555.038,2059.286c1.3,1.506,5.107,5.456,9.455,5.456s8.157-3.947,9.453-5.456c-1.3-1.507-5.106-5.456-9.453-5.456S-3553.745,2057.778-3555.038,2059.286Zm9.455,7.376c-6.315,0-11.255-6.523-11.463-6.8a.961.961,0,0,1,0-1.149c.208-.278,5.148-6.8,11.463-6.8s11.256,6.524,11.462,6.8a.961.961,0,0,1,0,1.149c-.206.278-5.148,6.8-11.462,6.8" fill="#6f0911" fill-rule="evenodd"/>
    <path id="Path_3447" data-name="Path 3447" d="M-3527.974,2055.692a.959.959,0,0,1-.253-.034.958.958,0,0,1-.674-1.178,10.5,10.5,0,0,0,.4-2.709.96.96,0,0,1,.96-.96.96.96,0,0,1,.96.96,12.288,12.288,0,0,1-.472,3.212.958.958,0,0,1-.924.709" fill="#6f0911" fill-rule="evenodd"/>
    <path id="Path_3448" data-name="Path 3448" d="M-3534.891,2067.763a.961.961,0,0,1-.622-.229.959.959,0,0,1-.108-1.353,44.167,44.167,0,0,0,5.535-8.55.96.96,0,0,1,1.275-.465.961.961,0,0,1,.464,1.276,45.235,45.235,0,0,1-5.813,8.983.958.958,0,0,1-.731.338" fill="#6f0911" fill-rule="evenodd"/>
    <path id="Path_3449" data-name="Path 3449" d="M-3539.471,2083.508a.967.967,0,0,1-.319-.055.956.956,0,0,1-.585-1.224c.667-1.9,1.357-5.519-1.532-8.408a.959.959,0,0,1,0-1.358.959.959,0,0,1,1.357,0c2.653,2.654,3.378,6.446,1.985,10.4a.961.961,0,0,1-.906.642" fill="#6f0911" fill-rule="evenodd"/>
    <path id="Path_3450" data-name="Path 3450" d="M-3542.965,2088.953a.957.957,0,0,1-.68-.282.962.962,0,0,1,0-1.358,14.53,14.53,0,0,0,1.309-1.5.96.96,0,0,1,1.346-.183.961.961,0,0,1,.183,1.345,16.752,16.752,0,0,1-1.48,1.694.956.956,0,0,1-.678.282" fill="#6f0911" fill-rule="evenodd"/>
  </g>
</svg>