<svg width="106" height="104" viewBox="0 0 106 104" fill="none" xmlns="http://www.w3.org/2000/svg">
<g filter="url(#filter0_d_2974_12963)">
<circle cx="56" cy="50" r="50" fill="#FF60D2"/>
<circle cx="56" cy="50" r="46.25" stroke="white" stroke-width="7.5"/>
</g>
<path d="M67.6103 44.0915L67.6043 44.0834L67.598 44.0755C67.2745 43.6751 67.1234 43.1625 67.1779 42.6507C67.2323 42.1389 67.4879 41.6696 67.8883 41.3462C68.2888 41.0227 68.8013 40.8716 69.3132 40.9261C69.823 40.9803 70.2905 41.234 70.6138 41.6316C72.4407 44.0384 73.4298 46.9771 73.4298 49.9989C73.4298 53.0205 72.4408 55.959 70.6141 58.3657C70.4327 58.5877 70.2042 58.7667 69.9451 58.8896C69.684 59.0134 69.3984 59.0772 69.1094 59.0762L69.1063 59.0763C68.7403 59.0775 68.3813 58.9748 68.0713 58.7802C67.7612 58.5856 67.5127 58.307 67.3547 57.9768C67.1967 57.6466 67.1356 57.2783 67.1785 56.9147C67.2215 56.5512 67.3667 56.2073 67.5974 55.923L67.604 55.9148L67.6103 55.9062C68.8696 54.1941 69.5489 52.1243 69.5489 49.9989C69.5489 47.8735 68.8696 45.8037 67.6103 44.0915Z" fill="white" stroke="#FF29C3" stroke-width="0.892857"/>
<path d="M73.9049 34.222L73.9048 34.2222L73.9153 34.2304C76.3162 36.1074 78.2658 38.4987 79.6206 41.2284C80.9745 43.9563 81.7001 46.9528 81.744 49.9978C81.7001 53.0428 80.9745 56.0393 79.6206 58.7671C78.2658 61.4969 76.3162 63.8882 73.9153 65.7651L73.9152 65.765L73.9054 65.7731C73.5574 66.0615 73.1193 66.2189 72.6673 66.218L72.6657 66.218C72.3815 66.2185 72.1007 66.1563 71.8432 66.0359L71.6542 66.4403L71.8432 66.0359C71.5858 65.9156 71.358 65.7399 71.1761 65.5216L71.176 65.5215C71.0131 65.326 70.8904 65.1003 70.8149 64.8573L70.3886 64.9899L70.8149 64.8573C70.7393 64.6144 70.7125 64.3589 70.7358 64.1055C70.7592 63.8521 70.8323 63.6058 70.951 63.3808L70.5565 63.1727L70.951 63.3808C71.0686 63.1578 71.2286 62.96 71.422 62.7984C73.3814 61.2826 74.9775 59.3483 76.0939 57.1368C77.2115 54.9228 77.8199 52.487 77.8748 50.0076L77.875 49.9978L77.8748 49.9879C77.8199 47.5085 77.2115 45.0727 76.0939 42.8588C74.9776 40.6473 73.3815 38.7131 71.4222 37.1973C71.2291 37.0355 71.0694 36.8376 70.952 36.6147C70.8335 36.3896 70.7604 36.1433 70.7371 35.8899C70.7137 35.6366 70.7405 35.3811 70.8159 35.1381C70.8912 34.8951 71.0138 34.6693 71.1764 34.4736C71.339 34.2779 71.5386 34.1162 71.7638 33.9977C71.9889 33.8791 72.2352 33.8061 72.4886 33.7827C72.7419 33.7594 72.9974 33.7861 73.2404 33.8615C73.4835 33.9369 73.7093 34.0594 73.9049 34.222Z" fill="white" stroke="#FF29C3" stroke-width="0.892857"/>
<path d="M61.4304 29.6391L61.4436 29.6468L61.4572 29.654C61.6948 29.7805 61.8936 29.9691 62.0325 30.1997C62.1712 30.43 62.2449 30.6935 62.2459 30.9622C62.2459 30.9627 62.2459 30.9631 62.2459 30.9635L62.2459 69.0563C62.2459 69.451 62.0891 69.8295 61.81 70.1086C61.5309 70.3876 61.1524 70.5444 60.7577 70.5444V70.5444L60.7459 70.5445C60.4277 70.5487 60.1153 70.4598 59.8472 70.2888L44.596 59.8202L44.3677 59.6635H44.0907H32.1857C31.791 59.6635 31.4125 59.5067 31.1334 59.2276C30.8543 58.9485 30.6975 58.57 30.6975 58.1754V41.8421C30.6975 41.4474 30.8543 41.0689 31.1334 40.7898C31.4125 40.5107 31.791 40.354 32.1857 40.354H44.0907H44.3681L44.5967 40.1968L59.9693 29.6238C60.1889 29.5031 60.4355 29.4397 60.6863 29.4397C60.9475 29.4397 61.2042 29.5085 61.4304 29.6391Z" fill="white" stroke="#FF29C3" stroke-width="1.78571"/>
<defs>
<filter id="filter0_d_2974_12963" x="0.642857" y="0" width="105.357" height="103.571" filterUnits="userSpaceOnUse" color-interpolation-filters="sRGB">
<feFlood flood-opacity="0" result="BackgroundImageFix"/>
<feColorMatrix in="SourceAlpha" type="matrix" values="0 0 0 0 0 0 0 0 0 0 0 0 0 0 0 0 0 0 127 0" result="hardAlpha"/>
<feOffset dx="-5.35714" dy="3.57143"/>
<feComposite in2="hardAlpha" operator="out"/>
<feColorMatrix type="matrix" values="0 0 0 0 1 0 0 0 0 0.1625 0 0 0 0 0.762972 0 0 0 1 0"/>
<feBlend mode="normal" in2="BackgroundImageFix" result="effect1_dropShadow_2974_12963"/>
<feBlend mode="normal" in="SourceGraphic" in2="effect1_dropShadow_2974_12963" result="shape"/>
</filter>
</defs>
</svg>
