<svg width="102" height="102" viewBox="0 0 102 102" fill="none" xmlns="http://www.w3.org/2000/svg">
<g filter="url(#filter0_d_2010_12529)">
<rect x="19" y="19" width="64" height="64" rx="32" fill="#B6E698"/>
<rect x="17.8571" y="17.8571" width="66.2857" height="66.2857" rx="33.1429" stroke="#702624" stroke-width="2.28571"/>
<path d="M75.658 66.2791C78.6527 68.7094 83.7088 60.7204 79.9358 58.5684C76.1625 56.4168 72.6636 63.8491 75.658 66.2791Z" fill="#B6E698"/>
<path d="M30.1312 43.1916C30.5067 46.065 24.6868 51.6909 22.3822 47.2702C20.0773 42.8491 29.6132 39.2258 30.1312 43.1916Z" fill="#B6E698"/>
<path d="M24.6906 32.6545C22.6901 34.4126 25.8453 41.6602 28.136 39.9525C30.4269 38.2443 27.4459 30.2334 24.6906 32.6545Z" fill="#B6E698"/>
<path d="M59.6518 67.0371H42.8786C34.4921 67.8088 30.6062 77.2702 30.6062 77.2702C37.1848 83.1181 51.2654 82.9959 51.2654 82.9959C51.2654 82.9959 65.3457 83.1181 71.9245 77.2702C71.9245 77.2702 68.0383 67.8088 59.6518 67.0371Z" fill="#C98B62"/>
<path d="M64.8649 80.9887C64.517 74.2514 60.0203 68.7191 54.0992 67.36H48.4341C42.5134 68.7191 38.0161 74.2514 37.6687 80.9887C44.1478 83.0554 51.2669 82.9959 51.2669 82.9959C51.2669 82.9959 58.3855 83.0554 64.8649 80.9887Z" fill="#F7DFBD"/>
<path d="M60.2284 70.6953C59.5181 70.0207 58.7429 69.4249 57.914 68.9207C59.2109 68.6643 60.6069 68.3249 62.0152 67.8753C62.9532 68.1417 63.8819 68.5376 64.8211 69.1254C63.3068 69.7896 61.738 70.3013 60.2284 70.6953ZM42.3002 70.6953C40.7986 70.3033 39.2393 69.7953 37.7328 69.1361C38.6565 68.584 39.61 68.1843 40.6017 67.9033C41.98 68.3391 43.3453 68.6696 44.6146 68.9207C43.7861 69.4249 43.0105 70.0207 42.3002 70.6953Z" fill="#BC7850"/>
<path d="M51.2643 72.0078C51.2643 72.0078 47.077 71.9391 42.3 70.6928C43.0103 70.0182 43.7859 69.4224 44.6144 68.9182C48.3521 69.6565 51.2643 69.7042 51.2643 69.7042C51.2643 69.7042 54.1761 69.6565 57.9138 68.9182C58.7427 69.4224 59.5179 70.0182 60.2282 70.6928C55.4516 71.9391 51.2643 72.0078 51.2643 72.0078Z" fill="#E7C19A"/>
<path d="M72.2015 77.1957C71.0827 74.5096 69.2187 71.9652 67.0317 70.0613C64.3058 67.6877 61.2339 66.7509 57.7074 66.7509C53.785 66.7509 49.8627 66.7509 45.9403 66.7509C42.5563 66.7509 39.6356 67.0216 36.7331 69.0838C33.9565 71.0564 31.6399 74.0454 30.3277 77.1957C30.1855 77.5373 30.7425 77.6863 30.8832 77.3485C31.9218 74.8544 33.806 72.2955 35.9046 70.4691C38.7237 68.0149 41.7846 67.3268 45.3575 67.3268C48.8928 67.3268 52.4286 67.3268 55.9639 67.3268C59.2385 67.3268 62.0451 67.3311 64.9604 69.2131C67.8641 71.0883 70.3528 74.2428 71.6463 77.3485C71.7865 77.6855 72.344 77.5381 72.2015 77.1957Z" fill="#702624"/>
<path d="M39.3032 73.0692C38.5353 73.8431 37.9672 74.8391 37.5871 75.855C37.5177 76.0408 37.8106 76.1164 37.8821 75.9364C38.2827 74.9274 38.8214 74.0616 39.4516 73.1839C39.5151 73.0953 39.3771 72.9947 39.3032 73.0692Z" fill="#702624"/>
<path d="M37.6246 74.2934C36.9694 74.9876 36.5766 76.1643 36.3556 77.0786C36.3055 77.2843 36.6072 77.3668 36.6722 77.166C36.8266 76.6868 36.9715 76.2066 37.1587 75.7385C37.3429 75.2775 37.611 74.8432 37.7488 74.366C37.7689 74.2957 37.6758 74.2397 37.6246 74.2934Z" fill="#702624"/>
<path d="M37.9038 72.8341C37.1058 73.524 36.5524 74.612 36.1431 75.5665C36.081 75.7113 36.2788 75.8392 36.3606 75.6936C36.8982 74.7387 37.3902 73.8247 38.0345 72.935C38.0931 72.8544 37.971 72.776 37.9038 72.8341Z" fill="#702624"/>
<path d="M61.5198 70.9809C62.356 71.9801 63.0203 73.0389 63.6257 74.1868C63.762 74.4452 64.1199 74.218 64.0093 73.9626C63.4902 72.7645 62.6651 71.6747 61.7026 70.799C61.5782 70.6858 61.4142 70.8547 61.5198 70.9809Z" fill="#702624"/>
<path d="M63.2952 71.9876C63.5889 72.4968 63.9003 72.994 64.1744 73.5147C64.4466 74.0321 64.6589 74.5939 64.9703 75.0879C65.0866 75.2723 65.3995 75.1571 65.332 74.9351C64.9979 73.834 64.2182 72.7176 63.5071 71.8237C63.41 71.7016 63.2203 71.8583 63.2952 71.9876Z" fill="#702624"/>
<path d="M63.4982 70.8807C64.1218 71.7415 64.5909 72.6691 65.1469 73.5686C65.2663 73.7611 65.603 73.6393 65.5254 73.4093C65.1811 72.3919 64.4477 71.4751 63.6726 70.7459C63.585 70.6637 63.4211 70.774 63.4982 70.8807Z" fill="#702624"/>
<path d="M64.2856 31.83C61.2897 29.721 57.4384 28.5074 53.4554 28.1818C54.6687 27.761 55.9637 27.2154 55.8554 26.8319C55.6546 26.1224 52.3754 26.6633 52.3754 26.6633C52.3754 26.6633 54.5846 24.7893 53.89 24.5113C53.1959 24.2334 50.6795 25.8444 50.6795 25.8444C50.6795 25.8444 49.8924 24.0544 49.5219 24.2242C49.1518 24.3939 49.4448 26.3381 49.4448 26.3381C49.4448 26.3381 47.6855 24.7333 47.4233 24.9801C47.1611 25.227 47.732 26.724 47.732 26.724C47.732 26.724 43.901 23.3058 43.729 24.1666C43.5566 25.0274 45.5078 27.495 45.5078 27.495C45.5078 27.495 42.6386 26.749 43.0402 27.495C43.3079 27.9918 44.5384 28.4867 45.3335 28.7631C42.7262 29.372 40.2866 30.3926 38.2451 31.83C27.6824 39.2654 26.6486 53.7089 29.7939 59.9994C34.5092 69.4297 51.2654 69.7031 51.2654 69.7031C51.2654 69.7031 68.0214 69.4297 72.7365 59.9994C75.8818 53.7089 74.8482 39.2654 64.2856 31.83Z" fill="#C98B62"/>
<path d="M70.715 46.5201C68.8812 37.395 61.4862 35.9107 57.9485 37.7083C54.0753 39.6764 53.4487 41.3761 51.2653 41.3761C49.0814 41.3761 48.4552 39.6764 44.582 37.7083C41.044 35.9107 33.6492 37.395 31.8152 46.5201C29.9813 55.6453 30.606 58.9107 35.3569 62.5827C40.953 66.9082 51.2653 66.6936 51.2653 66.6936C51.2653 66.6936 61.5775 66.9082 67.1735 62.5827C71.9244 58.9107 72.549 55.6453 70.715 46.5201Z" fill="#F7DFBD"/>
<path d="M46.6176 52.9404C47.3532 50.5147 47.1943 46.2414 41.8003 44.4764C37.2695 42.994 33.5792 45.0377 31.8493 46.3712C31.839 46.4207 31.8265 46.4675 31.8162 46.5175C31.1486 49.8397 30.8089 52.3825 30.8734 54.4535C30.8734 54.4535 35.2656 53.5332 38.9105 56.121C42.5551 58.7084 45.5472 56.4704 46.6176 52.9404Z" fill="#A26145"/>
<path d="M55.9163 52.9404C55.1806 50.5147 55.3396 46.2414 60.7332 44.4764C65.2641 42.994 68.9541 45.0377 70.6842 46.3712C70.6945 46.4207 70.7072 46.4675 70.7172 46.5175C71.3849 49.8397 71.7247 52.3825 71.6602 54.4535C71.6602 54.4535 67.2682 53.5332 63.6231 56.121C59.9784 58.7084 56.9867 56.4704 55.9163 52.9404Z" fill="#A26145"/>
<path d="M35.6721 59.0293C31.3432 58.0368 32.7276 55.0766 35.6721 55.7808C39.748 56.7552 39.2141 59.8417 35.6721 59.0293Z" fill="#FFB6C3"/>
<path d="M66.8589 59.0293C71.1874 58.0368 69.8033 55.0766 66.8589 55.7808C62.7826 56.7552 63.3166 59.8417 66.8589 59.0293Z" fill="#FFB6C3"/>
<mask id="mask0_2010_12529" style="mask-type:luminance" maskUnits="userSpaceOnUse" x="34" y="48" width="12" height="9">
<path d="M45.5364 49.1995C39.973 50.0097 35.88 48.6021 34.9077 48.2213C34.2475 49.9663 34.2813 52.0227 34.887 53.5657C35.76 53.6018 39.314 53.919 42.205 56.668C43.4136 56.2406 44.2053 55.4267 44.8492 54.4016C45.6823 53.075 45.953 51.0536 45.5364 49.1995Z" fill="white"/>
</mask>
<g mask="url(#mask0_2010_12529)">
<path d="M40.0714 45.9519C35.581 45.8382 34.7284 51.2384 36.263 53.6829C37.0305 54.9046 37.9899 55.7539 40.0714 55.7539C42.086 55.7539 43.1126 54.9046 43.8797 53.6829C45.4147 51.2384 44.562 45.8382 40.0714 45.9519Z" fill="white"/>
<path d="M44.6301 49.2498C43.7098 46.1656 40.0727 44.4517 37.2717 46.5158C35.1068 48.111 34.747 51.5796 36.0381 53.8145C36.2064 54.1059 36.6584 53.8433 36.4897 53.5511C35.4405 51.7343 35.5874 49.0083 37.0377 47.4322C39.3405 44.9301 43.2341 46.4002 44.126 49.3888C44.222 49.7105 44.7269 49.5731 44.6301 49.2498Z" fill="#702624"/>
<path d="M44.0825 51.0115C44.0825 52.9508 42.8106 54.5234 41.2418 54.5234C39.6726 54.5234 38.4008 52.9508 38.4008 51.0115C38.4008 49.0722 39.6726 47.5 41.2418 47.5C42.8106 47.5 44.0825 49.0722 44.0825 51.0115Z" fill="#702624"/>
</g>
<path d="M38.5202 47.3826C39.2803 47.057 40.3198 46.8274 41.5242 47.2601C42.3858 47.57 42.863 46.8796 42.2318 46.3859C41.5046 45.8165 39.6814 45.4863 38.407 46.1125C37.1325 46.7383 37.2197 47.1653 37.3217 47.4087C37.4236 47.6517 37.8059 47.6886 38.5202 47.3826Z" fill="#702624"/>
<path d="M34.883 53.8537C37.4348 54.0276 39.9685 55.1253 41.9921 56.6396C42.2893 56.8619 42.5765 56.362 42.2831 56.1424C40.173 54.5636 37.5359 53.4586 34.883 53.2778C34.5131 53.2528 34.5148 53.8287 34.883 53.8537Z" fill="#702624"/>
<path d="M34.736 48.3783C38.0576 49.9314 42.0588 50.0504 45.6072 49.4776C45.9723 49.4181 45.8172 48.8633 45.454 48.9216C42.0661 49.4691 38.1997 49.3651 35.0268 47.8808C34.6931 47.7249 34.4004 48.2213 34.736 48.3783Z" fill="#702624"/>
<mask id="mask1_2010_12529" style="mask-type:luminance" maskUnits="userSpaceOnUse" x="56" y="48" width="13" height="9">
<path d="M57.0288 49.1995C62.5921 50.0097 66.6853 48.6021 67.6574 48.2213C68.3174 49.9663 68.284 52.0227 67.6781 53.5657C66.8051 53.6018 63.2513 53.919 60.3602 56.668C59.1512 56.2406 58.3599 55.4267 57.716 54.4016C56.8829 53.075 56.6126 51.0536 57.0288 49.1995Z" fill="white"/>
</mask>
<g mask="url(#mask1_2010_12529)">
<path d="M62.4905 45.9519C66.981 45.8382 67.8338 51.2384 66.2988 53.6829C65.5317 54.9046 64.5718 55.7539 62.4905 55.7539C60.4759 55.7539 59.4493 54.9046 58.6818 53.6829C57.1472 51.2384 57.9999 45.8382 62.4905 45.9519Z" fill="white"/>
<path d="M58.4358 49.3887C59.3293 46.3936 63.2236 44.9335 65.5242 47.4321C66.9739 49.0071 67.121 51.735 66.072 53.551C65.9035 53.8428 66.3554 54.1062 66.5236 53.8144C67.8148 51.5791 67.4546 48.1106 65.29 46.5157C62.4906 44.4531 58.8517 46.1659 57.9317 49.2497C57.8354 49.573 58.3399 49.7108 58.4358 49.3887Z" fill="#702624"/>
<path d="M58.4805 51.0115C58.4805 52.9508 59.7525 54.5234 61.3212 54.5234C62.8904 54.5234 64.1624 52.9508 64.1624 51.0115C64.1624 49.0722 62.8904 47.5 61.3212 47.5C59.7525 47.5 58.4805 49.0722 58.4805 51.0115Z" fill="#702624"/>
</g>
<path d="M64.0382 47.3826C63.278 47.057 62.2383 46.8274 61.0343 47.2601C60.1727 47.57 59.6955 46.8796 60.3267 46.3859C61.0535 45.8165 62.8768 45.4863 64.1515 46.1125C65.4262 46.7383 65.3386 47.1653 65.2369 47.4087C65.1348 47.6517 64.7527 47.6886 64.0382 47.3826Z" fill="#702624"/>
<path d="M67.6729 53.2778C65.0206 53.4587 62.3822 54.5644 60.2728 56.1424C59.9795 56.3616 60.2663 56.8619 60.5634 56.6396C62.5883 55.125 65.1208 54.0277 67.6729 53.8537C68.0407 53.8288 68.0434 53.2529 67.6729 53.2778Z" fill="#702624"/>
<path d="M67.5297 47.8802C64.3576 49.3638 60.4875 49.4682 57.1023 48.9211C56.7394 48.8627 56.5836 49.4175 56.9491 49.477C60.5001 50.0506 64.4974 49.9316 67.82 48.3778C68.1555 48.2208 67.8638 47.7243 67.5297 47.8802Z" fill="#702624"/>
<path d="M50.9781 55.9032C50.9781 57.2478 50.9781 58.5924 50.9781 59.9365C50.9781 60.3074 51.5541 60.3078 51.5541 59.9365C51.5541 58.5924 51.5541 57.2478 51.5541 55.9032C51.5541 55.5327 50.9781 55.532 50.9781 55.9032Z" fill="#702624"/>
<path d="M46.341 59.6687C46.7576 60.6965 47.7032 61.5278 48.8305 61.626C49.9604 61.7243 51.1867 61.1404 51.545 60.0047C51.6567 59.6503 51.1007 59.4986 50.9898 59.8515C50.6938 60.7894 49.5711 61.1914 48.6754 61.0271C47.8779 60.8808 47.16 60.1659 46.8962 59.5155C46.7587 59.1765 46.2013 59.3247 46.341 59.6687Z" fill="#702624"/>
<path d="M45.7786 59.8781C46.4317 59.9442 47.0786 59.6251 47.4468 59.0933C47.6584 58.7881 47.1593 58.5001 46.9496 58.8031C46.692 59.1751 46.2224 59.3475 45.7786 59.3022C45.41 59.2653 45.4127 59.8413 45.7786 59.8781Z" fill="#702624"/>
<path d="M55.6382 59.515C55.374 60.1666 54.6561 60.8803 53.859 61.0266C52.9617 61.1913 51.841 60.7905 51.545 59.851C51.4337 59.4989 50.8777 59.6494 50.9898 60.0042C51.3473 61.1387 52.5743 61.7265 53.7039 61.6256C54.8323 61.525 55.776 60.698 56.1938 59.6682C56.3327 59.325 55.776 59.1752 55.6382 59.515Z" fill="#702624"/>
<path d="M56.7538 59.3022C56.3104 59.3475 55.8404 59.1751 55.5828 58.8031C55.3732 58.5001 54.8741 58.7881 55.0856 59.0933C55.4534 59.6251 56.1011 59.9442 56.7538 59.8781C57.119 59.8416 57.1232 59.2653 56.7538 59.3022Z" fill="#702624"/>
<path d="M55.5977 53.9526C54.8371 52.4763 47.6962 52.4763 46.9356 53.9526C46.1754 55.4288 48.709 57.4944 51.2668 58.1836C53.8242 57.4944 56.3579 55.4288 55.5977 53.9526Z" fill="#702624"/>
<path d="M54.6339 54.4531C54.6193 54.4531 54.6044 54.4508 54.5882 54.4466C53.4418 54.1314 52.3702 54.0055 51.2952 54.0055C50.1967 54.0055 49.0952 54.1371 47.9088 54.3318L47.8984 54.3072C48.9435 53.7954 50.1215 53.5704 51.3078 53.5704C52.4593 53.5704 53.6188 53.7831 54.6696 54.1513C54.8378 54.2105 54.7906 54.4531 54.6339 54.4531Z" fill="#9D3532"/>
<path d="M29.4716 55.6992C27.5536 44.543 34.2179 33.2928 45.1313 29.9287C45.1566 29.921 45.1808 29.9172 45.2035 29.9172C45.4281 29.9172 45.4949 30.275 45.2507 30.3626C34.6388 34.1747 28.1363 44.3945 29.4893 55.6969L29.4716 55.6992Z" fill="#D9AE80"/>
<path d="M73.0606 55.6992L73.0429 55.6969C74.3955 44.3948 67.8935 34.1751 57.2814 30.3626C57.0368 30.2746 57.1044 29.9172 57.3286 29.9172C57.3512 29.9172 57.3754 29.921 57.4012 29.9287C68.3139 33.2928 74.9784 44.5434 73.0606 55.6992Z" fill="#D9AE80"/>
<path d="M29.7882 59.9922C29.7874 59.9903 29.7864 59.9883 29.7855 59.9864C29.7864 59.9883 29.7873 59.9903 29.7882 59.9922ZM72.7417 59.9918C72.7429 59.9899 72.7433 59.9891 72.7444 59.9872C72.7433 59.9887 72.7425 59.9903 72.7417 59.9918ZM29.7832 59.9818C29.7487 59.9123 29.7145 59.8417 29.6811 59.7707C29.7147 59.8421 29.7484 59.9119 29.7832 59.9818ZM72.7475 59.9807C72.7486 59.978 72.7498 59.9761 72.7513 59.9734C72.7498 59.9757 72.7486 59.978 72.7475 59.9807ZM72.7651 59.945C72.7674 59.9404 72.7694 59.9361 72.7717 59.9315C72.7694 59.9361 72.7671 59.9407 72.7651 59.945ZM72.7782 59.9181C72.7824 59.9096 72.7863 59.902 72.7901 59.8935C72.7863 59.9016 72.7824 59.91 72.7782 59.9181ZM72.7924 59.8889C72.7936 59.8866 72.7943 59.8851 72.7955 59.8828C72.7943 59.8847 72.7936 59.887 72.7924 59.8889ZM72.8001 59.8736C72.8009 59.8716 72.8012 59.8705 72.8024 59.8686C72.8016 59.8701 72.8009 59.8716 72.8001 59.8736ZM29.6802 59.7684C29.6791 59.766 29.6779 59.7637 29.6769 59.7614C29.6779 59.7637 29.679 59.766 29.6802 59.7684ZM29.6742 59.7557C29.6733 59.7538 29.6726 59.7522 29.6718 59.7507C29.6726 59.7522 29.6733 59.7541 29.6742 59.7557ZM29.6664 59.7388C29.6662 59.7384 29.666 59.738 29.6656 59.7376C29.6658 59.738 29.6662 59.7384 29.6664 59.7388Z" fill="#AAC67C"/>
<path d="M51.2651 69.7031C51.2651 69.7031 46.0386 69.6179 40.6023 67.8998C40.2756 67.7965 39.9489 67.6878 39.6216 67.5723C35.6453 66.1701 31.7172 63.8465 29.7937 59.9994C29.7917 59.9956 29.7901 59.9921 29.7881 59.9886C29.7872 59.9867 29.7863 59.9848 29.7854 59.9829C29.7846 59.9814 29.7839 59.9798 29.7831 59.9783C29.7484 59.9084 29.7146 59.8385 29.681 59.7671C29.6807 59.766 29.6804 59.7656 29.6801 59.7648C29.6789 59.7625 29.6779 59.7602 29.6768 59.7579C29.6759 59.756 29.675 59.7541 29.6741 59.7521C29.6732 59.7506 29.6725 59.7487 29.6717 59.7471C29.6699 59.7433 29.6681 59.7395 29.6663 59.7352C29.6662 59.7349 29.6657 59.7345 29.6656 59.7341C28.64 57.5284 28.1054 54.41 28.2633 50.9706C28.3887 53.6014 28.9333 55.9342 29.7937 57.6547C34.5089 67.085 51.2651 67.3588 51.2651 67.3588C51.2651 67.3588 68.0211 67.085 72.7363 57.6547C73.5967 55.9342 74.1411 53.6014 74.2667 50.9706C74.4268 54.4591 73.8743 57.6178 72.82 59.8282L72.8196 59.8285C72.8177 59.8328 72.8158 59.8374 72.8135 59.8416C72.8135 59.842 72.8131 59.8424 72.8131 59.8427C72.8112 59.8462 72.8096 59.8497 72.8077 59.8535C72.8073 59.8547 72.8065 59.8558 72.8062 59.857C72.805 59.8596 72.8035 59.8623 72.8023 59.865C72.8012 59.8669 72.8008 59.8681 72.8 59.87C72.7985 59.8731 72.7969 59.8762 72.7954 59.8792C72.7943 59.8815 72.7935 59.8831 72.7923 59.8854C72.7916 59.8869 72.7908 59.8884 72.79 59.89C72.7862 59.8984 72.7824 59.9061 72.7781 59.9145C72.7777 59.9153 72.7774 59.9161 72.777 59.9169C72.7758 59.9192 72.7747 59.9218 72.7735 59.9241C72.7728 59.9257 72.772 59.9268 72.7716 59.928C72.7693 59.9326 72.7674 59.9368 72.7651 59.9414C72.7643 59.9426 72.7643 59.9433 72.7635 59.9441C72.7624 59.9468 72.7612 59.9491 72.7601 59.9518C72.7593 59.9529 72.7589 59.9541 72.7582 59.9552C72.757 59.9576 72.7559 59.9599 72.7547 59.9622C72.7536 59.9645 72.7524 59.9671 72.7513 59.9698C72.7497 59.9725 72.7486 59.9744 72.7474 59.9771C72.7463 59.979 72.7451 59.9814 72.7443 59.9837C72.7432 59.9856 72.7428 59.9863 72.7417 59.9883C72.7397 59.9921 72.7382 59.9956 72.7363 59.9994C70.807 63.858 66.862 66.1835 62.8736 67.5845C62.588 67.6851 62.3011 67.7807 62.0159 67.8717C56.5478 69.617 51.2651 69.7031 51.2651 69.7031Z" fill="#BC7850"/>
<path d="M64.4312 31.5815C61.1474 29.3589 57.3801 28.2646 53.4559 27.8941C53.4816 28.0826 53.5069 28.2711 53.5327 28.4597C54.0921 28.2573 56.9087 27.5025 55.9135 26.4501C55.2301 25.7275 53.1468 26.2509 52.2994 26.386C52.3927 26.5465 52.486 26.7066 52.5797 26.8671C53.0443 26.4678 54.6027 25.3236 54.2844 24.5358C53.8821 23.541 51.8403 24.8387 51.3718 25.0994C51.1968 25.1969 50.7787 25.5701 50.5844 25.5644C51.1119 25.5797 50.7364 25.2227 50.4888 24.8257C50.3175 24.5511 50.0234 23.9176 49.6007 23.9468C48.6697 24.0109 49.0882 25.8542 49.1676 26.4148C49.3281 26.3215 49.4886 26.2282 49.6491 26.1349C49.2245 25.7517 48.0676 24.4678 47.4077 24.6921C46.6651 24.9439 47.2925 26.3607 47.4549 26.8007C47.6154 26.7074 47.7759 26.6141 47.936 26.5208C47.2529 25.9137 44.8199 23.326 43.7951 23.7529C42.489 24.297 44.871 27.1439 45.3048 27.6987C45.3981 27.5382 45.4914 27.3777 45.5851 27.2176C45.0207 27.0744 43.2327 26.452 42.8011 27.1347C42.1995 28.0872 44.7324 28.8501 45.2572 29.041C45.2572 28.8563 45.2572 28.6708 45.2572 28.4858C34.7289 31.0981 28.2307 40.902 27.9549 51.4808C27.8604 55.1048 28.4402 58.983 30.6695 61.9482C33.1782 65.2846 37.1698 67.1851 41.0807 68.3477C45.4357 69.6419 49.9797 70.272 54.4964 69.7413C61.5566 68.9125 70.628 66.4276 73.4538 59.0724C77.1423 49.4705 72.4825 37.3997 64.4312 31.5815C64.1306 31.3642 63.8426 31.8637 64.1406 32.0787C71.6309 37.4915 75.5563 47.6997 73.536 56.7723C71.7534 64.7763 63.35 67.8209 56.0809 68.9489C45.7863 70.5469 30.4462 67.3867 28.7375 55.3271C27.1115 43.8496 33.9129 31.894 45.4104 29.041C45.7049 28.9684 45.6623 28.5775 45.4104 28.4858C44.9858 28.3311 44.0052 28.1053 43.7226 27.7348C43.3801 27.2844 43.6773 27.4967 44.0896 27.506C44.5331 27.5159 45.0034 27.6641 45.4319 27.7728C45.7329 27.8492 45.8807 27.5075 45.7118 27.2913C45.349 26.8268 45.0053 26.3418 44.6959 25.8393C44.2394 25.0979 43.6485 24.1933 44.8291 24.7823C45.8105 25.2722 46.7081 26.199 47.529 26.9277C47.7256 27.1024 48.1176 26.9377 48.0101 26.6479C47.8657 26.2562 47.5017 25.5164 47.9671 25.5072C48.2972 25.5002 48.9691 26.2962 49.2417 26.5419C49.4702 26.7481 49.7624 26.5388 49.7232 26.262C49.6867 26.0067 49.4322 24.8975 49.8031 24.808C49.906 24.7827 50.3744 25.8642 50.4312 25.9902C50.4938 26.1288 50.7042 26.1695 50.8251 26.0931C51.1975 25.8581 52.8132 24.699 53.1725 24.8802C53.841 25.2177 52.4764 26.1986 52.1724 26.4597C51.9309 26.6674 52.1996 26.9815 52.4526 26.9412C52.9756 26.8579 53.5108 26.7891 54.0406 26.7696C54.3109 26.76 55.1245 26.6382 55.2888 26.8083C55.576 27.1055 53.6267 27.815 53.3795 27.9045C53.0681 28.017 53.1295 28.4393 53.4559 28.47C57.2822 28.8309 60.9385 29.9117 64.1406 32.0787C64.4485 32.2872 64.7368 31.7884 64.4312 31.5815Z" fill="#702624"/>
<path d="M44.6237 27.8021C45.405 28.1012 46.057 28.5224 46.7477 28.9827C46.9035 29.0867 47.041 28.8406 46.8928 28.7339C46.2317 28.2586 45.4208 27.9557 44.6394 27.7437C44.6018 27.7337 44.5884 27.7879 44.6237 27.8021Z" fill="#702624"/>
<path d="M45.5844 25.8517C46.0769 26.2978 46.5511 26.7697 46.9938 27.2654C47.4372 27.7622 47.8001 28.3316 48.2535 28.8161C48.3349 28.9033 48.4662 28.7927 48.414 28.6925C47.8093 27.5407 46.6467 26.5689 45.6135 25.8141L45.5844 25.8517Z" fill="#702624"/>
<path d="M48.2596 26.2524C48.5303 27.0468 48.8156 27.8377 49.0544 28.6421C49.1027 28.8045 49.3592 28.7346 49.3089 28.5718C49.0551 27.7502 48.7514 26.9727 48.3199 26.2275C48.3015 26.1956 48.2473 26.2167 48.2596 26.2524Z" fill="#702624"/>
<path d="M50.1068 25.8483C50.1813 26.7548 50.1287 27.6759 49.9832 28.5728C49.956 28.7421 50.2132 28.8162 50.2439 28.6446C50.4121 27.6885 50.3783 26.7851 50.1717 25.8395C50.1641 25.8038 50.1038 25.8107 50.1068 25.8483Z" fill="#702624"/>
<path d="M52.0503 25.9187C51.3158 26.5879 50.7123 27.4452 50.4658 28.4197C50.4232 28.5886 50.6731 28.6562 50.7261 28.4911C51.031 27.5462 51.4237 26.7081 52.0929 25.9613L52.0503 25.9187Z" fill="#702624"/>
<path d="M54.4194 26.8447C53.2077 27.0478 51.9426 27.5818 51.0937 28.4979C51.0081 28.5901 51.1241 28.7636 51.2358 28.6818C52.2586 27.9281 53.2104 27.2996 54.4386 26.9141C54.4836 26.9003 54.4644 26.8374 54.4194 26.8447Z" fill="#702624"/>
</g>
<defs>
<filter id="filter0_d_2010_12529" x="0.371439" y="0.371988" width="101.257" height="101.256" filterUnits="userSpaceOnUse" color-interpolation-filters="sRGB">
<feFlood flood-opacity="0" result="BackgroundImageFix"/>
<feColorMatrix in="SourceAlpha" type="matrix" values="0 0 0 0 0 0 0 0 0 0 0 0 0 0 0 0 0 0 127 0" result="hardAlpha"/>
<feOffset/>
<feGaussianBlur stdDeviation="8.17143"/>
<feComposite in2="hardAlpha" operator="out"/>
<feColorMatrix type="matrix" values="0 0 0 0 0 0 0 0 0 0 0 0 0 0 0 0 0 0 0.25 0"/>
<feBlend mode="normal" in2="BackgroundImageFix" result="effect1_dropShadow_2010_12529"/>
<feBlend mode="normal" in="SourceGraphic" in2="effect1_dropShadow_2010_12529" result="shape"/>
</filter>
</defs>
</svg>
