<?xml version="1.0" encoding="UTF-8"?>
<svg version="1.1" xmlns="http://www.w3.org/2000/svg" width="512" height="269">
<path d="M0 0 C25.77133229 24.77274118 48.70355654 57.45801508 50.76953125 94.15625 C50.82725959 97.74117995 50.672168 101.15071189 50.1796875 104.70703125 C49.40496345 110.73731572 48.95802182 114.44693626 52.62109375 119.51953125 C53.48734375 120.50953125 53.48734375 120.50953125 54.37109375 121.51953125 C55.62109375 123.51953125 55.62109375 123.51953125 55.6015625 126.0703125 C54.31978741 129.27219689 52.92101126 130.04140086 49.93359375 131.70703125 C48.65935547 132.43986328 48.65935547 132.43986328 47.359375 133.1875 C44.62109375 134.51953125 44.62109375 134.51953125 41.5078125 135.4296875 C38.13052067 136.70474084 37.17188854 137.84811603 35.12109375 140.76953125 C30.07448348 147.47878444 24.12485079 153.18558224 18.13476562 159.03808594 C16.28247171 160.85094391 14.44923211 162.6823427 12.62109375 164.51953125 C13.59046875 164.60203125 14.55984375 164.68453125 15.55859375 164.76953125 C24.30408447 166.05667001 32.7739961 170.84500905 38.3828125 177.66015625 C43.17281367 184.47981893 44.90546778 190.70336228 44.87109375 199.08203125 C44.87625 200.34144531 44.88140625 201.60085938 44.88671875 202.8984375 C44.62109375 206.51953125 44.62109375 206.51953125 42.62109375 212.51953125 C-76.17890625 212.51953125 -194.97890625 212.51953125 -317.37890625 212.51953125 C-320.32847111 203.67083667 -321.02404771 193.4523155 -317.49609375 184.58203125 C-314.42127108 178.90543554 -310.57394479 174.31546597 -305.37890625 170.51953125 C-306.2450354 170.02308105 -306.2450354 170.02308105 -307.12866211 169.51660156 C-325.07107199 159.18865403 -341.86540491 148.2541511 -357.37890625 134.51953125 C-358.28382813 133.72546875 -359.18875 132.93140625 -360.12109375 132.11328125 C-369.06276723 124.17720631 -376.95802252 115.90041583 -384.37890625 106.51953125 C-385.19617188 105.50761719 -386.0134375 104.49570313 -386.85546875 103.453125 C-393.1512319 95.56632628 -398.40779972 87.29126847 -403.37890625 78.51953125 C-403.72163574 77.92978516 -404.06436523 77.34003906 -404.41748047 76.73242188 C-416.66269135 55.60664878 -432.72961308 19.4221779 -426.86328125 -5.6875 C-425.23043767 -9.25717399 -423.82201717 -11.54371886 -420.37890625 -13.48046875 C-417.14901683 -14.55709856 -414.71005103 -14.63684521 -411.3125 -14.69140625 C-410.10400391 -14.71976563 -408.89550781 -14.748125 -407.65039062 -14.77734375 C-405.12188217 -14.8288671 -402.59321786 -14.87329763 -400.06445312 -14.91015625 C-391.54805132 -15.12656032 -383.61991114 -15.65313215 -376.37890625 -20.48046875 C-374.17529297 -20.62817383 -374.17529297 -20.62817383 -371.55859375 -20.5 C-328.46506279 -19.07637442 -284.3257638 -31.55983288 -242.8125 -42.14453125 C-161.08693353 -62.8313356 -65.15406012 -59.66526254 0 0 Z " fill="#E7B229" transform="translate(441.37890625,56.48046875)"/>
<path d="M0 0 C0.495 0.99 0.495 0.99 1 2 C2.63638047 2.20454756 4.2729151 2.40792841 5.91015625 2.60546875 C14.96828671 4.31550833 23.14085236 9.98549319 28.375 17.4375 C32.32065561 23.42211173 33.27903582 29.48501948 33.25 36.5625 C33.25773437 38.45162109 33.25773437 38.45162109 33.265625 40.37890625 C33 44 33 44 31 50 C-5.63 50 -42.26 50 -80 50 C-79.01 48.68 -78.02 47.36 -77 46 C-77.99 45.505 -77.99 45.505 -79 45 C-80.485 45.495 -80.485 45.495 -82 46 C-82 45.34 -82 44.68 -82 44 C-82.55429687 44.15597656 -83.10859375 44.31195313 -83.6796875 44.47265625 C-84.76636719 44.76462891 -84.76636719 44.76462891 -85.875 45.0625 C-86.59429687 45.25972656 -87.31359375 45.45695312 -88.0546875 45.66015625 C-90 46 -90 46 -92 45 C-92 45.66 -92 46.32 -92 47 C-92.66 46.67 -93.32 46.34 -94 46 C-94.33 46.33 -94.66 46.66 -95 47 C-96.08861328 46.76990234 -96.08861328 46.76990234 -97.19921875 46.53515625 C-100.25910181 45.9504924 -102.72342243 46.10253978 -105.8125 46.4375 C-107.27623047 46.59025391 -107.27623047 46.59025391 -108.76953125 46.74609375 C-109.50558594 46.82988281 -110.24164063 46.91367187 -111 47 C-106.7319459 40.59791885 -99.39133139 39.19988316 -92.2109375 37.703125 C-90.56605347 37.35314453 -90.56605347 37.35314453 -88.88793945 36.99609375 C-87.72866943 36.74988281 -86.56939941 36.50367188 -85.375 36.25 C-73.7174026 33.71033427 -62.32271683 30.75827489 -51 27 C-50.32001953 26.77908691 -49.64003906 26.55817383 -48.93945312 26.33056641 C-31.19984377 20.48277483 -14.74172814 11.42174231 0 0 Z " fill="#D6D6D6" transform="translate(453,219)"/>
<path d="M0 0 C0.75168457 0.34611328 0.75168457 0.34611328 1.51855469 0.69921875 C33.03463451 15.16374155 64.65296836 26.82850935 98.98339844 32.4921875 C99.88219727 32.64816406 100.78099609 32.80414063 101.70703125 32.96484375 C102.48925049 33.09109131 103.27146973 33.21733887 104.07739258 33.34741211 C106 34 106 34 108.125 37.125 C108.41375 38.07375 108.7025 39.0225 109 40 C105.01803543 41.05404945 102.01804691 40.84098656 98 40 C97.34 40.99 96.68 41.98 96 43 C94.05161095 43.36914349 94.05161095 43.36914349 91.62142944 43.36076355 C90.70153732 43.36488754 89.7816452 43.36901154 88.83387756 43.3732605 C87.82183762 43.36247467 86.80979767 43.35168884 85.76708984 43.34057617 C84.17194298 43.34123329 84.17194298 43.34123329 82.54457092 43.34190369 C79.01650873 43.33980746 75.48891705 43.31643672 71.9609375 43.29296875 C69.51999166 43.28737577 67.07904245 43.28310427 64.63809204 43.28010559 C58.20343785 43.26863339 51.76898577 43.23914565 45.33441162 43.20599365 C38.77244806 43.17534398 32.21045195 43.16161117 25.6484375 43.14648438 C12.76553861 43.11427834 -0.11721996 43.0636273 -13 43 C-16.09506199 34.2369469 -16.6169911 23.84277628 -13.11328125 15.05859375 C-9.79593447 8.92441217 -5.51547607 4.21715954 0 0 Z " fill="#DADADA" transform="translate(137,226)"/>
<path d="M0 0 C1.32451172 0.2165625 1.32451172 0.2165625 2.67578125 0.4375 C9.40303717 1.47802079 15.77804778 2.09844857 22.578125 1.9375 C26.00269369 2.02587597 28.78464909 2.85676412 32 4 C32.33 3.34 32.66 2.68 33 2 C33 2.66 33 3.32 33 4 C33.969375 3.814375 34.93875 3.62875 35.9375 3.4375 C37.4534375 3.2209375 37.4534375 3.2209375 39 3 C39.495 3.495 39.495 3.495 40 4 C44.65971993 4.26415143 49.33346778 4.19298319 54 4.1875 C55.04426147 4.18808914 55.04426147 4.18808914 56.10961914 4.18869019 C68.5864544 4.18027538 80.91342449 3.42947943 93.33544922 2.24365234 C97.24032986 1.88658153 101.14932934 1.62195228 105.0625 1.375 C106.22910156 1.30023438 107.39570313 1.22546875 108.59765625 1.1484375 C109.39042969 1.09945313 110.18320312 1.05046875 111 1 C108.9859524 4.0210714 107.36720387 5.60667426 104 7 C104.84304688 6.91621094 105.68609375 6.83242188 106.5546875 6.74609375 C107.65039062 6.64425781 108.74609375 6.54242188 109.875 6.4375 C111.51082031 6.28087891 111.51082031 6.28087891 113.1796875 6.12109375 C116 6 116 6 118 7 C118.33 6.67 118.66 6.34 119 6 C119.99 6.495 119.99 6.495 121 7 C121.33 6.67 121.66 6.34 122 6 C123.59633017 5.73830653 125.20329125 5.53992623 126.8125 5.375 C127.68519531 5.27960938 128.55789063 5.18421875 129.45703125 5.0859375 C132.74544012 4.97480848 135.07422996 5.53711498 138 7 C135.85937888 9.57480133 134.66988532 10.87691 131.3213768 11.49219131 C130.29265583 11.48850414 129.26393486 11.48481697 128.20404053 11.48101807 C127.0205603 11.48651672 125.83708008 11.49201538 124.61773682 11.49768066 C123.32301453 11.48329956 122.02829224 11.46891846 120.69433594 11.45410156 C119.31445346 11.45297303 117.93456858 11.45360706 116.5546875 11.45587158 C112.81103159 11.45701945 109.06788811 11.4334989 105.32435131 11.40557575 C101.41126794 11.38057399 97.49817289 11.37822108 93.58502197 11.37347412 C86.1760215 11.3610407 78.76725706 11.32821427 71.35836053 11.28807616 C62.92315328 11.24336974 54.48793476 11.22137428 46.05263853 11.20129442 C28.70162248 11.15948185 11.3508362 11.08912283 -6 11 C-5.34 9.68 -4.68 8.36 -4 7 C-1.98177083 7.29296875 0.03645833 7.5859375 2.0546875 7.87890625 C4.08140667 8.1684297 4.08140667 8.1684297 6 7 C5.34 6.34 4.68 5.68 4 5 C4 4.01 4 3.02 4 2 C2.68 2 1.36 2 0 2 C0 1.34 0 0.68 0 0 Z " fill="#6D6D6D" transform="translate(239,258)"/>
<path d="M0 0 C1.32451172 0.2165625 1.32451172 0.2165625 2.67578125 0.4375 C9.40303717 1.47802079 15.77804778 2.09844857 22.578125 1.9375 C26.00269369 2.02587597 28.78464909 2.85676412 32 4 C32.33 3.34 32.66 2.68 33 2 C33 2.66 33 3.32 33 4 C33.969375 3.814375 34.93875 3.62875 35.9375 3.4375 C37.4534375 3.2209375 37.4534375 3.2209375 39 3 C39.495 3.495 39.495 3.495 40 4 C44.65971993 4.26415143 49.33346778 4.19298319 54 4.1875 C55.04426147 4.18808914 55.04426147 4.18808914 56.10961914 4.18869019 C68.5864544 4.18027538 80.91342449 3.42947943 93.33544922 2.24365234 C97.24032986 1.88658153 101.14932934 1.62195228 105.0625 1.375 C106.22910156 1.30023438 107.39570313 1.22546875 108.59765625 1.1484375 C109.39042969 1.09945313 110.18320312 1.05046875 111 1 C108.18166321 5.21042436 105.95649144 5.88906226 101 7 C100.29746094 7.17015625 99.59492188 7.3403125 98.87109375 7.515625 C94.74036794 8.21250935 90.61884642 8.3771032 86.4375 8.5625 C85.50349365 8.6042334 84.5694873 8.6459668 83.60717773 8.68896484 C68.86742126 9.29778898 54.17829481 9.02981672 39.4375 8.5625 C38.17687744 8.52334473 36.91625488 8.48418945 35.61743164 8.44384766 C17.06351441 7.80197975 17.06351441 7.80197975 11.82983398 6.43188477 C9.94635126 5.83565709 9.94635126 5.83565709 7.875 6.5625 C7.25625 6.706875 6.6375 6.85125 6 7 C5.34 6.34 4.68 5.68 4 5 C4 4.01 4 3.02 4 2 C2.68 2 1.36 2 0 2 C0 1.34 0 0.68 0 0 Z " fill="#5B5B5B" transform="translate(239,258)"/>
<path d="M0 0 C-1.51646821 0.65601744 -3.03846175 1.2992664 -4.5625 1.9375 C-5.40941406 2.29714844 -6.25632812 2.65679687 -7.12890625 3.02734375 C-31.16805739 11.17121944 -65.46908525 7.03929644 -90 2 C-90 1.67 -90 1.34 -90 1 C-84.51053913 -0.12029814 -81.16569441 0.20782031 -76 2 C-75.67 1.34 -75.34 0.68 -75 0 C-75 0.66 -75 1.32 -75 2 C-74.030625 1.814375 -73.06125 1.62875 -72.0625 1.4375 C-70.5465625 1.2209375 -70.5465625 1.2209375 -69 1 C-68.67 1.33 -68.34 1.66 -68 2 C-63.34027957 2.26415145 -58.66653277 2.19298821 -54 2.1875 C-52.95922806 2.18808914 -52.95922806 2.18808914 -51.89743042 2.18869019 C-37.07053413 2.17865109 -22.24883266 1.47839719 -7.55859375 -0.62890625 C-4.56074138 -0.94152532 -2.77283924 -1.03981471 0 0 Z " fill="#53514F" transform="translate(347,260)"/>
<path d="M0 0 C3.23067725 1.66428828 4.41354402 3.88673292 6.0625 7.0625 C6.3125 9.625 6.3125 9.625 5.0625 12.0625 C1.4816785 15.21085514 -2.08751315 17.375 -6.9375 17.375 C-7.9275 17.271875 -8.9175 17.16875 -9.9375 17.0625 C-9.2775 14.7525 -8.6175 12.4425 -7.9375 10.0625 C-7.2775 10.0625 -6.6175 10.0625 -5.9375 10.0625 C-5.834375 8.969375 -5.73125 7.87625 -5.625 6.75 C-4.9375 3.0625 -4.9375 3.0625 -3.625 1.0625 C-1.9375 0.0625 -1.9375 0.0625 0 0 Z " fill="#563D0B" transform="translate(490.9375,172.9375)"/>
<path d="M0 0 C3.31889905 0.27657492 4.76400263 0.78366908 7.25 3.0625 C9.44457917 6.74625789 10.20175125 9.72119225 10 14 C8.71405007 17.93349391 7.27756238 19.74136233 4.25 22.5625 C1 24 1 24 -2.6875 22.9375 C-8.3648294 19.6167979 -8.3648294 19.6167979 -9.6875 16.25 C-10.11719431 13.15620095 -10.05996827 10.11834997 -10 7 C-9.34 7 -8.68 7 -8 7 C-7.25989846 10.42296964 -7 13.50130105 -7 17 C-5.741875 16.79375 -4.48375 16.5875 -3.1875 16.375 C0.4014758 15.78664331 0.75073878 15.83382585 4 18 C6.11567261 13.5041957 6.89472216 9.60960629 5.25 4.8125 C3.77731937 2.67711308 2.1475856 1.43172373 0 0 Z " fill="#E0C467" transform="translate(147,67)"/>
<path d="M0 0 C-1.44238281 2.46948242 -1.44238281 2.46948242 -4 5 C-6.97403319 5.71023932 -9.87886549 5.5826183 -12.921875 5.48828125 C-13.78186096 5.48120651 -14.64184692 5.47413177 -15.52789307 5.46684265 C-18.2694875 5.43889611 -21.009025 5.3761598 -23.75 5.3125 C-25.61064755 5.28741734 -27.47132717 5.26460411 -29.33203125 5.24414062 C-33.88881106 5.18906887 -38.44405704 5.10279655 -43 5 C-43 4.67 -43 4.34 -43 4 C-39.75033015 3.66339508 -36.50021572 3.33128921 -33.25 3 C-32.32960938 2.90460938 -31.40921875 2.80921875 -30.4609375 2.7109375 C-29.12675781 2.57558594 -29.12675781 2.57558594 -27.765625 2.4375 C-26.94868164 2.35371094 -26.13173828 2.26992188 -25.29003906 2.18359375 C-23.19917501 2.01596798 -21.09757262 2 -19 2 C-19 1.34 -19 0.68 -19 0 C-18.34 0.33 -17.68 0.66 -17 1 C-16.67 0.67 -16.34 0.34 -16 0 C-10.4473125 -1.1568099 -5.58846175 -0.82369618 0 0 Z " fill="#787878" transform="translate(377,264)"/>
<path d="M0 0 C0.53625 0.06058594 1.0725 0.12117188 1.625 0.18359375 C7.11836378 0.77087771 12.61023266 1.17839066 18.125 1.5 C23.45129109 1.81177683 28.71881868 2.22982772 34 3 C34 3.33 34 3.66 34 4 C22.12 4 10.24 4 -2 4 C-1.34 2.68 -0.68 1.36 0 0 Z " fill="#7C7C7C" transform="translate(235,265)"/>
<path d="M0 0 C1.875 0 1.875 0 4 1 C6.45554902 3.92011235 7.94536394 5.82532467 8.125 9.6875 C6.52083901 12.98494204 4.31251062 13.66089996 1 15 C1 14.01 1 13.02 1 12 C1.66 12 2.32 12 3 12 C2.34 9.69 1.68 7.38 1 5 C0.01 5 -0.98 5 -2 5 C-2.33 5.66 -2.66 6.32 -3 7 C-2.25 2.25 -2.25 2.25 0 0 Z " fill="#684605" transform="translate(489,173)"/>
<path d="M0 0 C-10.83180428 4.60244648 -10.83180428 4.60244648 -16 5 C-16.33 4.67 -16.66 4.34 -17 4 C-18.48638992 3.84344973 -19.97949127 3.74933057 -21.47265625 3.68359375 C-22.82133789 3.62075195 -22.82133789 3.62075195 -24.19726562 3.55664062 C-25.14279297 3.51732422 -26.08832031 3.47800781 -27.0625 3.4375 C-28.01189453 3.39431641 -28.96128906 3.35113281 -29.93945312 3.30664062 C-32.29281353 3.20020724 -34.64628354 3.09818992 -37 3 C-37 2.67 -37 2.34 -37 2 C-36.28457031 1.94465088 -35.56914062 1.88930176 -34.83203125 1.83227539 C-31.55453439 1.57761219 -28.27726902 1.320078 -25 1.0625 C-23.87464844 0.97548828 -22.74929688 0.88847656 -21.58984375 0.79882812 C-16.85226951 0.42480911 -12.14201428 0.05080442 -7.4375 -0.62890625 C-4.49641553 -0.94640969 -2.72790301 -1.02296363 0 0 Z " fill="#554736" transform="translate(347,260)"/>
<path d="M0 0 C4.62 0.66 9.24 1.32 14 2 C14.66 3.65 15.32 5.3 16 7 C15.0925 6.814375 14.185 6.62875 13.25 6.4375 C10.14714806 5.81587232 10.14714806 5.81587232 7.75 6.5625 C7.1725 6.706875 6.595 6.85125 6 7 C5.34 6.34 4.68 5.68 4 5 C4 4.01 4 3.02 4 2 C2.68 2 1.36 2 0 2 C0 1.34 0 0.68 0 0 Z " fill="#5F584F" transform="translate(239,258)"/>
<path d="M0 0 C0.763125 0.061875 1.52625 0.12375 2.3125 0.1875 C0.921875 2.66796875 0.921875 2.66796875 -1.6875 5.1875 C-4.9517853 5.82540959 -8.12710423 5.65891856 -11.4375 5.5 C-12.32566406 5.47744141 -13.21382813 5.45488281 -14.12890625 5.43164062 C-16.31682812 5.37282552 -18.50129671 5.29071268 -20.6875 5.1875 C-20.6875 4.8575 -20.6875 4.5275 -20.6875 4.1875 C-18.93965171 3.82286268 -17.18909498 3.4711922 -15.4375 3.125 C-13.97570312 2.82916016 -13.97570312 2.82916016 -12.484375 2.52734375 C-9.78796633 2.1997075 -8.25170455 2.49290735 -5.6875 3.1875 C-5.213125 2.713125 -4.73875 2.23875 -4.25 1.75 C-2.6875 0.1875 -2.6875 0.1875 0 0 Z " fill="#8E8E8E" transform="translate(374.6875,263.8125)"/>
<path d="M0 0 C-9.9 0 -19.8 0 -30 0 C-30 -0.33 -30 -0.66 -30 -1 C-29.39003174 -1.02505615 -28.78006348 -1.0501123 -28.15161133 -1.07592773 C-25.37172102 -1.1924058 -22.5921266 -1.31489632 -19.8125 -1.4375 C-18.85279297 -1.47681641 -17.89308594 -1.51613281 -16.90429688 -1.55664062 C-15.97294922 -1.59853516 -15.04160156 -1.64042969 -14.08203125 -1.68359375 C-13.22843018 -1.72025146 -12.3748291 -1.75690918 -11.49536133 -1.79467773 C-8.9599333 -1.92557871 -8.9599333 -1.92557871 -6.43237305 -2.70727539 C-4 -3 -4 -3 0 0 Z " fill="#646464" transform="translate(344,267)"/>
<path d="M0 0 C0.33 -0.66 0.66 -1.32 1 -2 C1 -1.34 1 -0.68 1 0 C2.98 -0.33 4.96 -0.66 7 -1 C7.33 -0.34 7.66 0.32 8 1 C0.694365 3.3378032 -6.708357 1.47678846 -14 0 C-14 -0.33 -14 -0.66 -14 -1 C-9.04653013 -2.59789351 -4.86717585 -1.28306814 0 0 Z " fill="#5C462A" transform="translate(271,262)"/>
<path d="M0 0 C4.0042343 3.49087093 5.62671065 5.64951939 6 11 C4.02 11.99 4.02 11.99 2 13 C2.04125 12.154375 2.0825 11.30875 2.125 10.4375 C1.98464972 6.57786731 1.17219836 3.66311987 0 0 Z " fill="#AD8D4D" transform="translate(491,173)"/>
<path d="M0 0 C-2.67360368 3.4599577 -5.84953067 4.06972239 -10 5 C-12.9375 5.125 -12.9375 5.125 -15 5 C-10.87369509 1.38948321 -5.38708192 -1.79569397 0 0 Z " fill="#515150" transform="translate(350,260)"/>
<path d="M0 0 C0 1.32 0 2.64 0 4 C-2.875 4.1875 -2.875 4.1875 -6 4 C-6.66 3.01 -7.32 2.02 -8 1 C-4.93251126 -0.86240388 -3.40254489 -1.2151946 0 0 Z " fill="#FCE399" transform="translate(149,84)"/>
<path d="M0 0 C4.61691161 0.52464905 6.09987886 1.07490914 10 4 C6.04 4 2.08 4 -2 4 C-1.34 2.68 -0.68 1.36 0 0 Z " fill="#8B8B8B" transform="translate(235,265)"/>
<path d="M0 0 C0.99 0.33 1.98 0.66 3 1 C4.1875 3.5625 4.1875 3.5625 5 6 C1.25 7.125 1.25 7.125 -1 6 C-1.042721 4.33388095 -1.04063832 2.66617115 -1 1 C-0.67 0.67 -0.34 0.34 0 0 Z " fill="#DB9407" transform="translate(420,94)"/>
<path d="M0 0 C0.33 0.66 0.66 1.32 1 2 C0.34 1.67 -0.32 1.34 -1 1 C-0.67 0.67 -0.34 0.34 0 0 Z M-4 1 C-3.01 1.33 -2.02 1.66 -1 2 C-1.33 2.99 -1.66 3.98 -2 5 C-1.34 5.33 -0.68 5.66 0 6 C-0.5775 5.814375 -1.155 5.62875 -1.75 5.4375 C-4.20692525 4.95976454 -5.64397534 5.24270636 -8 6 C-6.68 4.35 -5.36 2.7 -4 1 Z " fill="#D79206" transform="translate(431,63)"/>
<path d="M0 0 C2.69921875 0.14453125 2.69921875 0.14453125 5.6875 0.8125 C6.68136719 1.02519531 7.67523438 1.23789062 8.69921875 1.45703125 C9.83810547 1.72580078 9.83810547 1.72580078 11 2 C11 2.33 11 2.66 11 3 C6.38 3 1.76 3 -3 3 C-2.01 2.01 -1.02 1.02 0 0 Z " fill="#707070" transform="translate(248,264)"/>
<path d="M0 0 C-0.66 1.32 -1.32 2.64 -2 4 C-3.65 3.67 -5.3 3.34 -7 3 C-5.40442685 -0.19114631 -3.35905282 0 0 0 Z " fill="#7C7C7C" transform="translate(371,263)"/>
<path d="M0 0 C0.66 0 1.32 0 2 0 C2.59732819 2.76264289 3 5.16032769 3 8 C2.01 8.495 2.01 8.495 1 9 C-0.4783226 6.04335481 -0.06032783 3.25770263 0 0 Z " fill="#FCED7F" transform="translate(137,74)"/>
<path d="M0 0 C1.85625 0.061875 1.85625 0.061875 3.75 0.125 C2.54296875 1.64453125 2.54296875 1.64453125 0.75 3.125 C-1.51171875 3.19921875 -1.51171875 3.19921875 -3.9375 2.8125 C-5.14986328 2.63267578 -5.14986328 2.63267578 -6.38671875 2.44921875 C-7.00160156 2.34222656 -7.61648438 2.23523438 -8.25 2.125 C-5.3504339 0.46623921 -3.33364791 -0.1111216 0 0 Z " fill="#696969" transform="translate(353.25,263.875)"/>
<path d="M0 0 C1.98 0.495 1.98 0.495 4 1 C4 1.99 4 2.98 4 4 C3.01 4.33 2.02 4.66 1 5 C0.34 4.67 -0.32 4.34 -1 4 C-0.67 2.68 -0.34 1.36 0 0 Z " fill="#FDDD5A" transform="translate(248,85)"/>
<path d="M0 0 C-0.66 1.32 -1.32 2.64 -2 4 C-5 2 -5 2 -6 0 C-3.50907189 -1.24546405 -2.58919267 -0.7767578 0 0 Z " fill="#D89D1F" transform="translate(445,60)"/>
<path d="M0 0 C1.32 0 2.64 0 4 0 C4 1.32 4 2.64 4 4 C2.35 3.67 0.7 3.34 -1 3 C-0.67 2.01 -0.34 1.02 0 0 Z " fill="#FDE27C" transform="translate(277,54)"/>
<path d="M0 0 C-2.64458379 1.32229189 -4.67761301 1.09677194 -7.625 1.0625 C-8.62789063 1.05347656 -9.63078125 1.04445313 -10.6640625 1.03515625 C-11.43492187 1.02355469 -12.20578125 1.01195312 -13 1 C-13 0.67 -13 0.34 -13 0 C-11.39950296 -0.39036513 -9.79437629 -0.76178619 -8.1875 -1.125 C-7.29417969 -1.33382813 -6.40085937 -1.54265625 -5.48046875 -1.7578125 C-3 -2 -3 -2 0 0 Z " fill="#868686" transform="translate(367,268)"/>
<path d="M0 0 C1.61949011 2.57213134 2.04408751 3.67669159 1.625 6.75 C1.41875 7.4925 1.2125 8.235 1 9 C0.01 9.33 -0.98 9.66 -2 10 C-2 9.01 -2 8.02 -2 7 C-1.34 7 -0.68 7 0 7 C0 4.69 0 2.38 0 0 Z " fill="#745A26" transform="translate(492,178)"/>
<path d="M0 0 C0.66 0.33 1.32 0.66 2 1 C1.67 2.32 1.34 3.64 1 5 C-0.32 4.34 -1.64 3.68 -3 3 C-3 2.34 -3 1.68 -3 1 C-2.01 0.67 -1.02 0.34 0 0 Z " fill="#FCE57F" transform="translate(236,68)"/>
</svg>
