<svg width="80" height="80" viewBox="0 0 80 80" fill="none" xmlns="http://www.w3.org/2000/svg">
<path d="M70.6504 8.94275C69.7185 8.10975 61.1058 0.983024 39.9896 0.808594C18.856 0.986584 10.2555 8.13111 9.35306 8.93918C-2.93522 19.2626 0.360278 53.7927 0.502579 55.2558C1.49002 66.131 7.61767 73.2826 19.2222 77.1201C28.4632 80.1744 38.1553 80.0356 39.9913 79.9679C40.2152 79.9679 40.7028 79.9893 41.4092 79.9893C44.6075 79.9893 52.8974 79.7081 60.7726 77.1059C72.3824 73.2684 78.5048 66.1167 79.4905 55.2558C79.638 53.8069 82.9318 19.2733 70.6504 8.94275Z" fill="url(#paint0_linear_2434_40801)"/>
<path d="M70.494 8.0587C69.7651 7.40726 61.1784 0.166618 39.9911 -0.0078125C18.8193 0.166618 10.2326 7.40726 9.50377 8.0587C-2.42529 18.0867 0.693204 51.4171 0.89798 53.4675C1.85071 63.9583 7.86557 70.9106 19.2931 74.6697C28.7371 77.7952 38.7295 77.5638 40.005 77.5176C40.2271 77.5176 40.713 77.5389 41.4158 77.5389C44.7443 77.5389 52.9163 77.2435 60.7151 74.6626C72.1374 70.8892 78.1523 63.9512 79.1102 53.4604C79.3046 51.4171 82.4248 18.0867 70.494 8.0587Z" fill="#62E203"/>
<path d="M69.7106 11.8402C69.7106 11.8402 61.5178 4.27921 39.9973 4.09766C18.4785 4.27921 10.2822 11.8402 10.2822 11.8402C-0.39215 20.7647 2.85823 52.6854 2.85823 52.6854C4.63874 72.6203 33.3525 73.6633 39.9955 73.4248C46.6386 73.6633 75.3523 72.6346 77.1329 52.6854C77.1329 52.6854 80.385 20.7647 69.7106 11.8402Z" fill="#ABEE7A"/>
<path d="M11.237 13.8133L10.8145 13.2975L11.237 13.8133C12.4531 12.8171 20.2945 7.03692 38.868 6.88546C57.5834 7.03804 65.8825 12.9031 67.0999 13.8476C67.2219 13.9422 67.3377 14.0373 67.4648 14.1424C69.852 16.1161 71.598 19.3137 72.8542 23.1126C74.1066 26.8999 74.8486 31.2122 75.2762 35.3336C76.1312 43.5752 75.7199 50.9602 75.6781 51.6536L76.3436 51.6936L75.6781 51.6536C75.6755 51.6979 75.6736 51.7316 75.6713 51.7731L75.6708 51.782L75.6708 51.782C75.1754 60.6779 68.3899 65.4263 60.682 67.9382C52.9879 70.4456 44.6085 70.6313 41.4542 70.5224L41.4311 70.5216L41.4081 70.5224C38.2631 70.6313 29.8655 70.446 21.9673 67.9366C14.053 65.4221 6.85798 60.6554 5.65797 51.7293L5.65781 51.7282C5.6518 51.6834 5.64723 51.6495 5.64074 51.6028C5.54521 50.9166 4.5516 43.5435 4.75317 35.309C4.85397 31.1908 5.25331 26.8824 6.20224 23.0979C7.15466 19.2994 8.63991 16.114 10.8488 14.1478C10.9818 14.0294 11.1081 13.9189 11.237 13.8133Z" fill="#58CC02" stroke="url(#paint1_linear_2434_40801)" stroke-width="1.33338"/>
<path d="M34.3042 6.39453C17.0857 7.46247 10.6197 13.4857 10.6197 13.4857C0.694983 21.8512 4.99875 51.7642 4.99875 51.7642C5.08419 52.4183 5.20043 53.0537 5.34582 53.6616C5.01436 22.9868 17.5508 11.8019 34.3042 6.39453Z" fill="#ABEE7A"/>
<path d="M13.7593 15.8111C12.5584 13.5969 10.0855 14.5189 8.23211 17.8687C6.37871 21.2184 5.85115 25.7323 7.05551 27.9465C8.25987 30.1607 8.88635 26.6756 10.738 23.3187C12.5897 19.9618 14.9585 18.0253 13.7593 15.8111Z" fill="white"/>
<path d="M6.63658 28.8111C5.94243 28.2558 5.17365 28.651 4.8179 30.0998C4.46214 31.5486 4.65824 33.5065 5.33851 34.0654C6.01878 34.6243 6.86912 33.8981 7.22488 32.4457C7.58063 30.9933 7.32206 29.37 6.63658 28.8111Z" fill="white"/>
<path d="M75.1419 29.6094C75.0914 31.3775 74.9754 33.1352 74.7948 34.8672C72.9275 53.0008 64.3217 65.9087 52.8838 70.4367C63.0497 68.8633 75.6798 64.3032 76.3324 51.7549C76.3376 51.7549 77.0768 40.3173 75.1419 29.6094Z" fill="#ABEE7A"/>
<path d="M69.645 59.8661C70.7521 61.5036 72.793 60.2648 74.2021 57.1001C75.6112 53.9355 75.8576 50.041 74.7505 48.4035C73.6433 46.766 73.1886 49.5035 71.7864 52.6753C70.3842 55.8471 68.5378 58.225 69.645 59.8661Z" fill="white"/>
<g clip-path="url(#clip0_2434_40801)">
<path d="M39.9999 44.9994C41.7681 44.9994 43.4638 44.297 44.7141 43.0467C45.9644 41.7964 46.6668 40.1007 46.6668 38.3325V29.9989C46.6668 28.2307 45.9644 26.535 44.7141 25.2847C43.4638 24.0344 41.7681 23.332 39.9999 23.332C38.2317 23.332 36.536 24.0344 35.2857 25.2847C34.0354 26.535 33.333 28.2307 33.333 29.9989V38.3325C33.333 40.1007 34.0354 41.7964 35.2857 43.0467C36.536 44.297 38.2317 44.9994 39.9999 44.9994Z" fill="white"/>
<path d="M51.6661 38.3308C51.6661 37.8887 51.4905 37.4648 51.178 37.1522C50.8654 36.8397 50.4414 36.6641 49.9994 36.6641C49.5574 36.6641 49.1334 36.8397 48.8209 37.1522C48.5083 37.4648 48.3327 37.8887 48.3327 38.3308C48.3327 40.541 47.4547 42.6607 45.8918 44.2235C44.329 45.7864 42.2093 46.6644 39.9991 46.6644C37.7889 46.6644 35.6692 45.7864 34.1063 44.2235C32.5435 42.6607 31.6655 40.541 31.6655 38.3308C31.6655 37.8887 31.4899 37.4648 31.1773 37.1522C30.8647 36.8397 30.4408 36.6641 29.9988 36.6641C29.5567 36.6641 29.1328 36.8397 28.8202 37.1522C28.5076 37.4648 28.332 37.8887 28.332 38.3308C28.3353 41.134 29.3477 43.8422 31.1841 45.9602C33.0204 48.0781 35.5579 49.464 38.3324 49.8645V53.3313H34.8156C34.4222 53.3313 34.0449 53.4876 33.7667 53.7657C33.4885 54.0439 33.3322 54.4212 33.3322 54.8146V55.1813C33.3322 55.5747 33.4885 55.952 33.7667 56.2302C34.0449 56.5084 34.4222 56.6647 34.8156 56.6647H45.1826C45.576 56.6647 45.9533 56.5084 46.2315 56.2302C46.5097 55.952 46.666 55.5747 46.666 55.1813V54.8146C46.666 54.4212 46.5097 54.0439 46.2315 53.7657C45.9533 53.4876 45.576 53.3313 45.1826 53.3313H41.6658V49.8645C44.4402 49.464 46.9777 48.0781 48.8141 45.9602C50.6504 43.8422 51.6628 41.134 51.6661 38.3308Z" fill="white"/>
</g>
<defs>
<linearGradient id="paint0_linear_2434_40801" x1="80.3303" y1="74.8603" x2="-22.1443" y2="55.1911" gradientUnits="userSpaceOnUse">
<stop stop-color="#409500"/>
<stop offset="1" stop-color="#84F630"/>
</linearGradient>
<linearGradient id="paint1_linear_2434_40801" x1="76.7794" y1="66.9996" x2="-15.2758" y2="47.5127" gradientUnits="userSpaceOnUse">
<stop stop-color="#409500"/>
<stop offset="1" stop-color="#84F630"/>
</linearGradient>
<clipPath id="clip0_2434_40801">
<rect width="40.0013" height="40.0013" fill="white" transform="translate(19.999 19.9961)"/>
</clipPath>
</defs>
</svg>
