<svg width="88" height="88" viewBox="0 0 88 88" fill="none" xmlns="http://www.w3.org/2000/svg">
<g clip-path="url(#clip0_2825_32837)">
<path d="M14.7846 49.6486H14.8387C14.917 49.6475 14.9946 49.6616 15.0666 49.6897C15.1387 49.7179 15.2035 49.7596 15.2571 49.8121L46.0498 80.2756C46.146 80.3706 46.2007 80.495 46.2033 80.6248C46.2035 81.4646 46.1543 82.3038 46.0559 83.1387C45.809 85.1011 45.2823 86.0573 44.4064 86.1405H44.3371C44.2607 86.1433 44.1844 86.1317 44.113 86.1064C44.0416 86.0812 43.9765 86.0427 43.9217 85.9936C43.8664 85.945 43.8227 85.8865 43.7932 85.8216C43.7636 85.7567 43.749 85.6869 43.7502 85.6166C43.7502 84.6188 43.3137 83.4325 42.8472 82.4957C42.8934 84.1377 43.1976 85.765 43.7502 87.3267C43.7875 87.438 43.7834 87.5575 43.7387 87.6664C43.694 87.7754 43.6112 87.8675 43.5033 87.9282C43.4313 87.9669 43.3514 87.9915 43.2686 88.0002C43.1857 88.0081 43.102 87.999 43.0235 87.9736C42.9449 87.9482 42.8734 87.9071 42.814 87.8534C41.5257 86.6782 40.9869 85.2036 40.4632 83.779C40.2705 83.2524 40.0749 82.7174 39.8401 82.188C39.5954 83.0712 39.1882 83.9093 38.6361 84.6659C38.5897 84.7274 38.5293 84.7789 38.4591 84.8167C38.3889 84.8545 38.3107 84.8777 38.2297 84.8849C38.1476 84.8933 38.0645 84.8849 37.9864 84.8603C37.9082 84.8357 37.837 84.7954 37.7777 84.7424C37.7185 84.6894 37.6727 84.625 37.6436 84.5538C37.6146 84.4826 37.6029 84.4064 37.6097 84.3305C37.5958 83.853 37.5118 83.3793 37.3599 82.9225C37.3492 83.3953 37.311 83.8671 37.2455 84.3361C37.2286 84.4513 37.1701 84.5579 37.0795 84.6389C36.9889 84.7198 36.8714 84.7703 36.7458 84.7823H36.7036C36.5699 84.7858 36.4392 84.7453 36.3349 84.6681C36.2307 84.5909 36.1598 84.4821 36.1348 84.3611C35.7856 82.6814 34.5394 81.29 33.7267 80.5445C33.3211 81.7147 32.7546 82.8325 32.0411 83.8705C31.9947 83.9359 31.9331 83.9909 31.8607 84.0317C31.7884 84.0724 31.7071 84.0978 31.6227 84.1061C31.5176 84.1152 31.4118 84.0971 31.3172 84.0538C31.2227 84.0104 31.1432 83.9436 31.0878 83.8608C31.0324 83.7781 31.0031 83.6827 31.0035 83.5854C31.0039 83.4882 31.0339 83.393 31.0899 83.3106C31.12 83.2635 31.8243 82.1409 30.7437 80.4391C30.4728 81.642 30.9304 83.876 31.4572 85.3838C31.4996 85.5079 31.4901 85.6421 31.4305 85.7601C31.3709 85.8781 31.2655 85.9712 31.1351 86.0213C31.0841 86.0409 31.0304 86.0539 30.9755 86.0601C30.8633 86.0699 30.7505 86.0488 30.6514 85.9994C30.5522 85.9501 30.4713 85.8747 30.4187 85.7829C30.3766 85.7108 29.4013 83.9869 27.198 79.2639C26.6471 80.2063 27.1709 81.6947 27.1799 81.7113C27.2263 81.8404 27.216 81.981 27.1513 82.1032C27.0866 82.2254 26.9727 82.3195 26.8337 82.3654C26.7909 82.3796 26.7465 82.3889 26.7013 82.3931C26.5781 82.405 26.4541 82.3791 26.3485 82.3195C26.243 82.2598 26.1617 82.1698 26.1173 82.0633C26.0872 81.994 25.5154 80.5999 25.4552 77.9252C24.3745 78.7983 22.7461 79.616 21.3434 79.749C20.6829 79.8419 20.0086 79.7013 19.4561 79.3554C19.3718 79.298 19.3065 79.2202 19.2674 79.1306C19.2284 79.041 19.2171 78.9431 19.2349 78.848C19.2527 78.7529 19.2988 78.6641 19.3682 78.5917C19.4376 78.5193 19.5274 78.4661 19.6277 78.438C20.6812 78.1469 21.3886 77.6259 21.7859 76.847C22.409 75.6247 22.114 74.0504 21.825 73.0886C21.1779 73.9202 20.2357 75.306 20.0943 76.6918C20.0835 76.8012 20.035 76.9046 19.9559 76.9869C19.8769 77.0691 19.7714 77.126 19.6548 77.1492H19.5916C19.4838 77.1588 19.3753 77.1399 19.2788 77.0948C19.1823 77.0496 19.1018 76.98 19.0468 76.8942C18.1438 75.4529 18.4117 73.1025 18.7608 71.5171C17.4364 72.7117 15.8592 74.4773 15.8381 75.9241C15.837 76.0326 15.7988 76.138 15.7292 76.2255C15.6595 76.313 15.5618 76.3782 15.4498 76.4119C15.4117 76.4233 15.3722 76.4307 15.3323 76.434C15.2358 76.4436 15.1383 76.43 15.0491 76.3945C14.96 76.3591 14.8823 76.303 14.8237 76.2317C12.2561 73.0914 13.8454 69.6407 15.1247 67.7559C14.463 67.9369 13.785 68.0631 13.0989 68.1329C11.5939 68.277 10.3507 68.047 9.4387 67.4427C9.34482 67.3819 9.27338 67.2961 9.23397 67.1968C9.19456 67.0975 9.18905 66.9895 9.2182 66.8873C9.24736 66.785 9.30978 66.6934 9.39707 66.6248C9.48437 66.5561 9.59237 66.5137 9.7066 66.5031C10.7691 66.4034 12.0002 65.3751 13.0508 64.2276C12.2737 64.6791 11.4358 65.035 10.5584 65.2864L10.4591 65.303C10.3423 65.3141 10.2246 65.2919 10.122 65.2392C9.98995 65.1677 9.89373 65.0512 9.85409 64.915C9.79734 64.686 9.79734 64.4482 9.85409 64.2193C9.301 65.0569 8.81896 65.9326 8.41227 66.8385C8.37341 66.9249 8.30977 67 8.22811 67.0557C8.14645 67.1113 8.04988 67.1455 7.94875 67.1545H7.90359C7.79421 67.1565 7.68654 67.1294 7.59358 67.0763C7.50063 67.0231 7.42638 66.9463 7.37985 66.8552C5.78753 63.7038 8.15944 59.3134 9.51998 57.218C8.65787 57.426 7.78073 57.577 6.89523 57.6698C5.08921 57.8389 3.7979 57.6144 3.0183 56.9991C2.92343 56.9245 2.8583 56.823 2.83322 56.7106C2.80814 56.5981 2.82455 56.4811 2.87985 56.3782C2.92167 56.2987 2.98474 56.2302 3.0632 56.1793C3.14166 56.1284 3.23292 56.0967 3.32834 56.0872C3.38418 56.079 3.44105 56.079 3.49689 56.0872C3.81151 56.1412 4.13315 56.1514 4.45108 56.1177C8.4725 55.7352 14.327 49.8537 14.3842 49.7955C14.4368 49.7475 14.4994 49.7097 14.5682 49.6845C14.6369 49.6593 14.7105 49.647 14.7846 49.6486Z" fill="url(#paint0_linear_2825_32837)"/>
<path d="M13.1622 56.7316C13.1622 56.7316 8.75853 62.4136 10.5495 65.9585C12.9064 60.7312 16.6839 58.9434 16.6839 58.9434C16.6839 58.9434 12.4157 62.9651 12.7709 64.301C15.1639 63.6608 17.4967 61.5294 17.4967 61.5294C17.4967 61.5294 14.6582 66.0694 12.199 66.305C14.3783 67.7407 18.3816 66.0029 18.3816 66.0029C18.3816 66.0029 13.9869 70.4376 17.1324 74.268C17.1685 71.8345 21.1418 68.9824 21.1418 68.9824C21.1418 68.9824 19.7392 73.0207 20.9432 74.9055C21.1569 72.8129 23.1796 70.748 23.1796 70.748C23.1796 70.748 25.4793 75.737 21.175 76.9427C22.7522 78.007 26.4003 75.7509 26.7615 74.7253C26.6231 77.9377 27.3094 79.5868 27.3094 79.5868C27.3094 79.5868 26.4756 77.3085 27.9656 76.4161C30.1689 81.1723 31.1351 82.8685 31.1351 82.8685C31.1351 82.8685 29.6452 78.578 30.9064 77.3861C32.7816 79.5675 31.7131 81.1196 31.7131 81.1196C31.7131 81.1196 33.1338 79.1046 33.3355 77.5164C33.3355 77.5164 35.7766 79.2847 36.2853 81.7377C36.2853 81.7377 36.7278 78.7664 35.7706 77.1422C37.7302 80.0996 37.6158 81.8264 37.6158 81.8264C37.6158 81.8264 39.3526 79.5314 38.4767 77.8573C40.2827 80.1412 40.1291 82.802 42.1188 84.6147C40.8455 80.8757 41.4295 78.4616 41.4295 78.4616C41.4295 78.4616 43.1271 81.0143 43.1031 82.9461C44.3342 82.9018 44.289 78.4754 44.289 78.4754L16.7352 51.2188C16.7352 51.2188 10.3267 57.7045 6.50098 56.9949C8.21369 58.3198 13.1622 56.7316 13.1622 56.7316Z" fill="#318063"/>
<path d="M43.9099 74.5675V74.5176C43.9264 74.4472 43.9587 74.3807 44.0048 74.3224C44.051 74.2642 44.1099 74.2155 44.1778 74.1795L83.23 53.234C83.352 53.1693 83.4957 53.1485 83.6334 53.1757C84.5234 53.3599 85.4017 53.5894 86.2642 53.8631C88.2899 54.5173 89.1838 55.1991 89.0815 56.0056C89.0815 56.0278 89.0815 56.0472 89.0815 56.0694C89.0677 56.1388 89.0387 56.2048 88.9962 56.2635C88.9537 56.3222 88.8986 56.3722 88.8344 56.4106C88.7701 56.449 88.698 56.4749 88.6225 56.4868C88.547 56.4987 88.4697 56.4962 88.3952 56.4796C87.3417 56.2495 85.9872 56.3909 84.8946 56.5905C86.6427 56.9182 88.4331 57.0116 90.2103 56.8676C90.3359 56.8579 90.4615 56.8873 90.5668 56.9511C90.6722 57.015 90.7512 57.1095 90.7913 57.2196C90.8186 57.2926 90.8268 57.3705 90.8153 57.4469C90.8061 57.523 90.7783 57.5962 90.734 57.661C90.6897 57.7258 90.63 57.7805 90.5595 57.8211C89.0334 58.7219 87.3508 58.8799 85.7253 59.0351C85.1233 59.0933 84.5213 59.1515 83.9043 59.2457C84.7854 59.6585 85.5836 60.2068 86.2642 60.8671C86.3478 60.9506 86.3994 61.0571 86.411 61.1702C86.4225 61.2833 86.3933 61.3968 86.328 61.4932C86.2627 61.5895 86.1648 61.6635 86.0493 61.7036C85.9339 61.7437 85.8074 61.7478 85.6892 61.7153C85.18 61.623 84.6596 61.5941 84.1421 61.6293C84.9698 61.8234 85.5567 62.023 85.6139 62.0424C85.7338 62.083 85.8349 62.1601 85.9006 62.2609C85.9663 62.3617 85.9927 62.4802 85.9752 62.5967C85.9769 62.6096 85.9769 62.6226 85.9752 62.6355C85.9495 62.7565 85.8778 62.8651 85.773 62.9418C85.6681 63.0185 85.5371 63.0583 85.4032 63.054C83.5461 62.9958 81.7912 63.8079 80.834 64.3623C81.9798 64.9849 83.0347 65.7393 83.9735 66.6073C84.0322 66.6627 84.0765 66.7297 84.103 66.8031C84.1296 66.8765 84.1378 66.9546 84.127 67.0314C84.1131 67.1482 84.0557 67.2569 83.9644 67.339C83.9124 67.3873 83.8505 67.4256 83.7823 67.4517C83.7141 67.4779 83.641 67.4913 83.5672 67.4913C83.4933 67.4913 83.4201 67.4779 83.3519 67.4517C83.2837 67.4256 83.2219 67.3873 83.1698 67.339C83.1247 67.3002 82.0922 66.4244 80.0514 67.0175C81.2554 67.5247 83.7327 67.6051 85.4454 67.4665C85.5858 67.4563 85.7253 67.4947 85.8367 67.5741C85.948 67.6536 86.0232 67.7684 86.0474 67.8961C86.0548 67.9458 86.0548 67.9961 86.0474 68.0458C86.0339 68.149 85.987 68.2462 85.913 68.3247C85.8389 68.4032 85.7411 68.4596 85.632 68.4865C85.5447 68.5087 83.5039 69.0048 78.0166 69.9444C78.8925 70.6456 80.5842 70.4987 80.6053 70.4987C80.7499 70.4885 80.8932 70.53 81.0053 70.6147C81.1175 70.6994 81.1899 70.8207 81.2073 70.9533C81.2133 70.9947 81.2133 71.0366 81.2073 71.078C81.1931 71.1915 81.1385 71.2974 81.0518 71.3792C80.9652 71.461 80.8515 71.514 80.7286 71.5298C80.6504 71.5298 79.049 71.7404 76.2136 71.2138C76.8969 72.3752 77.4176 74.0299 77.237 75.3076C77.1919 75.9217 76.8936 76.4968 76.4033 76.9151C76.324 76.9779 76.2273 77.0192 76.1241 77.0345C76.0208 77.0498 75.915 77.0384 75.8184 77.0017C75.7217 76.9649 75.638 76.9042 75.5765 76.8263C75.5151 76.7484 75.4782 76.6564 75.4701 76.5604C75.3949 75.5487 74.9975 74.8004 74.2661 74.271C73.1102 73.4395 71.3765 73.3619 70.2959 73.4062C71.0213 74.1712 72.2975 75.3215 73.7333 75.7566C73.8463 75.7906 73.9448 75.8566 74.0146 75.9452C74.0843 76.0338 74.1218 76.1405 74.1216 76.2499C74.1232 76.2702 74.1232 76.2906 74.1216 76.3109C74.1095 76.41 74.0664 76.5036 73.9974 76.5804C73.9285 76.6571 73.8367 76.7138 73.7333 76.7433C72.0056 77.2533 69.5795 76.4661 67.9751 75.8148C68.9504 77.2699 70.4704 79.0743 71.9995 79.418C72.114 79.4425 72.2173 79.4997 72.2945 79.5813C72.3718 79.6628 72.4192 79.7648 72.43 79.8725C72.4345 79.9094 72.4345 79.9466 72.43 79.9834C72.4185 80.0724 72.3823 80.1572 72.3248 80.2295C72.2673 80.3019 72.1905 80.3593 72.1019 80.3964C68.2099 82.0095 64.9049 79.8227 63.1922 78.2567C63.2367 78.8914 63.2206 79.5286 63.144 80.1608C62.9634 81.5466 62.4457 82.6082 61.6059 83.2983C61.5196 83.3678 61.4126 83.4119 61.2988 83.4247C61.185 83.4376 61.0697 83.4187 60.9678 83.3704C60.8657 83.3216 60.7823 83.2453 60.7285 83.1517C60.6747 83.0581 60.6532 82.9517 60.6668 82.8465C60.7932 81.8709 59.9744 80.5405 58.9901 79.3431C59.2987 80.1405 59.492 80.9717 59.565 81.8155C59.565 81.846 59.565 81.8764 59.565 81.9069C59.5497 82.0315 59.4857 82.1466 59.3848 82.2307C59.284 82.3149 59.1533 82.3624 59.0173 82.3643C58.7621 82.3618 58.511 82.3059 58.2828 82.2008C59.0502 82.8805 59.8723 83.5059 60.742 84.0716C60.825 84.1255 60.8906 84.199 60.932 84.2843C60.9733 84.3697 60.9888 84.4638 60.9768 84.5567V84.5982C60.9549 84.6971 60.9022 84.788 60.8253 84.8598C60.7483 84.9316 60.6503 84.9813 60.5433 85.0029C56.853 85.7374 52.7172 82.6387 50.8089 80.9563C50.8376 81.776 50.8034 82.5966 50.7065 83.412C50.4898 85.075 49.9661 86.1836 49.1413 86.738C49.0532 86.8009 48.9468 86.8383 48.8355 86.8454C48.7243 86.8525 48.6132 86.8291 48.5164 86.778C48.4197 86.7269 48.3416 86.6505 48.2921 86.5585C48.2426 86.4665 48.2239 86.363 48.2383 86.2612C48.2445 86.2085 48.2597 86.1571 48.2834 86.1088C48.4116 85.8393 48.4938 85.5532 48.5272 85.2607C49.0089 81.5632 44.0694 75.0055 44.0122 74.9417C43.927 74.8338 43.8904 74.6997 43.9099 74.5675Z" fill="url(#paint1_linear_2825_32837)"/>
<path d="M51.0615 77.5858C51.0615 77.5858 56.1063 82.7937 60.2602 81.9678C55.2424 78.6972 54.1799 74.9111 54.1799 74.9111C54.1799 74.9111 57.4909 79.623 58.996 79.598C58.8455 77.3058 57.0966 74.7393 57.0966 74.7393C57.0966 74.7393 61.2806 78.2898 60.9886 80.5598C62.9903 78.9189 62.0301 74.9416 62.0301 74.9416C62.0301 74.9416 65.7445 79.8641 70.5124 77.8851C67.9418 77.3308 65.7957 73.1206 65.7957 73.1206C65.7957 73.1206 69.7629 75.2687 72.0264 74.6034C69.8592 73.9493 68.1315 71.6821 68.1315 71.6821C68.1315 71.6821 73.9348 70.7176 74.2508 74.8501C75.7257 73.6666 74.1395 69.8916 73.1221 69.3373C76.4933 70.1688 78.3926 69.9193 78.3926 69.9193C78.3926 69.9193 75.795 70.166 75.1779 68.6305C80.7014 67.6992 82.703 67.2058 82.703 67.2058C82.703 67.2058 77.8298 67.5994 76.8455 66.2025C79.5546 64.9996 80.9783 66.2995 80.9783 66.2995C80.9783 66.2995 79.1542 64.5811 77.5137 64.0489C77.5137 64.0489 79.9218 62.2445 82.6308 62.3305C82.6308 62.3305 79.5786 61.2772 77.6492 61.7761C81.2131 60.6675 83.0161 61.1525 83.0161 61.1525C83.0161 61.1525 80.9723 59.0876 79.0037 59.4895C81.8241 58.3586 84.6054 59.0959 86.9622 57.7073C82.7211 58.0288 80.295 56.9728 80.295 56.9728C80.295 56.9728 83.3743 56.0083 85.4121 56.4545C85.6348 55.3459 80.9361 54.4062 80.9361 54.4062L45.9775 73.1539C45.9775 73.1539 51.4318 80.3408 49.8394 83.6058C51.6515 82.3808 51.0615 77.5858 51.0615 77.5858Z" fill="#318063"/>
<path d="M14.784 38.352H14.8382C14.9166 38.3525 14.9943 38.338 15.0664 38.3094C15.1384 38.2807 15.2031 38.2386 15.2566 38.1857L46.0493 7.72497C46.1455 7.62997 46.2001 7.50563 46.2028 7.37577C46.203 6.53596 46.1537 5.69674 46.0553 4.86184C45.8085 2.89672 45.2817 1.94328 44.4058 1.86013H44.3366C44.26 1.8575 44.1837 1.86922 44.1121 1.89457C44.0406 1.91993 43.9755 1.95837 43.9206 2.00761C43.8657 2.05685 43.8222 2.11587 43.7928 2.18104C43.7635 2.24621 43.7488 2.3162 43.7496 2.38675C43.7496 3.38456 43.3132 4.57083 42.8466 5.50489C42.8931 3.86288 43.1973 2.23567 43.7496 0.673842C43.7867 0.56299 43.7826 0.443912 43.7379 0.335469C43.6932 0.227026 43.6104 0.135409 43.5028 0.0751505C43.432 0.0340054 43.3514 0.0092751 43.268 0.00308426C43.1851 -0.00532225 43.1013 0.00350837 43.0226 0.0289334C42.944 0.0543584 42.8725 0.095737 42.8135 0.149991C41.5252 1.32241 40.9864 2.79693 40.4626 4.22434C40.27 4.75096 40.0744 5.28592 39.8396 5.81254C39.5941 4.92957 39.1869 4.09159 38.6356 3.33464C38.5882 3.27405 38.5275 3.22328 38.4575 3.18557C38.3875 3.14786 38.3098 3.12403 38.2292 3.11567C38.1467 3.10719 38.0632 3.11671 37.9854 3.14341C37.8693 3.18025 37.7695 3.25121 37.7016 3.34537C37.6336 3.43953 37.6011 3.55166 37.6091 3.66449C37.5956 4.14209 37.5116 4.61576 37.3593 5.07249C37.3489 4.60067 37.3107 4.12973 37.2449 3.66172C37.228 3.54651 37.1696 3.43987 37.079 3.35894C36.9884 3.278 36.8708 3.22749 36.7453 3.21548H36.7031C36.5694 3.212 36.4387 3.25247 36.3344 3.32967C36.2302 3.40687 36.1592 3.51573 36.1342 3.63675C35.7851 5.31638 34.5389 6.70499 33.7262 7.45058C33.3199 6.28051 32.7535 5.16285 32.0405 4.12456C31.9941 4.05943 31.9325 4.00472 31.8601 3.96443C31.7876 3.92414 31.7064 3.89929 31.6222 3.89175C31.4958 3.88058 31.3689 3.90785 31.261 3.96937C31.1352 4.04385 31.0464 4.16118 31.0143 4.2957C30.9821 4.43022 31.0091 4.57098 31.0894 4.68722C31.1195 4.73434 31.8238 5.85409 30.7432 7.5559C30.4723 6.35299 30.9299 4.12181 31.4566 2.61401C31.4992 2.48953 31.4898 2.35489 31.4302 2.23646C31.3707 2.11804 31.2652 2.02434 31.1345 1.97374C31.0834 1.95508 31.0297 1.94295 30.975 1.93771C30.8627 1.92755 30.7497 1.94851 30.6505 1.9979C30.5513 2.04728 30.4704 2.12284 30.4182 2.21488C30.376 2.28971 29.4008 4.0137 27.1974 8.73386C26.6466 7.79149 27.1703 6.30589 27.1794 6.28648C27.2296 6.15674 27.2219 6.0139 27.1578 5.88941C27.0938 5.76492 26.9786 5.66897 26.8377 5.62266C26.6968 5.57635 26.5417 5.58349 26.4065 5.64249C26.2713 5.70149 26.1671 5.80751 26.1168 5.93725C26.0867 6.00377 25.5148 7.40071 25.4546 10.0726C24.374 9.2023 22.7455 8.38463 21.3428 8.25159C20.6823 8.15864 20.0081 8.29926 19.4555 8.64518C19.371 8.7024 19.3054 8.78014 19.2661 8.86971C19.2268 8.95928 19.2152 9.05714 19.2328 9.15239C19.2505 9.24747 19.2969 9.33608 19.3666 9.4081C19.4363 9.48013 19.5266 9.53268 19.6271 9.55982C20.6807 9.85361 21.3881 10.3747 21.7854 11.1535C22.4085 12.3758 22.1134 13.9502 21.8245 14.9119C21.1773 14.0804 20.2352 12.6946 20.0937 11.3088C20.0834 11.1992 20.0351 11.0956 19.956 11.0133C19.8769 10.9309 19.7711 10.8742 19.6543 10.8514H19.5911C19.4833 10.8418 19.3748 10.8607 19.2783 10.9058C19.1818 10.951 19.1013 11.0206 19.0462 11.1064C18.1432 12.5449 18.4111 14.8953 18.7603 16.4835C17.4359 15.2889 15.8586 13.5233 15.8375 12.0737C15.8362 11.9656 15.798 11.8606 15.7283 11.7735C15.6587 11.6865 15.561 11.6218 15.4492 11.5887C15.4112 11.5765 15.3718 11.5681 15.3318 11.5638C15.2351 11.5553 15.1377 11.5698 15.0487 11.6057C14.9597 11.6415 14.882 11.6977 14.8231 11.7689C12.2556 14.9064 13.8449 18.3571 15.1241 20.2419C14.4624 20.0609 13.7845 19.9347 13.0984 19.8649C11.5934 19.7208 10.3502 19.9536 9.43816 20.5551C9.34427 20.6159 9.27283 20.7017 9.23342 20.801C9.19401 20.9003 9.18851 21.0083 9.21766 21.1106C9.24681 21.2128 9.30923 21.3044 9.39653 21.373C9.48382 21.4417 9.59182 21.4841 9.70606 21.4947C10.7686 21.5972 11.9997 22.6255 13.0502 23.773C12.2731 23.3215 11.4352 22.9656 10.5579 22.7142C10.5258 22.7038 10.4925 22.6973 10.4586 22.6948C10.3414 22.6832 10.2232 22.7065 10.1214 22.7613C10.0554 22.796 9.99768 22.8427 9.95165 22.8984C9.90562 22.9541 9.87225 23.0178 9.85355 23.0856C9.7968 23.3146 9.7968 23.5523 9.85355 23.7813C9.30046 22.9437 8.81841 22.068 8.41173 21.1621C8.37302 21.0753 8.3095 20.9998 8.22786 20.9436C8.14622 20.8875 8.04956 20.8529 7.9482 20.8433H7.90305C7.79341 20.8419 7.68566 20.8696 7.59275 20.9232C7.49983 20.9768 7.4257 21.054 7.3793 21.1454C5.78699 24.2968 8.1589 28.6872 9.51944 30.7798C8.65724 30.5728 7.7801 30.4227 6.89469 30.3308C5.08867 30.1617 3.79736 30.3862 3.01776 31.0015C2.93439 31.0671 2.87362 31.1536 2.84289 31.2504C2.81217 31.3473 2.8128 31.4503 2.84477 31.5469C2.87673 31.6434 2.93863 31.7293 3.02283 31.7939C3.10702 31.8585 3.20988 31.8991 3.31876 31.9106C3.3747 31.9175 3.43136 31.9175 3.4873 31.9106C3.8016 31.8543 4.12348 31.8431 4.4415 31.8774C8.46291 32.2598 14.3174 38.1414 14.3746 38.2023C14.4284 38.2513 14.4924 38.2899 14.5628 38.3156C14.6331 38.3413 14.7084 38.3537 14.784 38.352Z" fill="url(#paint2_linear_2825_32837)"/>
<path d="M13.162 31.2636C13.162 31.2636 8.75834 25.5816 10.5493 22.0339C12.9062 27.2613 16.6837 29.0518 16.6837 29.0518C16.6837 29.0518 12.4155 25.0301 12.7707 23.6914C15.1637 24.3344 17.4965 26.4631 17.4965 26.4631C17.4965 26.4631 14.658 21.9203 12.1988 21.6874C14.3781 20.2517 18.3814 21.9896 18.3814 21.9896C18.3814 21.9896 13.9867 17.5549 17.1322 13.7217C17.1684 16.1552 21.1416 19.01 21.1416 19.01C21.1416 19.01 19.739 14.9717 20.943 13.0842C21.1567 15.1768 23.1794 17.2417 23.1794 17.2417C23.1794 17.2417 25.4791 12.2527 21.1748 11.047C22.752 9.98269 26.4001 12.2416 26.7613 13.2644C26.6229 10.052 27.3092 8.40282 27.3092 8.40282C27.3092 8.40282 26.4754 10.6811 27.9654 11.5736C30.1687 6.81464 31.1349 5.12117 31.1349 5.12117C31.1349 5.12117 29.645 9.40893 30.9062 10.6035C32.7814 8.42221 31.7129 6.87008 31.7129 6.87008C31.7129 6.87008 33.1336 8.88509 33.3353 10.4733C33.3353 10.4733 35.7765 8.70493 36.2852 6.252C36.2852 6.252 36.7276 9.22322 35.7704 10.8474C37.73 7.89005 37.6156 6.16329 37.6156 6.16329C37.6156 6.16329 39.3524 8.45548 38.4765 10.1323C40.2825 7.84849 40.1289 5.18768 42.1186 3.375C40.8453 7.11399 41.4293 9.52811 41.4293 9.52811C41.4293 9.52811 43.1269 6.97264 43.1029 5.04078C44.334 5.0879 44.2888 9.51427 44.2888 9.51427L16.7229 36.7792C16.7229 36.7792 10.3145 30.2963 6.48877 31.0058C8.21352 29.6754 13.162 31.2636 13.162 31.2636Z" fill="#318063"/>
<path d="M43.9097 13.4239V13.4738C43.9269 13.544 43.9595 13.6102 44.0055 13.6684C44.0516 13.7266 44.1102 13.7754 44.1776 13.8119L83.2298 34.7547C83.3513 34.8207 83.4956 34.8415 83.6332 34.8129C84.523 34.6289 85.4012 34.4003 86.264 34.1283C88.2897 33.4714 89.1837 32.7923 89.0813 31.983C89.0813 31.9636 89.0813 31.9415 89.0813 31.922C89.0679 31.8527 89.039 31.7866 88.9965 31.7279C88.9541 31.6693 88.899 31.6193 88.8346 31.5811C88.7702 31.5428 88.6981 31.5169 88.6226 31.5049C88.547 31.493 88.4696 31.4954 88.395 31.5118C87.3415 31.7419 85.987 31.6005 84.8944 31.401C86.6426 31.0732 88.4329 30.9798 90.2101 31.1238C90.3358 31.1335 90.4613 31.1041 90.5667 31.0403C90.672 30.9765 90.7511 30.8819 90.7911 30.7718C90.8184 30.6988 90.8266 30.621 90.8151 30.5445C90.8061 30.468 90.7785 30.3943 90.7341 30.329C90.6898 30.2638 90.6301 30.2086 90.5593 30.1676C89.0332 29.2696 87.3506 29.1088 85.7252 28.9564C85.1232 28.8982 84.5211 28.84 83.9041 28.7457C84.7853 28.333 85.5834 27.7846 86.264 27.1243C86.3187 27.0689 86.3599 27.0035 86.3848 26.9322C86.4097 26.861 86.4178 26.7856 86.4085 26.7113C86.3993 26.6354 86.3715 26.5625 86.3272 26.4979C86.2616 26.4019 86.1638 26.3281 86.0487 26.2876C85.9337 26.2471 85.8074 26.2421 85.689 26.2734C85.1801 26.3677 84.6596 26.3976 84.1419 26.3621C84.6399 26.2467 85.1312 26.1079 85.6138 25.9463C85.7343 25.9066 85.8361 25.8296 85.902 25.7286C85.9678 25.6275 85.9937 25.5086 85.975 25.392C85.9765 25.3781 85.9765 25.3642 85.975 25.3504C85.9493 25.2294 85.8776 25.1208 85.7728 25.0441C85.668 24.9674 85.5369 24.9276 85.4031 24.9319C83.5459 24.9901 81.7911 24.178 80.8339 23.6264C81.9789 23.0028 83.0337 22.2485 83.9733 21.3814C84.0697 21.2817 84.1208 21.1517 84.1162 21.0184C84.1115 20.885 84.0515 20.7583 83.9484 20.6644C83.8453 20.5706 83.7071 20.5168 83.5622 20.514C83.4173 20.5113 83.2768 20.5598 83.1697 20.6496C83.1245 20.6884 82.092 21.5671 80.0512 20.9739C81.2552 20.4639 83.7326 20.3836 85.4453 20.5221C85.5854 20.5331 85.7248 20.4954 85.8362 20.4164C85.9476 20.3374 86.023 20.2228 86.0473 20.0953C86.0549 20.0447 86.0549 19.9934 86.0473 19.9429C86.0325 19.84 85.9853 19.7434 85.9115 19.6651C85.8376 19.5867 85.7404 19.5301 85.6318 19.5022C85.5446 19.4828 83.5037 18.9838 78.0164 18.047C78.8924 17.3458 80.584 17.4927 80.6051 17.4927C80.7497 17.5029 80.893 17.4614 81.0052 17.3767C81.1173 17.292 81.1897 17.1708 81.2071 17.0382C81.2131 16.9968 81.2131 16.9548 81.2071 16.9134C81.1925 16.8001 81.1376 16.6944 81.0511 16.6127C80.9646 16.531 80.8511 16.4779 80.7285 16.4616C80.6502 16.4616 79.0489 16.251 76.2134 16.7804C76.8967 15.6191 77.4175 13.9616 77.2369 12.6838C77.1909 12.0707 76.8927 11.4968 76.4031 11.0791C76.3238 11.0163 76.2272 10.975 76.1239 10.9597C76.0207 10.9444 75.9149 10.9558 75.8182 10.9925C75.7215 11.0293 75.6378 11.09 75.5764 11.1679C75.5149 11.2458 75.478 11.3378 75.4699 11.4338C75.3947 12.4455 74.9974 13.1938 74.2659 13.7204C73.1101 14.5519 71.3763 14.6323 70.2957 14.5852C71.0211 13.823 72.2974 12.67 73.7331 12.2376C73.8466 12.2035 73.9455 12.1371 74.0153 12.0479C74.0851 11.9587 74.1222 11.8514 74.1215 11.7415C74.1229 11.7221 74.1229 11.7026 74.1215 11.6833C74.1095 11.5839 74.0665 11.4898 73.9976 11.4126C73.9286 11.3353 73.8367 11.2782 73.7331 11.2481C72.0054 10.7409 69.5793 11.5253 67.975 12.1766C68.9502 10.7243 70.4703 8.91991 71.9994 8.57345C72.1141 8.54835 72.2174 8.49071 72.2946 8.40865C72.3719 8.32659 72.4192 8.22426 72.4299 8.11612C72.4344 8.07928 72.4344 8.04209 72.4299 8.00525C72.4179 7.91673 72.3814 7.83255 72.324 7.76073C72.2665 7.6889 72.19 7.63184 72.1017 7.59504C68.2097 5.97916 64.9047 8.16877 63.192 9.732C63.2365 9.09721 63.2204 8.46005 63.1438 7.82786C62.9632 6.44202 62.4455 5.38048 61.6057 4.69311C61.5199 4.62367 61.4134 4.57972 61.3001 4.56708C61.1867 4.55443 61.0718 4.57368 60.9705 4.62226C60.8693 4.67084 60.7864 4.74649 60.7327 4.83927C60.6789 4.93206 60.657 5.03762 60.6696 5.14212C60.796 6.11775 59.9773 7.45093 58.993 8.64829C59.3013 7.85089 59.4945 7.01967 59.5679 6.17595C59.5679 6.14546 59.5679 6.11221 59.5679 6.08172C59.5509 5.9781 59.5006 5.88156 59.4234 5.80455C59.3717 5.7532 59.3094 5.71181 59.2401 5.68278C59.1709 5.65376 59.0961 5.63769 59.0201 5.63549C58.7648 5.63898 58.5136 5.69583 58.2856 5.80178C59.053 5.12203 59.8751 4.49663 60.7449 3.9309C60.8276 3.87685 60.8931 3.80331 60.9344 3.71798C60.9757 3.63265 60.9913 3.53866 60.9796 3.44585V3.40427C60.9577 3.30542 60.9051 3.21457 60.8281 3.14274C60.7512 3.0709 60.6532 3.02119 60.5461 2.99962C56.8558 2.26512 52.7201 5.36108 50.8117 7.04348C50.8404 6.22372 50.8062 5.40312 50.7094 4.58778C50.4926 2.94141 49.9689 1.81611 49.1441 1.26177C49.0555 1.19999 48.9489 1.16363 48.8379 1.15726C48.7269 1.15089 48.6164 1.17479 48.52 1.22594C48.4237 1.2771 48.3459 1.35326 48.2963 1.44492C48.2466 1.53657 48.2275 1.63964 48.2411 1.74127C48.2473 1.79308 48.2625 1.84363 48.2863 1.89095C48.414 2.16152 48.4963 2.44844 48.5301 2.74184C49.0117 6.43648 44.0722 12.997 44.015 13.058C43.9316 13.1636 43.8941 13.2941 43.9097 13.4239Z" fill="url(#paint3_linear_2825_32837)"/>
<path d="M51.0615 10.4079C51.0615 10.4079 56.1063 5.19716 60.2602 6.02589C55.2424 9.29646 54.1799 13.0798 54.1799 13.0798C54.1799 13.0798 57.4909 8.36797 58.996 8.39568C58.8455 10.6879 57.0966 13.2544 57.0966 13.2544C57.0966 13.2544 61.2806 9.70115 60.9886 7.43392C62.9903 9.07198 62.0301 13.0521 62.0301 13.0521C62.0301 13.0521 65.7445 8.12961 70.5124 10.1058C67.9418 10.6602 65.7957 14.8731 65.7957 14.8731C65.7957 14.8731 69.7629 12.725 72.0264 13.3902C69.8592 14.0444 68.1315 16.3088 68.1315 16.3088C68.1315 16.3088 73.9348 17.2761 74.2508 13.1436C75.7257 14.3271 74.1395 18.1021 73.1221 18.6537C76.4933 17.8222 78.3926 18.0716 78.3926 18.0716C78.3926 18.0716 75.795 17.8277 75.1779 19.3632C80.7014 20.2917 82.703 20.7851 82.703 20.7851C82.703 20.7851 77.8298 20.3943 76.8455 21.7912C79.5546 22.9941 80.9783 21.6942 80.9783 21.6942C80.9783 21.6942 79.1542 23.4126 77.5137 23.9448C77.5137 23.9448 79.9218 25.7464 82.6308 25.6632C82.6308 25.6632 79.5786 26.7165 77.6492 26.2176C81.2131 27.3262 83.0161 26.844 83.0161 26.844C83.0161 26.844 80.9723 28.9089 79.0037 28.507C81.8241 29.6378 84.6054 28.9005 86.9622 30.2864C82.7211 29.9676 80.295 31.0236 80.295 31.0236C80.295 31.0236 83.3743 31.9882 85.4121 31.5392C85.6348 32.6478 80.9361 33.5902 80.9361 33.5902L45.9775 14.8426C45.9775 14.8426 51.4318 7.65566 49.8394 4.39062C51.6515 5.61016 51.0615 10.4079 51.0615 10.4079Z" fill="#318063"/>
<path d="M88.9763 42.36C88.9763 45.6666 85.0632 48.4576 84.1873 51.5065C83.2843 54.6634 85.1114 58.8708 83.3746 61.6314C81.6137 64.4336 76.7224 65.0628 74.2512 67.3355C71.7799 69.6083 71.0997 74.115 68.0596 75.7365C65.0194 77.3579 60.4893 75.6422 57.0639 76.4848C53.7528 77.2997 50.7217 80.8945 47.1307 80.8945C43.5398 80.8945 40.5086 77.2914 37.1976 76.4848C33.7722 75.6533 29.2029 77.3357 26.2019 75.7365C23.2009 74.1372 22.4785 69.6083 20.0102 67.3355C17.542 65.0628 12.6477 64.4336 10.8868 61.6314C9.15004 58.8597 10.9892 54.6607 10.0741 51.5065C9.18915 48.4576 5.28516 45.6693 5.28516 42.36C5.28516 39.0506 9.19818 36.2623 10.0741 33.2134C10.9771 30.0593 9.15004 25.8519 10.8868 23.0885C12.6236 20.3251 17.539 19.6599 20.0102 17.3844C22.4815 15.1088 23.1618 10.6049 26.2049 8.98343C29.215 7.38695 33.7722 9.08043 37.1976 8.23784C40.5086 7.42296 43.5398 3.82812 47.1307 3.82812C50.7217 3.82812 53.7528 7.43128 57.0639 8.23784C60.4893 9.06934 65.0585 7.38695 68.0596 8.98343C71.0606 10.5799 71.7829 15.1116 74.2512 17.3844C76.7194 19.6571 81.6137 20.2863 83.3746 23.0885C85.1355 25.8907 83.2722 30.0593 84.1873 33.2134C85.0723 36.265 88.9763 39.0534 88.9763 42.36Z" fill="url(#paint4_linear_2825_32837)"/>
<path d="M86.8812 40.4387C86.8692 41.1413 86.7055 41.8348 86.3996 42.4786C85.9823 43.3428 85.472 44.1664 84.8765 44.9371C83.8591 46.3229 82.7484 47.7088 82.3331 49.1251C81.7672 51.0653 82.3089 53.4489 82.3029 55.5942C82.3029 56.7417 82.1374 57.8282 81.5625 58.7428C81.3918 59.0159 81.19 59.2714 80.9605 59.505C78.9678 61.545 75.0066 62.224 72.9026 64.1614C70.5608 66.3206 69.9106 70.6028 67.0209 72.1411C64.1313 73.6794 59.83 72.0524 56.5731 72.8534C53.4306 73.6267 50.5531 77.0414 47.1427 77.0414C43.7323 77.0414 40.8517 73.6267 37.7062 72.8534C34.4523 72.0524 30.1119 73.66 27.2614 72.1411C24.4109 70.6222 23.7246 66.3206 21.3767 64.1614C19.0289 62.0023 14.3844 61.3898 12.7108 58.7428C12.6437 58.6386 12.5824 58.5313 12.5272 58.4213C12.1302 57.555 11.9413 56.6199 11.9734 55.6801C11.9493 53.5127 12.5122 51.1013 11.9403 49.1251C11.1005 46.2287 7.39209 43.5817 7.39209 40.4387C7.39209 37.2956 11.1005 34.6486 11.9403 31.7495C12.8102 28.7533 11.0613 24.7565 12.7108 22.1318C14.3603 19.507 19.0319 18.875 21.3767 16.7131C23.7215 14.5512 24.3717 10.2745 27.2614 8.73347C30.151 7.19241 34.4523 8.82495 37.7062 8.02394C40.8517 7.25064 43.7263 3.83594 47.1427 3.83594C50.5591 3.83594 53.4306 7.25064 56.5731 8.02394C59.83 8.82495 64.1704 7.21459 67.0209 8.73347C69.8715 10.2523 70.5217 14.3184 72.71 16.5274C72.7732 16.5912 72.8394 16.6549 72.9026 16.7131C74.5882 18.2653 77.4598 19.0109 79.5638 20.2941C80.3799 20.7537 81.0675 21.3831 81.5715 22.1318C83.221 24.7565 81.4722 28.7533 82.3421 31.7495C83.1759 34.6486 86.8812 37.2984 86.8812 40.4387Z" fill="url(#paint5_linear_2825_32837)"/>
<path d="M81.5081 48.6212C80.6473 51.5841 82.378 55.5503 80.7466 58.1363C79.1152 60.7223 74.4948 61.357 72.174 63.494C69.8533 65.631 69.2151 69.8688 66.3556 71.3849C63.496 72.901 59.2429 71.2963 56.0252 72.089C52.9158 72.8539 50.0683 76.2465 46.694 76.2465C43.3198 76.2465 40.4723 72.8678 37.3629 72.089C34.1422 71.2963 29.8378 72.8872 27.0324 71.3849C24.2271 69.8827 23.5317 65.6282 21.214 63.4912C18.8963 61.3543 14.2909 60.7666 12.6414 58.1363C10.9919 55.506 12.7377 51.5841 11.8769 48.6212C11.0431 45.758 7.37988 43.136 7.37988 40.029C7.37988 38.4159 8.36716 36.9358 9.43271 35.4834C10.1744 34.5451 10.8413 33.5586 11.4284 32.5316C11.6141 32.1801 11.7643 31.8136 11.8769 31.4368C12.7377 28.4739 11.01 24.5076 12.6414 21.9244C14.2729 19.3412 18.8903 18.7009 21.214 16.5667C23.5378 14.4325 24.1729 10.1919 27.0324 8.67301C29.892 7.15413 34.1422 8.76169 37.3629 7.96899C40.4723 7.20401 43.3198 3.82812 46.694 3.82812C50.0683 3.82812 52.9128 7.20401 56.0252 7.96899C59.2429 8.76169 63.5502 7.17076 66.3556 8.67301C69.0827 10.1254 69.7931 14.0473 71.873 16.2619C71.9677 16.3681 72.0682 16.4698 72.174 16.5667C73.8356 18.0967 76.671 18.834 78.751 20.1006C79.5621 20.5553 80.2449 21.1802 80.7436 21.9244C82.375 24.5187 80.6443 28.4739 81.5051 31.4368C82.3389 34.2999 86.0051 36.9219 86.0051 40.029C86.0051 43.136 82.3419 45.758 81.5081 48.6212Z" fill="url(#paint6_linear_2825_32837)"/>
<path d="M26.3911 34.1051C20.8526 34.9199 13.9506 35.3163 9.43555 35.4909C10.1772 34.5526 10.8442 33.566 11.4312 32.5391C16.3596 32.8427 21.3019 32.9065 26.2376 32.7303C26.4356 32.7116 26.6335 32.766 26.7879 32.8817C26.9423 32.9973 27.0405 33.1647 27.0609 33.347C27.0812 33.5293 27.0221 33.7116 26.8965 33.8538C26.7709 33.9959 26.5891 34.0863 26.3911 34.1051Z" fill="url(#paint7_linear_2825_32837)"/>
<path d="M86.3997 42.4766C85.9824 43.3408 85.4721 44.1644 84.8766 44.935C42.5494 46.0437 21.9668 53.2501 12.5183 58.4192C12.1213 57.5529 11.9324 56.6179 11.9644 55.6781C12.6507 54.9297 13.4093 54.1176 14.243 53.2307C37.6311 44.8436 74.0014 42.9034 86.3997 42.4766Z" fill="url(#paint8_linear_2825_32837)"/>
<path d="M82.3025 55.5938C82.3025 56.7412 82.137 57.8277 81.5621 58.7424C81.3914 59.0154 81.1896 59.2709 80.9601 59.5046C76.8815 60.4691 66.4336 62.7779 56.3741 63.6954C56.3023 63.7046 56.2293 63.7008 56.1591 63.6841C56.089 63.6674 56.0231 63.6381 55.9653 63.598C55.8484 63.5169 55.7713 63.3964 55.751 63.263C55.7306 63.1295 55.7687 62.9941 55.8567 62.8866C55.9448 62.779 56.0757 62.708 56.2206 62.6892C66.4758 60.9458 76.7881 57.5644 82.3025 55.5938Z" fill="url(#paint9_linear_2825_32837)"/>
<path d="M79.5548 20.2924C74.3173 21.5729 59.3424 24.9488 46.4444 25.0043C46.2804 25.0045 46.1221 24.9484 46.0006 24.847C45.8791 24.7456 45.803 24.6061 45.7872 24.4557C45.7714 24.3054 45.8171 24.1551 45.9152 24.0341C46.0133 23.9131 46.157 23.8301 46.318 23.8013C56.5973 22.0247 67.0511 18.5629 72.6889 16.5312C72.7521 16.595 72.8184 16.6588 72.8816 16.717C74.5792 18.2636 77.4508 19.0091 79.5548 20.2924Z" fill="url(#paint10_linear_2825_32837)"/>
<path d="M46.0772 49.1795C48.5458 49.1795 50.9132 48.2011 52.6588 46.4597C54.4043 44.7182 55.3849 42.3563 55.3849 39.8935V28.286C55.3849 25.8232 54.4043 23.4613 52.6588 21.7198C50.9132 19.9783 48.5458 19 46.0772 19C43.6087 19 41.2412 19.9783 39.4957 21.7198C37.7502 23.4613 36.7695 25.8232 36.7695 28.286V39.8935C36.7695 42.3563 37.7502 44.7182 39.4957 46.4597C41.2412 48.2011 43.6087 49.1795 46.0772 49.1795Z" fill="white"/>
<path d="M62.1538 39.9206C62.1538 39.3097 61.9119 38.7238 61.4812 38.2918C61.0504 37.8599 60.4663 37.6172 59.8571 37.6172C59.248 37.6172 58.6638 37.8599 58.2331 38.2918C57.8024 38.7238 57.5604 39.3097 57.5604 39.9206C57.5604 42.9751 56.3506 45.9045 54.197 48.0644C52.0434 50.2243 49.1225 51.4377 46.0769 51.4377C43.0313 51.4377 40.1104 50.2243 37.9569 48.0644C35.8033 45.9045 34.5934 42.9751 34.5934 39.9206C34.5934 39.3097 34.3514 38.7238 33.9207 38.2918C33.49 37.8599 32.9058 37.6172 32.2967 37.6172C31.6876 37.6172 31.1034 37.8599 30.6727 38.2918C30.242 38.7238 30 39.3097 30 39.9206C30.0045 43.7946 31.3996 47.5375 33.9301 50.4644C36.4605 53.3914 39.9571 55.3068 43.7802 55.8603V60.6514H38.9342C38.3921 60.6514 37.8721 60.8674 37.4888 61.2518C37.1055 61.6363 36.8901 62.1577 36.8901 62.7014V63.2082C36.8901 63.7519 37.1055 64.2733 37.4888 64.6578C37.8721 65.0422 38.3921 65.2582 38.9342 65.2582H53.2197C53.7618 65.2582 54.2817 65.0422 54.665 64.6578C55.0484 64.2733 55.2637 63.7519 55.2637 63.2082V62.7014C55.2637 62.1577 55.0484 61.6363 54.665 61.2518C54.2817 60.8674 53.7618 60.6514 53.2197 60.6514H48.3736V55.8603C52.1967 55.3068 55.6933 53.3914 58.2238 50.4644C60.7542 47.5375 62.1493 43.7946 62.1538 39.9206Z" fill="white"/>
</g>
<defs>
<linearGradient id="paint0_linear_2825_32837" x1="61481.7" y1="-66664" x2="64101.9" y2="-71858.8" gradientUnits="userSpaceOnUse">
<stop stop-color="#95D543"/>
<stop offset="0.26" stop-color="#72B74E"/>
<stop offset="0.58" stop-color="#4F9959"/>
<stop offset="0.83" stop-color="#398760"/>
<stop offset="1" stop-color="#318063"/>
</linearGradient>
<linearGradient id="paint1_linear_2825_32837" x1="-118543" y1="-122224" x2="-123284" y2="-126599" gradientUnits="userSpaceOnUse">
<stop stop-color="#95D543"/>
<stop offset="0.26" stop-color="#72B74E"/>
<stop offset="0.58" stop-color="#4F9959"/>
<stop offset="0.83" stop-color="#398760"/>
<stop offset="1" stop-color="#318063"/>
</linearGradient>
<linearGradient id="paint2_linear_2825_32837" x1="62180.9" y1="109144" x2="64801.1" y2="114339" gradientUnits="userSpaceOnUse">
<stop stop-color="#95D543"/>
<stop offset="0.26" stop-color="#72B74E"/>
<stop offset="0.58" stop-color="#4F9959"/>
<stop offset="0.83" stop-color="#398760"/>
<stop offset="1" stop-color="#318063"/>
</linearGradient>
<linearGradient id="paint3_linear_2825_32837" x1="-124049" y1="164042" x2="-128790" y2="168416" gradientUnits="userSpaceOnUse">
<stop stop-color="#95D543"/>
<stop offset="0.26" stop-color="#72B74E"/>
<stop offset="0.58" stop-color="#4F9959"/>
<stop offset="0.83" stop-color="#398760"/>
<stop offset="1" stop-color="#318063"/>
</linearGradient>
<linearGradient id="paint4_linear_2825_32837" x1="178579" y1="92014.2" x2="184881" y2="107563" gradientUnits="userSpaceOnUse">
<stop stop-color="#F8A45B"/>
<stop offset="0.22" stop-color="#C97F40"/>
<stop offset="0.47" stop-color="#985825"/>
<stop offset="0.7" stop-color="#743C11"/>
<stop offset="0.88" stop-color="#5E2B04"/>
<stop offset="1" stop-color="#562500"/>
</linearGradient>
<linearGradient id="paint5_linear_2825_32837" x1="188559" y1="103226" x2="168671" y2="86752.3" gradientUnits="userSpaceOnUse">
<stop stop-color="#F8A45B"/>
<stop offset="0.39" stop-color="#CC7937"/>
<stop offset="0.79" stop-color="#A55318"/>
<stop offset="1" stop-color="#96440C"/>
</linearGradient>
<linearGradient id="paint6_linear_2825_32837" x1="167020" y1="85180.9" x2="173788" y2="99990.2" gradientUnits="userSpaceOnUse">
<stop stop-color="#F8A45B"/>
<stop offset="0.39" stop-color="#CC7937"/>
<stop offset="0.79" stop-color="#A55318"/>
<stop offset="1" stop-color="#96440C"/>
</linearGradient>
<linearGradient id="paint7_linear_2825_32837" x1="36400.6" y1="3624.34" x2="36401.4" y2="3684.12" gradientUnits="userSpaceOnUse">
<stop offset="0.38" stop-color="#96440C"/>
<stop offset="0.4" stop-color="#9A4810"/>
<stop offset="0.5" stop-color="#B76427"/>
</linearGradient>
<linearGradient id="paint8_linear_2825_32837" x1="161199" y1="20169" x2="161212" y2="20630.9" gradientUnits="userSpaceOnUse">
<stop offset="0.38" stop-color="#96440C"/>
<stop offset="0.4" stop-color="#9A4810"/>
<stop offset="0.5" stop-color="#B76427"/>
</linearGradient>
<linearGradient id="paint9_linear_2825_32837" x1="59355.5" y1="10704.5" x2="59367.4" y2="10875" gradientUnits="userSpaceOnUse">
<stop offset="0.38" stop-color="#96440C"/>
<stop offset="0.4" stop-color="#9A4810"/>
<stop offset="0.5" stop-color="#B76427"/>
</linearGradient>
<linearGradient id="paint10_linear_2825_32837" x1="74659.6" y1="9914.64" x2="74672.2" y2="10155.8" gradientUnits="userSpaceOnUse">
<stop offset="0.38" stop-color="#96440C"/>
<stop offset="0.4" stop-color="#9A4810"/>
<stop offset="0.5" stop-color="#B76427"/>
</linearGradient>
<clipPath id="clip0_2825_32837">
<rect width="88" height="88" fill="white"/>
</clipPath>
</defs>
</svg>
