<svg width="86" height="86" viewBox="0 0 86 86" fill="none" xmlns="http://www.w3.org/2000/svg">
<rect x="1.74998" y="1.75156" width="82.5" height="82.5" rx="41.25" stroke="#FF7F36" stroke-width="3.3"/>
<rect x="4.50005" y="4.49688" width="77" height="77" rx="38.5" stroke="#FF7F36" stroke-opacity="0.4" stroke-width="4.4"/>
<g clip-path="url(#clip0_2422_12025)">
<path d="M43 48.4974C44.9449 48.4974 46.8101 47.7248 48.1854 46.3495C49.5607 44.9742 50.3333 43.109 50.3333 41.1641V31.9974C50.3333 30.0525 49.5607 28.1872 48.1854 26.8119C46.8101 25.4367 44.9449 24.6641 43 24.6641C41.055 24.6641 39.1898 25.4367 37.8145 26.8119C36.4392 28.1872 35.6666 30.0525 35.6666 31.9974V41.1641C35.6666 43.109 36.4392 44.9742 37.8145 46.3495C39.1898 47.7248 41.055 48.4974 43 48.4974Z" fill="#FF7F36"/>
<path d="M55.8334 41.1615C55.8334 40.6752 55.6403 40.2089 55.2964 39.8651C54.9526 39.5213 54.4863 39.3281 54.0001 39.3281C53.5138 39.3281 53.0475 39.5213 52.7037 39.8651C52.3599 40.2089 52.1667 40.6752 52.1667 41.1615C52.1667 43.5926 51.201 45.9242 49.4819 47.6433C47.7628 49.3624 45.4312 50.3281 43.0001 50.3281C40.5689 50.3281 38.2374 49.3624 36.5183 47.6433C34.7992 45.9242 33.8334 43.5926 33.8334 41.1615C33.8334 40.6752 33.6403 40.2089 33.2964 39.8651C32.9526 39.5213 32.4863 39.3281 32.0001 39.3281C31.5139 39.3281 31.0475 39.5213 30.7037 39.8651C30.3599 40.2089 30.1667 40.6752 30.1667 41.1615C30.1704 44.2448 31.284 47.2239 33.3039 49.5535C35.3238 51.8831 38.115 53.4076 41.1667 53.8481V57.6615H37.2984C36.8657 57.6615 36.4506 57.8334 36.1447 58.1394C35.8387 58.4454 35.6667 58.8604 35.6667 59.2931V59.6965C35.6667 60.1292 35.8387 60.5442 36.1447 60.8502C36.4506 61.1562 36.8657 61.3281 37.2984 61.3281H48.7017C49.1345 61.3281 49.5495 61.1562 49.8555 60.8502C50.1615 60.5442 50.3334 60.1292 50.3334 59.6965V59.2931C50.3334 58.8604 50.1615 58.4454 49.8555 58.1394C49.5495 57.8334 49.1345 57.6615 48.7017 57.6615H44.8334V53.8481C47.8852 53.4076 50.6763 51.8831 52.6963 49.5535C54.7162 47.2239 55.8298 44.2448 55.8334 41.1615Z" fill="#FF7F36"/>
</g>
<defs>
<clipPath id="clip0_2422_12025">
<rect width="44" height="44" fill="white" transform="translate(21 21)"/>
</clipPath>
</defs>
</svg>
