<svg width="93" height="91" viewBox="0 0 93 91" fill="none" xmlns="http://www.w3.org/2000/svg">
<g filter="url(#filter0_d_2974_13311)">
<circle cx="49" cy="44" r="44" fill="#92F200"/>
<circle cx="49" cy="44" r="40.6739" stroke="white" stroke-width="6.65217"/>
</g>
<g clip-path="url(#clip0_2974_13311)">
<path d="M55.2435 47.9102C53.5869 49.5667 51.3401 50.4974 48.9974 50.4974C46.6547 50.4974 44.4079 49.5667 42.7513 47.9102C41.0947 46.2536 40.1641 44.0068 40.1641 41.6641V29.9974C40.1641 27.6547 41.0947 25.4079 42.7513 23.7513C44.4079 22.0947 46.6547 21.1641 48.9974 21.1641C51.3401 21.1641 53.5869 22.0947 55.2435 23.7513C56.9001 25.4079 57.8307 27.6547 57.8307 29.9974V41.6641C57.8307 44.0068 56.9001 46.2536 55.2435 47.9102Z" fill="white" stroke="#39BD01"/>
<path d="M47.1641 57.8159V57.3829L46.7355 57.3211C42.9703 56.7776 39.5267 54.8967 37.0346 52.0225C34.5426 49.1483 33.1686 45.4731 33.1641 41.669C33.1641 41.1829 33.3573 40.7167 33.701 40.3729C34.0449 40.0291 34.5112 39.8359 34.9974 39.8359C35.4836 39.8359 35.9499 40.0291 36.2938 40.3729C36.6376 40.7167 36.8307 41.183 36.8307 41.6693C36.8307 44.8961 38.1126 47.9907 40.3943 50.2724C42.676 52.5541 45.7706 53.8359 48.9974 53.8359C52.2242 53.8359 55.3188 52.5541 57.6005 50.2724C59.8822 47.9907 61.1641 44.8961 61.1641 41.6693C61.1641 41.183 61.3572 40.7167 61.701 40.3729C62.0449 40.0291 62.5112 39.8359 62.9974 39.8359C63.4836 39.8359 63.9499 40.0291 64.2938 40.3729C64.6374 40.7166 64.8306 41.1827 64.8307 41.6687C64.8263 45.4729 63.4523 49.1483 60.9602 52.0225C58.4681 54.8967 55.0245 56.7776 51.2593 57.3211L50.8307 57.3829V57.8159V62.6693V63.1693H51.3307H56.2541C56.6722 63.1693 57.0733 63.3354 57.3689 63.6311C57.6646 63.9268 57.8307 64.3278 57.8307 64.7459V65.2593C57.8307 65.6774 57.6646 66.0785 57.3689 66.3741C57.0733 66.6698 56.6722 66.8359 56.2541 66.8359H41.7407C41.3226 66.8359 40.9215 66.6698 40.6259 66.3741C40.3302 66.0785 40.1641 65.6774 40.1641 65.2593V64.7459C40.1641 64.3278 40.3302 63.9268 40.6259 63.6311C40.9215 63.3354 41.3226 63.1693 41.7407 63.1693H46.6641H47.1641V62.6693V57.8159Z" fill="white" stroke="#39BD01"/>
</g>
<defs>
<filter id="filter0_d_2974_13311" x="0" y="0" width="93" height="91" filterUnits="userSpaceOnUse" color-interpolation-filters="sRGB">
<feFlood flood-opacity="0" result="BackgroundImageFix"/>
<feColorMatrix in="SourceAlpha" type="matrix" values="0 0 0 0 0 0 0 0 0 0 0 0 0 0 0 0 0 0 127 0" result="hardAlpha"/>
<feOffset dx="-5" dy="3"/>
<feComposite in2="hardAlpha" operator="out"/>
<feColorMatrix type="matrix" values="0 0 0 0 0.225553 0 0 0 0 0.741667 0 0 0 0 0.00309026 0 0 0 1 0"/>
<feBlend mode="normal" in2="BackgroundImageFix" result="effect1_dropShadow_2974_13311"/>
<feBlend mode="normal" in="SourceGraphic" in2="effect1_dropShadow_2974_13311" result="shape"/>
</filter>
<clipPath id="clip0_2974_13311">
<rect width="56" height="56" fill="white" transform="translate(21 16)"/>
</clipPath>
</defs>
</svg>
