<svg width="709" height="457" viewBox="0 0 709 457" fill="none" xmlns="http://www.w3.org/2000/svg">
<path d="M688.951 166.682C687.61 177.442 702.353 189.783 701.019 200.555C699.684 211.326 682.265 220.522 680.93 231.26C679.595 241.998 694.339 254.367 693.004 265.133C691.67 275.899 674.25 285.101 672.909 295.844C671.569 306.588 686.325 318.946 684.99 329.717C683.655 340.488 666.23 349.685 664.895 360.423C663.561 371.161 678.304 383.53 676.97 394.295C675.635 405.061 658.209 414.263 656.875 425.007C656.875 425.273 656.819 425.561 656.8 425.827C655.684 442.367 637.672 453.471 620.003 448.202C617.007 447.267 613.899 446.641 610.741 446.339C593.758 444.952 575.429 458.047 558.421 456.933C541.413 455.818 525.435 440.493 508.402 439.661C491.369 438.829 473.594 452.506 456.562 451.952C439.529 451.397 422.883 436.593 405.863 436.316C388.843 436.039 371.611 450.288 354.559 450.288C337.508 450.288 320.307 436.033 303.249 436.316C286.192 436.599 269.571 451.392 252.557 451.952C235.543 452.512 217.737 438.829 200.717 439.661C183.696 440.493 167.705 455.823 150.698 456.933C133.69 458.042 115.36 444.952 98.3772 446.339C95.2196 446.641 92.1118 447.266 89.1156 448.202C71.453 453.471 53.4475 442.367 52.3186 425.827C52.3186 425.545 52.2812 425.273 52.2438 425.007C50.9153 414.241 33.496 405.039 32.1551 394.295C30.8142 383.552 45.5641 371.188 44.2232 360.423C42.8823 349.657 25.4755 340.455 24.1346 329.717C22.7937 318.979 37.5499 306.604 36.2152 295.844C34.8805 285.084 17.455 275.877 16.1203 265.133C14.7856 254.389 29.5294 242.026 28.1947 231.26C26.8601 220.494 9.44071 211.293 8.0998 200.555C6.75889 189.816 21.5151 177.442 20.1742 166.682C18.8333 155.921 1.42022 146.714 0.0855489 135.971C-1.24912 125.227 13.4946 112.864 12.1599 102.098C12.0913 101.543 11.9916 100.988 11.8668 100.434C8.05616 83.7942 24.4838 69.1901 43.2628 71.5918L43.5247 71.625C43.637 71.625 43.7617 71.6251 43.8802 71.6694C49.406 72.4737 54.7634 72.8786 59.7466 72.4737C61.8946 72.2882 64.0235 71.9562 66.1143 71.4808L66.4137 71.4142C70.8553 70.3277 75.1749 68.8795 79.3176 67.088C91.9408 61.8576 104.377 54.6471 117.399 53.7763C119.406 53.6506 121.42 53.6636 123.424 53.8151H123.798C141.529 55.1629 159.922 65.607 177.491 64.7417C179.563 64.6312 181.623 64.3828 183.653 63.9985C183.815 63.9985 183.983 63.943 184.145 63.9098C190.039 62.7672 195.883 60.6207 201.721 58.2579C213.053 53.693 224.335 48.3296 235.886 47.9579C236.746 47.9579 237.601 47.9579 238.462 47.9579H239.048C257.758 48.7511 276.805 61.1809 295.472 60.8758C300.524 60.7982 305.557 59.7665 310.596 58.3189C324.211 54.3642 337.776 47.1148 351.422 46.1165L352.744 46.0332L353.942 46H354.516C355.102 46 355.701 46 356.287 46.0388C356.723 46.0388 357.166 46.0887 357.603 46.122C371.249 47.1093 384.82 54.3586 398.435 58.3244C400.25 58.8791 402.065 59.3172 403.88 59.7055C407.047 60.4067 410.29 60.8009 413.553 60.8814C431.939 61.1809 450.699 49.1393 469.116 48.0078L469.983 47.9634C471.044 47.9246 472.098 47.9135 473.152 47.9634C487.078 48.4182 500.637 56.128 514.314 60.9479C517.795 62.2146 521.39 63.2184 525.06 63.9486C525.158 63.9756 525.258 63.9941 525.36 64.0041C527.388 64.3884 529.446 64.6368 531.515 64.7473C548.71 65.5904 566.697 55.6066 584.085 53.9205C584.459 53.8817 584.834 53.8428 585.214 53.8206C587.346 53.6451 589.49 53.6247 591.626 53.7596C606.357 54.7247 620.315 63.8155 634.659 68.9904C637.133 69.9035 639.67 70.6724 642.256 71.2922L642.879 71.4476C644.972 71.9225 647.103 72.2544 649.253 72.4403C654.232 72.7516 659.235 72.5263 664.153 71.7692L665.12 71.6361C665.245 71.6361 665.363 71.5973 665.482 71.5918C684.366 69.0515 700.956 83.7221 697.127 100.434C697.008 100.988 696.902 101.543 696.834 102.098C695.505 112.864 710.249 125.21 708.914 135.971C707.58 146.731 690.279 155.921 688.951 166.682Z" fill="white"/>
<path d="M681.863 165.876C680.702 175.307 691.902 185.965 693.58 195.671C693.804 196.902 693.846 198.154 693.708 199.395C692.935 205.652 686.688 211.376 681.461 217.197C677.772 221.276 674.55 225.402 674.007 229.802C672.693 240.454 687.16 252.675 685.845 263.327C685.673 264.62 685.303 265.887 684.748 267.091C682.38 272.368 676.892 277.336 672.469 282.395C669.278 286.068 666.63 289.792 666.145 293.734C664.869 304.385 679.298 316.601 677.99 327.258C676.681 337.915 659.597 347.009 658.283 357.66C656.968 368.311 671.436 380.533 670.127 391.184C668.819 401.836 651.735 410.929 650.427 421.586C650.389 421.855 650.363 422.125 650.35 422.4C649.253 438.769 631.595 449.765 614.281 444.545C611.34 443.622 608.291 443.005 605.194 442.706C588.544 441.33 570.573 454.291 553.897 453.197C537.222 452.102 521.549 436.913 504.86 436.094C488.172 435.274 470.725 448.808 454.024 448.258C437.323 447.708 421.031 433.057 404.311 432.788C387.591 432.518 370.73 446.619 354.01 446.619C337.29 446.619 320.423 432.512 303.703 432.788C286.983 433.063 270.71 447.713 253.996 448.258C237.282 448.802 219.86 435.268 203.16 436.094C186.459 436.919 170.798 452.096 154.123 453.197C137.447 454.297 119.476 441.33 102.827 442.706C99.7289 443.004 96.6797 443.621 93.739 444.545C76.7637 449.656 59.4757 439.199 57.759 423.345C57.7554 423.33 57.7554 423.314 57.759 423.299C57.7271 422.996 57.6952 422.686 57.6761 422.371C57.6569 422.056 57.6314 421.798 57.5995 421.557C57.5676 421.317 57.5357 421.105 57.491 420.875C55.5765 410.516 39.1883 401.595 37.9056 391.173C37.8737 390.881 37.8482 390.6 37.8354 390.296C37.695 387.093 38.882 383.747 40.5731 380.355C41.3645 378.768 42.2579 377.17 43.1705 375.571C46.6549 369.475 50.4456 363.344 49.75 357.666C49.7117 357.414 49.6798 357.167 49.6288 356.921C47.6313 346.607 31.3324 337.681 30.0497 327.287C30.0114 327 29.9923 326.714 29.9795 326.422C29.7689 321.643 32.5322 316.561 35.4359 311.467C38.8884 305.445 42.5834 299.395 41.8941 293.78C41.8622 293.545 41.8303 293.321 41.7857 293.092C39.8712 282.727 23.4766 273.8 22.1939 263.372C22.1556 263.092 22.1364 262.799 22.1237 262.536C21.6897 253.414 32.0408 243.227 33.8468 233.887C34.1209 232.556 34.1832 231.196 34.0319 229.848C34.0319 229.648 33.9745 229.447 33.9362 229.275C32.0791 218.882 15.6079 209.932 14.3316 199.481C14.2892 199.156 14.2657 198.828 14.2614 198.501C13.8913 188.079 27.4396 176.276 26.176 165.951C26.1441 165.699 26.1058 165.452 26.0548 165.206C24.0637 154.892 7.75207 145.954 6.46935 135.549C6.40308 135.022 6.37536 134.492 6.38639 133.962V133.876C6.62251 123.626 19.5518 112.103 18.3138 102.019C18.2691 101.692 18.218 101.366 18.1478 101.033C18.1478 100.839 18.0713 100.644 18.033 100.461C18.033 100.386 18.0011 100.306 17.982 100.231C17.9054 99.8818 17.8352 99.5381 17.7777 99.1943C15.7675 87.3109 24.0062 76.6709 35.7741 72.9695C40.1483 71.5917 44.839 71.2271 49.4118 71.9096C52.5467 72.3892 55.7117 72.6935 58.8886 72.8206C60.9143 72.9067 62.9441 72.8684 64.964 72.706C68.5357 72.3759 72.0511 71.6662 75.4363 70.5917C89.693 66.2372 103.478 56.8405 117.926 54.6116C119.113 54.4283 120.304 54.2965 121.499 54.2163C123.199 54.1139 124.905 54.1139 126.605 54.2163L127.122 54.2507C142.048 55.2075 157.467 62.9884 172.432 64.799L172.77 64.8334C174.885 65.0866 177.018 65.1938 179.152 65.1543C179.573 65.1543 180 65.1543 180.428 65.1199C186.35 64.822 192.189 63.2119 198.01 61.1091C210.601 56.5254 223.077 49.6498 235.847 48.6127C236.447 48.5668 237.053 48.5267 237.653 48.5095C238.087 48.5095 238.527 48.5095 238.929 48.5095H239.069C256.849 48.5725 274.973 60.1637 292.784 61.258H292.956C293.99 61.3211 295.037 61.3498 296.077 61.3269C300.475 61.1931 304.831 60.5203 309.025 59.3272C322.957 55.5742 336.837 47.8048 350.8 46.7219L352.153 46.636L353.378 46.6016H353.965C354.565 46.6016 355.178 46.6016 355.778 46.6417C356.224 46.6417 356.678 46.6932 357.124 46.7276C371.087 47.799 384.974 55.5685 398.905 59.3329C402.677 60.3966 406.576 61.0545 410.52 61.2925H410.565C410.992 61.2925 411.426 61.3268 411.841 61.3325C430.456 61.6419 449.493 48.9106 468.108 48.5153H468.255C468.938 48.5153 469.614 48.5153 470.291 48.5153C470.967 48.5153 471.503 48.5726 472.103 48.6184C487.336 49.8217 502.142 59.4303 517.228 63.4354C520.47 64.3312 523.814 64.8944 527.196 65.1142H527.522C527.943 65.1142 528.371 65.1141 528.798 65.1485C546.667 65.4808 565.384 54.3481 583.298 54.1533C584.357 54.1533 585.41 54.1533 586.489 54.2335C587.682 54.3137 588.869 54.4455 590.062 54.6288C606.451 57.1556 621.971 68.913 638.334 72.07C639.881 72.3723 641.447 72.5904 643.024 72.7231C643.273 72.7231 643.528 72.7633 643.784 72.7748C645.55 72.8908 647.323 72.9118 649.093 72.8378C652.272 72.711 655.439 72.4067 658.576 71.9268C660.104 71.7008 661.649 71.5896 663.197 71.5944C666.27 71.6033 669.32 72.0739 672.22 72.9868C681.793 75.9948 689.004 83.5752 690.3 92.6911C690.659 95.2668 690.545 97.878 689.962 100.42C689.834 100.993 689.745 101.521 689.674 102.053C689.496 103.759 689.638 105.479 690.096 107.141C692.495 116.486 702.623 126.622 701.519 135.583C700.255 146.132 683.178 155.219 681.863 165.876Z" fill="url(#paint0_linear_2825_34004)"/>
<mask id="path-3-inside-1_2825_34004" fill="white">
<path d="M679.186 165.512C678.063 174.715 688.632 185.069 690.719 194.6C690.815 195.055 690.905 195.509 690.949 195.952C690.949 196.101 690.987 196.245 691 196.389C691.013 196.533 691.045 196.82 691.058 197.039C691.07 197.258 691.058 197.436 691.058 197.614C691.059 198.091 691.031 198.567 690.975 199.041C690.975 199.242 690.917 199.438 690.885 199.616C690.853 199.794 690.828 199.927 690.79 200.082C690.751 200.237 690.726 200.364 690.688 200.508C690.649 200.651 690.624 200.749 690.585 200.876C690.547 201.002 690.509 201.14 690.464 201.273C690.211 202.058 689.898 202.827 689.526 203.573C689.462 203.694 689.398 203.821 689.328 203.936C688.943 204.657 688.517 205.359 688.052 206.041L687.656 206.616C687.177 207.312 686.641 207.997 686.092 208.687L685.492 209.418C683.296 212.041 680.75 214.594 678.42 217.235C677.782 217.971 677.144 218.719 676.505 219.466C676.346 219.668 676.186 219.863 676.02 220.042C675.102 221.182 674.264 222.373 673.512 223.608C673.412 223.761 673.32 223.918 673.237 224.08C673.142 224.235 673.059 224.402 672.969 224.557C672.714 225.035 672.484 225.523 672.28 226.007C672.21 226.179 672.14 226.346 672.076 226.519C672.012 226.691 671.954 226.835 671.91 226.984C671.865 227.134 671.795 227.312 671.75 227.479C671.706 227.646 671.648 227.807 671.616 227.968C671.584 228.129 671.533 228.284 671.501 228.44C671.425 228.777 671.367 229.117 671.329 229.458C670.053 240.117 684.439 252.346 683.131 262.998C683.07 263.5 682.974 263.998 682.843 264.488C682.843 264.615 682.78 264.741 682.748 264.862C682.716 264.983 682.677 265.109 682.633 265.224C682.382 266.012 682.064 266.782 681.682 267.525C681.586 267.721 681.477 267.916 681.375 268.101C681.273 268.285 681.216 268.394 681.133 268.538C680.833 269.044 680.495 269.544 680.175 270.051C680.022 270.286 679.856 270.517 679.697 270.752C678.217 272.753 676.608 274.674 674.878 276.504L674.176 277.264C673.729 277.753 673.276 278.236 672.823 278.719L672.146 279.461C672.103 279.501 672.062 279.543 672.025 279.588C671.77 279.869 671.501 280.163 671.246 280.445C671.22 280.464 671.198 280.487 671.182 280.514C670.901 280.819 670.627 281.123 670.353 281.434C670.084 281.745 669.81 282.049 669.542 282.366L669.504 282.418L668.667 283.407C667.814 284.434 667.019 285.499 666.287 286.599C666.051 286.962 665.821 287.336 665.604 287.698C665.387 288.06 665.253 288.308 665.093 288.607L664.902 288.986C664.736 289.309 664.589 289.631 664.455 289.959C664.385 290.114 664.321 290.269 664.27 290.425C664.266 290.442 664.266 290.459 664.27 290.476C664.219 290.626 664.161 290.775 664.11 290.931C664.002 291.259 663.9 291.586 663.817 291.914C663.775 292.046 663.743 292.181 663.721 292.317C663.683 292.467 663.657 292.622 663.625 292.771C663.593 292.921 663.555 293.186 663.53 293.398C662.298 303.482 675.114 314.963 675.408 325.19C675.428 325.766 675.403 326.343 675.331 326.916C674.757 331.592 671.157 335.975 667.18 340.33C662.074 345.869 656.426 351.362 655.692 357.339C654.415 368.003 668.808 380.221 667.5 390.885C666.191 401.55 649.169 410.644 647.86 421.308C647.86 421.573 647.803 421.843 647.784 422.113C646.692 438.495 629.095 449.505 611.83 444.282C608.902 443.356 605.865 442.736 602.78 442.436C586.185 441.061 568.263 454.032 551.642 452.933C535.022 451.835 519.398 436.643 502.752 435.821C486.106 434.998 468.739 448.544 452.08 447.992C435.422 447.44 419.197 432.784 402.526 432.507C385.854 432.231 369.049 446.347 352.378 446.347C335.706 446.347 318.901 432.231 302.236 432.507C285.571 432.784 269.346 447.463 252.688 447.992C236.029 448.521 218.656 434.998 202.01 435.821C185.364 436.643 169.746 451.829 153.119 452.933C136.492 454.038 118.583 441.061 101.982 442.436C98.8961 442.736 95.8593 443.356 92.9311 444.282C89.8501 445.222 86.6086 445.662 83.3572 445.582H82.8402C82.17 445.547 81.4998 445.496 80.836 445.427C80.4275 445.381 80.0254 445.329 79.6297 445.266L78.9915 445.156L78.6149 445.087L78.0788 444.984L77.1277 444.765C76.9554 444.731 76.7958 444.685 76.6363 444.639L75.7619 444.397L75.1938 444.219L74.6258 444.035C74.2556 443.908 73.8918 443.776 73.5279 443.632C72.245 443.129 71.0055 442.541 69.8197 441.872L69.3984 441.636C67.3562 440.422 65.4981 438.974 63.8711 437.328C63.6221 437.069 63.3732 436.799 63.1243 436.528L62.7478 436.097C62.6201 435.953 62.5052 435.809 62.3839 435.66C62.2627 435.51 62.1414 435.366 62.0265 435.222L61.701 434.797C61.35 434.331 61.0181 433.859 60.7053 433.376C60.6096 433.215 60.5011 433.06 60.4053 432.893C60.3096 432.726 60.2074 432.571 60.1181 432.41C60.0287 432.249 59.9266 432.082 59.8373 431.909C59.6458 431.576 59.4735 431.242 59.3139 430.903C59.0586 430.391 58.8288 429.873 58.6118 429.344C58.2505 428.448 57.9479 427.534 57.7055 426.606C57.6544 426.416 57.6033 426.238 57.565 426.031C57.4693 425.651 57.3927 425.266 57.3162 424.88C57.3162 424.702 57.2587 424.529 57.2268 424.345C57.2232 424.33 57.2232 424.314 57.2268 424.299C57.1757 424 57.131 423.689 57.0927 423.379C57.0927 423.281 57.0927 423.178 57.0927 423.08C57.0544 422.758 57.0289 422.441 57.0098 422.119C57.0098 422.033 57.0098 421.935 57.0098 421.849C57.0098 421.665 57.0098 421.486 56.9587 421.314C56.8475 420.475 56.6531 419.648 56.3779 418.84C56.2694 418.524 56.1481 418.208 56.0205 417.897C55.5893 416.891 55.0729 415.916 54.4759 414.981C54.2908 414.687 54.0993 414.406 53.9014 414.095C53.8838 414.078 53.8687 414.058 53.8568 414.037C53.6525 413.738 53.4419 413.462 53.2185 413.152C52.1845 411.748 51.0101 410.368 49.7719 408.981C49.6379 408.826 49.4974 408.676 49.357 408.521L48.9358 408.061C48.7698 407.869 48.5975 407.678 48.4188 407.486C46.9955 405.938 45.5402 404.397 44.168 402.844C44.0275 402.694 43.8935 402.533 43.7595 402.384C42.8085 401.302 41.9085 400.209 41.0979 399.105C40.9767 398.955 40.8618 398.794 40.7533 398.639L40.549 398.351L40.2746 397.96C40.2108 397.868 40.1597 397.782 40.1022 397.684C40.0448 397.586 39.8916 397.374 39.7959 397.212C39.1489 396.204 38.598 395.147 38.1492 394.055C38.0854 393.901 38.0279 393.746 37.9768 393.589C37.7372 392.942 37.5516 392.281 37.4215 391.61C37.4215 391.472 37.3705 391.322 37.3514 391.184C37.3514 391.184 37.3514 391.184 37.3514 391.144C37.3514 391.063 37.3514 390.983 37.3514 390.902C36.9684 387.791 37.9194 384.575 39.4385 381.262C40.1597 379.686 41.0086 378.092 41.9022 376.505C44.1169 372.565 46.5742 368.601 48.0103 364.736C48.0805 364.552 48.1443 364.368 48.2082 364.161C48.3677 363.683 48.5145 363.212 48.6422 362.734C48.6805 362.596 48.7251 362.458 48.7507 362.32C49.1621 360.777 49.3021 359.186 49.1656 357.603C49.1719 357.517 49.1719 357.431 49.1656 357.345C49.1209 357.011 49.0634 356.677 48.9996 356.349C48.9358 356.022 48.8401 355.694 48.7443 355.366C48.6933 355.199 48.6422 355.038 48.5848 354.871C48.4507 354.48 48.2975 354.083 48.1188 353.692C48.0167 353.445 47.8954 353.192 47.7742 352.938C47.4423 352.271 47.0657 351.61 46.6444 350.942C46.5614 350.804 46.4721 350.672 46.3827 350.54L46.07 350.08C45.9743 349.936 45.8721 349.792 45.77 349.648C43.2999 346.197 39.8852 342.797 36.8344 339.387L36.1961 338.644C34.1247 336.409 32.3649 333.954 30.956 331.334L30.7262 330.85C30.4392 330.234 30.1962 329.602 29.9986 328.958C29.9613 328.854 29.9315 328.749 29.9093 328.642C29.7981 328.262 29.7086 327.878 29.6412 327.491C29.6412 327.37 29.5965 327.244 29.5837 327.123V326.991C29.5837 326.991 29.5837 326.956 29.5837 326.945C28.9965 322.13 31.6198 316.988 34.5494 311.817C38.0726 305.604 42.0362 299.335 41.3979 293.531C41.3979 293.49 41.3979 293.444 41.3979 293.398C40.1214 282.74 23.0671 273.64 21.7587 262.975C21.7587 262.935 21.7587 262.895 21.7587 262.855C20.7566 253.749 31.0964 243.505 33.2473 234.094C33.6236 232.569 33.727 231 33.5537 229.446C33.1324 225.938 31.0007 222.613 28.3008 219.34C22.7671 212.639 14.8016 206.185 13.9144 199.029C13.9144 198.868 13.8825 198.707 13.8762 198.552C13.04 188.002 27.0052 175.981 25.7223 165.477C25.7223 165.356 25.6903 165.247 25.6712 165.126C24.0436 154.611 7.37865 145.604 6.08298 135.06C6.03192 134.634 6.00638 134.197 6 133.76V133.674C6 123.32 19.129 111.712 17.8844 101.508C17.8525 101.243 17.8142 100.973 17.7631 100.703C17.7121 100.432 17.6865 100.311 17.6483 100.127C17.6483 100.053 17.6163 99.9721 17.5972 99.8973C17.5206 99.5465 17.4504 99.2013 17.3929 98.8562C15.2803 86.9493 23.4309 76.2676 35.1238 72.4943C39.5336 71.0755 44.2719 70.6934 48.8911 71.3841C52.1732 71.8891 55.4887 72.1985 58.8161 72.3102C60.6746 72.3707 62.5356 72.3264 64.3881 72.1779C67.981 71.8442 71.5166 71.1239 74.9193 70.0323C89.0887 65.6607 102.792 56.3078 117.153 54.076C118.34 53.8919 119.527 53.7597 120.727 53.6791C122.561 53.5612 124.402 53.5612 126.235 53.6791L126.752 53.7136C141.694 54.795 157.115 62.6409 172.069 64.3033L172.407 64.3377C174.683 64.5862 176.978 64.6632 179.269 64.5678H179.46C185.549 64.2687 191.587 62.5546 197.561 60.3343C209.969 55.7326 222.262 48.9796 234.855 48.0305C235.416 47.9902 235.965 47.9557 236.527 47.9385C237.216 47.9385 237.906 47.9385 238.595 47.9385H238.735C256.53 48.3296 274.663 60.0179 292.458 60.7369H292.63C293.351 60.7714 294.072 60.7772 294.794 60.7369C314.076 60.4148 333.217 46 352.499 46H353.073C370.153 46.2473 387.112 57.5848 404.134 60.1962C406.131 60.5108 408.152 60.6896 410.178 60.7312H410.223C429.269 61.0188 448.736 47.5819 467.788 47.904H468.426C469.249 47.904 470.06 47.9845 470.877 48.0593C486.374 49.5203 501.443 59.5635 516.832 63.2391C519.661 63.9321 522.561 64.3657 525.487 64.5334C525.946 64.5334 526.406 64.5678 526.872 64.5736H528.148C546.173 64.3147 564.995 52.9716 582.962 53.5928C583.383 53.5928 583.804 53.6216 584.238 53.6503C585.694 53.7448 587.141 53.9196 588.572 54.1738C605.231 57.0499 621.028 69.2501 637.718 71.804C638.682 71.9536 639.633 72.0686 640.603 72.1491C641.573 72.2297 642.518 72.2757 643.463 72.2872C645.014 72.3259 646.567 72.2932 648.116 72.1894C650.793 72.0337 653.46 71.7553 656.107 71.3554C660.964 70.6273 665.95 71.0861 670.544 72.6841C679.761 75.9052 686.641 83.4635 687.777 92.4598C688.093 94.9314 687.968 97.4326 687.407 99.8685C687.286 100.444 687.183 100.967 687.113 101.496C686.929 103.278 687.091 105.074 687.592 106.806C690.081 116.095 700.019 126.121 698.915 135.048C697.523 145.759 680.495 154.853 679.186 165.512Z"/>
</mask>
<path d="M679.186 165.512C678.063 174.715 688.632 185.069 690.719 194.6C690.815 195.055 690.905 195.509 690.949 195.952C690.949 196.101 690.987 196.245 691 196.389C691.013 196.533 691.045 196.82 691.058 197.039C691.07 197.258 691.058 197.436 691.058 197.614C691.059 198.091 691.031 198.567 690.975 199.041C690.975 199.242 690.917 199.438 690.885 199.616C690.853 199.794 690.828 199.927 690.79 200.082C690.751 200.237 690.726 200.364 690.688 200.508C690.649 200.651 690.624 200.749 690.585 200.876C690.547 201.002 690.509 201.14 690.464 201.273C690.211 202.058 689.898 202.827 689.526 203.573C689.462 203.694 689.398 203.821 689.328 203.936C688.943 204.657 688.517 205.359 688.052 206.041L687.656 206.616C687.177 207.312 686.641 207.997 686.092 208.687L685.492 209.418C683.296 212.041 680.75 214.594 678.42 217.235C677.782 217.971 677.144 218.719 676.505 219.466C676.346 219.668 676.186 219.863 676.02 220.042C675.102 221.182 674.264 222.373 673.512 223.608C673.412 223.761 673.32 223.918 673.237 224.08C673.142 224.235 673.059 224.402 672.969 224.557C672.714 225.035 672.484 225.523 672.28 226.007C672.21 226.179 672.14 226.346 672.076 226.519C672.012 226.691 671.954 226.835 671.91 226.984C671.865 227.134 671.795 227.312 671.75 227.479C671.706 227.646 671.648 227.807 671.616 227.968C671.584 228.129 671.533 228.284 671.501 228.44C671.425 228.777 671.367 229.117 671.329 229.458C670.053 240.117 684.439 252.346 683.131 262.998C683.07 263.5 682.974 263.998 682.843 264.488C682.843 264.615 682.78 264.741 682.748 264.862C682.716 264.983 682.677 265.109 682.633 265.224C682.382 266.012 682.064 266.782 681.682 267.525C681.586 267.721 681.477 267.916 681.375 268.101C681.273 268.285 681.216 268.394 681.133 268.538C680.833 269.044 680.495 269.544 680.175 270.051C680.022 270.286 679.856 270.517 679.697 270.752C678.217 272.753 676.608 274.674 674.878 276.504L674.176 277.264C673.729 277.753 673.276 278.236 672.823 278.719L672.146 279.461C672.103 279.501 672.062 279.543 672.025 279.588C671.77 279.869 671.501 280.163 671.246 280.445C671.22 280.464 671.198 280.487 671.182 280.514C670.901 280.819 670.627 281.123 670.353 281.434C670.084 281.745 669.81 282.049 669.542 282.366L669.504 282.418L668.667 283.407C667.814 284.434 667.019 285.499 666.287 286.599C666.051 286.962 665.821 287.336 665.604 287.698C665.387 288.06 665.253 288.308 665.093 288.607L664.902 288.986C664.736 289.309 664.589 289.631 664.455 289.959C664.385 290.114 664.321 290.269 664.27 290.425C664.266 290.442 664.266 290.459 664.27 290.476C664.219 290.626 664.161 290.775 664.11 290.931C664.002 291.259 663.9 291.586 663.817 291.914C663.775 292.046 663.743 292.181 663.721 292.317C663.683 292.467 663.657 292.622 663.625 292.771C663.593 292.921 663.555 293.186 663.53 293.398C662.298 303.482 675.114 314.963 675.408 325.19C675.428 325.766 675.403 326.343 675.331 326.916C674.757 331.592 671.157 335.975 667.18 340.33C662.074 345.869 656.426 351.362 655.692 357.339C654.415 368.003 668.808 380.221 667.5 390.885C666.191 401.55 649.169 410.644 647.86 421.308C647.86 421.573 647.803 421.843 647.784 422.113C646.692 438.495 629.095 449.505 611.83 444.282C608.902 443.356 605.865 442.736 602.78 442.436C586.185 441.061 568.263 454.032 551.642 452.933C535.022 451.835 519.398 436.643 502.752 435.821C486.106 434.998 468.739 448.544 452.08 447.992C435.422 447.44 419.197 432.784 402.526 432.507C385.854 432.231 369.049 446.347 352.378 446.347C335.706 446.347 318.901 432.231 302.236 432.507C285.571 432.784 269.346 447.463 252.688 447.992C236.029 448.521 218.656 434.998 202.01 435.821C185.364 436.643 169.746 451.829 153.119 452.933C136.492 454.038 118.583 441.061 101.982 442.436C98.8961 442.736 95.8593 443.356 92.9311 444.282C89.8501 445.222 86.6086 445.662 83.3572 445.582H82.8402C82.17 445.547 81.4998 445.496 80.836 445.427C80.4275 445.381 80.0254 445.329 79.6297 445.266L78.9915 445.156L78.6149 445.087L78.0788 444.984L77.1277 444.765C76.9554 444.731 76.7958 444.685 76.6363 444.639L75.7619 444.397L75.1938 444.219L74.6258 444.035C74.2556 443.908 73.8918 443.776 73.5279 443.632C72.245 443.129 71.0055 442.541 69.8197 441.872L69.3984 441.636C67.3562 440.422 65.4981 438.974 63.8711 437.328C63.6221 437.069 63.3732 436.799 63.1243 436.528L62.7478 436.097C62.6201 435.953 62.5052 435.809 62.3839 435.66C62.2627 435.51 62.1414 435.366 62.0265 435.222L61.701 434.797C61.35 434.331 61.0181 433.859 60.7053 433.376C60.6096 433.215 60.5011 433.06 60.4053 432.893C60.3096 432.726 60.2074 432.571 60.1181 432.41C60.0287 432.249 59.9266 432.082 59.8373 431.909C59.6458 431.576 59.4735 431.242 59.3139 430.903C59.0586 430.391 58.8288 429.873 58.6118 429.344C58.2505 428.448 57.9479 427.534 57.7055 426.606C57.6544 426.416 57.6033 426.238 57.565 426.031C57.4693 425.651 57.3927 425.266 57.3162 424.88C57.3162 424.702 57.2587 424.529 57.2268 424.345C57.2232 424.33 57.2232 424.314 57.2268 424.299C57.1757 424 57.131 423.689 57.0927 423.379C57.0927 423.281 57.0927 423.178 57.0927 423.08C57.0544 422.758 57.0289 422.441 57.0098 422.119C57.0098 422.033 57.0098 421.935 57.0098 421.849C57.0098 421.665 57.0098 421.486 56.9587 421.314C56.8475 420.475 56.6531 419.648 56.3779 418.84C56.2694 418.524 56.1481 418.208 56.0205 417.897C55.5893 416.891 55.0729 415.916 54.4759 414.981C54.2908 414.687 54.0993 414.406 53.9014 414.095C53.8838 414.078 53.8687 414.058 53.8568 414.037C53.6525 413.738 53.4419 413.462 53.2185 413.152C52.1845 411.748 51.0101 410.368 49.7719 408.981C49.6379 408.826 49.4974 408.676 49.357 408.521L48.9358 408.061C48.7698 407.869 48.5975 407.678 48.4188 407.486C46.9955 405.938 45.5402 404.397 44.168 402.844C44.0275 402.694 43.8935 402.533 43.7595 402.384C42.8085 401.302 41.9085 400.209 41.0979 399.105C40.9767 398.955 40.8618 398.794 40.7533 398.639L40.549 398.351L40.2746 397.96C40.2108 397.868 40.1597 397.782 40.1022 397.684C40.0448 397.586 39.8916 397.374 39.7959 397.212C39.1489 396.204 38.598 395.147 38.1492 394.055C38.0854 393.901 38.0279 393.746 37.9768 393.589C37.7372 392.942 37.5516 392.281 37.4215 391.61C37.4215 391.472 37.3705 391.322 37.3514 391.184C37.3514 391.184 37.3514 391.184 37.3514 391.144C37.3514 391.063 37.3514 390.983 37.3514 390.902C36.9684 387.791 37.9194 384.575 39.4385 381.262C40.1597 379.686 41.0086 378.092 41.9022 376.505C44.1169 372.565 46.5742 368.601 48.0103 364.736C48.0805 364.552 48.1443 364.368 48.2082 364.161C48.3677 363.683 48.5145 363.212 48.6422 362.734C48.6805 362.596 48.7251 362.458 48.7507 362.32C49.1621 360.777 49.3021 359.186 49.1656 357.603C49.1719 357.517 49.1719 357.431 49.1656 357.345C49.1209 357.011 49.0634 356.677 48.9996 356.349C48.9358 356.022 48.8401 355.694 48.7443 355.366C48.6933 355.199 48.6422 355.038 48.5848 354.871C48.4507 354.48 48.2975 354.083 48.1188 353.692C48.0167 353.445 47.8954 353.192 47.7742 352.938C47.4423 352.271 47.0657 351.61 46.6444 350.942C46.5614 350.804 46.4721 350.672 46.3827 350.54L46.07 350.08C45.9743 349.936 45.8721 349.792 45.77 349.648C43.2999 346.197 39.8852 342.797 36.8344 339.387L36.1961 338.644C34.1247 336.409 32.3649 333.954 30.956 331.334L30.7262 330.85C30.4392 330.234 30.1962 329.602 29.9986 328.958C29.9613 328.854 29.9315 328.749 29.9093 328.642C29.7981 328.262 29.7086 327.878 29.6412 327.491C29.6412 327.37 29.5965 327.244 29.5837 327.123V326.991C29.5837 326.991 29.5837 326.956 29.5837 326.945C28.9965 322.13 31.6198 316.988 34.5494 311.817C38.0726 305.604 42.0362 299.335 41.3979 293.531C41.3979 293.49 41.3979 293.444 41.3979 293.398C40.1214 282.74 23.0671 273.64 21.7587 262.975C21.7587 262.935 21.7587 262.895 21.7587 262.855C20.7566 253.749 31.0964 243.505 33.2473 234.094C33.6236 232.569 33.727 231 33.5537 229.446C33.1324 225.938 31.0007 222.613 28.3008 219.34C22.7671 212.639 14.8016 206.185 13.9144 199.029C13.9144 198.868 13.8825 198.707 13.8762 198.552C13.04 188.002 27.0052 175.981 25.7223 165.477C25.7223 165.356 25.6903 165.247 25.6712 165.126C24.0436 154.611 7.37865 145.604 6.08298 135.06C6.03192 134.634 6.00638 134.197 6 133.76V133.674C6 123.32 19.129 111.712 17.8844 101.508C17.8525 101.243 17.8142 100.973 17.7631 100.703C17.7121 100.432 17.6865 100.311 17.6483 100.127C17.6483 100.053 17.6163 99.9721 17.5972 99.8973C17.5206 99.5465 17.4504 99.2013 17.3929 98.8562C15.2803 86.9493 23.4309 76.2676 35.1238 72.4943C39.5336 71.0755 44.2719 70.6934 48.8911 71.3841C52.1732 71.8891 55.4887 72.1985 58.8161 72.3102C60.6746 72.3707 62.5356 72.3264 64.3881 72.1779C67.981 71.8442 71.5166 71.1239 74.9193 70.0323C89.0887 65.6607 102.792 56.3078 117.153 54.076C118.34 53.8919 119.527 53.7597 120.727 53.6791C122.561 53.5612 124.402 53.5612 126.235 53.6791L126.752 53.7136C141.694 54.795 157.115 62.6409 172.069 64.3033L172.407 64.3377C174.683 64.5862 176.978 64.6632 179.269 64.5678H179.46C185.549 64.2687 191.587 62.5546 197.561 60.3343C209.969 55.7326 222.262 48.9796 234.855 48.0305C235.416 47.9902 235.965 47.9557 236.527 47.9385C237.216 47.9385 237.906 47.9385 238.595 47.9385H238.735C256.53 48.3296 274.663 60.0179 292.458 60.7369H292.63C293.351 60.7714 294.072 60.7772 294.794 60.7369C314.076 60.4148 333.217 46 352.499 46H353.073C370.153 46.2473 387.112 57.5848 404.134 60.1962C406.131 60.5108 408.152 60.6896 410.178 60.7312H410.223C429.269 61.0188 448.736 47.5819 467.788 47.904H468.426C469.249 47.904 470.06 47.9845 470.877 48.0593C486.374 49.5203 501.443 59.5635 516.832 63.2391C519.661 63.9321 522.561 64.3657 525.487 64.5334C525.946 64.5334 526.406 64.5678 526.872 64.5736H528.148C546.173 64.3147 564.995 52.9716 582.962 53.5928C583.383 53.5928 583.804 53.6216 584.238 53.6503C585.694 53.7448 587.141 53.9196 588.572 54.1738C605.231 57.0499 621.028 69.2501 637.718 71.804C638.682 71.9536 639.633 72.0686 640.603 72.1491C641.573 72.2297 642.518 72.2757 643.463 72.2872C645.014 72.3259 646.567 72.2932 648.116 72.1894C650.793 72.0337 653.46 71.7553 656.107 71.3554C660.964 70.6273 665.95 71.0861 670.544 72.6841C679.761 75.9052 686.641 83.4635 687.777 92.4598C688.093 94.9314 687.968 97.4326 687.407 99.8685C687.286 100.444 687.183 100.967 687.113 101.496C686.929 103.278 687.091 105.074 687.592 106.806C690.081 116.095 700.019 126.121 698.915 135.048C697.523 145.759 680.495 154.853 679.186 165.512Z" fill="#FDF2CC" stroke="#FD8403" stroke-width="8.93761" mask="url(#path-3-inside-1_2825_34004)"/>
<path opacity="0.2" d="M672.3 229.92C671.023 240.582 685.415 252.815 684.106 263.471C682.797 274.127 665.767 283.241 664.458 293.903C663.226 303.989 676.048 315.474 676.341 325.704C676.362 326.281 676.337 326.857 676.265 327.43C675.69 332.108 672.089 336.493 668.111 340.848C663.003 346.389 657.352 351.884 656.617 357.863C655.34 368.53 669.739 380.751 668.43 391.419C667.121 402.087 650.092 411.183 648.783 421.851C648.783 422.116 648.725 422.386 648.706 422.657C647.614 439.043 630.01 450.056 612.738 444.832C609.808 443.905 606.77 443.285 603.683 442.985C587.082 441.61 569.152 454.585 552.525 453.486C535.897 452.387 520.266 437.191 503.613 436.368C486.961 435.545 469.586 449.095 452.921 448.543C436.255 447.991 420.024 433.33 403.345 433.054C386.667 432.777 369.855 446.897 353.176 446.897C336.498 446.897 319.686 432.777 303.014 433.054C286.342 433.33 270.11 448.014 253.445 448.543C236.779 449.072 219.398 435.545 202.746 436.368C186.093 437.191 170.468 452.381 153.834 453.486C137.201 454.59 119.284 441.61 102.676 442.985C99.5889 443.285 96.5508 443.905 93.6213 444.832C76.3811 450.056 58.745 439.043 57.6531 422.657C57.6531 422.386 57.6084 422.116 57.5765 421.851C56.2994 411.183 39.238 402.081 37.929 391.419C37.5459 388.306 38.4973 385.09 40.017 381.775C40.7385 380.199 41.5877 378.605 42.4817 377.017C46.1277 370.509 50.476 363.939 49.7353 357.863C48.4583 347.195 31.3968 338.098 30.0878 327.43C29.5004 322.614 32.1248 317.471 35.0556 312.298C90.1414 329.899 162.806 376.321 313.549 370.026C482.944 362.955 469.229 271.791 691.679 195C692.021 196.467 692.111 197.973 691.947 199.465C690.644 210.15 673.609 219.252 672.3 229.92Z" fill="#E2CDA8"/>
<path d="M108.65 101.694L108.649 101.696L87.5932 139.753C84.1398 146 89.292 153.708 96.0142 152.564L199.594 134.928C203.973 134.181 206.912 129.825 206.141 125.159L108.65 101.694ZM108.65 101.694C109.67 99.8122 110.028 97.6425 109.669 95.5324C109.31 93.4223 108.254 91.494 106.67 90.0565L106.668 90.0549L74.249 61.0936C68.9362 56.3438 71.2401 47.3642 77.9754 46.2137C77.9755 46.2137 77.9756 46.2137 77.9756 46.2137L181.555 28.5776L181.555 28.5775C185.928 27.8307 190.146 30.9777 190.93 35.636L190.93 35.6365L206.141 125.157L108.65 101.694Z" fill="white" stroke="black" stroke-width="0.638401"/>
<path d="M205.786 127.222C205.375 128.642 204.577 129.92 203.482 130.912C202.386 131.903 201.037 132.57 199.584 132.837L100.171 149.764C93.4392 150.92 88.3221 143.051 91.7356 136.759L111.808 99.6148C112.749 97.8298 113.075 95.7842 112.737 93.7947C112.399 91.8051 111.416 89.9826 109.939 88.609L78.7131 60.1905C73.4365 55.3871 75.6505 46.2719 82.3947 45.1285L105.3 41.2257L181.808 28.2141C186.192 27.4795 190.396 30.6861 191.187 35.4066L206.073 122.981C206.314 124.397 206.215 125.851 205.786 127.222Z" fill="#D27938"/>
<path d="M590.353 101.694L590.355 101.696L611.41 139.753C611.41 139.753 611.41 139.753 611.41 139.753C614.863 146 609.705 153.708 602.983 152.564L499.403 134.928C499.403 134.928 499.403 134.928 499.403 134.928C495.03 134.181 492.092 129.824 492.907 125.16L492.907 125.159L508.111 35.6365L508.111 35.6364C508.901 30.9777 513.12 27.8307 517.492 28.5775L517.492 28.5776L621.028 46.2137C621.028 46.2137 621.028 46.2137 621.028 46.2137C627.757 47.3642 630.067 56.3439 624.748 61.0934L624.961 61.3315L624.748 61.0935L592.335 90.0549L592.334 90.0563C590.747 91.4925 589.689 93.4211 589.33 95.5319C588.971 97.6426 589.331 99.813 590.353 101.694Z" fill="white" stroke="black" stroke-width="0.638401"/>
<path d="M493.219 127.222C493.629 128.641 494.426 129.919 495.52 130.91C496.614 131.902 497.962 132.569 499.414 132.837L598.834 149.764C605.565 150.92 610.682 143.051 607.269 136.759L587.196 99.6148C586.255 97.8304 585.927 95.7853 586.264 93.7958C586.601 91.8064 587.583 89.9834 589.059 88.609L620.323 60.1905C625.6 55.3871 623.386 46.2719 616.635 45.1285L593.729 41.2257L517.19 28.2141C512.813 27.4795 508.608 30.6861 507.811 35.4066L492.931 122.981C492.69 124.397 492.789 125.851 493.219 127.222Z" fill="#D27938"/>
<path d="M121.337 37.8791L121.337 37.8796C124.876 59.4271 128.385 80.7659 131.865 101.896C133.34 110.816 140.225 116.847 147.148 115.686C281.114 93.1829 417.89 93.1829 551.856 115.686C558.779 116.847 565.664 110.816 567.139 101.896C567.139 101.896 567.139 101.896 567.139 101.896L567.454 101.948C570.925 80.822 574.434 59.4831 577.982 37.9313L121.337 37.8791ZM121.337 37.8791C119.812 28.6723 124.737 20.1489 132.223 18.8594L121.337 37.8791Z" fill="white" stroke="black" stroke-width="0.638401"/>
<path d="M548.039 105.714C416.471 85.2164 282.527 85.2164 150.959 105.714C143.941 106.807 137.069 101.134 135.601 92.939C132.199 73.6868 128.755 54.2386 125.272 34.5946C123.759 26.1055 128.647 18.1401 136.214 16.9329C277.515 -5.60263 421.489 -5.60263 562.79 16.9329C570.358 18.1401 575.245 26.1055 573.733 34.5946C570.253 54.2386 566.81 73.6868 563.403 92.939C561.935 101.134 555.07 106.781 548.039 105.714Z" fill="#E5A44F"/>
<g opacity="0.25">
<path opacity="0.25" d="M571.672 48.279C568.89 64.6569 566.125 80.9026 563.377 97.0164C561.91 105.595 555.045 111.516 548.013 110.373C416.519 88.9681 282.434 88.9681 150.94 110.373C143.922 111.516 137.044 105.595 135.576 97.0164C133.641 85.6337 131.701 74.1871 129.757 62.6766C193.683 27.2637 299.566 67.2374 422.976 74.8515C512.206 80.3576 552.977 64.7335 571.672 48.279Z" fill="white"/>
</g>
<defs>
<linearGradient id="paint0_linear_2825_34004" x1="1.09189e+06" y1="779360" x2="1.01192e+06" y2="409146" gradientUnits="userSpaceOnUse">
<stop stop-color="#F8A45B"/>
<stop offset="0.0001" stop-color="#CC7937"/>
<stop offset="0.79" stop-color="#A55318"/>
<stop offset="1" stop-color="#96440C"/>
</linearGradient>
</defs>
</svg>
