<svg width="48" height="48" viewBox="0 0 48 48" fill="none" xmlns="http://www.w3.org/2000/svg">
<path d="M20.756 33.409V14.9531H16.6315V27.0296C19.0616 28.1283 20.756 30.5679 20.756 33.409Z" fill="white"/>
<path d="M41.8504 33.409H41.855V14.9531H37.7311V27.1201C40.1349 28.207 41.8145 30.6072 41.8504 33.409Z" fill="white"/>
<path d="M16.6315 8.25H16.6095V14.9511H16.6315H20.756H37.731H41.855V8.25H37.731H20.756H16.6315Z" fill="white"/>
<path d="M37.7311 27.1165C36.8515 26.7189 35.8787 26.4922 34.8518 26.4922C30.9843 26.4922 27.8494 29.6271 27.8494 33.4953C27.8494 37.3633 30.9843 40.4982 34.8518 40.4982C38.719 40.4982 41.855 37.3633 41.855 33.4953C41.855 33.465 41.8504 33.4358 41.8504 33.4053C41.8145 30.6036 40.1349 28.2034 37.7311 27.1165Z" fill="white"/>
<path d="M13.753 26.4062C9.88579 26.4062 6.75 29.5412 6.75 33.4094C6.75 37.2773 9.88579 40.4122 13.753 40.4122C17.6202 40.4122 20.756 37.2773 20.756 33.4094C20.756 30.5684 19.0617 28.1288 16.6315 27.03C15.7527 26.6326 14.7799 26.4062 13.753 26.4062Z" fill="white"/>
</svg>
