<svg width="78" height="78" viewBox="0 0 78 78" fill="none" xmlns="http://www.w3.org/2000/svg">
<rect x="1.5" y="1.5" width="75" height="75" rx="37.5" stroke="#FF7F36" stroke-width="3"/>
<rect x="4" y="4" width="70" height="70" rx="35" stroke="#FF7F36" stroke-opacity="0.4" stroke-width="4"/>
<path d="M20.382 33.8588H39.4378V27.7134C39.4379 27.3745 39.5776 27.0432 39.8394 26.7615C40.1011 26.4797 40.4731 26.2601 40.9083 26.1304C41.3435 26.0008 41.8223 25.9668 42.2843 26.0329C42.7463 26.099 43.1707 26.2622 43.5038 26.5018L59.1915 37.7884C59.638 38.1098 59.8889 38.5456 59.8889 39C59.8889 39.4544 59.638 39.8902 59.1915 40.2116L43.5038 51.4982C43.1707 51.7378 42.7463 51.901 42.2843 51.9671C41.8223 52.0332 41.3435 51.9992 40.9083 51.8696C40.4731 51.7399 40.1011 51.5203 39.8394 51.2385C39.5776 50.9568 39.4379 50.6255 39.4378 50.2866V44.1412H20.382C19.7502 44.1412 19.1444 43.9606 18.6977 43.6393C18.251 43.3179 18 42.882 18 42.4275V35.5725C18 35.118 18.251 34.6821 18.6977 34.3607C19.1444 34.0394 19.7502 33.8588 20.382 33.8588Z" fill="#FF7F36"/>
</svg>
