<svg width="221" height="80" viewBox="0 0 221 80" fill="none" xmlns="http://www.w3.org/2000/svg">
<rect x="0.5" y="0.5" width="220" height="79" rx="39.5" fill="white"/>
<rect x="0.5" y="0.5" width="220" height="79" rx="39.5" stroke="black"/>
<rect x="2" y="2" width="217" height="76" rx="38" stroke="#FF7F36" stroke-width="2"/>
<rect x="4" y="4" width="213" height="72" rx="36" stroke="#FFCCAF" stroke-width="2"/>
<path d="M51.392 29.6C51.904 29.6 52.32 29.7707 52.64 30.112C52.96 30.4533 53.12 30.88 53.12 31.392V50.048C53.12 50.6027 52.928 51.072 52.544 51.456C52.1813 51.8187 51.7227 52 51.168 52C50.8907 52 50.6027 51.9573 50.304 51.872C50.0267 51.7653 49.8133 51.6267 49.664 51.456L37.088 35.488L37.92 34.976V50.208C37.92 50.72 37.7493 51.1467 37.408 51.488C37.088 51.8293 36.6613 52 36.128 52C35.616 52 35.2 51.8293 34.88 51.488C34.56 51.1467 34.4 50.72 34.4 50.208V31.552C34.4 30.9973 34.5813 30.5387 34.944 30.176C35.328 29.792 35.7973 29.6 36.352 29.6C36.6507 29.6 36.96 29.664 37.28 29.792C37.6 29.8987 37.8347 30.0693 37.984 30.304L50.176 45.856L49.632 46.24V31.392C49.632 30.88 49.792 30.4533 50.112 30.112C50.432 29.7707 50.8587 29.6 51.392 29.6ZM66.9553 52.32C65.1419 52.32 63.5633 51.9467 62.2193 51.2C60.8966 50.432 59.8726 49.3973 59.1473 48.096C58.4433 46.7947 58.0913 45.3227 58.0913 43.68C58.0913 41.76 58.4753 40.128 59.2433 38.784C60.0326 37.4187 61.0566 36.3733 62.3153 35.648C63.5739 34.9227 64.9073 34.56 66.3153 34.56C67.4033 34.56 68.4273 34.784 69.3873 35.232C70.3686 35.68 71.2326 36.2987 71.9793 37.088C72.7259 37.856 73.3126 38.752 73.7393 39.776C74.1873 40.8 74.4113 41.888 74.4113 43.04C74.3899 43.552 74.1873 43.968 73.8033 44.288C73.4193 44.608 72.9713 44.768 72.4593 44.768H60.2353L59.2753 41.568H71.0193L70.3153 42.208V41.344C70.2726 40.7253 70.0486 40.1707 69.6433 39.68C69.2593 39.1893 68.7686 38.8053 68.1713 38.528C67.5953 38.2293 66.9766 38.08 66.3153 38.08C65.6753 38.08 65.0779 38.1653 64.5233 38.336C63.9686 38.5067 63.4886 38.7947 63.0833 39.2C62.6779 39.6053 62.3579 40.1493 62.1233 40.832C61.8886 41.5147 61.7713 42.3787 61.7713 43.424C61.7713 44.576 62.0059 45.5573 62.4753 46.368C62.9659 47.1573 63.5846 47.7653 64.3313 48.192C65.0993 48.5973 65.9099 48.8 66.7633 48.8C67.5526 48.8 68.1819 48.736 68.6513 48.608C69.1206 48.48 69.4939 48.3307 69.7713 48.16C70.0699 47.968 70.3366 47.808 70.5713 47.68C70.9553 47.488 71.3179 47.392 71.6593 47.392C72.1286 47.392 72.5126 47.552 72.8113 47.872C73.1313 48.192 73.2913 48.5653 73.2913 48.992C73.2913 49.568 72.9926 50.0907 72.3953 50.56C71.8406 51.0293 71.0619 51.4453 70.0593 51.808C69.0566 52.1493 68.0219 52.32 66.9553 52.32ZM79.3983 34.88C80.0169 34.88 80.5396 35.1467 80.9663 35.68L91.6543 48.96C91.9316 49.3013 92.0703 49.6853 92.0703 50.112C92.0703 50.6453 91.8676 51.104 91.4623 51.488C91.0569 51.872 90.6089 52.064 90.1183 52.064C89.4996 52.064 88.9769 51.7867 88.5503 51.232L77.8623 37.952C77.5849 37.6107 77.4463 37.2267 77.4463 36.8C77.4463 36.2453 77.6383 35.7867 78.0223 35.424C78.4276 35.0613 78.8863 34.88 79.3983 34.88ZM79.4303 52.032C79.0036 52.032 78.5769 51.872 78.1503 51.552C77.7449 51.2107 77.5423 50.8053 77.5423 50.336C77.5423 49.9093 77.7023 49.504 78.0223 49.12L82.9183 43.136L84.8383 46.336L80.9663 51.232C80.5609 51.7653 80.0489 52.032 79.4303 52.032ZM90.0863 34.88C90.5983 34.88 91.0249 35.0613 91.3663 35.424C91.7289 35.7653 91.9103 36.16 91.9103 36.608C91.9103 36.8213 91.8783 37.0347 91.8143 37.248C91.7503 37.4613 91.6329 37.664 91.4623 37.856L86.6303 43.744L84.6143 40.96L88.5503 35.744C88.9769 35.168 89.4889 34.88 90.0863 34.88ZM97.7058 35.2H105.29C105.802 35.2 106.228 35.3707 106.57 35.712C106.911 36.0533 107.082 36.48 107.082 36.992C107.082 37.4827 106.911 37.8987 106.57 38.24C106.228 38.56 105.802 38.72 105.29 38.72H97.7058C97.1938 38.72 96.7671 38.5493 96.4258 38.208C96.0844 37.8667 95.9138 37.44 95.9138 36.928C95.9138 36.4373 96.0844 36.032 96.4258 35.712C96.7671 35.3707 97.1938 35.2 97.7058 35.2ZM101.13 31.2C101.684 31.2 102.132 31.392 102.474 31.776C102.836 32.1387 103.018 32.5973 103.018 33.152V47.392C103.018 47.6907 103.071 47.936 103.178 48.128C103.306 48.32 103.466 48.4587 103.658 48.544C103.871 48.6293 104.095 48.672 104.33 48.672C104.586 48.672 104.82 48.6293 105.034 48.544C105.247 48.4373 105.492 48.384 105.77 48.384C106.068 48.384 106.335 48.5227 106.57 48.8C106.826 49.0773 106.954 49.4613 106.954 49.952C106.954 50.5493 106.623 51.04 105.962 51.424C105.322 51.808 104.628 52 103.882 52C103.434 52 102.932 51.968 102.378 51.904C101.844 51.8187 101.332 51.6373 100.842 51.36C100.372 51.0613 99.9778 50.6133 99.6578 50.016C99.3378 49.4187 99.1778 48.5973 99.1778 47.552V33.152C99.1778 32.5973 99.3591 32.1387 99.7218 31.776C100.106 31.392 100.575 31.2 101.13 31.2Z" fill="#333F61"/>
<path d="M138.382 34.8588H157.438V28.7134C157.438 28.3745 157.578 28.0432 157.839 27.7615C158.101 27.4797 158.473 27.2601 158.908 27.1304C159.343 27.0008 159.822 26.9668 160.284 27.0329C160.746 27.099 161.171 27.2622 161.504 27.5018L177.191 38.7884C177.638 39.1098 177.889 39.5456 177.889 40C177.889 40.4544 177.638 40.8902 177.191 41.2116L161.504 52.4982C161.171 52.7378 160.746 52.901 160.284 52.9671C159.822 53.0332 159.343 52.9992 158.908 52.8696C158.473 52.7399 158.101 52.5203 157.839 52.2385C157.578 51.9568 157.438 51.6255 157.438 51.2866V45.1412H138.382C137.75 45.1412 137.144 44.9606 136.698 44.6393C136.251 44.3179 136 43.882 136 43.4275V36.5725C136 36.118 136.251 35.6821 136.698 35.3607C137.144 35.0394 137.75 34.8588 138.382 34.8588Z" fill="#FF7F36"/>
</svg>
