<svg width="177" height="80" viewBox="0 0 177 80" fill="none" xmlns="http://www.w3.org/2000/svg">
<path d="M158.662 5.64062H18.2946C8.20691 5.64062 0 13.8469 0 23.9346V61.7076C0 71.7953 8.20691 80.0022 18.2946 80.0022H158.662C168.749 80.0022 176.956 71.7953 176.956 61.7076V23.9346C176.956 13.8472 168.749 5.64062 158.662 5.64062Z" fill="#858585"/>
<path d="M158.662 0H18.2946C8.20691 0 0 8.2066 0 18.294V56.0669C0 66.1546 8.20691 74.3616 18.2946 74.3616H158.662C168.749 74.3616 176.956 66.1546 176.956 56.0669V18.294C176.956 8.20628 168.749 0 158.662 0Z" fill="#FEFEFE"/>
<path d="M158.662 3.58594H18.2944C10.1853 3.58594 3.58789 10.183 3.58789 18.2918V56.0648C3.58789 64.1743 10.1853 70.7714 18.2944 70.7714H158.662C166.771 70.7714 173.368 64.1743 173.368 56.0648V18.2918C173.368 10.183 166.771 3.58594 158.662 3.58594Z" fill="#833B1C"/>
<path d="M158.665 5.125H18.2977C11.0241 5.125 5.12402 11.0196 5.12402 18.2935V56.0662C5.12402 63.3398 11.0238 69.2347 18.2977 69.2347H158.665C165.933 69.2347 171.833 63.3401 171.833 56.0662V18.2932C171.833 11.0196 165.933 5.125 158.665 5.125Z" fill="#FDD236"/>
<path d="M171.833 44.1719V56.0692C171.833 63.3428 165.933 69.2377 158.665 69.2377H18.2977C11.0241 69.2377 5.12402 63.3431 5.12402 56.0692V45.9455C20.7325 48.8516 145.46 56.7046 171.833 44.1719Z" fill="#E4A305"/>
<path d="M171.833 18.2935V22.3943C171.833 15.1207 165.933 9.22571 158.665 9.22571H18.2977C11.0241 9.22571 5.12402 15.1203 5.12402 22.3943V18.2935C5.12402 11.0199 11.0238 5.125 18.2977 5.125H158.665C165.933 5.12532 171.833 11.0199 171.833 18.2935Z" fill="#FFE292"/>
<path d="M171.833 47.8672V56.0687C171.833 63.3423 165.933 69.2372 158.665 69.2372H18.2977C11.0241 69.2372 5.12402 63.3426 5.12402 56.0687V47.8672C5.12402 55.1408 11.0238 61.0357 18.2977 61.0357H158.665C165.933 61.0354 171.833 55.1408 171.833 47.8672Z" fill="#B27B00"/>
<path d="M159.969 30.4592C159.969 38.7556 130.753 45.4809 94.7146 45.4809C58.6758 45.4809 18.3838 38.7556 18.3838 30.4592C18.3838 22.1629 58.6758 15.4375 94.7146 15.4375C130.753 15.4375 159.969 22.1629 159.969 30.4592Z" fill="#FEDF61"/>
<path d="M44.3607 22.3288C45.291 22.3288 46.1938 22.7118 47.0693 23.4779C47.9722 24.2166 48.8751 25.3794 49.7779 26.9662C50.7082 28.5531 51.6931 30.5914 52.7328 33.0811C53.7998 35.5708 54.9626 38.553 56.2211 42.0277H56.3853C56.1938 40.9333 56.0159 39.7295 55.8518 38.4162C55.715 37.103 55.5782 35.776 55.4414 34.4354C55.3046 33.0948 55.1952 31.8362 55.1131 30.6598C55.0584 29.4833 55.031 28.471 55.031 27.6228C55.031 25.3246 55.3046 23.6831 55.8518 22.6981C56.4263 21.7132 57.2745 21.2207 58.3962 21.2207C59.1897 21.2207 59.8326 21.4122 60.3251 21.7952C60.8176 22.1783 61.228 22.7528 61.5563 23.5189C62.2129 25.0237 62.6643 27.0893 62.9106 29.7159C63.1842 32.315 63.321 35.2972 63.321 38.6625C63.321 41.3984 63.1978 43.6966 62.9516 45.5571C62.7327 47.3902 62.295 48.7718 61.6383 49.7021C61.0091 50.6323 60.0788 51.0974 58.8477 51.0974C58.0542 51.0974 57.2608 50.8649 56.4674 50.3997C55.6739 49.9346 54.8805 49.1959 54.0871 48.1836C53.321 47.1713 52.5139 45.858 51.6658 44.2438C50.845 42.6023 49.9695 40.6187 49.0392 38.2931C48.1364 35.9675 47.1514 33.2589 46.0844 30.1673H45.9202C46.1391 31.3711 46.3306 32.8075 46.4948 34.4764C46.6589 36.1454 46.7821 37.869 46.8641 39.6474C46.9736 41.3984 47.0283 42.999 47.0283 44.449C47.0283 47.1029 46.7 48.9907 46.0434 50.1125C45.4141 51.2342 44.4291 51.7951 43.0885 51.7951C41.6111 51.7951 40.5577 51.2205 39.9285 50.0714C39.3266 48.895 39.0256 47.0892 39.0256 44.6542C39.0256 43.3136 39.053 41.7815 39.1077 40.0578C39.1898 38.3068 39.2855 36.5147 39.395 34.6816C39.5318 32.8212 39.7096 31.0565 39.9285 29.3875C40.2294 26.9799 40.6809 25.2015 41.2828 24.0524C41.912 22.9033 42.938 22.3288 44.3607 22.3288ZM81.0247 22.616C83.3229 22.616 84.9234 22.917 85.8263 23.5189C86.7292 24.1208 87.1806 24.9963 87.1806 26.1454C87.1806 27.404 86.6471 28.3616 85.5801 29.0182C84.513 29.6475 82.8715 29.9621 80.6553 29.9621C79.643 29.9621 78.4939 29.9484 77.208 29.9211C75.9495 29.8663 74.6362 29.7843 73.2682 29.6748L73.7197 29.2234C73.9933 30.181 74.089 31.2206 74.0069 32.3424C73.9522 33.4641 73.7333 34.5312 73.3503 35.5435L72.9399 35.4203C73.706 35.1467 74.6088 34.9005 75.6485 34.6816C76.6882 34.4628 77.7552 34.2849 78.8496 34.1481C79.9713 33.984 80.9973 33.9019 81.9275 33.9019C83.788 33.9019 85.0876 34.1618 85.8263 34.6816C86.5924 35.1741 86.9754 35.776 86.9754 36.4874C86.9754 37.2808 86.5103 37.9648 85.5801 38.5393C84.6772 39.0865 83.1177 39.3601 80.9016 39.3601C79.5609 39.3601 78.1793 39.3328 76.7566 39.2781C75.3612 39.196 73.9933 39.0865 72.6526 38.9497L73.2272 38.7445C73.5008 39.4285 73.6923 40.2356 73.8017 41.1659C73.9385 42.0687 73.9796 42.9716 73.9249 43.8745C73.8701 44.7773 73.7197 45.5845 73.4734 46.2958L73.2272 46.0085C74.048 45.6529 74.9919 45.3519 76.0589 45.1057C77.1259 44.8594 78.2066 44.6816 79.301 44.5721C80.4228 44.4353 81.4761 44.3669 82.4611 44.3669C84.1574 44.3669 85.4159 44.5721 86.2367 44.9825C87.0848 45.3656 87.5089 46.0359 87.5089 46.9935C87.5089 47.9237 87.1259 48.7445 86.3598 49.4558C85.6211 50.1672 84.6498 50.7281 83.446 51.1385C82.2422 51.5489 80.9426 51.754 79.5473 51.754C76.7019 51.754 74.3763 51.371 72.5706 50.6049C70.7922 49.8389 69.4652 48.7034 68.5897 47.1987C68.2614 46.542 67.9605 45.8033 67.6869 44.9825C67.4133 44.1617 67.1944 43.2315 67.0302 42.1919C66.8934 41.1248 66.825 39.921 66.825 38.5804C66.825 36.0086 67.0713 33.8198 67.5637 32.0141C68.0562 30.181 68.7128 28.6899 69.5336 27.5408C70.7922 25.8445 72.4201 24.5996 74.4173 23.8062C76.4146 23.0127 78.617 22.616 81.0247 22.616ZM92.7463 50.9743C91.6245 50.9743 90.7353 50.6186 90.0787 49.9073C89.4221 49.1686 89.0937 48.2657 89.0937 47.1987C89.0937 46.1043 89.4494 44.9141 90.1608 43.6282C90.8721 42.315 91.9255 40.988 93.3208 39.6474C94.7161 38.2794 96.4261 36.9798 98.4507 35.7487V35.5845C95.8242 33.9429 93.8817 32.315 92.6231 30.7008C91.3646 29.0592 90.7353 27.4997 90.7353 26.0223C90.7353 25.2015 90.9132 24.4902 91.2688 23.8883C91.6519 23.259 92.1443 22.7802 92.7463 22.4519C93.3482 22.0962 93.9638 21.9184 94.593 21.9184C96.1799 21.9184 97.671 22.7939 99.0663 24.5449C100.462 26.2959 101.583 28.7993 102.432 32.0551H102.596C103.717 29.2918 104.88 27.062 106.084 25.3657C107.315 23.642 108.546 22.3835 109.778 21.59C111.009 20.7966 112.226 20.3999 113.43 20.3999C114.169 20.3999 114.812 20.5914 115.359 20.9745C115.934 21.3575 116.385 21.8773 116.713 22.534C117.042 23.1906 117.206 23.943 117.206 24.7911C117.206 26.4874 116.248 28.2384 114.333 30.0442C112.445 31.8499 109.75 33.5736 106.248 35.2151V35.3793C109.887 37.2398 112.555 39.1002 114.251 40.9607C115.947 42.8211 116.795 44.5721 116.795 46.2137C116.795 47.0892 116.576 47.8553 116.139 48.5119C115.701 49.1412 115.14 49.6337 114.456 49.9894C113.799 50.345 113.129 50.5229 112.445 50.5229C110.339 50.5229 108.396 49.5379 106.618 47.568C104.867 45.5708 103.403 42.7527 102.226 39.1139H102.062C101.105 41.9046 100.092 44.1754 99.0253 45.9264C97.9583 47.6775 96.8912 48.9634 95.8242 49.7842C94.7572 50.5776 93.7312 50.9743 92.7463 50.9743ZM130.856 21.3438C132.853 21.3438 134.536 21.4396 135.904 21.6311C137.272 21.8226 138.38 22.0825 139.228 22.4108C140.322 22.8486 141.061 23.3958 141.444 24.0524C141.854 24.709 142.06 25.4614 142.06 26.3096C142.06 27.486 141.69 28.4436 140.952 29.1823C140.213 29.8937 139.077 30.2494 137.545 30.2494C136.697 30.2494 135.781 30.1673 134.796 30.0031C133.838 29.839 132.853 29.5927 131.841 29.2644L132.169 28.4436C132.525 29.7022 132.839 31.0975 133.113 32.6297C133.414 34.1618 133.66 35.7213 133.852 37.3082C134.071 38.8677 134.221 40.3451 134.303 41.7404C134.413 43.1358 134.467 44.3122 134.467 45.2698C134.467 47.4039 134.125 49.0318 133.441 50.1535C132.757 51.2479 131.595 51.7951 129.953 51.7951C128.476 51.7951 127.381 51.3026 126.67 50.3177C125.986 49.3054 125.644 47.7869 125.644 45.7623C125.644 44.5858 125.712 43.2452 125.849 41.7404C126.013 40.2356 126.232 38.6761 126.506 37.0619C126.807 35.4477 127.135 33.9019 127.491 32.4245C127.846 30.947 128.216 29.6611 128.599 28.5668L129.091 29.2644C128.544 29.4559 127.901 29.6475 127.162 29.839C126.424 30.0031 125.685 30.1399 124.946 30.2494C124.207 30.3588 123.551 30.4135 122.976 30.4135C121.389 30.4135 120.268 30.1126 119.611 29.5107C118.954 28.9088 118.626 28.0743 118.626 27.0073C118.626 26.077 118.872 25.2562 119.365 24.5449C119.885 23.8335 120.664 23.2316 121.704 22.7392C122.744 22.274 124.002 21.932 125.48 21.7132C126.984 21.4669 128.777 21.3438 130.856 21.3438Z" fill="#833B1C"/>
</svg>
