<svg width="88" height="89" viewBox="0 0 88 89" fill="none" xmlns="http://www.w3.org/2000/svg">
<path d="M11.9647 50.1486H12.0189C12.0972 50.1475 12.1748 50.1616 12.2468 50.1897C12.3188 50.2179 12.3837 50.2596 12.4373 50.3121L43.23 80.7756C43.3262 80.8706 43.3809 80.995 43.3835 81.1248C43.3837 81.9646 43.3344 82.8038 43.236 83.6387C42.9892 85.6011 42.4625 86.5573 41.5865 86.6405H41.5173C41.4409 86.6433 41.3646 86.6317 41.2932 86.6064C41.2217 86.5812 41.1566 86.5427 41.1019 86.4936C41.0466 86.445 41.0029 86.3865 40.9734 86.3216C40.9438 86.2567 40.9292 86.1869 40.9304 86.1166C40.9304 85.1188 40.4939 83.9325 40.0273 82.9957C40.0736 84.6377 40.3778 86.265 40.9304 87.8267C40.9677 87.938 40.9636 88.0575 40.9189 88.1664C40.8742 88.2754 40.7914 88.3675 40.6835 88.4282C40.6115 88.4669 40.5316 88.4915 40.4487 88.5002C40.3659 88.5081 40.2822 88.499 40.2036 88.4736C40.1251 88.4482 40.0536 88.4071 39.9942 88.3534C38.7059 87.1782 38.1671 85.7036 37.6433 84.279C37.4507 83.7524 37.2551 83.2174 37.0203 82.688C36.7756 83.5712 36.3683 84.4093 35.8163 85.1659C35.7699 85.2274 35.7094 85.2789 35.6393 85.3167C35.5691 85.3545 35.4909 85.3777 35.4099 85.3849C35.3278 85.3933 35.2447 85.3849 35.1665 85.3603C35.0884 85.3357 35.0172 85.2954 34.9579 85.2424C34.8986 85.1894 34.8528 85.125 34.8238 85.0538C34.7947 84.9826 34.7831 84.9064 34.7898 84.8305C34.776 84.353 34.692 83.8793 34.5401 83.4225C34.5294 83.8953 34.4911 84.3671 34.4256 84.8361C34.4088 84.9513 34.3503 85.0579 34.2597 85.1389C34.1691 85.2198 34.0516 85.2703 33.926 85.2823H33.8838C33.7501 85.2858 33.6194 85.2453 33.5151 85.1681C33.4109 85.0909 33.3399 84.9821 33.3149 84.8611C32.9658 83.1814 31.7196 81.79 30.9069 81.0445C30.5013 82.2147 29.9348 83.3325 29.2213 84.3705C29.1749 84.4359 29.1133 84.4909 29.0409 84.5317C28.9686 84.5724 28.8872 84.5978 28.8029 84.6061C28.6978 84.6152 28.5919 84.5971 28.4974 84.5538C28.4029 84.5104 28.3234 84.4436 28.268 84.3608C28.2125 84.2781 28.1833 84.1827 28.1837 84.0854C28.1841 83.9882 28.214 83.893 28.2701 83.8106C28.3002 83.7635 29.0045 82.6409 27.9239 80.9391C27.653 82.142 28.1106 84.376 28.6373 85.8838C28.6798 86.0079 28.6703 86.1421 28.6107 86.2601C28.5511 86.3781 28.4457 86.4712 28.3152 86.5213C28.2642 86.5409 28.2106 86.5539 28.1557 86.5601C28.0435 86.5699 27.9307 86.5488 27.8315 86.4994C27.7324 86.4501 27.6514 86.3747 27.5989 86.2829C27.5567 86.2108 26.5815 84.4869 24.3782 79.7639C23.8273 80.7063 24.351 82.1947 24.3601 82.2113C24.4064 82.3404 24.3962 82.481 24.3315 82.6032C24.2668 82.7254 24.1528 82.8195 24.0139 82.8654C23.9711 82.8796 23.9267 82.8889 23.8815 82.8931C23.7583 82.905 23.6343 82.8791 23.5287 82.8195C23.4231 82.7598 23.3419 82.6698 23.2975 82.5633C23.2674 82.494 22.6955 81.0999 22.6353 78.4252C21.5547 79.2983 19.9262 80.116 18.5236 80.249C17.8631 80.3419 17.1888 80.2013 16.6363 79.8554C16.552 79.798 16.4867 79.7202 16.4476 79.6306C16.4086 79.541 16.3973 79.4431 16.4151 79.348C16.4329 79.2529 16.479 79.1641 16.5484 79.0917C16.6177 79.0193 16.7076 78.9661 16.8079 78.938C17.8614 78.6469 18.5688 78.1259 18.9661 77.347C19.5892 76.1247 19.2942 74.5504 19.0052 73.5886C18.358 74.4202 17.4159 75.806 17.2744 77.1918C17.2636 77.3012 17.2152 77.4046 17.1361 77.4869C17.0571 77.5691 16.9516 77.626 16.835 77.6492H16.7718C16.664 77.6588 16.5555 77.6399 16.459 77.5948C16.3625 77.5496 16.282 77.48 16.2269 77.3942C15.3239 75.9529 15.5918 73.6025 15.941 72.0171C14.6166 73.2117 13.0393 74.9773 13.0183 76.4241C13.0171 76.5326 12.979 76.638 12.9094 76.7255C12.8397 76.813 12.742 76.8782 12.63 76.9119C12.5918 76.9233 12.5524 76.9307 12.5125 76.934C12.416 76.9436 12.3184 76.93 12.2293 76.8945C12.1402 76.8591 12.0625 76.803 12.0038 76.7317C9.43628 73.5914 11.0256 70.1407 12.3048 68.2559C11.6431 68.4369 10.9652 68.5631 10.2791 68.6329C8.77408 68.777 7.53092 68.547 6.61888 67.9427C6.52499 67.8819 6.45355 67.7961 6.41414 67.6968C6.37473 67.5975 6.36923 67.4895 6.39838 67.3873C6.42753 67.285 6.48995 67.1934 6.57725 67.1248C6.66454 67.0561 6.77254 67.0137 6.88678 67.0031C7.94932 66.9034 9.18042 65.8751 10.2309 64.7276C9.45385 65.1791 8.61596 65.535 7.7386 65.7864L7.63929 65.803C7.52247 65.8141 7.40476 65.7919 7.30216 65.7392C7.17012 65.6677 7.07391 65.5512 7.03427 65.415C6.97751 65.186 6.97751 64.9482 7.03427 64.7193C6.48118 65.5569 5.99913 66.4326 5.59244 67.3385C5.55359 67.4249 5.48994 67.5 5.40828 67.5557C5.32663 67.6113 5.23005 67.6455 5.12892 67.6545H5.08377C4.97438 67.6565 4.86671 67.6294 4.77376 67.5763C4.6808 67.5231 4.60655 67.4463 4.56002 67.3552C2.96771 64.2038 5.33962 59.8134 6.70015 57.718C5.83805 57.926 4.9609 58.077 4.07541 58.1698C2.26938 58.3389 0.978076 58.1144 0.198475 57.4991C0.10361 57.4245 0.03848 57.323 0.0133975 57.2106C-0.011685 57.0981 0.00472708 56.9811 0.0600252 56.8782C0.101843 56.7987 0.164918 56.7302 0.243376 56.6793C0.321834 56.6284 0.413093 56.5967 0.508518 56.5872C0.564354 56.579 0.621226 56.579 0.677061 56.5872C0.991686 56.6412 1.31333 56.6514 1.63126 56.6177C5.65267 56.2352 11.5072 50.3537 11.5644 50.2955C11.617 50.2475 11.6795 50.2097 11.7483 50.1845C11.8171 50.1593 11.8907 50.147 11.9647 50.1486Z" fill="url(#paint0_linear_2825_33129)"/>
<path d="M10.3419 57.2316C10.3419 57.2316 5.93822 62.9136 7.72919 66.4585C10.0861 61.2312 13.8636 59.4434 13.8636 59.4434C13.8636 59.4434 9.59542 63.4651 9.9506 64.801C12.3436 64.1608 14.6764 62.0294 14.6764 62.0294C14.6764 62.0294 11.8379 66.5694 9.37869 66.805C11.558 68.2407 15.5613 66.5029 15.5613 66.5029C15.5613 66.5029 11.1666 70.9376 14.3121 74.768C14.3482 72.3345 18.3215 69.4824 18.3215 69.4824C18.3215 69.4824 16.9189 73.5207 18.1229 75.4055C18.3366 73.3129 20.3593 71.248 20.3593 71.248C20.3593 71.248 22.659 76.237 18.3546 77.4427C19.9319 78.507 23.58 76.2509 23.9412 75.2253C23.8028 78.4377 24.4891 80.0868 24.4891 80.0868C24.4891 80.0868 23.6553 77.8085 25.1452 76.9161C27.3486 81.6723 28.3148 83.3685 28.3148 83.3685C28.3148 83.3685 26.8249 79.078 28.0861 77.8861C29.9613 80.0675 28.8928 81.6196 28.8928 81.6196C28.8928 81.6196 30.3135 79.6046 30.5152 78.0164C30.5152 78.0164 32.9563 79.7847 33.465 82.2377C33.465 82.2377 33.9075 79.2664 32.9503 77.6422C34.9099 80.5996 34.7954 82.3264 34.7954 82.3264C34.7954 82.3264 36.5323 80.0314 35.6564 78.3573C37.4624 80.6412 37.3088 83.302 39.2985 85.1147C38.0252 81.3757 38.6091 78.9616 38.6091 78.9616C38.6091 78.9616 40.3068 81.5143 40.2827 83.4461C41.5139 83.4018 41.4687 78.9754 41.4687 78.9754L13.9148 51.7188C13.9148 51.7188 7.50643 58.2045 3.68066 57.4949C5.39338 58.8198 10.3419 57.2316 10.3419 57.2316Z" fill="#318063"/>
<path d="M41.0891 75.0675V75.0176C41.1056 74.9472 41.1379 74.8807 41.184 74.8224C41.2302 74.7642 41.2891 74.7155 41.3569 74.6795L80.4092 53.734C80.5312 53.6693 80.6749 53.6485 80.8126 53.6757C81.7026 53.8599 82.5809 54.0894 83.4434 54.3631C85.4691 55.0173 86.363 55.6991 86.2607 56.5056C86.2607 56.5278 86.2607 56.5472 86.2607 56.5694C86.2469 56.6388 86.2179 56.7048 86.1754 56.7635C86.1329 56.8222 86.0778 56.8722 86.0136 56.9106C85.9493 56.949 85.8772 56.9749 85.8017 56.9868C85.7262 56.9987 85.6488 56.9962 85.5744 56.9796C84.5209 56.7495 83.1664 56.8909 82.0738 57.0905C83.8219 57.4182 85.6123 57.5116 87.3895 57.3676C87.5151 57.3579 87.6407 57.3873 87.746 57.4511C87.8514 57.515 87.9304 57.6095 87.9705 57.7196C87.9978 57.7926 88.006 57.8705 87.9945 57.9469C87.9853 58.023 87.9575 58.0962 87.9132 58.161C87.8689 58.2258 87.8092 58.2805 87.7387 58.3211C86.2126 59.2219 84.53 59.3799 82.9045 59.5351C82.3025 59.5933 81.7005 59.6515 81.0835 59.7457C81.9646 60.1585 82.7628 60.7068 83.4434 61.3671C83.527 61.4506 83.5786 61.5571 83.5902 61.6702C83.6017 61.7833 83.5725 61.8968 83.5072 61.9932C83.4419 62.0895 83.344 62.1635 83.2285 62.2036C83.1131 62.2437 82.9866 62.2478 82.8684 62.2153C82.3592 62.123 81.8388 62.0941 81.3213 62.1293C82.149 62.3234 82.7359 62.523 82.7931 62.5424C82.913 62.583 83.0141 62.6601 83.0798 62.7609C83.1455 62.8617 83.1719 62.9802 83.1544 63.0967C83.1561 63.1096 83.1561 63.1226 83.1544 63.1355C83.1287 63.2565 83.057 63.3651 82.9522 63.4418C82.8473 63.5185 82.7163 63.5583 82.5824 63.554C80.7253 63.4958 78.9704 64.3079 78.0132 64.8623C79.159 65.4849 80.2139 66.2393 81.1527 67.1073C81.2114 67.1627 81.2556 67.2297 81.2822 67.3031C81.3088 67.3765 81.317 67.4546 81.3062 67.5314C81.2923 67.6482 81.2349 67.7569 81.1436 67.839C81.0916 67.8873 81.0297 67.9256 80.9615 67.9517C80.8933 67.9779 80.8202 67.9913 80.7464 67.9913C80.6725 67.9913 80.5993 67.9779 80.5311 67.9517C80.4629 67.9256 80.4011 67.8873 80.349 67.839C80.3039 67.8002 79.2714 66.9244 77.2306 67.5175C78.4346 68.0247 80.9119 68.1051 82.6246 67.9665C82.765 67.9563 82.9045 67.9947 83.0159 68.0741C83.1272 68.1536 83.2024 68.2684 83.2266 68.3961C83.234 68.4458 83.234 68.4961 83.2266 68.5458C83.2131 68.649 83.1662 68.7462 83.0922 68.8247C83.0181 68.9032 82.9203 68.9596 82.8112 68.9865C82.7239 69.0087 80.6831 69.5048 75.1958 70.4444C76.0717 71.1456 77.7634 70.9987 77.7845 70.9987C77.9291 70.9885 78.0724 71.03 78.1845 71.1147C78.2967 71.1994 78.3691 71.3207 78.3865 71.4533C78.3925 71.4947 78.3925 71.5366 78.3865 71.578C78.3723 71.6915 78.3177 71.7974 78.231 71.8792C78.1444 71.961 78.0307 72.014 77.9078 72.0298C77.8296 72.0298 76.2282 72.2404 73.3928 71.7138C74.0761 72.8752 74.5968 74.5299 74.4162 75.8076C74.3711 76.4217 74.0728 76.9968 73.5825 77.4151C73.5032 77.4779 73.4065 77.5192 73.3033 77.5345C73.2 77.5498 73.0942 77.5384 72.9976 77.5017C72.9009 77.4649 72.8172 77.4042 72.7557 77.3263C72.6943 77.2484 72.6574 77.1564 72.6493 77.0604C72.5741 76.0487 72.1767 75.3004 71.4453 74.771C70.2894 73.9395 68.5557 73.8619 67.4751 73.9062C68.2005 74.6712 69.4767 75.8215 70.9125 76.2566C71.0255 76.2906 71.124 76.3566 71.1938 76.4452C71.2635 76.5338 71.301 76.6405 71.3008 76.7499C71.3024 76.7702 71.3024 76.7906 71.3008 76.8109C71.2887 76.91 71.2456 77.0036 71.1766 77.0804C71.1077 77.1571 71.0159 77.2138 70.9125 77.2433C69.1848 77.7533 66.7587 76.9661 65.1543 76.3148C66.1296 77.7699 67.6496 79.5743 69.1787 79.918C69.2932 79.9425 69.3965 79.9997 69.4737 80.0813C69.551 80.1628 69.5984 80.2648 69.6092 80.3725C69.6137 80.4094 69.6137 80.4466 69.6092 80.4834C69.5977 80.5724 69.5615 80.6572 69.504 80.7295C69.4465 80.8019 69.3697 80.8593 69.2811 80.8964C65.3891 82.5095 62.0841 80.3227 60.3714 78.7567C60.4159 79.3914 60.3998 80.0286 60.3232 80.6608C60.1426 82.0466 59.6249 83.1082 58.7851 83.7983C58.6988 83.8678 58.5918 83.9119 58.478 83.9247C58.3642 83.9376 58.2489 83.9187 58.147 83.8704C58.0449 83.8216 57.9615 83.7453 57.9077 83.6517C57.8539 83.5581 57.8324 83.4517 57.846 83.3465C57.9724 82.3709 57.1536 81.0405 56.1693 79.8431C56.4779 80.6405 56.6712 81.4717 56.7442 82.3155C56.7442 82.346 56.7442 82.3764 56.7442 82.4069C56.7289 82.5315 56.6649 82.6466 56.564 82.7307C56.4632 82.8149 56.3325 82.8624 56.1965 82.8643C55.9413 82.8618 55.6902 82.8059 55.462 82.7008C56.2294 83.3805 57.0515 84.0059 57.9212 84.5716C58.0042 84.6255 58.0698 84.699 58.1112 84.7843C58.1525 84.8697 58.168 84.9638 58.156 85.0567V85.0982C58.1341 85.1971 58.0814 85.288 58.0045 85.3598C57.9275 85.4316 57.8295 85.4813 57.7225 85.5029C54.0322 86.2374 49.8964 83.1387 47.9881 81.4563C48.0168 82.276 47.9826 83.0966 47.8857 83.912C47.669 85.575 47.1453 86.6836 46.3205 87.238C46.2324 87.3009 46.126 87.3383 46.0147 87.3454C45.9035 87.3525 45.7924 87.3291 45.6956 87.278C45.5989 87.2269 45.5208 87.1505 45.4713 87.0585C45.4218 86.9665 45.4031 86.863 45.4175 86.7612C45.4237 86.7085 45.4389 86.6571 45.4626 86.6088C45.5908 86.3393 45.673 86.0532 45.7064 85.7607C46.188 82.0632 41.2486 75.5055 41.1914 75.4417C41.1062 75.3338 41.0696 75.1997 41.0891 75.0675Z" fill="url(#paint1_linear_2825_33129)"/>
<path d="M48.2412 78.0858C48.2412 78.0858 53.286 83.2937 57.4399 82.4678C52.4221 79.1972 51.3596 75.4111 51.3596 75.4111C51.3596 75.4111 54.6706 80.123 56.1757 80.098C56.0251 77.8058 54.2763 75.2393 54.2763 75.2393C54.2763 75.2393 58.4603 78.7898 58.1683 81.0598C60.17 79.4189 59.2098 75.4416 59.2098 75.4416C59.2098 75.4416 62.9242 80.3641 67.6921 78.3851C65.1215 77.8308 62.9754 73.6206 62.9754 73.6206C62.9754 73.6206 66.9426 75.7687 69.2061 75.1034C67.0389 74.4493 65.3112 72.1821 65.3112 72.1821C65.3112 72.1821 71.1145 71.2176 71.4305 75.3501C72.9054 74.1666 71.3191 70.3916 70.3017 69.8373C73.673 70.6688 75.5723 70.4193 75.5723 70.4193C75.5723 70.4193 72.9747 70.666 72.3576 69.1305C77.8811 68.1992 79.8827 67.7058 79.8827 67.7058C79.8827 67.7058 75.0095 68.0994 74.0252 66.7025C76.7342 65.4996 78.158 66.7995 78.158 66.7995C78.158 66.7995 76.3339 65.0811 74.6934 64.5489C74.6934 64.5489 77.1015 62.7445 79.8105 62.8305C79.8105 62.8305 76.7583 61.7772 74.8289 62.2761C78.3927 61.1675 80.1958 61.6525 80.1958 61.6525C80.1958 61.6525 78.1519 59.5876 76.1834 59.9895C79.0038 58.8586 81.785 59.5959 84.1419 58.2073C79.9008 58.5288 77.4747 57.4728 77.4747 57.4728C77.4747 57.4728 80.554 56.5083 82.5918 56.9545C82.8145 55.8459 78.1158 54.9062 78.1158 54.9062L43.1572 73.6539C43.1572 73.6539 48.6114 80.8408 47.0191 84.1058C48.8312 82.8808 48.2412 78.0858 48.2412 78.0858Z" fill="#318063"/>
<path d="M11.9637 38.852H12.0179C12.0963 38.8525 12.174 38.838 12.2461 38.8094C12.3181 38.7807 12.3828 38.7386 12.4362 38.6857L43.229 8.22497C43.3251 8.12997 43.3798 8.00563 43.3825 7.87577C43.3826 7.03596 43.3334 6.19674 43.235 5.36184C42.9882 3.39672 42.4614 2.44328 41.5855 2.36013H41.5163C41.4397 2.3575 41.3633 2.36922 41.2918 2.39457C41.2203 2.41993 41.1551 2.45837 41.1003 2.50761C41.0454 2.55685 41.0019 2.61587 40.9725 2.68104C40.9431 2.74621 40.9285 2.8162 40.9293 2.88675C40.9293 3.88456 40.4929 5.07083 40.0263 6.00489C40.0728 4.36288 40.3769 2.73567 40.9293 1.17384C40.9664 1.06299 40.9623 0.943912 40.9176 0.835469C40.8729 0.727026 40.7901 0.635409 40.6825 0.575151C40.6117 0.534005 40.5311 0.509275 40.4477 0.503084C40.3648 0.494678 40.281 0.503508 40.2023 0.528933C40.1236 0.554358 40.0522 0.595737 39.9932 0.649991C38.7049 1.82241 38.1661 3.29693 37.6423 4.72434C37.4497 5.25096 37.2541 5.78592 37.0193 6.31254C36.7738 5.42957 36.3666 4.59159 35.8153 3.83464C35.7679 3.77405 35.7072 3.72328 35.6372 3.68557C35.5672 3.64786 35.4895 3.62403 35.4089 3.61567C35.3264 3.60719 35.2428 3.61671 35.1651 3.64341C35.049 3.68025 34.9492 3.75121 34.8812 3.84537C34.8133 3.93953 34.7808 4.05166 34.7888 4.16449C34.7753 4.64209 34.6913 5.11576 34.539 5.57249C34.5286 5.10067 34.4904 4.62973 34.4246 4.16172C34.4077 4.04651 34.3493 3.93987 34.2587 3.85894C34.168 3.778 34.0505 3.72749 33.925 3.71548H33.8828C33.749 3.712 33.6183 3.75247 33.5141 3.82967C33.4098 3.90687 33.3389 4.01573 33.3139 4.13675C32.9647 5.81638 31.7186 7.20499 30.9059 7.95058C30.4996 6.78051 29.9332 5.66285 29.2202 4.62456C29.1738 4.55943 29.1121 4.50472 29.0397 4.46443C28.9673 4.42414 28.8861 4.39929 28.8019 4.39175C28.6755 4.38058 28.5486 4.40785 28.4407 4.46937C28.3148 4.54385 28.2261 4.66118 28.194 4.7957C28.1618 4.93022 28.1888 5.07098 28.2691 5.18722C28.2992 5.23434 29.0035 6.35409 27.9229 8.0559C27.652 6.85299 28.1095 4.62181 28.6363 3.11401C28.6789 2.98953 28.6695 2.85489 28.6099 2.73646C28.5503 2.61804 28.4449 2.52434 28.3142 2.47374C28.2631 2.45508 28.2094 2.44295 28.1547 2.43771C28.0424 2.42755 27.9294 2.44851 27.8302 2.4979C27.731 2.54728 27.6501 2.62284 27.5978 2.71488C27.5557 2.78971 26.5805 4.5137 24.3771 9.23386C23.8263 8.29149 24.35 6.80589 24.359 6.78648C24.4093 6.65674 24.4016 6.5139 24.3375 6.38941C24.2734 6.26492 24.1583 6.16897 24.0174 6.12266C23.8765 6.07635 23.7214 6.08349 23.5862 6.14249C23.451 6.20149 23.3468 6.30751 23.2965 6.43725C23.2664 6.50377 22.6945 7.90071 22.6343 10.5726C21.5537 9.7023 19.9252 8.88463 18.5225 8.75159C17.862 8.65864 17.1878 8.79926 16.6352 9.14518C16.5507 9.2024 16.4851 9.28014 16.4458 9.36971C16.4064 9.45928 16.3949 9.55714 16.4125 9.65239C16.4302 9.74747 16.4766 9.83608 16.5463 9.9081C16.616 9.98013 16.7063 10.0327 16.8068 10.0598C17.8603 10.3536 18.5677 10.8747 18.9651 11.6535C19.5882 12.8758 19.2931 14.4502 19.0042 15.4119C18.357 14.5804 17.4149 13.1946 17.2734 11.8088C17.2631 11.6992 17.2148 11.5956 17.1357 11.5133C17.0566 11.4309 16.9508 11.3742 16.8339 11.3514H16.7707C16.663 11.3418 16.5545 11.3607 16.458 11.4058C16.3615 11.451 16.281 11.5206 16.2259 11.6064C15.3229 13.0449 15.5908 15.3953 15.94 16.9835C14.6156 15.7889 13.0383 14.0233 13.0172 12.5737C13.0159 12.4656 12.9777 12.3606 12.908 12.2735C12.8383 12.1865 12.7407 12.1218 12.6289 12.0887C12.5909 12.0765 12.5515 12.0681 12.5115 12.0638C12.4148 12.0553 12.3173 12.0698 12.2283 12.1057C12.1393 12.1415 12.0617 12.1977 12.0028 12.2689C9.43525 15.4064 11.0245 18.8571 12.3038 20.7419C11.6421 20.5609 10.9642 20.4347 10.2781 20.3649C8.77305 20.2208 7.52989 20.4536 6.61785 21.0551C6.52396 21.1159 6.45252 21.2017 6.41311 21.301C6.3737 21.4003 6.3682 21.5083 6.39735 21.6106C6.4265 21.7128 6.48892 21.8044 6.57622 21.873C6.66351 21.9417 6.77151 21.9841 6.88574 21.9947C7.94829 22.0972 9.17939 23.1255 10.2299 24.273C9.45282 23.8215 8.61493 23.4656 7.73757 23.2142C7.70552 23.2038 7.67214 23.1973 7.63825 23.1948C7.52104 23.1832 7.40288 23.2065 7.30113 23.2613C7.23511 23.296 7.17737 23.3427 7.13134 23.3984C7.08531 23.4541 7.05194 23.5178 7.03323 23.5856C6.97648 23.8146 6.97648 24.0523 7.03323 24.2813C6.48015 23.4437 5.9981 22.568 5.59141 21.6621C5.55271 21.5753 5.48918 21.4998 5.40755 21.4436C5.32591 21.3875 5.22925 21.3529 5.12789 21.3433H5.08273C4.9731 21.3419 4.86535 21.3696 4.77243 21.4232C4.67951 21.4768 4.60539 21.554 4.55899 21.6454C2.96668 24.7968 5.33859 29.1872 6.69912 31.2798C5.83693 31.0728 4.95979 30.9227 4.07438 30.8308C2.26835 30.6617 0.977045 30.8862 0.197444 31.5015C0.11408 31.5671 0.0533076 31.6536 0.0225813 31.7504C-0.00814508 31.8473 -0.0075086 31.9503 0.0244552 32.0469C0.056419 32.1434 0.118318 32.2293 0.202515 32.2939C0.286712 32.3585 0.389563 32.3991 0.498448 32.4106C0.554389 32.4175 0.611051 32.4175 0.666991 32.4106C0.98129 32.3543 1.30317 32.3431 1.62119 32.3774C5.6426 32.7598 11.4971 38.6414 11.5543 38.7023C11.6081 38.7513 11.6721 38.7899 11.7424 38.8156C11.8128 38.8413 11.8881 38.8537 11.9637 38.852Z" fill="url(#paint2_linear_2825_33129)"/>
<path d="M10.3422 31.7636C10.3422 31.7636 5.93851 26.0816 7.72949 22.5339C10.0863 27.7613 13.8639 29.5518 13.8639 29.5518C13.8639 29.5518 9.59571 25.5301 9.9509 24.1914C12.3439 24.8344 14.6767 26.9631 14.6767 26.9631C14.6767 26.9631 11.8382 22.4203 9.37898 22.1874C11.5583 20.7517 15.5616 22.4896 15.5616 22.4896C15.5616 22.4896 11.1669 18.0549 14.3124 14.2217C14.3485 16.6552 18.3218 19.51 18.3218 19.51C18.3218 19.51 16.9191 15.4717 18.1232 13.5842C18.3369 15.6768 20.3596 17.7417 20.3596 17.7417C20.3596 17.7417 22.6593 12.7527 18.3549 11.547C19.9322 10.4827 23.5803 12.7416 23.9415 13.7644C23.8031 10.552 24.4894 8.90282 24.4894 8.90282C24.4894 8.90282 23.6556 11.1811 25.1455 12.0736C27.3489 7.31464 28.3151 5.62117 28.3151 5.62117C28.3151 5.62117 26.8251 9.90893 28.0864 11.1035C29.9616 8.92221 28.8931 7.37008 28.8931 7.37008C28.8931 7.37008 30.3138 9.38509 30.5155 10.9733C30.5155 10.9733 32.9566 9.20493 33.4653 6.752C33.4653 6.752 33.9078 9.72322 32.9506 11.3474C34.9102 8.39005 34.7957 6.66329 34.7957 6.66329C34.7957 6.66329 36.5326 8.95548 35.6566 10.6323C37.4627 8.34849 37.3091 5.68768 39.2987 3.875C38.0255 7.61399 38.6094 10.0281 38.6094 10.0281C38.6094 10.0281 40.3071 7.47264 40.283 5.54078C41.5141 5.5879 41.469 10.0143 41.469 10.0143L13.9031 37.2792C13.9031 37.2792 7.49471 30.7963 3.66895 31.5058C5.3937 30.1754 10.3422 31.7636 10.3422 31.7636Z" fill="#318063"/>
<path d="M41.0894 13.9239V13.9738C41.1066 14.044 41.1392 14.1102 41.1852 14.1684C41.2313 14.2266 41.2899 14.2754 41.3573 14.3119L80.4095 35.2547C80.531 35.3207 80.6753 35.3415 80.8129 35.3129C81.7027 35.1289 82.5809 34.9003 83.4437 34.6283C85.4694 33.9714 86.3634 33.2923 86.261 32.483C86.261 32.4636 86.261 32.4415 86.261 32.422C86.2476 32.3527 86.2187 32.2866 86.1762 32.2279C86.1338 32.1693 86.0786 32.1193 86.0143 32.0811C85.9499 32.0428 85.8778 32.0169 85.8022 32.0049C85.7267 31.993 85.6493 31.9954 85.5747 32.0118C84.5212 32.2419 83.1667 32.1005 82.0741 31.901C83.8222 31.5732 85.6126 31.4798 87.3898 31.6238C87.5155 31.6335 87.641 31.6041 87.7464 31.5403C87.8517 31.4765 87.9308 31.3819 87.9708 31.2718C87.9981 31.1988 88.0063 31.121 87.9948 31.0445C87.9858 30.968 87.9581 30.8943 87.9138 30.829C87.8695 30.7638 87.8098 30.7086 87.739 30.6676C86.2129 29.7696 84.5303 29.6088 82.9049 29.4564C82.3029 29.3982 81.7008 29.34 81.0838 29.2457C81.965 28.833 82.7631 28.2846 83.4437 27.6243C83.4984 27.5689 83.5396 27.5035 83.5645 27.4322C83.5894 27.361 83.5975 27.2856 83.5882 27.2113C83.5789 27.1354 83.5512 27.0625 83.5069 26.9979C83.4412 26.9019 83.3435 26.8281 83.2284 26.7876C83.1134 26.7471 82.9871 26.7421 82.8687 26.7734C82.3598 26.8677 81.8393 26.8976 81.3216 26.8621C81.8196 26.7467 82.3108 26.6079 82.7935 26.4463C82.914 26.4066 83.0158 26.3296 83.0817 26.2286C83.1475 26.1275 83.1733 26.0086 83.1547 25.892C83.1562 25.8781 83.1562 25.8642 83.1547 25.8504C83.129 25.7294 83.0573 25.6208 82.9525 25.5441C82.8477 25.4674 82.7166 25.4276 82.5828 25.4319C80.7256 25.4901 78.9707 24.678 78.0135 24.1264C79.1585 23.5028 80.2134 22.7485 81.153 21.8814C81.2493 21.7817 81.3005 21.6517 81.2959 21.5184C81.2912 21.385 81.2311 21.2583 81.1281 21.1644C81.025 21.0706 80.8868 21.0168 80.7419 21.014C80.597 21.0113 80.4565 21.0598 80.3493 21.1496C80.3042 21.1884 79.2717 22.0671 77.2309 21.4739C78.4349 20.9639 80.9122 20.8836 82.625 21.0221C82.7651 21.0331 82.9045 20.9954 83.0159 20.9164C83.1273 20.8374 83.2026 20.7228 83.227 20.5953C83.2346 20.5447 83.2346 20.4934 83.227 20.4429C83.2122 20.34 83.165 20.2434 83.0912 20.1651C83.0173 20.0867 82.9201 20.0301 82.8115 20.0022C82.7242 19.9828 80.6834 19.4838 75.1961 18.547C76.072 17.8458 77.7637 17.9927 77.7848 17.9927C77.9294 18.0029 78.0727 17.9614 78.1848 17.8767C78.297 17.792 78.3694 17.6708 78.3868 17.5382C78.3928 17.4968 78.3928 17.4548 78.3868 17.4134C78.3722 17.3001 78.3173 17.1944 78.2308 17.1127C78.1442 17.031 78.0308 16.9779 77.9082 16.9616C77.8299 16.9616 76.2286 16.751 73.3931 17.2804C74.0764 16.1191 74.5972 14.4616 74.4166 13.1838C74.3706 12.5707 74.0724 11.9968 73.5828 11.5791C73.5035 11.5163 73.4068 11.475 73.3036 11.4597C73.2004 11.4444 73.0945 11.4558 72.9979 11.4925C72.9012 11.5293 72.8175 11.59 72.756 11.6679C72.6946 11.7458 72.6577 11.8378 72.6496 11.9338C72.5744 12.9455 72.1771 13.6938 71.4456 14.2204C70.2898 15.0519 68.556 15.1323 67.4754 15.0852C68.2008 14.323 69.477 13.17 70.9128 12.7376C71.0263 12.7035 71.1252 12.6371 71.195 12.5479C71.2648 12.4587 71.3019 12.3514 71.3011 12.2415C71.3026 12.2221 71.3026 12.2026 71.3011 12.1833C71.2892 12.0839 71.2462 11.9898 71.1772 11.9126C71.1083 11.8353 71.0164 11.7782 70.9128 11.7481C69.1851 11.2409 66.759 12.0253 65.1547 12.6766C66.1299 11.2243 67.65 9.41991 69.1791 9.07345C69.2938 9.04835 69.3971 8.99071 69.4743 8.90865C69.5516 8.82659 69.5989 8.72426 69.6095 8.61612C69.6141 8.57928 69.6141 8.54209 69.6095 8.50525C69.5976 8.41673 69.5611 8.33255 69.5036 8.26073C69.4462 8.1889 69.3697 8.13184 69.2814 8.09504C65.3894 6.47916 62.0844 8.66877 60.3717 10.232C60.4162 9.59721 60.4001 8.96005 60.3235 8.32786C60.1429 6.94202 59.6252 5.88048 58.7854 5.19311C58.6996 5.12367 58.5931 5.07972 58.4797 5.06708C58.3664 5.05443 58.2515 5.07368 58.1502 5.12226C58.049 5.17084 57.9661 5.24649 57.9123 5.33927C57.8586 5.43206 57.8366 5.53762 57.8493 5.64212C57.9757 6.61775 57.157 7.95093 56.1727 9.14829C56.481 8.35089 56.6742 7.51967 56.7476 6.67595C56.7476 6.64546 56.7476 6.61221 56.7476 6.58172C56.7306 6.4781 56.6803 6.38156 56.6031 6.30455C56.5514 6.2532 56.4891 6.21181 56.4198 6.18278C56.3506 6.15376 56.2758 6.13769 56.1998 6.13549C55.9445 6.13898 55.6933 6.19583 55.4653 6.30178C56.2327 5.62203 57.0548 4.99663 57.9245 4.4309C58.0073 4.37685 58.0728 4.30331 58.1141 4.21798C58.1554 4.13265 58.171 4.03866 58.1593 3.94585V3.90427C58.1374 3.80542 58.0847 3.71457 58.0078 3.64274C57.9309 3.5709 57.8329 3.52119 57.7258 3.49962C54.0355 2.76512 49.8998 5.86108 47.9914 7.54348C48.0201 6.72372 47.9858 5.90312 47.889 5.08778C47.6723 3.44141 47.1486 2.31611 46.3238 1.76177C46.2351 1.69999 46.1286 1.66363 46.0176 1.65726C45.9066 1.65089 45.796 1.67479 45.6997 1.72594C45.6034 1.7771 45.5255 1.85326 45.4759 1.94492C45.4263 2.03657 45.4072 2.13964 45.4208 2.24127C45.427 2.29308 45.4422 2.34363 45.4659 2.39095C45.5937 2.66152 45.676 2.94844 45.7098 3.24184C46.1914 6.93648 41.2519 13.497 41.1947 13.558C41.1113 13.6636 41.0738 13.7941 41.0894 13.9239Z" fill="url(#paint3_linear_2825_33129)"/>
<path d="M48.2412 10.9079C48.2412 10.9079 53.286 5.69716 57.4399 6.52589C52.4221 9.79646 51.3596 13.5798 51.3596 13.5798C51.3596 13.5798 54.6706 8.86797 56.1757 8.89568C56.0251 11.1879 54.2763 13.7544 54.2763 13.7544C54.2763 13.7544 58.4603 10.2011 58.1683 7.93392C60.17 9.57198 59.2098 13.5521 59.2098 13.5521C59.2098 13.5521 62.9242 8.62961 67.6921 10.6058C65.1215 11.1602 62.9754 15.3731 62.9754 15.3731C62.9754 15.3731 66.9426 13.225 69.2061 13.8902C67.0389 14.5444 65.3112 16.8088 65.3112 16.8088C65.3112 16.8088 71.1145 17.7761 71.4305 13.6436C72.9054 14.8271 71.3191 18.6021 70.3017 19.1537C73.673 18.3222 75.5723 18.5716 75.5723 18.5716C75.5723 18.5716 72.9747 18.3277 72.3576 19.8632C77.8811 20.7917 79.8827 21.2851 79.8827 21.2851C79.8827 21.2851 75.0095 20.8943 74.0252 22.2912C76.7342 23.4941 78.158 22.1942 78.158 22.1942C78.158 22.1942 76.3339 23.9126 74.6934 24.4448C74.6934 24.4448 77.1015 26.2464 79.8105 26.1632C79.8105 26.1632 76.7583 27.2165 74.8289 26.7176C78.3927 27.8262 80.1958 27.344 80.1958 27.344C80.1958 27.344 78.1519 29.4089 76.1834 29.007C79.0038 30.1378 81.785 29.4005 84.1419 30.7864C79.9008 30.4676 77.4747 31.5236 77.4747 31.5236C77.4747 31.5236 80.554 32.4882 82.5918 32.0392C82.8145 33.1478 78.1158 34.0902 78.1158 34.0902L43.1572 15.3426C43.1572 15.3426 48.6114 8.15566 47.0191 4.89062C48.8312 6.11016 48.2412 10.9079 48.2412 10.9079Z" fill="#318063"/>
<path d="M86.156 42.86C86.156 46.1666 82.2429 48.9576 81.367 52.0065C80.464 55.1634 82.2911 59.3708 80.5543 62.1314C78.7934 64.9336 73.9021 65.5628 71.4308 67.8355C68.9596 70.1083 68.2794 74.615 65.2392 76.2365C62.1991 77.8579 57.669 76.1422 54.2436 76.9848C50.9325 77.7997 47.9014 81.3945 44.3104 81.3945C40.7194 81.3945 37.6883 77.7914 34.3773 76.9848C30.9519 76.1533 26.3826 77.8357 23.3816 76.2365C20.3806 74.6372 19.6582 70.1083 17.1899 67.8355C14.7217 65.5628 9.8274 64.9336 8.06652 62.1314C6.32973 59.3597 8.16884 55.1607 7.25379 52.0065C6.36884 48.9576 2.46484 46.1693 2.46484 42.86C2.46484 39.5506 6.37787 36.7623 7.25379 33.7134C8.1568 30.5593 6.32973 26.3519 8.06652 23.5885C9.80332 20.8251 14.7187 20.1599 17.1899 17.8844C19.6612 15.6088 20.3415 11.1049 23.3846 9.48343C26.3947 7.88695 30.9519 9.58043 34.3773 8.73784C37.6883 7.92296 40.7194 4.32812 44.3104 4.32812C47.9014 4.32812 50.9325 7.93128 54.2436 8.73784C57.669 9.56934 62.2382 7.88695 65.2392 9.48343C68.2402 11.0799 68.9626 15.6116 71.4308 17.8844C73.8991 20.1571 78.7934 20.7863 80.5543 23.5885C82.3152 26.3907 80.4519 30.5593 81.367 33.7134C82.2519 36.765 86.156 39.5534 86.156 42.86Z" fill="url(#paint4_linear_2825_33129)"/>
<path d="M84.0604 40.9387C84.0484 41.6413 83.8847 42.3348 83.5788 42.9786C83.1615 43.8428 82.6512 44.6664 82.0557 45.4371C81.0383 46.8229 79.9276 48.2088 79.5123 49.6251C78.9464 51.5653 79.4881 53.9489 79.4821 56.0942C79.4821 57.2417 79.3166 58.3282 78.7417 59.2428C78.571 59.5159 78.3692 59.7714 78.1397 60.005C76.147 62.045 72.1858 62.724 70.0818 64.6614C67.74 66.8206 67.0898 71.1028 64.2001 72.6411C61.3105 74.1794 57.0092 72.5524 53.7523 73.3534C50.6098 74.1267 47.7323 77.5414 44.3219 77.5414C40.9115 77.5414 38.0309 74.1267 34.8854 73.3534C31.6315 72.5524 27.2911 74.16 24.4406 72.6411C21.5901 71.1222 20.9038 66.8206 18.5559 64.6614C16.2081 62.5023 11.5636 61.8898 9.89001 59.2428C9.82288 59.1386 9.7616 59.0313 9.7064 58.9213C9.30943 58.055 9.12051 57.1199 9.15256 56.1801C9.12848 54.0127 9.69136 51.6013 9.11946 49.6251C8.27965 46.7287 4.57129 44.0817 4.57129 40.9387C4.57129 37.7956 8.27965 35.1486 9.11946 32.2495C9.98936 29.2533 8.2405 25.2565 9.89001 22.6318C11.5395 20.007 16.2111 19.375 18.5559 17.2131C20.9007 15.0512 21.5509 10.7745 24.4406 9.23347C27.3302 7.69241 31.6315 9.32495 34.8854 8.52394C38.0309 7.75064 40.9055 4.33594 44.3219 4.33594C47.7383 4.33594 50.6098 7.75064 53.7523 8.52394C57.0092 9.32495 61.3496 7.71459 64.2001 9.23347C67.0507 10.7523 67.7009 14.8184 69.8892 17.0274C69.9524 17.0912 70.0186 17.1549 70.0818 17.2131C71.7674 18.7653 74.639 19.5109 76.743 20.7941C77.5591 21.2537 78.2467 21.8831 78.7507 22.6318C80.4002 25.2565 78.6514 29.2533 79.5213 32.2495C80.3551 35.1486 84.0604 37.7984 84.0604 40.9387Z" fill="url(#paint5_linear_2825_33129)"/>
<path d="M78.6878 49.1212C77.827 52.0841 79.5577 56.0503 77.9263 58.6363C76.2948 61.2223 71.6744 61.857 69.3537 63.994C67.033 66.131 66.3948 70.3688 63.5353 71.8849C60.6757 73.401 56.4226 71.7963 53.2049 72.589C50.0955 73.3539 47.248 76.7465 43.8737 76.7465C40.4995 76.7465 37.652 73.3678 34.5426 72.589C31.3219 71.7963 27.0175 73.3872 24.2121 71.8849C21.4068 70.3827 20.7114 66.1282 18.3937 63.9912C16.076 61.8543 11.4706 61.2666 9.82111 58.6363C8.17161 56.006 9.91742 52.0841 9.05655 49.1212C8.22277 46.258 4.55957 43.636 4.55957 40.529C4.55957 38.9159 5.54685 37.4358 6.6124 35.9834C7.35406 35.0451 8.02102 34.0586 8.60806 33.0316C8.79382 32.6801 8.94395 32.3136 9.05655 31.9368C9.91742 28.9739 8.18967 25.0076 9.82111 22.4244C11.4526 19.8412 16.07 19.2009 18.3937 17.0667C20.7175 14.9325 21.3526 10.6919 24.2121 9.17301C27.0717 7.65413 31.3219 9.26169 34.5426 8.46899C37.652 7.70401 40.4995 4.32812 43.8737 4.32812C47.248 4.32812 50.0925 7.70401 53.2049 8.46899C56.4226 9.26169 60.7299 7.67076 63.5353 9.17301C66.2624 10.6254 66.9728 14.5473 69.0527 16.7619C69.1474 16.8681 69.2479 16.9698 69.3537 17.0667C71.0152 18.5967 73.8507 19.334 75.9307 20.6006C76.7418 21.0553 77.4246 21.6802 77.9233 22.4244C79.5547 25.0187 77.824 28.9739 78.6848 31.9368C79.5186 34.7999 83.1848 37.4219 83.1848 40.529C83.1848 43.636 79.5216 46.258 78.6878 49.1212Z" fill="url(#paint6_linear_2825_33129)"/>
<path d="M23.5708 34.6051C18.0323 35.4199 11.1303 35.8163 6.61523 35.9909C7.35689 35.0526 8.02386 34.066 8.61089 33.0391C13.5393 33.3427 18.4816 33.4065 23.4173 33.2303C23.6152 33.2116 23.8132 33.266 23.9676 33.3817C24.122 33.4973 24.2202 33.6647 24.2405 33.847C24.2609 34.0293 24.2017 34.2116 24.0761 34.3538C23.9505 34.4959 23.7688 34.5863 23.5708 34.6051Z" fill="url(#paint7_linear_2825_33129)"/>
<path d="M83.5794 42.9766C83.162 43.8408 82.6518 44.6644 82.0563 45.435C39.7291 46.5437 19.1465 53.7501 9.69795 58.9192C9.30099 58.0529 9.11207 57.1179 9.14412 56.1781C9.83041 55.4297 10.589 54.6176 11.4227 53.7307C34.8107 45.3436 71.1811 43.4034 83.5794 42.9766Z" fill="url(#paint8_linear_2825_33129)"/>
<path d="M79.4817 56.0938C79.4817 57.2412 79.3162 58.3277 78.7413 59.2424C78.5706 59.5154 78.3688 59.7709 78.1393 60.0046C74.0607 60.9691 63.6128 63.2779 53.5533 64.1954C53.4815 64.2046 53.4085 64.2008 53.3383 64.1841C53.2682 64.1674 53.2023 64.1381 53.1445 64.098C53.0276 64.0169 52.9505 63.8964 52.9302 63.763C52.9098 63.6295 52.9479 63.4941 53.0359 63.3866C53.124 63.279 53.2549 63.208 53.3998 63.1892C63.655 61.4458 73.9673 58.0644 79.4817 56.0938Z" fill="url(#paint9_linear_2825_33129)"/>
<path d="M76.7345 20.7924C71.497 22.0729 56.5221 25.4488 43.6241 25.5043C43.46 25.5045 43.3018 25.4484 43.1803 25.347C43.0588 25.2456 42.9827 25.1061 42.9669 24.9557C42.9511 24.8054 42.9967 24.6551 43.0949 24.5341C43.193 24.4131 43.3366 24.3301 43.4977 24.3013C53.7769 22.5247 64.2308 19.0629 69.8686 17.0312C69.9318 17.095 69.9981 17.1588 70.0613 17.217C71.7589 18.7636 74.6305 19.5091 76.7345 20.7924Z" fill="url(#paint10_linear_2825_33129)"/>
<g clip-path="url(#clip0_2825_33129)">
<path d="M43.9994 29.1719C41.3623 29.1719 38.7844 29.9539 36.5918 31.4189C34.3991 32.884 32.6901 34.9664 31.681 37.4028C30.6718 39.8391 30.4077 42.52 30.9222 45.1064C31.4367 47.6928 32.7066 50.0686 34.5713 51.9333C36.436 53.798 38.8117 55.0679 41.3982 55.5823C43.9846 56.0968 46.6655 55.8328 49.1018 54.8236C51.5382 53.8144 53.6205 52.1055 55.0856 49.9128C56.5507 47.7202 57.3327 45.1423 57.3327 42.5052C57.3327 40.7542 56.9878 39.0204 56.3177 37.4028C55.6477 35.7851 54.6656 34.3152 53.4274 33.0771C52.1893 31.839 50.7195 30.8569 49.1018 30.1868C47.4841 29.5168 45.7503 29.1719 43.9994 29.1719ZM49.3327 46.1719C49.3327 46.6139 49.1571 47.0378 48.8445 47.3504C48.532 47.6629 48.1081 47.8385 47.666 47.8385H40.3327C39.8907 47.8385 39.4667 47.6629 39.1542 47.3504C38.8416 47.0378 38.666 46.6139 38.666 46.1719V38.8385C38.666 38.3965 38.8416 37.9726 39.1542 37.66C39.4667 37.3475 39.8907 37.1719 40.3327 37.1719H47.666C48.1081 37.1719 48.532 37.3475 48.8445 37.66C49.1571 37.9726 49.3327 38.3965 49.3327 38.8385V46.1719Z" fill="white"/>
<path d="M48.1268 37.1641H39.8738C39.2073 37.1641 38.667 37.7044 38.667 38.3709V46.6239C38.667 47.2904 39.2073 47.8307 39.8739 47.8307H48.1268C48.7933 47.8307 49.3337 47.2904 49.3337 46.6239V38.3709C49.3337 37.7044 48.7933 37.1641 48.1268 37.1641Z" fill="#96440C"/>
</g>
<defs>
<linearGradient id="paint0_linear_2825_33129" x1="61478.9" y1="-66663.5" x2="64099.1" y2="-71858.3" gradientUnits="userSpaceOnUse">
<stop stop-color="#95D543"/>
<stop offset="0.26" stop-color="#72B74E"/>
<stop offset="0.58" stop-color="#4F9959"/>
<stop offset="0.83" stop-color="#398760"/>
<stop offset="1" stop-color="#318063"/>
</linearGradient>
<linearGradient id="paint1_linear_2825_33129" x1="-118546" y1="-122224" x2="-123287" y2="-126599" gradientUnits="userSpaceOnUse">
<stop stop-color="#95D543"/>
<stop offset="0.26" stop-color="#72B74E"/>
<stop offset="0.58" stop-color="#4F9959"/>
<stop offset="0.83" stop-color="#398760"/>
<stop offset="1" stop-color="#318063"/>
</linearGradient>
<linearGradient id="paint2_linear_2825_33129" x1="62178.1" y1="109145" x2="64798.3" y2="114340" gradientUnits="userSpaceOnUse">
<stop stop-color="#95D543"/>
<stop offset="0.26" stop-color="#72B74E"/>
<stop offset="0.58" stop-color="#4F9959"/>
<stop offset="0.83" stop-color="#398760"/>
<stop offset="1" stop-color="#318063"/>
</linearGradient>
<linearGradient id="paint3_linear_2825_33129" x1="-124051" y1="164043" x2="-128792" y2="168417" gradientUnits="userSpaceOnUse">
<stop stop-color="#95D543"/>
<stop offset="0.26" stop-color="#72B74E"/>
<stop offset="0.58" stop-color="#4F9959"/>
<stop offset="0.83" stop-color="#398760"/>
<stop offset="1" stop-color="#318063"/>
</linearGradient>
<linearGradient id="paint4_linear_2825_33129" x1="178576" y1="92014.7" x2="184879" y2="107564" gradientUnits="userSpaceOnUse">
<stop stop-color="#F8A45B"/>
<stop offset="0.22" stop-color="#C97F40"/>
<stop offset="0.47" stop-color="#985825"/>
<stop offset="0.7" stop-color="#743C11"/>
<stop offset="0.88" stop-color="#5E2B04"/>
<stop offset="1" stop-color="#562500"/>
</linearGradient>
<linearGradient id="paint5_linear_2825_33129" x1="188557" y1="103226" x2="168668" y2="86752.8" gradientUnits="userSpaceOnUse">
<stop stop-color="#F8A45B"/>
<stop offset="0.39" stop-color="#CC7937"/>
<stop offset="0.79" stop-color="#A55318"/>
<stop offset="1" stop-color="#96440C"/>
</linearGradient>
<linearGradient id="paint6_linear_2825_33129" x1="167017" y1="85181.4" x2="173785" y2="99990.7" gradientUnits="userSpaceOnUse">
<stop stop-color="#F8A45B"/>
<stop offset="0.39" stop-color="#CC7937"/>
<stop offset="0.79" stop-color="#A55318"/>
<stop offset="1" stop-color="#96440C"/>
</linearGradient>
<linearGradient id="paint7_linear_2825_33129" x1="36397.8" y1="3624.84" x2="36398.5" y2="3684.62" gradientUnits="userSpaceOnUse">
<stop offset="0.38" stop-color="#96440C"/>
<stop offset="0.4" stop-color="#9A4810"/>
<stop offset="0.5" stop-color="#B76427"/>
</linearGradient>
<linearGradient id="paint8_linear_2825_33129" x1="161196" y1="20169.5" x2="161209" y2="20631.4" gradientUnits="userSpaceOnUse">
<stop offset="0.38" stop-color="#96440C"/>
<stop offset="0.4" stop-color="#9A4810"/>
<stop offset="0.5" stop-color="#B76427"/>
</linearGradient>
<linearGradient id="paint9_linear_2825_33129" x1="59352.7" y1="10705" x2="59364.6" y2="10875.5" gradientUnits="userSpaceOnUse">
<stop offset="0.38" stop-color="#96440C"/>
<stop offset="0.4" stop-color="#9A4810"/>
<stop offset="0.5" stop-color="#B76427"/>
</linearGradient>
<linearGradient id="paint10_linear_2825_33129" x1="74656.8" y1="9915.14" x2="74669.4" y2="10156.3" gradientUnits="userSpaceOnUse">
<stop offset="0.38" stop-color="#96440C"/>
<stop offset="0.4" stop-color="#9A4810"/>
<stop offset="0.5" stop-color="#B76427"/>
</linearGradient>
<clipPath id="clip0_2825_33129">
<rect width="32" height="32" fill="white" transform="translate(28 26.5)"/>
</clipPath>
</defs>
</svg>
