<svg width="93" height="91" viewBox="0 0 93 91" fill="none" xmlns="http://www.w3.org/2000/svg">
<g filter="url(#filter0_d_2974_13390)">
<circle cx="49" cy="44" r="44" fill="#FE4B60"/>
<circle cx="49" cy="44" r="40.6739" stroke="white" stroke-width="6.65217"/>
</g>
<g clip-path="url(#clip0_2974_13390)">
<path d="M35.1597 23.2773C39.2572 20.5395 44.0746 19.0781 49.0026 19.0781C52.2747 19.0781 55.5148 19.7226 58.5378 20.9748C61.5608 22.227 64.3076 24.0623 66.6214 26.376C68.9351 28.6898 70.7704 31.4366 72.0226 34.4596C73.2748 37.4826 73.9193 40.7227 73.9193 43.9948C73.9193 48.9228 72.4579 53.7402 69.7201 57.8377C66.9822 61.9353 63.0907 65.1289 58.5378 67.0148C53.9849 68.9007 48.975 69.3941 44.1416 68.4327C39.3083 67.4713 34.8685 65.0982 31.3839 61.6135C27.8992 58.1289 25.5261 53.6891 24.5647 48.8558C23.6033 44.0224 24.0967 39.0125 25.9826 34.4596C27.8685 29.9067 31.0621 26.0152 35.1597 23.2773ZM58.8599 53.8521C59.6022 53.1098 60.0193 52.1029 60.0193 51.0531V36.9365C60.0193 35.8866 59.6022 34.8798 58.8599 34.1375C58.1176 33.3952 57.1108 32.9781 56.0609 32.9781H41.9443C40.8945 32.9781 39.8876 33.3952 39.1453 34.1375C38.403 34.8798 37.9859 35.8866 37.9859 36.9365V51.0531C37.9859 52.1029 38.403 53.1098 39.1453 53.8521C39.8876 54.5944 40.8945 55.0115 41.9443 55.0115H56.0609C57.1108 55.0115 58.1176 54.5944 58.8599 53.8521Z" fill="white" stroke="#ED0F29" stroke-width="1.5"/>
<path d="M57.1557 33.7266H40.8464C39.6799 33.7266 38.7344 34.6721 38.7344 35.8386V52.1479C38.7344 53.3143 39.68 54.2599 40.8464 54.2599H57.1557C58.3221 54.2599 59.2677 53.3143 59.2677 52.1479V35.8386C59.2677 34.6721 58.3221 33.7266 57.1557 33.7266Z" fill="#ED0F29"/>
</g>
<defs>
<filter id="filter0_d_2974_13390" x="0" y="0" width="93" height="91" filterUnits="userSpaceOnUse" color-interpolation-filters="sRGB">
<feFlood flood-opacity="0" result="BackgroundImageFix"/>
<feColorMatrix in="SourceAlpha" type="matrix" values="0 0 0 0 0 0 0 0 0 0 0 0 0 0 0 0 0 0 127 0" result="hardAlpha"/>
<feOffset dx="-5" dy="3"/>
<feComposite in2="hardAlpha" operator="out"/>
<feColorMatrix type="matrix" values="0 0 0 0 0.929412 0 0 0 0 0.0588235 0 0 0 0 0.160784 0 0 0 1 0"/>
<feBlend mode="normal" in2="BackgroundImageFix" result="effect1_dropShadow_2974_13390"/>
<feBlend mode="normal" in="SourceGraphic" in2="effect1_dropShadow_2974_13390" result="shape"/>
</filter>
<clipPath id="clip0_2974_13390">
<rect width="56" height="56" fill="white" transform="translate(21 16)"/>
</clipPath>
</defs>
</svg>
