<svg width="346" height="398" viewBox="0 0 346 398" fill="none" xmlns="http://www.w3.org/2000/svg">
<path d="M340.504 63.0625C348.996 87.4413 357.054 144.541 274.662 194.061C274.052 191.19 273.417 188.341 272.779 185.444C330.845 160.024 340.504 63.0625 340.504 63.0625Z" fill="#0A0A0A"/>
<path d="M335.14 51.0078C335.14 51.0078 337.833 55.4307 340.504 63.0566C340.504 63.0566 330.845 160.015 272.779 185.438C269.805 171.938 266.705 158.288 263.374 144.863C263.374 144.863 321.997 126.18 335.14 51.0078Z" fill="#212121"/>
<path d="M281.856 226.918C292.253 273.465 265.078 295.888 224.021 305.675V305.65C230.605 296.905 235.435 285.823 238.841 273.211C283.583 249.364 259.457 200.963 243.164 146.61C242.654 144.933 242.172 143.304 241.691 141.677C235.285 87.6558 224.021 42.8364 224.021 42.8364L225.088 42.1484C242.019 69.0702 253.739 106.11 263.373 144.853C266.704 158.274 269.804 171.927 272.779 185.427C273.414 188.324 274.049 191.173 274.662 194.045C277.102 205.233 279.466 216.24 281.856 226.918Z" fill="#0A0A0A"/>
<path d="M231.266 365.82C249.035 366.38 256.154 375.914 255.088 387.021C254.249 395.792 249.292 397.7 237.825 397.8C251.656 386.971 231.266 365.82 231.266 365.82Z" fill="#898989"/>
<path d="M243.164 146.604C259.46 200.958 283.586 249.361 238.842 273.206C248.91 236.19 246.924 185.856 241.688 141.672C242.173 143.298 242.654 144.925 243.164 146.604Z" fill="#E8E8E8"/>
<path d="M113.945 139.77C107.158 146.66 103.217 154.996 103.217 163.998C103.217 187.92 131.18 207.316 165.678 207.316C200.15 207.316 228.113 187.92 228.113 163.998C228.113 158.559 226.665 153.347 224.019 148.568C216.137 134.23 197.604 123.579 175.133 121.215C172.922 120.961 170.71 120.808 168.421 120.758C167.507 120.733 166.591 120.708 165.675 120.708C144.145 120.705 125.156 128.256 113.945 139.77ZM241.691 141.678C246.927 185.862 248.91 236.196 238.845 273.211C223.897 281.219 201.219 286.455 167.967 288.235C35.3665 295.354 65.0595 229.84 82.5756 174.345C100.092 118.875 116.87 39.3048 141.708 39.3048C166.519 39.3048 167.97 65.5915 167.97 65.5915C167.97 65.5915 170.894 37.8565 189.146 39.3048C206.99 40.7531 219.752 69.1482 241.691 141.678ZM160.645 118.697C187.388 120.223 196.643 114.021 182.252 93.2485C170.05 75.6321 157.542 90.2739 157.542 90.2739C157.542 90.2739 133.926 117.146 160.645 118.697Z" fill="#F9F9F9"/>
<path d="M231.266 365.833C231.266 365.833 251.653 386.984 237.825 397.813C229.561 397.941 217.944 397.1 202.029 397.253C168.777 397.556 169.108 387.669 169.108 387.669L168.167 354.035C180.522 358.254 206.909 351.977 206.909 351.977L207.876 369.008C217.106 366.571 224.86 365.63 231.266 365.833Z" fill="#F8F7F7"/>
<path d="M238.842 273.218C235.435 285.826 230.606 296.912 224.021 305.657V305.682C217.819 307.155 211.285 308.35 204.497 309.267C192.574 310.943 179.94 311.81 167 312.138C158.305 312.342 149.509 312.316 140.713 312.113C137.307 312.038 133.926 311.91 130.52 311.757C121.292 311.4 112.14 310.868 103.216 310.205C89.0063 309.189 75.3783 307.919 62.948 306.696C12.5109 301.763 17.825 250.285 36.6864 194.051C43.2706 174.374 51.5064 154.14 59.6169 135.097C69.4542 111.913 79.091 90.5312 85.2435 74.1097C111.53 4.02024 155.333 0.132089 155.333 0.132089C185.914 -1.67272 208.135 15.1555 225.091 42.1552L224.024 42.8431C224.024 42.8431 235.285 87.6625 241.694 141.684C219.755 69.1549 206.993 40.7598 189.145 39.3087C170.891 37.8604 167.969 65.5954 167.969 65.5954C167.969 65.5954 166.521 39.3087 141.708 39.3087C116.869 39.3087 100.091 118.879 82.5753 174.349C65.0592 229.844 35.3662 295.357 167.967 288.238C201.216 286.461 223.893 281.225 238.842 273.218Z" fill="#212121"/>
<path d="M224.022 148.579C226.665 153.358 228.116 158.569 228.116 164.009C228.116 187.931 200.153 207.327 165.68 207.327C131.183 207.327 103.219 187.931 103.219 164.009C103.219 155.01 107.161 146.671 113.948 139.78C114.761 140.39 130.091 150.94 168.427 120.766C170.716 120.816 172.927 120.969 175.139 121.222C175.161 122.192 176.253 140.165 224.022 148.579Z" fill="#FFD4AB"/>
<path d="M175.135 121.219C197.609 123.583 216.142 134.234 224.021 148.572C176.252 140.158 175.161 122.185 175.135 121.219Z" fill="#160F00"/>
<path d="M204.497 309.266L206.912 351.974C206.912 351.974 180.525 358.254 168.17 354.032L167 312.263V312.134C179.94 311.809 192.574 310.945 204.497 309.266Z" fill="#212121"/>
<path d="M182.252 93.2609C196.641 114.03 187.388 120.233 160.645 118.709C133.926 117.158 157.542 90.2863 157.542 90.2863C157.542 90.2863 170.05 75.6445 182.252 93.2609Z" fill="#F1A60D"/>
<path d="M165.677 120.719C166.593 120.719 167.507 120.744 168.423 120.769C130.088 150.944 114.758 140.396 113.945 139.783C125.155 128.269 144.145 120.719 165.677 120.719Z" fill="#160F00"/>
<path d="M140.714 312.119V312.273L139.569 354.042C136.773 355.009 133.238 355.415 129.476 355.465C131.305 333.78 130.517 311.766 130.517 311.766C133.926 311.916 137.308 312.041 140.714 312.119Z" fill="#0A0A0A"/>
<path d="M139.569 354.023L138.627 387.657C138.627 387.989 138.399 395.59 115.187 397.013C123.907 394.902 127.796 375.327 129.475 355.447C133.238 355.397 136.772 354.99 139.569 354.023Z" fill="#898989"/>
<path d="M130.52 311.754C130.52 311.754 131.308 333.769 129.478 355.454C116.613 355.733 100.827 351.973 100.827 351.973L103.216 310.203C112.14 310.866 121.292 311.398 130.52 311.754Z" fill="#212121"/>
<path d="M100.827 351.977C100.827 351.977 116.613 355.739 129.478 355.458C127.801 375.339 123.91 394.913 115.19 397.024C112.469 397.203 109.266 397.278 105.681 397.253C67.7023 396.896 54.0994 402.107 52.6511 387.034C51.1777 371.933 64.8029 359.781 99.8351 369.011L100.827 351.977Z" fill="#F8F7F7"/>
<path d="M59.6171 135.109C51.5066 154.151 43.2708 174.386 36.6866 194.063C-33.2748 159.719 18.3321 39.3203 18.3321 39.3203C18.3321 39.3203 26.4426 134.549 59.6171 135.109Z" fill="#212121"/>
</svg>
