<svg width="212" height="140" viewBox="0 0 212 140" fill="none" xmlns="http://www.w3.org/2000/svg">
<g clip-path="url(#clip0_2088_6062)">
<path opacity="0.2" d="M83.61 132.014C55.3334 138.795 46.8968 146.905 39.8045 173.939C39.6442 174.528 39.2842 175.049 38.7809 175.421C38.2775 175.793 37.6593 175.995 37.0232 175.995C36.387 175.995 35.7688 175.793 35.2655 175.421C34.7621 175.049 34.4021 174.528 34.2418 173.939C27.1495 146.905 18.6665 138.795 -9.6101 132.014C-10.2257 131.861 -10.7708 131.517 -11.1599 131.035C-11.549 130.554 -11.76 129.963 -11.76 129.355C-11.76 128.747 -11.549 128.156 -11.1599 127.674C-10.7708 127.193 -10.2257 126.849 -9.6101 126.696C18.6665 119.915 27.1495 111.805 34.2418 84.7703C34.4021 84.1817 34.7621 83.6606 35.2655 83.2886C35.7688 82.9167 36.387 82.7148 37.0232 82.7148C37.6593 82.7148 38.2775 82.9167 38.7809 83.2886C39.2842 83.6606 39.6442 84.1817 39.8045 84.7703C46.8968 111.805 55.3334 119.915 83.61 126.696C84.2257 126.849 84.7708 127.193 85.1599 127.674C85.549 128.156 85.76 128.747 85.76 129.355C85.76 129.963 85.549 130.554 85.1599 131.035C84.7708 131.517 84.2257 131.861 83.61 132.014Z" fill="white"/>
<path opacity="0.3" d="M37.3437 -14.6305C13.9848 -8.77438 7.01545 -1.77005 1.15656 21.5778C1.02416 22.0861 0.726741 22.5362 0.310949 22.8575C-0.104842 23.1787 -0.615531 23.353 -1.14106 23.353C-1.66659 23.353 -2.17728 23.1787 -2.59307 22.8575C-3.00886 22.5362 -3.30628 22.0861 -3.43869 21.5778C-9.29757 -1.77005 -16.3052 -8.77438 -39.6642 -14.6305C-40.1728 -14.7628 -40.6231 -15.0601 -40.9445 -15.4757C-41.2659 -15.8913 -41.4402 -16.4017 -41.4402 -16.927C-41.4402 -17.4523 -41.2659 -17.9627 -40.9445 -18.3783C-40.6231 -18.7939 -40.1728 -19.0912 -39.6642 -19.2235C-16.3052 -25.0797 -9.29757 -32.084 -3.43869 -55.4318C-3.30628 -55.9402 -3.00886 -56.3902 -2.59307 -56.7115C-2.17728 -57.0327 -1.66659 -57.207 -1.14106 -57.207C-0.615531 -57.207 -0.104842 -57.0327 0.310949 -56.7115C0.726741 -56.3902 1.02416 -55.9402 1.15656 -55.4318C7.01545 -32.084 13.9848 -25.0797 37.3437 -19.2235C37.8523 -19.0912 38.3027 -18.7939 38.6241 -18.3783C38.9455 -17.9627 39.1198 -17.4523 39.1198 -16.927C39.1198 -16.4017 38.9455 -15.8913 38.6241 -15.4757C38.3027 -15.0601 37.8523 -14.7628 37.3437 -14.6305Z" fill="white"/>
<path opacity="0.1" d="M299.85 113.063C271.573 120.152 263.137 128.631 256.044 156.895C255.884 157.51 255.524 158.055 255.021 158.444C254.517 158.833 253.899 159.043 253.263 159.043C252.627 159.043 252.009 158.833 251.505 158.444C251.002 158.055 250.642 157.51 250.482 156.895C243.389 128.631 234.906 120.152 206.63 113.063C206.014 112.903 205.469 112.543 205.08 112.04C204.691 111.537 204.48 110.919 204.48 110.283C204.48 109.648 204.691 109.03 205.08 108.527C205.469 108.024 206.014 107.664 206.63 107.503C234.906 100.414 243.389 91.9356 250.482 63.6724C250.642 63.057 251.002 62.5122 251.505 62.1233C252.009 61.7344 252.627 61.5234 253.263 61.5234C253.899 61.5234 254.517 61.7344 255.021 62.1233C255.524 62.5122 255.884 63.057 256.044 63.6724C263.137 91.9356 271.573 100.414 299.85 107.503C300.466 107.664 301.011 108.024 301.4 108.527C301.789 109.03 302 109.648 302 110.283C302 110.919 301.789 111.537 301.4 112.04C301.011 112.543 300.466 112.903 299.85 113.063Z" fill="white"/>
<path opacity="0.1" d="M193.85 11.2939C165.573 18.3829 157.137 26.8618 150.044 55.125C149.884 55.7404 149.524 56.2852 149.021 56.6741C148.517 57.063 147.899 57.2739 147.263 57.2739C146.627 57.2739 146.009 57.063 145.505 56.6741C145.002 56.2852 144.642 55.7404 144.482 55.125C137.389 26.8618 128.906 18.3829 100.63 11.2939C100.014 11.1337 99.4689 10.7739 99.0798 10.2708C98.6908 9.7677 98.4797 9.14979 98.4797 8.51392C98.4797 7.87806 98.6908 7.26015 99.0798 6.75706C99.4689 6.25397 100.014 5.89411 100.63 5.73391C128.906 -1.35506 137.389 -9.83398 144.482 -38.0972C144.642 -38.7125 145.002 -39.2573 145.505 -39.6462C146.009 -40.0351 146.627 -40.2461 147.263 -40.2461C147.899 -40.2461 148.517 -40.0351 149.021 -39.6462C149.524 -39.2573 149.884 -38.7125 150.044 -38.0972C157.137 -9.83398 165.573 -1.35506 193.85 5.73391C194.465 5.89411 195.011 6.25397 195.4 6.75706C195.789 7.26015 196 7.87806 196 8.51392C196 9.14979 195.789 9.7677 195.4 10.2708C195.011 10.7739 194.465 11.1337 193.85 11.2939Z" fill="white"/>
</g>
<defs>
<clipPath id="clip0_2088_6062">
<rect width="1696" height="212" fill="white" transform="translate(-652 -36)"/>
</clipPath>
</defs>
</svg>
