<svg width="88" height="88" viewBox="0 0 88 88" fill="none" xmlns="http://www.w3.org/2000/svg">
<rect x="0.55" y="0.55" width="86.9" height="86.9" rx="43.45" fill="white"/>
<rect x="0.55" y="0.55" width="86.9" height="86.9" rx="43.45" stroke="black" stroke-width="1.1"/>
<rect x="2.7501" y="2.75156" width="82.5" height="82.5" rx="41.25" stroke="#FF4B4B" stroke-width="3.3"/>
<rect x="5.4998" y="5.49688" width="77" height="77" rx="38.5" stroke="#FF4B4B" stroke-opacity="0.4" stroke-width="4.4"/>
<g clip-path="url(#clip0_2588_74154)">
<path d="M43.9994 25.6641C40.3734 25.6641 36.8288 26.7393 33.8139 28.7538C30.799 30.7683 28.4492 33.6316 27.0616 36.9815C25.674 40.3315 25.3109 44.0177 26.0183 47.574C26.7257 51.1304 28.4718 54.3971 31.0357 56.961C33.5997 59.525 36.8664 61.2711 40.4227 61.9785C43.979 62.6859 47.6652 62.3228 51.0152 60.9352C54.3652 59.5476 57.2285 57.1977 59.243 54.1828C61.2575 51.1679 62.3327 47.6234 62.3327 43.9974C62.3327 41.5898 61.8585 39.2058 60.9371 36.9815C60.0158 34.7572 58.6654 32.7362 56.963 31.0338C55.2606 29.3314 53.2395 27.9809 51.0152 27.0596C48.7909 26.1383 46.4069 25.6641 43.9994 25.6641ZM51.3327 49.0391C51.3327 49.6468 51.0912 50.2297 50.6615 50.6595C50.2317 51.0893 49.6488 51.3307 49.041 51.3307H38.9577C38.3499 51.3307 37.767 51.0893 37.3372 50.6595C36.9075 50.2297 36.666 49.6468 36.666 49.0391V38.9557C36.666 38.3479 36.9075 37.765 37.3372 37.3353C37.767 36.9055 38.3499 36.6641 38.9577 36.6641H49.041C49.6488 36.6641 50.2317 36.9055 50.6615 37.3353C51.0912 37.765 51.3327 38.3479 51.3327 38.9557V49.0391Z" fill="#FF4B4B"/>
<path d="M49.6737 36.6562H38.3259C37.4095 36.6562 36.6665 37.3992 36.6665 38.3157V49.6635C36.6665 50.58 37.4095 51.3229 38.3259 51.3229H49.6737C50.5902 51.3229 51.3332 50.58 51.3332 49.6635V38.3157C51.3332 37.3992 50.5902 36.6562 49.6737 36.6562Z" fill="white"/>
</g>
<defs>
<clipPath id="clip0_2588_74154">
<rect width="44" height="44" fill="white" transform="translate(21.9995 21.9922)"/>
</clipPath>
</defs>
</svg>
