<svg width="40" height="40" viewBox="0 0 40 40" fill="none" xmlns="http://www.w3.org/2000/svg">
<path d="M10.8786 11.8108L2.79102 3.72283C2.83779 3.69 2.88656 3.6598 2.93659 3.63186L4.74597 2.62189C5.2123 2.36194 5.76729 2.42108 6.11468 2.76878L11.7998 8.45395C12.1417 8.79549 12.2054 9.33786 11.9587 9.80057L10.9604 11.673C10.9355 11.7198 10.9082 11.7659 10.8786 11.8108Z" fill="#64BF51"/>
<path d="M37.377 35.2526L36.3671 37.062C36.3391 37.112 36.3089 37.1608 36.2764 37.2079L28.1885 29.1199C28.233 29.0907 28.2791 29.0631 28.3259 29.038L30.1984 28.0397C30.6607 27.7931 31.2035 27.8568 31.545 28.1986L37.2301 33.8838C37.5779 34.2312 37.6373 34.7863 37.377 35.2526Z" fill="#64BF51"/>
<path d="M27.587 29.7801L35.6031 37.7962C35.5598 37.8177 35.516 37.8375 35.4711 37.8554L33.2985 38.7253C28.9207 40.4781 24.1749 40.4245 20.1653 38.5719C16.7539 36.9952 13.309 35.1699 9.07055 30.9311C4.83178 26.6926 3.00651 23.2477 1.43009 19.8363C-0.422848 15.8266 -0.476457 11.0809 1.27673 6.70305L2.14633 4.5307C2.16422 4.48551 2.18405 4.44168 2.20546 4.39844L10.2216 12.4146C10.1793 12.437 10.1364 12.4578 10.0926 12.477L9.42509 12.7659C8.6998 13.0798 8.2676 13.8613 8.41481 14.5976C8.77814 16.4148 9.49074 19.307 15.0927 24.909C20.6946 30.5113 23.5868 31.2236 25.4039 31.5869C26.1403 31.7341 26.9218 31.3019 27.2357 30.5766L27.5246 29.9091C27.5438 29.8652 27.5646 29.8223 27.587 29.7801Z" fill="#64BF51"/>
<path d="M38.9448 20.5288C38.362 20.5288 37.8896 20.0563 37.8896 19.4736C37.8896 17.2178 37.4619 15.0193 36.6183 12.9391C35.7451 10.786 34.4619 8.85375 32.8041 7.19593C31.1463 5.53812 29.214 4.25484 27.061 3.38171C24.9808 2.53815 22.7822 2.11043 20.5265 2.11043C19.9438 2.11043 19.4713 1.63798 19.4713 1.05521C19.4713 0.472444 19.9438 0 20.5265 0C23.0554 0 25.5207 0.479757 27.854 1.42601C30.2703 2.40583 32.4378 3.84505 34.2964 5.70363C36.155 7.56226 37.5942 9.72976 38.574 12.146C39.5202 14.4793 40 16.9446 40 19.4735C40 20.0563 39.5276 20.5288 38.9448 20.5288Z" fill="#64BF51"/>
<path d="M33.5339 20.5318C32.9512 20.5319 32.4787 20.0595 32.4786 19.4768C32.4782 16.2838 31.235 13.2823 28.9779 11.0252C26.7208 8.7681 23.7193 7.52485 20.5264 7.52449C19.9436 7.52443 19.4712 7.05194 19.4713 6.46917C19.4714 5.88645 19.9439 5.41406 20.5265 5.41406H20.5266C22.3526 5.41427 24.1328 5.76077 25.8177 6.44397C27.5628 7.15163 29.1282 8.19091 30.4702 9.5329C31.8122 10.8749 32.8515 12.4402 33.5591 14.1854C34.2423 15.8703 34.5888 17.6505 34.589 19.4765C34.5891 20.0593 34.1167 20.5317 33.5339 20.5318Z" fill="#64BF51"/>
<path d="M28.1221 20.5264C28.1221 20.5264 28.122 20.5264 28.1219 20.5264C27.5392 20.5263 27.0668 20.0538 27.0669 19.471C27.0673 17.7243 26.387 16.0819 25.1514 14.8462C23.9162 13.611 22.2737 12.9307 20.5265 12.9307C19.9438 12.9307 19.4713 12.4583 19.4713 11.8755C19.4713 11.2928 19.9438 10.8203 20.5265 10.8203C22.8374 10.8203 25.0099 11.7201 26.6437 13.354C28.278 14.9883 29.1778 17.1608 29.1773 19.4714C29.1772 20.0541 28.7048 20.5264 28.1221 20.5264Z" fill="#64BF51"/>
</svg>
