<svg width="258" height="120" viewBox="0 0 258 120" fill="none" xmlns="http://www.w3.org/2000/svg">
<path d="M257.329 69.4388C252.715 99.3174 228.491 119.998 201.782 119.998C200.145 119.998 198.492 119.919 196.824 119.762C151.703 115.314 106.254 115.314 61.1319 119.762C32.5359 122.515 5.52518 101.153 0.6448 69.421C0.215153 66.5827 -0.000388656 63.7161 5.26082e-07 60.8454C5.26082e-07 60.2531 -9.16755e-07 59.6609 0.0354928 59.0686C0.899172 31.3754 22.2368 6.68493 51.8918 3.78887C103.177 -1.26296 154.833 -1.26296 206.118 3.78887C235.755 6.68493 257.11 31.3755 257.974 59.0864C258.08 62.5498 257.864 66.0154 257.329 69.4388Z" fill="#E76114"/>
<path d="M256.335 58.4733C256.285 60.8535 256.078 63.2276 255.714 65.5802C251.13 95.1331 227.071 115.631 200.539 115.631C198.901 115.631 197.238 115.554 195.582 115.394C150.744 110.993 105.585 110.993 60.7473 115.394C32.3228 118.136 5.50141 96.9868 0.63286 65.604C0.274899 63.2506 0.0674285 60.8769 0.0117188 58.4971C0.524923 44.6777 6.03238 31.5148 15.5105 21.455C24.9886 11.3952 37.7925 5.12281 51.5426 3.80356C102.506 -1.19494 153.835 -1.19494 204.798 3.80356C218.545 5.1233 231.346 11.3925 240.824 21.447C250.302 31.5015 255.814 44.658 256.335 58.4733Z" fill="#FEDDCA"/>
<path d="M252.521 54.8548C252.516 57.3283 252.302 59.7969 251.882 62.2342C247.451 88.1447 224.161 106.06 198.481 106.06C196.884 106.06 195.293 105.995 193.696 105.853C150.27 101.997 106.588 101.997 63.1618 105.853C41.3154 107.766 20.4215 96.4539 10.3946 77.9522C7.7348 73.0363 5.90017 67.7162 4.96401 62.2045C4.53937 59.7457 4.32367 57.2553 4.31921 54.7601C4.31921 30.0873 25.1363 7.8368 54.2411 5.25463C103.597 0.883874 153.243 0.883874 202.599 5.25463C231.751 7.84272 252.55 30.1643 252.521 54.8548Z" fill="url(#paint0_linear_2825_34019)"/>
<path opacity="0.49" d="M252.52 54.8594C252.516 57.3328 252.302 59.8014 251.881 62.2387C247.451 88.1493 224.161 106.065 198.481 106.065C196.884 106.065 195.293 105.999 193.695 105.857C150.269 102.002 106.588 102.002 63.1616 105.857C41.3152 107.77 20.4213 96.4584 10.3943 77.9568C89.0779 99.7572 232.804 77.8857 252.52 54.8594Z" fill="#E3E3EB"/>
<path opacity="0.55" d="M64.8354 21.2468C73.882 21.2468 81.2157 19.0964 81.2157 16.4437C81.2157 13.7911 73.882 11.6406 64.8354 11.6406C55.7888 11.6406 48.4551 13.7911 48.4551 16.4437C48.4551 19.0964 55.7888 21.2468 64.8354 21.2468Z" fill="white"/>
<path opacity="0.55" d="M39.0438 21.5023C39.6886 23.4626 37.2336 26.0389 33.5541 27.253C29.8746 28.4671 26.3666 27.8452 25.7218 25.8967C25.077 23.9482 27.532 21.3542 31.2115 20.1401C34.891 18.926 38.4108 19.536 39.0438 21.5023Z" fill="white"/>
<path d="M92.012 38.9568C93.0367 41.0979 93.5529 43.447 93.5205 45.8209C93.5555 48.1855 93.039 50.5257 92.012 52.6554C91.1109 54.5561 89.7778 56.2193 88.1195 57.5117C84.9014 59.9913 81.571 61.233 78.1281 61.237H70.8637V67.8049C70.8747 68.4753 70.8451 69.1458 70.775 69.8126C70.686 70.3549 70.4996 70.8766 70.2248 71.3524C69.6806 72.3987 68.1701 72.9238 65.6934 72.9278C62.9841 72.9278 61.3928 72.2053 60.9314 70.772C60.6579 69.7897 60.5401 68.7705 60.5824 67.7516V35.4685C60.5717 34.7981 60.6013 34.1277 60.6711 33.4608C60.7582 32.918 60.9447 32.396 61.2212 31.921C61.7655 30.8747 63.2759 30.3516 65.7526 30.3516H78.1754C81.5867 30.3516 84.8995 31.5933 88.1136 34.0767C89.7785 35.3737 91.1142 37.0457 92.012 38.9568ZM81.636 49.6586C82.2062 49.2032 82.6575 48.6161 82.9512 47.9477C83.2448 47.2792 83.3721 46.5494 83.322 45.8209C83.3704 45.0883 83.2426 44.3547 82.9492 43.6818C82.6559 43.0088 82.2055 42.4162 81.636 41.9536C80.6563 41.1346 79.4277 40.6731 78.1517 40.6447H70.8637V50.9379H78.1813C79.4435 50.9107 80.66 50.4603 81.636 49.6586Z" fill="white"/>
<path d="M107.582 64.3737H123.382C124.332 64.3171 125.282 64.4666 126.168 64.8119C126.451 64.9418 126.703 65.1305 126.907 65.3654C127.111 65.6003 127.262 65.8759 127.352 66.1741C127.746 67.7988 127.746 69.4945 127.352 71.1193C127.286 71.3894 127.165 71.6427 126.996 71.863C126.827 72.0833 126.613 72.2658 126.37 72.3985C125.424 72.8353 124.387 73.0384 123.347 72.9908H102.411C99.6961 72.9908 98.1107 72.2564 97.6434 70.7817C97.3662 69.8204 97.2483 68.8201 97.2944 67.8205V35.4841C97.2837 34.8137 97.3133 34.1433 97.3831 33.4765C97.476 32.9351 97.6621 32.4141 97.9333 31.9366C98.4775 30.8903 99.988 30.3672 102.465 30.3672C105.174 30.3672 106.781 31.0838 107.286 32.517C107.518 33.5082 107.617 34.5259 107.582 35.5434V64.3737Z" fill="white"/>
<path d="M155.971 33.3779L171.653 65.8268C172.185 66.7341 172.522 67.7428 172.641 68.788C172.641 70.1857 171.519 71.4472 169.275 72.5724C168.321 73.1213 167.26 73.4586 166.164 73.5615C165.504 73.5878 164.854 73.4032 164.306 73.0344C163.881 72.7486 163.523 72.3725 163.259 71.9328C163.046 71.542 162.744 70.9616 162.36 70.1561L159.337 63.8724H143.247L140.23 70.1561C139.835 70.9458 139.534 71.5084 139.325 71.844C139.045 72.2615 138.692 72.6247 138.283 72.9159C137.743 73.3065 137.086 73.5026 136.42 73.4726C135.326 73.3703 134.266 73.033 133.314 72.4836C131.066 71.3978 129.942 70.1561 129.942 68.7584C130.065 67.7138 130.401 66.7057 130.93 65.7972L146.618 33.3128C147.041 32.4197 147.718 31.6717 148.565 31.1629C149.387 30.6338 150.344 30.3522 151.321 30.3516C153.416 30.3516 154.965 31.3603 155.971 33.3779ZM151.239 47.337L147.405 55.3027H155.131L151.239 47.337Z" fill="white"/>
<path d="M200.936 31.1644C202.837 32.4792 203.785 33.7584 203.781 35.0021C203.781 35.7365 203.337 36.7789 202.444 38.0818L189.891 56.8677V67.9781C189.902 68.6485 189.872 69.319 189.803 69.9858C189.713 70.5279 189.526 71.0495 189.252 71.5257C189.086 71.8239 188.862 72.0855 188.592 72.2951C188.323 72.5047 188.014 72.658 187.685 72.7457C185.74 73.2096 183.714 73.2096 181.769 72.7457C181.436 72.6568 181.125 72.4999 180.855 72.2848C180.585 72.0698 180.363 71.8012 180.202 71.496C179.932 71.0073 179.746 70.4768 179.651 69.9266C179.581 69.24 179.551 68.5498 179.563 67.8597V56.8677L167.016 38.0818C166.122 36.767 165.679 35.7128 165.679 35.0021C165.679 33.7584 166.531 32.574 168.234 31.4487C169.938 30.3234 171.159 29.751 171.896 29.7312C172.511 29.6967 173.12 29.8607 173.635 30.1991C174.488 30.8366 175.201 31.643 175.729 32.568L184.733 46.995L193.736 32.568C194.231 31.692 194.88 30.9133 195.653 30.2701C196.212 29.8986 196.87 29.7065 197.54 29.7194C198.256 29.7075 199.386 30.1932 200.936 31.1644Z" fill="white"/>
<defs>
<linearGradient id="paint0_linear_2825_34019" x1="252.521" y1="106.063" x2="75.8502" y2="33.9542" gradientUnits="userSpaceOnUse">
<stop stop-color="#E15404"/>
<stop offset="1" stop-color="#FF9050"/>
</linearGradient>
</defs>
</svg>
