<svg width="72" height="72" viewBox="0 0 72 72" fill="none" xmlns="http://www.w3.org/2000/svg">
<path d="M63.586 8.05488C62.7473 7.30521 54.9961 0.891357 35.9921 0.734375C16.9725 0.894561 9.23225 7.32442 8.42012 8.05167C-2.63898 17.3425 0.326876 48.4185 0.454943 49.7353C1.34361 59.5226 6.85832 65.9589 17.3021 69.4125C25.6186 72.1613 34.3413 72.0364 35.9937 71.9755C36.1952 71.9755 36.634 71.9947 37.2697 71.9947C40.1481 71.9947 47.6088 71.7416 54.6962 69.3997C65.1447 65.9461 70.6547 59.5098 71.5418 49.7353C71.6745 48.4313 74.6388 17.3521 63.586 8.05488Z" fill="#FF6F17"/>
<path d="M63.4455 7.25963C62.7895 6.67335 55.0617 0.156982 35.9937 0C16.9398 0.156982 9.21199 6.67335 8.55603 7.25963C-2.17977 16.2845 0.62678 46.2809 0.811072 48.1263C1.6685 57.5676 7.0817 63.8245 17.3661 67.2076C25.8655 70.0205 34.8583 69.8122 36.0062 69.7706C36.2061 69.7706 36.6434 69.7898 37.276 69.7898C40.2715 69.7898 47.626 69.5239 54.6447 67.2012C64.9245 63.8052 70.3377 57.5612 71.1998 48.1198C71.3747 46.2809 74.1828 16.2845 63.4455 7.25963Z" fill="#FF990F"/>
<path d="M62.7405 10.6634C62.7405 10.6634 55.3673 3.8587 35.9994 3.69531C16.6331 3.8587 9.2567 10.6634 9.2567 10.6634C-0.349925 18.6951 2.57532 47.4229 2.57532 47.4229C4.17773 65.3637 30.0193 66.3024 35.9978 66.0877C41.9764 66.3024 67.8179 65.3765 69.4203 47.4229C69.4203 47.4229 72.3471 18.6951 62.7405 10.6634Z" fill="#EA5303"/>
<path d="M60.929 12.1346C60.929 12.1346 53.5885 5.75604 34.9828 5.60547C16.3818 5.75604 9.55048 12.1346 9.55048 12.1346C0.618552 19.6634 4.49181 46.581 4.49181 46.581C6.69239 63.407 31.5515 64.2752 37.2896 64.0765C43.0417 64.2752 67.8321 63.407 68.7067 46.581C68.7067 46.581 70.4544 19.6634 60.929 12.1346Z" fill="url(#paint0_linear_2434_37230)"/>
<path d="M30.8752 5.76172C15.379 6.72283 9.55976 12.1435 9.55976 12.1435C0.627829 19.6723 4.50109 46.5931 4.50109 46.5931C4.57799 47.1817 4.6826 47.7536 4.81345 48.3007C4.51515 20.6942 15.7976 10.6282 30.8752 5.76172Z" fill="#EA5303"/>
<path d="M12.3852 14.2374C11.3044 12.2447 9.07884 13.0744 7.41084 16.0891C5.74284 19.1038 5.26806 23.1661 6.35194 25.1589C7.43583 27.1516 7.99964 24.0151 9.66608 20.994C11.3325 17.9729 13.4644 16.2301 12.3852 14.2374Z" fill="white"/>
<path d="M5.97482 25.9355C5.3501 25.4357 4.65822 25.7913 4.33805 27.0952C4.01788 28.3991 4.19437 30.1612 4.80659 30.6642C5.41882 31.1672 6.1841 30.5136 6.50427 29.2065C6.82444 27.8994 6.59173 26.4385 5.97482 25.9355Z" fill="white"/>
<path d="M67.6286 26.6562C67.5831 28.2475 67.4787 29.8294 67.3162 31.3881C65.6357 47.7079 57.8907 59.3246 47.5969 63.3997C56.7459 61.9836 68.1127 57.8797 68.6999 46.5866C68.7046 46.5866 69.37 36.293 67.6286 26.6562Z" fill="#EA5303"/>
<path d="M62.6809 53.8854C63.6774 55.3591 65.514 54.2442 66.7822 51.3961C68.0504 48.548 68.2722 45.0431 67.2757 43.5694C66.2793 42.0957 65.8701 44.5594 64.6082 47.4139C63.3463 50.2684 61.6845 52.4085 62.6809 53.8854Z" fill="white"/>
<path d="M24 35.9997V25.7573C24 23.0893 26.887 21.4218 29.1967 22.7558L38.0685 27.8778L46.9388 32.9998C49.2484 34.3339 49.2484 37.6673 46.9388 39.0013L38.0685 44.1233L29.1967 49.2453C26.887 50.5794 24 48.9118 24 46.2438V35.9997Z" fill="white"/>
<defs>
<linearGradient id="paint0_linear_2434_37230" x1="3.65625" y1="34.8516" x2="68.8327" y2="34.8516" gradientUnits="userSpaceOnUse">
<stop stop-color="#FFE000"/>
<stop offset="1" stop-color="#FF4B1F"/>
</linearGradient>
</defs>
</svg>
