<svg width="58" height="63" viewBox="0 0 58 63" fill="none" xmlns="http://www.w3.org/2000/svg">
<path d="M33.4217 60.5947C41.5755 58.9237 50.0368 55.0114 53.5324 50.3891C57.0281 45.7671 48.8988 45.9079 50.2117 42.3422C51.5245 38.7764 58.158 32.1887 51.7383 20.1561C45.3185 8.12388 25.4461 -1.28038 8.98742 14.8225C-10.0515 33.4498 3.55353 66.7167 33.4217 60.5947Z" fill="#FCE689"/>
<path d="M57.2681 43.8026C58.655 40.4703 53.014 39.6198 51.4419 42.0523C49.8701 44.4844 55.6947 47.5845 57.2681 43.8026Z" fill="#FCE689"/>
<path d="M55.6787 39.4914C57.909 37.9794 56.1614 35.3129 53.8839 37.3056C51.6058 39.2986 53.4484 41.0034 55.6787 39.4914Z" fill="#FCE689"/>
<path d="M36.1004 49.202H21.5988C14.3479 49.8692 10.9883 58.0496 10.9883 58.0496C16.6761 63.1051 28.8498 62.9998 28.8498 62.9998C28.8498 62.9998 41.0234 63.1051 46.7106 58.0496C46.7106 58.0496 43.351 49.8692 36.1004 49.202Z" fill="#F6764D"/>
<path d="M34.2178 52.9098C33.703 51.9435 33.8368 50.4943 34.0857 49.3192H23.6129C23.8619 50.4943 23.996 51.9435 23.4811 52.9098C22.5593 54.6395 19.0417 57.0212 19.0039 61.8029C24.0073 63.0404 28.8497 62.9998 28.8497 62.9998C28.8497 62.9998 33.692 63.0404 38.6954 61.8029C38.6572 57.0212 35.1393 54.6395 34.2178 52.9098Z" fill="#FFDDA3"/>
<path d="M16.714 52.599C15.9346 53.4919 16.6055 54.6623 17.4957 53.6851C18.386 52.7075 17.7563 51.4046 16.714 52.599Z" fill="#D85632"/>
<path d="M17.7834 55.3692C18.196 54.7365 17.5879 54.1513 17.1534 54.7588C16.5034 55.6676 17.3708 56.0026 17.7834 55.3692Z" fill="#D85632"/>
<path d="M15.3834 54.9706C14.6452 55.8828 15.0578 57.1206 15.8614 56.1214C16.665 55.1226 16.122 54.0584 15.3834 54.9706Z" fill="#D85632"/>
<path d="M13.0435 54.5542C13.1493 55.1254 13.7279 55.3462 14.6305 54.6999C15.865 53.8163 15.8258 52.4739 15.2054 52.1562C14.3526 52.927 13.633 53.7608 13.0435 54.5542Z" fill="#D85632"/>
<path d="M39.3238 57.3539C38.101 57.4558 38.1275 56.1008 39.0676 56.2718C40.0073 56.4424 40.0073 57.2971 39.3238 57.3539Z" fill="#D85632"/>
<path d="M40.2059 55.4814C39.4935 55.4814 39.6449 56.3059 40.3951 56.2641C41.1456 56.2219 40.9175 55.4814 40.2059 55.4814Z" fill="#D85632"/>
<path d="M41.0328 58.189C39.7456 57.5809 40.349 56.206 41.46 56.9127C42.5707 57.6194 42.1963 58.7387 41.0328 58.189Z" fill="#D85632"/>
<path d="M23.6179 52.6016C21.7222 52.2557 19.5317 51.7043 17.4395 50.8253C18.1037 50.4586 18.7858 50.1791 19.4902 49.9703C20.9043 50.4386 22.3701 50.7898 23.8303 51.0305C23.8446 51.5898 23.7892 52.1352 23.6179 52.6016ZM34.0774 52.5973C33.9058 52.1279 33.8514 51.5785 33.867 51.0155C35.3471 50.7762 36.8435 50.428 38.2888 49.955C38.9487 50.1545 39.6042 50.4307 40.2641 50.8127C38.1712 51.6954 35.9771 52.2497 34.0774 52.5973Z" fill="#F25D37"/>
<path d="M28.8373 53.1797C28.8373 53.1797 26.5904 53.1428 23.6182 52.6008C23.7894 52.1344 23.8449 51.589 23.8306 51.0297C25.4913 51.3035 27.1444 51.435 28.7065 51.435C28.7912 51.435 28.8755 51.4347 28.9598 51.4337C30.5076 51.4197 32.177 51.2879 33.8672 51.0148C33.8516 51.5777 33.906 52.1271 34.0777 52.5965C31.0945 53.1428 28.8373 53.1797 28.8373 53.1797Z" fill="#FBAD75"/>
<path d="M46.9404 57.9688C45.9734 55.6462 44.3615 53.4464 42.4708 51.8006C40.1136 49.7486 37.4578 48.9383 34.4092 48.9383C31.0181 48.9383 27.627 48.9383 24.2359 48.9383C21.3101 48.9383 18.785 49.1727 16.2755 50.9555C13.8749 52.6607 11.872 55.2449 10.7377 57.9688C10.6146 58.2639 11.0962 58.393 11.2181 58.1009C12.116 55.9446 13.7448 53.7322 15.5595 52.1528C17.9967 50.0311 20.6426 49.4362 23.732 49.4362C26.7885 49.4362 29.8453 49.4362 32.9019 49.4362C35.733 49.4362 38.1598 49.4402 40.6799 51.0674C43.1904 52.6883 45.3417 55.4155 46.4601 58.1009C46.5815 58.3924 47.0635 58.2646 46.9404 57.9688Z" fill="#8A312D"/>
<path d="M24.4255 16.5615C24.4255 16.5615 21.9236 15.1329 20.5165 12.9958C20.5165 12.9958 22.9805 11.0672 22.9211 8.61782C22.8623 6.16809 21.7493 5.43848 20.9507 6.2202C20.1517 7.00192 21.7951 9.95125 19.4125 11.2541C19.4125 11.2541 16.2902 7.75112 15.3425 3.19588C14.6073 -0.338976 12.991 0.739841 13.1172 2.82643C13.3133 6.07581 14.992 8.25302 14.992 8.25302C14.992 8.25302 14.6607 9.5559 13.2626 8.04423C11.8648 6.5329 11.4478 8.09635 12.4898 9.50379C13.5324 10.9109 15.0311 11.3799 16.1319 10.7024C16.1319 10.7024 19.2349 15.6832 22.393 17.1328L24.4255 16.5615Z" fill="#8A312D"/>
<path d="M14.7679 9.92969C14.4997 9.92969 14.2235 9.85268 13.9769 9.73783C13.4763 9.50448 12.7898 9.04506 12.6962 8.45818C12.6889 8.41271 12.7264 8.3752 12.7639 8.3752C12.7829 8.3752 12.8018 8.38483 12.8144 8.40807C13.2907 9.27012 14.1677 9.65849 15.0879 9.65849C15.2243 9.65816 15.3621 9.64986 15.4992 9.63293L15.5101 9.65948C15.296 9.85267 15.0358 9.92969 14.7679 9.92969Z" fill="#5E1513"/>
<path d="M16.1766 7.40625C15.0985 5.76911 14.3855 3.96401 14.251 1.99559C14.2497 1.97435 14.267 1.96272 14.2842 1.96272C14.2985 1.96272 14.3128 1.97069 14.3171 1.98663C14.8183 3.84086 15.3836 5.64629 16.2171 7.38268L16.1766 7.40625Z" fill="#5E1513"/>
<path d="M18.3663 12.3984C18.357 12.3984 18.3471 12.3951 18.3381 12.3875C16.1436 10.5193 14.7106 7.29117 14.1238 4.51646C14.1165 4.48327 14.1437 4.46137 14.1696 4.46137C14.1865 4.46137 14.2031 4.47099 14.2087 4.49289C14.9247 7.23308 16.454 10.2455 18.3969 12.3287C18.4254 12.3596 18.3985 12.3984 18.3663 12.3984Z" fill="#5E1513"/>
<path d="M20.1605 11.4922L20.1362 11.4733C20.9067 10.3473 21.139 9.17258 21.1633 7.83021C21.1643 7.78241 21.2074 7.75387 21.2476 7.75387C21.2788 7.75387 21.3086 7.77112 21.3159 7.80962C21.5699 9.14204 21.0487 10.505 20.1605 11.4922Z" fill="#5E1513"/>
<path d="M21.5566 10.4609L21.5264 10.448C21.9974 9.3267 21.9161 8.11842 21.6469 6.9616C21.6336 6.90418 21.6754 6.86933 21.7186 6.86933C21.7481 6.86933 21.778 6.88559 21.7919 6.92144C22.258 8.12042 22.0462 9.31474 21.5566 10.4609Z" fill="#5E1513"/>
<path d="M20.3823 13.9531C19.1475 12.7017 17.9067 11.4051 17.2066 9.76568C17.1854 9.71622 17.2249 9.67139 17.2647 9.67139C17.283 9.67139 17.3012 9.68069 17.3142 9.70293C18.1998 11.2226 19.2896 12.5736 20.4119 13.9239L20.3823 13.9531Z" fill="#5E1513"/>
<path d="M33.2617 16.5615C33.2617 16.5615 35.7632 15.1329 37.1703 12.9958C37.1703 12.9958 34.7067 11.0672 34.7661 8.61782C34.8252 6.16809 35.9378 5.43848 36.7368 6.2202C37.5355 7.00192 35.892 9.95125 38.2744 11.2541C38.2744 11.2541 41.397 7.75112 42.3443 3.19588C43.0796 -0.338976 44.6961 0.739841 44.57 2.82643C44.3738 6.07581 42.6955 8.25302 42.6955 8.25302C42.6955 8.25302 43.0265 9.5559 44.4246 8.04423C45.8228 6.5329 46.2393 8.09635 45.197 9.50379C44.1547 10.9109 42.6564 11.3799 41.555 10.7024C41.555 10.7024 38.4526 15.6832 35.2942 17.1328L33.2617 16.5615Z" fill="#8A312D"/>
<path d="M42.9414 9.92969C42.6506 9.92969 42.3811 9.84935 42.1753 9.66379L42.1862 9.63724C42.3237 9.65417 42.4611 9.6628 42.5975 9.6628C43.518 9.66247 44.395 9.27443 44.871 8.41238C44.8839 8.38914 44.9029 8.37951 44.9218 8.37951C44.959 8.37951 44.9968 8.41735 44.9898 8.4625C44.8693 9.21435 43.8104 9.92969 42.9414 9.92969Z" fill="#5E1513"/>
<path d="M41.5109 7.40625L41.4707 7.38268C42.3042 5.64629 42.8695 3.84052 43.3707 1.98663C43.3751 1.97069 43.3893 1.96272 43.4036 1.96272C43.4209 1.96272 43.4381 1.97435 43.4368 1.99559C43.3027 3.96301 42.589 5.76911 41.5109 7.40625Z" fill="#5E1513"/>
<path d="M39.3216 12.3984C39.2894 12.3984 39.2622 12.3596 39.291 12.3287C41.2339 10.2455 42.7635 7.23308 43.4792 4.49289C43.4848 4.47099 43.5014 4.46137 43.5183 4.46137C43.5442 4.46137 43.5711 4.48327 43.5641 4.51646C42.9776 7.28884 41.5419 10.5213 39.3498 12.3875C39.3405 12.3951 39.3309 12.3984 39.3216 12.3984Z" fill="#5E1513"/>
<path d="M37.5258 11.4922C36.6382 10.505 36.1167 9.14171 36.3703 7.80962C36.3776 7.77112 36.4075 7.75387 36.4387 7.75387C36.4792 7.75387 36.5223 7.78274 36.5233 7.83021C36.5476 9.17258 36.7799 10.3473 37.5507 11.4733L37.5258 11.4922Z" fill="#5E1513"/>
<path d="M36.131 10.4609C35.6421 9.31474 35.4296 8.12042 35.896 6.92144C35.91 6.88559 35.9398 6.86933 35.9694 6.86933C36.0125 6.86933 36.0544 6.90418 36.0411 6.9616C35.7715 8.11942 35.6899 9.32537 36.1616 10.448L36.131 10.4609Z" fill="#5E1513"/>
<path d="M37.3044 13.9531L37.2749 13.9239C38.3969 12.5742 39.4873 11.2222 40.3729 9.70293C40.3855 9.68069 40.4041 9.67139 40.422 9.67139C40.4622 9.67139 40.5014 9.71655 40.4801 9.76568C39.7797 11.4051 38.5393 12.7014 37.3044 13.9531Z" fill="#5E1513"/>
<path d="M40.1003 18.4437C33.9743 14.1311 23.7126 14.1311 17.5866 18.4437C8.4542 24.8721 7.56061 37.3591 10.2799 42.798C14.3568 50.9512 28.8434 51.1875 28.8434 51.1875C28.8434 51.1875 43.3304 50.9512 47.4066 42.798C50.1259 37.3591 49.2323 24.8721 40.1003 18.4437Z" fill="#FFDDA3"/>
<path d="M28.3993 50.9375C24.3443 50.9375 19.966 49.8381 16.4364 48.1014C12.9006 46.361 10.3144 43.6198 9.52274 39.6959C9.34813 38.8302 9.23827 37.9483 9.18848 37.0603C9.41586 38.4266 9.78763 39.6402 10.2789 40.6227C14.3558 48.7759 28.8424 49.0122 28.8424 49.0122C28.8424 49.0122 43.3294 48.7759 47.4057 40.6227C48.031 39.3723 48.4632 37.7474 48.6494 35.9101C48.6405 37.9997 48.2764 40.0634 47.495 41.9943C44.8381 48.5611 36.0874 50.4914 29.7526 50.895C29.3068 50.9236 28.8551 50.9375 28.3993 50.9375Z" fill="#FFCE85"/>
<path d="M48.2891 31.4399C47.3292 26.6961 44.8147 21.7644 40.1011 18.4463C33.9751 14.1337 23.7134 14.1337 17.5874 18.4463C12.8739 21.7641 10.3597 26.6958 9.39941 31.4396C10.3952 28.9527 12.7079 25.2724 17.7431 24.8668C25.4233 24.248 27.8594 35.7455 27.9756 37.8281H29.7126C29.8288 35.7455 32.2653 24.248 39.9454 24.8668C44.9807 25.2724 47.2933 28.953 48.2891 31.4399Z" fill="#F6764D"/>
<path d="M29.6848 16.3207C26.9712 15.2847 24.3635 17.1831 27.5169 19.036C31.2426 21.2248 34.7058 18.2373 29.6848 16.3207Z" fill="#D85632"/>
<path d="M24.1067 17.6874C22.3345 17.5397 21.8542 19.5818 24.3381 19.4975C26.8217 19.4131 25.3694 17.7926 24.1067 17.6874Z" fill="#D85632"/>
<path d="M26.4639 21.4557C25.0316 21.0623 25.7692 19.8348 26.8218 20.2769C27.8744 20.7191 27.5378 21.7504 26.4639 21.4557Z" fill="#D85632"/>
<path d="M30.5049 22.5286C28.9016 22.3852 28.4634 20.6972 31.0101 21.1603C33.5571 21.6233 32.8627 22.739 30.5049 22.5286Z" fill="#D85632"/>
<path d="M34.2582 19.3243C33.035 19.0723 32.7625 20.0549 34.0896 20.2899C35.278 20.5003 35.3948 19.5583 34.2582 19.3243Z" fill="#D85632"/>
<path d="M34.5964 18.5207C32.4142 17.9412 32.9968 16.2499 35.0385 16.8395C37.0803 17.4287 36.8665 19.1235 34.5964 18.5207Z" fill="#D85632"/>
<path d="M40.2264 18.224C31.5215 12.2935 18.5754 14.483 12.5905 23.1514C8.33831 29.3109 6.27529 40.3639 12.4531 46.0351C16.611 49.8525 23.4019 51.4796 28.9606 51.4285C35.0663 51.3728 43.0558 49.4913 46.7922 44.2845C49.2821 40.8153 49.3574 35.9481 48.6345 31.9053C47.6546 26.4266 44.7557 21.4969 40.2264 18.224C39.9661 18.0361 39.7175 18.4676 39.9747 18.6539C46.7494 23.5494 50.7582 33.9279 47.4962 41.9901C44.8394 48.5569 36.0887 50.4871 29.7539 50.8908C25.3404 51.1723 20.3639 50.0291 16.4377 48.0972C12.9019 46.3568 10.3157 43.6156 9.52401 39.6917C8.71141 35.6623 9.30294 31.2956 10.8239 27.5041C12.9566 22.1871 17.2188 17.8851 22.7815 16.2864C28.4387 14.6609 35.0544 15.3016 39.9747 18.6539C40.2403 18.8348 40.4899 18.4036 40.2264 18.224Z" fill="#8A312D"/>
<path d="M19.1987 31.2989C15.3163 31.2007 14.5791 35.8691 15.9062 37.9826C16.5698 39.0392 17.3993 39.7734 19.1987 39.7734C20.9404 39.7734 21.8277 39.0392 22.4913 37.9826C23.8181 35.8691 23.0811 31.2007 19.1987 31.2989Z" fill="white"/>
<path d="M23.1623 34.1491C22.362 31.467 19.1989 29.9792 16.7645 31.7734C14.8837 33.1595 14.57 36.1709 15.692 38.1138C15.852 38.391 16.2825 38.1407 16.1218 37.8622C15.2196 36.3004 15.3458 33.9559 16.5922 32.6002C18.5702 30.4486 21.9162 31.7143 22.6823 34.2815C22.7736 34.5876 23.2543 34.4571 23.1623 34.1491Z" fill="#8A312D"/>
<path d="M22.6668 35.675C22.6668 37.3516 21.5671 38.7109 20.2104 38.7109C18.8541 38.7109 17.7544 37.3516 17.7544 35.675C17.7544 33.998 18.8541 32.6387 20.2104 32.6387C21.5671 32.6387 22.6668 33.998 22.6668 35.675Z" fill="#8A312D"/>
<path d="M38.4874 31.2989C42.3695 31.2007 43.1067 35.8691 41.78 37.9826C41.1164 39.0392 40.2869 39.7734 38.4874 39.7734C36.7457 39.7734 35.8581 39.0392 35.1946 37.9826C33.8678 35.8691 34.605 31.2007 38.4874 31.2989Z" fill="white"/>
<path d="M35.0051 34.2814C35.7725 31.7089 39.1188 30.4512 41.0949 32.6002C42.341 33.9548 42.4671 36.301 41.5652 37.8621C41.4049 38.1403 41.8348 38.3912 41.9951 38.1137C43.1174 36.1708 42.8034 33.1591 40.9229 31.7733C38.4901 29.9801 35.3251 31.4679 34.5247 34.149C34.4331 34.4567 34.9134 34.5882 35.0051 34.2814Z" fill="#8A312D"/>
<path d="M35.021 35.675C35.021 37.3516 36.1204 38.7109 37.477 38.7109C38.8337 38.7109 39.9331 37.3516 39.9331 35.675C39.9331 33.998 38.8337 32.6387 37.477 32.6387C36.1204 32.6387 35.021 33.998 35.021 35.675Z" fill="#8A312D"/>
<path d="M15.3625 42.5633C11.6199 41.7052 12.8168 39.1459 15.3625 39.7544C18.8864 40.5972 18.4247 43.2653 15.3625 42.5633Z" fill="#FF8285"/>
<path d="M42.3244 42.5633C46.067 41.7052 44.87 39.1459 42.3244 39.7544C38.8005 40.5972 39.2622 43.2653 42.3244 42.5633Z" fill="#FF8285"/>
<path d="M17.4918 30.8341C18.1487 30.5526 19.0476 30.3541 20.0889 30.7282C20.8335 30.9958 21.2461 30.3993 20.7007 29.9724C20.072 29.4805 18.4956 29.1947 17.3935 29.7361C16.2918 30.2771 16.3672 30.6463 16.4555 30.8567C16.5434 31.0668 16.8741 31.0987 17.4918 30.8341Z" fill="#8A312D"/>
<path d="M40.1938 30.8341C39.5365 30.5526 38.6376 30.3541 37.5966 30.7282C36.8518 30.9958 36.4392 30.3993 36.9849 29.9724C37.6132 29.4805 39.1896 29.1947 40.2917 29.7361C41.3937 30.2771 41.3181 30.6463 41.2301 30.8567C41.1418 31.0668 40.8115 31.0987 40.1938 30.8341Z" fill="#8A312D"/>
<path d="M28.5947 38.7164C28.5947 39.9808 28.5947 41.2451 28.5947 42.5095C28.5947 42.8298 29.0926 42.8305 29.0926 42.5095C29.0926 41.2451 29.0926 39.9808 29.0926 38.7164C29.0926 38.3961 28.5947 38.3957 28.5947 38.7164Z" fill="#8A312D"/>
<path d="M24.1033 41.0494C24.7313 41.0438 24.6015 41.467 24.7506 41.9609C24.9092 42.4844 25.1735 42.9906 25.6186 43.3249C26.7197 44.1508 28.1878 43.621 29.0197 42.6799C29.2315 42.4409 28.8806 42.0874 28.6678 42.3281C28.0657 43.0089 27.1379 43.4643 26.2387 43.0998C25.5831 42.8343 25.3003 42.1694 25.1529 41.5224C25.0015 40.8589 24.8913 40.5445 24.1033 40.5515C23.783 40.5545 23.7823 41.0524 24.1033 41.0494Z" fill="#8A312D"/>
<path d="M33.5835 40.5514C32.7911 40.5445 32.6859 40.8571 32.5339 41.5224C32.4024 42.0993 32.1634 42.7183 31.6207 43.0271C30.7082 43.5469 29.648 43.039 29.0189 42.328C28.8065 42.0873 28.4553 42.4405 28.6671 42.6798C29.4996 43.6212 30.9671 44.1507 32.0682 43.3248C32.4904 43.0078 32.75 42.5361 32.91 42.0422C33.0773 41.5267 32.9259 41.0434 33.5835 41.0493C33.9041 41.0523 33.9045 40.5544 33.5835 40.5514Z" fill="#8A312D"/>
<path d="M30.4833 36.6484C29.9183 36.2378 27.6445 36.2378 27.0795 36.6484C26.6088 36.9906 26.246 37.6881 26.7678 38.6162C27.29 39.5446 30.2728 39.5446 30.795 38.6162C31.3168 37.6881 30.9546 36.9906 30.4833 36.6484Z" fill="#8A312D"/>
<path d="M27.0494 37.9766C27.0272 37.9766 27.0049 37.9643 26.9973 37.9381C26.7148 36.9887 27.5991 36.67 28.5435 36.67C29.2366 36.67 29.9615 36.8417 30.2822 37.0611C30.3639 37.1172 30.3244 37.2383 30.2337 37.2383C30.2258 37.2383 30.2175 37.2373 30.2085 37.2353C29.7952 37.1397 29.0238 36.923 28.3533 36.923C27.6794 36.923 27.1075 37.1421 27.1042 37.9235C27.1038 37.958 27.0766 37.9766 27.0494 37.9766Z" fill="#AD403B"/>
<path d="M19.014 18.556C19.014 18.556 16.3345 19.8688 13.6425 16.3894C10.9508 12.9096 8.12793 9.56165 5.7645 9.88961C3.40107 10.2179 3.59791 25.318 13.7082 23.0199L19.014 18.556Z" fill="#F6764D"/>
<path d="M16.1374 20.4609C16.1374 20.4609 14.1839 21.3917 11.4759 18.0035C9.37504 15.3752 9.72359 13.7411 6.68333 11.926C6.68333 11.926 5.05747 16.2758 8.06222 19.8701C11.1357 23.5467 14.8786 22.0366 14.8786 22.0366" fill="#FFDDA3"/>
<path d="M16.0116 20.2476C13.9519 21.1458 11.5822 17.8898 10.7457 16.5222C9.55932 14.584 8.80051 12.9674 6.80919 11.7127C6.66413 11.6214 6.4955 11.7167 6.44372 11.8614C4.63596 16.8857 8.98274 24.5725 14.9448 22.2781C15.2409 22.1642 15.1124 21.6826 14.8126 21.7978C12.2315 22.7913 9.44614 21.3755 7.9285 19.265C6.82114 17.7252 6.37368 15.8839 6.52438 14.0004C6.55757 13.5815 6.57782 12.7344 6.81715 12.3328C6.85466 12.2697 6.84072 12.1339 6.89316 12.0815C6.74611 12.2279 7.6636 12.909 7.71705 12.9545C9.91284 14.817 10.4974 17.8998 12.8243 19.7374C13.7136 20.4398 15.1028 21.1833 16.2632 20.6775C16.5563 20.5497 16.3031 20.1205 16.0116 20.2476Z" fill="#8A312D"/>
<path d="M11.1901 15.5663C10.3191 15.1033 10.6932 14.2402 11.3564 14.7614C12.0196 15.2822 11.9469 15.969 11.1901 15.5663Z" fill="#D85632"/>
<path d="M15.4938 18.1242C14.9003 17.7564 14.2726 17.2077 13.6435 16.3948C13.5426 16.264 13.4411 16.1335 13.3395 16.0031C12.3105 15.9111 11.1092 16.3828 12.1634 17.676C13.1708 18.9115 14.9076 18.8637 15.4938 18.1242Z" fill="#D85632"/>
<path d="M18.1708 18.5285C15.8087 18.7343 14.3701 16.899 13.045 15.23C11.7215 13.563 10.332 11.8063 8.5704 10.5768C7.33823 9.71709 5.48699 8.95828 4.73514 10.6618C3.3214 13.8654 4.61962 18.9388 6.8921 21.4207C8.69488 23.3895 11.2482 23.7928 13.7733 23.2647C14.0866 23.1989 13.9538 22.7189 13.6405 22.7843C7.552 24.058 4.48884 18.3489 4.78759 12.9957C4.82742 12.2857 4.87323 11.1511 5.3406 10.5523C6.47086 9.10367 8.96442 11.4571 9.78664 12.2591C12.164 14.5801 14.24 19.3687 18.1708 19.0264C18.4875 18.9989 18.4905 18.501 18.1708 18.5285Z" fill="#8A312D"/>
<path d="M38.6724 18.5557C38.6724 18.5557 41.3521 19.8689 44.0438 16.3891C46.7352 12.9097 49.5584 9.56138 51.9218 9.88967C54.2856 10.2176 54.0884 25.3177 43.9781 23.02L38.6724 18.5557Z" fill="#F6764D"/>
<path d="M51.7376 12.36C50.0507 13.2609 51.2038 15.4833 52.0699 14.521C52.9359 13.5587 52.8081 11.7881 51.7376 12.36Z" fill="#D85632"/>
<path d="M47.9013 16.7106C49.0562 16.692 50.7242 15.6384 48.4789 14.9968C46.2337 14.3552 45.8898 16.7425 47.9013 16.7106Z" fill="#D85632"/>
<path d="M51.7064 9.86842C50.3215 9.80535 48.7886 10.9406 47.2222 12.5834C47.3981 13.7986 48.4337 14.6607 50.0171 13.5214C51.2712 12.6192 51.8813 10.9532 51.7064 9.86842Z" fill="#D85632"/>
<path d="M41.5498 20.4611C41.5498 20.4611 43.503 21.3915 46.2113 18.0034C48.3125 15.3751 47.9639 13.7413 51.0038 11.9262C51.0038 11.9262 52.6294 16.2756 49.625 19.8702C46.5519 23.5468 42.8085 22.0365 42.8085 22.0365" fill="#FFDDA3"/>
<path d="M41.4234 20.677C42.5719 21.1779 43.9541 20.4526 44.8367 19.7568C47.1766 17.9119 47.7641 14.8232 49.9692 12.954C50.0735 12.8657 51.0832 12.2091 50.7818 12.0485C50.816 12.0671 50.8628 12.3227 50.8694 12.3323C51.0985 12.6719 51.1098 13.4446 51.1479 13.8234C51.3225 15.5598 50.9893 17.3393 50.0675 18.834C48.6172 21.1858 45.6234 22.8559 42.8739 21.7976C42.5745 21.6824 42.4451 22.1638 42.7415 22.2779C48.7052 24.573 53.0496 16.8845 51.2429 11.8613C51.1904 11.7162 51.0225 11.6209 50.8771 11.7126C48.8871 12.9663 48.1256 14.5852 46.9409 16.5221C46.0981 17.8996 43.741 21.1483 41.6743 20.2471C41.3835 20.1203 41.1299 20.5492 41.4234 20.677Z" fill="#8A312D"/>
<path d="M39.5156 19.0206C43.3748 19.3562 45.3999 14.7511 47.7073 12.4415C48.5232 11.6249 51.1223 9.07457 52.3136 10.4916C52.8102 11.0825 52.8587 12.2785 52.8985 12.9898C53.1969 18.3427 50.1348 24.0521 44.0453 22.7785C43.7329 22.7131 43.5988 23.1927 43.9132 23.2585C48.7639 24.2732 52.1055 21.2117 53.0937 16.607C53.5339 14.5556 54.1908 8.45252 50.401 9.86129C48.3502 10.6238 46.7603 12.6383 45.4172 14.2622C43.8568 16.1489 42.3291 18.7673 39.5156 18.5226C39.1963 18.4951 39.1983 18.993 39.5156 19.0206Z" fill="#8A312D"/>
</svg>
