<svg width="72" height="72" viewBox="0 0 72 72" fill="none" xmlns="http://www.w3.org/2000/svg">
<g filter="url(#filter0_d_2434_41821)">
<g clip-path="url(#clip0_2434_41821)">
<rect width="72" height="72" rx="36" fill="#CCECFB"/>
<path d="M36.4502 71.8125C26.5103 71.8121 15.2105 68.305 9.76602 61.9653C5.25687 56.7151 13.8263 54.4602 11.616 50.4968C9.40614 46.5334 -0.0607862 39.839 5.70189 24.6053C8.43816 17.3721 20.3866 2.76595 41.8138 5.30107C63.2405 7.8362 43.9851 18.1055 58.8549 21.9595C71.6098 25.2645 79.1747 71.8133 36.4502 71.8125Z" fill="#CCECFB"/>
<path d="M3.56064 53.5051C1.3069 49.8307 7.80439 47.7816 10.1098 50.3599C12.4149 52.9383 6.11816 57.6751 3.56064 53.5051Z" fill="#CCECFB"/>
<path d="M4.63658 48.1378C1.72521 46.7678 3.29262 43.2975 6.34928 45.2261C9.4059 47.1551 7.54798 49.5079 4.63658 48.1378Z" fill="#CCECFB"/>
<path d="M57.6057 20.3515C53.4861 18.4859 52.3297 14.134 57.725 15.6895C63.1199 17.2451 62.1927 22.4295 57.6057 20.3515Z" fill="#CCECFB"/>
<path d="M54.0867 14.1079C52.7083 12.7502 55.0325 8.91717 56.4811 10.7276C57.9292 12.5389 55.4345 15.4355 54.0867 14.1079Z" fill="#CCECFB"/>
<path d="M44.5257 57.5842L27.2076 57.459C18.543 58.1924 14.46 67.9324 14.46 67.9324C21.2086 74.0195 35.7474 73.9988 35.7474 73.9988C35.7474 73.9988 50.2846 74.23 57.1205 68.2417C57.1205 68.2417 53.1789 58.4432 44.5257 57.5842Z" fill="#4B496B"/>
<path d="M57.381 68.146C54.893 62.0487 49.4906 57.3261 42.7748 57.2777C38.7456 57.2484 34.7163 57.2194 30.6875 57.1901C27.1649 57.1647 24.118 57.311 21.0469 59.3982C18.1067 61.3961 15.6212 64.4922 14.227 67.7726C14.0927 68.0885 14.5578 68.364 14.6933 68.0449C15.7856 65.4745 17.5712 63.0472 19.6388 61.19C22.5224 58.6006 25.7373 57.6939 29.4847 57.7209C33.2297 57.7483 36.9743 57.7756 40.719 57.8026C44.0204 57.8263 46.8647 57.8334 49.8165 59.6979C52.9046 61.6479 55.4789 64.9032 56.8605 68.2895C56.9897 68.6067 57.5122 68.4679 57.381 68.146Z" fill="#232345"/>
<path d="M49.5762 20.8847C47.7138 19.5531 45.5244 18.5589 43.1764 17.8985H43.1843C44.8933 17.879 46.584 17.259 44.7316 16.7817C42.8791 16.3044 40.0272 16.5157 40.0272 16.5157C40.0272 16.5157 42.4704 15.0403 41.0754 15.0018C39.276 14.9527 37.544 16.1661 37.544 16.1661C37.544 16.1661 36.9403 12.5491 36.042 13.007C35.1441 13.4645 35.5889 16.1189 35.5889 16.1189C35.5889 16.1189 32.9202 13.9124 32.6839 14.4742C32.448 15.0359 33.663 16.5693 33.663 16.5693C32.3414 16.0293 29.1304 15.4755 29.0542 16.0384C28.9777 16.6014 30.5107 17.1096 30.5107 17.1096C26.6662 17.1151 27.6588 18.2378 27.6588 18.2378L27.6715 18.2374C25.8658 18.8443 24.1763 19.6594 22.6897 20.6897C11.7284 28.2879 10.553 43.1926 13.7535 49.711C18.5513 59.4832 35.8497 59.8906 35.8497 59.8906C35.8497 59.8906 53.1524 59.7338 58.091 50.0325C61.3857 43.5609 60.4263 28.6407 49.5762 20.8847Z" fill="#4B496B"/>
<path d="M45.8446 25.8574C41.7111 26.8734 38.0676 32.4519 38.2567 38.4259C38.4458 44.4 39.6454 47.3145 39.6454 47.3145L35.9547 47.2876L32.264 47.261C32.264 47.261 33.5056 44.364 33.7811 38.3938C34.057 32.4225 30.4944 26.7921 26.3763 25.7162C22.2579 24.64 16.2856 30.8154 15.0009 39.6973C13.7162 48.5795 18.6252 52.7994 22.2733 54.6273C25.9212 56.4548 27.1422 56.3478 27.3075 58.6498C27.4728 60.9519 23.6858 61.7161 20.9552 66.2073C19.8277 68.0626 19.2109 69.5634 18.8831 70.7301C26.1075 74.0115 35.7473 73.9988 35.7473 73.9988C35.7473 73.9988 45.4078 74.1512 52.6821 70.9636C52.3701 69.7937 51.7755 68.2877 50.6782 66.4225C48.0135 61.8921 44.2379 61.0736 44.4365 58.7739C44.6347 56.4743 45.8541 56.5995 49.5286 54.8248C53.2026 53.0496 58.1722 48.9014 57.0162 40.0013C55.8602 31.1016 49.9781 24.8409 45.8446 25.8574Z" fill="#EAEBFF"/>
<path d="M45.176 60.5703C44.6685 60.0133 44.3776 59.4614 44.4366 58.7796C44.4366 58.7776 44.437 58.7753 44.437 58.7733C45.0753 58.6238 45.7262 58.4546 46.3831 58.2627C47.3028 58.4815 48.2118 58.8093 49.1271 59.3033C47.8134 59.8235 46.4739 60.2389 45.176 60.5703Z" fill="#403F5F"/>
<path d="M49.127 59.3047C48.2117 58.8107 47.3027 58.4829 46.383 58.2641C46.5713 58.2094 46.7608 58.1523 46.9495 58.0936C47.8355 58.3743 48.6624 58.7446 49.4283 59.1835C49.3276 59.2242 49.2277 59.2646 49.127 59.3047Z" fill="#1E1E3D"/>
<path d="M26.537 60.4297C25.2593 60.0844 23.9412 59.6567 22.6492 59.1271C23.5467 58.6831 24.4767 58.3568 25.4444 58.1309C26.0727 58.322 26.6963 58.4923 27.3076 58.6446C27.3567 59.3296 27.0559 59.8783 26.537 60.4297Z" fill="#403F5F"/>
<path d="M22.6492 59.1484C22.5267 59.0981 22.405 59.0473 22.2829 58.9955C23.0547 58.568 23.8868 58.2097 24.7768 57.9417C24.9996 58.0143 25.2224 58.0844 25.4444 58.1523C24.4767 58.3782 23.5467 58.7045 22.6492 59.1484Z" fill="#1E1E3D"/>
<path d="M35.8353 61.8672C35.8353 61.8672 31.4818 61.7642 26.5368 60.4278C27.0557 59.8764 27.3566 59.3277 27.3074 58.6427C31.8873 59.7816 35.775 59.8832 35.8484 59.8851C35.8492 59.8851 35.8496 59.8851 35.8496 59.8851C35.8496 59.8851 35.8496 59.8851 35.8504 59.8851C35.9261 59.8843 39.83 59.8388 44.4369 58.7601C44.4369 58.7621 44.4365 58.7644 44.4365 58.7664C44.3774 59.4482 44.6684 60.0001 45.1758 60.5571C40.2027 61.8272 35.8353 61.8672 35.8353 61.8672Z" fill="#C9C9E1"/>
<path d="M13.5304 41.5234L13.5121 41.5211C13.4403 36.6427 14.6447 31.8174 17.468 27.8013C19.8058 24.4765 23.429 21.1786 27.4365 20.0833C27.4472 20.0802 27.4575 20.079 27.467 20.079C27.5728 20.079 27.6303 20.2359 27.5249 20.2926C23.5254 22.4341 20.0667 24.6323 17.4836 28.491C14.7906 32.5147 14.1724 36.833 13.5304 41.5234Z" fill="#696696"/>
<path d="M58.4506 41.8672H58.4319C57.8456 37.0701 57.2569 32.6504 54.5093 28.5371C51.9897 24.7643 48.6237 22.5872 44.7482 20.439C44.644 20.3811 44.7003 20.2249 44.8049 20.2249C44.8152 20.2249 44.8259 20.2265 44.8366 20.2297C48.827 21.3832 52.402 24.7287 54.6925 28.0895C57.4583 32.1473 58.5933 36.9888 58.4506 41.8672Z" fill="#696696"/>
<path d="M44.437 58.7656C44.6372 56.4731 45.8578 56.596 49.5287 54.8232C50.8198 54.1992 52.2711 53.2823 53.5603 51.9685C55.4476 50.6778 57.0611 49.0441 58.1132 46.9776C58.9802 45.2745 59.5482 42.9836 59.7235 40.3954C59.9169 44.2141 59.289 47.6701 58.0985 50.0181C58.0981 50.0185 58.0977 50.0193 58.0977 50.0197C58.0954 50.0241 58.0934 50.0284 58.091 50.0328C55.923 54.2912 51.3732 56.7105 46.9495 58.0849C46.9495 58.0849 46.9495 58.0849 46.9491 58.0849C46.1016 58.3482 45.258 58.5733 44.437 58.7656Z" fill="#403F5F"/>
<path d="M13.741 49.69C13.7406 49.6889 13.7399 49.6877 13.7394 49.6865C13.7399 49.6877 13.7404 49.6889 13.741 49.69ZM13.7339 49.6754C13.7333 49.6738 13.7325 49.6722 13.7317 49.671C13.7325 49.6726 13.7331 49.6738 13.7339 49.6754ZM13.7276 49.6623C13.7269 49.6611 13.7263 49.6599 13.7257 49.6583C13.7263 49.6595 13.7269 49.6611 13.7276 49.6623ZM13.7061 49.6179C13.706 49.6175 13.7059 49.6171 13.7059 49.6171C13.706 49.6175 13.706 49.6175 13.7061 49.6179Z" fill="#97C9D1"/>
<path d="M27.3076 58.6562C26.4806 58.4505 25.6311 58.2111 24.7772 57.932L24.7768 57.9323C20.3737 56.4942 15.8596 54.009 13.7535 49.7193C13.7515 49.7153 13.7494 49.7114 13.7476 49.7074C13.747 49.7062 13.7462 49.7046 13.7456 49.7034C13.7441 49.7003 13.7426 49.6975 13.7411 49.6943C13.7405 49.6931 13.74 49.6919 13.7395 49.6908C13.7377 49.6872 13.7358 49.6836 13.734 49.6797C13.7332 49.6781 13.7326 49.6769 13.7318 49.6753C13.7304 49.6721 13.729 49.6694 13.7276 49.6666C13.727 49.6654 13.7264 49.6638 13.7258 49.6626C13.7239 49.659 13.7221 49.6547 13.7202 49.6511C13.7196 49.6499 13.719 49.6487 13.7185 49.6475C13.7168 49.644 13.7154 49.6412 13.7138 49.6376C13.7134 49.6368 13.7128 49.6357 13.7125 49.6349C13.7103 49.6305 13.7083 49.6265 13.7062 49.6222C13.7061 49.6218 13.7061 49.6218 13.706 49.6214C13.7038 49.6166 13.7016 49.6123 13.6995 49.6079C12.5743 47.246 12.0153 43.8233 12.2607 40.0597C12.3984 42.6499 12.9335 44.9491 13.7755 46.6641C14.8129 48.777 16.4346 50.4519 18.3391 51.7795C19.5953 53.081 21.01 54.0007 22.2734 54.6337C25.9209 56.4613 27.1423 56.3542 27.3076 58.6562Z" fill="#403F5F"/>
<path d="M35.8496 59.8906C35.8496 59.8906 35.8493 59.8906 35.8485 59.8906C35.7751 59.8888 31.8874 59.7869 27.3075 58.6479C27.1422 56.3459 25.9209 56.4529 22.2734 54.6254C21.01 53.9923 19.5953 53.0726 18.3391 51.7712C25.2446 56.5853 35.8719 56.8355 35.8719 56.8355C35.8719 56.8355 46.5875 56.7383 53.5602 51.9682C52.2711 53.2819 50.8198 54.1989 49.5286 54.8228C45.8577 56.5956 44.6371 56.4727 44.437 58.7653C39.8297 59.8438 35.9266 59.8898 35.8504 59.8906C35.8497 59.8906 35.8496 59.8906 35.8496 59.8906Z" fill="#C9C9E1"/>
<path d="M44.437 58.7656C44.437 58.7653 44.437 58.7653 44.437 58.7653C45.258 58.573 46.1016 58.3478 46.9491 58.0846C46.9495 58.0846 46.9495 58.0846 46.9495 58.0846C46.7608 58.1433 46.5713 58.2004 46.383 58.2551C45.7262 58.4469 45.0753 58.6162 44.437 58.7656Z" fill="#373654"/>
<path d="M27.3076 58.6562C26.6963 58.504 26.0727 58.3337 25.4444 58.1426C25.2224 58.0748 24.9996 58.0047 24.7768 57.932L24.7772 57.9317C25.6311 58.2108 26.4806 58.4502 27.3076 58.6559C27.3076 58.6563 27.3076 58.6562 27.3076 58.6562Z" fill="#373654"/>
<path d="M35.8504 59.8906C35.9265 59.8898 39.8297 59.8438 44.4369 58.7653C44.4369 58.7653 44.4369 58.7653 44.4369 58.7656C39.8301 59.8443 35.9261 59.8898 35.8504 59.8906ZM35.8484 59.8906C35.7751 59.8888 31.8874 59.7872 27.3075 58.6482C27.3075 58.6482 27.3075 58.6482 27.3075 58.6479C31.8874 59.7869 35.7751 59.8888 35.8484 59.8906Z" fill="#ADACC7"/>
<path d="M36.1292 15.0347C36.4301 15.8656 36.6148 16.7159 36.8265 17.5714C36.8638 17.7236 37.1223 17.6963 37.1064 17.5338C37.0176 16.6303 36.7084 15.7697 36.3219 14.953C36.2711 14.8464 36.0888 14.9217 36.1292 15.0347Z" fill="#232345"/>
<path d="M34.0836 15.8533C34.5708 16.3849 35.0211 16.9621 35.406 17.573C35.7549 18.1264 35.9706 18.7952 36.367 19.3081C36.4371 19.3989 36.6393 19.3918 36.6207 19.2392C36.4601 17.904 35.1753 16.5661 34.193 15.7443C34.1173 15.6805 34.015 15.7788 34.0836 15.8533Z" fill="#232345"/>
<path d="M31.2219 16.6464C32.8099 17.3544 33.9564 18.4715 35.0993 19.7437C35.2127 19.8701 35.4184 19.7072 35.3324 19.5633C34.4456 18.0815 32.8492 17.1134 31.2385 16.6068L31.2219 16.6464Z" fill="#232345"/>
<path d="M28.9032 17.939C29.6742 18.0991 30.4266 18.333 31.1501 18.6458C31.7352 18.8987 32.2633 19.2705 32.8547 19.4993C32.9867 19.55 33.0775 19.3617 32.9875 19.2713C31.9937 18.2759 30.2637 17.9338 28.9139 17.8597C28.8687 17.8573 28.8584 17.9298 28.9032 17.939Z" fill="#232345"/>
<path d="M39.9361 15.5457C38.6838 16.3329 37.6975 17.5262 37.2289 18.9378C37.1556 19.1586 37.4981 19.2486 37.5754 19.033C38.063 17.6756 38.8558 16.5593 40.0364 15.7169C40.1383 15.6444 40.0463 15.4767 39.9361 15.5457Z" fill="#232345"/>
<path d="M42.9389 17.2426C41.5189 17.3334 40.133 17.7488 39.0543 18.7086C38.9068 18.8398 39.1046 19.1046 39.268 18.9857C40.391 18.1718 41.5589 17.5245 42.9488 17.3151C42.99 17.3092 42.9805 17.2398 42.9389 17.2426Z" fill="#232345"/>
<path d="M19.8256 49.4463C15.3638 48.3891 16.8152 45.343 19.85 46.0922C24.0509 47.1288 23.4769 50.3117 19.8256 49.4463Z" fill="#FFB6C3"/>
<path d="M52.0234 49.6816C56.5002 48.6889 55.0929 45.6226 52.0476 46.3271C47.832 47.303 48.3601 50.4935 52.0234 49.6816Z" fill="#FFB6C3"/>
<path d="M22.4704 35.46C23.2573 35.1294 24.3328 34.9003 25.5728 35.3558C26.46 35.682 26.9579 34.9728 26.3098 34.4583C25.5637 33.8652 23.6835 33.5108 22.363 34.1475C21.0421 34.7845 21.1294 35.2261 21.2328 35.4779C21.3359 35.7292 21.7303 35.7704 22.4704 35.46Z" fill="#232345"/>
<path d="M49.5814 35.6586C48.7992 35.3165 47.7277 35.0715 46.481 35.5095C45.5894 35.8231 45.1014 35.1068 45.7567 34.6017C46.5119 34.0194 48.3969 33.6919 49.7082 34.3476C51.0192 35.0033 50.926 35.4441 50.819 35.6942C50.712 35.9444 50.3171 35.9797 49.5814 35.6586Z" fill="#232345"/>
<path d="M24.4636 35.9655C19.8283 35.8144 18.9075 41.3834 20.4737 43.9189C21.2569 45.1863 22.2417 46.0703 24.3907 46.0857C26.4703 46.1008 27.5367 45.2318 28.3382 43.9756C29.941 41.4635 29.1014 35.8814 24.4636 35.9655Z" fill="white"/>
<path d="M29.1446 39.4035C28.2174 36.2115 24.4724 34.418 21.5666 36.5286C19.3198 38.1603 18.9243 41.738 20.2407 44.0559C20.4124 44.3579 20.8788 44.086 20.7068 43.7835C19.6373 41.9001 19.8106 39.0863 21.3208 37.4705C23.7192 34.9045 27.7258 36.4549 28.6241 39.5466C28.7208 39.8796 29.2417 39.738 29.1446 39.4035Z" fill="#232345"/>
<path d="M28.5661 41.239C28.5514 43.2417 27.2266 44.8556 25.6064 44.8437C23.9866 44.8318 22.6852 43.1989 22.6995 41.1966C22.7141 39.1943 24.039 37.5804 25.6591 37.5923C27.2793 37.6038 28.5804 39.2367 28.5661 41.239Z" fill="#232345"/>
<path d="M18.842 43.794C18.842 43.794 23.1844 43.7718 26.5921 47.0669C26.5921 47.0669 20.369 47.6116 18.842 43.794Z" fill="#EAEBFF"/>
<path d="M18.8418 44.0685C21.6252 44.0808 24.393 45.4088 26.4009 47.2621C26.6558 47.4972 27.0387 47.1166 26.7826 46.8803C24.6689 44.9295 21.7699 43.5417 18.8418 43.5282C18.4944 43.5266 18.4941 44.0669 18.8418 44.0685Z" fill="#232345"/>
<path d="M47.4977 36.1451C52.1351 36.0611 52.9751 41.6431 51.3724 44.1553C50.5708 45.4115 49.5738 46.2809 47.4248 46.2654C45.3447 46.2504 44.2911 45.3659 43.5081 44.0982C41.9415 41.5631 42.8624 35.9941 47.4977 36.1451Z" fill="white"/>
<path d="M43.2874 39.6455C44.2475 36.511 48.3961 35.0637 50.6985 37.782C52.1006 39.4378 52.2227 42.1585 51.1393 44.0034C50.9629 44.3039 51.4295 44.5758 51.6055 44.2761C52.9557 41.9773 52.6073 38.3928 50.3837 36.7314C47.5073 34.5808 43.7397 36.3255 42.7669 39.502C42.665 39.835 43.1859 39.9773 43.2874 39.6455Z" fill="#232345"/>
<path d="M43.3199 41.3446C43.3056 43.3474 44.6071 44.9802 46.2268 44.9921C47.847 45.0036 49.1719 43.3902 49.1865 41.3875C49.2008 39.3851 47.8997 37.7523 46.2796 37.7408C44.6594 37.7285 43.3345 39.3427 43.3199 41.3446Z" fill="#232345"/>
<path d="M53.1167 44.0342C53.1167 44.0342 48.7746 43.949 45.3198 47.1945C45.3198 47.1945 51.5341 47.8292 53.1167 44.0342Z" fill="#EAEBFF"/>
<path d="M53.1166 43.7676C50.1887 43.7387 47.2702 45.0881 45.1291 47.0072C44.8699 47.2395 45.2524 47.6205 45.5109 47.389C47.5465 45.5642 50.3333 44.2798 53.1166 44.308C53.4639 44.3111 53.4643 43.7712 53.1166 43.7676Z" fill="#232345"/>
<path d="M31.5136 48.2725C31.5136 48.2725 33.5037 51.8419 35.9214 51.8593C38.3396 51.8768 40.3812 48.3363 40.3812 48.3363L31.5136 48.2725Z" fill="#ED9A55"/>
<path d="M31.2567 48.4297C32.1875 50.0634 33.86 52.1505 35.9214 52.164C37.9824 52.1775 39.6838 50.1137 40.638 48.4939C40.753 48.2985 40.6055 48.0483 40.3811 48.0464C37.425 48.0253 34.4693 48.0039 31.5136 47.9825C31.1306 47.9794 31.1302 48.574 31.5136 48.5772C34.4693 48.5986 37.425 48.62 40.3811 48.641C40.2955 48.4919 40.2099 48.3429 40.1243 48.1938C39.2902 49.6102 37.7291 51.584 35.9214 51.5694C34.1109 51.5547 32.5819 49.5543 31.77 48.1296C31.5809 47.797 31.0668 48.0963 31.2567 48.4297Z" fill="#232345"/>
<path d="M39.4413 45.8065C38.3543 44.727 37.8714 43.5897 35.9678 43.5528C34.0642 43.5623 33.5651 44.6921 32.4626 45.7561C31.5711 46.616 30.2867 46.769 30.2867 46.769C31.8522 49.4492 34.4634 49.8254 35.9226 49.8357C37.3815 49.846 39.9982 49.5079 41.6018 46.8511C41.6018 46.8511 40.3201 46.6794 39.4413 45.8065Z" fill="#ED9A55"/>
<path d="M38.097 45.9453C38.0721 45.9453 38.0455 45.9366 38.0205 45.916C37.3593 45.3681 36.9474 44.7323 35.9889 44.6756C35.9429 44.6728 35.8973 44.6716 35.8517 44.6716C35.0478 44.6716 34.3211 45.089 33.8066 45.6936C33.7982 45.7035 33.7883 45.7075 33.7784 45.7075C33.7499 45.7075 33.7225 45.6718 33.7384 45.6409C34.1717 44.8187 34.9823 44.272 35.9147 44.272C35.9786 44.272 36.0432 44.2748 36.1078 44.2799C36.9379 44.3469 38.0661 44.9055 38.2017 45.8101C38.2136 45.8878 38.1601 45.9453 38.097 45.9453Z" fill="#FAE190"/>
<path d="M35.986 49.8359C35.9646 49.8359 35.9435 49.8355 35.9225 49.8355C34.5247 49.8256 32.0717 49.474 30.4919 47.0887C31.7379 47.6239 33.7133 48.2514 36.1148 48.2514C37.706 48.2514 39.4844 47.9759 41.3611 47.2148C39.7992 49.4593 37.4694 49.8233 36.0621 49.8355C36.0605 49.8355 36.0589 49.8355 36.0573 49.8355C36.0565 49.8355 36.0561 49.8355 36.0557 49.8355C36.032 49.8355 36.009 49.8359 35.986 49.8359Z" fill="#E47B38"/>
<path d="M39.6515 45.6032C38.3215 44.2046 37.2067 42.8429 35.0546 43.3741C34.2046 43.5842 33.6794 44.0738 33.074 44.6787C32.142 45.6107 31.2461 46.3267 29.8904 46.4753C29.6826 46.4983 29.4991 46.7156 29.6335 46.9229C32.414 51.1971 39.4152 51.2411 42.2552 47.0109C42.3947 46.8024 42.2024 46.5887 41.9983 46.5633C41.1488 46.4575 40.3175 46.1467 39.6515 45.6032C39.3573 45.363 38.9339 45.7816 39.2309 46.0234C40.0396 46.683 40.9648 47.0291 41.9983 47.158C41.9131 47.0089 41.8274 46.8599 41.7418 46.7104C39.1575 50.5601 32.6736 50.5069 30.1472 46.6228C30.0616 46.7718 29.976 46.9209 29.8904 47.07C31.0253 46.9451 32.0096 46.5693 32.8469 45.7955C33.8019 44.913 34.475 43.8233 35.9679 43.857C37.4965 43.8914 38.289 45.0327 39.2309 46.0234C39.4953 46.3013 39.9155 45.8807 39.6515 45.6032Z" fill="#232345"/>
<path d="M49.7261 20.6324C47.7293 19.2592 45.5732 18.3027 43.2553 17.6168C43.2287 17.8115 43.2026 18.0061 43.1764 18.2004C43.8138 18.1861 46.259 18.1255 45.7218 16.9493C45.1748 15.7509 41.0452 16.1544 40.0272 16.223C40.0772 16.4078 40.1271 16.5925 40.1771 16.7772C40.6651 16.4767 42.3479 15.5551 41.5756 14.8399C41.0595 14.3622 39.5356 14.9085 39.0322 15.0924C38.5414 15.2716 38.0887 15.5107 37.6324 15.7616C37.5975 15.7806 37.6681 16.317 37.7343 15.5927C37.8021 14.8494 37.1012 12.5188 36.0507 12.7048C34.8154 12.924 35.1802 15.4207 35.3022 16.2024C35.4676 16.1061 35.6333 16.0097 35.799 15.9134C35.2333 15.4496 33.5088 13.7212 32.691 14.1121C31.6908 14.5902 33.0847 16.3071 33.4529 16.784C33.5493 16.6183 33.646 16.4525 33.7423 16.2868C32.98 16.005 29.6223 14.7991 28.9147 15.7223C28.2642 16.5711 29.8518 17.197 30.4318 17.4012C30.458 17.2065 30.4841 17.0115 30.5107 16.8169C29.8122 16.8311 27.5431 16.6781 27.2755 17.7568C27.2109 18.0176 27.3092 18.5468 27.6715 18.5393C27.645 18.3447 27.6188 18.15 27.5926 17.955C17.5829 21.4942 11.7605 31.7802 11.9047 42.1368C11.9558 45.8053 12.7479 49.5312 15.1637 52.3946C17.8837 55.6191 21.9595 57.4553 25.9356 58.5934C30.4334 59.8807 34.9934 60.4622 39.6304 59.9072C46.8659 59.0414 56.0391 56.4718 58.8997 48.9267C62.6451 39.0474 57.9713 26.6822 49.7261 20.6324C49.4173 20.4061 49.1203 20.9218 49.426 21.1458C57.0821 26.7631 61.0237 37.212 58.9798 46.5275C57.184 54.7121 48.7893 57.8887 41.3326 59.0751C37.4195 59.6979 33.9314 59.6449 30.0282 58.9328C22.5505 57.5691 14.383 54.1531 12.8532 45.875C10.802 34.7752 16.9155 22.3596 27.7504 18.529C28.0529 18.4216 28.0243 17.9371 27.6715 17.9447C27.9776 17.9379 27.9395 17.7516 28.3732 17.622C29.0614 17.4174 29.8003 17.4258 30.5107 17.4115C30.8556 17.4048 30.902 16.9374 30.59 16.8276C29.3512 16.3919 29.8641 16.0387 31.0407 16.2155C31.9073 16.3451 32.7628 16.5568 33.5842 16.8605C33.8973 16.9762 34.0317 16.5683 33.8735 16.3638C33.6975 16.1354 33.1275 15.5206 33.1469 15.2383C33.1905 14.6012 33.3499 14.9565 33.7764 15.1467C34.3512 15.4036 34.8995 15.9412 35.3788 16.3336C35.6166 16.5291 35.9219 16.3435 35.8755 16.0446C35.7581 15.2922 35.768 12.6033 36.6814 14.0538C37.0493 14.6377 37.1401 15.5737 37.257 16.25C37.2891 16.4335 37.5452 16.5279 37.6939 16.4276C38.3495 15.9871 39.1959 15.5289 39.9832 15.4203C41.5071 15.2102 40.5719 15.8357 39.877 16.2639C39.6399 16.4097 39.72 16.8383 40.0272 16.8177C40.8466 16.7626 41.6791 16.7471 42.4993 16.7931C43.8761 16.8692 46.1991 17.5383 43.1764 17.6057C42.841 17.6137 42.7724 18.0937 43.0971 18.1901C45.3662 18.8616 47.4744 19.8039 49.426 21.1458C49.7423 21.3634 50.0401 20.8481 49.7261 20.6324Z" fill="#232345"/>
</g>
<rect x="1" y="1" width="70" height="70" rx="35" stroke="#4B496B" stroke-width="2"/>
<rect x="1" y="1" width="70" height="70" rx="35" stroke="black" stroke-opacity="0.2" stroke-width="2"/>
</g>
<defs>
<filter id="filter0_d_2434_41821" x="0" y="0" width="72" height="72" filterUnits="userSpaceOnUse" color-interpolation-filters="sRGB">
<feFlood flood-opacity="0" result="BackgroundImageFix"/>
<feColorMatrix in="SourceAlpha" type="matrix" values="0 0 0 0 0 0 0 0 0 0 0 0 0 0 0 0 0 0 127 0" result="hardAlpha"/>
<feOffset/>
<feComposite in2="hardAlpha" operator="out"/>
<feColorMatrix type="matrix" values="0 0 0 0 0 0 0 0 0 0 0 0 0 0 0 0 0 0 0.25 0"/>
<feBlend mode="normal" in2="BackgroundImageFix" result="effect1_dropShadow_2434_41821"/>
<feBlend mode="normal" in="SourceGraphic" in2="effect1_dropShadow_2434_41821" result="shape"/>
</filter>
<clipPath id="clip0_2434_41821">
<rect width="72" height="72" rx="36" fill="white"/>
</clipPath>
</defs>
</svg>
