<svg width="88" height="88" viewBox="0 0 88 88" fill="none" xmlns="http://www.w3.org/2000/svg">
<path d="M77.7178 9.8459C76.6927 8.92961 67.2188 1.09031 43.9912 0.898438C20.7446 1.09422 11.2841 8.9531 10.2915 9.84198C-3.22548 21.1976 0.399523 59.1802 0.556053 60.7896C1.64222 72.7522 8.38256 80.6189 21.1474 84.8401C31.3123 88.1998 41.9735 88.0471 43.9932 87.9727C44.2394 87.9727 44.7758 87.9962 45.5527 87.9962C49.0708 87.9962 58.1897 87.6868 66.8523 84.8244C79.6228 80.6032 86.3575 72.7365 87.4417 60.7896C87.604 59.1959 91.2271 21.2094 77.7178 9.8459Z" fill="#3B8902"/>
<path d="M77.5462 8.87306C76.7445 8.15648 67.2993 0.191871 43.9935 0C20.7048 0.191871 11.2596 8.15648 10.4578 8.87306C-2.66397 19.9037 0.766329 56.5667 0.991579 58.8222C2.03957 70.3618 8.65583 78.0093 21.226 82.1443C31.6142 85.5823 42.6057 85.3278 44.0087 85.2769C44.2531 85.2769 44.7876 85.3004 45.5607 85.3004C49.2219 85.3004 58.211 84.9753 66.7896 82.1364C79.354 77.9858 85.9703 70.354 87.024 58.8143C87.2378 56.5667 90.67 19.9037 77.5462 8.87306Z" fill="#FFFDF9"/>
<path d="M76.6871 13.0284C76.6871 13.0284 67.6752 4.71142 44.0028 4.51172C20.3324 4.71142 11.3167 13.0284 11.3167 13.0284C-0.42498 22.8452 3.1504 57.9576 3.1504 57.9576C5.10893 79.8857 36.6936 81.033 44.0009 80.7707C51.3082 81.033 82.8929 79.9014 84.8515 57.9576C84.8534 57.9576 88.4287 22.8452 76.6871 13.0284Z" fill="#3B8902"/>
<path d="M74.4692 14.8318C74.4692 14.8318 65.4973 7.0356 42.7566 6.85156C20.0215 7.0356 11.672 14.8318 11.672 14.8318C0.754958 24.0338 5.48904 56.9338 5.48904 56.9338C8.17868 77.4992 38.5627 78.5604 45.576 78.3176C52.6065 78.5604 82.9065 77.4992 83.9755 56.9338C83.9755 56.9338 86.1116 24.0338 74.4692 14.8318Z" fill="#58CC02"/>
<path d="M37.734 7.04297C18.7938 8.21769 11.6813 14.8431 11.6813 14.8431C0.764234 24.0451 5.49831 56.949 5.49831 56.949C5.5923 57.6684 5.72017 58.3674 5.8801 59.0361C5.51549 25.2942 19.3054 12.991 37.734 7.04297Z" fill="#6BE80E"/>
<path d="M15.1383 17.4004C13.8173 14.9648 11.0971 15.979 9.05842 19.6637C7.01971 23.3484 6.4394 28.3136 7.76418 30.7491C9.08896 33.1847 9.77807 29.3512 11.8149 25.6587C13.8517 21.9661 16.4573 19.836 15.1383 17.4004Z" fill="white"/>
<path d="M7.30461 31.7063C6.54105 31.0955 5.6954 31.5301 5.30408 33.1238C4.91275 34.7175 5.12846 36.8712 5.87675 37.4859C6.62504 38.1007 7.5604 37.3019 7.95173 35.7043C8.34305 34.1067 8.05862 32.3211 7.30461 31.7063Z" fill="white"/>
<path d="M82.6604 32.582C82.6048 34.527 82.4772 36.4604 82.2786 38.3656C80.2246 58.3123 70.7583 72.5108 58.1768 77.4916C69.3591 75.7608 83.2521 70.7448 83.9699 56.9418C83.9756 56.9418 84.7888 44.3606 82.6604 32.582Z" fill="#3B8902"/>
<path d="M76.6109 65.858C77.8288 67.6593 80.0737 66.2966 81.6237 62.8155C83.1737 59.3344 83.4448 55.0506 82.2269 53.2493C81.009 51.4481 80.5089 54.4593 78.9665 57.9482C77.4241 61.4371 75.393 64.0529 76.6109 65.858Z" fill="white"/>
<g clip-path="url(#clip0_2765_15301)">
<path d="M43.9998 49.5013C45.9448 49.5013 47.81 48.7287 49.1853 47.3534C50.5606 45.9782 51.3332 44.1129 51.3332 42.168V33.0013C51.3332 31.0564 50.5606 29.1911 49.1853 27.8159C47.81 26.4406 45.9448 25.668 43.9998 25.668C42.0549 25.668 40.1897 26.4406 38.8144 27.8159C37.4391 29.1911 36.6665 31.0564 36.6665 33.0013V42.168C36.6665 44.1129 37.4391 45.9782 38.8144 47.3534C40.1897 48.7287 42.0549 49.5013 43.9998 49.5013Z" fill="white"/>
<path d="M56.8332 42.1654C56.8332 41.6791 56.64 41.2128 56.2962 40.869C55.9524 40.5252 55.4861 40.332 54.9998 40.332C54.5136 40.332 54.0473 40.5252 53.7035 40.869C53.3597 41.2128 53.1665 41.6791 53.1665 42.1654C53.1665 44.5965 52.2007 46.9281 50.4816 48.6472C48.7626 50.3663 46.431 51.332 43.9998 51.332C41.5687 51.332 39.2371 50.3663 37.518 48.6472C35.7989 46.9281 34.8332 44.5965 34.8332 42.1654C34.8332 41.6791 34.64 41.2128 34.2962 40.869C33.9524 40.5252 33.4861 40.332 32.9998 40.332C32.5136 40.332 32.0473 40.5252 31.7035 40.869C31.3597 41.2128 31.1665 41.6791 31.1665 42.1654C31.1701 45.2487 32.2838 48.2278 34.3037 50.5574C36.3236 52.887 39.1147 54.4115 42.1665 54.852V58.6654H38.2982C37.8654 58.6654 37.4504 58.8373 37.1444 59.1433C36.8384 59.4493 36.6665 59.8643 36.6665 60.297V60.7004C36.6665 61.1331 36.8384 61.5481 37.1444 61.8541C37.4504 62.1601 37.8654 62.332 38.2982 62.332H49.7015C50.1342 62.332 50.5493 62.1601 50.8553 61.8541C51.1613 61.5481 51.3332 61.1331 51.3332 60.7004V60.297C51.3332 59.8643 51.1613 59.4493 50.8553 59.1433C50.5493 58.8373 50.1342 58.6654 49.7015 58.6654H45.8332V54.852C48.8849 54.4115 51.6761 52.887 53.696 50.5574C55.7159 48.2278 56.8296 45.2487 56.8332 42.1654Z" fill="white"/>
</g>
<defs>
<clipPath id="clip0_2765_15301">
<rect width="44" height="44" fill="white" transform="translate(22 22)"/>
</clipPath>
</defs>
</svg>
