<svg width="120" height="120" viewBox="0 0 120 120" fill="none" xmlns="http://www.w3.org/2000/svg">
<path d="M9.99902 60C9.99902 66.5661 11.2923 73.0679 13.805 79.1342C16.3178 85.2004 20.0008 90.7124 24.6437 95.3553C29.2866 99.9983 34.7986 103.681 40.8648 106.194C46.9311 108.707 53.4329 110 59.999 110C66.5651 110 73.0669 108.707 79.1332 106.194C85.1995 103.681 90.7114 99.9983 95.3544 95.3553C99.9973 90.7124 103.68 85.2004 106.193 79.1342C108.706 73.0679 109.999 66.5661 109.999 60C109.999 53.4339 108.706 46.9321 106.193 40.8658C103.68 34.7995 99.9973 29.2876 95.3544 24.6447C90.7114 20.0017 85.1995 16.3188 79.1332 13.806C73.0669 11.2933 66.5651 10 59.999 10C53.4329 10 46.9311 11.2933 40.8648 13.806C34.7986 16.3188 29.2866 20.0017 24.6437 24.6447C20.0008 29.2876 16.3178 34.7995 13.805 40.8658C11.2923 46.9321 9.99902 53.4339 9.99902 60Z" fill="#1CB0F6" stroke="white" stroke-width="8.57" stroke-linecap="round" stroke-linejoin="round"/>
<g clip-path="url(#clip0_3723_13665)">
<path d="M59.9293 43.6131C62.644 43.6066 65.2999 44.2698 67.6703 45.5215L63.0863 47.9456L62.3462 47.8238C62.3461 47.8244 62.346 47.825 62.3459 47.8256C62.2794 48.2315 62.2936 48.6465 62.3878 49.0468C62.4821 49.4478 62.6547 49.8261 62.8958 50.1601C63.1368 50.494 63.4415 50.7771 63.7923 50.9929C64.1424 51.2083 64.5316 51.3525 64.9375 51.4172C64.9383 51.4173 64.9391 51.4175 64.94 51.4176L75.0053 53.0793L75.066 53.0894H75.1275L75.5312 53.0894L75.5321 53.0894C75.8945 53.0889 76.254 53.0255 76.5946 52.9019L76.5947 52.9019L76.6049 52.898C76.729 52.8509 76.8463 52.788 76.9539 52.7109C77.1499 52.6271 77.335 52.5195 77.505 52.3903L77.5756 52.3367L77.6317 52.268L77.8455 52.0068L77.9917 51.828C77.9925 51.8273 77.9932 51.8267 77.9939 51.826C78.0463 51.7777 78.1265 51.6986 78.1978 51.5916C78.2368 51.5332 78.2693 51.472 78.2953 51.4086C78.3213 51.3451 78.3386 51.2846 78.3501 51.2291C78.3527 51.2164 78.355 51.204 78.3571 51.1921L78.3701 51.1646C78.4512 50.9937 78.5198 50.8172 78.5755 50.6364L78.5881 50.5957L78.5959 50.5538L80.3768 41.0556L79.64 40.9156L80.3772 41.0538L80.377 41.0544C80.4545 40.6461 80.4508 40.2266 80.3662 39.8198C80.2816 39.4125 80.1175 39.0259 79.8835 38.682C79.6494 38.3382 79.3499 38.0438 79.0021 37.8157C78.6543 37.5876 78.2649 37.4302 77.8562 37.3525C77.4476 37.2749 77.0277 37.2785 76.6204 37.3632C76.2131 37.4478 75.8265 37.6118 75.4827 37.8459C74.7882 38.3186 74.31 39.0478 74.1532 39.8731L74.1527 39.8758L73.7432 42.0748C69.7957 39.0289 64.9408 37.3648 59.9309 37.3631C54.0095 37.3116 48.3094 39.6107 44.0809 43.7563C39.8516 47.9027 37.4399 53.5575 37.375 59.4799L37.375 59.4881L37.375 59.4963C37.4399 65.4187 39.8516 71.0735 44.0809 75.2199C48.308 79.3641 54.0057 81.6631 59.925 81.6132C64.7212 81.6849 69.4139 80.2159 73.3132 77.4219C77.2148 74.6261 80.1157 70.6516 81.5888 66.0833L81.5916 66.0748L81.5941 66.0662C81.7126 65.6661 81.7498 65.2463 81.7035 64.8316C81.6572 64.4169 81.5283 64.0156 81.3244 63.6516C81.1205 63.2875 80.8458 62.9679 80.5164 62.7117C80.191 62.4586 79.8188 62.2725 79.4212 62.1639C78.6379 61.9239 77.7913 62.0011 77.0641 62.3792C76.3332 62.7593 75.7819 63.4126 75.5302 64.197C74.4576 67.4751 72.3673 70.3255 69.5631 72.3337C66.7584 74.3423 63.3859 75.4036 59.9363 75.3632L59.9276 75.3631L59.919 75.3632C55.6534 75.4116 51.5426 73.7666 48.4881 70.7887C45.4361 67.8132 43.6876 63.7498 43.6251 59.4881C43.6876 55.2265 45.4361 51.163 48.4881 48.1876C51.5426 45.2097 55.6534 43.5646 59.919 43.6131L59.919 43.6131L59.9293 43.6131Z" fill="white" stroke="white" stroke-width="1.5"/>
</g>
<defs>
<clipPath id="clip0_3723_13665">
<rect width="57" height="57" fill="white" transform="translate(31 31)"/>
</clipPath>
</defs>
</svg>
