<svg width="85" height="90" viewBox="0 0 85 90" fill="none" xmlns="http://www.w3.org/2000/svg">
<path opacity="0.3" d="M42.7401 89.9983C65.888 89.9983 84.653 70.9253 84.653 47.3976C84.653 23.8699 65.888 4.79688 42.7401 4.79688C19.5923 4.79688 0.827271 23.8699 0.827271 47.3976C0.827271 70.9253 19.5923 89.9983 42.7401 89.9983Z" fill="#1A1A1A"/>
<path d="M42.7394 85.5608C65.8872 85.5608 84.6523 66.4878 84.6523 42.9601C84.6523 19.4324 65.8872 0.359375 42.7394 0.359375C19.5916 0.359375 0.826538 19.4324 0.826538 42.9601C0.826538 66.4878 19.5916 85.5608 42.7394 85.5608Z" fill="#42210B"/>
<path d="M42.7399 79.1598C64.3146 79.1598 81.8042 61.6701 81.8042 40.0955C81.8042 18.5209 64.3146 1.03125 42.7399 1.03125C21.1653 1.03125 3.67566 18.5209 3.67566 40.0955C3.67566 61.6701 21.1653 79.1598 42.7399 79.1598Z" fill="url(#paint0_linear_2680_7585)"/>
<path d="M66.3914 46.7704L82.3993 46.0172C82.6853 44.0851 82.8376 42.1093 82.8376 40.0976C82.8376 37.2743 82.5425 34.5206 81.9874 31.8623L64.0854 29.9976L81.1732 28.6602C79.2279 22.1144 75.6616 16.268 70.9321 11.5905L40.8131 9.03134H68.087C61.1786 3.38811 52.3561 0 42.7401 0C24.5661 0 9.22482 12.0945 4.30375 28.6711L23.6209 30.3121L3.47738 31.9273C2.93123 34.5653 2.64209 37.2978 2.64209 40.0976C2.64209 42.1517 2.79807 44.1695 3.09618 46.1403L13.3475 47.3993L3.8763 49.9962C6.06003 58.5956 11.0265 66.0793 17.7563 71.4491L21.3146 68.5749L20.5464 73.4915C21.9143 74.4025 23.3434 75.2276 24.8227 75.9678L27.8143 71.9294V77.3129C32.4291 79.1655 37.4629 80.1951 42.7401 80.1951C49.8532 80.1951 56.5286 78.3351 62.3206 75.0867L61.4576 70.2522L64.7498 73.6094C73.228 68.0299 79.4566 59.3226 81.8044 49.1272L66.3914 46.7704Z" fill="url(#paint1_linear_2680_7585)"/>
<path d="M66.3914 46.7704L82.3993 46.0172C82.6853 44.0851 82.8376 42.1093 82.8376 40.0976C82.8376 37.2743 82.5425 34.5206 81.9874 31.8623L64.0854 29.9976L81.1732 28.6602C79.2279 22.1144 75.6616 16.268 70.9321 11.5905L40.8131 9.03134H68.087C61.1786 3.38811 52.3561 0 42.7401 0C24.5661 0 9.22482 12.0945 4.30375 28.6711L23.6209 30.3121L3.47738 31.9273C2.93123 34.5653 2.64209 37.2978 2.64209 40.0976C2.64209 42.1517 2.79807 44.1695 3.09618 46.1403L13.3475 47.3993L3.8763 49.9962C6.06003 58.5956 11.0265 66.0793 17.7563 71.4491L21.3146 68.5749L20.5464 73.4915C21.9143 74.4025 23.3434 75.2276 24.8227 75.9678L27.8143 71.9294V77.3129C32.4291 79.1655 37.4629 80.1951 42.7401 80.1951C49.8532 80.1951 56.5286 78.3351 62.3206 75.0867L61.4576 70.2522L64.7498 73.6094C73.228 68.0299 79.4566 59.3226 81.8044 49.1272L66.3914 46.7704Z" fill="url(#paint2_linear_2680_7585)"/>
<path d="M40.8127 9.03125C50.8524 10.2512 60.8921 11.4711 70.9318 12.6911C75.3994 17.1097 78.8105 22.5792 80.8163 28.688L81.1728 28.6601C79.2275 22.1143 75.6613 16.268 70.9318 11.5904L53.7668 10.1321C49.4488 9.76513 45.1308 9.39819 40.8127 9.03125Z" fill="#FFCF83"/>
<path d="M64.0858 30C70.0532 30.9885 76.0207 31.977 81.9878 32.9656C82.5124 35.4781 82.7957 38.0782 82.8261 40.7392C82.8295 40.5262 82.838 40.3141 82.838 40.1002C82.838 37.277 82.5429 34.5232 81.9878 31.865L70.1192 30.6286C68.1081 30.4189 66.0969 30.2095 64.0858 30Z" fill="#FFCF83"/>
<path d="M10.5735 48.1587L3.87488 49.9954C3.96224 50.3393 4.06134 50.6783 4.15744 51.0186C7.22017 49.8119 10.2831 48.6052 13.3458 47.3984C12.4219 47.6518 11.4977 47.9054 10.5735 48.1587Z" fill="#B7724B"/>
<path d="M66.392 46.7734C71.439 47.9122 76.486 49.0509 81.533 50.1899C81.6244 49.8372 81.7222 49.4871 81.8043 49.1306L71.8954 47.6151C70.0609 47.3347 68.2264 47.0541 66.392 46.7734Z" fill="#B7724B"/>
<path d="M42.7388 1.1006C51.7113 1.1006 59.9915 4.05231 66.6716 9.03134H68.0857C61.1774 3.38811 52.3549 0 42.7388 0C24.5649 0 9.22356 12.0945 4.30249 28.6711L4.64449 28.7001C9.89841 12.6779 24.9599 1.1006 42.7388 1.1006Z" fill="#FFCF83"/>
<path d="M3.47738 33.0285C10.1918 32.1231 16.9064 31.2179 23.6209 30.3125C21.3992 30.4906 19.1774 30.6688 16.9557 30.8469L3.47738 31.9277C2.93123 34.5658 2.64209 37.2982 2.64209 40.098C2.64209 40.3104 2.65081 40.5207 2.654 40.7323C2.68447 38.0962 2.96149 35.5193 3.47738 33.0285Z" fill="#FFCF83"/>
<g clip-path="url(#clip0_2680_7585)">
<path d="M48.5707 43.601C47.0419 45.1298 44.9683 45.9887 42.8062 45.9887C40.6441 45.9887 38.5705 45.1298 37.0417 43.601C35.5128 42.0721 34.6539 39.9986 34.6539 37.8364V26.7381C34.6539 24.576 35.5128 22.5024 37.0417 20.9736C38.5705 19.4447 40.6441 18.5858 42.8062 18.5858C44.9683 18.5858 47.0419 19.4447 48.5707 20.9736C50.0996 22.5024 50.9584 24.576 50.9584 26.7381V37.8364C50.9584 39.9986 50.0996 42.0721 48.5707 43.601Z" fill="url(#paint3_linear_2680_7585)" stroke="#42210B" stroke-width="1.45288"/>
<path d="M41.3133 53.197V52.5679L40.6906 52.478C37.1685 51.9697 33.9472 50.2102 31.6159 47.5215C29.2848 44.8329 27.9995 41.3949 27.9952 37.8365C27.9953 37.4406 28.1527 37.0609 28.4326 36.781C28.7126 36.5009 29.0924 36.3436 29.4885 36.3436C29.8845 36.3436 30.2643 36.5009 30.5443 36.781C30.8244 37.061 30.9817 37.4408 30.9817 37.8369C30.9817 40.973 32.2275 43.9807 34.4451 46.1983C36.6627 48.4158 39.6704 49.6617 42.8065 49.6617C45.9427 49.6617 48.9503 48.4158 51.1679 46.1983C53.3855 43.9807 54.6313 40.973 54.6313 37.8369C54.6313 37.4408 54.7887 37.061 55.0687 36.781C55.3487 36.5009 55.7285 36.3436 56.1246 36.3436C56.5206 36.3436 56.9004 36.5009 57.1804 36.781C57.4603 37.0609 57.6176 37.4404 57.6178 37.8362C57.6136 41.3947 56.3283 44.8328 53.9971 47.5215C51.6659 50.2102 48.4445 51.9697 44.9224 52.478L44.2998 52.5679V53.197V57.8139V58.5404H45.0262H49.7097C50.041 58.5404 50.3587 58.672 50.5929 58.9062C50.8272 59.1405 50.9588 59.4582 50.9588 59.7894V60.2778C50.9588 60.609 50.8272 60.9268 50.5929 61.161C50.3587 61.3952 50.041 61.5268 49.7097 61.5268H35.9033C35.5721 61.5268 35.2544 61.3952 35.0201 61.161C34.7859 60.9267 34.6543 60.609 34.6543 60.2778V59.7894C34.6543 59.4582 34.7859 59.1405 35.0201 58.9062C35.2544 58.672 35.5721 58.5404 35.9033 58.5404H40.5868H41.3133V57.8139V53.197Z" fill="url(#paint4_linear_2680_7585)" stroke="#42210B" stroke-width="1.45288"/>
</g>
<defs>
<linearGradient id="paint0_linear_2680_7585" x1="42.74" y1="79.1597" x2="42.74" y2="1.0313" gradientUnits="userSpaceOnUse">
<stop stop-color="#4E2A21"/>
<stop offset="0.2304" stop-color="#522D22"/>
<stop offset="0.4427" stop-color="#5D3527"/>
<stop offset="0.6478" stop-color="#6F422E"/>
<stop offset="0.8472" stop-color="#8A5537"/>
<stop offset="1" stop-color="#A36841"/>
</linearGradient>
<linearGradient id="paint1_linear_2680_7585" x1="42.7397" y1="80.1955" x2="42.7397" y2="-8.60406e-05" gradientUnits="userSpaceOnUse">
<stop stop-color="#63433B"/>
<stop offset="0.5045" stop-color="#A36841"/>
<stop offset="1" stop-color="#FFC255"/>
</linearGradient>
<linearGradient id="paint2_linear_2680_7585" x1="42.7397" y1="80.1955" x2="42.7397" y2="-8.60406e-05" gradientUnits="userSpaceOnUse">
<stop stop-color="#63433B"/>
<stop offset="0.5045" stop-color="#A36841"/>
<stop offset="1" stop-color="#FFC255"/>
</linearGradient>
<linearGradient id="paint3_linear_2680_7585" x1="42.8062" y1="17.8594" x2="42.8062" y2="46.7151" gradientUnits="userSpaceOnUse">
<stop stop-color="white"/>
<stop offset="0.34" stop-color="#F7ECD1"/>
</linearGradient>
<linearGradient id="paint4_linear_2680_7585" x1="42.8065" y1="35.6172" x2="42.8065" y2="62.2533" gradientUnits="userSpaceOnUse">
<stop stop-color="white"/>
<stop offset="0.34" stop-color="#F7ECD1"/>
</linearGradient>
<clipPath id="clip0_2680_7585">
<rect width="53.2722" height="53.2722" fill="white" transform="translate(16.1703 13.4219)"/>
</clipPath>
</defs>
</svg>
