<svg width="84" height="90" viewBox="0 0 84 90" fill="none" xmlns="http://www.w3.org/2000/svg">
<path opacity="0.3" d="M41.913 89.9986C65.0609 89.9986 83.826 70.9255 83.826 47.3977C83.826 23.8699 65.0609 4.79688 41.913 4.79688C18.7651 4.79688 0 23.8699 0 47.3977C0 70.9255 18.7651 89.9986 41.913 89.9986Z" fill="#1A1A1A"/>
<path d="M41.914 85.5611C65.0619 85.5611 83.827 66.488 83.827 42.9602C83.827 19.4324 65.0619 0.359375 41.914 0.359375C18.7661 0.359375 0.000976562 19.4324 0.000976562 42.9602C0.000976562 66.488 18.7661 85.5611 41.914 85.5611Z" fill="#42210B"/>
<path d="M41.913 79.1601C63.4877 79.1601 80.9774 61.6703 80.9774 40.0957C80.9774 18.521 63.4877 1.03125 41.913 1.03125C20.3384 1.03125 2.84863 18.521 2.84863 40.0957C2.84863 61.6703 20.3384 79.1601 41.913 79.1601Z" fill="url(#paint0_linear_2680_6480)"/>
<path d="M65.5652 46.7706L81.5732 46.0173C81.8591 44.0852 82.0115 42.1095 82.0115 40.0977C82.0115 37.2745 81.7164 34.5207 81.1613 31.8624L63.2592 29.9977L80.3471 28.6603C78.4018 22.1144 74.8355 16.2681 70.106 11.5906L39.9868 9.03137H67.2608C60.3524 3.38812 51.5297 0 41.9138 0C23.7398 0 8.39846 12.0945 3.47738 28.6712L22.7946 30.3122L2.65123 31.9274C2.10508 34.5655 1.81592 37.2979 1.81592 40.0977C1.81592 42.1519 1.9719 44.1696 2.27001 46.1405L12.5213 47.3994L3.05013 49.9963C5.23409 58.5958 10.2006 66.0795 16.9301 71.4493L20.4885 68.5752L19.7203 73.4918C21.0882 74.4027 22.5173 75.2278 23.9966 75.9681L26.9882 71.9296V77.3131C31.6031 79.1657 36.6369 80.1954 41.914 80.1954C49.0272 80.1954 55.7026 78.3353 61.4946 75.087L60.6316 70.2524L63.9238 73.6096C72.402 68.0301 78.6306 59.3228 80.9784 49.1273L65.5652 46.7706Z" fill="url(#paint1_linear_2680_6480)"/>
<path d="M65.5652 46.7706L81.5732 46.0173C81.8591 44.0852 82.0115 42.1095 82.0115 40.0977C82.0115 37.2745 81.7164 34.5207 81.1613 31.8624L63.2592 29.9977L80.3471 28.6603C78.4018 22.1144 74.8355 16.2681 70.106 11.5906L39.9868 9.03137H67.2608C60.3524 3.38812 51.5297 0 41.9138 0C23.7398 0 8.39846 12.0945 3.47738 28.6712L22.7946 30.3122L2.65123 31.9274C2.10508 34.5655 1.81592 37.2979 1.81592 40.0977C1.81592 42.1519 1.9719 44.1696 2.27001 46.1405L12.5213 47.3994L3.05013 49.9963C5.23409 58.5958 10.2006 66.0795 16.9301 71.4493L20.4885 68.5752L19.7203 73.4918C21.0882 74.4027 22.5173 75.2278 23.9966 75.9681L26.9882 71.9296V77.3131C31.6031 79.1657 36.6369 80.1954 41.914 80.1954C49.0272 80.1954 55.7026 78.3353 61.4946 75.087L60.6316 70.2524L63.9238 73.6096C72.402 68.0301 78.6306 59.3228 80.9784 49.1273L65.5652 46.7706Z" fill="url(#paint2_linear_2680_6480)"/>
<path d="M39.9871 9.03125C50.0268 10.2512 60.0665 11.4711 70.1062 12.6911C74.5738 17.1097 77.985 22.5793 79.9908 28.6881L80.3473 28.6602C78.402 22.1143 74.8357 16.268 70.1062 11.5905L52.9412 10.1321C48.6232 9.76513 44.3051 9.39819 39.9871 9.03125Z" fill="#FFCF83"/>
<path d="M63.2584 30C69.2258 30.9885 75.1931 31.977 81.1605 32.9656C81.6851 35.4781 81.9683 38.0782 81.9988 40.7393C82.0022 40.5262 82.0107 40.3142 82.0107 40.1002C82.0107 37.277 81.7156 34.5232 81.1605 31.865L69.2918 30.6286C67.2807 30.4189 65.2696 30.2095 63.2584 30Z" fill="#FFCF83"/>
<path d="M9.74946 48.1587L3.05078 49.9954C3.13815 50.3393 3.23745 50.6783 3.33355 51.0186C6.39629 49.8119 9.45924 48.6052 12.522 47.3984C11.5978 47.6518 10.6736 47.9054 9.74946 48.1587Z" fill="#B7724B"/>
<path d="M65.5656 46.7734C70.6126 47.9122 75.6596 49.0509 80.7066 50.1899C80.798 49.8372 80.8958 49.4871 80.9779 49.1306L71.0688 47.6151C69.2345 47.3347 67.4 47.0541 65.5656 46.7734Z" fill="#B7724B"/>
<path d="M41.9135 1.10061C50.886 1.10061 59.1663 4.05232 65.8464 9.03137H67.2605C60.3521 3.38812 51.5294 0 41.9135 0C23.7395 0 8.39814 12.0945 3.47705 28.6712L3.81906 28.7002C9.07299 12.678 24.1344 1.10061 41.9135 1.10061Z" fill="#FFCF83"/>
<path d="M2.65144 33.0285C9.36589 32.1231 16.0803 31.2179 22.7948 30.3125C20.5731 30.4906 18.3514 30.6688 16.1296 30.8469L2.65123 31.9277C2.10508 34.5658 1.81592 37.2982 1.81592 40.098C1.81592 40.3104 1.82465 40.5208 1.82785 40.7324C1.85875 38.0962 2.13577 35.5193 2.65144 33.0285Z" fill="#FFCF83"/>
<path d="M61.6389 36.1204L33.7785 20.0353C30.2214 17.9816 25.7749 20.5487 25.7749 24.6562V56.8265C25.7749 60.934 30.2214 63.5011 33.7785 61.4474L61.6389 45.3623C65.196 43.3085 65.196 38.1741 61.6389 36.1204Z" fill="url(#paint3_linear_2680_6480)"/>
<path d="M31.1187 19.3115C32.0069 19.3115 32.9189 19.538 33.7785 20.0343L61.6389 36.1193C65.1962 38.1731 65.1962 43.3075 61.6389 45.3612L33.7785 61.4463C32.9187 61.9426 32.0071 62.1691 31.1187 62.1691C28.3317 62.1691 25.7749 59.9399 25.7749 56.8252V24.6551C25.7749 21.5402 28.3315 19.3115 31.1187 19.3115ZM31.1187 17.6875C27.2767 17.6875 24.1511 20.8131 24.1511 24.6551V56.8254C24.1511 60.6674 27.2767 63.793 31.1187 63.793C32.3244 63.793 33.5249 63.4679 34.5904 62.8527L62.4508 46.7676C64.6296 45.5095 65.9305 43.2565 65.9305 40.7404C65.9305 38.2244 64.6296 35.9712 62.4508 34.7131L34.5904 18.6281C33.5249 18.0127 32.3244 17.6875 31.1187 17.6875Z" fill="#42210B"/>
<defs>
<linearGradient id="paint0_linear_2680_6480" x1="41.9131" y1="79.16" x2="41.9131" y2="1.0313" gradientUnits="userSpaceOnUse">
<stop stop-color="#4E2A21"/>
<stop offset="0.2304" stop-color="#522D22"/>
<stop offset="0.4427" stop-color="#5D3527"/>
<stop offset="0.6478" stop-color="#6F422E"/>
<stop offset="0.8472" stop-color="#8A5537"/>
<stop offset="1" stop-color="#A36841"/>
</linearGradient>
<linearGradient id="paint1_linear_2680_6480" x1="41.9134" y1="80.1958" x2="41.9134" y2="-8.60408e-05" gradientUnits="userSpaceOnUse">
<stop stop-color="#63433B"/>
<stop offset="0.5045" stop-color="#A36841"/>
<stop offset="1" stop-color="#FFC255"/>
</linearGradient>
<linearGradient id="paint2_linear_2680_6480" x1="41.9134" y1="80.1958" x2="41.9134" y2="-8.60408e-05" gradientUnits="userSpaceOnUse">
<stop stop-color="#63433B"/>
<stop offset="0.5045" stop-color="#A36841"/>
<stop offset="1" stop-color="#FFC255"/>
</linearGradient>
<linearGradient id="paint3_linear_2680_6480" x1="45.0409" y1="62.1702" x2="45.0409" y2="19.3124" gradientUnits="userSpaceOnUse">
<stop stop-color="#F4D6A6"/>
<stop offset="0.216" stop-color="#F6E2BE"/>
<stop offset="0.4219" stop-color="#F7EACD"/>
<stop offset="0.5893" stop-color="#F7EDD2"/>
<stop offset="1" stop-color="white"/>
</linearGradient>
</defs>
</svg>
