<svg width="85" height="90" viewBox="0 0 85 90" fill="none" xmlns="http://www.w3.org/2000/svg">
<path opacity="0.3" d="M42.739 89.9981C65.8867 89.9981 84.6517 70.9252 84.6517 47.3975C84.6517 23.8698 65.8867 4.79688 42.739 4.79688C19.5912 4.79688 0.826172 23.8698 0.826172 47.3975C0.826172 70.9252 19.5912 89.9981 42.739 89.9981Z" fill="#1A1A1A"/>
<path d="M42.7385 85.5606C65.8863 85.5606 84.6512 66.4877 84.6512 42.96C84.6512 19.4323 65.8863 0.359375 42.7385 0.359375C19.5907 0.359375 0.825684 19.4323 0.825684 42.96C0.825684 66.4877 19.5907 85.5606 42.7385 85.5606Z" fill="#42210B"/>
<path d="M42.7385 79.1597C64.3131 79.1597 81.8027 61.67 81.8027 40.0955C81.8027 18.5209 64.3131 1.03125 42.7385 1.03125C21.164 1.03125 3.67432 18.5209 3.67432 40.0955C3.67432 61.67 21.164 79.1597 42.7385 79.1597Z" fill="url(#paint0_linear_2680_6903)"/>
<path d="M66.3903 46.7703L82.3982 46.0171C82.6841 44.085 82.8365 42.1092 82.8365 40.0975C82.8365 37.2743 82.5414 34.5205 81.9863 31.8623L64.0843 29.9975L81.1721 28.6602C79.2268 22.1143 75.6605 16.268 70.931 11.5905L40.812 9.03132H68.0859C61.1776 3.3881 52.355 0 42.739 0C24.5651 0 9.22383 12.0945 4.30277 28.671L23.6199 30.312L3.4764 31.9272C2.93026 34.5653 2.64111 37.2975 2.64111 40.0975C2.64111 42.1516 2.79709 44.1694 3.0952 46.1404L13.3465 47.3994L3.87532 49.9963C6.05905 58.5957 11.0255 66.0793 17.7552 71.4494L21.3136 68.5752L20.5454 73.4918C21.9132 74.4028 23.3424 75.2279 24.8217 75.9681L27.8132 71.9297V77.3131C32.4281 79.1657 37.4619 80.1954 42.739 80.1954C49.8521 80.1954 56.5275 78.3353 62.3195 75.087L61.4565 70.2525L64.7487 73.6097C73.2269 68.0302 79.4554 59.3229 81.8032 49.1275L66.3903 46.7703Z" fill="url(#paint1_linear_2680_6903)"/>
<path d="M66.3903 46.7703L82.3982 46.0171C82.6841 44.085 82.8365 42.1092 82.8365 40.0975C82.8365 37.2743 82.5414 34.5205 81.9863 31.8623L64.0843 29.9975L81.1721 28.6602C79.2268 22.1143 75.6605 16.268 70.931 11.5905L40.812 9.03132H68.0859C61.1776 3.3881 52.355 0 42.739 0C24.5651 0 9.22383 12.0945 4.30277 28.671L23.6199 30.312L3.4764 31.9272C2.93026 34.5653 2.64111 37.2975 2.64111 40.0975C2.64111 42.1516 2.79709 44.1694 3.0952 46.1404L13.3465 47.3994L3.87532 49.9963C6.05905 58.5957 11.0255 66.0793 17.7552 71.4494L21.3136 68.5752L20.5454 73.4918C21.9132 74.4028 23.3424 75.2279 24.8217 75.9681L27.8132 71.9297V77.3131C32.4281 79.1657 37.4619 80.1954 42.739 80.1954C49.8521 80.1954 56.5275 78.3353 62.3195 75.087L61.4565 70.2525L64.7487 73.6097C73.2269 68.0302 79.4554 59.3229 81.8032 49.1275L66.3903 46.7703Z" fill="url(#paint2_linear_2680_6903)"/>
<path d="M40.812 9.03125C50.8517 10.2512 60.8913 11.4711 70.931 12.691C75.3986 17.1094 78.8097 22.5792 80.8155 28.6878L81.172 28.6599C79.2267 22.114 75.6605 16.2677 70.931 11.5902L53.7661 10.1318C49.4481 9.76491 45.13 9.39798 40.812 9.03125Z" fill="#FFCF83"/>
<path d="M64.084 30C70.0513 30.9885 76.0188 31.977 81.986 32.9655C82.5106 35.4781 82.7938 38.0782 82.8243 40.7392C82.8277 40.5261 82.8362 40.3141 82.8362 40.1002C82.8362 37.277 82.5411 34.5232 81.986 31.865L70.1174 30.6286C68.1062 30.4191 66.0951 30.2097 64.084 30Z" fill="#FFCF83"/>
<path d="M10.5732 48.1587L3.87451 49.9953C3.96188 50.3393 4.06097 50.6783 4.15708 51.0186C7.2198 49.8119 10.2827 48.6052 13.3454 47.3984C12.4215 47.652 11.4973 47.9054 10.5732 48.1587Z" fill="#B7724B"/>
<path d="M66.3901 46.7734C71.4371 47.9122 76.4841 49.0509 81.5311 50.1899C81.6226 49.8372 81.7204 49.4871 81.8024 49.1306L71.8936 47.6151C70.0591 47.3345 68.2246 47.0541 66.3901 46.7734Z" fill="#B7724B"/>
<path d="M42.7385 1.1006C51.711 1.1006 59.9912 4.0523 66.6713 9.03132H68.0853C61.177 3.3881 52.3545 0 42.7385 0C24.5646 0 9.22331 12.0945 4.30225 28.671L4.64425 28.7C9.89816 12.6777 24.9597 1.1006 42.7385 1.1006Z" fill="#FFCF83"/>
<path d="M3.47591 33.0285C10.1903 32.1231 16.905 31.2179 23.6194 30.3125C21.3977 30.4906 19.1759 30.6688 16.9542 30.8469L3.47591 31.9277C2.92977 34.5657 2.64062 37.298 2.64062 40.0979C2.64062 40.3104 2.64934 40.5207 2.65254 40.7323C2.68301 38.0962 2.96003 35.5193 3.47591 33.0285Z" fill="#FFCF83"/>
<path d="M36.9639 31.2505H46.2865V18.8203L68.0393 40.5731L46.2865 62.3259V49.8957H36.9639V31.2505Z" fill="url(#paint3_linear_2680_6903)"/>
<path fill-rule="evenodd" clip-rule="evenodd" d="M45.9038 17.8965C46.2775 17.7417 46.7076 17.8272 46.9936 18.1132L68.7464 39.866C69.1369 40.2565 69.1369 40.8897 68.7464 41.2802L46.9936 63.033C46.7076 63.319 46.2775 63.4045 45.9038 63.2498C45.5301 63.095 45.2865 62.7303 45.2865 62.3259V50.8957H36.9639C36.4116 50.8957 35.9639 50.448 35.9639 49.8957V31.2505C35.9639 30.6982 36.4116 30.2505 36.9639 30.2505H45.2865V18.8203C45.2865 18.4159 45.5301 18.0512 45.9038 17.8965ZM47.2865 21.2346V31.2505C47.2865 31.8028 46.8388 32.2505 46.2865 32.2505H37.9639V48.8957H46.2865C46.8388 48.8957 47.2865 49.3434 47.2865 49.8957V59.9117L66.625 40.5731L47.2865 21.2346Z" fill="#42210B"/>
<path d="M22.999 35C22.999 32.2386 25.2376 30 27.999 30C30.7604 30 32.999 32.2386 32.999 35V46C32.999 48.7614 30.7604 51 27.999 51C25.2376 51 22.999 48.7614 22.999 46V35Z" fill="url(#paint4_linear_2680_6903)"/>
<path fill-rule="evenodd" clip-rule="evenodd" d="M30.999 46V35C30.999 33.3431 29.6559 32 27.999 32C26.3422 32 24.999 33.3431 24.999 35V46C24.999 47.6569 26.3422 49 27.999 49C29.6559 49 30.999 47.6569 30.999 46ZM27.999 30C25.2376 30 22.999 32.2386 22.999 35V46C22.999 48.7614 25.2376 51 27.999 51C30.7604 51 32.999 48.7614 32.999 46V35C32.999 32.2386 30.7604 30 27.999 30Z" fill="#42210B"/>
<defs>
<linearGradient id="paint0_linear_2680_6903" x1="42.7386" y1="79.1597" x2="42.7386" y2="1.0314" gradientUnits="userSpaceOnUse">
<stop stop-color="#4E2A21"/>
<stop offset="0.2304" stop-color="#522D22"/>
<stop offset="0.4427" stop-color="#5D3527"/>
<stop offset="0.6478" stop-color="#6F422E"/>
<stop offset="0.8472" stop-color="#8A5537"/>
<stop offset="1" stop-color="#A36841"/>
</linearGradient>
<linearGradient id="paint1_linear_2680_6903" x1="42.7386" y1="80.1953" x2="42.7386" y2="-0.000191201" gradientUnits="userSpaceOnUse">
<stop stop-color="#63433B"/>
<stop offset="0.5045" stop-color="#A36841"/>
<stop offset="1" stop-color="#FFC255"/>
</linearGradient>
<linearGradient id="paint2_linear_2680_6903" x1="42.7386" y1="80.1953" x2="42.7386" y2="-0.000191201" gradientUnits="userSpaceOnUse">
<stop stop-color="#63433B"/>
<stop offset="0.5045" stop-color="#A36841"/>
<stop offset="1" stop-color="#FFC255"/>
</linearGradient>
<linearGradient id="paint3_linear_2680_6903" x1="52.5016" y1="18.8203" x2="52.5016" y2="62.3259" gradientUnits="userSpaceOnUse">
<stop stop-color="white"/>
<stop offset="0.59335" stop-color="#F6E7C7"/>
<stop offset="1" stop-color="#F6E6C6"/>
</linearGradient>
<linearGradient id="paint4_linear_2680_6903" x1="27.999" y1="30" x2="27.999" y2="51" gradientUnits="userSpaceOnUse">
<stop stop-color="white"/>
<stop offset="0.41" stop-color="#F6E6C6"/>
</linearGradient>
</defs>
</svg>
