<svg width="84" height="90" viewBox="0 0 84 90" fill="none" xmlns="http://www.w3.org/2000/svg">
<path opacity="0.3" d="M41.9128 89.9981C65.0606 89.9981 83.8256 70.9252 83.8256 47.3975C83.8256 23.8698 65.0606 4.79688 41.9128 4.79688C18.765 4.79688 0 23.8698 0 47.3975C0 70.9252 18.765 89.9981 41.9128 89.9981Z" fill="#1A1A1A"/>
<path d="M41.9128 85.5606C65.0606 85.5606 83.8256 66.4877 83.8256 42.96C83.8256 19.4323 65.0606 0.359375 41.9128 0.359375C18.765 0.359375 0 19.4323 0 42.96C0 66.4877 18.765 85.5606 41.9128 85.5606Z" fill="#42210B"/>
<path d="M41.9128 79.1597C63.4874 79.1597 80.977 61.67 80.977 40.0955C80.977 18.5209 63.4874 1.03125 41.9128 1.03125C20.3383 1.03125 2.84863 18.5209 2.84863 40.0955C2.84863 61.67 20.3383 79.1597 41.9128 79.1597Z" fill="url(#paint0_linear_2680_6887)"/>
<path d="M65.5646 46.7703L81.5725 46.0171C81.8585 44.085 82.0108 42.1092 82.0108 40.0975C82.0108 37.2743 81.7157 34.5205 81.1606 31.8623L63.2586 29.9975L80.3464 28.6602C78.4011 22.1143 74.8348 16.268 70.1053 11.5905L39.9864 9.03132H67.2602C60.3519 3.3881 51.5294 0 41.9133 0C23.7394 0 8.39815 12.0945 3.47709 28.671L22.7942 30.312L2.65072 31.9272C2.10457 34.5653 1.81543 37.2975 1.81543 40.0975C1.81543 42.1516 1.97141 44.1694 2.26952 46.1404L12.5208 47.3994L3.04964 49.9963C5.23337 58.5957 10.1998 66.0793 16.9296 71.4494L20.4879 68.5752L19.7197 73.4918C21.0876 74.4028 22.5167 75.2279 23.996 75.9681L26.9876 71.9297V77.3131C31.6024 79.1657 36.6362 80.1954 41.9133 80.1954C49.0264 80.1954 55.7019 78.3353 61.4938 75.087L60.6308 70.2525L63.923 73.6097C72.4012 68.0302 78.6297 59.3229 80.9776 49.1275L65.5646 46.7703Z" fill="url(#paint1_linear_2680_6887)"/>
<path d="M65.5646 46.7703L81.5725 46.0171C81.8585 44.085 82.0108 42.1092 82.0108 40.0975C82.0108 37.2743 81.7157 34.5205 81.1606 31.8623L63.2586 29.9975L80.3464 28.6602C78.4011 22.1143 74.8348 16.268 70.1053 11.5905L39.9864 9.03132H67.2602C60.3519 3.3881 51.5294 0 41.9133 0C23.7394 0 8.39815 12.0945 3.47709 28.671L22.7942 30.312L2.65072 31.9272C2.10457 34.5653 1.81543 37.2975 1.81543 40.0975C1.81543 42.1516 1.97141 44.1694 2.26952 46.1404L12.5208 47.3994L3.04964 49.9963C5.23337 58.5957 10.1998 66.0793 16.9296 71.4494L20.4879 68.5752L19.7197 73.4918C21.0876 74.4028 22.5167 75.2279 23.996 75.9681L26.9876 71.9297V77.3131C31.6024 79.1657 36.6362 80.1954 41.9133 80.1954C49.0264 80.1954 55.7019 78.3353 61.4938 75.087L60.6308 70.2525L63.923 73.6097C72.4012 68.0302 78.6297 59.3229 80.9776 49.1275L65.5646 46.7703Z" fill="url(#paint2_linear_2680_6887)"/>
<path d="M39.9863 9.03125C50.026 10.2512 60.0656 11.4711 70.1053 12.691C74.5729 17.1094 77.984 22.5792 79.9898 28.6878L80.3463 28.6599C78.4011 22.114 74.8348 16.2677 70.1053 11.5902L52.9404 10.1318C48.6224 9.76491 44.3044 9.39798 39.9863 9.03125Z" fill="#FFCF83"/>
<path d="M63.2583 30C69.2256 30.9885 75.1932 31.977 81.1603 32.9655C81.6849 35.4781 81.9681 38.0782 81.9986 40.7392C82.002 40.5261 82.0105 40.3141 82.0105 40.1002C82.0105 37.277 81.7154 34.5232 81.1603 31.865L69.2917 30.6286C67.2805 30.4191 65.2694 30.2097 63.2583 30Z" fill="#FFCF83"/>
<path d="M9.74748 48.1587L3.04883 49.9953C3.13619 50.3393 3.23529 50.6783 3.33139 51.0186C6.39411 49.8119 9.45704 48.6052 12.5198 47.3984C11.5958 47.652 10.6716 47.9054 9.74748 48.1587Z" fill="#B7724B"/>
<path d="M65.5645 46.7734C70.6115 47.9122 75.6585 49.0509 80.7055 50.1899C80.7969 49.8372 80.8947 49.4871 80.9767 49.1306L71.0679 47.6151C69.2334 47.3345 67.3989 47.0541 65.5645 46.7734Z" fill="#B7724B"/>
<path d="M41.9128 1.1006C50.8853 1.1006 59.1655 4.0523 65.8456 9.03132H67.2596C60.3513 3.3881 51.5288 0 41.9128 0C23.7389 0 8.39762 12.0945 3.47656 28.671L3.81857 28.7C9.07247 12.6777 24.134 1.1006 41.9128 1.1006Z" fill="#FFCF83"/>
<path d="M2.65023 33.0285C9.36465 32.1231 16.0793 31.2179 22.7937 30.3125C20.572 30.4906 18.3502 30.6688 16.1285 30.8469L2.65023 31.9277C2.10409 34.5657 1.81494 37.298 1.81494 40.0979C1.81494 40.3104 1.82366 40.5207 1.82685 40.7323C1.85733 38.0962 2.13434 35.5193 2.65023 33.0285Z" fill="#FFCF83"/>
<path d="M67.4091 36.206C66.4335 23.692 56.2524 13.608 43.7302 12.7426C28.7821 11.7094 16.335 23.5294 16.335 38.2566C16.335 49.7013 23.8559 59.38 34.2222 62.645V65.3642C34.2222 67.0876 36.1539 68.1056 37.5754 67.1311L48.6709 59.5264C49.9126 58.6758 49.9126 56.8434 48.6709 55.9925L37.5754 48.3879C36.1539 47.4136 34.2222 48.4315 34.2222 50.155V52.8657C28.9726 50.0987 25.3859 44.6036 25.3859 38.2566C25.3859 28.8221 33.2917 21.234 42.8398 21.7556C51.3695 22.2219 58.249 29.3501 58.4342 37.8907C58.5201 41.8467 57.2109 45.489 54.9681 48.3714C53.5027 50.2547 53.707 52.9379 55.4757 54.5395C57.3907 56.2736 60.4119 56.0961 62.0113 54.0675C65.8309 49.2238 67.936 42.9667 67.4091 36.206Z" fill="url(#paint3_linear_2680_6887)"/>
<path d="M41.9122 12.6784C42.5135 12.6784 43.1201 12.6991 43.7304 12.7413C56.2528 13.6066 66.4337 23.6908 67.4093 36.2047C67.9362 42.9653 65.8311 49.2224 62.0115 54.0662C61.1427 55.168 59.8548 55.7236 58.5522 55.7236C57.4567 55.7236 56.3508 55.3302 55.4759 54.5379C53.7072 52.9364 53.5029 50.2532 54.9683 48.3699C57.2111 45.4874 58.5203 41.8451 58.4344 37.8891C58.2492 29.3485 51.3697 22.2203 42.8399 21.7541C42.5288 21.737 42.2199 21.7287 41.9124 21.7287C32.7854 21.7287 25.3863 29.1278 25.3863 38.2548C25.3863 44.6018 28.973 50.0967 34.2226 52.8639V50.1532C34.2226 48.8911 35.2585 48.0072 36.3714 48.0074C36.7782 48.0074 37.1952 48.1255 37.5758 48.3863L48.6713 55.991C49.913 56.8418 49.913 58.6742 48.6713 59.5248L37.5758 67.1295C37.1952 67.3904 36.7782 67.5084 36.3714 67.5084C35.2585 67.5084 34.2226 66.6247 34.2226 65.3626V62.6436C23.8563 59.3789 16.3354 49.7002 16.3354 38.2552C16.3352 24.1296 27.7861 12.6784 41.9122 12.6784ZM41.9122 11.0547C34.6465 11.0547 27.8157 13.8841 22.6782 19.0216C17.5408 24.1592 14.7114 30.9897 14.7114 38.2554C14.7114 44.1571 16.5713 49.7701 20.0898 54.4879C23.2974 58.7886 27.6039 61.9924 32.5987 63.8075V65.363C32.5987 67.4415 34.291 69.1326 36.3712 69.1326C37.1266 69.1326 37.8605 68.9033 38.4938 68.4692L49.5893 60.8647C50.6143 60.1624 51.2262 59.0013 51.2262 57.7585C51.2262 56.5158 50.6143 55.3545 49.5893 54.6519L38.4938 47.0472C37.8607 46.6134 37.1268 46.3841 36.3717 46.3841C35.4117 46.3841 34.46 46.7655 33.7607 47.431C33.0779 48.0805 32.6748 48.9412 32.6087 49.8783C29.1017 47.0813 27.0103 42.8349 27.0103 38.2554C27.0103 30.0381 33.6955 23.3531 41.9126 23.3531C42.1904 23.3531 42.4728 23.3608 42.7517 23.3761C50.4679 23.7978 56.6436 30.1885 56.8113 37.9251C56.8863 41.3831 55.806 44.6502 53.687 47.3735C52.7266 48.6077 52.2663 50.1409 52.391 51.6904C52.5165 53.2519 53.2252 54.6909 54.3861 55.7423C55.5296 56.7777 57.0092 57.3479 58.5524 57.3479C60.4206 57.3479 62.1462 56.5184 63.2868 55.0721C67.5252 49.6974 69.5642 42.9521 69.0283 36.0789C67.9908 22.7716 57.1633 12.0424 43.8425 11.1218C43.2007 11.0773 42.5514 11.0547 41.9122 11.0547Z" fill="#42210B"/>
<defs>
<linearGradient id="paint0_linear_2680_6887" x1="41.9129" y1="79.1597" x2="41.9129" y2="1.0314" gradientUnits="userSpaceOnUse">
<stop stop-color="#4E2A21"/>
<stop offset="0.2304" stop-color="#522D22"/>
<stop offset="0.4427" stop-color="#5D3527"/>
<stop offset="0.6478" stop-color="#6F422E"/>
<stop offset="0.8472" stop-color="#8A5537"/>
<stop offset="1" stop-color="#A36841"/>
</linearGradient>
<linearGradient id="paint1_linear_2680_6887" x1="41.913" y1="80.1953" x2="41.913" y2="-0.000191201" gradientUnits="userSpaceOnUse">
<stop stop-color="#63433B"/>
<stop offset="0.5045" stop-color="#A36841"/>
<stop offset="1" stop-color="#FFC255"/>
</linearGradient>
<linearGradient id="paint2_linear_2680_6887" x1="41.913" y1="80.1953" x2="41.913" y2="-0.000191201" gradientUnits="userSpaceOnUse">
<stop stop-color="#63433B"/>
<stop offset="0.5045" stop-color="#A36841"/>
<stop offset="1" stop-color="#FFC255"/>
</linearGradient>
<linearGradient id="paint3_linear_2680_6887" x1="41.912" y1="67.5099" x2="41.912" y2="12.6796" gradientUnits="userSpaceOnUse">
<stop stop-color="#F4D6A6"/>
<stop offset="0.216" stop-color="#F6E2BE"/>
<stop offset="0.4219" stop-color="#F7EACD"/>
<stop offset="0.5893" stop-color="#F7EDD2"/>
<stop offset="1" stop-color="white"/>
</linearGradient>
</defs>
</svg>
