<svg width="84" height="90" viewBox="0 0 84 90" fill="none" xmlns="http://www.w3.org/2000/svg">
<path opacity="0.3" d="M41.9136 89.9983C65.0614 89.9983 83.8265 70.9253 83.8265 47.3976C83.8265 23.8699 65.0614 4.79688 41.9136 4.79688C18.7658 4.79688 0.000732422 23.8699 0.000732422 47.3976C0.000732422 70.9253 18.7658 89.9983 41.9136 89.9983Z" fill="#1A1A1A"/>
<path d="M41.9129 85.5608C65.0607 85.5608 83.8257 66.4878 83.8257 42.9601C83.8257 19.4324 65.0607 0.359375 41.9129 0.359375C18.765 0.359375 0 19.4324 0 42.9601C0 66.4878 18.765 85.5608 41.9129 85.5608Z" fill="#42210B"/>
<path d="M41.9134 79.1598C63.488 79.1598 80.9777 61.6701 80.9777 40.0955C80.9777 18.5209 63.488 1.03125 41.9134 1.03125C20.3388 1.03125 2.84912 18.5209 2.84912 40.0955C2.84912 61.6701 20.3388 79.1598 41.9134 79.1598Z" fill="url(#paint0_linear_2680_7569)"/>
<path d="M65.5649 46.7704L81.5728 46.0172C81.8587 44.0851 82.0111 42.1093 82.0111 40.0976C82.0111 37.2743 81.7159 34.5206 81.1608 31.8623L63.2588 29.9976L80.3466 28.6602C78.4014 22.1144 74.8351 16.268 70.1056 11.5905L39.9866 9.03134H67.2604C60.3521 3.38811 51.5296 0 41.9135 0C23.7396 0 8.39828 12.0945 3.47721 28.6711L22.7943 30.3121L2.65084 31.9273C2.1047 34.5653 1.81555 37.2978 1.81555 40.0976C1.81555 42.1517 1.97153 44.1695 2.26964 46.1403L12.5209 47.3993L3.04976 49.9962C5.23349 58.5956 10.1999 66.0793 16.9297 71.4491L20.4881 68.5749L19.7199 73.4915C21.0877 74.4025 22.5169 75.2276 23.9962 75.9678L26.9877 71.9294V77.3129C31.6026 79.1655 36.6364 80.1951 41.9135 80.1951C49.0266 80.1951 55.7021 78.3351 61.494 75.0867L60.631 70.2522L63.9233 73.6094C72.4014 68.0299 78.63 59.3226 80.9778 49.1272L65.5649 46.7704Z" fill="url(#paint1_linear_2680_7569)"/>
<path d="M65.5649 46.7704L81.5728 46.0172C81.8587 44.0851 82.0111 42.1093 82.0111 40.0976C82.0111 37.2743 81.7159 34.5206 81.1608 31.8623L63.2588 29.9976L80.3466 28.6602C78.4014 22.1144 74.8351 16.268 70.1056 11.5905L39.9866 9.03134H67.2604C60.3521 3.38811 51.5296 0 41.9135 0C23.7396 0 8.39828 12.0945 3.47721 28.6711L22.7943 30.3121L2.65084 31.9273C2.1047 34.5653 1.81555 37.2978 1.81555 40.0976C1.81555 42.1517 1.97153 44.1695 2.26964 46.1403L12.5209 47.3993L3.04976 49.9962C5.23349 58.5956 10.1999 66.0793 16.9297 71.4491L20.4881 68.5749L19.7199 73.4915C21.0877 74.4025 22.5169 75.2276 23.9962 75.9678L26.9877 71.9294V77.3129C31.6026 79.1655 36.6364 80.1951 41.9135 80.1951C49.0266 80.1951 55.7021 78.3351 61.494 75.0867L60.631 70.2522L63.9233 73.6094C72.4014 68.0299 78.63 59.3226 80.9778 49.1272L65.5649 46.7704Z" fill="url(#paint2_linear_2680_7569)"/>
<path d="M39.9862 9.03125C50.0259 10.2512 60.0656 11.4711 70.1052 12.6911C74.5728 17.1097 77.984 22.5792 79.9898 28.688L80.3463 28.6601C78.401 22.1143 74.8347 16.268 70.1052 11.5904L52.9403 10.1321C48.6223 9.76513 44.3042 9.39819 39.9862 9.03125Z" fill="#FFCF83"/>
<path d="M63.2593 30C69.2266 30.9885 75.1942 31.977 81.1613 32.9656C81.6859 35.4781 81.9691 38.0782 81.9996 40.7392C82.003 40.5262 82.0115 40.3141 82.0115 40.1002C82.0115 37.277 81.7164 34.5232 81.1613 31.865L69.2927 30.6286C67.2815 30.4189 65.2704 30.2095 63.2593 30Z" fill="#FFCF83"/>
<path d="M9.74701 48.1587L3.04834 49.9954C3.13571 50.3393 3.2348 50.6783 3.33091 51.0186C6.39363 49.8119 9.45657 48.6052 12.5193 47.3984C11.5953 47.6518 10.6712 47.9054 9.74701 48.1587Z" fill="#B7724B"/>
<path d="M65.5654 46.7734C70.6124 47.9122 75.6595 49.0509 80.7065 50.1899C80.7979 49.8372 80.8957 49.4871 80.9777 49.1306L71.0689 47.6151C69.2344 47.3347 67.3999 47.0541 65.5654 46.7734Z" fill="#B7724B"/>
<path d="M41.9123 1.1006C50.8848 1.1006 59.165 4.05231 65.8451 9.03134H67.2592C60.3508 3.38811 51.5283 0 41.9123 0C23.7383 0 8.39702 12.0945 3.47595 28.6711L3.81796 28.7001C9.07187 12.6779 24.1334 1.1006 41.9123 1.1006Z" fill="#FFCF83"/>
<path d="M2.65084 33.0285C9.36527 32.1231 16.0799 31.2179 22.7943 30.3125C20.5727 30.4906 18.3508 30.6688 16.1291 30.8469L2.65084 31.9277C2.1047 34.5658 1.81555 37.2982 1.81555 40.098C1.81555 40.3104 1.82427 40.5207 1.82747 40.7323C1.85794 38.0962 2.13496 35.5193 2.65084 33.0285Z" fill="#FFCF83"/>
<path d="M58.1662 33.3174V22.7949C58.1662 19.6077 54.7158 17.6158 51.9557 19.2092L36.6067 28.071H22.5473C20.2788 28.071 18.4398 29.9099 18.4398 32.1785V48.9051C18.4398 51.1736 20.2788 53.0126 22.5473 53.0126H38.1328L51.9557 60.9932C54.7158 62.5869 58.1662 60.5949 58.1662 57.4075V47.7663C62.1561 47.7663 65.3907 44.5319 65.3907 40.5418C65.3905 36.5519 62.1561 33.3174 58.1662 33.3174Z" fill="url(#paint3_linear_2680_7569)"/>
<path d="M54.0186 18.6472C56.1813 18.6472 58.1654 20.3768 58.1654 22.7937V33.3162C62.1552 33.3162 65.3899 36.5507 65.3899 40.5408C65.3899 44.5309 62.1554 47.7653 58.1654 47.7653V57.4065C58.1654 59.8236 56.1815 61.553 54.0186 61.553C53.3295 61.553 52.6217 61.3772 51.9547 60.9922L38.1318 53.0116H22.5463C20.2778 53.0116 18.4388 51.1726 18.4388 48.9041V32.1775C18.4388 29.9089 20.2778 28.07 22.5463 28.07H36.6057L51.9547 19.2082C52.6221 18.823 53.3293 18.6472 54.0186 18.6472ZM54.0186 17.0234C53.0193 17.0234 52.025 17.2926 51.1428 17.8019L36.1706 26.446H22.5463C19.386 26.446 16.8151 29.0171 16.8151 32.1772V48.9039C16.8151 52.0642 19.3862 54.6351 22.5463 54.6351H37.6967L51.1426 62.3981C52.0246 62.9074 53.019 63.1766 54.0184 63.1766C57.2003 63.1766 59.7889 60.5879 59.7889 57.4063V49.2395C63.8951 48.4747 67.0134 44.865 67.0134 40.5406C67.0134 36.2161 63.8951 32.6062 59.7889 31.8416V22.7937C59.7891 19.612 57.2005 17.0234 54.0186 17.0234Z" fill="#42210B"/>
<defs>
<linearGradient id="paint0_linear_2680_7569" x1="41.9134" y1="79.1597" x2="41.9134" y2="1.0313" gradientUnits="userSpaceOnUse">
<stop stop-color="#4E2A21"/>
<stop offset="0.2304" stop-color="#522D22"/>
<stop offset="0.4427" stop-color="#5D3527"/>
<stop offset="0.6478" stop-color="#6F422E"/>
<stop offset="0.8472" stop-color="#8A5537"/>
<stop offset="1" stop-color="#A36841"/>
</linearGradient>
<linearGradient id="paint1_linear_2680_7569" x1="41.9131" y1="80.1955" x2="41.9131" y2="-8.60406e-05" gradientUnits="userSpaceOnUse">
<stop stop-color="#63433B"/>
<stop offset="0.5045" stop-color="#A36841"/>
<stop offset="1" stop-color="#FFC255"/>
</linearGradient>
<linearGradient id="paint2_linear_2680_7569" x1="41.9131" y1="80.1955" x2="41.9131" y2="-8.60406e-05" gradientUnits="userSpaceOnUse">
<stop stop-color="#63433B"/>
<stop offset="0.5045" stop-color="#A36841"/>
<stop offset="1" stop-color="#FFC255"/>
</linearGradient>
<linearGradient id="paint3_linear_2680_7569" x1="41.9152" y1="61.5542" x2="41.9152" y2="18.6484" gradientUnits="userSpaceOnUse">
<stop stop-color="#F4D6A6"/>
<stop offset="0.216" stop-color="#F6E2BE"/>
<stop offset="0.4219" stop-color="#F7EACD"/>
<stop offset="0.5893" stop-color="#F7EDD2"/>
<stop offset="1" stop-color="white"/>
</linearGradient>
</defs>
</svg>
