<svg width="84" height="90" viewBox="0 0 84 90" fill="none" xmlns="http://www.w3.org/2000/svg">
<path opacity="0.3" d="M41.9871 89.9983C65.1349 89.9983 83.8999 70.9253 83.8999 47.3976C83.8999 23.8699 65.1349 4.79688 41.9871 4.79688C18.8392 4.79688 0.0742188 23.8699 0.0742188 47.3976C0.0742188 70.9253 18.8392 89.9983 41.9871 89.9983Z" fill="#1A1A1A"/>
<path d="M41.9863 85.5608C65.1342 85.5608 83.8992 66.4878 83.8992 42.9601C83.8992 19.4324 65.1342 0.359375 41.9863 0.359375C18.8385 0.359375 0.0734863 19.4324 0.0734863 42.9601C0.0734863 66.4878 18.8385 85.5608 41.9863 85.5608Z" fill="#42210B"/>
<path d="M41.9869 79.1598C63.5615 79.1598 81.0512 61.6701 81.0512 40.0955C81.0512 18.5209 63.5615 1.03125 41.9869 1.03125C20.4123 1.03125 2.92261 18.5209 2.92261 40.0955C2.92261 61.6701 20.4123 79.1598 41.9869 79.1598Z" fill="url(#paint0_linear_2680_7946)"/>
<path d="M65.6385 46.7704L81.6464 46.0172C81.9323 44.0851 82.0847 42.1093 82.0847 40.0976C82.0847 37.2743 81.7896 34.5206 81.2345 31.8623L63.3324 29.9976L80.4202 28.6602C78.475 22.1144 74.9087 16.268 70.1792 11.5905L40.0602 9.03134H67.334C60.4257 3.38811 51.6032 0 41.9871 0C23.8132 0 8.47189 12.0945 3.55082 28.6711L22.8679 30.3121L2.72445 31.9273C2.1783 34.5653 1.88916 37.2978 1.88916 40.0976C1.88916 42.1517 2.04514 44.1695 2.34325 46.1403L12.5945 47.3993L3.12337 49.9962C5.3071 58.5956 10.2736 66.0793 17.0033 71.4491L20.5617 68.5749L19.7935 73.4915C21.1613 74.4025 22.5905 75.2276 24.0698 75.9678L27.0613 71.9294V77.3129C31.6762 79.1655 36.71 80.1951 41.9871 80.1951C49.1002 80.1951 55.7757 78.3351 61.5676 75.0867L60.7046 70.2522L63.9969 73.6094C72.475 68.0299 78.7036 59.3226 81.0514 49.1272L65.6385 46.7704Z" fill="url(#paint1_linear_2680_7946)"/>
<path d="M65.6385 46.7704L81.6464 46.0172C81.9323 44.0851 82.0847 42.1093 82.0847 40.0976C82.0847 37.2743 81.7896 34.5206 81.2345 31.8623L63.3324 29.9976L80.4202 28.6602C78.475 22.1144 74.9087 16.268 70.1792 11.5905L40.0602 9.03134H67.334C60.4257 3.38811 51.6032 0 41.9871 0C23.8132 0 8.47189 12.0945 3.55082 28.6711L22.8679 30.3121L2.72445 31.9273C2.1783 34.5653 1.88916 37.2978 1.88916 40.0976C1.88916 42.1517 2.04514 44.1695 2.34325 46.1403L12.5945 47.3993L3.12337 49.9962C5.3071 58.5956 10.2736 66.0793 17.0033 71.4491L20.5617 68.5749L19.7935 73.4915C21.1613 74.4025 22.5905 75.2276 24.0698 75.9678L27.0613 71.9294V77.3129C31.6762 79.1655 36.71 80.1951 41.9871 80.1951C49.1002 80.1951 55.7757 78.3351 61.5676 75.0867L60.7046 70.2522L63.9969 73.6094C72.475 68.0299 78.7036 59.3226 81.0514 49.1272L65.6385 46.7704Z" fill="url(#paint2_linear_2680_7946)"/>
<path d="M40.0598 9.03125C50.0995 10.2512 60.1392 11.4711 70.1788 12.6911C74.6465 17.1097 78.0576 22.5792 80.0634 28.688L80.4199 28.6601C78.4746 22.1143 74.9083 16.268 70.1788 11.5904L53.0139 10.1321C48.6959 9.76513 44.3778 9.39819 40.0598 9.03125Z" fill="#FFCF83"/>
<path d="M63.3328 30C69.3001 30.9885 75.2676 31.977 81.2348 32.9656C81.7594 35.4781 82.0426 38.0782 82.0731 40.7392C82.0765 40.5262 82.085 40.3141 82.085 40.1002C82.085 37.277 81.7899 34.5232 81.2348 31.865L69.3662 30.6286C67.355 30.4189 65.3439 30.2095 63.3328 30Z" fill="#FFCF83"/>
<path d="M9.82049 48.1587L3.12183 49.9954C3.20919 50.3393 3.30829 50.6783 3.40439 51.0186C6.46712 49.8119 9.53005 48.6052 12.5928 47.3984C11.6688 47.6518 10.7447 47.9054 9.82049 48.1587Z" fill="#B7724B"/>
<path d="M65.6389 46.7734C70.6859 47.9122 75.7329 49.0509 80.78 50.1899C80.8714 49.8372 80.9692 49.4871 81.0512 49.1306L71.1424 47.6151C69.3079 47.3347 67.4734 47.0541 65.6389 46.7734Z" fill="#B7724B"/>
<path d="M41.9859 1.1006C50.9584 1.1006 59.2386 4.05231 65.9187 9.03134H67.3328C60.4244 3.38811 51.6019 0 41.9859 0C23.8119 0 8.47063 12.0945 3.54956 28.6711L3.89156 28.7001C9.14548 12.6779 24.207 1.1006 41.9859 1.1006Z" fill="#FFCF83"/>
<path d="M2.72445 33.0285C9.43888 32.1231 16.1535 31.2179 22.8679 30.3125C20.6463 30.4906 18.4244 30.6688 16.2028 30.8469L2.72445 31.9277C2.1783 34.5658 1.88916 37.2982 1.88916 40.098C1.88916 40.3104 1.89788 40.5207 1.90107 40.7323C1.93155 38.0962 2.20856 35.5193 2.72445 33.0285Z" fill="#FFCF83"/>
<path d="M42.0729 20.8359C38.2821 20.8359 34.5764 21.96 31.4245 24.0661C28.2726 26.1722 25.8159 29.1656 24.3652 32.6678C22.9146 36.1701 22.535 40.0239 23.2745 43.7418C24.0141 47.4598 25.8395 50.875 28.52 53.5555C31.2006 56.236 34.6157 58.0614 38.3337 58.801C42.0517 59.5405 45.9054 59.161 49.4077 57.7103C52.9099 56.2596 55.9034 53.803 58.0094 50.651C60.1155 47.4991 61.2396 43.7934 61.2396 40.0026C61.2396 37.4856 60.7438 34.9932 59.7806 32.6678C58.8174 30.3424 57.4056 28.2295 55.6258 26.4497C53.846 24.6699 51.7331 23.2581 49.4077 22.2949C47.0823 21.3317 44.5899 20.8359 42.0729 20.8359ZM49.7396 45.2734C49.7396 45.9089 49.4872 46.5182 49.0379 46.9675C48.5886 47.4169 47.9792 47.6693 47.3438 47.6693H36.8021C36.1667 47.6693 35.5573 47.4169 35.108 46.9675C34.6587 46.5182 34.4063 45.9089 34.4063 45.2734V34.7318C34.4063 34.0964 34.6587 33.487 35.108 33.0377C35.5573 32.5884 36.1667 32.3359 36.8021 32.3359H47.3438C47.9792 32.3359 48.5886 32.5884 49.0379 33.0377C49.4872 33.487 49.7396 34.0964 49.7396 34.7318V45.2734Z" fill="#F7ECD1"/>
<path d="M48.2315 32.3281H35.9153C35.0821 32.3281 34.4067 33.0035 34.4067 33.8367V46.1529C34.4067 46.986 35.0821 47.6615 35.9153 47.6615H48.2315C49.0647 47.6615 49.7401 46.9861 49.7401 46.1529V33.8367C49.7401 33.0035 49.0647 32.3281 48.2315 32.3281Z" fill="#5E1513"/>
<defs>
<linearGradient id="paint0_linear_2680_7946" x1="41.9869" y1="79.1597" x2="41.9869" y2="1.0313" gradientUnits="userSpaceOnUse">
<stop stop-color="#4E2A21"/>
<stop offset="0.2304" stop-color="#522D22"/>
<stop offset="0.4427" stop-color="#5D3527"/>
<stop offset="0.6478" stop-color="#6F422E"/>
<stop offset="0.8472" stop-color="#8A5537"/>
<stop offset="1" stop-color="#A36841"/>
</linearGradient>
<linearGradient id="paint1_linear_2680_7946" x1="41.9868" y1="80.1955" x2="41.9868" y2="-8.60406e-05" gradientUnits="userSpaceOnUse">
<stop stop-color="#63433B"/>
<stop offset="0.5045" stop-color="#A36841"/>
<stop offset="1" stop-color="#FFC255"/>
</linearGradient>
<linearGradient id="paint2_linear_2680_7946" x1="41.9868" y1="80.1955" x2="41.9868" y2="-8.60406e-05" gradientUnits="userSpaceOnUse">
<stop stop-color="#63433B"/>
<stop offset="0.5045" stop-color="#A36841"/>
<stop offset="1" stop-color="#FFC255"/>
</linearGradient>
</defs>
</svg>
