<svg width="84" height="90" viewBox="0 0 84 90" fill="none" xmlns="http://www.w3.org/2000/svg">
<path opacity="0.3" d="M41.9128 89.9981C65.0606 89.9981 83.8256 70.9252 83.8256 47.3975C83.8256 23.8698 65.0606 4.79688 41.9128 4.79688C18.765 4.79688 0 23.8698 0 47.3975C0 70.9252 18.765 89.9981 41.9128 89.9981Z" fill="#1A1A1A"/>
<path d="M41.9128 85.5606C65.0606 85.5606 83.8256 66.4877 83.8256 42.96C83.8256 19.4323 65.0606 0.359375 41.9128 0.359375C18.765 0.359375 0 19.4323 0 42.96C0 66.4877 18.765 85.5606 41.9128 85.5606Z" fill="#42210B"/>
<path d="M41.9126 79.1597C63.4872 79.1597 80.9768 61.67 80.9768 40.0955C80.9768 18.5209 63.4872 1.03125 41.9126 1.03125C20.338 1.03125 2.84839 18.5209 2.84839 40.0955C2.84839 61.67 20.338 79.1597 41.9126 79.1597Z" fill="url(#paint0_linear_2680_6681)"/>
<path d="M65.5646 46.7703L81.5725 46.0171C81.8585 44.085 82.0108 42.1092 82.0108 40.0975C82.0108 37.2743 81.7157 34.5205 81.1606 31.8623L63.2586 29.9975L80.3464 28.6602C78.4011 22.1143 74.8348 16.268 70.1053 11.5905L39.9864 9.03132H67.2602C60.3519 3.3881 51.5291 0 41.9133 0C23.7394 0 8.39815 12.0945 3.47709 28.671L22.7942 30.312L2.65075 31.9272C2.1046 34.5653 1.81543 37.2975 1.81543 40.0975C1.81543 42.1516 1.97141 44.1694 2.26952 46.1404L12.5208 47.3994L3.04964 49.9963C5.23358 58.5957 10.2 66.0793 16.9296 71.4494L20.4879 68.5752L19.7195 73.4918C21.0876 74.4028 22.5165 75.2279 23.9958 75.9681L26.9874 71.9297V77.3131C31.6022 79.1657 36.636 80.1954 41.9131 80.1954C49.0262 80.1954 55.7016 78.3353 61.4936 75.087L60.6306 70.2525L63.9228 73.6097C72.401 68.0302 78.6295 59.3229 80.9773 49.1275L65.5646 46.7703Z" fill="url(#paint1_linear_2680_6681)"/>
<path d="M65.5646 46.7703L81.5725 46.0171C81.8585 44.085 82.0108 42.1092 82.0108 40.0975C82.0108 37.2743 81.7157 34.5205 81.1606 31.8623L63.2586 29.9975L80.3464 28.6602C78.4011 22.1143 74.8348 16.268 70.1053 11.5905L39.9864 9.03132H67.2602C60.3519 3.3881 51.5291 0 41.9133 0C23.7394 0 8.39815 12.0945 3.47709 28.671L22.7942 30.312L2.65075 31.9272C2.1046 34.5653 1.81543 37.2975 1.81543 40.0975C1.81543 42.1516 1.97141 44.1694 2.26952 46.1404L12.5208 47.3994L3.04964 49.9963C5.23358 58.5957 10.2 66.0793 16.9296 71.4494L20.4879 68.5752L19.7195 73.4918C21.0876 74.4028 22.5165 75.2279 23.9958 75.9681L26.9874 71.9297V77.3131C31.6022 79.1657 36.636 80.1954 41.9131 80.1954C49.0262 80.1954 55.7016 78.3353 61.4936 75.087L60.6306 70.2525L63.9228 73.6097C72.401 68.0302 78.6295 59.3229 80.9773 49.1275L65.5646 46.7703Z" fill="url(#paint2_linear_2680_6681)"/>
<path d="M39.9856 9.03125C50.0253 10.2512 60.0649 11.4711 70.1046 12.691C74.5722 17.1094 77.9833 22.5792 79.9891 28.6878L80.3456 28.6599C78.4003 22.114 74.8341 16.2677 70.1046 11.5902L52.9397 10.1318C48.6219 9.76491 44.3036 9.39798 39.9856 9.03125Z" fill="#FFCF83"/>
<path d="M63.2581 30C69.2254 30.9885 75.1927 31.977 81.16 32.9655C81.6847 35.4781 81.9679 38.0782 81.9983 40.7392C82.0017 40.5261 82.0103 40.3141 82.0103 40.1002C82.0103 37.277 81.7151 34.5232 81.16 31.865L69.2914 30.6286C67.2801 30.4191 65.2692 30.2097 63.2581 30Z" fill="#FFCF83"/>
<path d="M9.7477 48.1587L3.04907 49.9953C3.13644 50.3393 3.2355 50.6783 3.33182 51.0186C6.39454 49.8119 9.45747 48.6052 12.5202 47.3984C11.596 47.652 10.6719 47.9054 9.7477 48.1587Z" fill="#B7724B"/>
<path d="M65.5647 46.7734C70.6117 47.9122 75.6587 49.0509 80.7057 50.1899C80.7971 49.8372 80.8949 49.4871 80.977 49.1306L71.0681 47.6151C69.2337 47.3345 67.3992 47.0541 65.5647 46.7734Z" fill="#B7724B"/>
<path d="M41.9125 1.1006C50.8851 1.1006 59.1652 4.0523 65.8453 9.03132H67.2594C60.3511 3.3881 51.5284 0 41.9125 0C23.7387 0 8.39738 12.0945 3.47632 28.671L3.81832 28.7C9.07223 12.6777 24.1335 1.1006 41.9125 1.1006Z" fill="#FFCF83"/>
<path d="M2.65026 33.0285C9.36467 32.1231 16.0793 31.2179 22.7937 30.3125C20.5721 30.4906 18.3502 30.6688 16.1285 30.8469L2.65026 31.9277C2.10411 34.5657 1.81494 37.298 1.81494 40.0979C1.81494 40.3104 1.82368 40.5207 1.82688 40.7323C1.85757 38.0962 2.13458 35.5193 2.65026 33.0285Z" fill="#FFCF83"/>
<path d="M35.4066 57.9396H26.9176C25.4051 57.9396 24.179 56.7135 24.179 55.2012V25.0042C24.179 23.4917 25.4051 22.2656 26.9176 22.2656H35.4066C36.9191 22.2656 38.145 23.4917 38.145 25.0042V55.2012C38.145 56.7137 36.9189 57.9396 35.4066 57.9396Z" fill="url(#paint3_linear_2680_6681)"/>
<path d="M35.4068 22.2644C36.9193 22.2644 38.1452 23.4905 38.1452 25.0027V55.1997C38.1452 56.7122 36.9191 57.9381 35.4068 57.9381H26.9178C25.4053 57.9381 24.1794 56.712 24.1794 55.1997V25.003C24.1794 23.4905 25.4055 22.2646 26.9178 22.2646L35.4068 22.2644ZM35.4068 20.6406H26.9178C24.5124 20.6406 22.5554 22.5976 22.5554 25.003V55.1999C22.5554 57.6053 24.5122 59.5623 26.9178 59.5623H35.4068C37.8121 59.5623 39.7691 57.6053 39.7691 55.1999V25.003C39.7691 22.5976 37.8121 20.6406 35.4068 20.6406Z" fill="#42210B"/>
<path d="M56.9098 57.9396H48.4208C46.9083 57.9396 45.6824 56.7135 45.6824 55.2012V25.0042C45.6824 23.4917 46.9085 22.2656 48.4208 22.2656H56.9098C58.4223 22.2656 59.6484 23.4917 59.6484 25.0042V55.2012C59.6482 56.7137 58.4221 57.9396 56.9098 57.9396Z" fill="url(#paint4_linear_2680_6681)"/>
<path d="M56.9097 22.2644C58.4222 22.2644 59.6481 23.4905 59.6481 25.0027V55.1997C59.6481 56.7122 58.422 57.9381 56.9097 57.9381H48.4207C46.9082 57.9381 45.6823 56.712 45.6823 55.1997V25.003C45.6823 23.4905 46.9084 22.2646 48.4207 22.2646L56.9097 22.2644ZM56.9097 20.6406H48.4207C46.0154 20.6406 44.0583 22.5976 44.0583 25.003V55.1999C44.0583 57.6053 46.0152 59.5623 48.4207 59.5623H56.9097C59.3151 59.5623 61.2721 57.6053 61.2721 55.1999V25.003C61.2718 22.5976 59.3151 20.6406 56.9097 20.6406Z" fill="#42210B"/>
<defs>
<linearGradient id="paint0_linear_2680_6681" x1="41.9126" y1="79.1597" x2="41.9126" y2="1.0314" gradientUnits="userSpaceOnUse">
<stop stop-color="#4E2A21"/>
<stop offset="0.2304" stop-color="#522D22"/>
<stop offset="0.4427" stop-color="#5D3527"/>
<stop offset="0.6478" stop-color="#6F422E"/>
<stop offset="0.8472" stop-color="#8A5537"/>
<stop offset="1" stop-color="#A36841"/>
</linearGradient>
<linearGradient id="paint1_linear_2680_6681" x1="41.9128" y1="80.1953" x2="41.9128" y2="-0.000191201" gradientUnits="userSpaceOnUse">
<stop stop-color="#63433B"/>
<stop offset="0.5045" stop-color="#A36841"/>
<stop offset="1" stop-color="#FFC255"/>
</linearGradient>
<linearGradient id="paint2_linear_2680_6681" x1="41.9128" y1="80.1953" x2="41.9128" y2="-0.000191201" gradientUnits="userSpaceOnUse">
<stop stop-color="#63433B"/>
<stop offset="0.5045" stop-color="#A36841"/>
<stop offset="1" stop-color="#FFC255"/>
</linearGradient>
<linearGradient id="paint3_linear_2680_6681" x1="31.1621" y1="57.9397" x2="31.1621" y2="22.2657" gradientUnits="userSpaceOnUse">
<stop stop-color="#F4D6A6"/>
<stop offset="0.216" stop-color="#F6E2BE"/>
<stop offset="0.4219" stop-color="#F7EACD"/>
<stop offset="0.5893" stop-color="#F7EDD2"/>
<stop offset="1" stop-color="white"/>
</linearGradient>
<linearGradient id="paint4_linear_2680_6681" x1="52.6652" y1="57.9397" x2="52.6652" y2="22.2657" gradientUnits="userSpaceOnUse">
<stop stop-color="#F4D6A6"/>
<stop offset="0.216" stop-color="#F6E2BE"/>
<stop offset="0.4219" stop-color="#F7EACD"/>
<stop offset="0.5893" stop-color="#F7EDD2"/>
<stop offset="1" stop-color="white"/>
</linearGradient>
</defs>
</svg>
