<svg width="399" height="70" viewBox="0 0 399 70" fill="none" xmlns="http://www.w3.org/2000/svg">
<mask id="mask0_2680_7941" style="mask-type:luminance" maskUnits="userSpaceOnUse" x="0" y="0" width="399" height="70">
<path d="M396.576 32.418C395.75 32.418 395.08 32.7952 395.08 33.2599V35V36.7401C395.08 37.2051 395.75 37.582 396.576 37.582C397.403 37.582 398.074 37.2051 398.074 36.7401V35V33.2599C398.074 32.7952 397.403 32.418 396.576 32.418ZM391.164 30.7279C390.338 30.7279 389.668 31.1049 389.668 31.5698V35V38.4304C389.668 38.8951 390.338 39.2723 391.164 39.2723C391.991 39.2723 392.662 38.8951 392.662 38.4304V35V31.5698C392.662 31.1049 391.991 30.7279 391.164 30.7279ZM385.752 28.7372C384.925 28.7372 384.255 29.1144 384.255 29.5794V35V40.4209C384.255 40.8856 384.925 41.2628 385.752 41.2628C386.579 41.2628 387.249 40.8856 387.249 40.4209V35V29.5794C387.249 29.1144 386.579 28.7372 385.752 28.7372ZM380.34 31.4478C379.513 31.4478 378.843 31.8247 378.843 32.2897V35V37.7103C378.843 38.1753 379.513 38.5522 380.34 38.5522C381.167 38.5522 381.838 38.1753 381.838 37.7103V35V32.2897C381.838 31.8247 381.167 31.4478 380.34 31.4478ZM374.928 21.9592C374.102 21.9592 373.431 22.3361 373.431 22.8013V35V47.1989C373.431 47.6639 374.102 48.0408 374.928 48.0408C375.756 48.0408 376.426 47.6639 376.426 47.1989V35V22.8013C376.426 22.3361 375.756 21.9592 374.928 21.9592ZM369.517 18.5007C368.689 18.5007 368.019 18.8779 368.019 19.3429V35V50.6571C368.019 51.1221 368.689 51.499 369.517 51.499C370.343 51.499 371.013 51.1221 371.013 50.6571V35V19.3429C371.013 18.8779 370.343 18.5007 369.517 18.5007ZM364.105 25.8911C363.277 25.8911 362.607 26.268 362.607 26.733V35V43.2673C362.607 43.732 363.277 44.1092 364.105 44.1092C364.931 44.1092 365.602 43.732 365.602 43.2673V35V26.733C365.602 26.268 364.931 25.8911 364.105 25.8911ZM358.692 22.8714C357.865 22.8714 357.195 23.2483 357.195 23.7133V35V46.287C357.195 46.752 357.865 47.1289 358.692 47.1289C359.519 47.1289 360.189 46.752 360.189 46.287V35V23.7133C360.189 23.2483 359.519 22.8714 358.692 22.8714ZM353.28 19.0855C352.454 19.0855 351.783 19.4625 351.783 19.9274V35V50.0726C351.783 50.5375 352.454 50.9145 353.28 50.9145C354.107 50.9145 354.777 50.5375 354.777 50.0726V35V19.9274C354.777 19.4625 354.107 19.0855 353.28 19.0855ZM347.868 15.2126C347.041 15.2126 346.371 15.5896 346.371 16.0546V35V53.9455C346.371 54.4107 347.041 54.7874 347.868 54.7874C348.695 54.7874 349.365 54.4107 349.365 53.9455V35V16.0546C349.365 15.5896 348.695 15.2126 347.868 15.2126ZM342.456 18.8151C341.63 18.8151 340.959 19.1921 340.959 19.6571V35V50.343C340.959 50.8079 341.63 51.1849 342.456 51.1849C343.283 51.1849 343.953 50.8079 343.953 50.343V35V19.6571C343.953 19.1921 343.283 18.8151 342.456 18.8151ZM337.044 23.4799C336.217 23.4799 335.547 23.8566 335.547 24.3218V35V45.6787C335.547 46.1434 336.217 46.5206 337.044 46.5206C337.871 46.5206 338.541 46.1434 338.541 45.6787V35V24.3218C338.541 23.8566 337.871 23.4799 337.044 23.4799ZM331.632 26.3295C330.805 26.3295 330.135 26.7065 330.135 27.1715V35V42.8288C330.135 43.2935 330.805 43.6707 331.632 43.6707C332.459 43.6707 333.129 43.2935 333.129 42.8288V35V27.1715C333.129 26.7065 332.459 26.3295 331.632 26.3295ZM326.22 28.0586C325.393 28.0586 324.723 28.4356 324.723 28.9005V35V41.0995C324.723 41.5644 325.393 41.9414 326.22 41.9414C327.047 41.9414 327.718 41.5644 327.718 41.0995V35V28.9005C327.718 28.4356 327.047 28.0586 326.22 28.0586ZM320.808 31.1086C319.981 31.1086 319.311 31.4853 319.311 31.9505V35V38.05C319.311 38.5147 319.981 38.8919 320.808 38.8919C321.635 38.8919 322.305 38.5147 322.305 38.05V35V31.9505C322.305 31.4853 321.635 31.1086 320.808 31.1086ZM315.396 32.2006C314.569 32.2006 313.899 32.5776 313.899 33.0426V35V36.9577C313.899 37.4227 314.569 37.7999 315.396 37.7999C316.223 37.7999 316.893 37.4227 316.893 36.9577V35V33.0426C316.893 32.5776 316.223 32.2006 315.396 32.2006ZM309.984 30.2439C309.157 30.2439 308.487 30.6206 308.487 31.0859V35V38.9144C308.487 39.3794 309.157 39.7563 309.984 39.7563C310.811 39.7563 311.481 39.3794 311.481 38.9144V35V31.0859C311.481 30.6206 310.811 30.2439 309.984 30.2439ZM304.572 29.4288C303.745 29.4288 303.075 29.8057 303.075 30.2707V35V39.7293C303.075 40.1945 303.745 40.5715 304.572 40.5715C305.399 40.5715 306.069 40.1945 306.069 39.7293V35V30.2707C306.069 29.8057 305.399 29.4288 304.572 29.4288ZM299.16 27.198C298.333 27.198 297.662 27.5749 297.662 28.0399V35V41.9601C297.662 42.4254 298.333 42.8023 299.16 42.8023C299.986 42.8023 300.656 42.4254 300.656 41.9601V35V28.0399C300.656 27.5749 299.986 27.198 299.16 27.198ZM293.748 30.2439C292.921 30.2439 292.251 30.6206 292.251 31.0859V35V38.9144C292.251 39.3794 292.921 39.7563 293.748 39.7563C294.574 39.7563 295.245 39.3794 295.245 38.9144V35V31.0859C295.245 30.6206 294.574 30.2439 293.748 30.2439ZM288.336 28.5146C287.509 28.5146 286.839 28.8915 286.839 29.3568V35V40.6435C286.839 41.1085 287.509 41.4854 288.336 41.4854C289.163 41.4854 289.833 41.1085 289.833 40.6435V35V29.3568C289.833 28.8915 289.163 28.5146 288.336 28.5146ZM282.923 25.5752C282.097 25.5752 281.427 25.9524 281.427 26.4173V35V43.5829C281.427 44.0476 282.097 44.4248 282.923 44.4248C283.75 44.4248 284.421 44.0476 284.421 43.5829V35V26.4173C284.421 25.9524 283.75 25.5752 282.923 25.5752ZM277.511 28.8188C276.685 28.8188 276.015 29.1957 276.015 29.6607V35V40.3393C276.015 40.8041 276.685 41.1813 277.511 41.1813C278.339 41.1813 279.009 40.8041 279.009 40.3393V35V29.6607C279.009 29.1957 278.339 28.8188 277.511 28.8188ZM272.1 20.7081C271.272 20.7081 270.602 21.085 270.602 21.55V35V48.4503C270.602 48.9153 271.272 49.2922 272.1 49.2922C272.926 49.2922 273.597 48.9153 273.597 48.4503V35V21.55C273.597 21.085 272.926 20.7081 272.1 20.7081ZM266.688 24.2911C265.861 24.2911 265.19 24.668 265.19 25.133V35V44.867C265.19 45.3323 265.861 45.7092 266.688 45.7092C267.515 45.7092 268.185 45.3323 268.185 44.867V35V25.133C268.185 24.668 267.515 24.2911 266.688 24.2911ZM261.275 21.0432C260.448 21.0432 259.778 21.4202 259.778 21.8854V35V48.1149C259.778 48.5798 260.448 48.957 261.275 48.957C262.102 48.957 262.772 48.5798 262.772 48.1149V35V21.8854C262.772 21.4202 262.102 21.0432 261.275 21.0432ZM255.864 17.6238C255.036 17.6238 254.366 18.0008 254.366 18.466V35V51.5343C254.366 51.9993 255.036 52.3762 255.864 52.3762C256.69 52.3762 257.361 51.9993 257.361 51.5343V35V18.466C257.361 18.0008 256.69 17.6238 255.864 17.6238ZM250.451 13.7449C249.624 13.7449 248.954 14.1219 248.954 14.5868V35V55.4132C248.954 55.8784 249.624 56.2553 250.451 56.2553C251.278 56.2553 251.948 55.8784 251.948 55.4132V35V14.5868C251.948 14.1219 251.278 13.7449 250.451 13.7449ZM245.039 8.13371C244.212 8.13371 243.542 8.51089 243.542 8.97561V35V61.0241C243.542 61.4891 244.212 61.8661 245.039 61.8661C245.866 61.8661 246.536 61.4891 246.536 61.0241V35V8.97561C246.536 8.51089 245.866 8.13371 245.039 8.13371ZM239.627 0C238.801 0 238.13 0.376945 238.13 0.842171V35V69.1581C238.13 69.6231 238.801 70 239.627 70C240.455 70 241.124 69.6231 241.124 69.1581V35V0.842171C241.124 0.376945 240.455 0 239.627 0ZM234.215 2.90217C233.388 2.90217 232.718 3.27911 232.718 3.74408V35V66.2562C232.718 66.7209 233.388 67.0981 234.215 67.0981C235.042 67.0981 235.712 66.7209 235.712 66.2562V35V3.74408C235.712 3.27911 235.042 2.90217 234.215 2.90217ZM228.803 6.69326C227.977 6.69326 227.306 7.07019 227.306 7.53517V35V62.4651C227.306 62.9298 227.977 63.307 228.803 63.307C229.63 63.307 230.3 62.9298 230.3 62.4651V35V7.53517C230.3 7.07019 229.63 6.69326 228.803 6.69326ZM223.391 13.0061C222.564 13.0061 221.894 13.383 221.894 13.848V35V56.152C221.894 56.617 222.564 56.9942 223.391 56.9942C224.218 56.9942 224.888 56.617 224.888 56.152V35V13.848C224.888 13.383 224.218 13.0061 223.391 13.0061ZM217.979 18.5007C217.152 18.5007 216.482 18.8779 216.482 19.3429V35V50.6571C216.482 51.1221 217.152 51.499 217.979 51.499C218.806 51.499 219.476 51.1221 219.476 50.6571V35V19.3429C219.476 18.8779 218.806 18.5007 217.979 18.5007ZM212.567 20.7081C211.74 20.7081 211.07 21.085 211.07 21.55V35V48.4503C211.07 48.9153 211.74 49.2922 212.567 49.2922C213.394 49.2922 214.064 48.9153 214.064 48.4503V35V21.55C214.064 21.085 213.394 20.7081 212.567 20.7081ZM207.155 18.2399C206.328 18.2399 205.658 18.6168 205.658 19.082V35V50.9182C205.658 51.383 206.328 51.7601 207.155 51.7601C207.982 51.7601 208.652 51.383 208.652 50.9182V35V19.082C208.652 18.6168 207.982 18.2399 207.155 18.2399ZM201.743 15.2126C200.916 15.2126 200.246 15.5896 200.246 16.0546V35V53.9455C200.246 54.4107 200.916 54.7874 201.743 54.7874C202.57 54.7874 203.24 54.4107 203.24 53.9455V35V16.0546C203.24 15.5896 202.57 15.2126 201.743 15.2126ZM196.331 11.8488C195.504 11.8488 194.834 12.2254 194.834 12.6907V35V57.3093C194.834 57.7743 195.504 58.1515 196.331 58.1515C197.158 58.1515 197.828 57.7743 197.828 57.3093V35V12.6907C197.828 12.2254 197.158 11.8488 196.331 11.8488ZM190.919 18.2399C190.092 18.2399 189.422 18.6168 189.422 19.082V35V50.9182C189.422 51.383 190.092 51.7601 190.919 51.7601C191.746 51.7601 192.416 51.383 192.416 50.9182V35V19.082C192.416 18.6168 191.746 18.2399 190.919 18.2399ZM185.507 21.146C184.68 21.146 184.01 21.523 184.01 21.9879V35V48.0123C184.01 48.4773 184.68 48.8542 185.507 48.8542C186.334 48.8542 187.004 48.4773 187.004 48.0123V35V21.9879C187.004 21.523 186.334 21.146 185.507 21.146ZM180.095 23.4799C179.268 23.4799 178.598 23.8566 178.598 24.3218V35V45.6787C178.598 46.1434 179.268 46.5206 180.095 46.5206C180.922 46.5206 181.592 46.1434 181.592 45.6787V35V24.3218C181.592 23.8566 180.922 23.4799 180.095 23.4799ZM174.682 26.1992C173.856 26.1992 173.186 26.5759 173.186 27.0411V35V42.9591C173.186 43.4241 173.856 43.8013 174.682 43.8013C175.509 43.8013 176.179 43.4241 176.179 42.9591V35V27.0411C176.179 26.5759 175.509 26.1992 174.682 26.1992ZM169.271 23.0034C168.444 23.0034 167.774 23.3804 167.774 23.8453V35V46.1547C167.774 46.6196 168.444 46.9966 169.271 46.9966C170.097 46.9966 170.768 46.6196 170.768 46.1547V35V23.8453C170.768 23.3804 170.097 23.0034 169.271 23.0034ZM163.858 21.604C163.032 21.604 162.362 21.9807 162.362 22.4459V35V47.5544C162.362 48.0193 163.032 48.3963 163.858 48.3963C164.685 48.3963 165.356 48.0193 165.356 47.5544V35V22.4459C165.356 21.9807 164.685 21.604 163.858 21.604ZM158.446 18.5007C157.62 18.5007 156.95 18.8779 156.95 19.3429V35V50.6571C156.95 51.1221 157.62 51.499 158.446 51.499C159.273 51.499 159.944 51.1221 159.944 50.6571V35V19.3429C159.944 18.8779 159.273 18.5007 158.446 18.5007ZM153.034 24.6852C152.208 24.6852 151.538 25.0624 151.538 25.5272V35V44.4729C151.538 44.9378 152.208 45.3148 153.034 45.3148C153.862 45.3148 154.532 44.9378 154.532 44.4729V35V25.5272C154.532 25.0624 153.862 24.6852 153.034 24.6852ZM147.622 14.3717C146.795 14.3717 146.125 14.7484 146.125 15.2136V35V54.7866C146.125 55.2516 146.795 55.6285 147.622 55.6285C148.449 55.6285 149.12 55.2516 149.12 54.7866V35V15.2136C149.12 14.7484 148.449 14.3717 147.622 14.3717ZM142.211 21.146C141.384 21.146 140.713 21.523 140.713 21.9879V35V48.0123C140.713 48.4773 141.384 48.8542 142.211 48.8542C143.038 48.8542 143.708 48.4773 143.708 48.0123V35V21.9879C143.708 21.523 143.038 21.146 142.211 21.146ZM136.798 17.079C135.971 17.079 135.301 17.4562 135.301 17.921V35V52.0788C135.301 52.544 135.971 52.921 136.798 52.921C137.625 52.921 138.295 52.544 138.295 52.0788V35V17.921C138.295 17.4562 137.625 17.079 136.798 17.079ZM131.387 15.2126C130.56 15.2126 129.889 15.5896 129.889 16.0546V35V53.9455C129.889 54.4107 130.56 54.7874 131.387 54.7874C132.213 54.7874 132.884 54.4107 132.884 53.9455V35V16.0546C132.884 15.5896 132.213 15.2126 131.387 15.2126ZM125.974 9.7745C125.148 9.7745 124.477 10.1512 124.477 10.6164V35V59.3838C124.477 59.8488 125.148 60.226 125.974 60.226C126.801 60.226 127.471 59.8488 127.471 59.3838V35V10.6164C127.471 10.1512 126.801 9.7745 125.974 9.7745ZM120.562 17.5165C119.736 17.5165 119.065 17.8934 119.065 18.3584V35V51.6416C119.065 52.1068 119.736 52.4837 120.562 52.4837C121.389 52.4837 122.059 52.1068 122.059 51.6416V35V18.3584C122.059 17.8934 121.389 17.5165 120.562 17.5165ZM115.15 21.0432C114.323 21.0432 113.653 21.4202 113.653 21.8854V35V48.1149C113.653 48.5798 114.323 48.957 115.15 48.957C115.977 48.957 116.647 48.5798 116.647 48.1149V35V21.8854C116.647 21.4202 115.977 21.0432 115.15 21.0432ZM109.738 22.8714C108.911 22.8714 108.241 23.2483 108.241 23.7133V35V46.287C108.241 46.752 108.911 47.1289 109.738 47.1289C110.565 47.1289 111.235 46.752 111.235 46.287V35V23.7133C111.235 23.2483 110.565 22.8714 109.738 22.8714ZM104.326 26.5374C103.5 26.5374 102.829 26.9146 102.829 27.3793V35V42.6207C102.829 43.0857 103.5 43.4626 104.326 43.4626C105.153 43.4626 105.824 43.0857 105.824 42.6207V35V27.3793C105.824 26.9146 105.153 26.5374 104.326 26.5374ZM98.9139 27.292C98.0873 27.292 97.4168 27.6689 97.4168 28.1339V35V41.8663C97.4168 42.3313 98.0873 42.7085 98.9139 42.7085C99.741 42.7085 100.411 42.3313 100.411 41.8663V35V28.1339C100.411 27.6689 99.741 27.292 98.9139 27.292ZM93.5024 26.1992C92.6753 26.1992 92.0052 26.5759 92.0052 27.0411V35V42.9591C92.0052 43.4241 92.6753 43.8013 93.5024 43.8013C94.329 43.8013 94.9991 43.4241 94.9991 42.9591V35V27.0411C94.9991 26.5759 94.329 26.1992 93.5024 26.1992ZM88.09 30.6779C87.2629 30.6779 86.5928 31.0551 86.5928 31.5198V35V38.4802C86.5928 38.9452 87.2629 39.3221 88.09 39.3221C88.9166 39.3221 89.5867 38.9452 89.5867 38.4802V35V31.5198C89.5867 31.0551 88.9166 30.6779 88.09 30.6779ZM82.678 32.418C81.851 32.418 81.1809 32.7952 81.1809 33.2599V35V36.7401C81.1809 37.2051 81.851 37.582 82.678 37.582C83.5051 37.582 84.1752 37.2051 84.1752 36.7401V35V33.2599C84.1752 32.7952 83.5051 32.418 82.678 32.418ZM77.2656 30.7249C76.439 30.7249 75.7685 31.1019 75.7685 31.5671V35V38.4332C75.7685 38.8981 76.439 39.2751 77.2656 39.2751C78.0927 39.2751 78.7628 38.8981 78.7628 38.4332V35V31.5671C78.7628 31.1019 78.0927 30.7249 77.2656 30.7249ZM71.8541 32.1439C71.027 32.1439 70.3569 32.5208 70.3569 32.9858V35V37.0142C70.3569 37.4792 71.027 37.8561 71.8541 37.8561C72.6807 37.8561 73.3508 37.4792 73.3508 37.0142V35V32.9858C73.3508 32.5208 72.6807 32.1439 71.8541 32.1439ZM66.4421 30.348C65.6151 30.348 64.945 30.7247 64.945 31.1899V35V38.8106C64.945 39.2753 65.6151 39.6525 66.4421 39.6525C67.2688 39.6525 67.9389 39.2753 67.9389 38.8106V35V31.1899C67.9389 30.7247 67.2688 30.348 66.4421 30.348ZM61.0297 27.292C60.2027 27.292 59.5326 27.6689 59.5326 28.1339V35V41.8663C59.5326 42.3313 60.2027 42.7085 61.0297 42.7085C61.8568 42.7085 62.5269 42.3313 62.5269 41.8663V35V28.1339C62.5269 27.6689 61.8568 27.292 61.0297 27.292ZM55.6178 30.7249C54.7907 30.7249 54.121 31.1019 54.121 31.5671V35V38.4332C54.121 38.8981 54.7907 39.2751 55.6178 39.2751C56.4448 39.2751 57.115 38.8981 57.115 38.4332V35V31.5671C57.115 31.1019 56.4448 30.7249 55.6178 30.7249ZM50.2054 32.418C49.3787 32.418 48.7086 32.7952 48.7086 33.2599V35V36.7401C48.7086 37.2051 49.3787 37.582 50.2054 37.582C51.0324 37.582 51.7025 37.2051 51.7025 36.7401V35V33.2599C51.7025 32.7952 51.0324 32.418 50.2054 32.418ZM44.7938 29.4215C43.9668 29.4215 43.2967 29.7985 43.2967 30.2637V35V39.7366C43.2967 40.2013 43.9668 40.5785 44.7938 40.5785C45.6205 40.5785 46.2906 40.2013 46.2906 39.7366V35V30.2637C46.2906 29.7985 45.6205 29.4215 44.7938 29.4215ZM39.3814 27.6007C38.5544 27.6007 37.8843 27.9776 37.8843 28.4426V35V41.5574C37.8843 42.0224 38.5544 42.3993 39.3814 42.3993C40.2085 42.3993 40.8786 42.0224 40.8786 41.5574V35V28.4426C40.8786 27.9776 40.2085 27.6007 39.3814 27.6007ZM33.9695 29.4215C33.1429 29.4215 32.4728 29.7985 32.4728 30.2637V35V39.7366C32.4728 40.2013 33.1429 40.5785 33.9695 40.5785C34.7966 40.5785 35.4667 40.2013 35.4667 39.7366V35V30.2637C35.4667 29.7985 34.7966 29.4215 33.9695 29.4215ZM28.5571 32.2529C27.7304 32.2529 27.0603 32.6299 27.0603 33.0948V35V36.9052C27.0603 37.3702 27.7304 37.7473 28.5571 37.7473C29.3841 37.7473 30.0542 37.3702 30.0542 36.9052V35V33.0948C30.0542 32.6299 29.3841 32.2529 28.5571 32.2529ZM23.1456 26.9063C22.3185 26.9063 21.6484 27.2835 21.6484 27.7485V35V42.2518C21.6484 42.7167 22.3185 43.0939 23.1456 43.0939C23.9722 43.0939 24.6427 42.7167 24.6427 42.2518V35V27.7485C24.6427 27.2835 23.9722 26.9063 23.1456 26.9063ZM17.7336 28.4486C16.9065 28.4486 16.2364 28.8255 16.2364 29.2905V35V40.7095C16.2364 41.1748 16.9065 41.5517 17.7336 41.5517C18.5602 41.5517 19.2308 41.1748 19.2308 40.7095V35V29.2905C19.2308 28.8255 18.5602 28.4486 17.7336 28.4486ZM12.3212 30.7314C11.4945 30.7314 10.8241 31.1086 10.8241 31.5733V35V38.4267C10.8241 38.8919 11.4945 39.2688 12.3212 39.2688C13.148 39.2688 13.8183 38.8919 13.8183 38.4267V35V31.5733C13.8183 31.1086 13.148 30.7314 12.3212 30.7314ZM1.49726 32.418C0.670281 32.418 0 32.7952 0 33.2599V35V36.7401C0 37.2051 0.670281 37.582 1.49726 37.582C2.32402 37.582 2.99434 37.2051 2.99434 36.7401V35V33.2599C2.99434 32.7952 2.32402 32.418 1.49726 32.418ZM8.40631 33.2599V36.7401C8.40631 37.2051 7.73638 37.582 6.9094 37.582C6.08264 37.582 5.41232 37.2051 5.41232 36.7401V35V33.2599C5.41232 32.7952 6.08264 32.418 6.9094 32.418C7.73638 32.418 8.40631 32.7952 8.40631 33.2599Z" fill="white"/>
</mask>
<g mask="url(#mask0_2680_7941)">
<path d="M396.576 32.418C395.75 32.418 395.08 32.7952 395.08 33.2599V35V36.7401C395.08 37.2051 395.75 37.582 396.576 37.582C397.403 37.582 398.074 37.2051 398.074 36.7401V35V33.2599C398.074 32.7952 397.403 32.418 396.576 32.418ZM391.164 30.7279C390.338 30.7279 389.668 31.1049 389.668 31.5698V35V38.4304C389.668 38.8951 390.338 39.2723 391.164 39.2723C391.991 39.2723 392.662 38.8951 392.662 38.4304V35V31.5698C392.662 31.1049 391.991 30.7279 391.164 30.7279ZM385.752 28.7372C384.925 28.7372 384.255 29.1144 384.255 29.5794V35V40.4209C384.255 40.8856 384.925 41.2628 385.752 41.2628C386.579 41.2628 387.249 40.8856 387.249 40.4209V35V29.5794C387.249 29.1144 386.579 28.7372 385.752 28.7372ZM380.34 31.4478C379.513 31.4478 378.843 31.8247 378.843 32.2897V35V37.7103C378.843 38.1753 379.513 38.5522 380.34 38.5522C381.168 38.5522 381.838 38.1753 381.838 37.7103V35V32.2897C381.838 31.8247 381.168 31.4478 380.34 31.4478ZM374.928 21.9592C374.102 21.9592 373.431 22.3361 373.431 22.8013V35V47.1989C373.431 47.6639 374.102 48.0408 374.928 48.0408C375.756 48.0408 376.426 47.6639 376.426 47.1989V35V22.8013C376.426 22.3361 375.756 21.9592 374.928 21.9592ZM369.516 18.5007C368.689 18.5007 368.019 18.8779 368.019 19.3429V35V50.6571C368.019 51.1221 368.689 51.499 369.516 51.499C370.343 51.499 371.013 51.1221 371.013 50.6571V35V19.3429C371.013 18.8779 370.343 18.5007 369.516 18.5007ZM364.105 25.8911C363.277 25.8911 362.607 26.268 362.607 26.733V35V43.2673C362.607 43.732 363.277 44.1092 364.105 44.1092C364.931 44.1092 365.602 43.732 365.602 43.2673V35V26.733C365.602 26.268 364.931 25.8911 364.105 25.8911ZM358.692 22.8714C357.865 22.8714 357.195 23.2483 357.195 23.7133V35V46.287C357.195 46.752 357.865 47.1289 358.692 47.1289C359.519 47.1289 360.189 46.752 360.189 46.287V35V23.7133C360.189 23.2483 359.519 22.8714 358.692 22.8714ZM353.28 19.0855C352.454 19.0855 351.783 19.4625 351.783 19.9274V35V50.0726C351.783 50.5375 352.454 50.9145 353.28 50.9145C354.107 50.9145 354.777 50.5375 354.777 50.0726V35V19.9274C354.777 19.4625 354.107 19.0855 353.28 19.0855ZM347.868 15.2126C347.041 15.2126 346.371 15.5896 346.371 16.0546V35V53.9455C346.371 54.4107 347.041 54.7874 347.868 54.7874C348.695 54.7874 349.365 54.4107 349.365 53.9455V35V16.0546C349.365 15.5896 348.695 15.2126 347.868 15.2126ZM342.456 18.8151C341.63 18.8151 340.959 19.1921 340.959 19.6571V35V50.343C340.959 50.8079 341.63 51.1849 342.456 51.1849C343.283 51.1849 343.953 50.8079 343.953 50.343V35V19.6571C343.953 19.1921 343.283 18.8151 342.456 18.8151ZM337.044 23.4799C336.217 23.4799 335.547 23.8566 335.547 24.3218V35V45.6787C335.547 46.1434 336.217 46.5206 337.044 46.5206C337.871 46.5206 338.541 46.1434 338.541 45.6787V35V24.3218C338.541 23.8566 337.871 23.4799 337.044 23.4799ZM331.632 26.3295C330.805 26.3295 330.135 26.7065 330.135 27.1715V35V42.8288C330.135 43.2935 330.805 43.6707 331.632 43.6707C332.459 43.6707 333.129 43.2935 333.129 42.8288V35V27.1715C333.129 26.7065 332.459 26.3295 331.632 26.3295ZM326.22 28.0586C325.393 28.0586 324.723 28.4356 324.723 28.9005V35V41.0995C324.723 41.5644 325.393 41.9414 326.22 41.9414C327.047 41.9414 327.718 41.5644 327.718 41.0995V35V28.9005C327.718 28.4356 327.047 28.0586 326.22 28.0586ZM320.808 31.1086C319.981 31.1086 319.311 31.4853 319.311 31.9505V35V38.05C319.311 38.5147 319.981 38.8919 320.808 38.8919C321.635 38.8919 322.305 38.5147 322.305 38.05V35V31.9505C322.305 31.4853 321.635 31.1086 320.808 31.1086ZM315.396 32.2006C314.569 32.2006 313.899 32.5776 313.899 33.0426V35V36.9577C313.899 37.4227 314.569 37.7999 315.396 37.7999C316.223 37.7999 316.893 37.4227 316.893 36.9577V35V33.0426C316.893 32.5776 316.223 32.2006 315.396 32.2006ZM309.984 30.2439C309.157 30.2439 308.487 30.6206 308.487 31.0859V35V38.9144C308.487 39.3794 309.157 39.7563 309.984 39.7563C310.811 39.7563 311.481 39.3794 311.481 38.9144V35V31.0859C311.481 30.6206 310.811 30.2439 309.984 30.2439ZM304.572 29.4288C303.745 29.4288 303.075 29.8057 303.075 30.2707V35V39.7293C303.075 40.1945 303.745 40.5715 304.572 40.5715C305.399 40.5715 306.069 40.1945 306.069 39.7293V35V30.2707C306.069 29.8057 305.399 29.4288 304.572 29.4288ZM299.16 27.198C298.333 27.198 297.662 27.5749 297.662 28.0399V35V41.9601C297.662 42.4254 298.333 42.8023 299.16 42.8023C299.986 42.8023 300.656 42.4254 300.656 41.9601V35V28.0399C300.656 27.5749 299.986 27.198 299.16 27.198ZM293.748 30.2439C292.921 30.2439 292.251 30.6206 292.251 31.0859V35V38.9144C292.251 39.3794 292.921 39.7563 293.748 39.7563C294.574 39.7563 295.245 39.3794 295.245 38.9144V35V31.0859C295.245 30.6206 294.574 30.2439 293.748 30.2439ZM288.336 28.5146C287.509 28.5146 286.839 28.8915 286.839 29.3568V35V40.6435C286.839 41.1085 287.509 41.4854 288.336 41.4854C289.163 41.4854 289.833 41.1085 289.833 40.6435V35V29.3568C289.833 28.8915 289.163 28.5146 288.336 28.5146ZM282.923 25.5752C282.097 25.5752 281.427 25.9524 281.427 26.4173V35V43.5829C281.427 44.0476 282.097 44.4248 282.923 44.4248C283.75 44.4248 284.421 44.0476 284.421 43.5829V35V26.4173C284.421 25.9524 283.75 25.5752 282.923 25.5752ZM277.511 28.8188C276.685 28.8188 276.015 29.1957 276.015 29.6607V35V40.3393C276.015 40.8041 276.685 41.1813 277.511 41.1813C278.339 41.1813 279.009 40.8041 279.009 40.3393V35V29.6607C279.009 29.1957 278.339 28.8188 277.511 28.8188ZM272.1 20.7081C271.272 20.7081 270.602 21.085 270.602 21.55V35V48.4503C270.602 48.9153 271.272 49.2922 272.1 49.2922C272.926 49.2922 273.597 48.9153 273.597 48.4503V35V21.55C273.597 21.085 272.926 20.7081 272.1 20.7081ZM266.688 24.2911C265.861 24.2911 265.19 24.668 265.19 25.133V35V44.867C265.19 45.3323 265.861 45.7092 266.688 45.7092C267.515 45.7092 268.185 45.3323 268.185 44.867V35V25.133C268.185 24.668 267.515 24.2911 266.688 24.2911ZM261.275 21.0432C260.448 21.0432 259.778 21.4202 259.778 21.8854V35V48.1149C259.778 48.5798 260.448 48.957 261.275 48.957C262.102 48.957 262.772 48.5798 262.772 48.1149V35V21.8854C262.772 21.4202 262.102 21.0432 261.275 21.0432ZM255.864 17.6238C255.036 17.6238 254.366 18.0008 254.366 18.466V35V51.5343C254.366 51.9993 255.036 52.3762 255.864 52.3762C256.69 52.3762 257.361 51.9993 257.361 51.5343V35V18.466C257.361 18.0008 256.69 17.6238 255.864 17.6238ZM250.451 13.7449C249.624 13.7449 248.954 14.1219 248.954 14.5868V35V55.4132C248.954 55.8784 249.624 56.2553 250.451 56.2553C251.278 56.2553 251.948 55.8784 251.948 55.4132V35V14.5868C251.948 14.1219 251.278 13.7449 250.451 13.7449ZM245.039 8.13372C244.213 8.13372 243.542 8.51089 243.542 8.97562V35V61.0241C243.542 61.4891 244.213 61.8661 245.039 61.8661C245.866 61.8661 246.536 61.4891 246.536 61.0241V35V8.97562C246.536 8.51089 245.866 8.13372 245.039 8.13372ZM239.627 0C238.801 0 238.13 0.376953 238.13 0.842178V35V69.1581C238.13 69.6231 238.801 70 239.627 70C240.455 70 241.124 69.6231 241.124 69.1581V35V0.842178C241.124 0.376953 240.455 0 239.627 0ZM234.215 2.90218C233.388 2.90218 232.718 3.27911 232.718 3.74409V35V66.2562C232.718 66.7209 233.388 67.0981 234.215 67.0981C235.042 67.0981 235.712 66.7209 235.712 66.2562V35V3.74409C235.712 3.27911 235.042 2.90218 234.215 2.90218ZM228.803 6.69326C227.977 6.69326 227.306 7.07019 227.306 7.53517V35V62.4651C227.306 62.9298 227.977 63.307 228.803 63.307C229.63 63.307 230.3 62.9298 230.3 62.4651V35V7.53517C230.3 7.07019 229.63 6.69326 228.803 6.69326ZM223.391 13.0061C222.564 13.0061 221.894 13.383 221.894 13.848V35V56.152C221.894 56.617 222.564 56.9942 223.391 56.9942C224.218 56.9942 224.888 56.617 224.888 56.152V35V13.848C224.888 13.383 224.218 13.0061 223.391 13.0061ZM217.979 18.5007C217.152 18.5007 216.482 18.8779 216.482 19.3429V35V50.6571C216.482 51.1221 217.152 51.499 217.979 51.499C218.806 51.499 219.477 51.1221 219.477 50.6571V35V19.3429C219.477 18.8779 218.806 18.5007 217.979 18.5007ZM212.567 20.7081C211.74 20.7081 211.07 21.085 211.07 21.55V35V48.4503C211.07 48.9153 211.74 49.2922 212.567 49.2922C213.394 49.2922 214.064 48.9153 214.064 48.4503V35V21.55C214.064 21.085 213.394 20.7081 212.567 20.7081ZM207.155 18.2399C206.328 18.2399 205.658 18.6168 205.658 19.082V35V50.9182C205.658 51.383 206.328 51.7601 207.155 51.7601C207.982 51.7601 208.652 51.383 208.652 50.9182V35V19.082C208.652 18.6168 207.982 18.2399 207.155 18.2399ZM201.743 15.2126C200.916 15.2126 200.246 15.5896 200.246 16.0546V35V53.9455C200.246 54.4107 200.916 54.7874 201.743 54.7874C202.57 54.7874 203.24 54.4107 203.24 53.9455V35V16.0546C203.24 15.5896 202.57 15.2126 201.743 15.2126ZM196.331 11.8488C195.504 11.8488 194.834 12.2255 194.834 12.6907V35V57.3093C194.834 57.7743 195.504 58.1515 196.331 58.1515C197.158 58.1515 197.828 57.7743 197.828 57.3093V35V12.6907C197.828 12.2255 197.158 11.8488 196.331 11.8488ZM190.919 18.2399C190.092 18.2399 189.422 18.6168 189.422 19.082V35V50.9182C189.422 51.383 190.092 51.7601 190.919 51.7601C191.746 51.7601 192.416 51.383 192.416 50.9182V35V19.082C192.416 18.6168 191.746 18.2399 190.919 18.2399ZM185.507 21.146C184.68 21.146 184.01 21.523 184.01 21.9879V35V48.0123C184.01 48.4773 184.68 48.8542 185.507 48.8542C186.334 48.8542 187.004 48.4773 187.004 48.0123V35V21.9879C187.004 21.523 186.334 21.146 185.507 21.146ZM180.095 23.4799C179.268 23.4799 178.598 23.8566 178.598 24.3218V35V45.6787C178.598 46.1434 179.268 46.5206 180.095 46.5206C180.922 46.5206 181.592 46.1434 181.592 45.6787V35V24.3218C181.592 23.8566 180.922 23.4799 180.095 23.4799ZM174.682 26.1992C173.856 26.1992 173.186 26.5759 173.186 27.0411V35V42.9591C173.186 43.4241 173.856 43.8013 174.682 43.8013C175.509 43.8013 176.179 43.4241 176.179 42.9591V35V27.0411C176.179 26.5759 175.509 26.1992 174.682 26.1992ZM169.271 23.0034C168.444 23.0034 167.774 23.3804 167.774 23.8453V35V46.1547C167.774 46.6196 168.444 46.9966 169.271 46.9966C170.097 46.9966 170.768 46.6196 170.768 46.1547V35V23.8453C170.768 23.3804 170.097 23.0034 169.271 23.0034ZM163.858 21.604C163.032 21.604 162.362 21.9807 162.362 22.4459V35V47.5544C162.362 48.0193 163.032 48.3963 163.858 48.3963C164.685 48.3963 165.356 48.0193 165.356 47.5544V35V22.4459C165.356 21.9807 164.685 21.604 163.858 21.604ZM158.446 18.5007C157.62 18.5007 156.95 18.8779 156.95 19.3429V35V50.6571C156.95 51.1221 157.62 51.499 158.446 51.499C159.273 51.499 159.944 51.1221 159.944 50.6571V35V19.3429C159.944 18.8779 159.273 18.5007 158.446 18.5007ZM153.034 24.6852C152.208 24.6852 151.538 25.0624 151.538 25.5272V35V44.4729C151.538 44.9378 152.208 45.3148 153.034 45.3148C153.862 45.3148 154.532 44.9378 154.532 44.4729V35V25.5272C154.532 25.0624 153.862 24.6852 153.034 24.6852ZM147.622 14.3717C146.795 14.3717 146.125 14.7484 146.125 15.2136V35V54.7866C146.125 55.2516 146.795 55.6285 147.622 55.6285C148.449 55.6285 149.12 55.2516 149.12 54.7866V35V15.2136C149.12 14.7484 148.449 14.3717 147.622 14.3717ZM142.211 21.146C141.384 21.146 140.713 21.523 140.713 21.9879V35V48.0123C140.713 48.4773 141.384 48.8542 142.211 48.8542C143.038 48.8542 143.708 48.4773 143.708 48.0123V35V21.9879C143.708 21.523 143.038 21.146 142.211 21.146ZM136.798 17.079C135.971 17.079 135.301 17.4562 135.301 17.921V35V52.0788C135.301 52.544 135.971 52.921 136.798 52.921C137.625 52.921 138.295 52.544 138.295 52.0788V35V17.921C138.295 17.4562 137.625 17.079 136.798 17.079ZM131.387 15.2126C130.56 15.2126 129.889 15.5896 129.889 16.0546V35V53.9455C129.889 54.4107 130.56 54.7874 131.387 54.7874C132.213 54.7874 132.884 54.4107 132.884 53.9455V35V16.0546C132.884 15.5896 132.213 15.2126 131.387 15.2126ZM125.974 9.77451C125.148 9.77451 124.477 10.1512 124.477 10.6164V35V59.3838C124.477 59.8488 125.148 60.226 125.974 60.226C126.801 60.226 127.471 59.8488 127.471 59.3838V35V10.6164C127.471 10.1512 126.801 9.77451 125.974 9.77451ZM120.562 17.5165C119.736 17.5165 119.065 17.8934 119.065 18.3584V35V51.6416C119.065 52.1068 119.736 52.4837 120.562 52.4837C121.389 52.4837 122.059 52.1068 122.059 51.6416V35V18.3584C122.059 17.8934 121.389 17.5165 120.562 17.5165ZM115.15 21.0432C114.323 21.0432 113.653 21.4202 113.653 21.8854V35V48.1149C113.653 48.5798 114.323 48.957 115.15 48.957C115.977 48.957 116.647 48.5798 116.647 48.1149V35V21.8854C116.647 21.4202 115.977 21.0432 115.15 21.0432ZM109.738 22.8714C108.911 22.8714 108.241 23.2483 108.241 23.7133V35V46.287C108.241 46.752 108.911 47.1289 109.738 47.1289C110.565 47.1289 111.235 46.752 111.235 46.287V35V23.7133C111.235 23.2483 110.565 22.8714 109.738 22.8714ZM104.326 26.5374C103.5 26.5374 102.829 26.9146 102.829 27.3793V35V42.6207C102.829 43.0857 103.5 43.4626 104.326 43.4626C105.153 43.4626 105.824 43.0857 105.824 42.6207V35V27.3793C105.824 26.9146 105.153 26.5374 104.326 26.5374ZM98.9139 27.292C98.0873 27.292 97.4168 27.6689 97.4168 28.1339V35V41.8663C97.4168 42.3313 98.0873 42.7085 98.9139 42.7085C99.741 42.7085 100.411 42.3313 100.411 41.8663V35V28.1339C100.411 27.6689 99.741 27.292 98.9139 27.292ZM93.5024 26.1992C92.6753 26.1992 92.0052 26.5759 92.0052 27.0411V35V42.9591C92.0052 43.4241 92.6753 43.8013 93.5024 43.8013C94.329 43.8013 94.9991 43.4241 94.9991 42.9591V35V27.0411C94.9991 26.5759 94.329 26.1992 93.5024 26.1992ZM88.09 30.6779C87.2629 30.6779 86.5928 31.0551 86.5928 31.5198V35V38.4802C86.5928 38.9452 87.2629 39.3221 88.09 39.3221C88.9166 39.3221 89.5867 38.9452 89.5867 38.4802V35V31.5198C89.5867 31.0551 88.9166 30.6779 88.09 30.6779ZM82.678 32.418C81.851 32.418 81.1809 32.7952 81.1809 33.2599V35V36.7401C81.1809 37.2051 81.851 37.582 82.678 37.582C83.5051 37.582 84.1752 37.2051 84.1752 36.7401V35V33.2599C84.1752 32.7952 83.5051 32.418 82.678 32.418ZM77.2656 30.7249C76.439 30.7249 75.7685 31.1019 75.7685 31.5671V35V38.4332C75.7685 38.8981 76.439 39.2751 77.2656 39.2751C78.0927 39.2751 78.7628 38.8981 78.7628 38.4332V35V31.5671C78.7628 31.1019 78.0927 30.7249 77.2656 30.7249ZM71.8541 32.1439C71.027 32.1439 70.3569 32.5208 70.3569 32.9858V35V37.0142C70.3569 37.4792 71.027 37.8561 71.8541 37.8561C72.6807 37.8561 73.3508 37.4792 73.3508 37.0142V35V32.9858C73.3508 32.5208 72.6807 32.1439 71.8541 32.1439ZM66.4422 30.348C65.6151 30.348 64.945 30.7247 64.945 31.1899V35V38.8106C64.945 39.2753 65.6151 39.6525 66.4422 39.6525C67.2688 39.6525 67.9389 39.2753 67.9389 38.8106V35V31.1899C67.9389 30.7247 67.2688 30.348 66.4422 30.348ZM61.0297 27.292C60.2027 27.292 59.5326 27.6689 59.5326 28.1339V35V41.8663C59.5326 42.3313 60.2027 42.7085 61.0297 42.7085C61.8568 42.7085 62.5269 42.3313 62.5269 41.8663V35V28.1339C62.5269 27.6689 61.8568 27.292 61.0297 27.292ZM55.6178 30.7249C54.7907 30.7249 54.1211 31.1019 54.1211 31.5671V35V38.4332C54.1211 38.8981 54.7907 39.2751 55.6178 39.2751C56.4449 39.2751 57.115 38.8981 57.115 38.4332V35V31.5671C57.115 31.1019 56.4449 30.7249 55.6178 30.7249ZM50.2054 32.418C49.3787 32.418 48.7086 32.7952 48.7086 33.2599V35V36.7401C48.7086 37.2051 49.3787 37.582 50.2054 37.582C51.0324 37.582 51.7025 37.2051 51.7025 36.7401V35V33.2599C51.7025 32.7952 51.0324 32.418 50.2054 32.418ZM44.7938 29.4215C43.9668 29.4215 43.2967 29.7985 43.2967 30.2637V35V39.7366C43.2967 40.2013 43.9668 40.5785 44.7938 40.5785C45.6205 40.5785 46.2906 40.2013 46.2906 39.7366V35V30.2637C46.2906 29.7985 45.6205 29.4215 44.7938 29.4215ZM39.3814 27.6007C38.5544 27.6007 37.8843 27.9776 37.8843 28.4426V35V41.5574C37.8843 42.0224 38.5544 42.3994 39.3814 42.3994C40.2085 42.3994 40.8786 42.0224 40.8786 41.5574V35V28.4426C40.8786 27.9776 40.2085 27.6007 39.3814 27.6007ZM33.9695 29.4215C33.1429 29.4215 32.4728 29.7985 32.4728 30.2637V35V39.7366C32.4728 40.2013 33.1429 40.5785 33.9695 40.5785C34.7966 40.5785 35.4667 40.2013 35.4667 39.7366V35V30.2637C35.4667 29.7985 34.7966 29.4215 33.9695 29.4215ZM28.5571 32.2529C27.7304 32.2529 27.0604 32.6299 27.0604 33.0948V35V36.9052C27.0604 37.3702 27.7304 37.7473 28.5571 37.7473C29.3841 37.7473 30.0542 37.3702 30.0542 36.9052V35V33.0948C30.0542 32.6299 29.3841 32.2529 28.5571 32.2529ZM23.1456 26.9063C22.3185 26.9063 21.6484 27.2835 21.6484 27.7485V35V42.2518C21.6484 42.7168 22.3185 43.0939 23.1456 43.0939C23.9722 43.0939 24.6427 42.7168 24.6427 42.2518V35V27.7485C24.6427 27.2835 23.9722 26.9063 23.1456 26.9063ZM17.7336 28.4486C16.9065 28.4486 16.2364 28.8255 16.2364 29.2905V35V40.7095C16.2364 41.1748 16.9065 41.5517 17.7336 41.5517C18.5602 41.5517 19.2308 41.1748 19.2308 40.7095V35V29.2905C19.2308 28.8255 18.5602 28.4486 17.7336 28.4486ZM12.3212 30.7314C11.4945 30.7314 10.8241 31.1086 10.8241 31.5733V35V38.4267C10.8241 38.8919 11.4945 39.2688 12.3212 39.2688C13.148 39.2688 13.8183 38.8919 13.8183 38.4267V35V31.5733C13.8183 31.1086 13.148 30.7314 12.3212 30.7314ZM1.49726 32.418C0.670281 32.418 0 32.7952 0 33.2599V35V36.7401C0 37.2051 0.670281 37.582 1.49726 37.582C2.32402 37.582 2.99434 37.2051 2.99434 36.7401V35V33.2599C2.99434 32.7952 2.32402 32.418 1.49726 32.418ZM8.40631 33.2599V36.7401C8.40631 37.2051 7.73638 37.582 6.9094 37.582C6.08264 37.582 5.41232 37.2051 5.41232 36.7401V35V33.2599C5.41232 32.7952 6.08264 32.418 6.9094 32.418C7.73638 32.418 8.40631 32.7952 8.40631 33.2599Z" fill="url(#paint0_linear_2680_7941)"/>
</g>
<defs>
<linearGradient id="paint0_linear_2680_7941" x1="398.074" y1="-6.19713e-06" x2="178.546" y2="191.199" gradientUnits="userSpaceOnUse">
<stop offset="0.33" stop-color="#5E1513"/>
<stop offset="1" stop-color="#FFE372"/>
</linearGradient>
</defs>
</svg>
