<svg width="106" height="106" viewBox="0 0 106 106" fill="none" xmlns="http://www.w3.org/2000/svg">
<g filter="url(#filter0_d_2680_6351)">
<g clip-path="url(#clip0_2680_6351)">
<rect x="17" y="17" width="72" height="72" rx="36" fill="#915D3F"/>
<path d="M77.2511 80.2604C69.7026 88.5327 59.9999 88.5625 53.8408 88.5625C46.2551 88.5625 34.2892 86.5944 30.5582 80.3725C26.8271 74.1503 35.7691 79.0248 30.0736 71.5264C24.3782 64.028 23.0211 55.5132 30.2476 43.3306C33.1407 38.454 48.7456 25.715 59.7403 33.4173C64.9409 37.0604 60.5828 42.4064 70.6961 44.5147C83.2211 47.126 86.1109 70.5518 77.2511 80.2604Z" fill="#E7AB4F"/>
<path d="M30.2476 74.8301C30.167 77.4902 23.2462 72.5428 23.4595 70.0436C23.673 67.5443 30.3383 71.8401 30.2476 74.8301Z" fill="#E7AB4F"/>
<path d="M70.0486 43.3329C65.9992 41.4064 71.0334 34.3676 73.7393 37.2256C76.4449 40.0836 73.1886 44.827 70.0486 43.3329Z" fill="#E7AB4F"/>
<path d="M65.2225 33.3377C63.4922 33.4697 64.5765 39.0483 66.9731 39.2004C69.3697 39.3528 68.4098 33.0942 65.2225 33.3377Z" fill="#E7AB4F"/>
<path d="M24.7916 75.9413C24.9858 77.0522 27.6502 77.9284 27.7414 76.8332C27.8329 75.7384 24.3962 73.681 24.7916 75.9413Z" fill="#E7AB4F"/>
<path d="M60.8797 76.3674H45.5749C37.9225 77.0712 34.3766 85.7047 34.3766 85.7047C40.3792 91.0402 53.2271 90.9295 53.2271 90.9295C53.2271 90.9295 66.0751 91.0402 72.0776 85.7047C72.0776 85.7047 68.5319 77.0712 60.8797 76.3674Z" fill="#8A312D"/>
<path d="M58.0345 76.5328H48.4183C45.8343 78.268 41.4137 82.2074 40.7906 89.0889C46.7101 90.9838 53.2265 90.9295 53.2265 90.9295C53.2265 90.9295 59.7427 90.9838 65.6622 89.0889C65.0393 82.2074 60.6188 78.268 58.0345 76.5328Z" fill="#FFD2A8"/>
<mask id="mask0_2680_6351" style="mask-type:luminance" maskUnits="userSpaceOnUse" x="41" y="77" width="25" height="3">
<path d="M45.1065 79.3828C43.8078 79.0472 42.4781 78.6173 41.2228 78.068C41.9358 77.6778 42.6685 77.3824 43.4256 77.1635C44.4286 77.5058 45.4624 77.7888 46.505 78.0158C46.0457 78.4198 45.5738 78.8745 45.1065 79.3828ZM61.3424 79.3779C60.8744 78.8689 60.4015 78.4138 59.9415 78.0099C61.0061 77.7787 62.061 77.4893 63.0839 77.1379C63.8042 77.3474 64.5185 77.641 65.2384 78.054C63.9797 78.6075 62.646 79.0398 61.3424 79.3779Z" fill="white"/>
</mask>
<g mask="url(#mask0_2680_6351)">
<path d="M41.2228 79.3828H65.2386V77.138H41.2228V79.3828Z" fill="#71211E"/>
</g>
<path d="M53.2139 80.5625C53.2139 80.5625 49.321 80.4616 45.1059 79.3717C45.5732 78.8634 46.0451 78.4087 46.5044 78.0048C48.7514 78.4942 51.0419 78.7233 53.1708 78.7233C53.1873 78.7233 53.2034 78.7233 53.2202 78.7233C55.3677 78.7198 57.6771 78.491 59.9409 77.9988C60.4009 78.4027 60.8738 78.8578 61.3419 79.3668C57.119 80.4613 53.2139 80.5625 53.2139 80.5625Z" fill="#D08E71"/>
<path d="M43.057 80.8317C41.914 82.0252 41.0849 83.519 40.6156 85.1015C40.5591 85.2928 40.8466 85.3674 40.9113 85.1831C41.4582 83.6262 42.2076 82.2547 43.1646 80.9147C43.2101 80.8509 43.1103 80.7767 43.057 80.8317Z" fill="#511110"/>
<path d="M40.7255 82.777C40.0692 83.7587 39.5763 84.8464 39.2883 85.9927C39.2352 86.2047 39.5557 86.2933 39.6155 86.0831C39.9347 84.9624 40.3467 83.9058 40.8908 82.8737C40.9487 82.7641 40.7939 82.6747 40.7255 82.777Z" fill="#511110"/>
<path d="M41.1112 81.1349C40.4051 81.9666 39.8419 82.9202 39.464 83.9442C39.4109 84.0882 39.6503 84.1912 39.7142 84.0496C40.1576 83.068 40.6594 82.1435 41.2532 81.2442C41.3089 81.1598 41.1781 81.0561 41.1112 81.1349Z" fill="#511110"/>
<path d="M68.5344 81.4383C69.3503 82.7822 70.2034 84.1019 71.0252 85.4405C71.0915 85.548 71.2302 85.4713 71.2151 85.3603C71.1135 84.6025 70.6304 83.9856 70.1915 83.3816C69.6909 82.6925 69.1485 82.0385 68.6031 81.3851C68.5708 81.3466 68.5088 81.3963 68.5344 81.4383Z" fill="#511110"/>
<path d="M69.0272 83.3076C69.2732 83.7918 69.5019 84.2833 69.731 84.7759C69.9556 85.2583 70.1381 85.7967 70.4492 86.2294C70.5228 86.3317 70.6815 86.2721 70.6542 86.1428C70.439 85.1174 69.6946 84.1123 69.1358 83.2439C69.092 83.1756 68.9904 83.2351 69.0272 83.3076Z" fill="#511110"/>
<path d="M67.8665 82.6092C68.1114 83.0229 68.3328 83.4458 68.5448 83.8767C68.7326 84.2586 68.8783 84.6846 69.141 85.0209C69.209 85.1081 69.319 85.0086 69.3057 84.9252C69.1705 84.0739 68.4726 83.2237 67.9706 82.5486C67.9254 82.488 67.8263 82.5409 67.8665 82.6092Z" fill="#511110"/>
<path d="M72.3193 85.6163C71.2988 83.1654 69.5979 80.8438 67.6025 79.1065C65.1148 76.9411 62.3118 76.0859 59.094 76.0859C55.5154 76.0859 51.9361 76.0859 48.3572 76.0859C45.2694 76.0859 42.6044 76.3333 39.9561 78.2145C37.4229 80.0145 35.3088 82.7418 34.1118 85.6163C33.9819 85.9281 34.4902 86.064 34.6184 85.7557C35.5662 83.4803 37.2852 81.145 39.2003 79.4782C41.7724 77.2392 44.5652 76.6114 47.8254 76.6114C51.0516 76.6114 54.2774 76.6114 57.5035 76.6114C60.4915 76.6114 63.0524 76.6153 65.7121 78.3326C68.3616 80.0436 70.6325 82.9219 71.8127 85.7557C71.9409 86.0636 72.4496 85.9288 72.3193 85.6163Z" fill="#451816"/>
<path d="M73.2029 63.5197C73.2029 63.5197 78.427 65.5075 82.1822 61.8199C85.9373 58.1323 85.4745 49.4897 78.9171 47.0308C73.0396 44.8265 69.9599 50.051 69.9599 51.8467L73.2029 63.5197Z" fill="#8A312D"/>
<path d="M76.3789 63.7656C76.084 63.7656 75.7883 63.7527 75.4933 63.7267C75.4583 63.6115 75.4306 63.5211 75.4141 63.465C75.3763 63.3361 75.2733 63.2804 75.1693 63.2804C75.1423 63.2804 75.1157 63.2839 75.0897 63.2909C75.0347 63.1011 74.9787 62.9056 74.9216 62.7045C75.2365 62.7357 75.5753 62.7549 75.9305 62.7549C77.6716 62.7549 79.8188 62.2946 81.6262 60.5195C83.4647 58.7142 84.2918 55.7207 83.8875 52.8466C83.9705 53.1118 84.0399 53.3833 84.0946 53.659C84.5591 56.0052 84.1888 58.6463 82.8204 60.6421C81.3277 62.8194 78.8817 63.7656 76.3789 63.7656Z" fill="#71211E"/>
<path d="M73.9359 62.5398C73.9359 62.5398 77.3646 63.9275 80.548 60.9889C83.7315 58.0504 82.752 52.0096 78.4254 51.1118C74.0992 50.2139 72.4667 53.7364 72.0585 55.1587L73.9359 62.5398Z" fill="#FFD2A8"/>
<path d="M73.8671 62.7946C79.0502 64.7837 84.2018 59.1245 82.241 54.131C81.3074 51.7536 78.9381 50.4339 76.4112 50.7485C74.0654 51.0411 72.4661 52.9279 71.8061 55.0898C71.707 55.4139 72.2142 55.5526 72.3127 55.2296C72.8718 53.3988 74.1624 51.7182 76.1299 51.3217C78.8057 50.7822 81.2916 52.386 81.9667 54.9861C83.1364 59.4885 78.4876 64.0078 74.0065 62.2876C73.6905 62.1664 73.5539 62.6741 73.8671 62.7946Z" fill="#511110"/>
<path d="M74.2726 64.0831C77.4953 64.7057 80.9601 63.9612 83.034 61.2402C84.7503 58.989 85.1654 55.8592 84.5204 53.1497C82.9853 46.703 74.0498 43.3199 70.3052 49.8924C70.1374 50.1867 70.5914 50.4519 70.7588 50.1576C74.3928 43.7795 82.8767 47.5133 84.0944 53.6602C84.559 56.0063 84.1887 58.6474 82.8203 60.6433C80.9355 63.3923 77.5314 64.1791 74.4124 63.5762C74.0821 63.5124 73.9405 64.019 74.2726 64.0831Z" fill="#511110"/>
<path d="M83.2138 53.1719C82.5786 50.859 80.93 48.7497 78.5387 48.09C77.9778 47.9352 77.4337 47.863 76.9065 47.863C75.0729 47.863 73.4403 48.7322 71.991 50.0018C71.9542 50.034 71.9101 50.0476 71.866 50.0476C71.7258 50.0476 71.5864 49.9082 71.6911 49.7705C72.9502 48.1149 74.7369 47.3816 76.5302 47.3816C79.6888 47.3816 82.8694 49.6556 83.2303 53.1698L83.2138 53.1719Z" fill="#A13B36"/>
<path d="M33.2406 63.5197C33.2406 63.5197 28.0163 65.5075 24.2614 61.8199C20.5063 58.1323 20.9688 49.4897 27.5265 47.0308C33.4039 44.8265 36.4837 50.051 36.4837 51.8467L33.2406 63.5197Z" fill="#8A312D"/>
<path d="M30.0466 63.7656C27.6545 63.7656 25.3235 62.9003 23.8069 60.8859C22.287 58.867 21.8637 56.1022 22.3485 53.6565C22.4033 53.3808 22.4727 53.1097 22.5554 52.8445C22.1512 55.7182 22.9784 58.7118 24.8171 60.517C26.6244 62.2921 28.7716 62.7525 30.5128 62.7525C30.8681 62.7525 31.2065 62.7332 31.5216 62.702C31.4646 62.9031 31.4083 63.0986 31.3532 63.2885C31.3274 63.2815 31.3005 63.278 31.2737 63.278C31.1696 63.278 31.0668 63.3337 31.0292 63.4626C31.0123 63.52 30.9845 63.6101 30.9499 63.7253C30.6488 63.752 30.3472 63.7656 30.0466 63.7656Z" fill="#71211E"/>
<path d="M32.5045 62.5398C32.5045 62.5398 29.0761 63.9275 25.8925 60.9889C22.709 58.0504 23.6884 52.0096 28.0149 51.1118C32.3413 50.2139 33.9738 53.7364 34.3821 55.1587L32.5045 62.5398Z" fill="#FFD2A8"/>
<path d="M32.4363 62.2876C27.9526 64.0087 23.3068 59.4871 24.476 54.986C25.1508 52.3887 27.6449 50.7838 30.313 51.3216C32.2821 51.7185 33.5704 53.3966 34.1302 55.2295C34.2287 55.5522 34.7361 55.4145 34.6369 55.0897C33.9984 52.9993 32.4887 51.1569 30.2422 50.7817C27.6577 50.3498 25.1611 51.6891 24.2022 54.1309C22.2411 59.1238 27.3924 64.784 32.576 62.7945C32.8883 62.6743 32.7527 62.166 32.4363 62.2876Z" fill="#511110"/>
<path d="M32.0299 63.5762C29.0069 64.1602 25.7421 63.4613 23.806 60.8895C22.2861 58.8706 21.8628 56.1058 22.3477 53.6601C23.5663 47.5147 32.0467 43.7749 35.6831 50.1575C35.8505 50.4515 36.3047 50.187 36.1369 49.8923C32.3922 43.3198 23.4572 46.7015 21.9215 53.1497C21.2785 55.8511 21.6902 58.9613 23.3874 61.2136C25.455 63.9577 28.9375 64.7074 32.1693 64.0831C32.501 64.019 32.3606 63.5124 32.0299 63.5762Z" fill="#511110"/>
<path d="M23.2285 53.1719L23.2123 53.1698C23.5732 49.6553 26.7534 47.3816 29.9122 47.3816C31.7055 47.3816 33.4923 48.1149 34.7513 49.7705C34.857 49.9096 34.7165 50.0473 34.5764 50.0473C34.5322 50.0473 34.4878 50.0336 34.4514 50.0018C33.0281 48.7549 31.3708 47.8465 29.5397 47.8465C29.0086 47.8465 28.4626 47.9229 27.9039 48.09C25.5141 48.8033 23.8739 50.8226 23.2285 53.1719Z" fill="#A13B36"/>
<path d="M75.7761 65.675C75.2839 63.8295 74.2589 60.8359 73.5617 56.9399C72.8646 53.0443 71.6363 48.7149 65.0319 44.0223C63.2239 42.7376 60.9937 41.7577 58.596 41.159L58.6058 41.1583C61.4204 41.0616 61.8611 40.987 60.4276 39.915C58.9937 38.8434 56.4478 38.602 56.4478 38.602C57.9227 37.6186 58.9688 36.5312 57.173 36.5312C55.3776 36.5312 52.761 37.6379 52.761 37.6379C52.761 37.6379 51.7447 36.5921 50.8737 34.4078C50.0028 32.2239 48.8772 32.8002 48.5689 35.2388C48.261 37.6775 49.2255 39.5535 49.2255 39.5535C49.2255 39.5535 47.2692 38.8833 47.0548 39.3257C46.8404 39.7679 47.6311 40.8262 47.6311 40.8262C45.1252 41.041 45.3887 41.9269 45.3887 41.9269H45.389C43.9316 42.484 42.5823 43.1895 41.4104 44.0223C34.8062 48.7149 33.5778 53.0443 32.8806 56.9399C32.1835 60.8359 31.1582 63.8295 30.6663 65.675C30.1742 67.5205 31.5273 66.4951 31.5273 66.4951C30.6663 71.3752 32.6756 70.0629 32.6756 70.0629C33.865 75.1069 34.89 72.9744 34.89 72.9744C37.8427 76.3373 37.979 74.0745 37.979 74.0745C43.2912 78.2066 53.2213 78.4609 53.2213 78.4609C53.2213 78.4609 63.1507 78.2066 68.4634 74.0745C68.4634 74.0745 68.5997 76.3373 71.5522 72.9744C71.5522 72.9744 72.5773 75.1069 73.7667 70.0629C73.7667 70.0629 75.7761 71.3752 74.9147 66.4951C74.9147 66.4951 76.2683 67.5205 75.7761 65.675Z" fill="#8A312D"/>
<path d="M53.2695 78.2031C53.253 78.2031 53.2369 78.2031 53.2208 78.2031C48.1711 78.1947 42.1842 76.9027 38.111 73.8527C38.0696 73.8216 38.0262 73.8083 37.9842 73.8083C37.8493 73.8083 37.727 73.9459 37.7157 74.0794C37.6879 74.4059 37.5517 74.5345 37.3547 74.5345C36.6765 74.5348 35.2752 73.0127 35.0755 72.7937C35.0287 72.7426 34.9604 72.7177 34.8916 72.7177C34.7989 72.7177 34.7054 72.7625 34.6626 72.8466C34.5739 73.0218 34.4775 73.0974 34.3769 73.0974C33.7603 73.0974 32.9908 70.2479 32.9285 69.9981C32.8994 69.8811 32.7851 69.8051 32.6704 69.8051C32.6262 69.8051 32.5819 69.8163 32.5423 69.8408C32.3931 69.9336 32.2661 69.9753 32.1583 69.9753C31.2281 69.9753 31.7325 66.8679 31.7801 66.5701C31.8051 66.4135 31.6802 66.2278 31.525 66.2278C31.4828 66.2278 31.4385 66.2415 31.3943 66.273C31.3089 66.3343 31.2403 66.3624 31.1864 66.3624C30.8143 66.3624 31.1277 65.043 31.3557 64.2215C31.3938 64.2383 31.4359 64.2453 31.4805 64.2453C31.7554 64.2453 32.118 63.9714 32.118 63.9714C31.5733 67.0585 32.2094 67.5983 32.7208 67.5983C32.9959 67.5983 33.235 67.4421 33.235 67.4421C33.8619 70.1011 34.4419 70.71 34.8418 70.71C35.1798 70.71 35.3891 70.2745 35.3891 70.2745C36.6137 71.6691 37.34 72.0689 37.7706 72.0689C37.9474 72.0689 38.0742 72.0016 38.1651 71.9081C43.6838 75.8994 50.0741 76.002 53.2208 76.002C56.3671 76.002 62.7574 75.8994 68.2761 71.9081C68.3672 72.0016 68.494 72.0689 68.6706 72.0689C69.1011 72.0689 69.8277 71.6688 71.0521 70.2745C71.0521 70.2745 71.2616 70.71 71.5997 70.71C71.9994 70.71 72.5796 70.1007 73.2063 67.4421C73.2063 67.4421 73.4452 67.5983 73.7206 67.5983C74.2321 67.5983 74.8679 67.0581 74.3231 63.9714C74.3231 63.9714 74.6857 64.2457 74.9607 64.2453C75.0052 64.2453 75.0476 64.2383 75.0855 64.2215C75.3135 65.043 75.6267 66.3624 75.2547 66.3624C75.2007 66.3624 75.1324 66.3343 75.0469 66.273C75.0024 66.2412 74.9576 66.2275 74.9152 66.2275C74.7604 66.2275 74.636 66.4128 74.6609 66.5701C74.7047 66.8423 75.2119 69.9739 74.2804 69.9743C74.1732 69.9743 74.0471 69.9329 73.8989 69.8408C73.8593 69.8163 73.8152 69.8051 73.771 69.8051C73.6561 69.8051 73.5419 69.8811 73.5128 69.9981C73.4585 70.2156 72.6885 73.0999 72.0667 73.0999C71.9654 73.0999 71.868 73.0235 71.7784 72.8466C71.7356 72.7625 71.6421 72.7177 71.5496 72.7177C71.4809 72.7177 71.4126 72.7426 71.366 72.7937C71.1344 73.0473 69.7552 74.5313 69.0854 74.5317C68.8885 74.5317 68.7533 74.4038 68.7256 74.0794C68.7144 73.9459 68.5921 73.8083 68.4572 73.8083C68.4152 73.8083 68.3718 73.8216 68.3304 73.8527C64.2803 76.8852 58.3009 78.2031 53.2695 78.2031Z" fill="#71211E"/>
<path d="M32.9201 64.3292C32.2093 65.8479 31.761 67.6706 32.103 69.3456C32.1298 69.4776 32.3335 69.4444 32.334 69.314C32.3416 67.5824 32.4006 66.0185 33.0253 64.3734C33.0482 64.3131 32.9479 64.27 32.9201 64.3292Z" fill="#511110"/>
<path d="M33.1979 67.8648C33.2009 69.4037 33.4397 71.2125 34.3485 72.4986C34.4148 72.5931 34.5787 72.5399 34.5435 72.4166C34.0997 70.8685 33.4925 69.4896 33.2855 67.8648C33.2785 67.8108 33.1977 67.8066 33.1979 67.8648Z" fill="#511110"/>
<path d="M34.3874 69.1738C34.8038 70.9027 35.6478 72.6501 36.93 73.9043C37.0498 74.0217 37.276 73.8644 37.1707 73.7186C36.1099 72.2494 35.1872 70.8347 34.5193 69.1377C34.4877 69.0572 34.3662 69.0862 34.3874 69.1738Z" fill="#511110"/>
<path d="M33.089 60.017C32.5306 61.7274 31.8843 63.5245 31.6022 65.3039C31.5829 65.4254 31.7419 65.4706 31.7869 65.3546C32.4371 63.6741 32.7811 61.7964 33.1576 60.036C33.1672 59.9911 33.1033 59.9733 33.089 60.017Z" fill="#511110"/>
<path d="M73.419 64.3732C74.0429 66.0173 74.1025 67.5815 74.1098 69.3139C74.1105 69.4428 74.3141 69.4789 74.341 69.3454C74.683 67.6705 74.2345 65.8474 73.5237 64.3291C73.4964 64.2706 73.3955 64.3123 73.419 64.3732Z" fill="#511110"/>
<path d="M73.1557 67.8648C72.9486 69.4886 72.3415 70.8678 71.8976 72.4166C71.8626 72.5385 72.0255 72.5939 72.0928 72.4986C73.0015 71.2125 73.2404 69.4052 73.2432 67.8648C73.2432 67.8066 73.1627 67.8105 73.1557 67.8648Z" fill="#511110"/>
<path d="M71.9234 69.1375C71.2557 70.8345 70.333 72.2491 69.2722 73.7184C69.1678 73.8627 69.3916 74.0225 69.5128 73.9041C70.795 72.6502 71.639 70.9024 72.0555 69.1736C72.0765 69.0863 71.955 69.0569 71.9234 69.1375Z" fill="#511110"/>
<path d="M73.2839 60.0359C73.6605 61.7952 74.0045 63.6744 74.6547 65.3545C74.6995 65.4705 74.8589 65.4257 74.8397 65.3038C74.5573 63.5244 73.9113 61.728 73.3525 60.0169C73.3382 59.9732 73.2744 59.991 73.2839 60.0359Z" fill="#511110"/>
<path d="M48.0441 39.9638C48.4849 40.3267 48.9035 40.7208 49.2931 41.1377C49.6416 41.5112 49.9261 42.0402 50.3434 42.3281C50.4183 42.3796 50.522 42.2942 50.4961 42.2104C50.3444 41.7238 49.8347 41.2996 49.4735 40.9573C49.0489 40.5548 48.5879 40.2122 48.0939 39.8993C48.0554 39.8748 48.0077 39.934 48.0441 39.9638Z" fill="#511110"/>
<path d="M49.7403 34.4039C49.8293 37.1743 50.2458 40.0389 51.8752 42.3577C51.9789 42.5052 52.2171 42.3735 52.1211 42.2141C50.6469 39.7733 50.0591 37.2296 49.8499 34.4039C49.8447 34.3345 49.7378 34.3327 49.7403 34.4039Z" fill="#511110"/>
<path d="M56.8362 37.1342C55.0919 37.6797 53.3442 38.834 52.3639 40.4091C52.29 40.5282 52.4683 40.6729 52.5615 40.5618C53.7954 39.0943 55.0646 37.9687 56.8625 37.2295C56.9193 37.206 56.8986 37.1149 56.8362 37.1342Z" fill="#511110"/>
<path d="M59.3904 40.2638C57.2366 39.7323 54.9657 40.2067 53.4138 41.8693C53.3171 41.9727 53.4642 42.1188 53.5686 42.0242C55.1703 40.5742 57.2201 39.8283 59.3844 40.2848L59.3904 40.2638Z" fill="#511110"/>
<path d="M46.3833 41.7931C46.8902 41.805 47.4055 41.8569 47.8991 41.9767C48.3416 42.0843 48.7508 42.2906 49.1904 42.395C49.3053 42.4223 49.3523 42.2801 49.2665 42.2149C48.5013 41.6327 47.2836 41.5857 46.3745 41.7283C46.337 41.7346 46.3475 41.7924 46.3833 41.7931Z" fill="#511110"/>
<path d="M71.3583 50.0087C68.4411 45.5168 63.8196 42.2682 58.6666 40.9047C58.6432 41.0771 58.6197 41.2487 58.5966 41.4211C59.2229 41.385 61.9324 41.6835 61.3417 40.3771C60.6957 38.9485 57.7803 38.4791 56.4483 38.3386C56.4925 38.5018 56.5366 38.6651 56.5808 38.8283C57.6791 38.0611 59.581 36.2075 56.9598 36.2769C55.7673 36.3084 54.4178 36.6454 53.3346 37.1341C53.2649 37.1653 52.9146 37.3387 52.8007 37.3394C52.5625 37.3405 53.1017 37.4946 52.8533 37.3475C52.4602 37.1142 52.0381 36.2019 51.8226 35.8099C51.3882 35.0196 50.2815 31.4697 48.8834 33.3212C47.6754 34.9208 48.1799 38.0156 48.999 39.6852C49.0981 39.5567 49.1969 39.4281 49.296 39.2992C47.5349 38.7148 45.9154 38.877 47.4046 40.9583C47.4803 40.8266 47.556 40.6949 47.6316 40.5628C46.9611 40.6413 44.8882 40.8301 45.1359 41.9963C45.1583 42.1032 45.2799 42.1953 45.3892 42.189H45.3895C45.3661 42.0174 45.3429 41.845 45.3198 41.673C41.1808 43.3227 37.4671 46.3085 35.0493 50.0662C34.8657 50.3513 35.3204 50.6151 35.503 50.3314C37.8431 46.6949 41.4517 43.7771 45.4592 42.1799C45.7122 42.079 45.7108 41.646 45.3895 41.6635C45.4743 41.729 45.5591 41.7946 45.6439 41.8597C45.6947 41.6635 45.8218 41.5409 46.0254 41.4919C46.6157 41.2323 46.891 41.1748 47.6316 41.0883C47.8075 41.068 47.9876 40.8732 47.8583 40.6931C47.5192 40.2191 47.2505 39.6726 48.1505 39.5286C48.4227 39.4848 48.8897 39.7175 49.1563 39.8061C49.3899 39.8835 49.5469 39.6117 49.453 39.42C49.2081 38.9212 49.0512 38.3708 48.9387 37.8285C48.7663 36.9979 48.6567 32.2187 50.5362 34.2954C51.1195 34.9404 51.3959 36.2072 51.9147 36.9674C52.1172 37.2638 52.3299 37.5605 52.5755 37.8229C52.6333 37.8845 52.7499 37.9245 52.8312 37.8905C53.4681 37.626 54.1236 37.3993 54.7867 37.2112C55.3343 37.0557 56.1919 36.7327 56.7461 36.8118C58.262 37.028 56.9598 37.9245 56.3156 38.3746C56.0935 38.5295 56.1867 38.8364 56.4483 38.8641C57.5477 38.98 58.7381 39.255 59.7092 39.7812C60.2445 40.0713 61.0993 40.4405 60.4705 40.7818C60.0343 41.0186 59.0797 40.8676 58.5966 40.8956C58.31 40.9117 58.2287 41.3325 58.5268 41.4116C63.5502 42.7408 68.06 45.8937 70.9043 50.2743C71.0879 50.5566 71.5429 50.2935 71.3583 50.0087Z" fill="#511110"/>
<path d="M31.0273 63.4666C30.8504 64.0705 29.4618 68.3028 31.659 66.725C31.5303 66.6258 31.4017 66.527 31.2731 66.4282C31.0362 67.9063 30.5293 69.9984 32.254 70.4815C32.3168 70.4991 32.4007 70.4595 32.4808 70.4195C32.5604 70.38 32.6362 70.3404 32.6832 70.3575C32.6413 70.3421 32.7272 71.3363 32.8764 71.7637C33.0728 72.3264 33.3937 73.4464 34.073 73.6369C34.5034 73.7575 34.5767 73.4607 34.9096 73.4015C34.9803 73.3889 35.059 73.122 35.1103 73.1213C34.7572 73.1248 36.1868 74.6298 36.4849 74.7948C37.2807 75.2351 38.1531 75.1111 38.2408 74.0773C38.109 74.153 37.9772 74.2287 37.8453 74.3043C41.9892 77.4072 48.0821 78.7353 53.2204 78.7265C58.3663 78.7181 64.441 77.4149 68.5949 74.3043C68.4632 74.2287 68.3314 74.153 68.1997 74.0773C68.2873 75.1108 69.1596 75.2351 69.9556 74.7948C70.1279 74.6991 70.28 74.5653 70.4359 74.4459C70.6107 74.3117 70.7764 74.1667 70.933 74.0111C71.2416 73.8755 71.3712 73.6632 71.3225 73.3739C71.889 73.0193 70.9494 73.2789 71.5019 73.37C71.8477 73.4268 71.9058 73.7662 72.3672 73.6369C72.9922 73.4618 73.2984 72.483 73.4911 71.9645C73.6056 71.6558 73.8834 70.271 73.7251 70.3428C73.7657 70.3242 73.8547 70.3677 73.9475 70.4111C74.0358 70.4521 74.128 70.4935 74.1865 70.4815C75.9451 70.127 75.3832 67.776 75.1674 66.4282C75.0385 66.527 74.9099 66.6258 74.7813 66.725C76.9887 68.3102 75.5853 64.0544 75.4133 63.4666C75.3184 63.1425 74.8111 63.2802 74.9064 63.606C74.9999 63.9248 75.935 66.9089 75.0465 66.2709C74.8388 66.1221 74.6286 66.3676 74.6605 66.568C74.7095 66.8718 75.3348 70.7306 73.8985 69.8387C73.7563 69.7508 73.5527 69.8341 73.5124 69.996C73.4494 70.2489 72.4184 74.1078 71.778 72.8445C71.7033 72.6977 71.4749 72.6714 71.3656 72.7916C71.0664 73.1199 68.8464 75.5067 68.7252 74.0773C68.7101 73.9021 68.5045 73.7196 68.33 73.8507C64.2669 76.8929 58.2619 78.2098 53.2204 78.201C48.1707 78.1926 42.1838 76.9006 38.1106 73.8507C37.9358 73.7196 37.7302 73.9021 37.7153 74.0773C37.5921 75.5273 35.3328 73.0743 35.0751 72.7916C34.9654 72.6714 34.7368 72.6977 34.6622 72.8445C34.0293 74.0931 33.0006 70.2864 32.9281 69.996C32.8877 69.8341 32.6841 69.7508 32.5419 69.8387C31.1048 70.731 31.7266 66.9001 31.7797 66.568C31.8116 66.369 31.6008 66.1224 31.3939 66.2709C30.5056 66.9089 31.4407 63.9248 31.5339 63.606C31.629 63.2809 31.1223 63.1422 31.0273 63.4666Z" fill="#511110"/>
<path d="M71.4885 62.539C70.7045 61.6526 70.5794 61.2631 70.509 59.1664C70.4053 56.0887 68.5482 49.4738 63.947 47.8459C59.7294 46.3535 57.6015 47.4731 56.0667 48.5924C54.9993 49.3712 54.2188 50.1503 53.2217 50.0498C52.2243 50.1503 51.4438 49.3712 50.3763 48.5924C48.8419 47.4731 46.714 46.3535 42.4963 47.8459C37.8947 49.4738 36.0378 56.0887 35.9342 59.1664C35.8636 61.2631 35.7385 61.6526 34.9545 62.539C34.1946 63.3987 31.5277 66.498 37.2403 71.1917C42.9528 75.8854 49.8974 76 53.2217 76C56.5456 76 63.4905 75.8854 69.2026 71.1917C74.9155 66.498 72.2487 63.3987 71.4885 62.539Z" fill="#FFD2A8"/>
<path d="M37.2315 71.1875C37.2299 71.1864 37.2282 71.1851 37.2267 71.1837C37.2284 71.1851 37.2297 71.1861 37.2315 71.1875ZM37.223 71.1808C37.2211 71.1791 37.2189 71.1773 37.217 71.1756C37.2186 71.177 37.2214 71.1791 37.223 71.1808ZM37.2144 71.1735C37.2122 71.1717 37.21 71.17 37.2078 71.1682C37.2099 71.17 37.2124 71.1717 37.2144 71.1735ZM37.2062 71.1668C36.641 70.7002 36.1586 70.2497 35.7489 69.8156C36.1586 70.2497 36.6413 70.7005 37.2062 71.1668ZM35.7484 69.8149C35.7474 69.8139 35.7463 69.8128 35.7455 69.8118C35.7464 69.8128 35.7472 69.8139 35.7484 69.8149ZM35.7414 69.8072C35.7408 69.8069 35.7401 69.8062 35.7397 69.8058C35.7404 69.8065 35.7406 69.8065 35.7414 69.8072ZM35.7341 69.7999C35.7339 69.7995 35.7339 69.7995 35.7336 69.7992C35.7337 69.7992 35.734 69.7995 35.7341 69.7999Z" fill="#8A2D27"/>
<path d="M53.2221 76C49.8978 76 42.9532 75.8854 37.2406 71.1917C37.2377 71.1893 37.2348 71.1868 37.2318 71.1844C37.23 71.183 37.2286 71.1819 37.227 71.1805C37.2258 71.1795 37.2245 71.1784 37.2233 71.1777C37.2217 71.176 37.2189 71.1739 37.2173 71.1725C37.2164 71.1718 37.2155 71.1711 37.2147 71.1704C37.2126 71.1686 37.2101 71.1669 37.2081 71.1651C37.2075 71.1644 37.2071 71.1641 37.2065 71.1637C36.6416 70.6974 36.1589 70.2466 35.7492 69.8125C35.7489 69.8122 35.7489 69.8118 35.7486 69.8118C35.7475 69.8108 35.7467 69.8097 35.7458 69.8086C35.7443 69.8072 35.743 69.8058 35.7416 69.8041C35.7408 69.8034 35.7407 69.8034 35.74 69.8027C35.7381 69.8006 35.7363 69.7985 35.7344 69.7967C35.7342 69.7964 35.734 69.796 35.7339 69.796C33.799 67.7379 33.4972 66.0507 33.7441 64.8011C33.9966 66.133 34.9363 67.7666 37.2406 69.6601C42.9532 74.3538 49.8978 74.468 53.2221 74.468C56.546 74.468 63.4909 74.3538 69.203 69.6601C71.5075 67.7666 72.4474 66.133 72.7 64.8011C73.0002 66.3229 72.4877 68.4932 69.203 71.1917C63.4909 75.8854 56.546 76 53.2221 76Z" fill="#FFC391"/>
<path d="M38.9945 67.1036C35.0445 66.198 36.3078 63.497 38.9945 64.1395C42.7136 65.0286 42.2264 67.8449 38.9945 67.1036Z" fill="#FFB6C3"/>
<path d="M67.4487 67.1036C71.3983 66.198 70.1354 63.497 67.4487 64.1395C63.7293 65.0286 64.2166 67.8449 67.4487 67.1036Z" fill="#FFB6C3"/>
<path d="M41.2425 58.9641C41.9361 58.6674 42.8847 58.4576 43.9836 58.8524C44.7697 59.1351 45.2052 58.5056 44.6292 58.0547C43.9657 57.5355 42.3021 57.2339 41.1392 57.8053C39.9763 58.3763 40.0559 58.7662 40.149 58.988C40.2419 59.2097 40.5907 59.2437 41.2425 58.9641Z" fill="#511110"/>
<path d="M65.2016 58.9641C64.5079 58.6674 63.5592 58.4576 62.4602 58.8524C61.6745 59.1351 61.2386 58.5056 61.8149 58.0547C62.4781 57.5355 64.1418 57.2339 65.3046 57.8053C66.4676 58.3763 66.3881 58.7662 66.2949 58.988C66.2021 59.2097 65.8532 59.2437 65.2016 58.9641Z" fill="#511110"/>
<path d="M59.5057 62.971C59.9156 62.2679 60.4215 61.6629 61.0471 61.1377C61.669 60.6203 62.4344 60.2108 63.2917 60.0724C64.1465 59.9291 65.0468 60.0878 65.8176 60.4308C66.5977 60.7688 67.2816 61.2551 67.8877 61.7953L67.8922 61.7991C68.1816 62.057 68.2072 62.5005 67.9493 62.7895C67.6915 63.0792 67.248 63.1045 66.9589 62.847L66.9113 62.8004C66.4292 62.2812 65.8932 61.8261 65.3026 61.5014C64.7154 61.1721 64.0652 60.9962 63.4073 61.0403C62.7494 61.0824 62.0922 61.3444 61.5071 61.7448C60.9249 62.1425 60.3878 62.6764 59.9765 63.252L59.9653 63.2681C59.8774 63.391 59.7061 63.4198 59.5831 63.3318C59.4672 63.2492 59.436 63.0919 59.5057 62.971Z" fill="#511110"/>
<path d="M46.6375 63.2519C46.2262 62.6763 45.6892 62.1424 45.1069 61.7448C44.5219 61.3444 43.8647 61.0823 43.2067 61.0403C42.5487 60.9961 41.8988 61.172 41.3114 61.5013C40.7208 61.8261 40.1846 62.2811 39.7028 62.8003C39.4391 63.0844 38.9951 63.1009 38.7113 62.8371C38.4271 62.5737 38.4107 62.1298 38.6742 61.8457L38.721 61.7998L38.7264 61.7952C39.3325 61.255 40.0162 60.7688 40.7963 60.4307C41.567 60.0877 42.4674 59.929 43.3224 60.0723C44.1796 60.2107 44.9451 60.6202 45.5669 61.1377C46.1922 61.6628 46.6985 62.2678 47.1084 62.9709C47.1844 63.1016 47.1402 63.2694 47.0096 63.3454C46.8866 63.4173 46.7307 63.3822 46.6494 63.2691L46.6375 63.2519Z" fill="#511110"/>
<path d="M52.9514 65.2354C52.9514 66.4577 52.9514 67.68 52.9514 68.9023C52.9514 69.2407 53.4768 69.2411 53.4768 68.9023C53.4768 67.68 53.4768 66.4577 53.4768 65.2354C53.4768 64.8974 52.9514 64.8967 52.9514 65.2354Z" fill="#511110"/>
<path d="M53.0823 68.7815C51.6435 69.6903 50.356 68.7826 49.793 67.3462C49.7198 67.1588 49.5117 67.0905 49.3541 67.2302C49.139 67.4236 48.8675 67.41 48.5395 67.1893C48.2614 66.9955 47.9986 67.451 48.2743 67.6429C48.756 67.9786 49.2686 68.0066 49.7254 67.602C49.579 67.5631 49.4329 67.5245 49.2864 67.486C49.9657 69.2191 51.5829 70.3499 53.3475 69.2355C53.6326 69.0555 53.3692 68.6004 53.0823 68.7815Z" fill="#511110"/>
<path d="M53.0949 69.2355C54.8595 70.3499 56.4766 69.2194 57.1563 67.4859C57.0098 67.5245 56.8634 67.563 56.717 67.6019C57.1731 68.0062 57.6849 67.9795 58.168 67.6429C58.4434 67.4509 58.181 66.9951 57.9028 67.1892C57.5746 67.4099 57.3034 67.4236 57.0887 67.2302C56.931 67.0904 56.7229 67.1587 56.6493 67.3462C56.0874 68.7797 54.7972 69.6891 53.3605 68.7814C53.0735 68.6003 52.8094 69.0551 53.0949 69.2355Z" fill="#511110"/>
<path d="M50.5334 64.0498C50.4112 64.7392 53.2215 65.7188 53.2215 65.7188C53.2215 65.7188 56.0318 64.7392 55.9092 64.0498C55.7866 63.3603 50.6557 63.3603 50.5334 64.0498Z" fill="#511110"/>
<path d="M55.1357 64.1953C54.4694 64.1953 53.8062 64.0671 53.1367 64.0548C53.0449 64.0531 52.9531 64.052 52.8613 64.052C52.2689 64.052 51.6765 64.0843 51.0841 64.0937L51.0806 64.0696C51.7452 63.887 52.5198 63.7739 53.2856 63.7739C53.9586 63.7739 54.6245 63.8615 55.2026 64.066C55.2713 64.0902 55.2618 64.1943 55.1854 64.195C55.1686 64.195 55.1521 64.1953 55.1357 64.1953Z" fill="#8A1D1B"/>
<path d="M50.3193 63.3349C52.105 62.4052 54.3096 62.491 56.0952 63.3349C56.3989 63.4786 56.6662 63.0256 56.3604 62.8809C54.3916 61.9508 52.0216 61.8565 50.0545 62.8809C49.7543 63.0375 50.0198 63.4912 50.3193 63.3349Z" fill="#511110"/>
</g>
<rect x="15.9714" y="15.9714" width="74.0571" height="74.0571" rx="37.0286" stroke="#833B1C" stroke-width="2.05714"/>
</g>
<defs>
<filter id="filter0_d_2680_6351" x="0.234302" y="0.236743" width="105.531" height="105.527" filterUnits="userSpaceOnUse" color-interpolation-filters="sRGB">
<feFlood flood-opacity="0" result="BackgroundImageFix"/>
<feColorMatrix in="SourceAlpha" type="matrix" values="0 0 0 0 0 0 0 0 0 0 0 0 0 0 0 0 0 0 127 0" result="hardAlpha"/>
<feOffset/>
<feGaussianBlur stdDeviation="7.35428"/>
<feComposite in2="hardAlpha" operator="out"/>
<feColorMatrix type="matrix" values="0 0 0 0 0 0 0 0 0 0 0 0 0 0 0 0 0 0 0.25 0"/>
<feBlend mode="normal" in2="BackgroundImageFix" result="effect1_dropShadow_2680_6351"/>
<feBlend mode="normal" in="SourceGraphic" in2="effect1_dropShadow_2680_6351" result="shape"/>
</filter>
<clipPath id="clip0_2680_6351">
<rect x="17" y="17" width="72" height="72" rx="36" fill="white"/>
</clipPath>
</defs>
</svg>
