<svg width="244" height="47" viewBox="0 0 244 47" fill="none" xmlns="http://www.w3.org/2000/svg">
<g clip-path="url(#clip0_2434_41925)">
<path d="M242.945 21.8198C242.389 21.8198 241.938 22.0737 241.938 22.3865V23.5578V24.7291C241.938 25.0421 242.389 25.2959 242.945 25.2959C243.502 25.2959 243.953 25.0421 243.953 24.7291V23.5578V22.3865C243.953 22.0737 243.502 21.8198 242.945 21.8198ZM239.302 20.6822C238.746 20.6822 238.295 20.9359 238.295 21.2489V23.5578V25.8669C238.295 26.1798 238.746 26.4336 239.302 26.4336C239.859 26.4336 240.31 26.1798 240.31 25.8669V23.5578V21.2489C240.31 20.9359 239.859 20.6822 239.302 20.6822ZM235.659 19.3422C235.103 19.3422 234.652 19.5961 234.652 19.9091V23.5578V27.2068C234.652 27.5196 235.103 27.7735 235.659 27.7735C236.216 27.7735 236.667 27.5196 236.667 27.2068V23.5578V19.9091C236.667 19.5961 236.216 19.3422 235.659 19.3422ZM232.016 21.1668C231.46 21.1668 231.009 21.4205 231.009 21.7335V23.5578V25.3822C231.009 25.6952 231.46 25.9489 232.016 25.9489C232.573 25.9489 233.024 25.6952 233.024 25.3822V23.5578V21.7335C233.024 21.4205 232.573 21.1668 232.016 21.1668ZM228.373 14.7797C227.817 14.7797 227.366 15.0335 227.366 15.3466V23.5578V31.7692C227.366 32.0822 227.817 32.3359 228.373 32.3359C228.93 32.3359 229.381 32.0822 229.381 31.7692V23.5578V15.3466C229.381 15.0335 228.93 14.7797 228.373 14.7797ZM224.731 12.4518C224.174 12.4518 223.722 12.7057 223.722 13.0187V23.5578V34.097C223.722 34.41 224.174 34.6637 224.731 34.6637C225.287 34.6637 225.738 34.41 225.738 34.097V23.5578V13.0187C225.738 12.7057 225.287 12.4518 224.731 12.4518ZM221.088 17.4264C220.531 17.4264 220.08 17.6801 220.08 17.9931V23.5578V29.1227C220.08 29.4356 220.531 29.6894 221.088 29.6894C221.644 29.6894 222.095 29.4356 222.095 29.1227V23.5578V17.9931C222.095 17.6801 221.644 17.4264 221.088 17.4264ZM217.444 15.3938C216.888 15.3938 216.437 15.6475 216.437 15.9605V23.5578V31.1554C216.437 31.4684 216.888 31.7221 217.444 31.7221C218.001 31.7221 218.452 31.4684 218.452 31.1554V23.5578V15.9605C218.452 15.6475 218.001 15.3938 217.444 15.3938ZM213.801 12.8454C213.245 12.8454 212.794 13.0991 212.794 13.4121V23.5578V33.7036C212.794 34.0165 213.245 34.2703 213.801 34.2703C214.358 34.2703 214.809 34.0165 214.809 33.7036V23.5578V13.4121C214.809 13.0991 214.358 12.8454 213.801 12.8454ZM210.159 10.2385C209.602 10.2385 209.151 10.4922 209.151 10.8052V23.5578V36.3105C209.151 36.6236 209.602 36.8772 210.159 36.8772C210.715 36.8772 211.166 36.6236 211.166 36.3105V23.5578V10.8052C211.166 10.4922 210.715 10.2385 210.159 10.2385ZM206.516 12.6634C205.959 12.6634 205.508 12.9171 205.508 13.2301V23.5578V33.8856C205.508 34.1985 205.959 34.4523 206.516 34.4523C207.072 34.4523 207.523 34.1985 207.523 33.8856V23.5578V13.2301C207.523 12.9171 207.072 12.6634 206.516 12.6634ZM202.872 15.8034C202.316 15.8034 201.865 16.0569 201.865 16.3701V23.5578V30.7459C201.865 31.0587 202.316 31.3126 202.872 31.3126C203.429 31.3126 203.88 31.0587 203.88 30.7459V23.5578V16.3701C203.88 16.0569 203.429 15.8034 202.872 15.8034ZM199.229 17.7215C198.673 17.7215 198.222 17.9753 198.222 18.2883V23.5578V28.8276C198.222 29.1404 198.673 29.3943 199.229 29.3943C199.786 29.3943 200.237 29.1404 200.237 28.8276V23.5578V18.2883C200.237 17.9753 199.786 17.7215 199.229 17.7215ZM195.587 18.8854C195.03 18.8854 194.579 19.1392 194.579 19.4521V23.5578V27.6635C194.579 27.9765 195.03 28.2302 195.587 28.2302C196.143 28.2302 196.595 27.9765 196.595 27.6635V23.5578V19.4521C196.595 19.1392 196.143 18.8854 195.587 18.8854ZM191.944 20.9385C191.387 20.9385 190.936 21.192 190.936 21.5052V23.5578V25.6109C190.936 25.9237 191.387 26.1776 191.944 26.1776C192.5 26.1776 192.951 25.9237 192.951 25.6109V23.5578V21.5052C192.951 21.192 192.5 20.9385 191.944 20.9385ZM188.301 21.6735C187.744 21.6735 187.293 21.9272 187.293 22.2402V23.5578V24.8756C187.293 25.1886 187.744 25.4425 188.301 25.4425C188.857 25.4425 189.308 25.1886 189.308 24.8756V23.5578V22.2402C189.308 21.9272 188.857 21.6735 188.301 21.6735ZM184.658 20.3564C184.101 20.3564 183.65 20.61 183.65 20.9231V23.5578V26.1927C183.65 26.5057 184.101 26.7594 184.658 26.7594C185.214 26.7594 185.665 26.5057 185.665 26.1927V23.5578V20.9231C185.665 20.61 185.214 20.3564 184.658 20.3564ZM181.015 19.8077C180.458 19.8077 180.007 20.0614 180.007 20.3744V23.5578V26.7412C180.007 27.0544 180.458 27.3081 181.015 27.3081C181.571 27.3081 182.022 27.0544 182.022 26.7412V23.5578V20.3744C182.022 20.0614 181.571 19.8077 181.015 19.8077ZM177.372 18.3061C176.815 18.3061 176.364 18.5598 176.364 18.8728V23.5578V28.2429C176.364 28.556 176.815 28.8097 177.372 28.8097C177.928 28.8097 178.379 28.556 178.379 28.2429V23.5578V18.8728C178.379 18.5598 177.928 18.3061 177.372 18.3061ZM173.729 20.3564C173.172 20.3564 172.721 20.61 172.721 20.9231V23.5578V26.1927C172.721 26.5057 173.172 26.7594 173.729 26.7594C174.285 26.7594 174.736 26.5057 174.736 26.1927V23.5578V20.9231C174.736 20.61 174.285 20.3564 173.729 20.3564ZM170.086 19.1924C169.529 19.1924 169.078 19.4461 169.078 19.7592V23.5578V27.3566C169.078 27.6696 169.529 27.9233 170.086 27.9233C170.642 27.9233 171.094 27.6696 171.094 27.3566V23.5578V19.7592C171.094 19.4461 170.642 19.1924 170.086 19.1924ZM166.443 17.2138C165.886 17.2138 165.435 17.4677 165.435 17.7806V23.5578V29.3352C165.435 29.648 165.886 29.9019 166.443 29.9019C166.999 29.9019 167.451 29.648 167.451 29.3352V23.5578V17.7806C167.451 17.4677 166.999 17.2138 166.443 17.2138ZM162.8 19.3971C162.243 19.3971 161.792 19.6508 161.792 19.9638V23.5578V27.1519C161.792 27.4647 162.243 27.7186 162.8 27.7186C163.357 27.7186 163.808 27.4647 163.808 27.1519V23.5578V19.9638C163.808 19.6508 163.357 19.3971 162.8 19.3971ZM159.157 13.9376C158.6 13.9376 158.149 14.1913 158.149 14.5043V23.5578V32.6116C158.149 32.9245 158.6 33.1783 159.157 33.1783C159.713 33.1783 160.164 32.9245 160.164 32.6116V23.5578V14.5043C160.164 14.1913 159.713 13.9376 159.157 13.9376ZM155.514 16.3494C154.957 16.3494 154.506 16.6031 154.506 16.9161V23.5578V30.1996C154.506 30.5127 154.957 30.7665 155.514 30.7665C156.071 30.7665 156.522 30.5127 156.522 30.1996V23.5578V16.9161C156.522 16.6031 156.071 16.3494 155.514 16.3494ZM151.871 14.1632C151.314 14.1632 150.863 14.4169 150.863 14.7301V23.5578V32.3858C150.863 32.6988 151.314 32.9527 151.871 32.9527C152.427 32.9527 152.878 32.6988 152.878 32.3858V23.5578V14.7301C152.878 14.4169 152.427 14.1632 151.871 14.1632ZM148.228 11.8615C147.671 11.8615 147.22 12.1152 147.22 12.4284V23.5578V34.6875C147.22 35.0005 147.671 35.2542 148.228 35.2542C148.784 35.2542 149.236 35.0005 149.236 34.6875V23.5578V12.4284C149.236 12.1152 148.784 11.8615 148.228 11.8615ZM144.585 9.25054C144.028 9.25054 143.577 9.50426 143.577 9.81725V23.5578V37.2984C143.577 37.6116 144.028 37.8653 144.585 37.8653C145.141 37.8653 145.592 37.6116 145.592 37.2984V23.5578V9.81725C145.592 9.50426 145.141 9.25054 144.585 9.25054ZM140.942 5.47349C140.385 5.47349 139.934 5.72738 139.934 6.04019V23.5578V41.0753C139.934 41.3883 140.385 41.642 140.942 41.642C141.498 41.642 141.95 41.3883 141.95 41.0753V23.5578V6.04019C141.95 5.72738 141.498 5.47349 140.942 5.47349ZM137.299 -0.00151062C136.742 -0.00151062 136.291 0.25222 136.291 0.565376V23.5578V46.5505C136.291 46.8635 136.742 47.1172 137.299 47.1172C137.856 47.1172 138.307 46.8635 138.307 46.5505V23.5578V0.565376C138.307 0.25222 137.856 -0.00151062 137.299 -0.00151062ZM133.656 1.95201C133.099 1.95201 132.648 2.20573 132.648 2.51872V23.5578V44.5971C132.648 44.91 133.099 45.1638 133.656 45.1638C134.213 45.1638 134.663 44.91 134.663 44.5971V23.5578V2.51872C134.663 2.20573 134.213 1.95201 133.656 1.95201ZM130.013 4.50388C129.457 4.50388 129.005 4.7576 129.005 5.07059V23.5578V42.0453C129.005 42.3581 129.457 42.612 130.013 42.612C130.57 42.612 131.021 42.3581 131.021 42.0453V23.5578V5.07059C131.021 4.7576 130.57 4.50388 130.013 4.50388ZM126.37 8.75319C125.813 8.75319 125.362 9.00692 125.362 9.3199V23.5578V37.7958C125.362 38.1088 125.813 38.3627 126.37 38.3627C126.927 38.3627 127.378 38.1088 127.378 37.7958V23.5578V9.3199C127.378 9.00692 126.927 8.75319 126.37 8.75319ZM122.727 12.4518C122.17 12.4518 121.719 12.7057 121.719 13.0187V23.5578V34.097C121.719 34.41 122.17 34.6637 122.727 34.6637C123.284 34.6637 123.735 34.41 123.735 34.097V23.5578V13.0187C123.735 12.7057 123.284 12.4518 122.727 12.4518ZM119.084 13.9376C118.527 13.9376 118.076 14.1913 118.076 14.5043V23.5578V32.6116C118.076 32.9245 118.527 33.1783 119.084 33.1783C119.64 33.1783 120.092 32.9245 120.092 32.6116V23.5578V14.5043C120.092 14.1913 119.64 13.9376 119.084 13.9376ZM115.441 12.2762C114.884 12.2762 114.434 12.5299 114.434 12.8431V23.5578V34.2728C114.434 34.5856 114.884 34.8395 115.441 34.8395C115.997 34.8395 116.449 34.5856 116.449 34.2728V23.5578V12.8431C116.449 12.5299 115.997 12.2762 115.441 12.2762ZM111.798 10.2385C111.241 10.2385 110.79 10.4922 110.79 10.8052V23.5578V36.3105C110.79 36.6236 111.241 36.8772 111.798 36.8772C112.355 36.8772 112.806 36.6236 112.806 36.3105V23.5578V10.8052C112.806 10.4922 112.355 10.2385 111.798 10.2385ZM108.155 7.97418C107.598 7.97418 107.147 8.22773 107.147 8.54089V23.5578V38.5748C107.147 38.8878 107.598 39.1417 108.155 39.1417C108.712 39.1417 109.163 38.8878 109.163 38.5748V23.5578V8.54089C109.163 8.22773 108.712 7.97418 108.155 7.97418ZM104.512 12.2762C103.956 12.2762 103.504 12.5299 103.504 12.8431V23.5578V34.2728C103.504 34.5856 103.956 34.8395 104.512 34.8395C105.069 34.8395 105.52 34.5856 105.52 34.2728V23.5578V12.8431C105.52 12.5299 105.069 12.2762 104.512 12.2762ZM100.869 14.2324C100.312 14.2324 99.8615 14.4861 99.8615 14.7991V23.5578V32.3167C99.8615 32.6297 100.312 32.8835 100.869 32.8835C101.426 32.8835 101.877 32.6297 101.877 32.3167V23.5578V14.7991C101.877 14.4861 101.426 14.2324 100.869 14.2324ZM97.2261 15.8034C96.6697 15.8034 96.2186 16.0569 96.2186 16.3701V23.5578V30.7459C96.2186 31.0587 96.6697 31.3126 97.2261 31.3126C97.7828 31.3126 98.2339 31.0587 98.2339 30.7459V23.5578V16.3701C98.2339 16.0569 97.7828 15.8034 97.2261 15.8034ZM93.5829 17.6338C93.0265 17.6338 92.5754 17.8874 92.5754 18.2005V23.5578V28.9153C92.5754 29.2283 93.0265 29.4822 93.5829 29.4822C94.1396 29.4822 94.5907 29.2283 94.5907 28.9153V23.5578V18.2005C94.5907 17.8874 94.1396 17.6338 93.5829 17.6338ZM89.9403 15.4827C89.3835 15.4827 88.9325 15.7364 88.9325 16.0494V23.5578V31.0663C88.9325 31.3793 89.3835 31.633 89.9403 31.633C90.4967 31.633 90.948 31.3793 90.948 31.0663V23.5578V16.0494C90.948 15.7364 90.4967 15.4827 89.9403 15.4827ZM86.297 14.5407C85.7406 14.5407 85.2896 14.7942 85.2896 15.1074V23.5578V32.0085C85.2896 32.3215 85.7406 32.5752 86.297 32.5752C86.8538 32.5752 87.3048 32.3215 87.3048 32.0085V23.5578V15.1074C87.3048 14.7942 86.8538 14.5407 86.297 14.5407ZM82.6541 12.4518C82.0977 12.4518 81.6466 12.7057 81.6466 13.0187V23.5578V34.097C81.6466 34.41 82.0977 34.6637 82.6541 34.6637C83.2108 34.6637 83.6619 34.41 83.6619 34.097V23.5578V13.0187C83.6619 12.7057 83.2108 12.4518 82.6541 12.4518ZM79.0112 16.6147C78.4548 16.6147 78.0037 16.8686 78.0037 17.1814V23.5578V29.9342C78.0037 30.2472 78.4548 30.501 79.0112 30.501C79.5679 30.501 80.0193 30.2472 80.0193 29.9342V23.5578V17.1814C80.0193 16.8686 79.5679 16.6147 79.0112 16.6147ZM75.3683 9.67245C74.8116 9.67245 74.3605 9.926 74.3605 10.2392V23.5578V36.8767C74.3605 37.1897 74.8116 37.4434 75.3683 37.4434C75.9247 37.4434 76.3761 37.1897 76.3761 36.8767V23.5578V10.2392C76.3761 9.926 75.9247 9.67245 75.3683 9.67245ZM71.7253 14.2324C71.1689 14.2324 70.7176 14.4861 70.7176 14.7991V23.5578V32.3167C70.7176 32.6297 71.1689 32.8835 71.7253 32.8835C72.2821 32.8835 72.7331 32.6297 72.7331 32.3167V23.5578V14.7991C72.7331 14.4861 72.2821 14.2324 71.7253 14.2324ZM68.0821 11.4948C67.5257 11.4948 67.0746 11.7487 67.0746 12.0615V23.5578V35.054C67.0746 35.3671 67.5257 35.6209 68.0821 35.6209C68.6388 35.6209 69.0899 35.3671 69.0899 35.054V23.5578V12.0615C69.0899 11.7487 68.6388 11.4948 68.0821 11.4948ZM64.4395 10.2385C63.8828 10.2385 63.4317 10.4922 63.4317 10.8052V23.5578V36.3105C63.4317 36.6236 63.8828 36.8772 64.4395 36.8772C64.9959 36.8772 65.4473 36.6236 65.4473 36.3105V23.5578V10.8052C65.4473 10.4922 64.9959 10.2385 64.4395 10.2385ZM60.7963 6.57794C60.2399 6.57794 59.7885 6.8315 59.7885 7.14466V23.5578V39.9712C59.7885 40.2842 60.2399 40.5381 60.7963 40.5381C61.3527 40.5381 61.8041 40.2842 61.8041 39.9712V23.5578V7.14466C61.8041 6.8315 61.3527 6.57794 60.7963 6.57794ZM57.1534 11.7893C56.5969 11.7893 56.1456 12.043 56.1456 12.356V23.5578V34.7597C56.1456 35.0728 56.5969 35.3266 57.1534 35.3266C57.7101 35.3266 58.1611 35.0728 58.1611 34.7597V23.5578V12.356C58.1611 12.043 57.7101 11.7893 57.1534 11.7893ZM53.5104 14.1632C52.9537 14.1632 52.5023 14.4169 52.5023 14.7301V23.5578V32.3858C52.5023 32.6988 52.9537 32.9527 53.5104 32.9527C54.0669 32.9527 54.5179 32.6988 54.5179 32.3858V23.5578V14.7301C54.5179 14.4169 54.0669 14.1632 53.5104 14.1632ZM49.8675 15.3938C49.3108 15.3938 48.8597 15.6475 48.8597 15.9605V23.5578V31.1554C48.8597 31.4684 49.3108 31.7221 49.8675 31.7221C50.4239 31.7221 50.875 31.4684 50.875 31.1554V23.5578V15.9605C50.875 15.6475 50.4239 15.3938 49.8675 15.3938ZM46.2246 17.8615C45.6682 17.8615 45.2168 18.1153 45.2168 18.4282V23.5578V28.6875C45.2168 29.0005 45.6682 29.2542 46.2246 29.2542C46.781 29.2542 47.2324 29.0005 47.2324 28.6875V23.5578V18.4282C47.2324 18.1153 46.781 17.8615 46.2246 17.8615ZM42.5814 18.3694C42.0249 18.3694 41.5736 18.6231 41.5736 18.9361V23.5578V28.1797C41.5736 28.4927 42.0249 28.7466 42.5814 28.7466C43.1381 28.7466 43.5891 28.4927 43.5891 28.1797V23.5578V18.9361C43.5891 18.6231 43.1381 18.3694 42.5814 18.3694ZM38.9387 17.6338C38.382 17.6338 37.9309 17.8874 37.9309 18.2005V23.5578V28.9153C37.9309 29.2283 38.382 29.4822 38.9387 29.4822C39.4951 29.4822 39.9462 29.2283 39.9462 28.9153V23.5578V18.2005C39.9462 17.8874 39.4951 17.6338 38.9387 17.6338ZM35.2955 20.6485C34.7388 20.6485 34.2877 20.9024 34.2877 21.2152V23.5578V25.9004C34.2877 26.2134 34.7388 26.4672 35.2955 26.4672C35.8519 26.4672 36.303 26.2134 36.303 25.9004V23.5578V21.2152C36.303 20.9024 35.8519 20.6485 35.2955 20.6485ZM31.6526 21.8198C31.0959 21.8198 30.6448 22.0737 30.6448 22.3865V23.5578V24.7291C30.6448 25.0421 31.0959 25.2959 31.6526 25.2959C32.2093 25.2959 32.6604 25.0421 32.6604 24.7291V23.5578V22.3865C32.6604 22.0737 32.2093 21.8198 31.6526 21.8198ZM28.0094 20.6802C27.4529 20.6802 27.0016 20.9339 27.0016 21.2471V23.5578V25.8688C27.0016 26.1818 27.4529 26.4355 28.0094 26.4355C28.5661 26.4355 29.0171 26.1818 29.0171 25.8688V23.5578V21.2471C29.0171 20.9339 28.5661 20.6802 28.0094 20.6802ZM24.3667 21.6353C23.81 21.6353 23.359 21.889 23.359 22.202V23.5578V24.9137C23.359 25.2267 23.81 25.4804 24.3667 25.4804C24.9232 25.4804 25.3742 25.2267 25.3742 24.9137V23.5578V22.202C25.3742 21.889 24.9232 21.6353 24.3667 21.6353ZM20.7238 20.4265C20.1671 20.4265 19.716 20.68 19.716 20.9932V23.5578V26.1229C19.716 26.4357 20.1671 26.6896 20.7238 26.6896C21.2802 26.6896 21.7313 26.4357 21.7313 26.1229V23.5578V20.9932C21.7313 20.68 21.2802 20.4265 20.7238 20.4265ZM17.0806 18.3694C16.5239 18.3694 16.0728 18.6231 16.0728 18.9361V23.5578V28.1797C16.0728 28.4927 16.5239 28.7466 17.0806 28.7466C17.6373 28.7466 18.0884 28.4927 18.0884 28.1797V23.5578V18.9361C18.0884 18.6231 17.6373 18.3694 17.0806 18.3694ZM13.4377 20.6802C12.881 20.6802 12.4302 20.9339 12.4302 21.2471V23.5578V25.8688C12.4302 26.1818 12.881 26.4355 13.4377 26.4355C13.9944 26.4355 14.4455 26.1818 14.4455 25.8688V23.5578V21.2471C14.4455 20.9339 13.9944 20.6802 13.4377 20.6802ZM9.79445 21.8198C9.23803 21.8198 8.78697 22.0737 8.78697 22.3865V23.5578V24.7291C8.78697 25.0421 9.23803 25.2959 9.79445 25.2959C10.3512 25.2959 10.8022 25.0421 10.8022 24.7291V23.5578V22.3865C10.8022 22.0737 10.3512 21.8198 9.79445 21.8198ZM6.15182 19.8028C5.5951 19.8028 5.14405 20.0566 5.14405 20.3697V23.5578V26.7461C5.14405 27.0589 5.5951 27.3128 6.15182 27.3128C6.70825 27.3128 7.15931 27.0589 7.15931 26.7461V23.5578V20.3697C7.15931 20.0566 6.70825 19.8028 6.15182 19.8028ZM2.5086 18.5772C1.95188 18.5772 1.50082 18.8309 1.50082 19.1439V23.5578V27.9718C1.50082 28.2848 1.95188 28.5385 2.5086 28.5385C3.06532 28.5385 3.51639 28.2848 3.51639 27.9718V23.5578V19.1439C3.51639 18.8309 3.06532 18.5772 2.5086 18.5772ZM-1.13432 19.8028C-1.69074 19.8028 -2.1418 20.0566 -2.1418 20.3697V23.5578V26.7461C-2.1418 27.0589 -1.69074 27.3128 -1.13432 27.3128C-0.577597 27.3128 -0.126537 27.0589 -0.126537 26.7461V23.5578V20.3697C-0.126537 20.0566 -0.577597 19.8028 -1.13432 19.8028ZM-4.77754 21.7087C-5.33396 21.7087 -5.78502 21.9624 -5.78502 22.2754V23.5578V24.8403C-5.78502 25.1532 -5.33396 25.4071 -4.77754 25.4071C-4.22082 25.4071 -3.76976 25.1532 -3.76976 24.8403V23.5578V22.2754C-3.76976 21.9624 -4.22082 21.7087 -4.77754 21.7087ZM-8.42017 18.1098C-8.97689 18.1098 -9.42795 18.3637 -9.42795 18.6767V23.5578V28.4392C-9.42795 28.7522 -8.97689 29.0061 -8.42017 29.0061C-7.86374 29.0061 -7.41238 28.7522 -7.41238 28.4392V23.5578V18.6767C-7.41238 18.3637 -7.86374 18.1098 -8.42017 18.1098ZM-12.0631 19.1479C-12.6198 19.1479 -13.0709 19.4016 -13.0709 19.7146V23.5578V27.4011C-13.0709 27.7142 -12.6198 27.9679 -12.0631 27.9679C-11.5067 27.9679 -11.0553 27.7142 -11.0553 27.4011V23.5578V19.7146C-11.0553 19.4016 -11.5067 19.1479 -12.0631 19.1479ZM-15.7063 20.6846C-16.2628 20.6846 -16.714 20.9385 -16.714 21.2513V23.5578V25.8644C-16.714 26.1776 -16.2628 26.4313 -15.7063 26.4313C-15.1497 26.4313 -14.6986 26.1776 -14.6986 25.8644V23.5578V21.2513C-14.6986 20.9385 -15.1497 20.6846 -15.7063 20.6846ZM-22.9922 21.8198C-23.5488 21.8198 -24 22.0737 -24 22.3865V23.5578V24.7291C-24 25.0421 -23.5488 25.2959 -22.9922 25.2959C-22.4356 25.2959 -21.9844 25.0421 -21.9844 24.7291V23.5578V22.3865C-21.9844 22.0737 -22.4356 21.8198 -22.9922 21.8198ZM-18.3415 22.3865V24.7291C-18.3415 25.0421 -18.7925 25.2959 -19.3491 25.2959C-19.9056 25.2959 -20.3568 25.0421 -20.3568 24.7291V23.5578V22.3865C-20.3568 22.0737 -19.9056 21.8198 -19.3491 21.8198C-18.7925 21.8198 -18.3415 22.0737 -18.3415 22.3865Z" fill="url(#paint0_linear_2434_41925)"/>
</g>
<defs>
<linearGradient id="paint0_linear_2434_41925" x1="243.953" y1="-0.00150958" x2="129.699" y2="111.209" gradientUnits="userSpaceOnUse">
<stop stop-color="#E15404"/>
<stop offset="1" stop-color="#FF9050"/>
</linearGradient>
<clipPath id="clip0_2434_41925">
<rect width="244" height="47" fill="white"/>
</clipPath>
</defs>
</svg>
