<svg width="72" height="72" viewBox="0 0 72 72" fill="none" xmlns="http://www.w3.org/2000/svg">
<path d="M63.586 8.05488C62.7473 7.30521 54.9961 0.891357 35.9921 0.734375C16.9725 0.894561 9.23225 7.32442 8.42012 8.05167C-2.63898 17.3425 0.326876 48.4185 0.454943 49.7353C1.34361 59.5226 6.85832 65.9589 17.3021 69.4125C25.6186 72.1613 34.3413 72.0364 35.9937 71.9755C36.1952 71.9755 36.634 71.9947 37.2697 71.9947C40.1481 71.9947 47.6088 71.7416 54.6962 69.3997C65.1447 65.9461 70.6547 59.5098 71.5418 49.7353C71.6745 48.4313 74.6388 17.3521 63.586 8.05488Z" fill="#6B18C4"/>
<path d="M63.4456 7.25963C62.7896 6.67335 55.0618 0.156982 35.9938 0C16.9399 0.156982 9.21211 6.67335 8.55616 7.25963C-2.17965 16.2845 0.626902 46.2809 0.811194 48.1263C1.66862 57.5676 7.08182 63.8245 17.3663 67.2076C25.8656 70.0205 34.8584 69.8122 36.0063 69.7706C36.2062 69.7706 36.6435 69.7898 37.2761 69.7898C40.2716 69.7898 47.6261 69.5239 54.6448 67.2012C64.9246 63.8052 70.3378 57.5612 71.1999 48.1198C71.3748 46.2809 74.183 16.2845 63.4456 7.25963Z" fill="#A154F4"/>
<path d="M62.7405 10.6634C62.7405 10.6634 55.3673 3.8587 35.9994 3.69531C16.6331 3.8587 9.2567 10.6634 9.2567 10.6634C-0.349924 18.6951 2.57532 47.4229 2.57532 47.4229C4.17773 65.3637 30.0193 66.3024 35.9978 66.0878C41.9764 66.3024 67.8179 65.3765 69.4203 47.4229C69.4203 47.4229 72.3471 18.6951 62.7405 10.6634Z" fill="#933BF2"/>
<path d="M60.3907 12.4712L60.7585 11.9972L60.3907 12.4712C60.5005 12.5564 60.6048 12.6419 60.7191 12.7365C62.8675 14.5128 64.4388 17.3906 65.5694 20.8095C66.6965 24.2179 67.3643 28.0989 67.7491 31.808C68.5187 39.2252 68.1484 45.8715 68.1109 46.4955C68.1083 46.5382 68.1065 46.5699 68.1042 46.6111C67.6584 54.6171 61.5517 58.8906 54.6148 61.1512C47.6903 63.4077 40.1491 63.5749 37.3103 63.4769L37.2896 63.4762L37.2688 63.4769C34.4384 63.5749 26.8808 63.4081 19.7727 61.1497C12.6501 58.8867 6.17474 54.5968 5.09476 46.5637L5.09459 46.5624C5.08919 46.5222 5.08509 46.4917 5.07926 46.4498C4.99328 45.8322 4.09906 39.1966 4.28047 31.7858C4.37119 28.0795 4.73059 24.2021 5.58459 20.7962C6.44175 17.3777 7.77842 14.5109 9.7664 12.7414C9.88606 12.6348 9.99969 12.5354 10.1157 12.4403C11.2101 11.5437 18.2672 6.3418 34.9828 6.20549C51.8261 6.3428 59.2951 11.6212 60.3907 12.4712Z" fill="url(#paint0_linear_1381_38626)" stroke="#7E1EE4" stroke-width="1.2"/>
<path d="M30.8752 5.76172C15.379 6.72283 9.55976 12.1435 9.55976 12.1435C0.627829 19.6723 4.50109 46.5931 4.50109 46.5931C4.57799 47.1817 4.6826 47.7536 4.81345 48.3007C4.51515 20.6942 15.7976 10.6282 30.8752 5.76172Z" fill="#6B18C4"/>
<path d="M12.3852 14.2374C11.3044 12.2447 9.07884 13.0744 7.41084 16.0891C5.74284 19.1038 5.26806 23.1661 6.35194 25.1589C7.43583 27.1516 7.99964 24.0151 9.66608 20.994C11.3325 17.9729 13.4644 16.2301 12.3852 14.2374Z" fill="white"/>
<path d="M5.97482 25.9355C5.3501 25.4357 4.65822 25.7913 4.33805 27.0952C4.01788 28.3991 4.19437 30.1612 4.80659 30.6642C5.41882 31.1672 6.1841 30.5136 6.50427 29.2065C6.82444 27.8994 6.59173 26.4385 5.97482 25.9355Z" fill="white"/>
<path d="M67.6286 26.6562C67.5831 28.2475 67.4787 29.8294 67.3162 31.3881C65.6357 47.7079 57.8907 59.3246 47.5969 63.3997C56.7459 61.9836 68.1127 57.8797 68.6999 46.5866C68.7046 46.5866 69.37 36.293 67.6286 26.6562Z" fill="#6B18C4"/>
<path d="M62.6809 53.8854C63.6774 55.3591 65.514 54.2442 66.7822 51.3961C68.0504 48.548 68.2722 45.0431 67.2757 43.5694C66.2793 42.0957 65.8701 44.5594 64.6082 47.4139C63.3463 50.2684 61.6845 52.4085 62.6809 53.8854Z" fill="white"/>
<g clip-path="url(#clip0_1381_38626)">
<path d="M47.9999 37.1859C47.64 37.0738 47.2503 37.1084 46.9158 37.2823C46.5813 37.4563 46.3291 37.7554 46.2142 38.1145C45.5393 40.178 44.2236 41.9724 42.4585 43.2365C40.6933 44.5006 38.5709 45.1685 36.3999 45.1431C33.7147 45.1736 31.127 44.138 29.2042 42.2634C27.2814 40.3888 26.1804 37.8282 26.1428 35.1431C26.1804 32.458 27.2814 29.8973 29.2042 28.0227C31.127 26.1481 33.7147 25.1126 36.3999 25.1431C38.825 25.1372 41.1755 25.9814 43.0428 27.5288L39.9428 27.0145C39.757 26.9839 39.567 26.9904 39.3837 27.0335C39.2004 27.0766 39.0275 27.1556 38.8748 27.2657C38.7221 27.3759 38.5927 27.5152 38.4941 27.6756C38.3954 27.836 38.3294 28.0143 38.2999 28.2002C38.2694 28.386 38.2758 28.576 38.3189 28.7593C38.3621 28.9426 38.441 29.1155 38.5512 29.2682C38.6614 29.4209 38.8006 29.5503 38.961 29.6489C39.1214 29.7476 39.2997 29.8136 39.4856 29.8431L45.5428 30.8431H45.7856C45.9513 30.8429 46.1156 30.8139 46.2714 30.7574C46.3237 30.7375 46.3721 30.7085 46.4142 30.6716C46.5166 30.6336 46.6129 30.5806 46.6999 30.5145L46.8285 30.3574C46.8285 30.2859 46.9571 30.2288 47.0142 30.1431C47.0714 30.0574 47.0142 30.0002 47.0856 29.9431C47.1251 29.8599 47.1585 29.7739 47.1856 29.6859L48.2571 23.9717C48.2927 23.784 48.2911 23.5913 48.2522 23.4043C48.2133 23.2173 48.138 23.0399 48.0306 22.882C47.9231 22.7241 47.7856 22.589 47.626 22.4843C47.4663 22.3795 47.2875 22.3073 47.0999 22.2717C46.9123 22.236 46.7195 22.2377 46.5326 22.2765C46.3456 22.3154 46.1681 22.3907 46.0103 22.4981C45.6915 22.7151 45.4719 23.0499 45.3999 23.4288L45.0142 25.5002C42.6228 23.4277 39.5645 22.2866 36.3999 22.2859C32.957 22.2555 29.6426 23.5921 27.1839 26.0025C24.7253 28.4129 23.3233 31.7002 23.2856 35.1431C23.3233 38.586 24.7253 41.8733 27.1839 44.2837C29.6426 46.6941 32.957 48.0307 36.3999 48.0002C39.1901 48.0431 41.9204 47.189 44.1887 45.5636C46.457 43.9382 48.1435 41.6275 48.9999 38.9716C49.0541 38.7887 49.0711 38.5968 49.05 38.4073C49.0288 38.2177 48.9698 38.0343 48.8766 37.8678C48.7834 37.7014 48.6578 37.5553 48.5073 37.4382C48.3567 37.3211 48.1842 37.2353 47.9999 37.1859Z" fill="white"/>
</g>
<defs>
<linearGradient id="paint0_linear_1381_38626" x1="68.8327" y1="64.0977" x2="-4.60996" y2="50.6073" gradientUnits="userSpaceOnUse">
<stop stop-color="#710EDC"/>
<stop offset="1" stop-color="#A856FF"/>
</linearGradient>
<clipPath id="clip0_1381_38626">
<rect width="34.2857" height="34.2857" fill="white" transform="translate(19 18)"/>
</clipPath>
</defs>
</svg>
