<?xml version="1.0" encoding="UTF-8"?>
<svg version="1.1" xmlns="http://www.w3.org/2000/svg" width="319" height="288">
<path d="M0 0 C0.66 0 1.32 0 2 0 C2.91345146 3.72747129 3.10309695 7.30186146 3.18969727 11.13037109 C3.39139534 18.63811255 3.70684384 23.29967799 9 29 C9 29.99 9 30.98 9 32 C9.66 32 10.32 32 11 32 C24.43044302 54.79371484 33.55418734 80.90199209 32.9296875 107.71875 C32.20929648 118.74051145 32.20929648 118.74051145 36.44140625 128.37109375 C38.42659609 130.07157579 40.4305236 131.7504416 42.453125 133.40625 C47.4797927 138.52543305 46.91734132 145.23952207 47 152 C47.03125977 153.03995117 47.06251953 154.07990234 47.09472656 155.15136719 C47.53175252 170.07389416 47.0280949 184.36420797 44 199 C39.85799271 197.18134554 38.25198329 194.94097076 36 191 C36 190.01 36 189.02 36 188 C35.34 188 34.68 188 34 188 C32.2566021 185.71768011 30.61325344 183.43398256 29 181.0625 C26.1324978 176.36009682 26.1324978 176.36009682 22 173 C21.81824219 173.95712891 21.81824219 173.95712891 21.6328125 174.93359375 C21.46523437 175.75988281 21.29765625 176.58617187 21.125 177.4375 C20.96257812 178.26121094 20.80015625 179.08492187 20.6328125 179.93359375 C20.42398438 180.61550781 20.21515625 181.29742187 20 182 C19.34 182.33 18.68 182.66 18 183 C18.32484375 183.95519531 18.6496875 184.91039062 18.984375 185.89453125 C20.29029432 190.49639711 20.30178672 194.93108918 20.25 199.6875 C20.23876099 201.06736084 20.23876099 201.06736084 20.22729492 202.47509766 C19.987488 218.15230754 17.79945927 232.97272584 14.30078125 248.23828125 C11.29160638 261.37871499 8.92859408 274.66055761 7 288 C0.07 288 -6.86 288 -14 288 C-14.2475 285.195 -14.495 282.39 -14.75 279.5 C-15.49954486 271.62682278 -16.5985851 263.8561084 -17.9375 256.0625 C-18.11031494 255.04978027 -18.28312988 254.03706055 -18.46118164 252.99365234 C-18.80770698 250.96689146 -19.15462556 248.94019778 -19.50195312 246.91357422 C-21.63672086 234.425183 -23.23903913 222.10782446 -23.8125 209.4375 C-23.86559326 208.37934082 -23.91868652 207.32118164 -23.97338867 206.23095703 C-24.19788461 199.80482399 -23.68198374 193.89028696 -22.4440918 187.57836914 C-21.74231678 183.50390736 -21.98814487 180.52963783 -23.5 176.75 C-23.7784375 176.04359375 -24.056875 175.3371875 -24.34375 174.609375 C-24.5603125 174.07828125 -24.776875 173.5471875 -25 173 C-26.98264795 173.65589738 -26.98264795 173.65589738 -29 175 C-29.42539063 176.06541016 -29.42539063 176.06541016 -29.859375 177.15234375 C-31.27526669 180.68722402 -33.27953401 183.71810516 -35.375 186.875 C-38.42415027 191.49954457 -41.29238888 196.16586325 -44 201 C-44.99 201 -45.98 201 -47 201 C-49.68127338 185.32886823 -50.22241153 170.53057948 -49.17382812 154.70800781 C-49.06167614 152.96083107 -48.96301531 151.2127111 -48.88085938 149.46386719 C-48.2737641 136.77146 -48.2737641 136.77146 -45.23046875 132.5390625 C-43.23796763 130.78684445 -41.2303763 129.42659918 -39 128 C-36.55105741 125.93401844 -35.17033755 124.70650969 -34.40991211 121.55249023 C-34.36616455 120.64700439 -34.32241699 119.74151855 -34.27734375 118.80859375 C-34.21571045 117.79079834 -34.15407715 116.77300293 -34.09057617 115.72436523 C-34.01480347 114.09736694 -34.01480347 114.09736694 -33.9375 112.4375 C-33.79177938 110.166319 -33.64068591 107.89547671 -33.484375 105.625 C-33.40767578 104.5009375 -33.33097656 103.376875 -33.25195312 102.21875 C-32.21209579 88.93437105 -29.35067939 76.55705069 -25 64 C-24.63132813 62.81921875 -24.26265625 61.6384375 -23.8828125 60.421875 C-19.59687075 47.23890933 -12.05953674 36.16279326 -4 25 C-1.88873191 21.83309787 -1.66516888 20.57672971 -1.3671875 16.89453125 C-1.28339844 15.91162109 -1.19960937 14.92871094 -1.11328125 13.91601562 C-1.03464844 12.89185547 -0.95601562 11.86769531 -0.875 10.8125 C-0.78863281 9.77673828 -0.70226562 8.74097656 -0.61328125 7.67382812 C-0.40114551 5.11641392 -0.19703581 2.55861459 0 0 Z " fill="#BB1A1C" transform="translate(153,0)"/>
<path d="M0 0 C0.66 0.33 1.32 0.66 2 1 C2 4.96 2 8.92 2 13 C2.66 13 3.32 13 4 13 C4.02505615 13.62044189 4.0501123 14.24088379 4.07592773 14.88012695 C4.19196721 17.69112397 4.31465759 20.50179241 4.4375 23.3125 C4.47681641 24.28896484 4.51613281 25.26542969 4.55664062 26.27148438 C4.59853516 27.20927734 4.64042969 28.14707031 4.68359375 29.11328125 C4.73858032 30.40939331 4.73858032 30.40939331 4.79467773 31.73168945 C4.92747354 34.1647826 4.92747354 34.1647826 6 37 C6.39076625 39.32748366 6.73913611 41.66219884 7.0625 44 C7.2020813 45.00051392 7.2020813 45.00051392 7.34448242 46.02124023 C7.87441897 50.09711164 8.01547792 53.96347373 7.8125 58.0625 C7.66571469 63.31586889 9.61507649 65.02271488 13 69 C13.84400005 74.1213595 13.60238392 78.46411798 11 83 C10.34 83 9.68 83 9 83 C8.938125 83.598125 8.87625 84.19625 8.8125 84.8125 C8 87 8 87 5.9375 88.75 C3 90 3 90 -5 90 C-5.33 97.92 -5.66 105.84 -6 114 C-5.01 113.67 -4.02 113.34 -3 113 C-3.16113281 114.00546875 -3.32226562 115.0109375 -3.48828125 116.046875 C-4.000858 120.10812881 -4.07756462 124.11122094 -4.10546875 128.203125 C-4.12770508 130.16765625 -4.12770508 130.16765625 -4.15039062 132.171875 C-4.17332774 134.2219101 -4.18737874 136.2701632 -4.17504883 138.3203125 C-4.16624431 140.32298252 -4.19782055 142.32570177 -4.23046875 144.328125 C-4.23457764 145.5130957 -4.23868652 146.69806641 -4.24291992 147.91894531 C-5 151 -5 151 -7.7980957 153.41699219 C-11 155 -11 155 -15 155 C-15 155.66 -15 156.32 -15 157 C-13.82630859 157.07347656 -13.82630859 157.07347656 -12.62890625 157.1484375 C-11.11103516 157.26058594 -11.11103516 157.26058594 -9.5625 157.375 C-8.55316406 157.44460937 -7.54382813 157.51421875 -6.50390625 157.5859375 C-5.67761719 157.72257813 -4.85132813 157.85921875 -4 158 C-2.55792059 160.88415883 -2.90605113 163.41721528 -2.9375 166.625 C-2.94652344 167.81351563 -2.95554688 169.00203125 -2.96484375 170.2265625 C-2.97644531 171.14179688 -2.98804688 172.05703125 -3 173 C-4.58367747 172.85795259 -6.16693318 172.71119847 -7.75 172.5625 C-8.63171875 172.48128906 -9.5134375 172.40007812 -10.421875 172.31640625 C-12.71590734 172.03486592 -14.81219226 171.74405173 -17 171 C-17.33 170.34 -17.66 169.68 -18 169 C-18.99 168.67 -19.98 168.34 -21 168 C-21.87890625 165.96875 -21.87890625 165.96875 -22.5625 163.5 C-23.20384717 161.08504595 -23.20384717 161.08504595 -24 159 C-24.66 158.67 -25.32 158.34 -26 158 C-26.33 159.65 -26.66 161.3 -27 163 C-27.66 163 -28.32 163 -29 163 C-29.23976563 163.68320313 -29.47953125 164.36640625 -29.7265625 165.0703125 C-31.25623088 168.58948821 -33.2607507 171.68980743 -35.375 174.875 C-38.42415027 179.49954457 -41.29238888 184.16586325 -44 189 C-44.99 189 -45.98 189 -47 189 C-49.68127338 173.32886823 -50.22241153 158.53057948 -49.17382812 142.70800781 C-49.06167614 140.96083107 -48.96301531 139.2127111 -48.88085938 137.46386719 C-48.2737641 124.77146 -48.2737641 124.77146 -45.23046875 120.5390625 C-43.23796763 118.78684445 -41.2303763 117.42659918 -39 116 C-36.55105741 113.93401844 -35.17033755 112.70650969 -34.40991211 109.55249023 C-34.36616455 108.64700439 -34.32241699 107.74151855 -34.27734375 106.80859375 C-34.21571045 105.79079834 -34.15407715 104.77300293 -34.09057617 103.72436523 C-34.01480347 102.09736694 -34.01480347 102.09736694 -33.9375 100.4375 C-33.79177938 98.166319 -33.64068591 95.89547671 -33.484375 93.625 C-33.40767578 92.5009375 -33.33097656 91.376875 -33.25195312 90.21875 C-32.21209579 76.93437105 -29.35067939 64.55705069 -25 52 C-24.63132813 50.81921875 -24.26265625 49.6384375 -23.8828125 48.421875 C-20.8474453 39.08550417 -16.36799815 31.14921682 -11 23 C-10.42636719 22.12472656 -9.85273438 21.24945313 -9.26171875 20.34765625 C-6.22279491 16.00521469 -5.29779156 15.11911662 0 13 C0 8.71 0 4.42 0 0 Z " fill="#5E1212" transform="translate(153,12)"/>
<path d="M0 0 C0.99 0.33 1.98 0.66 3 1 C3.73046875 3.06640625 3.73046875 3.06640625 4.1875 5.5625 C4.34605469 6.38878906 4.50460938 7.21507812 4.66796875 8.06640625 C4.77753906 8.70449219 4.88710937 9.34257812 5 10 C6.32 10.33 7.64 10.66 9 11 C9.33 13.64 9.66 16.28 10 19 C10.9590625 19.2165625 10.9590625 19.2165625 11.9375 19.4375 C14 20 14 20 15 21 C16.32781878 21.20604085 17.66295895 21.3662959 19 21.5 C22.88888889 21.88888889 22.88888889 21.88888889 24 23 C24.04092937 25.33297433 24.04241723 27.66705225 24 30 C24.66 30 25.32 30 26 30 C26 27.69 26 25.38 26 23 C27.134375 22.525625 28.26875 22.05125 29.4375 21.5625 C32.75740166 20.36377917 32.75740166 20.36377917 34 19 C35.66617115 18.95936168 37.33388095 18.957279 39 19 C38.505 17.02 38.505 17.02 38 15 C38.99 14.67 39.98 14.34 41 14 C41.33 13.01 41.66 12.02 42 11 C42.99 11 43.98 11 45 11 C45.33 9.35 45.66 7.7 46 6 C47 9 47 9 46 12 C45.34 12.33 44.68 12.66 44 13 C44.48726562 14.43279297 44.48726562 14.43279297 44.984375 15.89453125 C46.29029432 20.49639711 46.30178672 24.93108918 46.25 29.6875 C46.23876099 31.06736084 46.23876099 31.06736084 46.22729492 32.47509766 C45.987488 48.15230754 43.79945927 62.97272584 40.30078125 78.23828125 C37.29160638 91.37871499 34.92859408 104.66055761 33 118 C26.07 118 19.14 118 12 118 C11.7525 115.195 11.505 112.39 11.25 109.5 C10.50045514 101.62682278 9.4014149 93.8561084 8.0625 86.0625 C7.88968506 85.04978027 7.71687012 84.03706055 7.53881836 82.99365234 C7.19229302 80.96689146 6.84537444 78.94019778 6.49804688 76.91357422 C4.36327914 64.425183 2.76096087 52.10782446 2.1875 39.4375 C2.10786011 37.85026123 2.10786011 37.85026123 2.02661133 36.23095703 C1.80211539 29.80482399 2.31801626 23.89028696 3.5559082 17.57836914 C4.3715597 12.84274765 3.67631611 9.65032979 2 5.25 C1.62875 4.26515625 1.2575 3.2803125 0.875 2.265625 C0.58625 1.51796875 0.2975 0.7703125 0 0 Z " fill="#FEF85F" transform="translate(127,170)"/>
<path d="M0 0 C3.3 0 6.6 0 10 0 C12.93161919 5.62870885 13.2019586 8.77166905 12 15 C12.99 15 13.98 15 15 15 C17.52515409 23.24883668 18.93856016 31.44604363 20 40 C20.33 37.03 20.66 34.06 21 31 C21.33 31 21.66 31 22 31 C22.05032195 35.69155401 22.08614354 40.38294298 22.10986328 45.07470703 C22.11977582 46.66295109 22.13330983 48.25117765 22.15087891 49.83935547 C22.30879004 64.50651316 20.94579677 78.48550443 17.9375 92.875 C17.67743164 94.17244141 17.67743164 94.17244141 17.41210938 95.49609375 C16.14174107 101.71651786 16.14174107 101.71651786 15 104 C8.4 104 1.8 104 -5 104 C-5 100.7 -5 97.4 -5 94 C-4.34 94 -3.68 94 -3 94 C-2.53162189 92.14834522 -2.07614059 90.29342986 -1.625 88.4375 C-1.36976563 87.40496094 -1.11453125 86.37242187 -0.8515625 85.30859375 C1.80116652 72.78993664 2.37113495 60.30203017 2.625 47.5625 C2.66331552 45.9446436 2.70237427 44.32680462 2.7421875 42.70898438 C2.83665507 38.8061364 2.92119936 34.90319442 3 31 C2.34 30.67 1.68 30.34 1 30 C1.66 29.67 2.32 29.34 3 29 C4.44425466 24.66723603 4.54250936 20.52814478 4 16 C2.29659427 12.99167569 2.29659427 12.99167569 0 11 C-0.66 10.34 -1.32 9.68 -2 9 C-1.34 9 -0.68 9 0 9 C0 6.03 0 3.06 0 0 Z " fill="#FC3C3C" transform="translate(161,65)"/>
<path d="M0 0 C0.66 0 1.32 0 2 0 C2.91345146 3.72747129 3.10309695 7.30186146 3.18969727 11.13037109 C3.39139534 18.63811255 3.70684384 23.29967799 9 29 C9 29.99 9 30.98 9 32 C9.66 32 10.32 32 11 32 C24.43044302 54.79371484 33.55418734 80.90199209 32.9296875 107.71875 C32.20929648 118.74051145 32.20929648 118.74051145 36.44140625 128.37109375 C38.42659609 130.07157579 40.4305236 131.7504416 42.453125 133.40625 C47.47477489 138.52032289 46.92923929 145.24297288 47 152 C47.02594238 153.06653809 47.05188477 154.13307617 47.07861328 155.23193359 C47.68011624 181.26944786 47.68011624 181.26944786 45 194 C44.67 194 44.34 194 44 194 C44.00222061 193.38914047 44.00444122 192.77828094 44.00672913 192.14891052 C44.02890569 185.77335191 44.04395817 179.39780432 44.05493164 173.0222168 C44.05995076 170.64493362 44.06676746 168.26765352 44.07543945 165.89038086 C44.08761112 162.46727743 44.09325262 159.04421493 44.09765625 155.62109375 C44.10281754 154.56353378 44.10797882 153.50597382 44.11329651 152.41636658 C44.48677228 142.51459167 44.48677228 142.51459167 40.49609375 133.91015625 C39.49159199 132.94504671 38.47156263 131.99586739 37.4375 131.0625 C36.91736328 130.56943359 36.39722656 130.07636719 35.86132812 129.56835938 C34.58752167 128.36467071 33.29552951 127.18027648 32 126 C31.93006836 126.61818604 31.86013672 127.23637207 31.78808594 127.87329102 C30.36300858 140.2167062 28.69924661 152.1135883 25 164 C24.07065349 161.01720465 23.98375683 159.0802021 24.7421875 156.05859375 C24.92136719 155.30900391 25.10054687 154.55941406 25.28515625 153.78710938 C25.47980469 153.01173828 25.67445313 152.23636719 25.875 151.4375 C28.71872595 140.05279025 29.14795722 129.02013901 29.0625 117.3125 C29.05798828 116.12205078 29.05347656 114.93160156 29.04882812 113.70507812 C29.03717452 110.80333064 29.02081559 107.90169374 29 105 C28.01 105.495 28.01 105.495 27 106 C26.91435791 105.42556152 26.82871582 104.85112305 26.74047852 104.25927734 C26.34834457 101.63110617 25.95542857 99.00305248 25.5625 96.375 C25.42779297 95.47136719 25.29308594 94.56773438 25.15429688 93.63671875 C24.47310556 89.08436703 23.77632452 84.53735301 23 80 C22.01 80 21.02 80 20 80 C20.04125 78.80375 20.0825 77.6075 20.125 76.375 C20.13851708 72.57670047 19.42009753 69.55024382 18 66 C14.7 65.67 11.4 65.34 8 65 C6.37584853 61.38346839 5.69310728 58.32331676 5.4375 54.375 C5.23048302 51.29086955 4.98278879 48.94836636 4 46 C3.91856145 44.37280518 3.8924698 42.74248281 3.90234375 41.11328125 C3.90556641 40.17548828 3.90878906 39.23769531 3.91210938 38.27148438 C3.92048828 37.29501953 3.92886719 36.31855469 3.9375 35.3125 C3.94201172 34.32443359 3.94652344 33.33636719 3.95117188 32.31835938 C3.96295697 29.87884526 3.97940989 27.43945311 4 25 C3.34 25 2.68 25 2 25 C1.67 21.04 1.34 17.08 1 13 C1 17.29 1 21.58 1 26 C-0.65 26.33 -2.3 26.66 -4 27 C-3.68305176 26.28432861 -3.36610352 25.56865723 -3.03955078 24.83129883 C-2.00223091 22.00607606 -1.61185156 19.68761543 -1.3671875 16.69921875 C-1.28339844 15.72275391 -1.19960937 14.74628906 -1.11328125 13.74023438 C-1.03464844 12.73283203 -0.95601562 11.72542969 -0.875 10.6875 C-0.78863281 9.66076172 -0.70226562 8.63402344 -0.61328125 7.57617188 C-0.40189423 5.05127134 -0.19770649 2.52600242 0 0 Z " fill="#FD382E" transform="translate(153,0)"/>
<path d="M0 0 C0.33 0 0.66 0 1 0 C1.3 19.4 1.3 19.4 -1 24 C-1.13108021 26.2150897 -1.2028385 28.43380068 -1.24609375 30.65234375 C-1.2790284 31.99935555 -1.31224011 33.3463606 -1.34570312 34.69335938 C-1.39313742 36.81758032 -1.43757891 38.94177314 -1.47680664 41.06616211 C-1.51653331 43.11601045 -1.56807008 45.1653023 -1.62109375 47.21484375 C-1.6461499 48.44323975 -1.67120605 49.67163574 -1.69702148 50.93725586 C-2 54 -2 54 -4 57 C-4.33 55.02 -4.66 53.04 -5 51 C-10.26397785 55.30441462 -10.26397785 55.30441462 -12.4375 61.4375 C-12.293125 62.283125 -12.14875 63.12875 -12 64 C-11.34 64 -10.68 64 -10 64 C-9.87882812 64.83402344 -9.75765625 65.66804688 -9.6328125 66.52734375 C-8.7513839 72.44647579 -7.81657812 78.28894462 -6.3671875 84.09765625 C-6 86 -6 86 -6 90 C-5.34 90 -4.68 90 -4 90 C-3.67 92.31 -3.34 94.62 -3 97 C-1.68 97 -0.36 97 1 97 C1.495 97.99 1.495 97.99 2 99 C1.67 99.66 1.34 100.32 1 101 C0.34 101 -0.32 101 -1 101 C-1.23976563 101.68320313 -1.47953125 102.36640625 -1.7265625 103.0703125 C-3.25623088 106.58948821 -5.2607507 109.68980743 -7.375 112.875 C-10.42415027 117.49954457 -13.29238888 122.16586325 -16 127 C-16.99 127 -17.98 127 -19 127 C-21.68127338 111.32886823 -22.22241153 96.53057948 -21.17382812 80.70800781 C-21.06167614 78.96083107 -20.96301531 77.2127111 -20.88085938 75.46386719 C-20.2737641 62.77146 -20.2737641 62.77146 -17.23046875 58.5390625 C-15.23796763 56.78684445 -13.2303763 55.42659918 -11 54 C-8.55105741 51.93401844 -7.17033755 50.70650969 -6.40991211 47.55249023 C-6.36616455 46.64700439 -6.32241699 45.74151855 -6.27734375 44.80859375 C-6.21546875 43.78999268 -6.15359375 42.7713916 -6.08984375 41.72192383 C-6.03957031 40.63806396 -5.98929688 39.5542041 -5.9375 38.4375 C-5.42994212 30.33243518 -4.7935083 22.33321615 -3.5 14.3125 C-3.38132568 13.55445068 -3.26265137 12.79640137 -3.14038086 12.01538086 C-2.44596896 7.85410223 -1.44749362 3.96188988 0 0 Z " fill="#B21919" transform="translate(125,74)"/>
<path d="M0 0 C0.66 0 1.32 0 2 0 C2.56998606 34.47684932 2.56998606 34.47684932 0.6875 47.1875 C0.56979248 47.98502686 0.45208496 48.78255371 0.33081055 49.60424805 C-0.53005879 54.68299156 -2.07007385 59.22654121 -4 64 C-4.33 64 -4.66 64 -5 64 C-5.33 52.78 -5.66 41.56 -6 30 C-6.04898438 33.279375 -6.09796875 36.55875 -6.1484375 39.9375 C-6.20268461 43.16800911 -6.25989809 46.39845331 -6.31738281 49.62890625 C-6.3553038 51.84760559 -6.39021558 54.06635873 -6.421875 56.28515625 C-6.93669872 91.93669872 -6.93669872 91.93669872 -11 96 C-12.09315246 91.4161086 -12.32282625 86.87488993 -12.5625 82.1875 C-12.62727539 81.00510742 -12.62727539 81.00510742 -12.69335938 79.79882812 C-12.79878321 77.86605785 -12.89983094 75.93304974 -13 74 C-14.10472656 74.0103125 -15.20945313 74.020625 -16.34765625 74.03125 C-19.21726975 74.00669716 -21.3113584 73.86036531 -24 73 C-24 72.34 -24 71.68 -24 71 C-17.375 68.125 -17.375 68.125 -14 67 C-14.00523682 66.12786865 -14.01047363 65.2557373 -14.01586914 64.35717773 C-14.03300245 61.09382454 -14.04549445 57.83051977 -14.05493164 54.56713867 C-14.0599327 53.15990439 -14.0667357 51.75267523 -14.07543945 50.34545898 C-14.08769159 48.31232431 -14.0932707 46.27925886 -14.09765625 44.24609375 C-14.10289307 43.02591553 -14.10812988 41.8057373 -14.11352539 40.54858398 C-13.99887643 36.96487943 -13.57327963 33.53687745 -13 30 C-13.99 30 -14.98 30 -16 30 C-15.86076462 26.74968216 -15.71245815 23.49983939 -15.5625 20.25 C-15.50352539 18.86941406 -15.50352539 18.86941406 -15.44335938 17.4609375 C-15.40146484 16.57148437 -15.35957031 15.68203125 -15.31640625 14.765625 C-15.27974854 13.94868164 -15.24309082 13.13173828 -15.20532227 12.29003906 C-15.00865725 10.0965577 -14.59699406 8.11603587 -14 6 C-12.783125 5.896875 -11.56625 5.79375 -10.3125 5.6875 C-6.58609755 5.22500324 -4.04120544 4.30394352 -1 2 C-0.67 1.34 -0.34 0.68 0 0 Z " fill="#7E0909" transform="translate(162,96)"/>
<path d="M0 0 C0.66 0.33 1.32 0.66 2 1 C2 4.96 2 8.92 2 13 C2.66 13 3.32 13 4 13 C4.02505615 13.62044189 4.0501123 14.24088379 4.07592773 14.88012695 C4.19196721 17.69112397 4.31465759 20.50179241 4.4375 23.3125 C4.47681641 24.28896484 4.51613281 25.26542969 4.55664062 26.27148438 C4.59853516 27.20927734 4.64042969 28.14707031 4.68359375 29.11328125 C4.72025146 29.97735596 4.75690918 30.84143066 4.79467773 31.73168945 C4.92747354 34.1647826 4.92747354 34.1647826 6 37 C6.38503552 39.72897438 6.7398891 42.45128163 7.0625 45.1875 C7.15337891 45.93708984 7.24425781 46.68667969 7.33789062 47.45898438 C7.5613731 49.30565535 7.78105513 51.15278554 8 53 C4.37 53 0.74 53 -3 53 C-3 52.34 -3 51.68 -3 51 C-9.27 50.67 -15.54 50.34 -22 50 C-23.32 53.96 -24.64 57.92 -26 62 C-26.33 62 -26.66 62 -27 62 C-25.03076829 45.8974282 -17.07142712 26.35157138 -5 15 C-3.35 14.34 -1.7 13.68 0 13 C0 8.71 0 4.42 0 0 Z " fill="#262727" transform="translate(153,12)"/>
<path d="M0 0 C0.99 0.33 1.98 0.66 3 1 C3.73046875 3.06640625 3.73046875 3.06640625 4.1875 5.5625 C4.34605469 6.38878906 4.50460938 7.21507812 4.66796875 8.06640625 C4.77753906 8.70449219 4.88710937 9.34257812 5 10 C6.32 10.33 7.64 10.66 9 11 C9.77763386 14.80176555 9.94115066 17.29349835 9 21 C8.77678172 24.74706583 8.81485449 28.49693586 8.8125 32.25 C8.80025391 33.26191406 8.78800781 34.27382812 8.77539062 35.31640625 C8.76375948 41.2948157 9.41125859 46.25336287 11 52 C11.54327786 55.56181102 11.86242015 59.14721102 12.2109375 62.73242188 C12.57416928 66.17372986 13.05810844 69.19455566 14.0546875 72.53125 C15.12859351 76.4718638 15.1971431 79.8614146 15.125 83.9375 C15.11146484 84.96327148 15.11146484 84.96327148 15.09765625 86.00976562 C15.07438958 87.67333287 15.03853167 89.33671631 15 91 C15.66 91 16.32 91 17 91 C17.33808357 94.37454164 17.66961318 97.74969681 18 101.125 C18.09539062 102.07632813 18.19078125 103.02765625 18.2890625 104.0078125 C18.74437277 108.69100382 19.12693246 113.2876326 19 118 C16.69 118 14.38 118 12 118 C11.90203125 116.8346875 11.8040625 115.669375 11.703125 114.46875 C10.8509945 104.92745563 9.68465676 95.50481368 8.0625 86.0625 C7.88968506 85.04978027 7.71687012 84.03706055 7.53881836 82.99365234 C7.19229302 80.96689146 6.84537444 78.94019778 6.49804688 76.91357422 C4.36327914 64.425183 2.76096087 52.10782446 2.1875 39.4375 C2.10786011 37.85026123 2.10786011 37.85026123 2.02661133 36.23095703 C1.80211539 29.80482399 2.31801626 23.89028696 3.5559082 17.57836914 C4.3715597 12.84274765 3.67631611 9.65032979 2 5.25 C1.62875 4.26515625 1.2575 3.2803125 0.875 2.265625 C0.58625 1.51796875 0.2975 0.7703125 0 0 Z " fill="#FEFDD5" transform="translate(127,170)"/>
<path d="M0 0 C1 3 1 3 0 6 C-0.99 6.495 -0.99 6.495 -2 7 C-1.51273438 8.43279297 -1.51273438 8.43279297 -1.015625 9.89453125 C0.29029432 14.49639711 0.30178672 18.93108918 0.25 23.6875 C0.23876099 25.06736084 0.23876099 25.06736084 0.22729492 26.47509766 C-0.012512 42.15230754 -2.20054073 56.97272584 -5.69921875 72.23828125 C-8.70677251 85.37163594 -11.11892198 98.65919667 -13 112 C-15.31 112 -17.62 112 -20 112 C-19.3890399 107.36492769 -18.55749639 102.86502198 -17.5 98.3125 C-16.49080958 93.74203185 -15.78668186 89.35802533 -15.5 84.6875 C-15.20640867 80.23078368 -14.35960309 76.61484722 -12.8203125 72.4453125 C-11.02700141 67.09953754 -10.09638384 61.52127654 -9 56 C-8.57654297 54.10121094 -8.57654297 54.10121094 -8.14453125 52.1640625 C-6.3115266 43.53000773 -5.71617539 35.14051792 -5.6875 26.3125 C-5.68210205 25.28463379 -5.6767041 24.25676758 -5.67114258 23.19775391 C-5.71966079 18.08351249 -5.95584644 13.78055036 -8 9 C-7.01 8.67 -6.02 8.34 -5 8 C-4.67 7.01 -4.34 6.02 -4 5 C-3.01 5 -2.02 5 -1 5 C-0.67 3.35 -0.34 1.7 0 0 Z " fill="#FFFEF7" transform="translate(173,176)"/>
<path d="M0 0 C3.48118905 2.00579895 6.19314642 4.38629285 8 8 C8.12148305 9.62165752 8.17543652 11.24884327 8.1875 12.875 C8.20167969 13.73867187 8.21585938 14.60234375 8.23046875 15.4921875 C7.97915015 18.22687466 7.52380209 19.72388053 6 22 C1.91172057 25.36224249 -2.3998594 27.45635129 -7.75 27.1875 C-10.95274438 26.59398443 -12.79048818 25.71248698 -15 23.3125 C-16.9866303 20.02214357 -17.72851841 17.80074232 -18 14 C-17.34 14 -16.68 14 -16 14 C-16 13.34 -16 12.68 -16 12 C-16.66 12 -17.32 12 -18 12 C-17.82977281 7.65920659 -17.38777751 5.47961956 -14.625 2.0625 C-10.22857281 -1.11564014 -5.15757244 -1.08226918 0 0 Z " fill="#B59596" transform="translate(158,73)"/>
<path d="M0 0 C2 2 2 2 2.24291992 5.09765625 C2.23675659 7.06025391 2.23675659 7.06025391 2.23046875 9.0625 C2.22978142 10.12138428 2.22978142 10.12138428 2.2290802 11.20166016 C2.22605496 12.70135164 2.21816055 14.20103991 2.20581055 15.70068359 C2.18779199 17.96333351 2.18529937 20.22556775 2.18554688 22.48828125 C2.16643698 30.04702893 1.93144898 37.48879543 1 45 C1.87736816 44.96072388 1.87736816 44.96072388 2.77246094 44.9206543 C5.43136566 44.81650244 8.08984144 44.75162228 10.75 44.6875 C11.67039063 44.64560547 12.59078125 44.60371094 13.5390625 44.56054688 C20.40898911 44.43609168 20.40898911 44.43609168 23.640625 47.51953125 C24.08921875 48.33808594 24.5378125 49.15664062 25 50 C24.505 50.99 24.505 50.99 24 52 C22.68 51.01 21.36 50.02 20 49 C18.92474806 51.65228812 17.90543849 54.28368454 17 57 C16.01 57.33 15.02 57.66 14 58 C12.25 59.25 12.25 59.25 11 61 C11 62.32 11 63.64 11 65 C7 66.33333333 3 67.66666667 -1 69 C-1.33 71.31 -1.66 73.62 -2 76 C-2.66 76 -3.32 76 -4 76 C-4.33 73.69 -4.66 71.38 -5 69 C-6.216875 68.896875 -7.43375 68.79375 -8.6875 68.6875 C-12.42933551 68.19654995 -15.09128794 67.5561409 -18 65 C-18.8125 61.8125 -18.8125 61.8125 -19 59 C-17.41632253 59.14204741 -15.83306682 59.28880153 -14.25 59.4375 C-13.36828125 59.51871094 -12.4865625 59.59992188 -11.578125 59.68359375 C-10.72734375 59.78800781 -9.8765625 59.89242187 -9 60 C-8.27296875 60.07347656 -7.5459375 60.14695313 -6.796875 60.22265625 C-5 61 -5 61 -3.88769531 63.54858398 C-3.59475586 64.35755127 -3.30181641 65.16651855 -3 66 C-0.75523023 52.03019897 -0.56795401 38.12182188 -0.375 24 C-0.336727 21.66404943 -0.29767023 19.32811157 -0.2578125 16.9921875 C-0.16284902 11.32823955 -0.07752186 5.66421215 0 0 Z " fill="#E66953" transform="translate(155,124)"/>
<path d="M0 0 C1.134375 0.020625 2.26875 0.04125 3.4375 0.0625 C3.4375 2.3725 3.4375 4.6825 3.4375 7.0625 C4.0975 7.0625 4.7575 7.0625 5.4375 7.0625 C5.4375 4.7525 5.4375 2.4425 5.4375 0.0625 C8.0775 0.0625 10.7175 0.0625 13.4375 0.0625 C14.01623469 19.73947942 14.01623469 19.73947942 10.4375 28.0625 C9.963125 29.196875 9.48875 30.33125 9 31.5 C7.40799803 34.11088322 6.01705357 35.46139778 3.4375 37.0625 C3.4375 36.0725 3.4375 35.0825 3.4375 34.0625 C2.4475 34.0625 1.4575 34.0625 0.4375 34.0625 C-0.21506456 32.35672658 -0.85923041 30.64773911 -1.5 28.9375 C-1.85964844 27.98617187 -2.21929687 27.03484375 -2.58984375 26.0546875 C-4.46972272 20.271606 -4.72035207 14.76740396 -4.6875 8.75 C-4.69136719 8.02232422 -4.69523438 7.29464844 -4.69921875 6.54492188 C-4.68717273 0.0822311 -4.68717273 0.0822311 0 0 Z " fill="#FEF5C8" transform="translate(147.5625,192.9375)"/>
<path d="M0 0 C0.66 0 1.32 0 2 0 C2.56998606 34.47684932 2.56998606 34.47684932 0.6875 47.1875 C0.56979248 47.98502686 0.45208496 48.78255371 0.33081055 49.60424805 C-0.53005879 54.68299156 -2.07007385 59.22654121 -4 64 C-4.33 64 -4.66 64 -5 64 C-5.33 52.78 -5.66 41.56 -6 30 C-6.06058594 33.36058594 -6.12117187 36.72117188 -6.18359375 40.18359375 C-6.24550938 43.4602251 -6.3088446 46.73682617 -6.37231445 50.01342773 C-6.4154642 52.28000155 -6.45715216 54.5466037 -6.49731445 56.81323242 C-6.5555037 60.08260619 -6.6190547 63.3518399 -6.68359375 66.62109375 C-6.70030624 67.62458359 -6.71701874 68.62807343 -6.73423767 69.66197205 C-6.85555639 75.50318817 -7.26525482 81.20309583 -8 87 C-8.33 87 -8.66 87 -9 87 C-9 66.21 -9 45.42 -9 24 C-8.34 24 -7.68 24 -7 24 C-6.98582031 22.91460937 -6.97164062 21.82921875 -6.95703125 20.7109375 C-6.91010418 19.26558387 -6.86185695 17.82027269 -6.8125 16.375 C-6.80379883 15.30572266 -6.80379883 15.30572266 -6.79492188 14.21484375 C-6.5590967 8.50263406 -4.95179141 6.09314632 -1 2 C-0.67 1.34 -0.34 0.68 0 0 Z " fill="#D10F0A" transform="translate(162,96)"/>
<path d="M0 0 C0.78334702 4.8408823 1.12840375 9.48091728 1.1328125 14.3828125 C1.13479141 15.41613708 1.13479141 15.41613708 1.1368103 16.47033691 C1.13871089 18.68860516 1.13242552 20.90674481 1.125 23.125 C1.12411377 23.87867859 1.12322754 24.63235718 1.12231445 25.40887451 C1.10542125 37.62818595 0.78505967 49.80353734 0 62 C-4.14200729 60.18134554 -5.74801671 57.94097076 -8 54 C-8 53.01 -8 52.02 -8 51 C-8.66 51 -9.32 51 -10 51 C-11.7265625 48.8125 -11.7265625 48.8125 -13.625 46 C-14.57246094 44.6078125 -14.57246094 44.6078125 -15.5390625 43.1875 C-16.02117187 42.465625 -16.50328125 41.74375 -17 41 C-16.67 40.34 -16.34 39.68 -16 39 C-15.01 40.32 -14.02 41.64 -13 43 C-10.81317086 41.2885685 -10.05584122 40.22336488 -9.375 37.5 C-9.1590006 35.48400564 -8.9567426 33.46622 -8.79296875 31.4453125 C-8.38831787 26.49348314 -7.86284114 21.83425713 -6.5390625 17.04296875 C-5.69028084 13.82620929 -5.09404277 10.56246994 -4.46484375 7.296875 C-4.31144531 6.53890625 -4.15804687 5.7809375 -4 5 C-3.85691406 4.26265625 -3.71382812 3.5253125 -3.56640625 2.765625 C-3.37949219 2.18296875 -3.19257813 1.6003125 -3 1 C-1 0 -1 0 0 0 Z " fill="#FA3F39" transform="translate(197,137)"/>
<path d="M0 0 C1.42695918 4.9754152 1.79138146 10.14956891 2.40234375 15.2734375 C2.88911483 18.95360112 2.88911483 18.95360112 4.05859375 22.171875 C4.98437673 24.95306536 5.21307154 26.9686391 5.125 29.875 C5.10695313 30.65617187 5.08890625 31.43734375 5.0703125 32.2421875 C5.03550781 33.11230469 5.03550781 33.11230469 5 34 C5.66 34 6.32 34 7 34 C8.59138085 38.17737474 9.21278058 41.53160785 9 46 C8.34 46 7.68 46 7 46 C7 48.64 7 51.28 7 54 C6.38125 53.79375 5.7625 53.5875 5.125 53.375 C4.073125 53.189375 4.073125 53.189375 3 53 C2.34 53.66 1.68 54.32 1 55 C0.34 51.04 -0.32 47.08 -1 43 C-1.33 47.29 -1.66 51.58 -2 56 C-4 54 -4 54 -4.24291992 51.26049805 C-4.23881104 50.10590088 -4.23470215 48.95130371 -4.23046875 47.76171875 C-4.22942139 46.47547607 -4.22837402 45.1892334 -4.22729492 43.86401367 C-4.2148642 42.47183475 -4.20158301 41.07966319 -4.1875 39.6875 C-4.17863236 38.27905373 -4.16992531 36.87060644 -4.16137695 35.4621582 C-4.09847706 27.20267208 -3.98122656 18.94217808 -3.6875 10.6875 C-3.66518311 9.82406982 -3.64286621 8.96063965 -3.61987305 8.07104492 C-3.51171875 5.69921875 -3.51171875 5.69921875 -3 2 C-2.01 1.34 -1.02 0.68 0 0 Z " fill="#F42828" transform="translate(109,133)"/>
<path d="M0 0 C1.75648286 2.63472428 2.44403845 4.1084096 3.21875 7.0625 C3.42790039 7.85398437 3.63705078 8.64546875 3.85253906 9.4609375 C4.06620117 10.29882812 4.27986328 11.13671875 4.5 12 C4.72139648 12.85851562 4.94279297 13.71703125 5.17089844 14.6015625 C8.11600322 26.18943394 10.20919786 37.71624611 9.9296875 49.71875 C9.20929648 60.74051145 9.20929648 60.74051145 13.44140625 70.37109375 C15.42659609 72.07157579 17.4305236 73.7504416 19.453125 75.40625 C24.47477489 80.52032289 23.92923929 87.24297288 24 94 C24.02594238 95.06653809 24.05188477 96.13307617 24.07861328 97.23193359 C24.68011624 123.26944786 24.68011624 123.26944786 22 136 C21.67 136 21.34 136 21 136 C21.00333092 135.08371071 21.00333092 135.08371071 21.00672913 134.14891052 C21.02890569 127.77335191 21.04395817 121.39780432 21.05493164 115.0222168 C21.05995076 112.64493362 21.06676746 110.26765352 21.07543945 107.89038086 C21.08761112 104.46727743 21.09325262 101.04421493 21.09765625 97.62109375 C21.10281754 96.56353378 21.10797882 95.50597382 21.11329651 94.41636658 C21.48677228 84.51459167 21.48677228 84.51459167 17.49609375 75.91015625 C16.49159199 74.94504671 15.47156263 73.99586739 14.4375 73.0625 C13.91736328 72.56943359 13.39722656 72.07636719 12.86132812 71.56835938 C11.58752167 70.36467071 10.29552951 69.18027648 9 68 C8.93006836 68.61818604 8.86013672 69.23637207 8.78808594 69.87329102 C7.36300858 82.2167062 5.69924661 94.1135883 2 106 C1.07065349 103.01720465 0.98375683 101.0802021 1.7421875 98.05859375 C1.92136719 97.30900391 2.10054687 96.55941406 2.28515625 95.78710938 C2.47980469 95.01173828 2.67445313 94.23636719 2.875 93.4375 C5.71872595 82.05279025 6.14795722 71.02013901 6.0625 59.3125 C6.05798828 58.12205078 6.05347656 56.93160156 6.04882812 55.70507812 C6.03717452 52.80333064 6.02081559 49.90169374 6 47 C5.67 47 5.34 47 5 47 C4.89042969 45.89527344 4.78085938 44.79054687 4.66796875 43.65234375 C3.61869062 33.29269665 2.38807764 22.9714742 0.96557617 12.65600586 C0.84029541 11.73053955 0.71501465 10.80507324 0.5859375 9.8515625 C0.4729834 9.03510254 0.3600293 8.21864258 0.24365234 7.37744141 C-0.01005958 4.90184352 -0.04145574 2.48679149 0 0 Z " fill="#E78A5B" transform="translate(176,58)"/>
<path d="M0 0 C0.99 0.33 1.98 0.66 3 1 C3.73046875 3.06640625 3.73046875 3.06640625 4.1875 5.5625 C4.34605469 6.38878906 4.50460938 7.21507812 4.66796875 8.06640625 C4.77753906 8.70449219 4.88710937 9.34257812 5 10 C5.99 10 6.98 10 8 10 C8.17285919 12.9386063 8.01412195 14.96086876 7.0065918 17.75268555 C5.90973235 21.29120785 5.75652538 24.13453774 5.76953125 27.83203125 C5.77146484 29.12560547 5.77339844 30.41917969 5.77539062 31.75195312 C5.78159424 32.41976807 5.78779785 33.08758301 5.79418945 33.77563477 C5.81235632 35.79651668 5.81469925 37.81693576 5.81445312 39.83789062 C5.8448552 46.63782149 6.0734168 53.26188694 7 60 C7.66 60 8.32 60 9 60 C10.72671046 73.21220364 12.30612275 86.43446805 13.6875 99.6875 C13.81874268 100.93362061 13.94998535 102.17974121 14.08520508 103.46362305 C14.26539185 105.21993042 14.26539185 105.21993042 14.44921875 107.01171875 C14.55580811 108.04772217 14.66239746 109.08372559 14.7722168 110.15112305 C14.98267556 112.78332379 15.04273538 115.36101423 15 118 C14.01 118 13.02 118 12 118 C11.90203125 116.8346875 11.8040625 115.669375 11.703125 114.46875 C10.8509945 104.92745563 9.68465676 95.50481368 8.0625 86.0625 C7.88968506 85.04978027 7.71687012 84.03706055 7.53881836 82.99365234 C7.19229302 80.96689146 6.84537444 78.94019778 6.49804688 76.91357422 C4.36327914 64.425183 2.76096087 52.10782446 2.1875 39.4375 C2.10786011 37.85026123 2.10786011 37.85026123 2.02661133 36.23095703 C1.80211539 29.80482399 2.31801626 23.89028696 3.5559082 17.57836914 C4.3715597 12.84274765 3.67631611 9.65032979 2 5.25 C1.62875 4.26515625 1.2575 3.2803125 0.875 2.265625 C0.58625 1.51796875 0.2975 0.7703125 0 0 Z " fill="#FFFEF7" transform="translate(127,170)"/>
<path d="M0 0 C0.08636719 1.26070313 0.17273438 2.52140625 0.26171875 3.8203125 C1.1110282 14.77260155 2.6582211 25.17441438 5.4987793 35.80126953 C7.16311611 42.31977112 7.16311611 42.31977112 6.265625 46.0625 C5 48 5 48 3 49 C3 48.34 3 47.68 3 47 C2.34 47 1.68 47 1 47 C0.67 44.69 0.34 42.38 0 40 C-0.66 40 -1.32 40 -2 40 C-4.25824035 31.32210784 -5.57483041 22.95788336 -6 14 C-6.66 14 -7.32 14 -8 14 C-9 11.5 -9 11.5 -9 8 C-2.83512545 0 -2.83512545 0 0 0 Z " fill="#4B0404" transform="translate(121,124)"/>
<path d="M0 0 C0.66 0 1.32 0 2 0 C2.91345146 3.72747129 3.10309695 7.30186146 3.18969727 11.13037109 C3.39139534 18.63811255 3.70684384 23.29967799 9 29 C9 29.99 9 30.98 9 32 C9.66 32 10.32 32 11 32 C12.6875 34.375 12.6875 34.375 14 37 C13.67 37.66 13.34 38.32 13 39 C12.34 38.67 11.68 38.34 11 38 C11 46.25 11 54.5 11 63 C9.68 63 8.36 63 7 63 C5.73432976 59.20298927 5.58048321 55.56927687 5.28125 51.59375 C5.08068739 48.88853697 5.08068739 48.88853697 4 46 C3.91856145 44.37280518 3.8924698 42.74248281 3.90234375 41.11328125 C3.90556641 40.17548828 3.90878906 39.23769531 3.91210938 38.27148438 C3.92048828 37.29501953 3.92886719 36.31855469 3.9375 35.3125 C3.94201172 34.32443359 3.94652344 33.33636719 3.95117188 32.31835938 C3.96295697 29.87884526 3.97940989 27.43945311 4 25 C3.34 25 2.68 25 2 25 C1.67 21.04 1.34 17.08 1 13 C1 17.29 1 21.58 1 26 C-0.65 26.33 -2.3 26.66 -4 27 C-3.68305176 26.28432861 -3.36610352 25.56865723 -3.03955078 24.83129883 C-2.00223091 22.00607606 -1.61185156 19.68761543 -1.3671875 16.69921875 C-1.28339844 15.72275391 -1.19960937 14.74628906 -1.11328125 13.74023438 C-1.03464844 12.73283203 -0.95601562 11.72542969 -0.875 10.6875 C-0.78863281 9.66076172 -0.70226562 8.63402344 -0.61328125 7.57617188 C-0.40189423 5.05127134 -0.19770649 2.52600242 0 0 Z " fill="#BFBFBE" transform="translate(153,0)"/>
<path d="M0 0 C4.74761601 0.3963854 6.99723126 2.08580923 10.0625 5.6875 C10.63690467 10.20067952 9.82028736 14.23471644 9.0625 18.6875 C-2.35193034 19.58995862 -2.35193034 19.58995862 -5.9140625 17.5625 C-8.06061301 15.15233803 -8.91193681 12.81020332 -9.5625 9.6875 C-8.35461648 3.8896591 -5.85039304 1.0214972 0 0 Z " fill="#283A46" transform="translate(151.9375,76.3125)"/>
<path d="M0 0 C2.5 0.125 2.5 0.125 3.5 1.125 C3.54063832 2.79117115 3.542721 4.45888095 3.5 6.125 C4.16 6.125 4.82 6.125 5.5 6.125 C5.5 4.475 5.5 2.825 5.5 1.125 C8.51031744 0.19076355 9.36650268 0.08050089 12.5 1.125 C12.64285714 9.69642857 12.64285714 9.69642857 11.5 13.125 C10.84 13.125 10.18 13.125 9.5 13.125 C9.5 14.115 9.5 15.105 9.5 16.125 C6.8125 18.4375 6.8125 18.4375 3.5 20.125 C0.75 19.6875 0.75 19.6875 -1.5 18.125 C-3.45446179 14.30399339 -3.74517609 11.13254383 -3.6875 6.875 C-3.68105469 5.81796875 -3.67460937 4.7609375 -3.66796875 3.671875 C-3.44407136 0.27696574 -3.39637782 0.16981889 0 0 Z " fill="#FEFCF1" transform="translate(147.5,193.875)"/>
<path d="M0 0 C0.33 0 0.66 0 1 0 C1 14.85 1 29.7 1 45 C1.33 40.38 1.66 35.76 2 31 C4.29633824 34.44450737 4.54016485 36.93812283 5 41 C5.66 41 6.32 41 7 41 C7.33 41.99 7.66 42.98 8 44 C8.99 44.33 9.98 44.66 11 45 C11 42.36 11 39.72 11 37 C12.485 36.505 12.485 36.505 14 36 C14.66 35.01 15.32 34.02 16 33 C16.99 33 17.98 33 19 33 C17.46907068 37.36232549 15.16585751 41.04710683 12.625 44.875 C9.57584973 49.49954457 6.70761112 54.16586325 4 59 C3.01 59 2.02 59 1 59 C-2.40530584 39.09714453 -2.17750407 20.02439222 0 0 Z " fill="#D77A7A" transform="translate(105,142)"/>
<path d="M0 0 C0.66 0.33 1.32 0.66 2 1 C2 4.96 2 8.92 2 13 C2.66 13 3.32 13 4 13 C4.02505615 13.62044189 4.0501123 14.24088379 4.07592773 14.88012695 C4.19196721 17.69112397 4.31465759 20.50179241 4.4375 23.3125 C4.47681641 24.28896484 4.51613281 25.26542969 4.55664062 26.27148438 C4.61948242 27.67817383 4.61948242 27.67817383 4.68359375 29.11328125 C4.72025146 29.97735596 4.75690918 30.84143066 4.79467773 31.73168945 C4.92747354 34.1647826 4.92747354 34.1647826 6 37 C6.22560676 39.39254576 6.40848595 41.78928123 6.5625 44.1875 C6.64628906 45.45980469 6.73007813 46.73210938 6.81640625 48.04296875 C6.87699219 49.01878906 6.93757812 49.99460938 7 51 C5.02 51 3.04 51 1 51 C0.94465088 50.04633545 0.88930176 49.0926709 0.83227539 48.11010742 C0.62577849 44.57079401 0.41391849 41.03181849 0.20043945 37.49291992 C0.10880638 35.96143128 0.01862656 34.42985497 -0.07006836 32.89819336 C-0.19783366 30.69620474 -0.3308277 28.49458468 -0.46484375 26.29296875 C-0.50343002 25.60849167 -0.5420163 24.92401459 -0.58177185 24.21879578 C-0.76604472 21.26590256 -1.05865372 18.82403885 -2 16 C-2.598125 16.804375 -3.19625 17.60875 -3.8125 18.4375 C-6 21 -6 21 -9 22 C-7.64717831 17.57258356 -5.76701112 15.63690779 -2 13 C-1.34 12.67 -0.68 12.34 0 12 C0 8.04 0 4.08 0 0 Z " fill="#6B6B6B" transform="translate(153,12)"/>
<path d="M0 0 C0.33 0 0.66 0 1 0 C0.67755851 14.70131689 -1.23261299 28.69849119 -4 43.125 C-4.37352429 45.13650953 -4.74592524 47.14822799 -5.1171875 49.16015625 C-5.47295539 51.06789564 -5.82968783 52.97545547 -6.1875 54.8828125 C-6.35419189 55.77219513 -6.52088379 56.66157776 -6.69262695 57.57791138 C-6.84948975 58.39411957 -7.00635254 59.21032776 -7.16796875 60.05126953 C-7.30485107 60.76815948 -7.4417334 61.48504944 -7.58276367 62.22366333 C-8 64 -8 64 -9 66 C-10.32 66 -11.64 66 -13 66 C-12.3890399 61.36492769 -11.55749639 56.86502198 -10.5 52.3125 C-9.49080958 47.74203185 -8.78668186 43.35802533 -8.5 38.6875 C-8.20705661 34.24061927 -7.37097098 30.63002444 -5.82421875 26.47265625 C-4.04097465 21.12292396 -3.10798587 15.52125543 -2 10 C-1.79117188 8.97003906 -1.58234375 7.94007813 -1.3671875 6.87890625 C-0.90556372 4.58704171 -0.4493441 2.29429809 0 0 Z " fill="#FFFEE5" transform="translate(166,222)"/>
<path d="M0 0 C2.5625 0.1875 2.5625 0.1875 4.5625 2.1875 C5.06079966 5.70239693 4.9427488 9.26652105 4.9375 12.8125 C4.93661377 13.87758789 4.93572754 14.94267578 4.93481445 16.04003906 C4.70989067 31.59974084 1.88824577 47.24401461 -2.4375 62.1875 C-2.7675 62.1875 -3.0975 62.1875 -3.4375 62.1875 C-3.66958397 55.62725992 -2.79848842 49.62165248 -1.5625 43.1875 C-1.38847656 42.24132812 -1.21445313 41.29515625 -1.03515625 40.3203125 C-0.24936301 36.11777383 0.58903946 31.95316036 1.65625 27.8125 C2.38671918 24.89062329 2.90739046 22.17533511 3.1875 19.1875 C3.26226562 18.424375 3.33703125 17.66125 3.4140625 16.875 C3.46304688 16.318125 3.51203125 15.76125 3.5625 15.1875 C1.09449953 16.33923355 -0.48533565 17.23533565 -2.4375 19.1875 C-2.4375 14.2375 -2.4375 9.2875 -2.4375 4.1875 C-4.7475 4.1875 -7.0575 4.1875 -9.4375 4.1875 C-9.4375 3.8575 -9.4375 3.5275 -9.4375 3.1875 C-7.9834375 2.7234375 -7.9834375 2.7234375 -6.5 2.25 C-0.01889535 0.00145349 -0.01889535 0.00145349 0 0 Z " fill="#FEF893" transform="translate(163.4375,188.8125)"/>
<path d="M0 0 C1.58367747 0.14204741 3.16693318 0.28880153 4.75 0.4375 C5.63171875 0.51871094 6.5134375 0.59992188 7.421875 0.68359375 C11.82825485 1.22437673 11.82825485 1.22437673 14 2 C15.25 4.5625 15.25 4.5625 16 7 C16.33 4.69 16.66 2.38 17 0 C17.33 0.66 17.66 1.32 18 2 C23.94 1.505 23.94 1.505 30 1 C30 2.65 30 4.3 30 6 C26 7.33333333 22 8.66666667 18 10 C17.67 12.31 17.34 14.62 17 17 C16.34 17 15.68 17 15 17 C14.67 14.69 14.34 12.38 14 10 C12.783125 9.896875 11.56625 9.79375 10.3125 9.6875 C6.57066449 9.19654995 3.90871206 8.5561409 1 6 C0.1875 2.8125 0.1875 2.8125 0 0 Z " fill="#FC822C" transform="translate(136,183)"/>
<path d="M0 0 C1.98486328 1.29638672 1.98486328 1.29638672 4 3 C4.2421875 6.2578125 4.2421875 6.2578125 3.875 10.125 C3.81441406 10.80296631 3.75382813 11.48093262 3.69140625 12.17944336 C3.27706975 16.42893134 2.53923956 20.47744037 1.47265625 24.6015625 C0.59886165 29.0355285 0.4842471 33.55312116 0.24609375 38.05859375 C0 41 0 41 -1 43 C-1.66 43 -2.32 43 -3 43 C-3 44.65 -3 46.3 -3 48 C-4.65 47.01 -6.3 46.02 -8 45 C-7.37166145 40.72986252 -6.36673661 36.75449616 -5.125 32.625 C-2.09396292 22.00107599 -1.18095048 10.9510028 0 0 Z " fill="#921513" transform="translate(184,125)"/>
<path d="M0 0 C2.25253584 0.0648636 4.50314069 0.20252325 6.75 0.375 C7.98234375 0.46523438 9.2146875 0.55546875 10.484375 0.6484375 C13.3925179 0.93925179 16.15282091 1.35884135 19 2 C19 2.66 19 3.32 19 4 C14.05 4 9.1 4 4 4 C3.54053074 6.26200249 3.08390267 8.52459925 2.63671875 10.7890625 C2.19117826 13.03589858 1.734521 15.28054579 1.26953125 17.5234375 C-0.88284161 28.29622754 -2.04726946 39.06041173 -3 50 C-3.66 50 -4.32 50 -5 50 C-5.36023351 38.83276122 -4.66697823 28.39252725 -2.73046875 17.390625 C-1.89954462 12.63010069 -1.49150408 7.87776059 -1.2109375 3.0546875 C-1 1 -1 1 0 0 Z " fill="#4C1212" transform="translate(131,61)"/>
<path d="M0 0 C0.66 0.33 1.32 0.66 2 1 C1.35546875 1.47953125 0.7109375 1.9590625 0.046875 2.453125 C-2.87111577 6.08390741 -2.66727241 9.2150239 -2.75 13.75 C-2.77964844 14.54277344 -2.80929688 15.33554688 -2.83984375 16.15234375 C-2.91027787 18.10102094 -2.95743482 20.05051495 -3 22 C-3.99 21.67 -4.98 21.34 -6 21 C-6 44.1 -6 67.2 -6 91 C-6.33 91 -6.66 91 -7 91 C-7 68.56 -7 46.12 -7 23 C-7.66 23 -8.32 23 -9 23 C-9 16.73 -9 10.46 -9 4 C-6.69 3.01 -4.38 2.02 -2 1 C-1.34 0.67 -0.68 0.34 0 0 Z " fill="#A70202" transform="translate(159,99)"/>
<path d="M0 0 C0.99 0.33 1.98 0.66 3 1 C0.03 9.91 -2.94 18.82 -6 28 C-7.98 28 -9.96 28 -12 28 C-13.32 31.96 -14.64 35.92 -16 40 C-16.33 40 -16.66 40 -17 40 C-15.36377049 26.62041496 -9.79521236 9.79521236 0 0 Z " fill="#525152" transform="translate(143,34)"/>
<path d="M0 0 C0.33 0 0.66 0 1 0 C1.3 19.4 1.3 19.4 -1 24 C-1.13108021 26.2150897 -1.2028385 28.43380068 -1.24609375 30.65234375 C-1.2790284 31.99935555 -1.31224011 33.3463606 -1.34570312 34.69335938 C-1.39313742 36.81758032 -1.43757891 38.94177314 -1.47680664 41.06616211 C-1.51653331 43.11601045 -1.56807008 45.1653023 -1.62109375 47.21484375 C-1.6461499 48.44323975 -1.67120605 49.67163574 -1.69702148 50.93725586 C-2 54 -2 54 -4 57 C-4.33 55.02 -4.66 53.04 -5 51 C-5.47050781 51.49371094 -5.94101563 51.98742187 -6.42578125 52.49609375 C-7.04839844 53.13675781 -7.67101562 53.77742188 -8.3125 54.4375 C-8.92738281 55.07558594 -9.54226562 55.71367187 -10.17578125 56.37109375 C-12 58 -12 58 -15 59 C-15 58.34 -15 57.68 -15 57 C-13.71462526 56.00912508 -12.40392363 55.050981 -11.08203125 54.109375 C-7.55052356 51.09370552 -6.39114019 49.13778845 -5.88671875 44.515625 C-5.78538677 42.42848631 -5.72057068 40.3393354 -5.6875 38.25 C-5.58274667 36.01924519 -5.4720028 33.78876416 -5.35546875 31.55859375 C-5.30438965 30.45499512 -5.25331055 29.35139648 -5.20068359 28.21435547 C-4.90831151 23.53142248 -4.2608396 18.93951479 -3.5 14.3125 C-3.38100342 13.55420898 -3.26200684 12.79591797 -3.1394043 12.01464844 C-2.44663324 7.85329971 -1.44739439 3.96161827 0 0 Z " fill="#BC7371" transform="translate(125,74)"/>
<path d="M0 0 C5.19141867 2.37116701 6.6932447 5.51990637 8.875 10.5 C9.1946875 11.17675781 9.514375 11.85351562 9.84375 12.55078125 C12.13375235 17.59874295 12.13375235 17.59874295 11 21 C10.73445312 20.43410156 10.46890625 19.86820313 10.1953125 19.28515625 C9.66550781 18.18494141 9.66550781 18.18494141 9.125 17.0625 C8.77695313 16.33160156 8.42890625 15.60070312 8.0703125 14.84765625 C7.1315023 12.83667541 7.1315023 12.83667541 5 12 C5.33 17.28 5.66 22.56 6 28 C3.03 28 0.06 28 -3 28 C-3.33 27.34 -3.66 26.68 -4 26 C-2.68 26 -1.36 26 0 26 C-0.03552979 25.2479126 -0.07105957 24.4958252 -0.10766602 23.72094727 C-0.26463293 20.33502147 -0.41367215 16.94879289 -0.5625 13.5625 C-0.61857422 12.37849609 -0.67464844 11.19449219 -0.73242188 9.97460938 C-0.78076172 8.84990234 -0.82910156 7.72519531 -0.87890625 6.56640625 C-0.94960327 5.00321655 -0.94960327 5.00321655 -1.02172852 3.40844727 C-1 1 -1 1 0 0 Z " fill="#6E6E6D" transform="translate(164,37)"/>
<path d="M0 0 C0.66 0 1.32 0 2 0 C2.73015834 44.16521867 2.73015834 44.16521867 -3 63 C-4.1647657 59.53370207 -3.78777189 57.14846656 -3.0625 53.59765625 C-1.44942087 43.92053475 -1.85960229 34.21770456 -2 24.4375 C-2.05324903 20.66537675 -2.09310581 16.89345087 -2.125 13.12109375 C-2.14159668 12.26382187 -2.15819336 11.40654999 -2.17529297 10.52330017 C-2.18189941 9.7246907 -2.18850586 8.92608124 -2.1953125 8.10327148 C-2.20578613 7.40523911 -2.21625977 6.70720673 -2.22705078 5.98802185 C-1.95991471 3.64901937 -1.15316293 2.03543875 0 0 Z " fill="#ED0D0B" transform="translate(162,96)"/>
<path d="M0 0 C1 3 1 3 0 6 C-0.99 6.495 -0.99 6.495 -2 7 C-1.67515625 7.93328125 -1.3503125 8.8665625 -1.015625 9.828125 C0.39246659 14.76888455 0.29246118 19.64758149 0.25 24.75 C0.25773438 25.69488281 0.26546875 26.63976562 0.2734375 27.61328125 C0.27085937 28.51949219 0.26828125 29.42570312 0.265625 30.359375 C0.26336914 31.17889648 0.26111328 31.99841797 0.25878906 32.84277344 C0 35 0 35 -2 38 C-2 36.68 -2 35.36 -2 34 C-2.66 34 -3.32 34 -4 34 C-4.33 37.96 -4.66 41.92 -5 46 C-5.33 46 -5.66 46 -6 46 C-5.98952637 45.09233887 -5.97905273 44.18467773 -5.96826172 43.24951172 C-5.93404613 39.86130196 -5.9090363 36.47327756 -5.89013672 33.08496094 C-5.88011895 31.62236624 -5.86650088 30.15979137 -5.84912109 28.69726562 C-5.82468561 26.58718961 -5.81347463 24.47737988 -5.8046875 22.3671875 C-5.79421387 21.09987793 -5.78374023 19.83256836 -5.77294922 18.52685547 C-5.99934833 15.01012267 -6.72776399 12.27083513 -8 9 C-7.01 8.67 -6.02 8.34 -5 8 C-4.67 7.01 -4.34 6.02 -4 5 C-3.01 5 -2.02 5 -1 5 C-0.67 3.35 -0.34 1.7 0 0 Z " fill="#FEFEEE" transform="translate(173,176)"/>
<path d="M0 0 C3.3 0 6.6 0 10 0 C13.42857143 7.28571429 13.42857143 7.28571429 13 12 C12.01 12.495 12.01 12.495 11 13 C10.71125 12.195625 10.4225 11.39125 10.125 10.5625 C9.26737432 7.8673532 9.26737432 7.8673532 7 7 C7.33 12.28 7.66 17.56 8 23 C7.34 23.33 6.68 23.66 6 24 C5.7525 22.783125 5.505 21.56625 5.25 20.3125 C4.03422348 15.40597332 1.53255341 12.53255341 -2 9 C-1.34 9 -0.68 9 0 9 C0 6.03 0 3.06 0 0 Z " fill="#F73938" transform="translate(161,65)"/>
<path d="M0 0 C0.33 0.66 0.66 1.32 1 2 C3.97 2 6.94 2 10 2 C10 4.64 10 7.28 10 10 C12.31 10 14.62 10 17 10 C14.60916205 13.01873478 13.40518636 13.92849653 9.546875 14.609375 C7.66742188 14.67898437 7.66742188 14.67898437 5.75 14.75 C4.48671875 14.80671875 3.2234375 14.8634375 1.921875 14.921875 C0.47554687 14.96054688 0.47554687 14.96054688 -1 15 C-1.02715383 13.25008666 -1.04646551 11.50005055 -1.0625 9.75 C-1.07410156 8.77546875 -1.08570313 7.8009375 -1.09765625 6.796875 C-1.01195577 4.34241322 -0.70706066 2.33831086 0 0 Z " fill="#967267" transform="translate(155,170)"/>
<path d="M0 0 C2.04119788 1.61594832 4.04072937 3.2856382 6 5 C6 5.66 6 6.32 6 7 C5.34 7 4.68 7 4 7 C3.95101562 7.80824219 3.90203125 8.61648437 3.8515625 9.44921875 C3.77679688 10.51785156 3.70203125 11.58648437 3.625 12.6875 C3.55539063 13.74324219 3.48578125 14.79898438 3.4140625 15.88671875 C3.00836114 18.93713366 2.19172601 21.18443359 1 24 C0.17198269 27.43654242 -0.18777131 30.79081576 -0.4375 34.3125 C-0.8575614 39.09473745 -1.50460752 43.43074521 -3 48 C-3.99 48.66 -4.98 49.32 -6 50 C-7.5090136 46.9819728 -6.53680774 44.85412273 -5.875 41.5625 C-5.59421234 40.13688389 -5.31433891 38.71108754 -5.03515625 37.28515625 C-4.87418457 36.47062988 -4.71321289 35.65610352 -4.54736328 34.81689453 C-3.42725838 29.05250096 -2.37680642 23.27490393 -1.3125 17.5 C-0.87124533 15.11455529 -0.42985056 12.72913649 0.01171875 10.34375 C0.34117106 8.56250467 0.67060829 6.78125654 1 5 C0.67 5 0.34 5 0 5 C0 3.35 0 1.7 0 0 Z " fill="#E72526" transform="translate(190,131)"/>
<path d="M0 0 C0.33 0 0.66 0 1 0 C0.97268799 0.6391333 0.94537598 1.2782666 0.91723633 1.93676758 C-0.1572545 14.94559531 -0.1572545 14.94559531 4.4453125 26.4140625 C6.43573858 28.09267248 8.43839688 29.75688708 10.453125 31.40625 C15.47477489 36.52032289 14.92923929 43.24297288 15 50 C15.02594238 51.06653809 15.05188477 52.13307617 15.07861328 53.23193359 C15.68011624 79.26944786 15.68011624 79.26944786 13 92 C12.67 92 12.34 92 12 92 C12.00333092 91.08371071 12.00333092 91.08371071 12.00672913 90.14891052 C12.02890569 83.77335191 12.04395817 77.39780432 12.05493164 71.0222168 C12.05995076 68.64493362 12.06676746 66.26765352 12.07543945 63.89038086 C12.08761112 60.46727743 12.09325262 57.04421493 12.09765625 53.62109375 C12.10281754 52.56353378 12.10797882 51.50597382 12.11329651 50.41636658 C12.12753706 42.65280525 12.12753706 42.65280525 11 35 C8.48500526 32.66167427 8.48500526 32.66167427 5.4375 30.5625 C2.11937591 27.82062399 0.26432425 25.4560319 -0.51660156 21.15429688 C-0.97984032 14.09152176 -0.60620057 7.04464405 0 0 Z " fill="#F4CBC8" transform="translate(185,102)"/>
<path d="M0 0 C0.99 0.495 0.99 0.495 2 1 C2.20625 1.969375 2.4125 2.93875 2.625 3.9375 C3.63018775 7.09113907 3.63018775 7.09113907 5.90625 7.83984375 C7.91634186 8.32467224 9.958647 8.67074952 12 9 C12 6.36 12 3.72 12 1 C14.64 1 17.28 1 20 1 C20 5.29 20 9.58 20 14 C8.86520076 12.97442639 8.86520076 12.97442639 6 12 C5.67 11.34 5.34 10.68 5 10 C4.01 9.67 3.02 9.34 2 9 C1.26953125 6.93359375 1.26953125 6.93359375 0.8125 4.4375 C0.65394531 3.61121094 0.49539062 2.78492188 0.33203125 1.93359375 C0.16767578 0.97646484 0.16767578 0.97646484 0 0 Z " fill="#494A4A" transform="translate(130,171)"/>
<path d="M0 0 C5.94 0 11.88 0 18 0 C18 2.64 18 5.28 18 8 C17.03578125 7.97679688 16.0715625 7.95359375 15.078125 7.9296875 C13.81484375 7.91164063 12.5515625 7.89359375 11.25 7.875 C9.37054688 7.84019531 9.37054688 7.84019531 7.453125 7.8046875 C3.77141764 7.78429876 3.77141764 7.78429876 0 10 C0 6.7 0 3.4 0 0 Z " fill="#7D0A0A" transform="translate(143,66)"/>
<path d="M0 0 C0.33 0 0.66 0 1 0 C1 18.81 1 37.62 1 57 C-3.16972211 50.74541683 -3.39424777 42.35929176 -3 35 C-2.67 34.01 -2.34 33.02 -2 32 C-1.86024314 29.74065744 -1.77455624 27.47781667 -1.71875 25.21484375 C-1.70034058 24.55795059 -1.68193115 23.90105743 -1.66296387 23.22425842 C-1.58441031 20.41749066 -1.51647635 17.61048979 -1.44775391 14.8034668 C-1.39603484 12.75297176 -1.33879452 10.70268222 -1.28125 8.65234375 C-1.25095703 7.42507568 -1.22066406 6.19780762 -1.18945312 4.93334961 C-1 2 -1 2 0 0 Z " fill="#6E0F0E" transform="translate(124,96)"/>
<path d="M0 0 C3.48579191 1.98927391 6.19581306 4.39162612 8 8 C8.23828125 10.27734375 8.23828125 10.27734375 8.3125 12.9375 C8.34988281 13.81277344 8.38726562 14.68804687 8.42578125 15.58984375 C8 18 8 18 5.98046875 19.81640625 C5.32691406 20.20699219 4.67335937 20.59757812 4 21 C3.98582031 20.18015625 3.97164062 19.3603125 3.95703125 18.515625 C3.78421165 11.98752543 3.78421165 11.98752543 1.0625 6.25 C-2.70281937 4.71313495 -5.67485289 4.77362193 -9.6953125 5.0546875 C-12 5 -12 5 -15 3 C-10.42225272 -1.02026986 -5.84840886 -1.04759933 0 0 Z " fill="#DDB7B7" transform="translate(158,73)"/>
<path d="M0 0 C0.33 0.66 0.66 1.32 1 2 C2.32303717 2.3721042 3.65737935 2.70630173 5 3 C5.33 3.33 5.66 3.66 6 4 C7.34747084 4.23075082 8.70377565 4.41153063 10.0625 4.5625 C11.361875 4.706875 12.66125 4.85125 14 5 C14 5.33 14 5.66 14 6 C12.02 6.33 10.04 6.66 8 7 C7.67 11.29 7.34 15.58 7 20 C6.67 19.01 6.34 18.02 6 17 C2.37114676 16.84850702 2.37114676 16.84850702 -1 18 C-1.02707139 15.75006641 -1.04642829 13.50003905 -1.0625 11.25 C-1.07410156 9.99703125 -1.08570313 8.7440625 -1.09765625 7.453125 C-1.02021027 4.71463499 -0.82780815 2.58119707 0 0 Z " fill="#FEEB89" transform="translate(136,187)"/>
<path d="M0 0 C0.33 0 0.66 0 1 0 C1.05032195 4.69155401 1.08614354 9.38294298 1.10986328 14.07470703 C1.11977582 15.66295109 1.13330983 17.25117765 1.15087891 18.83935547 C1.26815552 29.73228337 0.63741311 40.22667091 -1 51 C-1.33 51 -1.66 51 -2 51 C-2 44.07 -2 37.14 -2 30 C-2.33 30 -2.66 30 -3 30 C-3 22.41 -3 14.82 -3 7 C-2.34 7.66 -1.68 8.32 -1 9 C-0.67 6.03 -0.34 3.06 0 0 Z " fill="#FE4D3B" transform="translate(182,96)"/>
<path d="M0 0 C0.33 0 0.66 0 1 0 C1 12.87 1 25.74 1 39 C-8 39 -8 39 -11 38 C-11 37.34 -11 36.68 -11 36 C-4.375 33.125 -4.375 33.125 -1 32 C-1.00523682 31.10168457 -1.01047363 30.20336914 -1.01586914 29.27783203 C-1.03289725 25.94937501 -1.04544337 22.62096419 -1.05493164 19.29248047 C-1.05996474 17.8510668 -1.06679173 16.40965824 -1.07543945 14.96826172 C-1.08754983 12.89809915 -1.09323847 10.82800399 -1.09765625 8.7578125 C-1.10289307 7.5114502 -1.10812988 6.26508789 -1.11352539 4.98095703 C-1 2 -1 2 0 0 Z " fill="#9E0908" transform="translate(149,131)"/>
<path d="M0 0 C0.33 0 0.66 0 1 0 C3.71667939 9.58923141 4.36901501 18.11859816 4 28 C4.66 28 5.32 28 6 28 C6.33808357 31.37454164 6.66961318 34.74969681 7 38.125 C7.09539062 39.07632813 7.19078125 40.02765625 7.2890625 41.0078125 C7.74437277 45.69100382 8.12693246 50.2876326 8 55 C7.34 55 6.68 55 6 55 C4.25119352 47.05595356 3.47422977 39.08083384 2.75488281 30.99462891 C2.26241812 25.53177448 1.64690203 20.11799389 0.875 14.6875 C0.17589726 9.71731644 -0.20460385 5.01279438 0 0 Z " fill="#FEFB97" transform="translate(138,233)"/>
<path d="M0 0 C6.27 0 12.54 0 19 0 C19 0.66 19 1.32 19 2 C16.69 2 14.38 2 12 2 C12 4.64 12 7.28 12 10 C6.375 10.25 6.375 10.25 3 8 C2.01 5.36 1.02 2.72 0 0 Z " fill="#1D1B1B" transform="translate(130,170)"/>
<path d="M0 0 C0.79560764 2.91499943 1.25322499 5.74561419 1.5625 8.75 C1.64628906 9.54921875 1.73007813 10.3484375 1.81640625 11.171875 C1.87699219 11.77515625 1.93757813 12.3784375 2 13 C0 10 0 10 -1 8 C-1.33 23.84 -1.66 39.68 -2 56 C-4 54 -4 54 -4.24291992 51.26049805 C-4.23881104 50.10590088 -4.23470215 48.95130371 -4.23046875 47.76171875 C-4.22942139 46.47547607 -4.22837402 45.1892334 -4.22729492 43.86401367 C-4.2148642 42.47183475 -4.20158301 41.07966319 -4.1875 39.6875 C-4.17863236 38.27905373 -4.16992531 36.87060644 -4.16137695 35.4621582 C-4.09847706 27.20267208 -3.98122656 18.94217808 -3.6875 10.6875 C-3.66518311 9.82406982 -3.64286621 8.96063965 -3.61987305 8.07104492 C-3.51171875 5.69921875 -3.51171875 5.69921875 -3 2 C-2.01 1.34 -1.02 0.68 0 0 Z " fill="#C33232" transform="translate(109,133)"/>
<path d="M0 0 C6.27 0 12.54 0 19 0 C19 6.61290323 19 6.61290323 16 10 C12.3125 10.3125 12.3125 10.3125 9 10 C9 7.36 9 4.72 9 2 C6.03 2 3.06 2 0 2 C0 1.34 0 0.68 0 0 Z " fill="#5A4D4B" transform="translate(156,170)"/>
<path d="M0 0 C0.33 0 0.66 0 1 0 C1.42781312 8.79393628 0.29967196 16.51311539 -2 25 C-3.98 25 -5.96 25 -8 25 C-7.82984375 24.44054687 -7.6596875 23.88109375 -7.484375 23.3046875 C-5.52702972 16.82878983 -3.6775089 10.32715415 -1.8671875 3.80859375 C-1 1 -1 1 0 0 Z " fill="#FE372C" transform="translate(178,144)"/>
<path d="M0 0 C4.67623588 7.01435382 5.41199432 15.76011369 5 24 C5.66 24 6.32 24 7 24 C8.59138085 28.17737474 9.21278058 31.53160785 9 36 C8.34 36 7.68 36 7 36 C7 38.64 7 41.28 7 44 C6.67 44 6.34 44 6 44 C5.96132812 42.87078125 5.96132812 42.87078125 5.921875 41.71875 C5.53138177 34.40587677 4.38035847 27.68215419 2.45996094 20.64648438 C0.56286267 13.67509151 -0.1259423 7.17871096 0 0 Z " fill="#E22525" transform="translate(109,143)"/>
<path d="M0 0 C0.33 0.66 0.66 1.32 1 2 C6.94 1.505 6.94 1.505 13 1 C13 2.65 13 4.3 13 6 C9 7.33333333 5 8.66666667 1 10 C0.67 12.31 0.34 14.62 0 17 C-0.66 17 -1.32 17 -2 17 C-2.21824777 10.9981863 -1.5056904 5.80766296 0 0 Z " fill="#EC633B" transform="translate(153,183)"/>
<path d="M0 0 C5.59901488 9.83241638 3.09793602 24.98763917 3 36 C2.01 36 1.02 36 0 36 C-0.02505615 35.11739502 -0.0501123 34.23479004 -0.07592773 33.32543945 C-0.1713353 30.03593385 -0.27055193 26.74658818 -0.37231445 23.45727539 C-0.41549804 22.03642225 -0.45718408 20.61552274 -0.49731445 19.19458008 C-0.55542095 17.1465053 -0.61899638 15.09866035 -0.68359375 13.05078125 C-0.72025146 11.82012939 -0.75690918 10.58947754 -0.79467773 9.3215332 C-0.97269423 6.44173016 -1.34609105 3.80412912 -2 1 C-1.34 0.67 -0.68 0.34 0 0 Z " fill="#414241" transform="translate(151,27)"/>
<path d="M0 0 C2 3 2 3 2.9375 5.625 C3.288125 6.40875 3.63875 7.1925 4 8 C7.65433764 9.21811255 8.60630184 8.56632223 12 7 C12.66 6.67 13.32 6.34 14 6 C12.50590551 14.71555118 12.50590551 14.71555118 8.875 17.8125 C8.25625 18.204375 7.6375 18.59625 7 19 C7 18.01 7 17.02 7 16 C6.01 16 5.02 16 4 16 C3.32320342 14.274773 2.65898 12.54461061 2 10.8125 C1.443125 9.36810547 1.443125 9.36810547 0.875 7.89453125 C0.02363228 5.07817642 -0.17072647 2.91835561 0 0 Z " fill="#FEF999" transform="translate(144,211)"/>
<path d="M0 0 C6.22646169 6.22646169 6.04602455 19.21624966 6.0625 27.4375 C6.04653255 29.62504093 6.02730494 31.81257121 6 34 C3.63306144 30.12027898 3.11288059 25.97096008 2.375 21.5625 C2.17390625 20.43618164 2.17390625 20.43618164 1.96875 19.28710938 C1.31271532 15.48143878 0.83038366 11.87804635 1 8 C0.34 8 -0.32 8 -1 8 C-1.625 5.125 -1.625 5.125 -2 2 C-1.34 1.34 -0.68 0.68 0 0 Z " fill="#630808" transform="translate(114,130)"/>
<path d="M0 0 C1.52575015 2.78340477 2.3493372 5.1661291 2.81640625 8.30078125 C2.94080078 9.11353516 3.06519531 9.92628906 3.19335938 10.76367188 C3.31517578 11.60478516 3.43699219 12.44589844 3.5625 13.3125 C3.68818359 14.14201172 3.81386719 14.97152344 3.94335938 15.82617188 C4.65502053 20.54698172 5.33019512 25.27309127 6 30 C6.66 30 7.32 30 8 30 C8.12375 28.906875 8.2475 27.81375 8.375 26.6875 C9 23 9 23 11 20 C10.40546697 29.59453303 10.40546697 29.59453303 7 33 C4 32 4 32 2.8828125 29.94921875 C1.78219641 26.27238182 1.28433304 22.61459032 0.875 18.8125 C0.79008301 18.06234619 0.70516602 17.31219238 0.61767578 16.53930664 C0.02425762 10.99854815 -0.17697432 5.57469122 0 0 Z " fill="#FCF851" transform="translate(143,251)"/>
<path d="M0 0 C0.33 0 0.66 0 1 0 C2.36179695 13.27752031 2.44767282 25.84375859 0 39 C-0.33 39 -0.66 39 -1 39 C-1.02464849 33.60653012 -1.04283531 28.21309275 -1.05493164 22.81958008 C-1.05997231 20.98331125 -1.06680477 19.14704646 -1.07543945 17.31079102 C-1.08751672 14.67723599 -1.09323081 12.04373384 -1.09765625 9.41015625 C-1.10281754 8.58411392 -1.10797882 7.75807159 -1.11329651 6.90699768 C-1.11349205 4.93763632 -1.06204152 2.96838386 -1 1 C-0.67 0.67 -0.34 0.34 0 0 Z " fill="#DE0000" transform="translate(159,116)"/>
<path d="M0 0 C3 1 3 1 4.1328125 2.6015625 C6.35924345 7.14207916 7.57945765 10.95349174 8 16 C5.69 16 3.38 16 1 16 C0.14701624 12.32612505 -0.10789471 8.9552607 -0.0625 5.1875 C-0.05347656 4.21167969 -0.04445312 3.23585937 -0.03515625 2.23046875 C-0.02355469 1.49441406 -0.01195312 0.75835937 0 0 Z " fill="#383130" transform="translate(169,49)"/>
<path d="M0 0 C4.50586178 2.19204087 6.13081444 4.37622519 8 9 C8 9.66 8 10.32 8 11 C7.34 11 6.68 11 6 11 C6 10.34 6 9.68 6 9 C5.01 9 4.02 9 3 9 C3.33 7.35 3.66 5.7 4 4 C3.34 4 2.68 4 2 4 C2.00523682 4.6612085 2.01047363 5.32241699 2.01586914 6.00366211 C2.03657656 8.98159851 2.04964012 11.95951982 2.0625 14.9375 C2.07087891 15.97841797 2.07925781 17.01933594 2.08789062 18.09179688 C2.09111328 19.08115234 2.09433594 20.07050781 2.09765625 21.08984375 C2.10289307 22.00628662 2.10812988 22.92272949 2.11352539 23.86694336 C2 26 2 26 1 27 C-0.66617115 27.04063832 -2.33388095 27.042721 -4 27 C-2.68 26.67 -1.36 26.34 0 26 C-0.03552979 25.2479126 -0.07105957 24.4958252 -0.10766602 23.72094727 C-0.26463293 20.33502147 -0.41367215 16.94879289 -0.5625 13.5625 C-0.61857422 12.37849609 -0.67464844 11.19449219 -0.73242188 9.97460938 C-0.78076172 8.84990234 -0.82910156 7.72519531 -0.87890625 6.56640625 C-0.94960327 5.00321655 -0.94960327 5.00321655 -1.02172852 3.40844727 C-1 1 -1 1 0 0 Z " fill="#80807F" transform="translate(164,37)"/>
<path d="M0 0 C0.99 0.33 1.98 0.66 3 1 C3.73046875 3.06640625 3.73046875 3.06640625 4.1875 5.5625 C4.34605469 6.38878906 4.50460938 7.21507812 4.66796875 8.06640625 C4.77753906 8.70449219 4.88710937 9.34257812 5 10 C5.99 10 6.98 10 8 10 C8.31886228 13.40119769 7.9060751 15.21782582 6.53125 18.40625 C4.37599679 23.97510301 4.43615614 29.59276932 4.3125 35.5 C4.27833984 36.60859375 4.24417969 37.7171875 4.20898438 38.859375 C4.12711333 41.57281543 4.05776596 44.28595747 4 47 C3.67 47 3.34 47 3 47 C2.16076524 36.99722893 1.75541104 27.74782955 3.52734375 17.8203125 C4.33850179 12.98017939 3.7159673 9.75441415 2 5.25 C1.62875 4.26515625 1.2575 3.2803125 0.875 2.265625 C0.58625 1.51796875 0.2975 0.7703125 0 0 Z " fill="#F4F1ED" transform="translate(127,170)"/>
<path d="M0 0 C1.98 0 3.96 0 6 0 C4.68 0.33 3.36 0.66 2 1 C2 7.27 2 13.54 2 20 C2.66 20.33 3.32 20.66 4 21 C2.35 22.32 0.7 23.64 -1 25 C-2 24 -2 24 -2.03759766 22.11401367 C-1.97644775 20.90322144 -1.97644775 20.90322144 -1.9140625 19.66796875 C-1.87023437 18.78689453 -1.82640625 17.90582031 -1.78125 16.99804688 C-1.7296875 16.07056641 -1.678125 15.14308594 -1.625 14.1875 C-1.58117187 13.27162109 -1.53734375 12.35574219 -1.4921875 11.41210938 C-1.28561215 7.47283226 -1.06925029 3.81227592 0 0 Z " fill="#920606" transform="translate(148,102)"/>
<path d="M0 0 C0.66 0.33 1.32 0.66 2 1 C1.26558926 15.66888819 1.26558926 15.66888819 -0.52734375 22.6015625 C-1.40113835 27.0355285 -1.5157529 31.55312116 -1.75390625 36.05859375 C-2 39 -2 39 -3 41 C-3.66 41 -4.32 41 -5 41 C-5 42.65 -5 44.3 -5 46 C-5.33 46 -5.66 46 -6 46 C-5.35139654 39.99585956 -4.62590208 34.0106568 -3.80859375 28.02734375 C-3.69902847 27.21882462 -3.5894632 26.41030548 -3.47657776 25.57728577 C-3.13122791 23.03055227 -2.78439117 20.48402396 -2.4375 17.9375 C-2.2010729 16.19597698 -1.96474389 14.45444063 -1.72851562 12.71289062 C-1.15347614 8.47510579 -0.57710437 4.23750411 0 0 Z " fill="#A51617" transform="translate(186,127)"/>
<path d="M0 0 C0.66 0 1.32 0 2 0 C3.25059892 5.20910626 3.32887674 10.43205536 3.51757812 15.76171875 C3.71225597 19.91239743 4.13751954 23.199635 6 27 C4.046875 26.3828125 4.046875 26.3828125 2 25 C1.13582256 21.00040954 1.17470285 17.10551693 1 13 C1 17.29 1 21.58 1 26 C-0.65 26.33 -2.3 26.66 -4 27 C-3.68305176 26.28432861 -3.36610352 25.56865723 -3.03955078 24.83129883 C-2.00223091 22.00607606 -1.61185156 19.68761543 -1.3671875 16.69921875 C-1.28339844 15.72275391 -1.19960937 14.74628906 -1.11328125 13.74023438 C-1.03464844 12.73283203 -0.95601562 11.72542969 -0.875 10.6875 C-0.78863281 9.66076172 -0.70226562 8.63402344 -0.61328125 7.57617188 C-0.40189423 5.05127134 -0.19770649 2.52600242 0 0 Z " fill="#D1D1D1" transform="translate(153,0)"/>
<path d="M0 0 C1.4375 2.0625 1.4375 2.0625 2 4 C-1.43598604 5.71799302 -5.37952915 4.84165279 -9.15234375 4.64453125 C-12.12877966 4.7072824 -12.12877966 4.7072824 -13.87890625 7.01171875 C-14.43384766 7.99591797 -14.43384766 7.99591797 -15 9 C-15.125 6.125 -15.125 6.125 -15 3 C-14.34 2.34 -13.68 1.68 -13 1 C-12.34 1 -11.68 1 -11 1 C-10.443125 0.649375 -9.88625 0.29875 -9.3125 -0.0625 C-5.89695426 -1.44718071 -3.51403837 -0.91104698 0 0 Z " fill="#324757" transform="translate(158,80)"/>
<path d="M0 0 C0.33 0 0.66 0 1 0 C1.4525056 7.78112892 -0.23971623 14.98314987 -1.875 22.5625 C-2.14441406 23.85091797 -2.41382813 25.13933594 -2.69140625 26.46679688 C-3.94247618 32.38344222 -5.29346862 38.20009321 -7 44 C-7.33 44 -7.66 44 -8 44 C-8.3198041 37.66314093 -8.11684229 32.44963677 -5.859375 26.5078125 C-4.02663132 21.15953322 -3.11063907 15.53447672 -2 10 C-1.79117188 8.97003906 -1.58234375 7.94007813 -1.3671875 6.87890625 C-0.90556372 4.58704171 -0.4493441 2.29429809 0 0 Z " fill="#FEFDBE" transform="translate(166,222)"/>
<path d="M0 0 C0.33 0 0.66 0 1 0 C1.02505615 0.55985596 1.0501123 1.11971191 1.07592773 1.6965332 C1.19203745 4.23541305 1.3146958 6.77393553 1.4375 9.3125 C1.47681641 10.19357422 1.51613281 11.07464844 1.55664062 11.98242188 C1.59853516 12.82998047 1.64042969 13.67753906 1.68359375 14.55078125 C1.72025146 15.33106689 1.75690918 16.11135254 1.79467773 16.9152832 C1.94125263 19.19329101 1.94125263 19.19329101 3 22 C3.22560676 24.39254576 3.40848595 26.78928123 3.5625 29.1875 C3.64628906 30.45980469 3.73007813 31.73210938 3.81640625 33.04296875 C3.87699219 34.01878906 3.93757812 34.99460938 4 36 C2.68 36 1.36 36 0 36 C0 24.12 0 12.24 0 0 Z " fill="#939392" transform="translate(156,27)"/>
<path d="M0 0 C0.33 0 0.66 0 1 0 C1.01981934 0.56396484 1.03963867 1.12792969 1.06005859 1.70898438 C1.15631811 4.30639574 1.26558052 6.90311103 1.375 9.5 C1.4059375 10.386875 1.436875 11.27375 1.46875 12.1875 C1.71418917 17.75078786 2.57593339 22.62529698 4 28 C4.1953125 30.75 4.1953125 30.75 4.125 33 C4.10695312 33.763125 4.08890625 34.52625 4.0703125 35.3125 C4.04710937 35.869375 4.02390625 36.42625 4 37 C2.25434889 33.78360346 1.795563 31.67986596 2 28 C1.34 28 0.68 28 0 28 C-0.79746733 23.09494302 -1.13522696 18.42314521 -1.125 13.4375 C-1.12757813 12.17808594 -1.13015625 10.91867188 -1.1328125 9.62109375 C-1.0116308 6.31711034 -0.62922955 3.24103157 0 0 Z " fill="#FDFCAF" transform="translate(134,194)"/>
<path d="M0 0 C0.33 0 0.66 0 1 0 C4.58165209 23.58238484 4.58165209 23.58238484 4 35 C3.67 35 3.34 35 3 35 C1.75530819 27.65102179 0.55275648 20.29741331 -0.55078125 12.92578125 C-0.81723026 11.19038727 -1.0999721 9.45716081 -1.41796875 7.73046875 C-2.08016593 4.02995512 -2.19900139 3.29850208 0 0 Z " fill="#BB1E1E" transform="translate(111,132)"/>
<path d="M0 0 C0.99 0 1.98 0 3 0 C3.05410687 1.77049689 3.09284119 3.54146849 3.125 5.3125 C3.14820313 6.29863281 3.17140625 7.28476563 3.1953125 8.30078125 C3 11 3 11 1 14 C0.61500109 15.65549531 0.27206865 17.3222433 0 19 C0.66 19 1.32 19 2 19 C2 19.66 2 20.32 2 21 C1.34 21 0.68 21 0 21 C-0.33 21.99 -0.66 22.98 -1 24 C-1.19436491 21.54203147 -1.3807742 19.08390706 -1.5625 16.625 C-1.61857422 15.92632812 -1.67464844 15.22765625 -1.73242188 14.5078125 C-2.11328125 9.2265625 -2.11328125 9.2265625 -1 7 C-0.63858045 4.67085177 -0.30300475 2.33746522 0 0 Z " fill="#6C1919" transform="translate(140,66)"/>
<path d="M0 0 C2.68225256 2.68225256 2.47177209 4.43118274 2.8515625 8.1796875 C2.98046875 9.41847656 3.109375 10.65726562 3.2421875 11.93359375 C3.36851562 13.23425781 3.49484375 14.53492188 3.625 15.875 C3.7590625 17.16792969 3.893125 18.46085937 4.03125 19.79296875 C5 29.31242028 5 29.31242028 5 34 C4.34 34 3.68 34 3 34 C-0.58165209 10.21122564 -0.58165209 10.21122564 0 0 Z " fill="#FFFEE1" transform="translate(139,254)"/>
<path d="M0 0 C2.64 0 5.28 0 8 0 C8.05425013 2.87525669 8.09379277 5.74947646 8.125 8.625 C8.14175781 9.43324219 8.15851563 10.24148437 8.17578125 11.07421875 C8.21403644 15.77960701 7.92032895 19.60970732 6 24 C3.29778587 26.70221413 0.80585943 27.70724158 -3 28 C-3.99 27.34 -4.98 26.68 -6 26 C-6 25.34 -6 24.68 -6 24 C-5.278125 24.226875 -4.55625 24.45375 -3.8125 24.6875 C-0.9670298 25.21725229 -0.9670298 25.21725229 1.6875 24 C6.45646253 19.87549186 6.14730704 13.99493013 6.625 8.0625 C6.75711059 6.04211906 6.88449154 4.02139807 7 2 C4.69 2 2.38 2 0 2 C0 1.34 0 0.68 0 0 Z " fill="#FEF3B1" transform="translate(153,193)"/>
<path d="M0 0 C0.625 1.875 0.625 1.875 1 4 C0.34 4.66 -0.32 5.32 -1 6 C-0.34 6 0.32 6 1 6 C2.83747095 17.48051853 2.36935753 28.63977683 0 40 C-0.33 40 -0.66 40 -1 40 C-0.98952637 39.09233887 -0.97905273 38.18467773 -0.96826172 37.24951172 C-0.93404613 33.86130196 -0.9090363 30.47327756 -0.89013672 27.08496094 C-0.88011895 25.62236624 -0.86650088 24.15979137 -0.84912109 22.69726562 C-0.82468561 20.58718961 -0.81347463 18.47737988 -0.8046875 16.3671875 C-0.79421387 15.09987793 -0.78374023 13.83256836 -0.77294922 12.52685547 C-0.99934833 9.01012267 -1.72776399 6.27083513 -3 3 C-2.01 2.67 -1.02 2.34 0 2 C0 1.34 0 0.68 0 0 Z " fill="#FCF5BC" transform="translate(168,182)"/>
<path d="M0 0 C3.3970295 1.40566738 5.06081024 2.87877603 7 6 C7.43359375 8.47265625 7.43359375 8.47265625 7.4375 11.0625 C7.45683594 11.91972656 7.47617188 12.77695313 7.49609375 13.66015625 C7 16 7 16 4.97265625 17.80859375 C4.32167969 18.20175781 3.67070312 18.59492187 3 19 C2.86722656 17.79601562 2.73445312 16.59203125 2.59765625 15.3515625 C2.4194698 13.77601915 2.2410735 12.20049953 2.0625 10.625 C1.97548828 9.8309375 1.88847656 9.036875 1.79882812 8.21875 C1.3961065 3.97744999 1.3961065 3.97744999 0 0 Z " fill="#CEBEBE" transform="translate(159,75)"/>
<path d="M0 0 C3 1 3 1 4.1796875 3.16796875 C5.10285514 6.35509512 5.19779145 9.00048884 5.125 12.3125 C5.10695312 13.38113281 5.08890625 14.44976562 5.0703125 15.55078125 C5.03550781 16.76314453 5.03550781 16.76314453 5 18 C4.01 17.67 3.02 17.34 2 17 C-0.20018889 11.6230678 -0.20783455 5.71545019 0 0 Z " fill="#FED0CF" transform="translate(168,72)"/>
<path d="M0 0 C2.64 0 5.28 0 8 0 C8 2.64 8 5.28 8 8 C4.04 7.67 0.08 7.34 -4 7 C-2.68 6.67 -1.36 6.34 0 6 C0 4.02 0 2.04 0 0 Z " fill="#C10F0F" transform="translate(153,66)"/>
<path d="M0 0 C0.33 0 0.66 0 1 0 C1 6.93 1 13.86 1 21 C-0.32 21 -1.64 21 -3 21 C-3.96070434 18.11788698 -4.10581883 16.30149956 -4.0625 13.3125 C-4.05347656 12.50425781 -4.04445312 11.69601563 -4.03515625 10.86328125 C-4.02355469 10.24839844 -4.01195312 9.63351563 -4 9 C-3.01 9 -2.02 9 -1 9 C-0.67 6.03 -0.34 3.06 0 0 Z " fill="#AEADAC" transform="translate(163,42)"/>
<path d="M0 0 C2.58926331 2.58926331 2.37398043 4.02705279 2.625 7.625 C2.69976562 8.62789062 2.77453125 9.63078125 2.8515625 10.6640625 C2.90054688 11.43492187 2.94953125 12.20578125 3 13 C3.66 13 4.32 13 5 13 C5.33 15.31 5.66 17.62 6 20 C7.32 20 8.64 20 10 20 C10.33 20.66 10.66 21.32 11 22 C9.60804085 24.7839183 7.84424221 24.97898997 5 26 C4.86722656 25.43410156 4.73445313 24.86820313 4.59765625 24.28515625 C4.42105469 23.55167969 4.24445313 22.81820312 4.0625 22.0625 C3.88847656 21.33160156 3.71445313 20.60070312 3.53515625 19.84765625 C3.16112431 18.00030102 3.16112431 18.00030102 2 17 C0.28750566 11.28751889 -0.21586845 5.93638224 0 0 Z " fill="#881010" transform="translate(116,151)"/>
<path d="M0 0 C0.33 0 0.66 0 1 0 C1.24875396 16.08608971 1.24875396 16.08608971 0 22 C-0.66 22.66 -1.32 23.32 -2 24 C-4.85606667 18.28786666 -3.27622438 10.11489181 -1.5 4.25 C-1.01688253 2.82748745 -0.52339804 1.40818995 0 0 Z " fill="#AF6765" transform="translate(125,74)"/>
<path d="M0 0 C0.33 0 0.66 0 1 0 C1.1435475 6.47921207 0.66751463 12.54708582 -0.375 18.9375 C-0.50132812 19.78634766 -0.62765625 20.63519531 -0.7578125 21.50976562 C-0.95117188 22.7250293 -0.95117188 22.7250293 -1.1484375 23.96484375 C-1.32125244 25.05720337 -1.32125244 25.05720337 -1.49755859 26.17163086 C-2 28 -2 28 -4 30 C-3.91796877 26.68657298 -3.80524229 23.37483508 -3.6875 20.0625 C-3.65366211 18.67321289 -3.65366211 18.67321289 -3.61914062 17.25585938 C-3.3790829 11.03618194 -2.31325642 5.78180082 0 0 Z " fill="#611211" transform="translate(129,65)"/>
<path d="M0 0 C0.66 1.32 1.32 2.64 2 4 C2.66 3.67 3.32 3.34 4 3 C2.59241902 7.22274294 0.16792713 7.96431683 -3.6328125 9.9921875 C-6.54201711 11.23075976 -8.87396663 11.40077351 -12 11 C-11.34 10.67 -10.68 10.34 -10 10 C-10 9.01 -10 8.02 -10 7 C-10.66 6.67 -11.32 6.34 -12 6 C-10.37585622 5.80522261 -8.75063577 5.61940542 -7.125 5.4375 C-6.22007812 5.33308594 -5.31515625 5.22867188 -4.3828125 5.12109375 C-2 5 -2 5 0 6 C-0.185625 5.38125 -0.37125 4.7625 -0.5625 4.125 C-1 2 -1 2 0 0 Z " fill="#9D8383" transform="translate(161,89)"/>
<path d="M0 0 C0.33 0.66 0.66 1.32 1 2 C2.32303717 2.3721042 3.65737935 2.70630173 5 3 C5.33 3.33 5.66 3.66 6 4 C7.34747084 4.23075082 8.70377565 4.41153063 10.0625 4.5625 C11.361875 4.706875 12.66125 4.85125 14 5 C14 5.33 14 5.66 14 6 C9.545 6.495 9.545 6.495 5 7 C5 8.32 5 9.64 5 11 C3.35 10.67 1.7 10.34 0 10 C0 6.7 0 3.4 0 0 Z " fill="#FED243" transform="translate(136,187)"/>
<path d="M0 0 C2.5 0.125 2.5 0.125 3.5 1.125 C3.64115161 3.79558851 3.54247107 6.44932238 3.5 9.125 C2.18 9.455 0.86 9.785 -0.5 10.125 C-0.5 8.145 -0.5 6.165 -0.5 4.125 C-3.47 4.125 -6.44 4.125 -9.5 4.125 C-9.5 3.795 -9.5 3.465 -9.5 3.125 C-8.0459375 2.6609375 -8.0459375 2.6609375 -6.5625 2.1875 C-0.30068729 0.01503436 -0.30068729 0.01503436 0 0 Z " fill="#FEE33C" transform="translate(163.5,188.875)"/>
<path d="M0 0 C1.20396475 3.54023597 0.80285433 6.12002883 0.07421875 9.75390625 C-0.14556641 10.85541016 -0.36535156 11.95691406 -0.59179688 13.09179688 C-0.82962891 14.23712891 -1.06746094 15.38246094 -1.3125 16.5625 C-1.6518457 18.28629883 -1.6518457 18.28629883 -1.99804688 20.04492188 C-3.73879319 28.60818979 -3.73879319 28.60818979 -6 32 C-6.24266878 26.06270395 -5.33362307 20.67810512 -4.125 14.875 C-3.95097656 13.99457031 -3.77695313 13.11414063 -3.59765625 12.20703125 C-2.73159577 7.953712 -1.82671678 3.96611481 0 0 Z " fill="#D11F20" transform="translate(191,134)"/>
<path d="M0 0 C1.2065625 0.0309375 1.2065625 0.0309375 2.4375 0.0625 C2.4375 3.0325 2.4375 6.0025 2.4375 9.0625 C0.4575 9.0625 -1.5225 9.0625 -3.5625 9.0625 C-3.66015625 2.91015625 -3.66015625 2.91015625 -3.5625 1.0625 C-2.5625 0.0625 -2.5625 0.0625 0 0 Z " fill="#918E8D" transform="translate(160.5625,171.9375)"/>
<path d="M0 0 C0.33 0 0.66 0 1 0 C4.44419134 16.70842825 4.44419134 16.70842825 4 25 C3.34 24.67 2.68 24.34 2 24 C-0.40649883 16.21601612 -0.23057307 8.05724784 0 0 Z " fill="#E6C2A5" transform="translate(181,75)"/>
<path d="M0 0 C0.66 0.33 1.32 0.66 2 1 C1.35546875 1.47953125 0.7109375 1.9590625 0.046875 2.453125 C-2.87111577 6.08390741 -2.66727241 9.2150239 -2.75 13.75 C-2.77964844 14.54277344 -2.80929688 15.33554688 -2.83984375 16.15234375 C-2.91027787 18.10102094 -2.95743482 20.05051495 -3 22 C-3.99 21.67 -4.98 21.34 -6 21 C-5.96702729 18.05943386 -5.89993081 15.12652037 -5.8125 12.1875 C-5.80669922 11.35412109 -5.80089844 10.52074219 -5.79492188 9.66210938 C-5.71091929 7.3380379 -5.57934955 5.25327821 -5 3 C-2.57421875 0.86328125 -2.57421875 0.86328125 0 0 Z " fill="#B90000" transform="translate(159,99)"/>
<path d="M0 0 C2.22942748 0.14179038 4.45853628 0.28859698 6.6875 0.4375 C7.92886719 0.51871094 9.17023438 0.59992187 10.44921875 0.68359375 C13.38180337 0.94491317 16.13441617 1.34798379 19 2 C19 2.66 19 3.32 19 4 C12.25766581 4.12910853 5.69613196 3.797837 -1 3 C-0.67 2.01 -0.34 1.02 0 0 Z " fill="#0F0D0D" transform="translate(131,61)"/>
<path d="M0 0 C0.99 0.495 0.99 0.495 2 1 C2.185625 1.94875 2.37125 2.8975 2.5625 3.875 C3.64222274 7.08882685 3.64222274 7.08882685 6.0234375 7.9921875 C7.60616519 8.48903082 9.20192626 8.94645881 10.80859375 9.359375 C13 10 13 10 16 12 C9.34250344 13.36176066 9.34250344 13.36176066 6 12 C5.67 11.34 5.34 10.68 5 10 C4.01 9.67 3.02 9.34 2 9 C1.26953125 6.93359375 1.26953125 6.93359375 0.8125 4.4375 C0.65394531 3.61121094 0.49539062 2.78492188 0.33203125 1.93359375 C0.16767578 0.97646484 0.16767578 0.97646484 0 0 Z " fill="#562E2B" transform="translate(130,171)"/>
<path d="M0 0 C0 0.66 0 1.32 0 2 C-2.31 2 -4.62 2 -7 2 C-7 4.64 -7 7.28 -7 10 C-8.98 10 -10.96 10 -13 10 C-11.68 9.67 -10.36 9.34 -9 9 C-9 6.69 -9 4.38 -9 2 C-10.98 2 -12.96 2 -15 2 C-15 1.67 -15 1.34 -15 1 C-10.03926578 -0.32286246 -5.08888488 -0.08893197 0 0 Z " fill="#2C2222" transform="translate(149,170)"/>
<path d="M0 0 C0.33 0 0.66 0 1 0 C1.11157151 9.07448253 0.94242818 17.96278689 0 27 C-0.33 27 -0.66 27 -1 27 C-1.2165625 25.6078125 -1.2165625 25.6078125 -1.4375 24.1875 C-1.92100111 20.99274889 -1.92100111 20.99274889 -3 18 C-2.83813477 16.00708008 -2.83813477 16.00708008 -2.44140625 13.76953125 C-2.30283203 12.96708984 -2.16425781 12.16464844 -2.02148438 11.33789062 C-1.87001953 10.50451172 -1.71855469 9.67113281 -1.5625 8.8125 C-1.41490234 7.96751953 -1.26730469 7.12253906 -1.11523438 6.25195312 C-0.75003997 4.1668109 -0.3758757 2.08324327 0 0 Z " fill="#FE3732" transform="translate(180,124)"/>
<path d="M0 0 C4.74117647 2.30980392 4.74117647 2.30980392 5.9375 5.5 C6 8 6 8 4 11 C2.68 10.67 1.36 10.34 0 10 C0 6.7 0 3.4 0 0 Z " fill="#B3B2B1" transform="translate(157,26)"/>
<path d="M0 0 C0.33 0 0.66 0 1 0 C1.33821197 2.85366354 1.6706978 5.70780596 2 8.5625 C2.09539062 9.36236328 2.19078125 10.16222656 2.2890625 10.98632812 C2.82714176 15.69452167 3.10176703 20.26147265 3 25 C-1.16972211 18.74541683 -1.39424777 10.35929176 -1 3 C-0.67 2.01 -0.34 1.02 0 0 Z " fill="#89120E" transform="translate(122,128)"/>
<path d="M0 0 C0.66 0.33 1.32 0.66 2 1 C2.25939145 7.77299898 2.12822089 14.49710284 0 21 C-0.66 21.33 -1.32 21.66 -2 22 C-1.34 14.74 -0.68 7.48 0 0 Z " fill="#8A1C16" transform="translate(184,125)"/>
<path d="M0 0 C1.95216435 3.90432869 2.50639991 6.72213252 3 11 C3.66 11 4.32 11 5 11 C5.185625 9.3603125 5.185625 9.3603125 5.375 7.6875 C6 4 6 4 8 1 C7.40546697 10.59453303 7.40546697 10.59453303 4 14 C3.01 13.67 2.02 13.34 1 13 C0.67 8.71 0.34 4.42 0 0 Z " fill="#FCF63B" transform="translate(146,270)"/>
<path d="M0 0 C1.65 0 3.3 0 5 0 C5.33 4.29 5.66 8.58 6 13 C5.34 13 4.68 13 4 13 C2.68 8.71 1.36 4.42 0 0 Z " fill="#F9221D" transform="translate(171,65)"/>
<path d="M0 0 C0.33 0 0.66 0 1 0 C1.28100502 7.16562789 0.20443195 13.94546999 -1 21 C-1.99 21 -2.98 21 -4 21 C-3.35401634 16.12689995 -2.49028264 11.36868161 -1.4375 6.5625 C-1.03337891 4.70818359 -1.03337891 4.70818359 -0.62109375 2.81640625 C-0.31365234 1.42228516 -0.31365234 1.42228516 0 0 Z " fill="#FEFCB5" transform="translate(157,267)"/>
<path d="M0 0 C2 3 2 3 1.828125 5.3046875 C-0.12238055 13.97652976 -0.12238055 13.97652976 -2 18 C-2.33 18 -2.66 18 -3 18 C-3.36517527 11.42684522 -2.13619737 6.20514474 0 0 Z " fill="#FBF5D5" transform="translate(135,181)"/>
<path d="M0 0 C4 2 4 2 5 3 C5.04080783 4.99958364 5.04254356 7.00045254 5 9 C3.35 9 1.7 9 0 9 C0 6.03 0 3.06 0 0 Z " fill="#272829" transform="translate(171,55)"/>
<path d="M0 0 C0.66 0 1.32 0 2 0 C1.67 3.63 1.34 7.26 1 11 C-0.65 11.33 -2.3 11.66 -4 12 C-3.52309796 10.37433394 -3.04340334 8.74948689 -2.5625 7.125 C-2.29566406 6.22007812 -2.02882812 5.31515625 -1.75390625 4.3828125 C-1 2 -1 2 0 0 Z " fill="#FE231E" transform="translate(174,157)"/>
<path d="M0 0 C2.86466214 0.0677102 4.05137626 0.27200694 6.625 1.6875 C8.125 3.3125 8.125 3.3125 8.125 5.3125 C7.465 5.3125 6.805 5.3125 6.125 5.3125 C6.125 4.6525 6.125 3.9925 6.125 3.3125 C0.86446963 2.99686818 -2.32073816 3.64659063 -6.875 6.3125 C-5.93225225 1.59876127 -5.06957673 0.40883683 0 0 Z " fill="#1C2E3C" transform="translate(151.875,76.6875)"/>
<path d="M0 0 C0.33 0 0.66 0 1 0 C1 4.29 1 8.58 1 13 C-1.97 12.505 -1.97 12.505 -5 12 C-6.375 9.9375 -6.375 9.9375 -7 8 C-4.69 8 -2.38 8 0 8 C0 5.36 0 2.72 0 0 Z " fill="#754E4A" transform="translate(149,172)"/>
<path d="M0 0 C0.33 1.32 0.66 2.64 1 4 C1.66 4 2.32 4 3 4 C4.10228696 8.40914783 4.07654536 12.48382401 4 17 C3.34 16.67 2.68 16.34 2 16 C0.25548659 10.47570753 -0.20612487 5.77149626 0 0 Z " fill="#8E1111" transform="translate(112,134)"/>
<path d="M0 0 C0.33 0 0.66 0 1 0 C1.02688151 1.64574566 1.04634123 3.29161413 1.0625 4.9375 C1.07410156 5.85402344 1.08570313 6.77054688 1.09765625 7.71484375 C1 10 1 10 0 11 C-1.66617115 11.04063832 -3.33388095 11.042721 -5 11 C-5.33 8.03 -5.66 5.06 -6 2 C-5.34 2 -4.68 2 -4 2 C-3.67 3.65 -3.34 5.3 -3 7 C-2.01 7 -1.02 7 0 7 C0 4.69 0 2.38 0 0 Z " fill="#FEEC69" transform="translate(167,191)"/>
<path d="M0 0 C1.58367747 0.14204741 3.16693318 0.28880153 4.75 0.4375 C5.63171875 0.51871094 6.5134375 0.59992188 7.421875 0.68359375 C9.69350452 0.96238465 11.79851823 1.38790577 14 2 C14.33 3.98 14.66 5.96 15 8 C14.67 7.01 14.34 6.02 14 5 C13.360625 5.0825 12.72125 5.165 12.0625 5.25 C7.59707243 4.8854753 3.99088772 2.94762276 0 1 C0 0.67 0 0.34 0 0 Z " fill="#D44826" transform="translate(136,183)"/>
<path d="M0 0 C0.79560764 2.91499943 1.25322499 5.74561419 1.5625 8.75 C1.64628906 9.54921875 1.73007813 10.3484375 1.81640625 11.171875 C1.87699219 11.77515625 1.93757813 12.3784375 2 13 C0 10 0 10 -1 8 C-1.33 9.98 -1.66 11.96 -2 14 C-2.33 14 -2.66 14 -3 14 C-3.08082094 12.04233719 -3.13910778 10.08373272 -3.1875 8.125 C-3.22230469 7.03445312 -3.25710937 5.94390625 -3.29296875 4.8203125 C-3.19628906 3.88960937 -3.09960938 2.95890625 -3 2 C-2.01 1.34 -1.02 0.68 0 0 Z " fill="#D46464" transform="translate(109,133)"/>
<path d="M0 0 C0.33 0 0.66 0 1 0 C1.50838564 2.03959477 2.00633886 4.08179138 2.5 6.125 C2.7784375 7.26195312 3.056875 8.39890625 3.34375 9.5703125 C3.96453765 12.81466698 4.12006768 15.70814457 4 19 C3.34 19 2.68 19 2 19 C0.67611771 12.56971459 -0.24794402 6.5705166 0 0 Z " fill="#FEFCB7" transform="translate(142,269)"/>
<path d="M0 0 C0 0.99 0 1.98 0 3 C-4.47154605 7.00897232 -10.29620237 6.71031501 -16 7 C-16 6.34 -16 5.68 -16 5 C-15.18015625 4.80664062 -14.3603125 4.61328125 -13.515625 4.4140625 C-12.43796875 4.15367188 -11.3603125 3.89328125 -10.25 3.625 C-8.64898437 3.24214844 -8.64898437 3.24214844 -7.015625 2.8515625 C-4.44147278 2.12466459 -2.32399814 1.2973776 0 0 Z " fill="#7E1010" transform="translate(161,96)"/>
<path d="M0 0 C1 3 1 3 0 6 C-0.99 6.495 -0.99 6.495 -2 7 C-1.34 10.3 -0.68 13.6 0 17 C-0.66 17 -1.32 17 -2 17 C-3.59138085 12.82262526 -4.21278058 9.46839215 -4 5 C-3.01 5 -2.02 5 -1 5 C-0.67 3.35 -0.34 1.7 0 0 Z " fill="#F5F3F0" transform="translate(173,176)"/>
<path d="M0 0 C2.76050338 2.76050338 2.46674524 5.20055984 3 9 C3.99 10.485 3.99 10.485 5 12 C4.9765625 14.26171875 4.9765625 14.26171875 4.625 16.6875 C4.51414062 17.49574219 4.40328125 18.30398437 4.2890625 19.13671875 C4.19367188 19.75160156 4.09828125 20.36648437 4 21 C3.67 21 3.34 21 3 21 C2.49576443 18.25071558 1.99646574 15.50068857 1.5 12.75 C1.35691406 11.97269531 1.21382813 11.19539062 1.06640625 10.39453125 C0.93105469 9.64042969 0.79570313 8.88632813 0.65625 8.109375 C0.46772461 7.07248535 0.46772461 7.07248535 0.27539062 6.01464844 C0 4 0 4 0 0 Z " fill="#9D1515" transform="translate(116,159)"/>
<path d="M0 0 C0.33 0 0.66 0 1 0 C0.67 3.96 0.34 7.92 0 12 C-2.64752004 9.42215154 -4.94432065 7.08351902 -7 4 C-6.01 3.67 -5.02 3.34 -4 3 C-3.01 4.485 -3.01 4.485 -2 6 C-1.34 4.02 -0.68 2.04 0 0 Z " fill="#BD2829" transform="translate(184,167)"/>
<path d="M0 0 C1.32 0.33 2.64 0.66 4 1 C3.79375 2.11375 3.5875 3.2275 3.375 4.375 C3.25125 5.57125 3.1275 6.7675 3 8 C3.66 8.66 4.32 9.32 5 10 C3.35 10 1.7 10 0 10 C0 6.7 0 3.4 0 0 Z " fill="#E1332F" transform="translate(156,159)"/>
<path d="M0 0 C2 3 2 3 2 7 C3.32 7 4.64 7 6 7 C6.33 7.66 6.66 8.32 7 9 C6 11 6 11 1 13 C0.67 8.71 0.34 4.42 0 0 Z " fill="#833939" transform="translate(120,164)"/>
<path d="M0 0 C0.33 0.99 0.66 1.98 1 3 C-1.97 3 -4.94 3 -8 3 C-8 2.01 -8 1.02 -8 0 C-4.71023192 -1.09658936 -3.28696233 -0.79953138 0 0 Z " fill="#4C6474" transform="translate(156,80)"/>
<path d="M0 0 C1.5 1.375 1.5 1.375 3 3 C3 3.66 3 4.32 3 5 C4.98 4.67 6.96 4.34 9 4 C9 4.99 9 5.98 9 7 C7 8.6875 7 8.6875 5 10 C5 9.01 5 8.02 5 7 C4.01 7 3.02 7 2 7 C1.34 4.69 0.68 2.38 0 0 Z " fill="#FEF982" transform="translate(146,220)"/>
<path d="M0 0 C0.99 1.485 0.99 1.485 2 3 C2.99 3.33 3.98 3.66 5 4 C5.66 2.68 6.32 1.36 7 0 C7 3.41321235 6.33132534 4.39472885 4.5 7.1875 C4.0359375 7.90292969 3.571875 8.61835938 3.09375 9.35546875 C2.7328125 9.89816406 2.371875 10.44085938 2 11 C1.67 10.34 1.34 9.68 1 9 C1.33 8.34 1.66 7.68 2 7 C1.34 6.67 0.68 6.34 0 6 C0 4.02 0 2.04 0 0 Z " fill="#EB8D8D" transform="translate(111,183)"/>
<path d="M0 0 C0.66 0.33 1.32 0.66 2 1 C1.67 3.64 1.34 6.28 1 9 C2.98 9 4.96 9 7 9 C7 9.99 7 10.98 7 12 C4.36 11.67 1.72 11.34 -1 11 C-0.67 7.37 -0.34 3.74 0 0 Z " fill="#877B78" transform="translate(156,172)"/>
<path d="M0 0 C0 0.99 0 1.98 0 3 C-2.1875 4.8125 -2.1875 4.8125 -5 6 C-7.8125 5.1875 -7.8125 5.1875 -10 4 C-10 3.01 -10 2.02 -10 1 C-9.0925 1.20625 -8.185 1.4125 -7.25 1.625 C-3.88972103 2.0127245 -2.75924185 1.80411967 0 0 Z " fill="#FEFBBE" transform="translate(157,213)"/>
<path d="M0 0 C0.33 0 0.66 0 1 0 C1 1.98 1 3.96 1 6 C2.65 6.33 4.3 6.66 6 7 C6.33 5.68 6.66 4.36 7 3 C6.67 5.31 6.34 7.62 6 10 C3.03 9.505 3.03 9.505 0 9 C0 6.03 0 3.06 0 0 Z " fill="#FEE763" transform="translate(135,191)"/>
<path d="M0 0 C1.32 1.32 2.64 2.64 4 4 C4.66 3.34 5.32 2.68 6 2 C6.99 5.3 7.98 8.6 9 12 C8.34 12 7.68 12 7 12 C5.2734375 9.8828125 5.2734375 9.8828125 3.375 7.125 C2.74335938 6.22007812 2.11171875 5.31515625 1.4609375 4.3828125 C0 2 0 2 0 0 Z " fill="#F2A9A9" transform="translate(180,176)"/>
<path d="M0 0 C-1.32 2.64 -2.64 5.28 -4 8 C-4.33 8 -4.66 8 -5 8 C-5 6.02 -5 4.04 -5 2 C-6.32 1.67 -7.64 1.34 -9 1 C-5.8035914 -0.06546953 -3.34252724 -0.07427838 0 0 Z " fill="#302927" transform="translate(175,170)"/>
<path d="M0 0 C0 0.66 0 1.32 0 2 C-4.30322683 3.46939453 -8.62297367 4.77443263 -13 6 C-12 3 -12 3 -8.75 1.3125 C-5.45873369 0.16055679 -3.4127883 -0.31025348 0 0 Z " fill="#FE9130" transform="translate(166,187)"/>
<path d="M0 0 C0.33 0 0.66 0 1 0 C1.02691685 2.45840605 1.04679802 4.91651882 1.0625 7.375 C1.07087891 8.07367188 1.07925781 8.77234375 1.08789062 9.4921875 C1.11328125 14.7734375 1.11328125 14.7734375 0 17 C-0.66 16.67 -1.32 16.34 -2 16 C-1.34 12.37 -0.68 8.74 0 5 C-0.66 5 -1.32 5 -2 5 C-1.34 3.35 -0.68 1.7 0 0 Z " fill="#FA4227" transform="translate(176,152)"/>
<path d="M0 0 C6.75 0.75 6.75 0.75 9 3 C8.625 5.125 8.625 5.125 8 7 C7.4225 6.525625 6.845 6.05125 6.25 5.5625 C4.07417916 4.0515133 2.57397552 3.45963849 0 3 C0 2.01 0 1.02 0 0 Z " fill="#8D7A7C" transform="translate(152,74)"/>
<path d="M0 0 C1.74627478 2.61941217 2.38722388 4.03824877 3 7 C4.32 7.33 5.64 7.66 7 8 C7.33 7.34 7.66 6.68 8 6 C8 7.32 8 8.64 8 10 C5.69 10 3.38 10 1 10 C0.67 6.7 0.34 3.4 0 0 Z " fill="#FDF973" transform="translate(145,278)"/>
<path d="M0 0 C0.66 0 1.32 0 2 0 C1.34 3.63 0.68 7.26 0 11 C-0.99 10.67 -1.98 10.34 -3 10 C-2.49287967 6.28111761 -1.88391785 3.26545761 0 0 Z " fill="#841411" transform="translate(179,160)"/>
<path d="M0 0 C0.87269531 -0.01417969 1.74539062 -0.02835938 2.64453125 -0.04296875 C5.29669085 0.19739594 6.91214999 0.84562691 9.1875 2.1875 C7.06381556 2.40884176 4.93845976 2.61420007 2.8125 2.8125 C1.62914062 2.92851562 0.44578125 3.04453125 -0.7734375 3.1640625 C-1.77632812 3.17179688 -2.77921875 3.17953125 -3.8125 3.1875 C-4.4725 2.5275 -5.1325 1.8675 -5.8125 1.1875 C-4.16504404 -0.45995596 -2.25914549 0.0165384 0 0 Z " fill="#6D2A25" transform="translate(132.8125,167.8125)"/>
<path d="M0 0 C2.04119788 1.61594832 4.04072937 3.2856382 6 5 C6 5.66 6 6.32 6 7 C5.34 7 4.68 7 4 7 C3.67 7.99 3.34 8.98 3 10 C2.67 10 2.34 10 2 10 C1.67 8.35 1.34 6.7 1 5 C0.67 5 0.34 5 0 5 C0 3.35 0 1.7 0 0 Z " fill="#DE2E2F" transform="translate(190,131)"/>
<path d="M0 0 C0.99 0 1.98 0 3 0 C2.67 3.3 2.34 6.6 2 10 C1.34 10 0.68 10 0 10 C0 6.7 0 3.4 0 0 Z " fill="#FE5958" transform="translate(173,80)"/>
<path d="M0 0 C2.45976489 3.68964734 3.12465307 5.27428479 3.0625 9.625 C3.05347656 10.44226563 3.04445312 11.25953125 3.03515625 12.1015625 C3.02355469 12.72804688 3.01195312 13.35453125 3 14 C-0.26566506 9.10150241 -0.09311493 5.68001091 0 0 Z " fill="#EC7D47" transform="translate(178,70)"/>
<path d="M0 0 C0.33 0 0.66 0 1 0 C1.33 5.28 1.66 10.56 2 16 C0.35 16.33 -1.3 16.66 -3 17 C-2.68289062 16.30519531 -2.36578125 15.61039063 -2.0390625 14.89453125 C-0.90598948 11.73811356 -0.59519989 9.02719833 -0.375 5.6875 C-0.30023438 4.61886719 -0.22546875 3.55023438 -0.1484375 2.44921875 C-0.09945312 1.64097656 -0.05046875 0.83273437 0 0 Z " fill="#C6C6C6" transform="translate(152,10)"/>
<path d="M0 0 C0.33 0 0.66 0 1 0 C1.33 4.29 1.66 8.58 2 13 C1.67 13 1.34 13 1 13 C1 11.35 1 9.7 1 8 C0.34 8 -0.32 8 -1 8 C-1.625 5.125 -1.625 5.125 -2 2 C-1.34 1.34 -0.68 0.68 0 0 Z " fill="#6E0C0C" transform="translate(114,130)"/>
<path d="M0 0 C1.32 0 2.64 0 4 0 C4 1.98 4 3.96 4 6 C2.68 6 1.36 6 0 6 C0 4.02 0 2.04 0 0 Z " fill="#9F0404" transform="translate(149,66)"/>
<path d="M0 0 C1.485 0.99 1.485 0.99 3 2 C3.40843923 4.71203652 3.13336867 7.2437142 3 10 C2.34 10 1.68 10 1 10 C-0.1577506 6.52674819 -0.06866652 3.63932552 0 0 Z " fill="#EDEDED" transform="translate(158,38)"/>
<path d="M0 0 C1.2065625 0.0309375 1.2065625 0.0309375 2.4375 0.0625 C2.4375 0.7225 2.4375 1.3825 2.4375 2.0625 C-1.6830746 4.06035435 -5.01444365 4.24085515 -9.5625 4.0625 C-9.5625 3.7325 -9.5625 3.4025 -9.5625 3.0625 C-8.1084375 2.5984375 -8.1084375 2.5984375 -6.625 2.125 C-0.53780864 0.01311728 -0.53780864 0.01311728 0 0 Z " fill="#FEBA3F" transform="translate(163.5625,188.9375)"/>
<path d="M0 0 C0.99 0 1.98 0 3 0 C3 2.31 3 4.62 3 7 C2.01 7.33 1.02 7.66 0 8 C0 5.36 0 2.72 0 0 Z " fill="#8E0909" transform="translate(146,66)"/>
<path d="M0 0 C2 2 2 2 2.125 4.625 C2.08375 5.40875 2.0425 6.1925 2 7 C-0.97 7 -3.94 7 -7 7 C-3 5 -3 5 0 5 C0 3.35 0 1.7 0 0 Z " fill="#544F4E" transform="translate(168,58)"/>
<path d="M0 0 C0.66 0 1.32 0 2 0 C2 2.31 2 4.62 2 7 C1.01 7 0.02 7 -1 7 C-1.04254356 5.00045254 -1.04080783 2.99958364 -1 1 C-0.67 0.67 -0.34 0.34 0 0 Z " fill="#E1E1E0" transform="translate(161,172)"/>
<path d="M0 0 C1.32 0.33 2.64 0.66 4 1 C3.34 3.31 2.68 5.62 2 8 C1.34 8 0.68 8 0 8 C0 5.36 0 2.72 0 0 Z " fill="#3A3A3A" transform="translate(142,172)"/>
<path d="M0 0 C0.33 0 0.66 0 1 0 C1 2.97 1 5.94 1 9 C-0.98 9.99 -0.98 9.99 -3 11 C-2.01 7.37 -1.02 3.74 0 0 Z " fill="#712622" transform="translate(129,65)"/>
<path d="M0 0 C0.66 0 1.32 0 2 0 C2 2.64 2 5.28 2 8 C1.01 8 0.02 8 -1 8 C-0.67 5.36 -0.34 2.72 0 0 Z " fill="#DD0303" transform="translate(159,66)"/>
<path d="M0 0 C3.0916909 2.52956528 3.90931332 5.22454612 5 9 C4.34 9 3.68 9 3 9 C3 8.34 3 7.68 3 7 C2.01 7 1.02 7 0 7 C0 4.69 0 2.38 0 0 Z " fill="#A8A8A8" transform="translate(167,39)"/>
<path d="M0 0 C0.33 0 0.66 0 1 0 C1.24954005 1.43410368 1.47392642 2.87260072 1.6875 4.3125 C1.87892578 5.51326172 1.87892578 5.51326172 2.07421875 6.73828125 C2 9 2 9 -1 12 C-0.67 8.04 -0.34 4.08 0 0 Z " fill="#952618" transform="translate(183,135)"/>
<path d="M0 0 C0.66 0.33 1.32 0.66 2 1 C0.9375 3 0.9375 3 -1 5 C-4.6875 5.25 -4.6875 5.25 -8 5 C-7.4225 4.731875 -6.845 4.46375 -6.25 4.1875 C-3.9674132 2.98280141 -2.0262058 1.59201885 0 0 Z " fill="#7C0808" transform="translate(146,163)"/>
<path d="M0 0 C0.99 0 1.98 0 3 0 C3.1875 2.375 3.1875 2.375 3 5 C2.01 5.66 1.02 6.32 0 7 C0 4.69 0 2.38 0 0 Z " fill="#D6D5D5" transform="translate(162,87)"/>
<path d="M0 0 C2.09350689 3.4019487 2.17942163 6.05272412 2 10 C0.68 9.34 -0.64 8.68 -2 8 C-1.34 8 -0.68 8 0 8 C0 5.36 0 2.72 0 0 Z " fill="#EC211E" transform="translate(161,66)"/>
<path d="M0 0 C2 3 2 3 2 6 C2.66 6 3.32 6 4 6 C3.34 7.32 2.68 8.64 2 10 C1.67 10 1.34 10 1 10 C0.67 6.7 0.34 3.4 0 0 Z " fill="#AE2E2E" transform="translate(106,189)"/>
<path d="M0 0 C2.375 -0.1875 2.375 -0.1875 5 0 C5.66 0.99 6.32 1.98 7 3 C5.35 3.33 3.7 3.66 2 4 C1.34 2.68 0.68 1.36 0 0 Z " fill="#624643" transform="translate(142,180)"/>
<path d="M0 0 C0.66 0.99 1.32 1.98 2 3 C0.35 4.32 -1.3 5.64 -3 7 C-3 3.48283697 -2.17554415 2.62878252 0 0 Z " fill="#989898" transform="translate(148,27)"/>
</svg>
