<svg width="80" height="80" viewBox="0 0 80 80" fill="none" xmlns="http://www.w3.org/2000/svg">
<g clip-path="url(#clip0_2762_13837)">
<path d="M79.8784 40.0002C78.9933 93.3841 0.826835 93.261 0 40.0002C0.857458 -13.2637 78.9597 -13.4031 79.8784 40.0002Z" fill="url(#paint0_linear_2762_13837)"/>
<path d="M79.8806 39.9957C80.2971 86.4789 13.498 95.2335 1.61914 51.4503C29.364 60.7852 62.2323 46.7732 75.3759 21.2578C78.3348 27.0066 79.8836 33.4492 79.8806 39.9957Z" fill="white" fill-opacity="0.2"/>
<path opacity="0.6" d="M19.5469 66.9788C12.3596 66.0486 5.96847 57.3522 7.73851 49.625C12.5005 54.2211 17.4278 60.574 19.5469 66.9788Z" fill="white"/>
<path opacity="0.2" d="M40.0176 5.73894C57.5373 1.74893 79.2157 20.7266 73.3972 39.9377C70.2185 22.1139 56.245 9.92344 40.0176 5.73894Z" fill="white"/>
<g clip-path="url(#clip1_2762_13837)">
<path d="M39.9428 22.1328C36.4053 22.1328 32.9472 23.1818 30.0058 25.1472C27.0644 27.1125 24.7719 29.906 23.4182 33.1742C22.0644 36.4425 21.7102 40.0388 22.4003 43.5084C23.0905 46.978 24.794 50.165 27.2954 52.6664C29.7968 55.1679 32.9838 56.8713 36.4534 57.5615C39.923 58.2516 43.5193 57.8974 46.7876 56.5437C50.0558 55.1899 52.8493 52.8974 54.8146 49.956C56.78 47.0147 57.829 43.5565 57.829 40.019C57.829 37.6701 57.3664 35.3443 56.4675 33.1742C55.5686 31.0042 54.2512 29.0324 52.5903 27.3716C50.9294 25.7107 48.9576 24.3932 46.7876 23.4943C44.6175 22.5955 42.2917 22.1328 39.9428 22.1328ZM47.0973 44.9377C47.0973 45.5307 46.8617 46.0993 46.4425 46.5186C46.0232 46.9379 45.4545 47.1735 44.8615 47.1735H35.0241C34.4312 47.1735 33.8625 46.9379 33.4432 46.5186C33.0239 46.0993 32.7884 45.5307 32.7884 44.9377V35.1003C32.7884 34.5073 33.0239 33.9387 33.4432 33.5194C33.8625 33.1001 34.4312 32.8645 35.0241 32.8645H44.8615C45.4545 32.8645 46.0232 33.1001 46.4425 33.5194C46.8617 33.9387 47.0973 34.5073 47.0973 35.1003V44.9377Z" fill="white"/>
<path d="M46.2876 32.8516H33.5976C33.1505 32.8516 32.7881 33.214 32.7881 33.661V46.351C32.7881 46.7981 33.1505 47.1605 33.5976 47.1605H46.2876C46.7346 47.1605 47.097 46.7981 47.097 46.351V33.661C47.097 33.214 46.7346 32.8516 46.2876 32.8516Z" fill="#FF4B4B"/>
</g>
</g>
<defs>
<linearGradient id="paint0_linear_2762_13837" x1="79.8784" y1="79.992" x2="12.6564" y2="69.906" gradientUnits="userSpaceOnUse">
<stop stop-color="#C30303"/>
<stop offset="1" stop-color="#FF5656"/>
</linearGradient>
<clipPath id="clip0_2762_13837">
<rect width="80" height="80" fill="white"/>
</clipPath>
<clipPath id="clip1_2762_13837">
<rect width="42.9268" height="42.9268" fill="white" transform="translate(18.4785 18.5312)"/>
</clipPath>
</defs>
</svg>
