<svg width="80" height="80" viewBox="0 0 80 80" fill="none" xmlns="http://www.w3.org/2000/svg">
<path d="M70.6534 8.95056C69.7215 8.11756 61.1087 0.990837 39.9925 0.816406C18.859 0.994396 10.2584 8.13892 9.35599 8.947C-2.93229 19.2704 0.363207 53.8005 0.505509 55.2636C1.49295 66.1388 7.6206 73.2905 19.2251 77.1279C28.4661 80.1822 38.1582 80.0434 39.9943 79.9758C40.2181 79.9758 40.7058 79.9971 41.4121 79.9971C44.6104 79.9971 52.9004 79.7159 60.7755 77.1137C72.3853 73.2762 78.5077 66.1245 79.4934 55.2636C79.641 53.8148 82.9347 19.2811 70.6534 8.95056Z" fill="url(#paint0_linear_2434_41923)"/>
<path d="M70.4969 8.06651C69.7681 7.41507 61.1814 0.17443 39.994 0C18.8223 0.17443 10.2356 7.41507 9.5067 8.06651C-2.42236 18.0945 0.696134 51.4249 0.90091 53.4754C1.85364 63.9661 7.8685 70.9184 19.296 74.6775C28.74 77.803 38.7324 77.5717 40.0079 77.5254C40.23 77.5254 40.7159 77.5467 41.4188 77.5467C44.7472 77.5467 52.9192 77.2513 60.718 74.6704C72.1403 70.897 78.1552 63.959 79.1131 53.4682C79.3075 51.4249 82.4277 18.0945 70.4969 8.06651Z" fill="#FE6666"/>
<path d="M69.7135 11.848C69.7135 11.848 61.5208 4.28702 40.0002 4.10547C18.4814 4.28702 10.2852 11.848 10.2852 11.848C-0.38922 20.7725 2.86116 52.6932 2.86116 52.6932C4.64167 72.6281 33.3554 73.6712 39.9985 73.4327C46.6415 73.6712 75.3553 72.6424 77.1358 52.6932C77.1358 52.6932 80.3879 20.7725 69.7135 11.848Z" fill="#FFB8B8"/>
<path d="M41.4571 70.5302L41.4341 70.5294L41.411 70.5302C38.266 70.6391 29.8684 70.4538 21.9702 67.9444C14.056 65.4299 6.86091 60.6632 5.6609 51.7371L5.66072 51.7358C5.65472 51.6912 5.65015 51.6572 5.64367 51.6107C5.54814 50.9244 4.55453 43.5513 4.7561 35.3168C4.8569 31.1986 5.25624 26.8902 6.20517 23.1057C7.15759 19.3073 8.64284 16.1218 10.8518 14.1556C10.9847 14.0372 11.111 13.9267 11.2399 13.8211C12.456 12.8249 20.2974 7.04473 38.8709 6.89327C57.5863 7.04585 65.8854 12.9109 67.1028 13.8554C67.2248 13.9501 67.3407 14.0451 67.4677 14.1502C69.8549 16.1239 71.6009 19.3215 72.8571 23.1204C74.1095 26.9077 74.8516 31.22 75.2791 35.3414C76.1342 43.583 75.7228 50.968 75.6811 51.6613C75.6782 51.7088 75.6762 51.7441 75.6737 51.7898C75.1783 60.6857 68.3929 65.4342 60.6849 67.946C52.9909 70.4534 44.6114 70.6392 41.4571 70.5302Z" fill="#FF4B4B" stroke="url(#paint1_linear_2434_41923)" stroke-width="1.33338"/>
<path d="M34.3072 6.40234C17.0887 7.47028 10.6226 13.4935 10.6226 13.4935C0.697913 21.859 5.00167 51.772 5.00167 51.772C5.08712 52.4261 5.20336 53.0615 5.34875 53.6694C5.01729 22.9946 17.5537 11.8097 34.3072 6.40234Z" fill="#FFB8B8"/>
<path d="M13.7622 15.8189C12.5614 13.6047 10.0884 14.5267 8.23503 17.8765C6.38164 21.2263 5.85408 25.7401 7.05844 27.9543C8.2628 30.1685 8.88928 26.6834 10.7409 23.3265C12.5926 19.9696 14.9614 18.0331 13.7622 15.8189Z" fill="white"/>
<path d="M6.63951 28.819C5.94536 28.2636 5.17658 28.6588 4.82082 30.1076C4.46507 31.5564 4.66117 33.5143 5.34144 34.0732C6.02171 34.6321 6.87205 33.9059 7.22781 32.4535C7.58356 31.0011 7.32499 29.3778 6.63951 28.819Z" fill="white"/>
<path d="M75.1448 29.6172C75.0943 31.3853 74.9783 33.143 74.7977 34.875C72.9305 53.0086 64.3247 65.9165 52.8867 70.4445C63.0526 68.8711 75.6828 64.311 76.3353 51.7627C76.3405 51.7627 77.0798 40.3251 75.1448 29.6172Z" fill="#FFB8B8"/>
<path d="M69.6479 59.8739C70.7551 61.5114 72.7959 60.2726 74.205 57.108C75.6142 53.9433 75.8606 50.0488 74.7534 48.4113C73.6462 46.7738 73.1915 49.5113 71.7894 52.6831C70.3872 55.8549 68.5407 58.2328 69.6479 59.8739Z" fill="white"/>
<g clip-path="url(#clip0_2434_41923)">
<path d="M39.9997 22.332C36.7033 22.332 33.481 23.3095 30.7402 25.1409C27.9994 26.9722 25.8632 29.5752 24.6017 32.6206C23.3402 35.6661 23.0102 39.0172 23.6533 42.2502C24.2963 45.4832 25.8837 48.4529 28.2146 50.7838C30.5454 53.1147 33.5152 54.702 36.7482 55.3451C39.9812 55.9882 43.3323 55.6581 46.3777 54.3967C49.4232 53.1352 52.0261 50.999 53.8575 48.2582C55.6889 45.5174 56.6663 42.2951 56.6663 38.9987C56.6663 36.81 56.2353 34.6427 55.3977 32.6206C54.5601 30.5985 53.3324 28.7612 51.7848 27.2136C50.2372 25.6659 48.3998 24.4383 46.3777 23.6007C44.3556 22.7631 42.1884 22.332 39.9997 22.332ZM46.6663 43.582C46.6663 44.1346 46.4469 44.6645 46.0562 45.0552C45.6655 45.4459 45.1355 45.6654 44.583 45.6654H35.4163C34.8638 45.6654 34.3339 45.4459 33.9432 45.0552C33.5525 44.6645 33.333 44.1346 33.333 43.582V34.4154C33.333 33.8628 33.5525 33.3329 33.9432 32.9422C34.3339 32.5515 34.8638 32.332 35.4163 32.332H44.583C45.1355 32.332 45.6655 32.5515 46.0562 32.9422C46.4469 33.3329 46.6663 33.8628 46.6663 34.4154V43.582Z" fill="white"/>
<path d="M45.1578 32.332H34.8416C34.0084 32.332 33.333 33.0074 33.333 33.8406V44.1568C33.333 44.99 34.0084 45.6654 34.8416 45.6654H45.1578C45.9909 45.6654 46.6663 44.99 46.6663 44.1568V33.8406C46.6663 33.0074 45.9909 32.332 45.1578 32.332Z" fill="#FF4B4B"/>
</g>
<defs>
<linearGradient id="paint0_linear_2434_41923" x1="80.0026" y1="80.0004" x2="12.7112" y2="69.7851" gradientUnits="userSpaceOnUse">
<stop stop-color="#C30303"/>
<stop offset="1" stop-color="#FF5656"/>
</linearGradient>
<linearGradient id="paint1_linear_2434_41923" x1="76.4831" y1="71.22" x2="15.8644" y2="61.071" gradientUnits="userSpaceOnUse">
<stop stop-color="#C30303"/>
<stop offset="1" stop-color="#FF5656"/>
</linearGradient>
<clipPath id="clip0_2434_41923">
<rect width="40" height="40" fill="white" transform="translate(20 19)"/>
</clipPath>
</defs>
</svg>
