<?xml version="1.0" encoding="UTF-8"?>
<svg version="1.1" xmlns="http://www.w3.org/2000/svg" width="360" height="168">
<path d="M0 0 C118.8 0 237.6 0 360 0 C360 55.44 360 110.88 360 168 C241.2 168 122.4 168 0 168 C0 112.56 0 57.12 0 0 Z " fill="#F4F4F3" transform="translate(0,0)"/>
<path d="M0 0 C1.61888547 -0.02017402 3.23775226 -0.04189777 4.8565979 -0.06504822 C9.24599347 -0.12164829 13.63516207 -0.1516826 18.02485657 -0.17328572 C20.77779303 -0.187278 23.53066774 -0.20567393 26.28356934 -0.22530937 C34.92640147 -0.28537275 43.5690857 -0.32859111 52.2121048 -0.34852701 C62.13238898 -0.37164873 72.05013396 -0.45024602 81.96961021 -0.57802969 C89.67030061 -0.67373413 97.37028181 -0.71815465 105.071558 -0.72543138 C109.65464167 -0.73087486 114.23524398 -0.75659399 118.81768799 -0.83635139 C139.5791563 -1.17795042 155.56490483 -0.76151684 172.96308708 12.08168983 C176.23815195 14.4476168 179.71826187 16.40758249 183.23046875 18.39477539 C184.37895191 19.07369717 185.52549316 19.75591628 186.66992188 20.44165039 C190.06291235 22.47140375 193.45870672 24.49634065 196.85546875 26.51977539 C197.8297583 27.10210937 198.80404785 27.68444336 199.80786133 28.28442383 C201.22979106 29.12034705 202.67313366 29.92274847 204.1484375 30.66040039 C204.1484375 72.90040039 204.1484375 115.14040039 204.1484375 158.66040039 C187.1484375 158.66040039 187.1484375 158.66040039 183.51953125 155.97680664 C182.45288086 154.18798828 182.45288086 154.18798828 181.5859375 152.22290039 C181.06688843 151.23181274 181.06688843 151.23181274 180.53735352 150.22070312 C176.97378687 142.63583965 177.33951905 134.81949138 178.1484375 126.66040039 C179.1384375 126.66040039 180.1284375 126.66040039 181.1484375 126.66040039 C180.66046188 126.14040466 180.17248627 125.62040894 179.66972351 125.08465576 C177.64617081 121.86000999 177.78708776 119.66695285 177.80786133 115.87231445 C177.80742325 115.19873398 177.80698517 114.5251535 177.80653381 113.8311615 C177.80861804 111.61248435 177.83193051 109.39456996 177.85546875 107.17602539 C177.86106604 105.63474948 177.86533551 104.09346822 177.86833191 102.55218506 C177.87977032 98.50129383 177.90922861 94.45072678 177.94244385 90.39996338 C177.97316652 86.26416407 177.98684193 82.12831224 178.00195312 77.99243164 C178.03409956 69.88158942 178.08685904 61.77107262 178.1484375 53.66040039 C168.9084375 53.66040039 159.6684375 53.66040039 150.1484375 53.66040039 C150.1484375 61.91040039 150.1484375 70.16040039 150.1484375 78.66040039 C139.1484375 78.66040039 139.1484375 78.66040039 135.9609375 75.59790039 C132.93259179 69.53027632 133.584895 62.24579707 134.1484375 55.66040039 C134.4784375 55.00040039 134.8084375 54.34040039 135.1484375 53.66040039 C90.9284375 53.66040039 46.7084375 53.66040039 1.1484375 53.66040039 C0.4884375 55.31040039 -0.1715625 56.96040039 -0.8515625 58.66040039 C-0.1915625 58.66040039 0.4684375 58.66040039 1.1484375 58.66040039 C1.8864785 72.29365779 1.8864785 72.29365779 -2.8515625 78.66040039 C-6.8115625 78.66040039 -10.7715625 78.66040039 -14.8515625 78.66040039 C-14.8515625 70.41040039 -14.8515625 62.16040039 -14.8515625 53.66040039 C-25.0815625 53.66040039 -35.3115625 53.66040039 -45.8515625 53.66040039 C-45.8515625 58.69032227 -45.8515625 63.72024414 -45.8515625 68.90258789 C-45.8515625 87.82185872 -45.8515625 106.74112956 -45.8515625 125.66040039 C-45.81490479 126.31387451 -45.77824707 126.96734863 -45.74047852 127.640625 C-44.63721762 147.43348455 -44.63721762 147.43348455 -51.22265625 155.89477539 C-52.08511077 156.82961818 -52.95218526 157.76102315 -53.8515625 158.66040039 C-56.71423817 158.73365207 -59.5522815 158.75278244 -62.4140625 158.72290039 C-63.22037109 158.71838867 -64.02667969 158.71387695 -64.85742188 158.70922852 C-66.85550006 158.69740557 -68.85354033 158.67946953 -70.8515625 158.66040039 C-71.08527421 142.07513525 -71.26155671 125.49040495 -71.36968422 108.90389061 C-71.4212271 101.20221252 -71.49147965 93.50155807 -71.60595703 85.80053711 C-71.70570162 79.087401 -71.77016021 72.37500614 -71.79244745 65.66114962 C-71.80547493 62.10645241 -71.83602808 58.55387549 -71.90886307 54.99985886 C-71.9895581 51.03002274 -71.9914575 47.06225112 -71.98681641 43.09155273 C-72.02276917 41.91622986 -72.05872192 40.74090698 -72.09576416 39.52996826 C-72.054562 36.27717111 -71.92809445 33.73236078 -70.8515625 30.66040039 C-67.83664856 27.84163583 -64.6267413 26.25878531 -60.8515625 24.66040039 C-59.61393447 24.02871289 -58.37916701 23.39136278 -57.1484375 22.74633789 C-55.97796875 22.18172852 -54.8075 21.61711914 -53.6015625 21.03540039 C-46.73195559 17.67117798 -39.99965461 14.08077919 -33.2890625 10.41040039 C-32.36125977 9.90299316 -31.43345703 9.39558594 -30.47753906 8.87280273 C-25.16327134 6.00443472 -25.16327134 6.00443472 -20.18226624 2.61238098 C-14.12961117 -0.8081947 -6.75606058 0.02502388 0 0 Z " fill="#A65F39" transform="translate(113.8515625,5.339599609375)"/>
<path d="M0 0 C0.65715028 -0.01143791 1.31430056 -0.02287582 1.99136448 -0.03466034 C4.20464359 -0.07157421 6.41795505 -0.10110567 8.63134766 -0.13037109 C10.21505565 -0.15463815 11.79876022 -0.1791288 13.38246155 -0.2038269 C27.92994992 -0.42151606 42.47879929 -0.54196569 57.02754211 -0.63812256 C66.79383364 -0.70411771 76.55811292 -0.79801293 86.32324219 -0.96533203 C94.85388666 -1.11149036 103.38313243 -1.20278907 111.91501236 -1.23080635 C116.4200474 -1.24731252 120.92135712 -1.28854114 125.42523193 -1.39532471 C147.97448757 -1.90752572 163.37901724 -0.19049201 182.04315186 13.35212708 C186.09710879 16.23616261 190.36801042 18.72941665 194.67041016 21.22119141 C195.29562057 21.583564 195.92083099 21.94593658 196.56498718 22.31929016 C199.17128222 23.82159842 201.78405122 25.31247529 204.39697266 26.80322266 C205.52232422 27.50511719 205.52232422 27.50511719 206.67041016 28.22119141 C206.67041016 28.55119141 206.67041016 28.88119141 206.67041016 29.22119141 C119.22041016 29.22119141 31.77041016 29.22119141 -58.32958984 29.22119141 C-54.86522494 26.44969949 -52.38047846 24.55796735 -48.58349609 22.62744141 C-47.67365967 22.15991455 -46.76382324 21.6923877 -45.82641602 21.21069336 C-44.85808838 20.71915771 -43.88976074 20.22762207 -42.89208984 19.72119141 C-31.9002562 14.07024229 -21.03742074 8.20695271 -10.21118164 2.24584961 C-6.54814931 0.25107256 -4.22488265 0.06638921 0 0 Z " fill="#DF9163" transform="translate(106.32958984375,6.77880859375)"/>
<path d="M0 0 C1.61888547 -0.02017402 3.23775226 -0.04189777 4.8565979 -0.06504822 C9.24599347 -0.12164829 13.63516207 -0.1516826 18.02485657 -0.17328572 C20.77779303 -0.187278 23.53066774 -0.20567393 26.28356934 -0.22530937 C34.92640147 -0.28537275 43.5690857 -0.32859111 52.2121048 -0.34852701 C62.13238898 -0.37164873 72.05013396 -0.45024602 81.96961021 -0.57802969 C89.67030061 -0.67373413 97.37028181 -0.71815465 105.071558 -0.72543138 C109.65464167 -0.73087486 114.23524398 -0.75659399 118.81768799 -0.83635139 C139.5791563 -1.17795042 155.56490483 -0.76151684 172.96308708 12.08168983 C176.23815195 14.4476168 179.71826187 16.40758249 183.23046875 18.39477539 C184.37895191 19.07369717 185.52549316 19.75591628 186.66992188 20.44165039 C190.06291235 22.47140375 193.45870672 24.49634065 196.85546875 26.51977539 C197.8297583 27.10210937 198.80404785 27.68444336 199.80786133 28.28442383 C201.22979106 29.12034705 202.67313366 29.92274847 204.1484375 30.66040039 C204.1484375 72.90040039 204.1484375 115.14040039 204.1484375 158.66040039 C187.1484375 158.66040039 187.1484375 158.66040039 183.51953125 155.97680664 C182.45288086 154.18798828 182.45288086 154.18798828 181.5859375 152.22290039 C181.06688843 151.23181274 181.06688843 151.23181274 180.53735352 150.22070312 C176.97378687 142.63583965 177.33951905 134.81949138 178.1484375 126.66040039 C179.1384375 126.66040039 180.1284375 126.66040039 181.1484375 126.66040039 C180.66046188 126.14040466 180.17248627 125.62040894 179.66972351 125.08465576 C177.64617081 121.86000999 177.78708776 119.66695285 177.80786133 115.87231445 C177.80742325 115.19873398 177.80698517 114.5251535 177.80653381 113.8311615 C177.80861804 111.61248435 177.83193051 109.39456996 177.85546875 107.17602539 C177.86106604 105.63474948 177.86533551 104.09346822 177.86833191 102.55218506 C177.87977032 98.50129383 177.90922861 94.45072678 177.94244385 90.39996338 C177.97316652 86.26416407 177.98684193 82.12831224 178.00195312 77.99243164 C178.03409956 69.88158942 178.08685904 61.77107262 178.1484375 53.66040039 C168.9084375 53.66040039 159.6684375 53.66040039 150.1484375 53.66040039 C150.1484375 61.91040039 150.1484375 70.16040039 150.1484375 78.66040039 C139.1484375 78.66040039 139.1484375 78.66040039 135.9609375 75.59790039 C132.93259179 69.53027632 133.584895 62.24579707 134.1484375 55.66040039 C134.4784375 55.00040039 134.8084375 54.34040039 135.1484375 53.66040039 C90.9284375 53.66040039 46.7084375 53.66040039 1.1484375 53.66040039 C0.4884375 55.31040039 -0.1715625 56.96040039 -0.8515625 58.66040039 C-0.1915625 58.66040039 0.4684375 58.66040039 1.1484375 58.66040039 C1.8864785 72.29365779 1.8864785 72.29365779 -2.8515625 78.66040039 C-6.8115625 78.66040039 -10.7715625 78.66040039 -14.8515625 78.66040039 C-14.8515625 70.41040039 -14.8515625 62.16040039 -14.8515625 53.66040039 C-25.0815625 53.66040039 -35.3115625 53.66040039 -45.8515625 53.66040039 C-45.8515625 58.69032227 -45.8515625 63.72024414 -45.8515625 68.90258789 C-45.8515625 87.82185872 -45.8515625 106.74112956 -45.8515625 125.66040039 C-45.81490479 126.31387451 -45.77824707 126.96734863 -45.74047852 127.640625 C-44.63721762 147.43348455 -44.63721762 147.43348455 -51.22265625 155.89477539 C-52.08511077 156.82961818 -52.95218526 157.76102315 -53.8515625 158.66040039 C-56.71423817 158.73365207 -59.5522815 158.75278244 -62.4140625 158.72290039 C-63.22037109 158.71838867 -64.02667969 158.71387695 -64.85742188 158.70922852 C-66.85550006 158.69740557 -68.85354033 158.67946953 -70.8515625 158.66040039 C-71.08527421 142.07513525 -71.26155671 125.49040495 -71.36968422 108.90389061 C-71.4212271 101.20221252 -71.49147965 93.50155807 -71.60595703 85.80053711 C-71.70570162 79.087401 -71.77016021 72.37500614 -71.79244745 65.66114962 C-71.80547493 62.10645241 -71.83602808 58.55387549 -71.90886307 54.99985886 C-71.9895581 51.03002274 -71.9914575 47.06225112 -71.98681641 43.09155273 C-72.02276917 41.91622986 -72.05872192 40.74090698 -72.09576416 39.52996826 C-72.054562 36.27717111 -71.92809445 33.73236078 -70.8515625 30.66040039 C-67.83664856 27.84163583 -64.6267413 26.25878531 -60.8515625 24.66040039 C-59.61393447 24.02871289 -58.37916701 23.39136278 -57.1484375 22.74633789 C-55.97796875 22.18172852 -54.8075 21.61711914 -53.6015625 21.03540039 C-46.73195559 17.67117798 -39.99965461 14.08077919 -33.2890625 10.41040039 C-32.36125977 9.90299316 -31.43345703 9.39558594 -30.47753906 8.87280273 C-25.16327134 6.00443472 -25.16327134 6.00443472 -20.18226624 2.61238098 C-14.12961117 -0.8081947 -6.75606058 0.02502388 0 0 Z M-34.75462914 12.26227379 C-37.62319845 14.17488729 -40.60160108 15.73635883 -43.6640625 17.31665039 C-45.39445394 18.26232943 -47.12371375 19.21008358 -48.8515625 20.16040039 C-49.7384375 20.64508789 -50.6253125 21.12977539 -51.5390625 21.62915039 C-56.33878423 24.25756943 -61.10983971 26.92875574 -65.8515625 29.66040039 C-65.8515625 29.99040039 -65.8515625 30.32040039 -65.8515625 30.66040039 C21.5984375 30.66040039 109.0484375 30.66040039 199.1484375 30.66040039 C196.6609544 28.17291729 195.18037072 26.98021365 192.19921875 25.40258789 C186.50272625 22.323465 180.9238571 19.05655078 175.3359375 15.78540039 C173.83063477 14.90561523 173.83063477 14.90561523 172.29492188 14.00805664 C170.38670053 12.89278276 168.47870648 11.77711979 166.57104492 10.66088867 C165.44158447 10.00072754 164.31212402 9.34056641 163.1484375 8.66040039 C162.35918192 8.10204782 161.56992634 7.54369524 160.75675392 6.96842289 C152.27829381 1.32820388 144.87120068 0.62792708 135.00463867 0.67529297 C133.41455795 0.65757999 131.82450707 0.63699392 130.23449707 0.61378479 C125.94635824 0.56086931 121.65925996 0.55230217 117.37083602 0.55546403 C113.76858204 0.55474828 110.16654488 0.53386472 106.56435567 0.5137369 C98.04642118 0.4672418 89.52901779 0.4588757 81.01098633 0.47314453 C72.28403171 0.48697934 63.55949026 0.43094817 54.83304423 0.3407734 C47.29351752 0.26574133 39.75475909 0.23827345 32.21486646 0.24664611 C27.73274217 0.25099127 23.2525333 0.23806044 18.77077293 0.17768288 C-1.48338771 -0.07454982 -17.36525461 0.49253059 -34.75462914 12.26227379 Z M-69.8515625 36.66040039 C-69.8515625 76.59040039 -69.8515625 116.52040039 -69.8515625 157.66040039 C-64.9015625 157.66040039 -59.9515625 157.66040039 -54.8515625 157.66040039 C-54.8515625 151.39040039 -54.8515625 145.12040039 -54.8515625 138.66040039 C-57.1615625 138.66040039 -59.4715625 138.66040039 -61.8515625 138.66040039 C-61.8515625 136.68040039 -61.8515625 134.70040039 -61.8515625 132.66040039 C-59.5415625 132.66040039 -57.2315625 132.66040039 -54.8515625 132.66040039 C-54.8515625 105.93040039 -54.8515625 79.20040039 -54.8515625 51.66040039 C25.3384375 51.66040039 105.5284375 51.66040039 188.1484375 51.66040039 C188.1484375 79.05040039 188.1484375 106.44040039 188.1484375 134.66040039 C190.1284375 134.66040039 192.1084375 134.66040039 194.1484375 134.66040039 C194.1484375 136.31040039 194.1484375 137.96040039 194.1484375 139.66040039 C192.1684375 139.66040039 190.1884375 139.66040039 188.1484375 139.66040039 C188.1484375 145.60040039 188.1484375 151.54040039 188.1484375 157.66040039 C192.7684375 157.66040039 197.3884375 157.66040039 202.1484375 157.66040039 C202.1484375 118.06040039 202.1484375 78.46040039 202.1484375 37.66040039 C180.60013105 37.47826946 180.60013105 37.47826946 159.05175781 37.3046875 C158.31831351 37.29894773 157.5848692 37.29320797 156.82919931 37.28729427 C151.35228229 37.24452689 145.875361 37.20232873 140.3984375 37.16040039 C139.23523641 37.15147758 139.23523641 37.15147758 138.0485363 37.14237452 C99.85281931 36.84993514 61.6578648 36.61816451 23.4609375 36.59399414 C22.38915819 36.59327435 22.38915819 36.59327435 21.29572678 36.59254003 C-9.08670222 36.5732841 -39.46918093 36.62723185 -69.8515625 36.66040039 Z " fill="#3A190B" transform="translate(113.8515625,5.339599609375)"/>
<path d="M0 0 C1.60142637 -0.01307151 3.20283404 -0.02863094 4.80421448 -0.04646301 C9.12077096 -0.08635158 13.436535 -0.08840102 17.75323963 -0.08077312 C21.37352011 -0.07754378 24.99364461 -0.09226557 28.61389136 -0.10658938 C37.16507829 -0.13977924 45.71586981 -0.1412427 54.26708984 -0.12304688 C63.04944089 -0.10494464 71.83034796 -0.14183483 80.61245275 -0.20575708 C88.1874969 -0.25883869 95.76208471 -0.27657262 103.33730769 -0.26684386 C107.84623594 -0.26144014 112.35413463 -0.26895532 116.86289215 -0.31098747 C121.10890536 -0.349095 125.35269231 -0.34255501 129.59867668 -0.30375481 C131.14325446 -0.2967371 132.68799508 -0.30457237 134.23238564 -0.32962418 C146.24686114 -0.51022735 155.02307232 2.64087137 164.74511719 9.82397461 C165.07511719 10.81397461 165.40511719 11.80397461 165.74511719 12.82397461 C167.74177033 14.50936062 167.74177033 14.50936062 169.74511719 15.82397461 C165.32655425 16.91892955 161.01143584 16.96678306 156.48860168 16.95768738 C155.66086312 16.95995293 154.83312455 16.96221849 153.98030299 16.9645527 C151.20894103 16.9708789 148.43762814 16.97006424 145.66625977 16.96923828 C143.67864417 16.9722305 141.69102916 16.97563318 139.70341492 16.97941589 C134.30705149 16.9882505 128.91070392 16.99059369 123.51433396 16.99123168 C119.01334041 16.99218088 114.51235057 16.99585905 110.01135844 16.99940377 C99.39892781 17.00754517 88.78650566 17.00998818 78.17407227 17.00927734 C67.2114367 17.00867562 56.24885019 17.01924704 45.28622705 17.03502101 C35.88234881 17.04807198 26.47848667 17.05346232 17.07459944 17.05282193 C11.45415788 17.05256636 5.83375998 17.05545048 0.21332741 17.06599998 C-5.06682361 17.07564071 -10.34688883 17.07578802 -15.62704277 17.06848335 C-17.56933975 17.06743269 -19.51164196 17.06982867 -21.4539299 17.07584381 C-24.09582875 17.08349865 -26.73742643 17.07896267 -29.37931824 17.07121277 C-30.54442115 17.07892811 -30.54442115 17.07892811 -31.73306149 17.08679932 C-37.02661085 17.05224657 -37.02661085 17.05224657 -39.25488281 14.82397461 C-38.32675781 14.55584961 -37.39863281 14.28772461 -36.44238281 14.01147461 C-33.42371872 12.88687426 -32.33936851 12.11690888 -30.25488281 9.82397461 C-29.59488281 9.82397461 -28.93488281 9.82397461 -28.25488281 9.82397461 C-28.25488281 8.83397461 -28.25488281 7.84397461 -28.25488281 6.82397461 C-18.91481882 0.9861158 -10.7351099 -0.0584861 0 0 Z " fill="#DA8959" transform="translate(116.2548828125,6.176025390625)"/>
<path d="M0 0 C1.61888547 -0.02017402 3.23775226 -0.04189777 4.8565979 -0.06504822 C9.24599347 -0.12164829 13.63516207 -0.1516826 18.02485657 -0.17328572 C20.77779303 -0.187278 23.53066774 -0.20567393 26.28356934 -0.22530937 C34.92640147 -0.28537275 43.5690857 -0.32859111 52.2121048 -0.34852701 C62.13238898 -0.37164873 72.05013396 -0.45024602 81.96961021 -0.57802969 C89.67030061 -0.67373413 97.37028181 -0.71815465 105.071558 -0.72543138 C109.65464167 -0.73087486 114.23524398 -0.75659399 118.81768799 -0.83635139 C139.5791563 -1.17795042 155.56490483 -0.76151684 172.96308708 12.08168983 C176.23815195 14.4476168 179.71826187 16.40758249 183.23046875 18.39477539 C184.37895191 19.07369717 185.52549316 19.75591628 186.66992188 20.44165039 C190.06291235 22.47140375 193.45870672 24.49634065 196.85546875 26.51977539 C197.8297583 27.10210937 198.80404785 27.68444336 199.80786133 28.28442383 C201.22979106 29.12034705 202.67313366 29.92274847 204.1484375 30.66040039 C204.1484375 72.90040039 204.1484375 115.14040039 204.1484375 158.66040039 C202.1484375 156.66040039 202.1484375 156.66040039 201.90234184 154.55583763 C201.90418543 153.6801343 201.90602901 152.80443096 201.90792847 151.90219116 C201.90380447 150.39614067 201.90380447 150.39614067 201.89959717 148.85966492 C201.90678772 147.75411758 201.91397827 146.64857025 201.92138672 145.50952148 C201.92109467 144.34855453 201.92080261 143.18758759 201.92050171 141.99143982 C201.92189946 138.13883085 201.93748175 134.28641324 201.953125 130.43383789 C201.95685355 127.76868359 201.9597996 125.10354002 201.96170044 122.43838501 C201.96792262 116.13083464 201.98434337 109.8233534 202.00439942 103.5158335 C202.02673551 96.33576417 202.03774607 89.15569159 202.04779029 81.97559619 C202.06870899 67.20382886 202.10389927 52.43211583 202.1484375 37.66040039 C201.54859165 37.66132218 200.9487458 37.66224398 200.33072281 37.6631937 C180.35330075 37.6933309 160.37587855 37.71203938 140.3984375 37.72290039 C139.6229701 37.72333469 138.84750271 37.723769 138.0485363 37.72421646 C99.85195692 37.74501842 61.65672284 37.70147167 23.4609375 37.43774414 C22.74641796 37.43284005 22.03189842 37.42793597 21.29572678 37.42288327 C-9.08703858 37.21313398 -39.4692717 36.92574791 -69.8515625 36.66040039 C-69.8515625 76.92040039 -69.8515625 117.18040039 -69.8515625 158.66040039 C-70.1815625 158.66040039 -70.5115625 158.66040039 -70.8515625 158.66040039 C-71.08527421 142.07513525 -71.26155671 125.49040495 -71.36968422 108.90389061 C-71.4212271 101.20221252 -71.49147965 93.50155807 -71.60595703 85.80053711 C-71.70570162 79.087401 -71.77016021 72.37500614 -71.79244745 65.66114962 C-71.80547493 62.10645241 -71.83602808 58.55387549 -71.90886307 54.99985886 C-71.9895581 51.03002274 -71.9914575 47.06225112 -71.98681641 43.09155273 C-72.02276917 41.91622986 -72.05872192 40.74090698 -72.09576416 39.52996826 C-72.054562 36.27717111 -71.92809445 33.73236078 -70.8515625 30.66040039 C-67.83664856 27.84163583 -64.6267413 26.25878531 -60.8515625 24.66040039 C-59.61393447 24.02871289 -58.37916701 23.39136278 -57.1484375 22.74633789 C-55.97796875 22.18172852 -54.8075 21.61711914 -53.6015625 21.03540039 C-46.73195559 17.67117798 -39.99965461 14.08077919 -33.2890625 10.41040039 C-32.36125977 9.90299316 -31.43345703 9.39558594 -30.47753906 8.87280273 C-25.16327134 6.00443472 -25.16327134 6.00443472 -20.18226624 2.61238098 C-14.12961117 -0.8081947 -6.75606058 0.02502388 0 0 Z M-34.75462914 12.26227379 C-37.62319845 14.17488729 -40.60160108 15.73635883 -43.6640625 17.31665039 C-45.39445394 18.26232943 -47.12371375 19.21008358 -48.8515625 20.16040039 C-49.7384375 20.64508789 -50.6253125 21.12977539 -51.5390625 21.62915039 C-56.33878423 24.25756943 -61.10983971 26.92875574 -65.8515625 29.66040039 C-65.8515625 29.99040039 -65.8515625 30.32040039 -65.8515625 30.66040039 C21.5984375 30.66040039 109.0484375 30.66040039 199.1484375 30.66040039 C196.6609544 28.17291729 195.18037072 26.98021365 192.19921875 25.40258789 C186.50272625 22.323465 180.9238571 19.05655078 175.3359375 15.78540039 C173.83063477 14.90561523 173.83063477 14.90561523 172.29492188 14.00805664 C170.38670053 12.89278276 168.47870648 11.77711979 166.57104492 10.66088867 C165.44158447 10.00072754 164.31212402 9.34056641 163.1484375 8.66040039 C162.35918192 8.10204782 161.56992634 7.54369524 160.75675392 6.96842289 C152.27829381 1.32820388 144.87120068 0.62792708 135.00463867 0.67529297 C133.41455795 0.65757999 131.82450707 0.63699392 130.23449707 0.61378479 C125.94635824 0.56086931 121.65925996 0.55230217 117.37083602 0.55546403 C113.76858204 0.55474828 110.16654488 0.53386472 106.56435567 0.5137369 C98.04642118 0.4672418 89.52901779 0.4588757 81.01098633 0.47314453 C72.28403171 0.48697934 63.55949026 0.43094817 54.83304423 0.3407734 C47.29351752 0.26574133 39.75475909 0.23827345 32.21486646 0.24664611 C27.73274217 0.25099127 23.2525333 0.23806044 18.77077293 0.17768288 C-1.48338771 -0.07454982 -17.36525461 0.49253059 -34.75462914 12.26227379 Z " fill="#2C120A" transform="translate(113.8515625,5.339599609375)"/>
<path d="M0 0 C0.33 0 0.66 0 1 0 C1.33 38.28 1.66 76.56 2 116 C-1 113 -1 113 -1.2487793 111.00708008 C-1.19117432 110.26868896 -1.13356934 109.53029785 -1.07421875 108.76953125 C-1.01943359 107.96708984 -0.96464844 107.16464844 -0.90820312 106.33789062 C-0.79895508 105.08782227 -0.79895508 105.08782227 -0.6875 103.8125 C-0.62626953 102.96751953 -0.56503906 102.12253906 -0.50195312 101.25195312 C-0.34881209 99.16687905 -0.17625843 97.08324724 0 95 C-5.61 95 -11.22 95 -17 95 C-17 87.08 -17 79.16 -17 71 C-24.92 71 -32.84 71 -41 71 C-41 63.08 -41 55.16 -41 47 C-33.08 47 -25.16 47 -17 47 C-17 39.08 -17 31.16 -17 23 C-11.39 23 -5.78 23 0 23 C0 15.41 0 7.82 0 0 Z " fill="#FEFEFE" transform="translate(41,51)"/>
<path d="M0 0 C89.76 0 179.52 0 272 0 C272 1.65 272 3.3 272 5 C251.4166735 5.03163074 230.83334688 5.05130958 210.25 5.0625 C209.4745326 5.0629343 208.69906521 5.06336861 207.9000988 5.06381607 C157.68132162 5.09116534 107.46709754 4.91236393 57.25 4.5 C56.1562931 4.49103943 56.1562931 4.49103943 55.0404911 4.48189783 C36.69356984 4.33138768 18.3467377 4.17152945 0 4 C0 2.68 0 1.36 0 0 Z " fill="#6B3E27" transform="translate(44,38)"/>
<path d="M0 0 C1.00778555 -0.010195 1.00778555 -0.010195 2.0359304 -0.02059597 C4.27433729 -0.03949935 6.5121938 -0.0371357 8.75067139 -0.03465271 C10.36093342 -0.04363469 11.97118901 -0.05384395 13.58143616 -0.06518555 C17.94735021 -0.09164815 22.31308778 -0.09871751 26.67907429 -0.10063291 C29.40994657 -0.10276802 32.14077425 -0.10917784 34.87163544 -0.11712456 C44.40800312 -0.14486784 53.94424515 -0.15713163 63.48065186 -0.1547699 C72.35468453 -0.15296885 81.22816933 -0.18460234 90.10206342 -0.23200089 C97.73287684 -0.27129976 105.36351175 -0.28731853 112.99442554 -0.28540367 C117.546643 -0.28464069 122.0983736 -0.29308328 126.65048981 -0.32493782 C130.93535484 -0.35410417 135.2192718 -0.3541369 139.50417137 -0.33238792 C141.07062105 -0.32926524 142.63713102 -0.33625092 144.20347786 -0.3544693 C153.42048479 -0.4546707 160.79130561 0.16437189 168.08172607 6.40113831 C168.08172607 6.73113831 168.08172607 7.06113831 168.08172607 7.40113831 C107.36172607 7.07113831 46.64172607 6.74113831 -15.91827393 6.40113831 C-10.99802306 1.48088744 -6.90110891 0.02895524 0 0 Z " fill="#CD8C68" transform="translate(106.91827392578125,6.5988616943359375)"/>
<path d="M0 0 C10.23 0 20.46 0 31 0 C31 8.25 31 16.5 31 25 C34.96 25 38.92 25 43 25 C43.66 23.35 44.32 21.7 45 20 C45.66 19.34 46.32 18.68 47 18 C47.495 16.515 47.495 16.515 48 15 C49.32 15 50.64 15 52 15 C52 22.92 52 30.84 52 39 C44.08 39 36.16 39 28 39 C28 31.08 28 23.16 28 15 C20.08 15 12.16 15 4 15 C4 22.92 4 30.84 4 39 C3.34 39 2.68 39 2 39 C1.67 48.9 1.34 58.8 1 69 C0.67 69 0.34 69 0 69 C0 46.23 0 23.46 0 0 Z " fill="#EDEDED" transform="translate(68,59)"/>
<path d="M0 0 C2.97 0 5.94 0 9 0 C9 24.33333333 9 48.66666667 9 73 C9.03665771 73.65347412 9.07331543 74.30694824 9.11108398 74.98022461 C10.21434488 94.77308416 10.21434488 94.77308416 3.62890625 103.234375 C2.76645173 104.16921779 1.89937724 105.10062276 1 106 C-1.69654854 106.07319621 -4.36691458 106.09242537 -7.0625 106.0625 C-7.82111328 106.05798828 -8.57972656 106.05347656 -9.36132812 106.04882812 C-11.24091871 106.0370068 -13.12046899 106.01907078 -15 106 C-15 105.67 -15 105.34 -15 105 C-10.05 105 -5.1 105 0 105 C0 98.73 0 92.46 0 86 C-2.31 86 -4.62 86 -7 86 C-7 84.02 -7 82.04 -7 80 C-4.69 80 -2.38 80 0 80 C0 53.6 0 27.2 0 0 Z " fill="#391C10" transform="translate(59,58)"/>
<path d="M0 0 C0.66 0.66 1.32 1.32 2 2 C0.35 2.66 -1.3 3.32 -3 4 C117.78 4.99 117.78 4.99 241 6 C241 5.34 241 4.68 241 4 C245.10801767 5.18676066 246.89448334 5.89448334 250 9 C162.55 9 75.1 9 -15 9 C-11.34678275 6.0774262 -8.75248029 4.20119054 -4.6875 2.25 C-3.36298828 1.60804687 -3.36298828 1.60804687 -2.01171875 0.953125 C-1.34785156 0.63859375 -0.68398438 0.3240625 0 0 Z " fill="#F1AD83" transform="translate(63,27)"/>
<path d="M0 0 C7.92 0 15.84 0 24 0 C24.33 5.94 24.66 11.88 25 18 C17.37991609 23.08005594 9.21167021 26.98385547 1 31 C0 30 0 30 -0.11352539 27.13256836 C-0.10828857 25.88096924 -0.10305176 24.62937012 -0.09765625 23.33984375 C-0.0962413 22.67537735 -0.09482635 22.01091095 -0.09336853 21.3263092 C-0.08775518 19.19666101 -0.07520054 17.06711661 -0.0625 14.9375 C-0.05748671 13.49674631 -0.05292351 12.05599097 -0.04882812 10.61523438 C-0.03863076 7.07675042 -0.0190583 3.53849187 0 0 Z " fill="#FDFDFD" transform="translate(48,2)"/>
<path d="M0 0 C0.33 0 0.66 0 1 0 C1 3.3 1 6.6 1 10 C8.59 10 16.18 10 24 10 C24 17.92 24 25.84 24 34 C16.08 34 8.16 34 0 34 C0 30.04 0 26.08 0 22 C-4.95 22.495 -4.95 22.495 -10 23 C-9.67 22.34 -9.34 21.68 -9 21 C-6.03 21 -3.06 21 0 21 C0 14.07 0 7.14 0 0 Z M-12 23 C-10 24 -10 24 -10 24 Z " fill="#FEFEFE" transform="translate(264,64)"/>
<path d="M0 0 C7.92 0 15.84 0 24 0 C24.74828905 3.74144523 25.10100676 6.01688953 24.87890625 9.64453125 C24.81425171 10.78305542 24.81425171 10.78305542 24.74829102 11.94458008 C24.68697998 12.89099365 24.62566895 13.83740723 24.5625 14.8125 C24.376875 17.844375 24.19125 20.87625 24 24 C16.08 24 8.16 24 0 24 C0 16.08 0 8.16 0 0 Z " fill="#FEFEFE" transform="translate(264,122)"/>
<path d="M0 0 C7.92 0 15.84 0 24 0 C24 7.92 24 15.84 24 24 C16.08 24 8.16 24 0 24 C0 16.08 0 8.16 0 0 Z " fill="#EDEDED" transform="translate(336,122)"/>
<path d="M0 0 C7.92 0 15.84 0 24 0 C24 7.92 24 15.84 24 24 C16.08 24 8.16 24 0 24 C0 16.08 0 8.16 0 0 Z " fill="#EDEDED" transform="translate(240,122)"/>
<path d="M0 0 C7.92 0 15.84 0 24 0 C24 7.92 24 15.84 24 24 C16.08 24 8.16 24 0 24 C0 16.08 0 8.16 0 0 Z " fill="#FEFEFE" transform="translate(216,122)"/>
<path d="M0 0 C7.92 0 15.84 0 24 0 C24 7.92 24 15.84 24 24 C16.08 24 8.16 24 0 24 C0 16.08 0 8.16 0 0 Z " fill="#EDEDED" transform="translate(192,122)"/>
<path d="M0 0 C7.92 0 15.84 0 24 0 C24 7.92 24 15.84 24 24 C16.08 24 8.16 24 0 24 C0 16.08 0 8.16 0 0 Z " fill="#FEFEFE" transform="translate(168,122)"/>
<path d="M0 0 C7.92 0 15.84 0 24 0 C24 7.92 24 15.84 24 24 C16.08 24 8.16 24 0 24 C0 16.08 0 8.16 0 0 Z " fill="#EDEDED" transform="translate(144,122)"/>
<path d="M0 0 C7.92 0 15.84 0 24 0 C24 7.92 24 15.84 24 24 C16.08 24 8.16 24 0 24 C0 16.08 0 8.16 0 0 Z " fill="#FEFEFE" transform="translate(120,122)"/>
<path d="M0 0 C7.92 0 15.84 0 24 0 C24 7.92 24 15.84 24 24 C16.08 24 8.16 24 0 24 C0 16.08 0 8.16 0 0 Z " fill="#FEFEFE" transform="translate(72,122)"/>
<path d="M0 0 C7.92 0 15.84 0 24 0 C24 7.92 24 15.84 24 24 C16.08 24 8.16 24 0 24 C0 16.08 0 8.16 0 0 Z " fill="#EDEDED" transform="translate(0,122)"/>
<path d="M0 0 C7.92 0 15.84 0 24 0 C24 7.92 24 15.84 24 24 C16.08 24 8.16 24 0 24 C0 16.08 0 8.16 0 0 Z " fill="#FEFEFE" transform="translate(336,98)"/>
<path d="M0 0 C7.92 0 15.84 0 24 0 C24 7.92 24 15.84 24 24 C16.08 24 8.16 24 0 24 C0 16.08 0 8.16 0 0 Z " fill="#FEFEFE" transform="translate(240,98)"/>
<path d="M0 0 C7.92 0 15.84 0 24 0 C24 7.92 24 15.84 24 24 C16.08 24 8.16 24 0 24 C0 16.08 0 8.16 0 0 Z " fill="#EDEDED" transform="translate(216,98)"/>
<path d="M0 0 C7.92 0 15.84 0 24 0 C24 7.92 24 15.84 24 24 C16.08 24 8.16 24 0 24 C0 16.08 0 8.16 0 0 Z " fill="#FEFEFE" transform="translate(192,98)"/>
<path d="M0 0 C7.92 0 15.84 0 24 0 C24 7.92 24 15.84 24 24 C16.08 24 8.16 24 0 24 C0 16.08 0 8.16 0 0 Z " fill="#EDEDED" transform="translate(168,98)"/>
<path d="M0 0 C7.92 0 15.84 0 24 0 C24 7.92 24 15.84 24 24 C16.08 24 8.16 24 0 24 C0 16.08 0 8.16 0 0 Z " fill="#FEFEFE" transform="translate(144,98)"/>
<path d="M0 0 C7.92 0 15.84 0 24 0 C24 7.92 24 15.84 24 24 C16.08 24 8.16 24 0 24 C0 16.08 0 8.16 0 0 Z " fill="#EDEDED" transform="translate(120,98)"/>
<path d="M0 0 C7.92 0 15.84 0 24 0 C24 7.92 24 15.84 24 24 C16.08 24 8.16 24 0 24 C0 16.08 0 8.16 0 0 Z " fill="#FEFEFE" transform="translate(96,98)"/>
<path d="M0 0 C7.92 0 15.84 0 24 0 C24 7.92 24 15.84 24 24 C16.08 24 8.16 24 0 24 C0 16.08 0 8.16 0 0 Z " fill="#EDEDED" transform="translate(336,74)"/>
<path d="M0 0 C7.92 0 15.84 0 24 0 C24 7.92 24 15.84 24 24 C16.08 24 8.16 24 0 24 C0 16.08 0 8.16 0 0 Z " fill="#FEFEFE" transform="translate(216,74)"/>
<path d="M0 0 C7.92 0 15.84 0 24 0 C24 7.92 24 15.84 24 24 C16.08 24 8.16 24 0 24 C0 16.08 0 8.16 0 0 Z " fill="#FEFEFE" transform="translate(168,74)"/>
<path d="M0 0 C7.92 0 15.84 0 24 0 C24 7.92 24 15.84 24 24 C16.08 24 8.16 24 0 24 C0 16.08 0 8.16 0 0 Z " fill="#EDEDED" transform="translate(144,74)"/>
<path d="M0 0 C7.92 0 15.84 0 24 0 C24 7.92 24 15.84 24 24 C16.08 24 8.16 24 0 24 C0 16.08 0 8.16 0 0 Z " fill="#FEFEFE" transform="translate(120,74)"/>
<path d="M0 0 C7.92 0 15.84 0 24 0 C24 7.92 24 15.84 24 24 C16.08 24 8.16 24 0 24 C0 16.08 0 8.16 0 0 Z " fill="#FEFEFE" transform="translate(72,74)"/>
<path d="M0 0 C7.92 0 15.84 0 24 0 C24 7.92 24 15.84 24 24 C16.08 24 8.16 24 0 24 C0 16.08 0 8.16 0 0 Z " fill="#FEFEFE" transform="translate(0,50)"/>
<path d="M0 0 C7.92 0 15.84 0 24 0 C24 7.92 24 15.84 24 24 C16.08 24 8.16 24 0 24 C0 16.08 0 8.16 0 0 Z " fill="#EDEDED" transform="translate(336,26)"/>
<path d="M0 0 C7.92 0 15.84 0 24 0 C24 7.92 24 15.84 24 24 C16.08 24 8.16 24 0 24 C0 16.08 0 8.16 0 0 Z " fill="#FEFEFE" transform="translate(336,2)"/>
<path d="M0 0 C7.92 0 15.84 0 24 0 C24 7.92 24 15.84 24 24 C16.08 24 8.16 24 0 24 C0 16.08 0 8.16 0 0 Z " fill="#EDEDED" transform="translate(312,2)"/>
<path d="M0 0 C7.92 0 15.84 0 24 0 C24 7.92 24 15.84 24 24 C16.08 24 8.16 24 0 24 C0 16.08 0 8.16 0 0 Z " fill="#FEFEFE" transform="translate(0,2)"/>
<path d="M0 0 C7.92 0 15.84 0 24 0 C24 7.26 24 14.52 24 22 C16.08 22 8.16 22 0 22 C-0.81580569 13.84194309 -0.82948543 7.92619415 0 0 Z " fill="#EDEDED" transform="translate(72,146)"/>
<path d="M0 0 C7.92 0 15.84 0 24 0 C24 7.26 24 14.52 24 22 C16.08 22 8.16 22 0 22 C0 14.74 0 7.48 0 0 Z " fill="#FEFEFE" transform="translate(336,146)"/>
<path d="M0 0 C7.92 0 15.84 0 24 0 C24 7.26 24 14.52 24 22 C16.08 22 8.16 22 0 22 C0 14.74 0 7.48 0 0 Z " fill="#EDEDED" transform="translate(264,146)"/>
<path d="M0 0 C7.92 0 15.84 0 24 0 C24 7.26 24 14.52 24 22 C16.08 22 8.16 22 0 22 C0 14.74 0 7.48 0 0 Z " fill="#FEFEFE" transform="translate(240,146)"/>
<path d="M0 0 C7.92 0 15.84 0 24 0 C24 7.26 24 14.52 24 22 C16.08 22 8.16 22 0 22 C0 14.74 0 7.48 0 0 Z " fill="#EDEDED" transform="translate(216,146)"/>
<path d="M0 0 C7.92 0 15.84 0 24 0 C24 7.26 24 14.52 24 22 C16.08 22 8.16 22 0 22 C0 14.74 0 7.48 0 0 Z " fill="#FEFEFE" transform="translate(192,146)"/>
<path d="M0 0 C7.92 0 15.84 0 24 0 C24 7.26 24 14.52 24 22 C16.08 22 8.16 22 0 22 C0 14.74 0 7.48 0 0 Z " fill="#EDEDED" transform="translate(168,146)"/>
<path d="M0 0 C7.92 0 15.84 0 24 0 C24 7.26 24 14.52 24 22 C16.08 22 8.16 22 0 22 C0 14.74 0 7.48 0 0 Z " fill="#FEFEFE" transform="translate(144,146)"/>
<path d="M0 0 C7.92 0 15.84 0 24 0 C24 7.26 24 14.52 24 22 C16.08 22 8.16 22 0 22 C0 14.74 0 7.48 0 0 Z " fill="#EDEDED" transform="translate(120,146)"/>
<path d="M0 0 C7.92 0 15.84 0 24 0 C24 7.26 24 14.52 24 22 C16.08 22 8.16 22 0 22 C0 14.74 0 7.48 0 0 Z " fill="#FEFEFE" transform="translate(96,146)"/>
<path d="M0 0 C7.92 0 15.84 0 24 0 C24 7.26 24 14.52 24 22 C16.08 22 8.16 22 0 22 C0 14.74 0 7.48 0 0 Z " fill="#FEFEFE" transform="translate(0,146)"/>
<path d="M0 0 C1.05141426 -0.00262848 1.05141426 -0.00262848 2.12406921 -0.00531006 C4.4459377 -0.00971913 6.76773032 -0.00679422 9.08959961 -0.00341797 C10.69860346 -0.0040912 12.30760721 -0.00506139 13.91661072 -0.00631714 C17.29012011 -0.00779277 20.66360305 -0.00564359 24.03710938 -0.00097656 C28.37077212 0.00472522 32.704373 0.00143803 37.03803349 -0.00454903 C40.36047333 -0.00815437 43.68289839 -0.00701626 47.00533867 -0.00442123 C48.60380498 -0.00375213 50.20227261 -0.00457982 51.80073738 -0.00690079 C54.02995511 -0.00942738 56.25907114 -0.00558687 58.48828125 0 C60.39451012 0.00119339 60.39451012 0.00119339 62.33924866 0.00241089 C65.17944336 0.12939453 65.17944336 0.12939453 66.17944336 1.12939453 C69.14650471 1.230011 72.0903272 1.26554331 75.05786133 1.25878906 C76.45536621 1.26141754 76.45536621 1.26141754 77.88110352 1.26409912 C80.97796461 1.26852016 84.07476913 1.26557829 87.17163086 1.26220703 C89.31535859 1.26288011 91.45908625 1.26385017 93.60281372 1.2651062 C98.10378748 1.26658361 102.60474143 1.26442767 107.10571289 1.25976562 C112.88193276 1.25407517 118.65810611 1.25734274 124.43432426 1.26333809 C128.86431225 1.26694839 133.29428918 1.26580283 137.7242775 1.2632103 C139.85418834 1.26254197 141.98410018 1.26336616 144.11400986 1.26568985 C147.09011246 1.26822327 150.06613937 1.26436564 153.04223633 1.25878906 C154.37020737 1.26182541 154.37020737 1.26182541 155.7250061 1.2649231 C156.53544373 1.26210327 157.34588135 1.25928345 158.18087769 1.25637817 C159.23668691 1.25581264 159.23668691 1.25581264 160.31382561 1.25523567 C162.40964435 1.19247451 162.40964435 1.19247451 165.17944336 0.12939453 C167.69642968 1.20194331 169.8474988 2.67742905 172.17944336 4.12939453 C172.17944336 4.45939453 172.17944336 4.78939453 172.17944336 5.12939453 C111.45944336 4.79939453 50.73944336 4.46939453 -11.82055664 4.12939453 C-7.57647193 -0.11469018 -5.89026425 0.00368528 0 0 Z " fill="#EFA378" transform="translate(102.820556640625,8.87060546875)"/>
<path d="M0 0 C0.33 0.66 0.66 1.32 1 2 C6.28 2 11.56 2 17 2 C17 9.92 17 17.84 17 26 C11.72 26 6.44 26 1 26 C1 32.93 1 39.86 1 47 C0.01 47.495 0.01 47.495 -1 48 C-1.02529705 41.48552273 -1.04284444 34.97105807 -1.05493164 28.45654297 C-1.05996909 26.23909024 -1.06679922 24.02164084 -1.07543945 21.80419922 C-1.08753072 18.62206195 -1.0932341 15.43996849 -1.09765625 12.2578125 C-1.10281754 11.26194122 -1.10797882 10.26606995 -1.11329651 9.24002075 C-1.11337204 8.31921722 -1.11344757 7.3984137 -1.11352539 6.44970703 C-1.115746 5.6369632 -1.11796661 4.82421936 -1.12025452 3.98684692 C-1 2 -1 2 0 0 Z " fill="#FEFEFD" transform="translate(319,72)"/>
<path d="M0 0 C1.00162658 0.10630564 1.00162658 0.10630564 2.02348804 0.21475887 C8.66753105 0.87569665 15.21360598 1.13898951 21.88745117 1.11352539 C22.91318237 1.11367142 23.93891357 1.11381744 24.99572754 1.1139679 C28.34483039 1.11327804 31.69387577 1.10552959 35.04296875 1.09765625 C37.38137278 1.09578877 39.7197772 1.09436643 42.05818176 1.09336853 C48.18190613 1.08956934 54.30560638 1.0797615 60.42932129 1.06866455 C66.69050775 1.05839431 72.95169815 1.05385893 79.21289062 1.04882812 C91.47527095 1.03813667 103.73763346 1.02109179 116 1 C116 1.66 116 2.32 116 3 C152.96 3 189.92 3 228 3 C228 3.33 228 3.66 228 4 C152.76 4 77.52 4 0 4 C0 2.68 0 1.36 0 0 Z " fill="#63341A" transform="translate(44,38)"/>
<path d="M0 0 C0.33 0 0.66 0 1 0 C1.33 15.51 1.66 31.02 2 47 C-1 44 -1 44 -1.2487793 42.00708008 C-1.19117432 41.26868896 -1.13356934 40.53029785 -1.07421875 39.76953125 C-1.01943359 38.96708984 -0.96464844 38.16464844 -0.90820312 37.33789062 C-0.83537109 36.50451172 -0.76253906 35.67113281 -0.6875 34.8125 C-0.5956543 33.5450293 -0.5956543 33.5450293 -0.50195312 32.25195312 C-0.34881209 30.16687905 -0.17625843 28.08324724 0 26 C-5.61 26 -11.22 26 -17 26 C-17 18.08 -17 10.16 -17 2 C-11.39 2 -5.78 2 0 2 C0 1.34 0 0.68 0 0 Z " fill="#FEFEFE" transform="translate(41,120)"/>
<path d="M0 0 C22.77 0 45.54 0 69 0 C69 0.33 69 0.66 69 1 C51.51 1 34.02 1 16 1 C15.34 2.65 14.68 4.3 14 6 C14.66 6 15.32 6 16 6 C16.738041 19.6332574 16.738041 19.6332574 12 26 C8.04 26 4.08 26 0 26 C0 17.42 0 8.84 0 0 Z " fill="#311B13" transform="translate(99,58)"/>
<path d="M0 0 C0.33 0.66 0.66 1.32 1 2 C0.360625 2.103125 -0.27875 2.20625 -0.9375 2.3125 C-1.618125 2.539375 -2.29875 2.76625 -3 3 C-3.33 3.99 -3.66 4.98 -4 6 C-6.0625 7.1875 -6.0625 7.1875 -8 8 C-6.77664948 7.99738159 -5.55329895 7.99476318 -4.2928772 7.99206543 C28.51021521 7.92870058 61.30605459 8.12071257 94.10723877 8.46356201 C100.11053642 8.52574591 106.11386321 8.58498547 112.1171875 8.64453125 C123.74482056 8.76026818 135.37242004 8.87905256 147 9 C142.3965878 13.6034122 132.5032113 12.11212722 126.37124252 12.12028217 C124.03392864 12.11640463 121.69667176 12.10731179 119.359375 12.09765625 C117.65582307 12.09408931 115.9522708 12.09068142 114.24871826 12.0874176 C87.81338008 12.01765256 61.37818126 11.66285469 34.94482422 11.35180664 C29.04497149 11.28261244 23.14508238 11.21836085 17.24514008 11.15730476 C15.02031067 11.13328838 12.795501 11.10736214 10.57071686 11.07946587 C7.50062533 11.04107237 4.43052857 11.00893613 1.36035156 10.97827148 C-0.00430489 10.95885246 -0.00430489 10.95885246 -1.39653015 10.93904114 C-2.22777908 10.93200165 -3.05902802 10.92496216 -3.91546631 10.91770935 C-4.63635311 10.90941321 -5.35723991 10.90111708 -6.09997177 10.89256954 C-8.22530515 10.92945225 -8.22530515 10.92945225 -11 12 C-11.804375 11.835 -12.60875 11.67 -13.4375 11.5 C-16.06834251 10.98666488 -17.49324027 11.16441342 -20 12 C-17.85456353 9.66672778 -15.7965192 8.19518665 -12.98828125 6.73828125 C-12.23095703 6.34189453 -11.47363281 5.94550781 -10.69335938 5.53710938 C-9.51483398 4.93092773 -9.51483398 4.93092773 -8.3125 4.3125 C-7.51521484 3.89677734 -6.71792969 3.48105469 -5.89648438 3.05273438 C-3.93353543 2.03012025 -1.96804438 1.0127632 0 0 Z " fill="#E6986A" transform="translate(87,14)"/>
<path d="M0 0 C1.65 0 3.3 0 5 0 C5 0.66 5 1.32 5 2 C5.763125 2.061875 6.52625 2.12375 7.3125 2.1875 C10 3 10 3 11.8125 5.4375 C13 8 13 8 13 10 C16.63 10 20.26 10 24 10 C24 10.33 24 10.66 24 11 C21.36 11.33 18.72 11.66 16 12 C18.64 12 21.28 12 24 12 C24 15.96 24 19.92 24 24 C16.08 24 8.16 24 0 24 C0 16.08 0 8.16 0 0 Z " fill="#ECEDEC" transform="translate(240,74)"/>
<path d="M0 0 C5.61 0 11.22 0 17 0 C17 7.92 17 15.84 17 24 C11.39 24 5.78 24 0 24 C0 16.08 0 8.16 0 0 Z " fill="#EDEDED" transform="translate(24,98)"/>
<path d="M0 0 C5.61 0 11.22 0 17 0 C16.98839844 1.27617187 16.97679688 2.55234375 16.96484375 3.8671875 C16.95546583 5.53645687 16.94636563 7.20572783 16.9375 8.875 C16.92912109 9.71675781 16.92074219 10.55851563 16.91210938 11.42578125 C16.90888672 12.23144531 16.90566406 13.03710938 16.90234375 13.8671875 C16.89710693 14.61081543 16.89187012 15.35444336 16.88647461 16.12060547 C16.88213364 18.09132568 16.88213364 18.09132568 18 20 C18.33 19.34 18.66 18.68 19 18 C24.28 18 29.56 18 35 18 C35 18.33 35 18.66 35 19 C30.05 19 25.1 19 20 19 C20 19.66 20 20.32 20 21 C21.32 20.67 22.64 20.34 24 20 C24 20.66 24 21.32 24 22 C16.08 22 8.16 22 0 22 C0 14.74 0 7.48 0 0 Z " fill="#E9E9E9" transform="translate(24,146)"/>
<path d="M0 0 C-0.33 0.66 -0.66 1.32 -1 2 C-44.23 2 -87.46 2 -132 2 C-132.33 1.01 -132.66 0.02 -133 -1 C-116.24967697 -1.17727952 -99.4992857 -1.34294941 -82.74871445 -1.49477577 C-74.97124532 -1.56554146 -67.19384741 -1.64011461 -59.41650391 -1.72363281 C-52.63826304 -1.79641236 -45.85999715 -1.86206678 -39.0816052 -1.91914403 C-35.4920563 -1.94961915 -31.90262159 -1.9836762 -28.31319427 -2.02626419 C-24.30747566 -2.07365797 -20.30178425 -2.10514434 -16.29589844 -2.13525391 C-15.10403427 -2.1517952 -13.9121701 -2.16833649 -12.68418884 -2.18537903 C-11.04780205 -2.19387627 -11.04780205 -2.19387627 -9.37835693 -2.20254517 C-7.95695215 -2.21637206 -7.95695215 -2.21637206 -6.50683212 -2.23047829 C-3.87783893 -1.9887685 -2.25380143 -1.33742032 0 0 Z " fill="#D58555" transform="translate(301,30)"/>
<path d="M0 0 C7.92 0 15.84 0 24 0 C24 0.66 24 1.32 24 2 C31.92 2 39.84 2 48 2 C48 1.34 48 0.68 48 0 C55.92 0 63.84 0 72 0 C72 0.66 72 1.32 72 2 C79.92 2 87.84 2 96 2 C96 1.34 96 0.68 96 0 C103.92 0 111.84 0 120 0 C120 0.66 120 1.32 120 2 C127.92 2 135.84 2 144 2 C144 1.34 144 0.68 144 0 C151.92 0 159.84 0 168 0 C168 0.99 168 1.98 168 3 C167.27814199 3.00423194 166.55628399 3.00846388 165.8125515 3.01282406 C148.14635562 3.11669336 130.48019597 3.22540806 112.81406212 3.33933926 C104.27042237 3.3943247 95.72677849 3.44774455 87.18310547 3.49731445 C79.72561184 3.54058656 72.26814466 3.58696343 64.81069243 3.63687855 C60.87189541 3.66313879 56.93310246 3.68797375 52.99427414 3.70907402 C32.0340501 3.8174947 32.0340501 3.8174947 11.08447266 4.45727539 C9.7412774 4.51432349 9.7412774 4.51432349 8.37094688 4.57252407 C5.04651392 4.73843585 2.17347286 4.94217571 -1 6 C-0.67 4.02 -0.34 2.04 0 0 Z " fill="#FEFDFC" transform="translate(96,2)"/>
<path d="M0 0 C7.92 0 15.84 0 24 0 C24 4.95 24 9.9 24 15 C19.56825148 15 18.43286649 13.98137832 14.96656609 11.50355339 C1.51542746 2.39736178 -13.74924706 3.60896601 -29.30673838 3.78413153 C-33.35063613 3.81893315 -37.39424384 3.79634031 -41.4382019 3.78030396 C-49.06661306 3.7585346 -56.69394056 3.78703686 -64.32220161 3.834427 C-73.0190154 3.88594601 -81.71551145 3.88016664 -90.41243768 3.87000632 C-108.27533155 3.85039895 -126.13738686 3.90134276 -144 4 C-144 3.67 -144 3.34 -144 3 C-96.48 3 -48.96 3 0 3 C0 2.01 0 1.02 0 0 Z " fill="#EDECEB" transform="translate(264,2)"/>
<path d="M0 0 C5.28 0 10.56 0 16 0 C16 7.92 16 15.84 16 24 C10.72 24 5.44 24 0 24 C0 16.08 0 8.16 0 0 Z " fill="#EDEDED" transform="translate(320,98)"/>
<path d="M0 0 C5.28 0 10.56 0 16 0 C16 7.92 16 15.84 16 24 C10.72 24 5.44 24 0 24 C0 16.08 0 8.16 0 0 Z " fill="#EDEDED" transform="translate(320,50)"/>
<path d="M0 0 C5.28 0 10.56 0 16 0 C16 7.26 16 14.52 16 22 C8.08 22 0.16 22 -8 22 C-8 21.34 -8 20.68 -8 20 C-5.69 20 -3.38 20 -1 20 C-0.67 13.4 -0.34 6.8 0 0 Z " fill="#EDEDED" transform="translate(320,146)"/>
<path d="M0 0 C0.33 0 0.66 0 1 0 C1 23.76 1 47.52 1 72 C-0.32 70.68 -1.64 69.36 -3 68 C-3 67.34 -3 66.68 -3 66 C-3.66 65.67 -4.32 65.34 -5 65 C-6.70755055 59.87734835 -6.18462941 54.48726701 -6.1875 49.125 C-6.19974609 47.9596875 -6.21199219 46.794375 -6.22460938 45.59375 C-6.23801064 37.53512162 -5.37371053 29.92911337 -4 22 C-3.80177574 20.56654632 -3.61252915 19.13178286 -3.4375 17.6953125 C-3.293125 16.51710938 -3.14875 15.33890625 -3 14.125 C-2.855625 12.93132812 -2.71125 11.73765625 -2.5625 10.5078125 C-1.97724771 6.85811421 -1.08290973 3.52848087 0 0 Z " fill="#714127" transform="translate(300,66)"/>
<path d="M0 0 C0 4.62 0 9.24 0 14 C-7.92 14 -15.84 14 -24 14 C-24 9.71 -24 5.42 -24 1 C-21.50018262 0.8301095 -19.00020399 0.66402047 -16.5 0.5 C-15.80390625 0.45230469 -15.1078125 0.40460937 -14.390625 0.35546875 C-9.58304475 0.04386633 -4.81771254 -0.04340282 0 0 Z " fill="#EDEDED" transform="translate(144,60)"/>
<path d="M0 0 C0.33 0 0.66 0 1 0 C1.33 20.79 1.66 41.58 2 63 C0.515 63.495 0.515 63.495 -1 64 C-2.3703055 65.97485205 -3.70672372 67.97386717 -5 70 C-5.33 70 -5.66 70 -6 70 C-6 59.44 -6 48.88 -6 38 C-5.34 38 -4.68 38 -4 38 C-4.01667725 37.39559082 -4.03335449 36.79118164 -4.05053711 36.16845703 C-4.14737714 29.92137276 -3.58522724 24.03039091 -2.5625 17.875 C-2.29205493 16.18504182 -2.02251211 14.49493899 -1.75390625 12.8046875 C-1.62516113 12.00256836 -1.49641602 11.20044922 -1.36376953 10.37402344 C-0.83510331 6.9238554 -0.41222266 3.46587208 0 0 Z " fill="#724329" transform="translate(66,66)"/>
<path d="M0 0 C7.92 0 15.84 0 24 0 C24 4.29 24 8.58 24 13 C16.08 13 8.16 13 0 13 C0 8.71 0 4.42 0 0 Z " fill="#EDEDED" transform="translate(216,61)"/>
<path d="M0 0 C7.92 0 15.84 0 24 0 C24 4.29 24 8.58 24 13 C16.08 13 8.16 13 0 13 C0 8.71 0 4.42 0 0 Z " fill="#EDEDED" transform="translate(168,61)"/>
<path d="M0 0 C7.26 0 14.52 0 22 0 C22 4.29 22 8.58 22 13 C14.74 13 7.48 13 0 13 C0 8.71 0 4.42 0 0 Z " fill="#EDEDEE" transform="translate(266,61)"/>
<path d="M0 0 C0.33 0 0.66 0 1 0 C1.33 39.27 1.66 78.54 2 119 C5.3 119 8.6 119 12 119 C12 114.05 12 109.1 12 104 C10.02 103.34 8.04 102.68 6 102 C5.875 99.125 5.875 99.125 6 96 C6.99 95.01 6.99 95.01 8 94 C9.65 94 11.3 94 13 94 C13 68.59 13 43.18 13 17 C13.33 17 13.66 17 14 17 C14.33 43.07 14.66 69.14 15 96 C12.69 96 10.38 96 8 96 C8 97.98 8 99.96 8 102 C10.31 102 12.62 102 15 102 C15 108.27 15 114.54 15 121 C10.05 121 5.1 121 0 121 C0 81.07 0 41.14 0 0 Z " fill="#9D674A" transform="translate(44,42)"/>
<path d="M0 0 C0.8353125 0.37125 0.8353125 0.37125 1.6875 0.75 C1.3575 1.41 1.0275 2.07 0.6875 2.75 C127.4075 2.255 127.4075 2.255 256.6875 1.75 C257.0175 2.41 257.3475 3.07 257.6875 3.75 C170.2375 3.75 82.7875 3.75 -7.3125 3.75 C-2.3125 -0.25 -2.3125 -0.25 0 0 Z " fill="#F1BC9D" transform="translate(55.3125,32.25)"/>
<path d="M0 0 C0.33 0 0.66 0 1 0 C2.26945397 20.57321434 2.26945397 20.57321434 -4.37109375 29.19921875 C-5.23004385 30.14880148 -6.09459881 31.09459881 -7 32 C-9.69654854 32.07319621 -12.36691458 32.09242537 -15.0625 32.0625 C-16.20041992 32.05573242 -16.20041992 32.05573242 -17.36132812 32.04882812 C-19.24091871 32.0370068 -21.12046899 32.01907078 -23 32 C-23 31.67 -23 31.34 -23 31 C-18.05 31 -13.1 31 -8 31 C-8.06960937 29.576875 -8.13921875 28.15375 -8.2109375 26.6875 C-8.26724797 24.79171418 -8.32184457 22.89587691 -8.375 21 C-8.42527344 20.06542969 -8.47554687 19.13085938 -8.52734375 18.16796875 C-8.66064039 11.81416239 -7.55149785 8.28428424 -3.49462891 3.36328125 C-2 2 -2 2 0 2 C0 1.34 0 0.68 0 0 Z " fill="#1C0300" transform="translate(67,132)"/>
<path d="M0 0 C3.96 0 7.92 0 12 0 C12 0.33 12 0.66 12 1 C9.69 1.33 7.38 1.66 5 2 C4.67 14.21 4.34 26.42 4 39 C3.34 39 2.68 39 2 39 C1.67 48.9 1.34 58.8 1 69 C0.67 69 0.34 69 0 69 C0 46.23 0 23.46 0 0 Z " fill="#DFDCDB" transform="translate(68,59)"/>
<path d="M0 0 C0.33 0 0.66 0 1 0 C1 23.76 1 47.52 1 72 C-0.32 70.68 -1.64 69.36 -3 68 C-3 67.34 -3 66.68 -3 66 C-3.66 65.67 -4.32 65.34 -5 65 C-6.01973129 61.94080612 -6.11533602 59.87581975 -6.09765625 56.67578125 C-6.09443359 55.64775391 -6.09121094 54.61972656 -6.08789062 53.56054688 C-6.07951172 52.48869141 -6.07113281 51.41683594 -6.0625 50.3125 C-6.05798828 49.22904297 -6.05347656 48.14558594 -6.04882812 47.02929688 C-6.03703743 44.35280915 -6.02058063 41.67643223 -6 39 C-5.67 39 -5.34 39 -5 39 C-4.67 46.26 -4.34 53.52 -4 61 C-3.34 61.33 -2.68 61.66 -2 62 C-1.85469908 57.5567287 -1.71244322 53.1133723 -1.57275391 48.66992188 C-1.52504511 47.16501369 -1.47656936 45.66012958 -1.42724609 44.15527344 C-1.10918854 34.43179977 -0.93023807 24.7298508 -1 15 C-1.33 15 -1.66 15 -2 15 C-2.19392201 9.47322267 -1.7479503 5.24385089 0 0 Z " fill="#684332" transform="translate(300,66)"/>
<path d="M0 0 C3.63 0 7.26 0 11 0 C8 3 8 3 4.8125 3.1875 C3.4203125 3.0946875 3.4203125 3.0946875 2 3 C2 3.33 2 3.66 2 4 C-46.18 4 -94.36 4 -144 4 C-144 3.67 -144 3.34 -144 3 C-96.48 3 -48.96 3 0 3 C0 2.01 0 1.02 0 0 Z " fill="#EFE5DE" transform="translate(264,2)"/>
<path d="M0 0 C2.97 0 5.94 0 9 0 C9 0.33 9 0.66 9 1 C6.36 1 3.72 1 1 1 C1.33 26.08 1.66 51.16 2 77 C3.32 75.02 4.64 73.04 6 71 C6.33 71.66 6.66 72.32 7 73 C7.66 73.33 8.32 73.66 9 74 C8.43410156 74.69867188 7.86820313 75.39734375 7.28515625 76.1171875 C6.18494141 77.48230469 6.18494141 77.48230469 5.0625 78.875 C3.96615234 80.23238281 3.96615234 80.23238281 2.84765625 81.6171875 C0.9963748 83.84502747 0.9963748 83.84502747 0 86 C-2.31 86 -4.62 86 -7 86 C-7 84.02 -7 82.04 -7 80 C-4.69 80 -2.38 80 0 80 C0 53.6 0 27.2 0 0 Z " fill="#1F0100" transform="translate(59,58)"/>
<path d="M0 0 C0.33 0 0.66 0 1 0 C1.33 2.31 1.66 4.62 2 7 C2.99 6.01 3.98 5.02 5 4 C5.33 4.33 5.66 4.66 6 5 C5.96040472 7.53714391 5.8528892 10.03259654 5.6875 12.5625 C5.64044922 13.31740723 5.59339844 14.07231445 5.54492188 14.85009766 C4.23549122 34.29352635 4.23549122 34.29352635 2 41 C1.91685509 43.02980864 1.89264014 45.06226236 1.90234375 47.09375 C1.90556641 48.28871094 1.90878906 49.48367187 1.91210938 50.71484375 C1.92048828 51.96394531 1.92886719 53.21304688 1.9375 54.5 C1.94426758 56.37365234 1.94426758 56.37365234 1.95117188 58.28515625 C1.95991041 60.59961895 1.97069459 62.91407543 1.98413086 65.22851562 C1.9951463 67.15231949 2 69.0761646 2 71 C0 69 0 69 -0.24050903 66.13998413 C-0.23606781 64.91864777 -0.23162659 63.6973114 -0.22705078 62.43896484 C-0.22734283 61.76567642 -0.22763489 61.092388 -0.22793579 60.3986969 C-0.22654047 58.16931346 -0.21097016 55.94026268 -0.1953125 53.7109375 C-0.19158308 52.16680077 -0.18873577 50.62266167 -0.18673706 49.07852173 C-0.17909499 45.01124557 -0.15944168 40.94411189 -0.1373291 36.87689209 C-0.11688296 32.7278435 -0.10773799 28.57877193 -0.09765625 24.4296875 C-0.07619625 16.28639289 -0.04205349 8.14321416 0 0 Z " fill="#32170B" transform="translate(293,60)"/>
<path d="M0 0 C0.66 0.66 1.32 1.32 2 2 C0.35 2.66 -1.3 3.32 -3 4 C40.56 4.33 84.12 4.66 129 5 C129 5.33 129 5.66 129 6 C112.21508035 6.15381458 95.4301211 6.3018502 78.6450901 6.4429636 C70.85190802 6.50861711 63.0587511 6.57617773 55.265625 6.64819336 C48.47492207 6.71094088 41.6841992 6.77014547 34.89342821 6.82505554 C31.29616713 6.85426774 27.69894153 6.88528116 24.10173416 6.92053413 C20.09080491 6.95977535 16.07985198 6.99110808 12.06884766 7.02172852 C10.86979294 7.03467453 9.67073822 7.04762054 8.43534851 7.06095886 C7.34717331 7.06799835 6.25899811 7.07503784 5.1378479 7.08229065 C3.71367774 7.09473485 3.71367774 7.09473485 2.26073647 7.10743046 C0 7 0 7 -2 6 C-2 6.66 -2 7.32 -2 8 C-3.65 8 -5.3 8 -7 8 C-7.33 6.68 -7.66 5.36 -8 4 C-5.36 2.68 -2.72 1.36 0 0 Z " fill="#E89D70" transform="translate(63,27)"/>
<path d="M0 0 C1.70363822 0.22622081 3.41328701 0.40888473 5.125 0.5625 C6.03507812 0.64628906 6.94515625 0.73007812 7.8828125 0.81640625 C8.58148438 0.87699219 9.28015625 0.93757813 10 1 C10 1.66 10 2.32 10 3 C9.01 3 8.02 3 7 3 C7.33 3.99 7.66 4.98 8 6 C7 7 7 7 4.49975586 7.11352539 C3.41573486 7.10828857 2.33171387 7.10305176 1.21484375 7.09765625 C0.04501953 7.09443359 -1.12480469 7.09121094 -2.33007812 7.08789062 C-4.17762695 7.07532227 -4.17762695 7.07532227 -6.0625 7.0625 C-7.91584961 7.05573242 -7.91584961 7.05573242 -9.80664062 7.04882812 C-12.87114117 7.03699608 -15.93554721 7.02051173 -19 7 C-17.36587557 5.29159719 -16.13093906 4.06546953 -14 3 C-14 2.34 -14 1.68 -14 1 C-4.1686747 -2.08433735 -4.1686747 -2.08433735 0 0 Z " fill="#DC8F62" transform="translate(78,25)"/>
<path d="M0 0 C2.64 0.33 5.28 0.66 8 1 C8 1.99 8 2.98 8 4 C7.34 4 6.68 4 6 4 C6 5.65 6 7.3 6 9 C6.66 9 7.32 9 8 9 C8 12.96 8 16.92 8 21 C5.36 21 2.72 21 0 21 C0 14.07 0 7.14 0 0 Z " fill="#A46140" transform="translate(101,62)"/>
<path d="M0 0 C2.31 0 4.62 0 7 0 C7 7.59 7 15.18 7 23 C4.69 23 2.38 23 0 23 C0 18.71 0 14.42 0 10 C0.66 10 1.32 10 2 10 C2 8.35 2 6.7 2 5 C1.34 5 0.68 5 0 5 C0 3.35 0 1.7 0 0 Z " fill="#A16242" transform="translate(255,60)"/>
<path d="M0 0 C2.97 0 5.94 0 9 0 C9.28571429 7.42857143 9.28571429 7.42857143 7 11 C6.67 9.35 6.34 7.7 6 6 C3.43863779 8.56136221 3.70333143 9.66561331 3.5859375 13.2265625 C3.54726563 14.2578125 3.50859375 15.2890625 3.46875 16.3515625 C3.4378125 17.43179688 3.406875 18.51203125 3.375 19.625 C3.33632813 20.71296875 3.29765625 21.8009375 3.2578125 22.921875 C3.16333753 25.61441165 3.07777569 28.30693757 3 31 C2.67 31 2.34 31 2 31 C1.67 43.54 1.34 56.08 1 69 C0.67 69 0.34 69 0 69 C0 46.23 0 23.46 0 0 Z " fill="#33251E" transform="translate(292,59)"/>
<path d="M0 0 C18.81 0 37.62 0 57 0 C52.82908608 4.17091392 44.8835509 3.11536017 39.23936462 3.13894653 C38.06707054 3.13591019 38.06707054 3.13591019 36.87109375 3.1328125 C36.03715591 3.13376923 35.20321808 3.13472595 34.3440094 3.13571167 C32.59530562 3.13638702 30.84659924 3.1345782 29.09790039 3.13037109 C26.44086011 3.12500678 23.7839883 3.13034167 21.12695312 3.13671875 C19.4166663 3.13605799 17.70637958 3.13477686 15.99609375 3.1328125 C14.82076332 3.13584885 14.82076332 3.13584885 13.62168884 3.13894653 C8.66545507 3.11814813 3.90746625 2.70191301 -1 2 C-0.67 1.34 -0.34 0.68 0 0 Z " fill="#EDA073" transform="translate(177,23)"/>
<path d="M0 0 C9.57 0 19.14 0 29 0 C29 0.33 29 0.66 29 1 C21.02509872 2.32915021 13.05813281 2.08801359 5 2 C5 6.29 5 10.58 5 15 C4.01 15.33 3.02 15.66 2 16 C1.34 17.32 0.68 18.64 0 20 C0 15.05 0 10.1 0 5 C-0.66 5 -1.32 5 -2 5 C-1.34 3.35 -0.68 1.7 0 0 Z " fill="#FAF8F7" transform="translate(115,59)"/>
<path d="M0 0 C0.33 0 0.66 0 1 0 C1 26.07 1 52.14 1 79 C2.65 79 4.3 79 6 79 C6.12375 79.969375 6.2475 80.93875 6.375 81.9375 C6.58125 82.948125 6.7875 83.95875 7 85 C7.66 85.33 8.32 85.66 9 86 C8.01 86 7.02 86 6 86 C5.34 87.32 4.68 88.64 4 90 C3.01 89.67 2.02 89.34 1 89 C1 91.31 1 93.62 1 96 C0.67 96 0.34 96 0 96 C0 92.7 0 89.4 0 86 C1.65 86 3.3 86 5 86 C5 84.02 5 82.04 5 80 C3.35 80 1.7 80 0 80 C0 53.6 0 27.2 0 0 Z " fill="#AE6B47" transform="translate(303,59)"/>
<path d="M0 0 C4.76551013 1.37605916 8.7248553 3.46778066 12.875 6.125 C13.46796875 6.49753906 14.0609375 6.87007812 14.671875 7.25390625 C16.1181343 8.16365 17.55958046 9.08103798 19 10 C18.67 10.66 18.34 11.32 18 12 C5.13 11.505 5.13 11.505 -8 11 C-8 10.34 -8 9.68 -8 9 C-5.03 9 -2.06 9 1 9 C0.67 8.01 0.34 7.02 0 6 C1.32 5.34 2.64 4.68 4 4 C2.68 2.68 1.36 1.36 0 0 Z " fill="#EFA579" transform="translate(280,17)"/>
<path d="M0 0 C0.33 0.66 0.66 1.32 1 2 C0.360625 2.103125 -0.27875 2.20625 -0.9375 2.3125 C-1.618125 2.539375 -2.29875 2.76625 -3 3 C-3.33 3.99 -3.66 4.98 -4 6 C-5.98 6.99 -5.98 6.99 -8 8 C8.335 8.495 8.335 8.495 25 9 C25 9.33 25 9.66 25 10 C18.03408555 11.08868993 11.22729721 11.08162084 4.1875 11 C1.95187102 10.97452275 -0.2838142 10.95347892 -2.51953125 10.9375 C-3.99063354 10.92009766 -3.99063354 10.92009766 -5.49145508 10.90234375 C-8.12971114 10.88819002 -8.12971114 10.88819002 -11 12 C-11.804375 11.835 -12.60875 11.67 -13.4375 11.5 C-16.06834251 10.98666488 -17.49324027 11.16441342 -20 12 C-17.85456353 9.66672778 -15.7965192 8.19518665 -12.98828125 6.73828125 C-12.23095703 6.34189453 -11.47363281 5.94550781 -10.69335938 5.53710938 C-9.51483398 4.93092773 -9.51483398 4.93092773 -8.3125 4.3125 C-7.51521484 3.89677734 -6.71792969 3.48105469 -5.89648438 3.05273438 C-3.93353543 2.03012025 -1.96804438 1.0127632 0 0 Z " fill="#EA9F6E" transform="translate(87,14)"/>
<path d="M0 0 C0.33 0 0.66 0 1 0 C1 7.92 1 15.84 1 24 C1.66 24 2.32 24 3 24 C3.08789644 27.83318619 3.14069087 31.66610928 3.1875 35.5 C3.21263672 36.57765625 3.23777344 37.6553125 3.26367188 38.765625 C3.32314008 45.26748241 2.73652596 50.08163414 0 56 C-1.28355258 53.43289484 -1.0818427 51.68804033 -1.02172852 48.81591797 C-1.00163223 47.73494843 -0.98153595 46.65397888 -0.96083069 45.54025269 C-0.93379562 44.36939117 -0.90676056 43.19852966 -0.87890625 41.9921875 C-0.85529526 40.79643097 -0.83168427 39.60067444 -0.80735779 38.36868286 C-0.73058708 34.53733846 -0.64662032 30.70618941 -0.5625 26.875 C-0.50929275 24.28256175 -0.45655228 21.69011387 -0.40429688 19.09765625 C-0.27495381 12.73164912 -0.13969726 6.36578787 0 0 Z " fill="#FEFDFC" transform="translate(69,74)"/>
<path d="M0 0 C4.4859375 0.0309375 4.4859375 0.0309375 9.0625 0.0625 C9.0625 7.9825 9.0625 15.9025 9.0625 24.0625 C8.4025 24.0625 7.7425 24.0625 7.0625 24.0625 C6.9375 17.3125 6.9375 17.3125 8.0625 15.0625 C7.4025 15.0625 6.7425 15.0625 6.0625 15.0625 C6.0625 10.7725 6.0625 6.4825 6.0625 2.0625 C-1.5275 2.0625 -9.1175 2.0625 -16.9375 2.0625 C-16.9375 1.7325 -16.9375 1.4025 -16.9375 1.0625 C-11.24962484 0.08236412 -5.76295653 -0.05652409 0 0 Z " fill="#FCFBFA" transform="translate(89.9375,58.9375)"/>
<path d="M0 0 C1.32 0.66 2.64 1.32 4 2 C2.24560837 3.75439163 -0.05497456 3.11982963 -2.39170837 3.12442017 C-3.1642244 3.12082489 -3.93674042 3.11722961 -4.73266602 3.11352539 C-5.94720459 3.11374443 -5.94720459 3.11374443 -7.1862793 3.1139679 C-9.87551508 3.11326854 -12.56468249 3.1054751 -15.25390625 3.09765625 C-17.11335716 3.09579215 -18.97280856 3.09436821 -20.83226013 3.09336853 C-25.73629096 3.08954271 -30.64029236 3.07971188 -35.54431152 3.06866455 C-40.54451092 3.05845181 -45.54471506 3.05387121 -50.54492188 3.04882812 C-60.36329421 3.03808967 -70.18164466 3.02101248 -80 3 C-80 2.67 -80 2.34 -80 2 C-53.6 2 -27.2 2 0 2 C0 1.34 0 0.68 0 0 Z " fill="#EAA170" transform="translate(304,31)"/>
<path d="M0 0 C1.90922393 5.7276718 3.24648143 13.45704541 1.20703125 19.25390625 C0.125 20.875 0.125 20.875 -2 23 C-2.33 23 -2.66 23 -3 23 C-3.08706892 19.72933434 -3.14041241 16.45896635 -3.1875 13.1875 C-3.21263672 12.25873047 -3.23777344 11.32996094 -3.26367188 10.37304688 C-3.27333984 9.48037109 -3.28300781 8.58769531 -3.29296875 7.66796875 C-3.3086792 6.84578857 -3.32438965 6.0236084 -3.34057617 5.17651367 C-2.92566921 2.52497566 -2.04470249 1.66736408 0 0 Z " fill="#6E432C" transform="translate(63,140)"/>
<path d="M0 0 C0.78375 0.04125 1.5675 0.0825 2.375 0.125 C1.715 0.785 1.055 1.445 0.375 2.125 C-0.615 2.125 -1.605 2.125 -2.625 2.125 C-2.625 4.105 -2.625 6.085 -2.625 8.125 C-0.315 8.125 1.995 8.125 4.375 8.125 C4.375 14.395 4.375 20.665 4.375 27.125 C-0.245 27.125 -4.865 27.125 -9.625 27.125 C-9.295 26.465 -8.965 25.805 -8.625 25.125 C-5.325 25.125 -2.025 25.125 1.375 25.125 C1.375 20.175 1.375 15.225 1.375 10.125 C-0.605 9.465 -2.585 8.805 -4.625 8.125 C-4.75 5.25 -4.75 5.25 -4.625 2.125 C-2.625 0.125 -2.625 0.125 0 0 Z " fill="#9C6448" transform="translate(54.625,135.875)"/>
<path d="M0 0 C4.95 0 9.9 0 15 0 C15 7.92 15 15.84 15 24 C14.34 24 13.68 24 13 24 C13 16.41 13 8.82 13 1 C10.69 1 8.38 1 6 1 C6 2.65 6 4.3 6 6 C4.68 5.34 3.36 4.68 2 4 C2 3.34 2 2.68 2 2 C1.34 2 0.68 2 0 2 C0 1.34 0 0.68 0 0 Z " fill="#4A2E1F" transform="translate(249,59)"/>
<path d="M0 0 C7.61830175 3.66164871 14.91144926 7.76612189 22.1875 12.0625 C24.26418207 13.28279181 26.34100141 14.50285004 28.41796875 15.72265625 C29.86115479 16.57174561 29.86115479 16.57174561 31.33349609 17.43798828 C34.541691 19.31731725 37.76590669 21.16566985 41 23 C40.34 23.66 39.68 24.32 39 25 C38.02804687 24.42894531 37.05609375 23.85789062 36.0546875 23.26953125 C35.39976318 22.88474609 34.74483887 22.49996094 34.07006836 22.10351562 C32.58850781 21.23214512 31.10756473 20.35972402 29.62719727 19.48632812 C25.08679051 16.80854492 20.53601886 14.15021966 15.97265625 11.51171875 C13.96091033 10.34119252 11.94919124 9.1706202 9.9375 8 C8.95571777 7.43643799 7.97393555 6.87287598 6.96240234 6.29223633 C6.05570801 5.76267334 5.14901367 5.23311035 4.21484375 4.6875 C3.40136475 4.21699219 2.58788574 3.74648437 1.74975586 3.26171875 C1.17233643 2.84535156 0.59491699 2.42898437 0 2 C0 1.34 0 0.68 0 0 Z " fill="#45271C" transform="translate(267,7)"/>
<path d="M0 0 C0.66 0 1.32 0 2 0 C2 7.59 2 15.18 2 23 C-0.31 23 -2.62 23 -5 23 C-5 18.71 -5 14.42 -5 10 C-4.01 10 -3.02 10 -2 10 C-1.67 8.68 -1.34 7.36 -1 6 C-0.957279 7.66611905 -0.95936168 9.33382885 -1 11 C-1.33 11.33 -1.66 11.66 -2 12 C-2.23075082 13.34747084 -2.41153063 14.70377565 -2.5625 16.0625 C-2.706875 17.361875 -2.85125 18.66125 -3 20 C-1.68 20 -0.36 20 1 20 C0.67 13.4 0.34 6.8 0 0 Z " fill="#A36C50" transform="translate(260,60)"/>
<path d="M0 0 C1.984375 1.546875 1.984375 1.546875 4 4 C4.390625 7.453125 4.390625 7.453125 4.25 11.25 C4.21390625 12.51328125 4.1778125 13.7765625 4.140625 15.078125 C4.09421875 16.04234375 4.0478125 17.0065625 4 18 C0.75814601 14.91696882 -1.10439255 12.07204563 -3 8 C-2.3125 5.25 -2.3125 5.25 -1 3 C-0.67 2.01 -0.34 1.02 0 0 Z " fill="#6C4838" transform="translate(297,141)"/>
<path d="M0 0 C0.33 0 0.66 0 1 0 C1.33 20.79 1.66 41.58 2 63 C1.01 63 0.02 63 -1 63 C-1.02542668 55.31364654 -1.0428991 47.62730399 -1.05493164 39.94091797 C-1.05994971 37.32795812 -1.06676562 34.71500106 -1.07543945 32.10205078 C-1.08761575 28.33886016 -1.09325368 24.57570678 -1.09765625 20.8125 C-1.10281754 19.65073242 -1.10797882 18.48896484 -1.11329651 17.29199219 C-1.11369894 11.42831864 -0.89499752 5.79735419 0 0 Z " fill="#5B3E30" transform="translate(66,66)"/>
<path d="M0 0 C3 0 3 0 4.5 1.4375 C4.995 1.953125 5.49 2.46875 6 3 C6.99 3.33 7.98 3.66 9 4 C9 5.32 9 6.64 9 8 C8.34 8 7.68 8 7 8 C6.67 7.34 6.34 6.68 6 6 C5.01 6.33 4.02 6.66 3 7 C3 10.3 3 13.6 3 17 C2.01 16.34 1.02 15.68 0 15 C-0.22137393 12.37302936 -0.28162025 9.99106036 -0.1875 7.375 C-0.17396484 6.66859375 -0.16042969 5.9621875 -0.14648438 5.234375 C-0.1111104 3.48925872 -0.05730221 1.74453392 0 0 Z " fill="#2D140D" transform="translate(248,61)"/>
<path d="M0 0 C0.66 0.33 1.32 0.66 2 1 C3.70363822 1.22622081 5.41328701 1.40888473 7.125 1.5625 C8.03507812 1.64628906 8.94515625 1.73007812 9.8828125 1.81640625 C10.58148438 1.87699219 11.28015625 1.93757813 12 2 C12 2.66 12 3.32 12 4 C11.22914062 3.97679687 10.45828125 3.95359375 9.6640625 3.9296875 C8.15972656 3.90261719 8.15972656 3.90261719 6.625 3.875 C5.62726563 3.85179687 4.62953125 3.82859375 3.6015625 3.8046875 C0.83737827 3.72783152 0.83737827 3.72783152 -1 6 C-3.1640625 5.9765625 -3.1640625 5.9765625 -5.625 5.625 C-6.44226563 5.51414062 -7.25953125 5.40328125 -8.1015625 5.2890625 C-8.72804688 5.19367187 -9.35453125 5.09828125 -10 5 C-9.34 4.67 -8.68 4.34 -8 4 C-7.67 3.01 -7.34 2.02 -7 1 C-4.50564175 -0.24717912 -2.76297351 -0.13814868 0 0 Z " fill="#DA8657" transform="translate(76,24)"/>
<path d="M0 0 C0.33 0 0.66 0 1 0 C1 6.27 1 12.54 1 19 C5.95 18.67 10.9 18.34 16 18 C16 18.66 16 19.32 16 20 C10.72 20 5.44 20 0 20 C-3.96 13.07 -3.96 13.07 -8 6 C-7.34 5.67 -6.68 5.34 -6 5 C-4.35 7.97 -2.7 10.94 -1 14 C-0.67 9.38 -0.34 4.76 0 0 Z " fill="#240B07" transform="translate(301,144)"/>
<path d="M0 0 C2.80918101 3.74557468 3.40042538 4.81830102 4.0625 9.125 C4.58602501 13.01027004 4.58602501 13.01027004 7 16 C6.195625 15.979375 5.39125 15.95875 4.5625 15.9375 C2.06645115 15.70366379 2.06645115 15.70366379 1 17 C5.29 17 9.58 17 14 17 C14 17.33 14 17.66 14 18 C9.38 18 4.76 18 0 18 C0 12.06 0 6.12 0 0 Z " fill="#965A3C" transform="translate(302,145)"/>
<path d="M0 0 C0.66 0 1.32 0 2 0 C2.33 2.97 2.66 5.94 3 9 C4.32 8.67 5.64 8.34 7 8 C7 8.66 7 9.32 7 10 C5.35 10.33 3.7 10.66 2 11 C2 15.29 2 19.58 2 24 C1.34 24 0.68 24 0 24 C0 16.08 0 8.16 0 0 Z " fill="#EAEAEB" transform="translate(288,122)"/>
<path d="M0 0 C0.27616405 2.7496334 0.52164742 5.49633658 0.75 8.25 C0.83121094 9.02730469 0.91242188 9.80460938 0.99609375 10.60546875 C1.44413244 16.42997175 1.44413244 16.42997175 -0.984375 19.546875 C-1.64953125 20.02640625 -2.3146875 20.5059375 -3 21 C-3.24913692 18.25048889 -3.47491836 15.5023728 -3.6875 12.75 C-3.76033203 11.97269531 -3.83316406 11.19539062 -3.90820312 10.39453125 C-4.32973614 4.59225334 -4.32973614 4.59225334 -2.58203125 1.453125 C-1 0 -1 0 0 0 Z " fill="#3A2419" transform="translate(67,135)"/>
<path d="M0 0 C0.99 0.495 0.99 0.495 2 1 C1.67 6.94 1.34 12.88 1 19 C2.65 19 4.3 19 6 19 C6 15.7 6 12.4 6 9 C6.66 9 7.32 9 8 9 C8 12.96 8 16.92 8 21 C5.36 21 2.72 21 0 21 C0 14.07 0 7.14 0 0 Z " fill="#9D6A4E" transform="translate(101,62)"/>
<path d="M0 0 C0.33 0.66 0.66 1.32 1 2 C0.360625 2.103125 -0.27875 2.20625 -0.9375 2.3125 C-1.618125 2.539375 -2.29875 2.76625 -3 3 C-3.33 3.99 -3.66 4.98 -4 6 C-6.0625 7.1875 -6.0625 7.1875 -8 8 C-8 8.99 -8 9.98 -8 11 C-11 12 -11 12 -13.4375 11.5 C-16.06834251 10.98666488 -17.49324027 11.16441342 -20 12 C-17.85456353 9.66672778 -15.7965192 8.19518665 -12.98828125 6.73828125 C-12.23095703 6.34189453 -11.47363281 5.94550781 -10.69335938 5.53710938 C-9.51483398 4.93092773 -9.51483398 4.93092773 -8.3125 4.3125 C-7.51521484 3.89677734 -6.71792969 3.48105469 -5.89648438 3.05273438 C-3.93353543 2.03012025 -1.96804438 1.0127632 0 0 Z " fill="#E7A47C" transform="translate(87,14)"/>
<path d="M0 0 C2 0 2 0 3.625 1.5 C4.07875 1.995 4.5325 2.49 5 3 C5.33 2.01 5.66 1.02 6 0 C6.33 4.29 6.66 8.58 7 13 C5.02 13.99 5.02 13.99 3 15 C2.67 11.7 2.34 8.4 2 5 C1.34 5 0.68 5 0 5 C0 3.35 0 1.7 0 0 Z " fill="#502E22" transform="translate(107,66)"/>
<path d="M0 0 C3.3 0 6.6 0 10 0 C10 0.99 10 1.98 10 3 C7.03 4.32 4.06 5.64 1 7 C0 6 0 6 -0.0625 2.9375 C-0.041875 1.968125 -0.02125 0.99875 0 0 Z " fill="#EBEAE8" transform="translate(48,26)"/>
<path d="M0 0 C0.33 0 0.66 0 1 0 C1 3.3 1 6.6 1 10 C0.01 10 -0.98 10 -2 10 C-2 16.27 -2 22.54 -2 29 C-2.33 29 -2.66 29 -3 29 C-3 22.4 -3 15.8 -3 9 C-3.66 8.67 -4.32 8.34 -5 8 C-4.01 7.67 -3.02 7.34 -2 7 C-0.77030122 3.48809191 -0.77030122 3.48809191 0 0 Z " fill="#D5D3D0" transform="translate(71,122)"/>
<path d="M0 0 C1.23556641 0.01740234 1.23556641 0.01740234 2.49609375 0.03515625 C3.32238281 0.04417969 4.14867187 0.05320313 5 0.0625 C5.63808594 0.07410156 6.27617187 0.08570313 6.93359375 0.09765625 C6.93359375 1.74765625 6.93359375 3.39765625 6.93359375 5.09765625 C4.29359375 5.09765625 1.65359375 5.09765625 -1.06640625 5.09765625 C-1.72640625 3.77765625 -2.38640625 2.45765625 -3.06640625 1.09765625 C-2.06640625 0.09765625 -2.06640625 0.09765625 0 0 Z " fill="#431E10" transform="translate(301.06640625,139.90234375)"/>
<path d="M0 0 C0.33 0.99 0.66 1.98 1 3 C-1.64458379 4.32229189 -3.67761301 4.09677194 -6.625 4.0625 C-7.62789063 4.05347656 -8.63078125 4.04445313 -9.6640625 4.03515625 C-10.43492188 4.02355469 -11.20578125 4.01195312 -12 4 C-8.07829422 -0.09996514 -5.68430095 -0.10526483 0 0 Z " fill="#F3B38B" transform="translate(103,9)"/>
<path d="M0 0 C0.66 0.66 1.32 1.32 2 2 C0.35 2.66 -1.3 3.32 -3 4 C-0.03 4.495 -0.03 4.495 3 5 C2.67 5.66 2.34 6.32 2 7 C0.68 6.67 -0.64 6.34 -2 6 C-2 6.66 -2 7.32 -2 8 C-3.65 8 -5.3 8 -7 8 C-7.33 6.68 -7.66 5.36 -8 4 C-5.36 2.68 -2.72 1.36 0 0 Z " fill="#F1A97D" transform="translate(63,27)"/>
<path d="M0 0 C3.40312738 1.05875074 6.01353231 2.00902154 9 4 C8.67 4.66 8.34 5.32 8 6 C5.03 5.67 2.06 5.34 -1 5 C-1 1 -1 1 0 0 Z " fill="#EFAF89" transform="translate(290,23)"/>
<path d="M0 0 C0.8353125 0.37125 0.8353125 0.37125 1.6875 0.75 C1.3575 1.41 1.0275 2.07 0.6875 2.75 C2.9975 2.75 5.3075 2.75 7.6875 2.75 C7.6875 3.08 7.6875 3.41 7.6875 3.75 C2.7375 3.75 -2.2125 3.75 -7.3125 3.75 C-2.3125 -0.25 -2.3125 -0.25 0 0 Z " fill="#E8B895" transform="translate(55.3125,32.25)"/>
<path d="M0 0 C0.33 0 0.66 0 1 0 C1 1.65 1 3.3 1 5 C1.66 5 2.32 5 3 5 C3 4.34 3 3.68 3 3 C5.31 2.01 7.62 1.02 10 0 C9 2 8 4 7 6 C4.69 6 2.38 6 0 6 C0 4.02 0 2.04 0 0 Z " fill="#492A1E" transform="translate(52,138)"/>
<path d="M0 0 C0.99 0.33 1.98 0.66 3 1 C3 1.66 3 2.32 3 3 C6.63 3 10.26 3 14 3 C14 3.33 14 3.66 14 4 C12.58366664 4.16947579 11.16691467 4.33545507 9.75 4.5 C8.56664062 4.63921875 8.56664062 4.63921875 7.359375 4.78125 C5 5 5 5 1 5 C0.34 4.34 -0.32 3.68 -1 3 C-0.67 2.01 -0.34 1.02 0 0 Z " fill="#D1CAC5" transform="translate(250,81)"/>
<path d="M0 0 C2.64 0 5.28 0 8 0 C8 1.32 8 2.64 8 4 C5.36 3.67 2.72 3.34 0 3 C0 2.01 0 1.02 0 0 Z " fill="#683C26" transform="translate(101,59)"/>
<path d="M0 0 C0.66 0 1.32 0 2 0 C2.33 2.97 2.66 5.94 3 9 C4.32 8.67 5.64 8.34 7 8 C7 8.66 7 9.32 7 10 C5.02 10.33 3.04 10.66 1 11 C0.4254048 7.26513121 0 3.78706732 0 0 Z " fill="#E6E4E4" transform="translate(288,122)"/>
<path d="M0 0 C0.33 0 0.66 0 1 0 C1 3.63 1 7.26 1 11 C0.01 11 -0.98 11 -2 11 C-2.25 3.375 -2.25 3.375 0 0 Z " fill="#A85C36" transform="translate(259,69)"/>
<path d="M0 0 C2 2 2 2 2.1953125 4.1640625 C2.17210937 4.97617188 2.14890625 5.78828125 2.125 6.625 C2.10695313 7.44226563 2.08890625 8.25953125 2.0703125 9.1015625 C2.03550781 10.04128906 2.03550781 10.04128906 2 11 C1.67 10.34 1.34 9.68 1 9 C-1.02463255 8.34786708 -1.02463255 8.34786708 -3 8 C-2.690625 7.236875 -2.38125 6.47375 -2.0625 5.6875 C-1.32106407 3.81210323 -0.63771783 1.91315348 0 0 Z " fill="#683D26" transform="translate(297,141)"/>
<path d="M0 0 C0.33 0.66 0.66 1.32 1 2 C1.66 2.33 2.32 2.66 3 3 C1.35 4.98 -0.3 6.96 -2 9 C-2.99 8.67 -3.98 8.34 -5 8 C-3.35 5.36 -1.7 2.72 0 0 Z " fill="#28130C" transform="translate(65,129)"/>
<path d="M0 0 C5.75 -0.125 5.75 -0.125 8 1 C7.67 1.99 7.34 2.98 7 4 C6.01 4.33 5.02 4.66 4 5 C1.8125 3.6875 1.8125 3.6875 0 2 C0 1.34 0 0.68 0 0 Z " fill="#E8E8E4" transform="translate(304,26)"/>
<path d="M0 0 C2.475 0.99 2.475 0.99 5 2 C3.68 4.31 2.36 6.62 1 9 C0.67 9 0.34 9 0 9 C0 6.03 0 3.06 0 0 Z " fill="#553B31" transform="translate(60,154)"/>
<path d="M0 0 C0.99 0.99 1.98 1.98 3 3 C2.8125 6.625 2.8125 6.625 2 10 C1.01 10.495 1.01 10.495 0 11 C0 7.37 0 3.74 0 0 Z " fill="#3F281D" transform="translate(294,136)"/>
<path d="M0 0 C0.66 0.33 1.32 0.66 2 1 C2 4.3 2 7.6 2 11 C-1 8 -1 8 -1.07421875 5.95703125 C-0.71614583 3.97135417 -0.35807292 1.98567708 0 0 Z " fill="#6C4B3B" transform="translate(251,68)"/>
<path d="M0 0 C1.32 0.66 2.64 1.32 4 2 C3 3 3 3 1.14233398 3.11352539 C0.35157471 3.10828857 -0.43918457 3.10305176 -1.25390625 3.09765625 C-2.10791016 3.09443359 -2.96191406 3.09121094 -3.84179688 3.08789062 C-4.73962891 3.07951172 -5.63746094 3.07113281 -6.5625 3.0625 C-7.46419922 3.05798828 -8.36589844 3.05347656 -9.29492188 3.04882812 C-11.53001314 3.03700225 -13.76497437 3.0205222 -16 3 C-16 2.67 -16 2.34 -16 2 C-10.72 2 -5.44 2 0 2 C0 1.34 0 0.68 0 0 Z " fill="#E1996F" transform="translate(304,31)"/>
<path d="M0 0 C0.99 0 1.98 0 3 0 C2.67 0.99 2.34 1.98 2 3 C1.93101831 4.83215356 1.91532277 6.66668243 1.9375 8.5 C1.94652344 9.4590625 1.95554688 10.418125 1.96484375 11.40625 C1.97644531 12.2621875 1.98804688 13.118125 2 14 C2 14.99 2 15.98 2 17 C0 15 0 15 -0.1953125 11.5234375 C-0.18201493 10.14049032 -0.15816232 8.75761346 -0.125 7.375 C-0.11597656 6.66859375 -0.10695312 5.9621875 -0.09765625 5.234375 C-0.07407603 3.48943902 -0.03820461 1.74467705 0 0 Z " fill="#140807" transform="translate(248,61)"/>
<path d="M0 0 C0 1.32 0 2.64 0 4 C-3.63 3.67 -7.26 3.34 -11 3 C-7.25593545 0.50395696 -4.45848315 0 0 0 Z " fill="#633925" transform="translate(316,38)"/>
<path d="M0 0 C1 3 1 3 0.0390625 5.04296875 C-0.42757812 5.75066406 -0.89421875 6.45835937 -1.375 7.1875 C-1.83648437 7.90292969 -2.29796875 8.61835938 -2.7734375 9.35546875 C-3.17820313 9.89816406 -3.58296875 10.44085938 -4 11 C-4.33 11 -4.66 11 -5 11 C-5 8.69 -5 6.38 -5 4 C-4.67 4.66 -4.34 5.32 -4 6 C-3.34 6 -2.68 6 -2 6 C-1.34 4.02 -0.68 2.04 0 0 Z " fill="#6E4934" transform="translate(65,125)"/>
<path d="M0 0 C4.50802601 1.25805377 7.4912812 2.90407165 11 6 C10.01 6.66 9.02 7.32 8 8 C5.33333333 5.33333333 2.66666667 2.66666667 0 0 Z " fill="#D69975" transform="translate(280,17)"/>
<path d="M0 0 C0.33 0.66 0.66 1.32 1 2 C0.0409375 2.1546875 0.0409375 2.1546875 -0.9375 2.3125 C-1.618125 2.539375 -2.29875 2.76625 -3 3 C-3.33 3.99 -3.66 4.98 -4 6 C-5.65 6.33 -7.3 6.66 -9 7 C-9.33 6.34 -9.66 5.68 -10 5 C-6.7 3.35 -3.4 1.7 0 0 Z " fill="#D69674" transform="translate(87,14)"/>
<path d="M0 0 C2.31 0 4.62 0 7 0 C7.33 0.66 7.66 1.32 8 2 C6.576875 2.12375 6.576875 2.12375 5.125 2.25 C1.89538209 2.65074923 1.89538209 2.65074923 0.625 5.0625 C0.41875 5.701875 0.2125 6.34125 0 7 C0 4.69 0 2.38 0 0 Z " fill="#3F2F29" transform="translate(292,59)"/>
<path d="M0 0 C1.32 0 2.64 0 4 0 C4.66 1.98 5.32 3.96 6 6 C4.35 6 2.7 6 1 6 C1.99 5.67 2.98 5.34 4 5 C4 4.34 4 3.68 4 3 C2.35 2.67 0.7 2.34 -1 2 C-0.67 1.34 -0.34 0.68 0 0 Z " fill="#EC9E70" transform="translate(283,22)"/>
<path d="M0 0 C0.66 0.33 1.32 0.66 2 1 C2 1.66 2 2.32 2 3 C-2.62 3 -7.24 3 -12 3 C-11.67 2.34 -11.34 1.68 -11 1 C-10.28972656 1.01160156 -9.57945313 1.02320313 -8.84765625 1.03515625 C-7.92855469 1.04417969 -7.00945313 1.05320313 -6.0625 1.0625 C-4.68771484 1.07990234 -4.68771484 1.07990234 -3.28515625 1.09765625 C-1.03406673 1.25949049 -1.03406673 1.25949049 0 0 Z " fill="#9C6E59" transform="translate(57,160)"/>
<path d="M0 0 C0.33 0 0.66 0 1 0 C1.66 2.97 2.32 5.94 3 9 C2.01 9 1.02 9 0 9 C-0.66 6.69 -1.32 4.38 -2 2 C-1.34 1.34 -0.68 0.68 0 0 Z " fill="#F5F3EF" transform="translate(291,122)"/>
<path d="M0 0 C2 3 2 3 2 6 C0.35 6.33 -1.3 6.66 -3 7 C-1.125 2.25 -1.125 2.25 0 0 Z " fill="#E0DCD8" transform="translate(114,77)"/>
<path d="M0 0 C1.32 0 2.64 0 4 0 C3.67 2.64 3.34 5.28 3 8 C2.67 8 2.34 8 2 8 C1.34 5.36 0.68 2.72 0 0 Z " fill="#472D1E" transform="translate(297,62)"/>
<path d="M0 0 C0.99 0 1.98 0 3 0 C3.33 0.99 3.66 1.98 4 3 C3.02149805 4.02104551 2.02019573 5.0206121 1 6 C0.67 6 0.34 6 0 6 C0 4.02 0 2.04 0 0 Z " fill="#3E2A22" transform="translate(110,59)"/>
<path d="M0 0 C0.66 0.66 1.32 1.32 2 2 C0.7934375 2.433125 0.7934375 2.433125 -0.4375 2.875 C-3.1326468 3.73262568 -3.1326468 3.73262568 -4 6 C-5.32 5.34 -6.64 4.68 -8 4 C-5.36 2.68 -2.72 1.36 0 0 Z " fill="#DB9F80" transform="translate(63,27)"/>
</svg>
