<?xml version="1.0" encoding="UTF-8"?>
<svg version="1.1" xmlns="http://www.w3.org/2000/svg" width="225" height="159">
<path d="M0 0 C74.25 0 148.5 0 225 0 C225 52.47 225 104.94 225 159 C150.75 159 76.5 159 0 159 C0 106.53 0 54.06 0 0 Z " fill="#C0C2C0" transform="translate(0,0)"/>
<path d="M0 0 C43.89 0 87.78 0 133 0 C133.54541533 35.99741148 134 71.99845682 134 108 C89.78 108 45.56 108 0 108 C0 72.36 0 36.72 0 0 Z " fill="#FEFEFE" transform="translate(46,24)"/>
<path d="M0 0 C74.25 0 148.5 0 225 0 C225 52.47 225 104.94 225 159 C218 159 218 159 215.58691406 156.59057617 C213.57317937 152.03426907 213.49081843 148.46899948 213.609375 143.55078125 C213.61503479 142.65634811 213.62069458 141.76191498 213.62652588 140.84037781 C213.6488116 137.99719441 213.69895628 135.15529799 213.75 132.3125 C213.77007841 130.38999238 213.78832683 128.46746473 213.8046875 126.54492188 C213.84391684 122.32188346 213.90067768 118.09950219 213.9730835 113.87690735 C214.01251446 111.12735784 213.98716611 108.38611219 213.9296875 105.63671875 C213.91164062 104.33347656 213.89359375 103.03023438 213.875 101.6875 C213.85179687 100.39199219 213.82859375 99.09648438 213.8046875 97.76171875 C213.99396832 94.11617016 214.66959901 91.37838048 216 88 C215.34 87.67 214.68 87.34 214 87 C214 60.93 214 34.86 214 8 C209.44427317 6.86106829 208.47505692 7.30762221 204.3125 9.125 C202.85263672 9.74761719 202.85263672 9.74761719 201.36328125 10.3828125 C198.18607903 11.79979535 198.18607903 11.79979535 196.23137569 13.23439217 C189.14232039 17.96521554 182.22838461 17.6469755 173.96508789 17.49169922 C172.45964771 17.48204873 170.95419192 17.47461747 169.44873047 17.46922302 C165.38476515 17.44830006 161.32174634 17.39618259 157.25816655 17.33797216 C153.00049552 17.28208 148.74263707 17.2542809 144.48472595 17.22317505 C137.34366356 17.16709626 130.20299771 17.09253031 123.06225586 17.00488281 C112.98287919 16.88121717 102.90340927 16.79255189 92.82362378 16.71008658 C85.84279151 16.65170159 78.86203345 16.58512829 71.88129115 16.51691294 C70.18804781 16.50038878 68.49480236 16.48407913 66.80155492 16.46798086 C61.98128301 16.42182323 57.16112119 16.37056159 52.34099579 16.31097603 C50.87925783 16.29358987 49.41749915 16.27785873 47.95572472 16.26387215 C45.9665724 16.24447772 43.97748892 16.21836393 41.98841858 16.19186401 C40.87367692 16.17891737 39.75893526 16.16597073 38.61041355 16.15263176 C36 16 36 16 34 15 C34 14.34 34 13.68 34 13 C32.700625 12.62875 32.700625 12.62875 31.375 12.25 C28 11 28 11 24.9375 8.9375 C22.08546252 7.0563689 20.3200875 6.46112326 17 6 C16.34 5.67 15.68 5.34 15 5 C13.97999645 12.58454975 13.84862114 20.03948555 13.84228516 27.6862793 C13.8376074 29.04731406 13.83246228 30.40834728 13.82688904 31.76937866 C13.81567972 34.68305499 13.80721174 37.59672152 13.80076981 40.51041222 C13.79002175 45.12089645 13.76976278 49.73130911 13.74765015 54.3417511 C13.68594201 67.4459813 13.63165799 80.55020464 13.59863281 93.65454102 C13.58028104 100.90507205 13.55134854 108.15548043 13.5106281 115.40592128 C13.4895878 119.23680324 13.47410486 123.06753096 13.47182083 126.89847374 C13.46967175 130.49785397 13.45377638 134.09691173 13.42743111 137.6961937 C13.41683275 139.64154481 13.42098693 141.58695889 13.4256134 143.53233337 C13.32490069 154.10757925 13.32490069 154.10757925 10 159 C6.7 159 3.4 159 0 159 C0 106.53 0 54.06 0 0 Z " fill="#FEFEFD" transform="translate(0,0)"/>
<path d="M0 0 C1.5 1.3125 1.5 1.3125 3 3 C3 3.99 3 4.98 3 6 C4.94074861 5.72382467 4.94074861 5.72382467 7 5 C7.66 4.01 8.32 3.02 9 2 C11.4792531 10.92531117 11.5901351 19.7780397 12 29 C12.33 21.08 12.66 13.16 13 5 C17 4 17 4 24 8 C24 40.34 24 72.68 24 106 C22.02 106.495 22.02 106.495 20 107 C20.20625 107.763125 20.4125 108.52625 20.625 109.3125 C21 112 21 112 19 115 C17.04296875 114.27734375 17.04296875 114.27734375 15 113 C14.42578125 110.94140625 14.42578125 110.94140625 14.3125 108.5625 C14.14844108 105.71724958 13.91427025 103.74281075 13 101 C12.67 107.93 12.34 114.86 12 122 C16.19076078 119.70087639 16.19076078 119.70087639 20.37646484 117.39257812 C24.77777778 115 24.77777778 115 27 115 C27 82.99 27 50.98 27 18 C27.33 18 27.66 18 28 18 C28.33 15.03 28.66 12.06 29 9 C29.66 9 30.32 9 31 9 C31.01030746 10.12530624 31.02061493 11.25061249 31.03123474 12.41001892 C31.12879191 22.99067164 31.23150873 33.57126321 31.33933926 44.15181637 C31.39461469 49.59199386 31.44804194 55.03217668 31.49731445 60.47241211 C31.54489002 65.71790476 31.59723009 70.9633298 31.65294075 76.20874214 C31.67339526 78.21469004 31.69210309 80.22065649 31.70907402 82.22663689 C31.73304977 85.02607849 31.76311325 87.82539103 31.79467773 90.62475586 C31.80331093 91.88171265 31.80331093 91.88171265 31.81211853 93.1640625 C31.50626681 96.88666054 31.50626681 96.88666054 33 100 C33 105.28 33 110.56 33 116 C76.89 116 120.78 116 166 116 C165.67 116.66 165.34 117.32 165 118 C165.66 118.33 166.32 118.66 167 119 C166.67 120.32 166.34 121.64 166 123 C94.72 123.495 94.72 123.495 22 124 C22 124.66 22 125.32 22 126 C20.02 126.495 20.02 126.495 18 127 C18.495 125.515 18.495 125.515 19 124 C18.505 123.01 18.505 123.01 18 122 C14.93449408 122.98958997 14.93449408 122.98958997 12 125 C11.25823993 128.52513528 11.25823993 128.52513528 11 132 C8 134 8 134 5 134 C5 125.42 5 116.84 5 108 C4.01 108 3.02 108 2 108 C2.01047363 108.92337158 2.02094727 109.84674316 2.03173828 110.7980957 C2.0658319 114.22536718 2.09090446 117.65245833 2.10986328 121.07983398 C2.11991821 122.56293583 2.13356404 124.04601788 2.15087891 125.52905273 C2.17515006 127.66134531 2.18648799 129.79337569 2.1953125 131.92578125 C2.20578613 133.20880127 2.21625977 134.49182129 2.22705078 135.8137207 C2 139 2 139 0 142 C-0.99 142 -1.98 142 -3 142 C-2.6757435 141.13137014 -2.35148701 140.26274029 -2.01740456 139.36778831 C-1.02212507 136.07323789 -0.74050668 133.53803747 -0.7215271 130.11538696 C-0.71036362 128.96281403 -0.69920013 127.81024109 -0.68769836 126.6227417 C-0.68553818 125.37261292 -0.68337799 124.12248413 -0.68115234 122.83447266 C-0.6718459 121.49369711 -0.66167616 120.15292732 -0.65071106 118.81216431 C-0.62347763 115.1845483 -0.6082815 111.55697099 -0.59528303 107.9292798 C-0.57962326 104.13358417 -0.55284214 100.33796721 -0.5272522 96.54232788 C-0.48051472 89.36019919 -0.44374631 82.17805561 -0.41057932 74.99585283 C-0.37232233 66.81686054 -0.32292156 58.63794735 -0.27259517 50.45902181 C-0.16935017 33.63940473 -0.08006567 16.81974372 0 0 Z " fill="#BEC2BF" transform="translate(13,17)"/>
<path d="M0 0 C5.51606199 0.44128496 8.54865425 1.77987754 13 5 C14.98507948 6.02930047 16.98114251 7.03863929 19 8 C19 8.66 19 9.32 19 10 C20.11375 10.433125 20.11375 10.433125 21.25 10.875 C23.56739797 11.82302644 25.77917115 12.84845911 28 14 C28.66 13.34 29.32 12.68 30 12 C32.6015625 11.8046875 32.6015625 11.8046875 35.625 11.875 C37.12933594 11.90207031 37.12933594 11.90207031 38.6640625 11.9296875 C39.43492188 11.95289063 40.20578125 11.97609375 41 12 C41 12.99 41 13.98 41 15 C43.97 15 46.94 15 50 15 C49.67 15.66 49.34 16.32 49 17 C86.62 17 124.24 17 163 17 C163 16.34 163 15.68 163 15 C163.66 15 164.32 15 165 15 C165 14.01 165 13.02 165 12 C166.65 12 168.3 12 170 12 C170.2475 12.639375 170.495 13.27875 170.75 13.9375 C171.80479558 16.11868898 171.80479558 16.11868898 173.8125 16.8125 C176.38764878 17.03322704 178.50222685 16.62444329 181 16 C180.67 16.66 180.34 17.32 180 18 C177.6859378 18.73075648 175.35171131 19.40138258 173 20 C173.07604782 33.73498137 173.19467102 47.4688696 173.36780548 61.20299053 C173.4468573 67.58027476 173.51118247 73.95700256 173.54199219 80.3347168 C173.57226048 86.48865465 173.64102917 92.64106325 173.73661804 98.79432106 C173.76631393 101.14293952 173.78208597 103.4917763 173.7837677 105.84058189 C173.78849121 109.12935146 173.84249582 112.41386683 173.90820312 115.7019043 C173.8981424 116.6751062 173.88808167 117.64830811 173.87771606 118.65100098 C173.97190937 123.68255612 173.97190937 123.68255612 176.71263123 127.67457008 C178.76382697 128.98389951 180.77526598 130.01896472 183 131 C184.33494562 131.66343229 185.66876953 132.32914409 187 133 C187 133.66 187 134.32 187 135 C183.35371092 133.64734437 180.17432828 131.9907517 176.875 129.9375 C174.19748052 128.27320598 172.00027598 127.00009199 169 126 C168.82715057 116.02093298 168.66078749 106.04176796 168.5 96.0625 C168.48812275 95.32557545 168.4762455 94.58865089 168.46400833 93.82939529 C168.06944008 69.21802678 167.8570306 44.61493185 168 20 C167.34 20 166.68 20 166 20 C166 55.64 166 91.28 166 128 C121.45 128 76.9 128 31 128 C31 127.67 31 127.34 31 127 C75.22 127 119.44 127 165 127 C164.67 113.14 164.34 99.28 164 85 C164 63.22 164 41.44 164 19 C120.11 19 76.22 19 31 19 C31 49.69 31 80.38 31 112 C30.01 111.505 30.01 111.505 29 111 C29 81.3 29 51.6 29 21 C28.34 21 27.68 21 27 21 C27 55.65 27 90.3 27 126 C12 134 12 134 10 134 C8.83274828 129.54162501 9.01367858 125.30190981 9.3125 120.75 C9.34794922 120.0178125 9.38339844 119.285625 9.41992188 118.53125 C9.53470927 116.68094576 9.75869821 114.83809014 10 113 C10.99 112.505 10.99 112.505 12 112 C12.10957031 112.91523437 12.21914063 113.83046875 12.33203125 114.7734375 C12.49058594 115.96195312 12.64914063 117.15046875 12.8125 118.375 C12.96332031 119.55835937 13.11414062 120.74171875 13.26953125 121.9609375 C13.70699334 125.29532084 13.70699334 125.29532084 17 127 C17.33 124.36 17.66 121.72 18 119 C19.98 118.505 19.98 118.505 22 118 C21.505 69.49 21.505 69.49 21 20 C19.02 19.01 17.04 18.02 15 17 C14.01 17.33 13.02 17.66 12 18 C11.34 29.88 10.68 41.76 10 54 C9.67 54 9.34 54 9 54 C8.97494385 53.08710205 8.9498877 52.1742041 8.92407227 51.23364258 C8.82868393 47.83232369 8.72946598 44.43116061 8.62768555 41.0300293 C8.58449295 39.56067232 8.54280744 38.0912702 8.50268555 36.62182617 C8.44460118 34.50425645 8.38101902 32.38691063 8.31640625 30.26953125 C8.27974854 28.99698486 8.24309082 27.72443848 8.20532227 26.41333008 C8.06074181 22.71054603 8.06074181 22.71054603 7 18 C6.67 59.58 6.34 101.16 6 144 C5.67 144 5.34 144 5 144 C4.67 102.42 4.34 60.84 4 18 C3.01 18 2.02 18 1 18 C-1.22735782 14.9159661 -2.05930888 12.73994893 -1.75390625 8.9296875 C-1.24025968 5.93282543 -0.66716738 2.96625496 0 0 Z " fill="#A6A8A5" transform="translate(15,5)"/>
<path d="M0 0 C18.1846478 -0.02335143 36.36929171 -0.04099023 54.55395126 -0.05181217 C62.99723563 -0.05697035 71.44051068 -0.06400397 79.88378906 -0.07543945 C87.24220354 -0.08540087 94.60061127 -0.09185691 101.9590323 -0.09408849 C105.85591355 -0.09539312 109.7527755 -0.09846333 113.64965057 -0.10573006 C117.31689664 -0.11251323 120.98411545 -0.11461226 124.65136719 -0.11310768 C126.6401606 -0.11351431 128.62895103 -0.11889757 130.61773682 -0.12442017 C131.80121704 -0.1230455 132.98469727 -0.12167084 134.20404053 -0.12025452 C135.2327615 -0.12117631 136.26148247 -0.1220981 137.3213768 -0.12304783 C139.71171638 -0.01324288 141.71737804 0.31359898 144 1 C144 1.66 144 2.32 144 3 C144.845625 3.061875 145.69125 3.12375 146.5625 3.1875 C150.3572837 4.08444887 152.38174315 5.46740148 155.38671875 7.84375 C157.11455327 9.2024156 157.11455327 9.2024156 160 10 C160 10.66 160 11.32 160 12 C161.98 12.495 161.98 12.495 164 13 C104.6 13 45.2 13 -16 13 C-9.07352941 3.76470588 -9.07352941 3.76470588 -4 2 C-2.68 2 -1.36 2 0 2 C0 1.34 0 0.68 0 0 Z " fill="#FDFDFD" transform="translate(40,146)"/>
<path d="M0 0 C0.33 0 0.66 0 1 0 C1.07005322 13.76883363 1.12277064 27.53763967 1.15543652 41.30661488 C1.17111215 47.69967123 1.1923852 54.09260812 1.22631836 60.4855957 C1.25884389 66.65176764 1.27683871 72.81782446 1.28463173 78.98407555 C1.29018747 81.34008281 1.30103603 83.69608357 1.31719017 86.05204201 C1.33887368 89.34448638 1.3419707 92.63645114 1.34057617 95.92895508 C1.351362 96.90934753 1.36214783 97.88973999 1.3732605 98.89984131 C1.36707451 100.24387779 1.36707451 100.24387779 1.36076355 101.61506653 C1.36352893 102.3939816 1.36629431 103.17289667 1.36914349 103.97541523 C0.90911152 106.49848213 -0.05875278 107.38921644 -2 109 C-1.34 110.32 -0.68 111.64 0 113 C-1.32 113 -2.64 113 -4 113 C-4 112.01 -4 111.02 -4 110 C-4.969375 110.185625 -5.93875 110.37125 -6.9375 110.5625 C-8.4534375 110.7790625 -8.4534375 110.7790625 -10 111 C-11.60647753 109.39352247 -11.16521763 107.65712986 -11.20532227 105.43164062 C-11.22526245 104.44700333 -11.24520264 103.46236603 -11.26574707 102.44789124 C-11.2824646 101.36164963 -11.29918213 100.27540802 -11.31640625 99.15625 C-11.33723267 98.02388412 -11.35805908 96.89151825 -11.3795166 95.72483826 C-11.44612167 91.98329833 -11.50471323 88.24168583 -11.5625 84.5 C-11.58367889 83.23189484 -11.60485779 81.96378967 -11.62667847 80.65725708 C-12.05202855 55.10464763 -12.11285501 29.55558249 -12 4 C-10.56656 3.46809459 -9.12804633 2.94984742 -7.6875 2.4375 C-6.48673828 2.00244141 -6.48673828 2.00244141 -5.26171875 1.55859375 C-3 1 -3 1 0 2 C0 1.34 0 0.68 0 0 Z " fill="#C5D6D7" transform="translate(200,21)"/>
<path d="M0 0 C1.5 1.3125 1.5 1.3125 3 3 C3 3.99 3 4.98 3 6 C4.94074861 5.72382467 4.94074861 5.72382467 7 5 C7.66 4.01 8.32 3.02 9 2 C10.81467149 9.42141042 11.26223621 16.39098651 11.16699219 24.01147461 C11.15761879 25.74744904 11.15761879 25.74744904 11.14805603 27.51849365 C11.12472754 31.31326646 11.08631596 35.1077068 11.046875 38.90234375 C11.02576237 41.54887125 11.00527621 44.19539767 10.9854126 46.8419342 C10.94222052 52.37200313 10.89037781 57.90194086 10.83349609 63.43188477 C10.7678762 69.82352841 10.71694459 76.2151662 10.67355418 82.60699648 C10.63131194 88.76978934 10.57796252 94.93243205 10.51981354 101.09509468 C10.49621644 103.71342096 10.47553367 106.33177516 10.45778656 108.95014763 C10.43161307 112.59836282 10.39282578 116.24622742 10.35058594 119.89428711 C10.34528366 120.98052872 10.33998138 122.06677032 10.33451843 123.18592834 C10.31343773 124.67236343 10.31343773 124.67236343 10.29193115 126.18882751 C10.28380276 127.05062087 10.27567436 127.91241423 10.26729965 128.80032253 C10 131 10 131 8 134 C7.01 134 6.02 134 5 134 C5 125.42 5 116.84 5 108 C4.01 108 3.02 108 2 108 C2.01047363 108.92337158 2.02094727 109.84674316 2.03173828 110.7980957 C2.0658319 114.22536718 2.09090446 117.65245833 2.10986328 121.07983398 C2.11991821 122.56293583 2.13356404 124.04601788 2.15087891 125.52905273 C2.17515006 127.66134531 2.18648799 129.79337569 2.1953125 131.92578125 C2.20578613 133.20880127 2.21625977 134.49182129 2.22705078 135.8137207 C2 139 2 139 0 142 C-0.99 142 -1.98 142 -3 142 C-2.6757435 141.13137014 -2.35148701 140.26274029 -2.01740456 139.36778831 C-1.02212507 136.07323789 -0.74050668 133.53803747 -0.7215271 130.11538696 C-0.71036362 128.96281403 -0.69920013 127.81024109 -0.68769836 126.6227417 C-0.68553818 125.37261292 -0.68337799 124.12248413 -0.68115234 122.83447266 C-0.6718459 121.49369711 -0.66167616 120.15292732 -0.65071106 118.81216431 C-0.62347763 115.1845483 -0.6082815 111.55697099 -0.59528303 107.9292798 C-0.57962326 104.13358417 -0.55284214 100.33796721 -0.5272522 96.54232788 C-0.48051472 89.36019919 -0.44374631 82.17805561 -0.41057932 74.99585283 C-0.37232233 66.81686054 -0.32292156 58.63794735 -0.27259517 50.45902181 C-0.16935017 33.63940473 -0.08006567 16.81974372 0 0 Z " fill="#EAEAE7" transform="translate(13,17)"/>
<path d="M0 0 C3.98839947 0.4431555 6.94888642 1.3709183 10 4 C10.75871697 7.0981647 10.63064336 10.16212559 10.56762695 13.33666992 C10.56872215 14.77110191 10.56872215 14.77110191 10.56983948 16.23451233 C10.56635159 19.40040498 10.52743279 22.56483264 10.48828125 25.73046875 C10.47895742 27.9233571 10.47183928 30.11625585 10.46684265 32.30915833 C10.44773916 38.0847543 10.39860878 43.85972293 10.34332275 49.6350708 C10.29220291 55.52680982 10.2693441 61.41865007 10.24414062 67.31054688 C10.19049387 78.87397375 10.10514002 90.43693474 10 102 C8.02 102.495 8.02 102.495 6 103 C6.309375 104.1446875 6.309375 104.1446875 6.625 105.3125 C7 108 7 108 5 111 C3.04296875 110.2734375 3.04296875 110.2734375 1 109 C0.42578125 106.9765625 0.42578125 106.9765625 0.3125 104.625 C0.12613262 101.28075316 0.12613262 101.28075316 -0.58203125 98.0234375 C-1.11637405 95.43661908 -0.55090618 93.57472122 0 91 C0.04247857 88.97961317 0.04086817 86.95792004 0 84.9375 C-0.07109288 81.41395936 -0.03771959 78.38069585 1 75 C0.67 75 0.34 75 0 75 C-0.95474143 70.98308493 -1.12668672 67.23814428 -1.12939453 63.11425781 C-1.13114685 62.4421376 -1.13289917 61.7700174 -1.13470459 61.07752991 C-1.13908471 58.86936822 -1.13620004 56.66128741 -1.1328125 54.453125 C-1.13348633 52.9156696 -1.13445701 51.37821431 -1.13571167 49.84075928 C-1.13718316 46.62641378 -1.13505053 43.41209615 -1.13037109 40.19775391 C-1.12465488 36.06931994 -1.12796818 31.94095071 -1.13394356 27.81251907 C-1.13754761 24.64192207 -1.13641164 21.47134056 -1.13381577 18.3007431 C-1.13314706 16.77763613 -1.13397298 15.25452777 -1.13629532 13.73142242 C-1.13882136 11.61029799 -1.13498288 9.48928048 -1.12939453 7.36816406 C-1.12859894 6.15968811 -1.12780334 4.95121216 -1.12698364 3.70611572 C-1 1 -1 1 0 0 Z " fill="#C5D7D3" transform="translate(27,21)"/>
<path d="M0 0 C1.65 0 3.3 0 5 0 C5.2475 0.639375 5.495 1.27875 5.75 1.9375 C6.80479558 4.11868898 6.80479558 4.11868898 8.8125 4.8125 C11.38764878 5.03322704 13.50222685 4.62444329 16 4 C15.67 4.66 15.34 5.32 15 6 C12.6859378 6.73075648 10.35171131 7.40138258 8 8 C8.07604782 21.73498137 8.19467102 35.4688696 8.36780548 49.20299053 C8.4468573 55.58027476 8.51118247 61.95700256 8.54199219 68.3347168 C8.57226048 74.48865465 8.64102917 80.64106325 8.73661804 86.79432106 C8.76631393 89.14293952 8.78208597 91.4917763 8.7837677 93.84058189 C8.78849121 97.12935146 8.84249582 100.41386683 8.90820312 103.7019043 C8.8981424 104.6751062 8.88808167 105.64830811 8.87771606 106.65100098 C8.97190937 111.68255612 8.97190937 111.68255612 11.71263123 115.67457008 C13.76382697 116.98389951 15.77526598 118.01896472 18 119 C19.33494562 119.66343229 20.66876953 120.32914409 22 121 C22 121.66 22 122.32 22 123 C18.35371092 121.64734437 15.17432828 119.9907517 11.875 117.9375 C9.19748052 116.27320598 7.00027598 115.00009199 4 114 C3.82715057 104.02093298 3.66078749 94.04176796 3.5 84.0625 C3.48812275 83.32557545 3.4762455 82.58865089 3.46400833 81.82939529 C3.06944008 57.21802678 2.8570306 32.61493185 3 8 C2.34 8 1.68 8 1 8 C1 43.64 1 79.28 1 116 C-43.55 116 -88.1 116 -134 116 C-134 115.67 -134 115.34 -134 115 C-89.78 115 -45.56 115 0 115 C-0.33 101.14 -0.66 87.28 -1 73 C-1 51.22 -1 29.44 -1 7 C-45.22 7 -89.44 7 -135 7 C-135 6.67 -135 6.34 -135 6 C-91.11 5.67 -47.22 5.34 -2 5 C-2 4.34 -2 3.68 -2 3 C-1.34 3 -0.68 3 0 3 C0 2.01 0 1.02 0 0 Z " fill="#8B9893" transform="translate(180,17)"/>
<path d="M0 0 C45.87 0 91.74 0 139 0 C139 0.99 139 1.98 139 3 C139.66 3 140.32 3 141 3 C141 3.99 141 4.98 141 6 C138.54273762 7.22863119 136.95176738 7.12312293 134.2038269 7.12025452 C133.19137909 7.12162918 132.17893127 7.12300385 131.13580322 7.12442017 C130.02090515 7.12082489 128.90600708 7.11722961 127.75732422 7.11352539 C126.5866037 7.11367142 125.41588318 7.11381744 124.20968628 7.1139679 C120.9950139 7.1133896 117.78038477 7.10836593 114.56572104 7.10139394 C111.20780722 7.09515295 107.8498926 7.09455601 104.49197388 7.09336853 C98.13132452 7.09025742 91.77069231 7.08204698 85.41005051 7.07201904 C78.16951549 7.06085109 70.92897966 7.05534573 63.68843818 7.05032361 C48.79228256 7.0398642 33.89614299 7.022269 19 7 C19 6.67 19 6.34 19 6 C21.64 5.67 24.28 5.34 27 5 C24.36 4.67 21.72 4.34 19 4 C19 3.01 19 2.02 19 1 C17.22844346 1.11429397 15.45773771 1.24183037 13.6875 1.375 C12.20830078 1.47941406 12.20830078 1.47941406 10.69921875 1.5859375 C7.78471567 1.83865472 7.78471567 1.83865472 5 4 C5 3.34 5 2.68 5 2 C3.35 1.67 1.7 1.34 0 1 C0 0.67 0 0.34 0 0 Z " fill="#D7D7D5" transform="translate(37,16)"/>
<path d="M0 0 C0.99 0 1.98 0 3 0 C3 8.58 3 17.16 3 26 C4.65 25.34 6.3 24.68 8 24 C8 22.948125 8 21.89625 8 20.8125 C9.09655726 16.63187544 9.4965886 16.20890334 12.9375 14 C15.08984375 12.75 15.08984375 12.75 17 12 C17.66 12.33 18.32 12.66 19 13 C18.34 13.66 17.68 14.32 17 15 C17.33 15.99 17.66 16.98 18 18 C18.66 18 19.32 18 20 18 C20 17.34 20 16.68 20 16 C22.69944326 14.65027837 24.82632311 14.84724069 27.85002136 14.81486511 C29.71953461 14.79151093 29.71953461 14.79151093 31.6268158 14.76768494 C33.0157765 14.75540019 34.40473834 14.74324326 35.79370117 14.73120117 C37.25060429 14.71507885 38.70750329 14.69858019 40.16439819 14.68173218 C44.95719489 14.62827046 49.75006383 14.58539569 54.54296875 14.54296875 C56.1927477 14.52777137 57.84252607 14.51251048 59.49230385 14.49718666 C67.24448978 14.42581622 74.99669909 14.35929055 82.74897593 14.29859751 C91.69621624 14.22837911 100.643093 14.14149595 109.59003657 14.04041499 C116.50553435 13.96337342 123.42106436 13.90188827 130.33681089 13.85200864 C134.46699786 13.82184021 138.59686863 13.78498878 142.72682762 13.73171043 C146.61490309 13.68193656 150.50266066 13.65149554 154.39101791 13.63567734 C155.81525555 13.6265793 157.23946907 13.61060014 158.66354179 13.58709526 C167.62942122 13.44403377 172.97621872 13.78650602 179.9375 19.625 C181 21 181 21 181 23 C178.18134211 22.60851974 176.38323768 22.30918998 174.14058399 20.49985313 C167.82287847 16.07319645 156.42824569 17.88238043 148.98950195 17.96240234 C147.84316788 17.97040359 146.6968338 17.97840485 145.51576233 17.98664856 C141.75653711 18.01434219 137.9974351 18.04990763 134.23828125 18.0859375 C131.60190617 18.10774308 128.9655281 18.12919097 126.32914734 18.15029907 C120.81257327 18.19531721 115.29605226 18.24475306 109.77954102 18.296875 C103.44435062 18.35667934 97.10913161 18.40955272 90.77384979 18.45864332 C84.63304636 18.50638867 78.49229671 18.55912888 72.35155296 18.61400223 C69.76070368 18.6367281 67.16984356 18.65825541 64.57897377 18.67850876 C51.35585419 18.78450175 38.18544385 18.92683355 25 20 C25 20.99 25 21.98 25 23 C24.30132812 23.15855469 23.60265625 23.31710938 22.8828125 23.48046875 C20.15982237 24.17857245 17.5914368 24.90727748 15 26 C13.53335352 28.41499457 13.53335352 28.41499457 13 31 C10.71302362 33.23910943 9.41380461 33.95665454 6.203125 34.29296875 C5.22859375 34.25816406 4.2540625 34.22335938 3.25 34.1875 C2.26515625 34.16042969 1.2803125 34.13335937 0.265625 34.10546875 C-0.48203125 34.07066406 -1.2296875 34.03585938 -2 34 C-1.67 33.01 -1.34 32.02 -1 31 C-0.84820986 28.6444552 -0.75100711 26.28524877 -0.68359375 23.92578125 C-0.66281265 23.2419487 -0.64203156 22.55811615 -0.62062073 21.8535614 C-0.55533846 19.6733079 -0.49633983 17.49293595 -0.4375 15.3125 C-0.39429447 13.83267014 -0.35067953 12.35285217 -0.30664062 10.87304688 C-0.19967917 7.24882378 -0.09835177 3.62446811 0 0 Z " fill="#A1A1A1" transform="translate(15,125)"/>
<path d="M0 0 C2.1853024 0.0018726 4.37060523 0.0032925 6.5559082 0.00428772 C12.21748074 0.00804678 17.87902628 0.01781776 23.54058838 0.0289917 C29.35387812 0.03935078 35.16717237 0.0438159 40.98046875 0.04882812 C52.32032415 0.0594483 63.6601598 0.07644167 75 0.09765625 C74.67 0.75765625 74.34 1.41765625 74 2.09765625 C74.99 2.59265625 74.99 2.59265625 76 3.09765625 C75.67 4.41765625 75.34 5.73765625 75 7.09765625 C58.51034867 7.14436548 42.02071879 7.1796398 25.5310173 7.20128059 C17.87465962 7.21159561 10.21834303 7.22566025 2.56201172 7.24853516 C-4.1108127 7.26846213 -10.78360737 7.28137105 -17.45646071 7.28583324 C-20.99007714 7.2884418 -24.52360842 7.2945777 -28.05719757 7.30911636 C-32.00071312 7.3252102 -35.94414518 7.32563638 -39.88769531 7.32470703 C-41.64743935 7.33549286 -41.64743935 7.33549286 -43.44273376 7.34649658 C-44.51682999 7.34374725 -45.59092621 7.34099792 -46.6975708 7.33816528 C-47.6304253 7.34000887 -48.5632798 7.34185246 -49.52440262 7.34375191 C-52.12714081 7.08501736 -53.76333915 6.41795002 -56 5.09765625 C-56 4.43765625 -56 3.77765625 -56 3.09765625 C-53.36 2.76765625 -50.72 2.43765625 -48 2.09765625 C-48 1.76765625 -48 1.43765625 -48 1.09765625 C-31.98948555 0.30474036 -16.02869703 -0.04137123 0 0 Z " fill="#DDDED8" transform="translate(104,132.90234375)"/>
<path d="M0 0 C5.87613516 1.70098649 10.27963329 4.13981664 16 7 C16 41.98 16 76.96 16 113 C1 121 1 121 -1 121 C-2.16725172 116.54162501 -1.98632142 112.30190981 -1.6875 107.75 C-1.63432617 106.65171875 -1.63432617 106.65171875 -1.58007812 105.53125 C-1.46529073 103.68094576 -1.24130179 101.83809014 -1 100 C-0.01 99.505 -0.01 99.505 1 99 C1.10957031 99.91523437 1.21914063 100.83046875 1.33203125 101.7734375 C1.49058594 102.96195312 1.64914063 104.15046875 1.8125 105.375 C1.96332031 106.55835937 2.11414063 107.74171875 2.26953125 108.9609375 C2.70699334 112.29532084 2.70699334 112.29532084 6 114 C6.33 111.36 6.66 108.72 7 106 C8.98 105.505 8.98 105.505 11 105 C10.67 72.66 10.34 40.32 10 7 C6.7 5.35 3.4 3.7 0 2 C0 1.34 0 0.68 0 0 Z " fill="#A5B3B0" transform="translate(26,18)"/>
<path d="M0 0 C1.65 0 3.3 0 5 0 C5.433125 0.9590625 5.433125 0.9590625 5.875 1.9375 C6.82823451 4.15206079 6.82823451 4.15206079 9 5 C9 5.66 9 6.32 9 7 C7.35 7.33 5.7 7.66 4 8 C4 21.53 4 35.06 4 49 C3.67 49 3.34 49 3 49 C3 35.47 3 21.94 3 8 C2.34 8 1.68 8 1 8 C1 43.64 1 79.28 1 116 C-43.55 116 -88.1 116 -134 116 C-134 115.67 -134 115.34 -134 115 C-89.78 115 -45.56 115 0 115 C-0.33 101.14 -0.66 87.28 -1 73 C-1 51.22 -1 29.44 -1 7 C-45.22 7 -89.44 7 -135 7 C-135 6.67 -135 6.34 -135 6 C-91.11 5.67 -47.22 5.34 -2 5 C-2 4.34 -2 3.68 -2 3 C-1.34 3 -0.68 3 0 3 C0 2.01 0 1.02 0 0 Z " fill="#737470" transform="translate(180,17)"/>
<path d="M0 0 C0.66 0 1.32 0 2 0 C2.85192133 25.35598835 3.09196755 50.69462103 3.0625 76.0625 C3.06164398 76.80466137 3.06078796 77.54682274 3.05990601 78.31147385 C3.04847346 87.54100655 3.02833637 96.77050262 3 106 C3.8967041 106.20036865 3.8967041 106.20036865 4.81152344 106.40478516 C7.92069622 107.25040801 10.45878482 108.77713044 13.25 110.375 C14.32765625 110.98085937 15.4053125 111.58671875 16.515625 112.2109375 C17.33546875 112.80132812 18.1553125 113.39171875 19 114 C19 114.99 19 115.98 19 117 C18.01 117.33 17.02 117.66 16 118 C15.13375 118.4021875 15.13375 118.4021875 14.25 118.8125 C11.12100745 119.07324938 9.45255421 117.5443848 6.8828125 115.92578125 C3.94035377 114.47897063 1.20127641 114.73867131 -2 115 C-1.67 113.68 -1.34 112.36 -1 111 C-6.61 110.67 -12.22 110.34 -18 110 C-18 109.67 -18 109.34 -18 109 C-12.06 108.67 -6.12 108.34 0 108 C-0.03029297 105.92066162 -0.06058594 103.84132324 -0.09179688 101.69897461 C-0.19362747 94.68633555 -0.29294486 87.67366233 -0.39115143 80.66097164 C-0.45053655 76.42557492 -0.51066718 72.19019203 -0.57275391 67.95483398 C-0.81477322 51.40419141 -1.0468178 34.85311788 -1.08811951 18.30053902 C-1.09361772 16.30198793 -1.10345702 14.30345028 -1.11340332 12.30491638 C-1.11400757 11.11705032 -1.11461182 9.92918427 -1.11523438 8.70532227 C-1.11728882 7.67012955 -1.11934326 6.63493683 -1.12145996 5.56837463 C-1 3 -1 3 0 0 Z " fill="#C5C9C3" transform="translate(181,25)"/>
<path d="M0 0 C0.33 48.51 0.66 97.02 1 147 C-0.65 146.34 -2.3 145.68 -4 145 C-4 125.86 -4 106.72 -4 87 C-3.34 87 -2.68 87 -2 87 C-1.97429415 80.06641446 -1.95698672 73.13284155 -1.94506836 66.19921875 C-1.94009102 63.84862814 -1.93330674 61.49804054 -1.92456055 59.14746094 C-1.87468891 45.38288964 -2.07113195 31.73554481 -3 18 C-3 29.88 -3 41.76 -3 54 C-3.33 54 -3.66 54 -4 54 C-4.37367356 43.33440256 -4.70959287 32.66819123 -5 22 C-5.03158203 20.86272461 -5.06316406 19.72544922 -5.09570312 18.55371094 C-5.16560873 15.74404323 -5.21368328 12.93527328 -5.25 10.125 C-5.27126953 9.31321289 -5.29253906 8.50142578 -5.31445312 7.66503906 C-5.328125 5.4453125 -5.328125 5.4453125 -5 2 C-2 0 -2 0 0 0 Z " fill="#5F605E" transform="translate(212,6)"/>
<path d="M0 0 C0.33 26.07 0.66 52.14 1 79 C1.66 79 2.32 79 3 79 C3 80.65 3 82.3 3 84 C2.34 84 1.68 84 1 84 C0.93941406 85.14597656 0.87882813 86.29195313 0.81640625 87.47265625 C0.73193011 89.00261297 0.64728573 90.53256041 0.5625 92.0625 C0.50352539 93.19075195 0.50352539 93.19075195 0.44335938 94.34179688 C0.18419281 98.94698741 -0.2799421 103.44366724 -1 108 C-1.33 108 -1.66 108 -2 108 C-2.74513103 101.40296209 -3.17819882 94.87230701 -3.29711914 88.23583984 C-3.31677231 87.31754395 -3.33642548 86.39924805 -3.35667419 85.453125 C-3.41990428 82.45579311 -3.47757982 79.45838285 -3.53515625 76.4609375 C-3.57822261 74.36771952 -3.62163931 72.27450872 -3.66539001 70.18130493 C-3.77901362 64.70044494 -3.88790874 59.21950104 -3.99578857 53.73852539 C-4.10694317 48.13421838 -4.22261206 42.53000468 -4.33789062 36.92578125 C-4.56298902 25.95060706 -4.78308756 14.97533882 -5 4 C-6.32 3.67 -7.64 3.34 -9 3 C-2.25 0 -2.25 0 0 0 Z " fill="#E5E7E2" transform="translate(207,8)"/>
<path d="M0 0 C1.5625 1.8125 1.5625 1.8125 3 4 C2.67 4.99 2.34 5.98 2 7 C1.98351132 9.40660557 2.0271128 11.77710047 2.12109375 14.1796875 C2.17030282 15.72004254 2.21919554 17.26040771 2.26782227 18.80078125 C2.29562775 19.62529785 2.32343323 20.44981445 2.3520813 21.29931641 C2.95679979 39.5337719 3.09226292 57.75640726 3.0625 76 C3.0606369 77.19703552 3.0587738 78.39407104 3.05685425 79.62738037 C3.04477619 86.41828093 3.02621839 93.20913947 3 100 C2.01 100 1.02 100 0 100 C0.01047363 100.92337158 0.02094727 101.84674316 0.03173828 102.7980957 C0.0658319 106.22536718 0.09090446 109.65245833 0.10986328 113.07983398 C0.11991821 114.56293583 0.13356404 116.04601788 0.15087891 117.52905273 C0.17515006 119.66134531 0.18648799 121.79337569 0.1953125 123.92578125 C0.20578613 125.20880127 0.21625977 126.49182129 0.22705078 127.8137207 C0 131 0 131 -2 134 C-2.99 134 -3.98 134 -5 134 C-4.67624893 133.17897293 -4.35249786 132.35794586 -4.01893616 131.51203918 C-2.86831035 127.54609598 -2.7002614 123.89680956 -2.69702148 119.80737305 C-2.68858215 119.00831039 -2.68014282 118.20924774 -2.67144775 117.38597107 C-2.64578496 114.76121388 -2.63355991 112.13656877 -2.62109375 109.51171875 C-2.6049129 107.68422054 -2.58773229 105.85673094 -2.56959534 104.0292511 C-2.52400541 99.23094648 -2.48914132 94.43263036 -2.45739746 89.63421631 C-2.40541661 81.93610671 -2.340541 74.23812263 -2.26918221 66.54017067 C-2.24629016 63.8473232 -2.23006245 61.15449197 -2.21446228 58.46159363 C-2.20106325 56.82294531 -2.18744912 55.18429874 -2.17358398 53.5456543 C-2.17097061 52.79191528 -2.16835724 52.03817627 -2.16566467 51.26159668 C-2.11364328 46.11364328 -2.11364328 46.11364328 -1 45 C0.22531792 34.9213555 0.12571442 24.75839003 0.0625 14.625 C0.05746589 13.1953141 0.05290643 11.76562645 0.04882812 10.3359375 C0.03799465 6.89058755 0.02083984 3.44530573 0 0 Z " fill="#EAEAEA" transform="translate(15,25)"/>
<path d="M0 0 C1.485 0.99 1.485 0.99 3 2 C3.25673556 4.57662741 3.31961887 6.90555579 3.2487793 9.47900391 C3.23946381 10.24982803 3.23014832 11.02065216 3.22055054 11.81483459 C3.18610497 14.36918499 3.13022536 16.92260125 3.07421875 19.4765625 C3.04619406 21.24488319 3.01950277 23.01322547 2.99409485 24.78158569 C2.92355218 29.4409343 2.83484799 34.09976878 2.74243164 38.75872803 C2.65135799 43.51084974 2.5773619 48.26323346 2.50195312 53.015625 C2.35140316 62.34408729 2.18167651 71.67209566 2 81 C2.99 81.33 3.98 81.66 5 82 C4.51080078 83.26070312 4.51080078 83.26070312 4.01171875 84.546875 C2.91512104 88.28970269 2.76696768 91.35905633 2.8125 95.25 C2.81894531 96.47203125 2.82539063 97.6940625 2.83203125 98.953125 C2.79306844 101.91722201 2.79306844 101.91722201 4 104 C3.69217893 105.33945327 3.35549782 106.67240436 3 108 C2.91768475 109.34273815 2.88210691 110.68892787 2.88647461 112.03417969 C2.88655014 112.81468689 2.88662567 113.59519409 2.88670349 114.39935303 C2.89186478 115.23178528 2.89702606 116.06421753 2.90234375 116.921875 C2.9037587 117.78186096 2.90517365 118.64184692 2.90663147 119.52789307 C2.91221903 122.26863109 2.92476925 125.00928676 2.9375 127.75 C2.94251661 129.6106759 2.94707923 131.47135309 2.95117188 133.33203125 C2.96218439 137.88805246 2.97944049 142.44401228 3 147 C2.34 147 1.68 147 1 147 C-0.08060421 131.40877499 -0.13428736 115.84947057 -0.10139394 100.22659135 C-0.09504498 96.68993725 -0.09454764 93.15328184 -0.09336853 89.61662292 C-0.09028864 82.95196257 -0.08212142 76.28731907 -0.07201904 69.62266606 C-0.06075269 62.02140508 -0.05532123 54.42014319 -0.05032361 46.81887591 C-0.0399351 31.21257426 -0.02240203 15.60628932 0 0 Z " fill="#E9EAE8" transform="translate(212,6)"/>
<path d="M0 0 C44.88 0 89.76 0 136 0 C136 0.33 136 0.66 136 1 C127.13074436 2.11848741 118.3555369 2.08346686 109.4375 2 C106.54036893 1.97347007 103.6432997 1.95351219 100.74609375 1.9375 C98.83848267 1.92009766 98.83848267 1.92009766 96.89233398 1.90234375 C94.10549104 1.66689461 94.10549104 1.66689461 93 3 C90.33875733 3.07919675 87.70386721 3.09369933 85.04296875 3.06591797 C84.20871872 3.06124512 83.37446869 3.05657227 82.51493835 3.05175781 C80.69571661 3.04122526 78.87650632 3.02855297 77.05731201 3.01403427 C74.17313437 2.99207814 71.2890219 2.9779541 68.40478516 2.96633911 C60.20124346 2.93269494 51.99780831 2.89137894 43.79443359 2.82861328 C38.78122227 2.79082096 33.76812402 2.7678946 28.75479126 2.75430679 C26.84751244 2.74628021 24.94024823 2.73271075 23.03305054 2.71337509 C20.35262404 2.68669687 17.67273099 2.67898454 14.9921875 2.67529297 C14.21260178 2.6629361 13.43301605 2.65057922 12.62980652 2.6378479 C6.43900589 2.66016964 -0.46055094 3.46055094 -5 8 C-5.99 8 -6.98 8 -8 8 C-8 8.66 -8 9.32 -8 10 C-8.99 10.33 -9.98 10.66 -11 11 C-11.33 11.66 -11.66 12.32 -12 13 C-13.32 12.67 -14.64 12.34 -16 12 C-14.33333333 10.33333333 -12.66666667 8.66666667 -11 7 C-10.484375 6.443125 -9.96875 5.88625 -9.4375 5.3125 C-6.31438661 2.46096169 -4.26330488 2 0 2 C0 1.34 0 0.68 0 0 Z " fill="#E6E6E6" transform="translate(40,146)"/>
<path d="M0 0 C0.99 0 1.98 0 3 0 C3 8.58 3 17.16 3 26 C4.65 25.34 6.3 24.68 8 24 C8 22.948125 8 21.89625 8 20.8125 C9.09655726 16.63187544 9.4965886 16.20890334 12.9375 14 C15.08984375 12.75 15.08984375 12.75 17 12 C17.66 12.33 18.32 12.66 19 13 C18.34 13.66 17.68 14.32 17 15 C17.33 15.99 17.66 16.98 18 18 C18 21 18 21 17 23 C19.64 22.34 22.28 21.68 25 21 C25 21.66 25 22.32 25 23 C24.30132812 23.15855469 23.60265625 23.31710938 22.8828125 23.48046875 C20.15982237 24.17857245 17.5914368 24.90727748 15 26 C13.53335352 28.41499457 13.53335352 28.41499457 13 31 C10.71302362 33.23910943 9.41380461 33.95665454 6.203125 34.29296875 C5.22859375 34.25816406 4.2540625 34.22335938 3.25 34.1875 C2.26515625 34.16042969 1.2803125 34.13335937 0.265625 34.10546875 C-0.48203125 34.07066406 -1.2296875 34.03585938 -2 34 C-1.67 33.01 -1.34 32.02 -1 31 C-0.84820986 28.6444552 -0.75100711 26.28524877 -0.68359375 23.92578125 C-0.66281265 23.2419487 -0.64203156 22.55811615 -0.62062073 21.8535614 C-0.55533846 19.6733079 -0.49633983 17.49293595 -0.4375 15.3125 C-0.39429447 13.83267014 -0.35067953 12.35285217 -0.30664062 10.87304688 C-0.19967917 7.24882378 -0.09835177 3.62446811 0 0 Z " fill="#B3B4B2" transform="translate(15,125)"/>
<path d="M0 0 C3.52231806 7.04463612 3.12307035 13.8440342 3.0534668 21.55737305 C3.04707184 22.71410522 3.04067688 23.8708374 3.03408813 25.06262207 C3.01133923 28.8790469 2.9807207 32.69535678 2.94921875 36.51171875 C2.93484684 38.49362567 2.9204769 40.47553262 2.90639621 42.45744163 C2.8619751 48.68171626 2.81169275 54.9059255 2.75805664 61.13012695 C2.70285427 67.55124221 2.65889969 73.97236799 2.62020558 80.39360207 C2.58648543 85.91140997 2.54516905 91.42912664 2.49788028 96.94683486 C2.46977001 100.24051341 2.44560521 103.53413712 2.4272213 106.82788658 C2.40573352 110.49567741 2.3718303 114.16314921 2.3347168 117.83081055 C2.32911995 119.46959923 2.32911995 119.46959923 2.32341003 121.14149475 C2.31080139 122.13823212 2.29819275 123.13496948 2.28520203 124.16191101 C2.27837245 125.02889964 2.27154287 125.89588827 2.26450634 126.78914928 C2 129 2 129 0 132 C-0.99 132 -1.98 132 -3 132 C-3.02710123 129.4374282 -3.04688771 126.87514635 -3.0625 124.3125 C-3.07087891 123.59126953 -3.07925781 122.87003906 -3.08789062 122.12695312 C-3.10543632 118.28444618 -2.93524221 114.73360474 -2 111 C-1.67 111 -1.34 111 -1 111 C-0.505 56.055 -0.505 56.055 0 0 Z " fill="#E2E3E1" transform="translate(21,19)"/>
<path d="M0 0 C5.87613516 1.70098649 10.27963329 4.13981664 16 7 C16 41.98 16 76.96 16 113 C8.08 116.96 8.08 116.96 0 121 C0 120.34 0 119.68 0 119 C1.78881736 117.99491199 3.58114696 116.99607264 5.375 116 C6.37273438 115.443125 7.37046875 114.88625 8.3984375 114.3125 C11 113 11 113 13 113 C12.67 80 12.34 47 12 13 C11.67 13 11.34 13 11 13 C11.04125 12.113125 11.0825 11.22625 11.125 10.3125 C10.33958083 6.88750075 10.33958083 6.88750075 7.70703125 5.48828125 C5.16667518 4.23780978 2.61935703 3.07436423 0 2 C0 1.34 0 0.68 0 0 Z " fill="#737D7A" transform="translate(26,18)"/>
<path d="M0 0 C0.33 0 0.66 0 1 0 C2.21795465 28.59215574 2.12056697 57.18146026 2.06866455 85.79418945 C2.05826516 92.15120097 2.05383207 98.50821672 2.04882812 104.86523438 C2.03823977 117.24350037 2.02127038 129.62174806 2 142 C1.67 142 1.34 142 1 142 C1 122.86 1 103.72 1 84 C0.34 83.67 -0.32 83.34 -1 83 C-0.34 83 0.32 83 1 83 C1 81.35 1 79.7 1 78 C0.34 78 -0.32 78 -1 78 C-1.95101593 74.79065312 -2.12661426 71.9018034 -2.12939453 68.56054688 C-2.13254669 67.47261841 -2.13569885 66.38468994 -2.13894653 65.26379395 C-2.1369223 64.09392944 -2.13489807 62.92406494 -2.1328125 61.71875 C-2.13376923 60.51311401 -2.13472595 59.30747803 -2.13571167 58.06530762 C-2.13639206 55.51668241 -2.13454758 52.96805547 -2.13037109 50.41943359 C-2.12502091 46.51525994 -2.13032089 42.61120132 -2.13671875 38.70703125 C-2.13605794 36.23177058 -2.13477673 33.75650998 -2.1328125 31.28125 C-2.13584885 29.52645325 -2.13584885 29.52645325 -2.13894653 27.73620605 C-2.13579437 26.64827759 -2.13264221 25.56034912 -2.12939453 24.43945312 C-2.12859894 23.4833313 -2.12780334 22.52720947 -2.12698364 21.54211426 C-2.00975355 19.19525854 -1.61096328 17.25612228 -1 15 C-0.77711499 12.41343327 -0.58685615 9.84047222 -0.4375 7.25 C-0.39431641 6.55261719 -0.35113281 5.85523438 -0.30664062 5.13671875 C-0.20110404 3.42468078 -0.1001009 1.71236439 0 0 Z " fill="#C1C2BE" transform="translate(209,9)"/>
<path d="M0 0 C0 15.84 0 31.68 0 48 C-0.33 48 -0.66 48 -1 48 C-1.91613555 40.13359929 -2.29346795 32.28718837 -2.5625 24.375 C-2.60568359 23.18003906 -2.64886719 21.98507813 -2.69335938 20.75390625 C-2.79840307 17.83602594 -2.90055648 14.91807562 -3 12 C-7.63815231 11.12108679 -7.63815231 11.12108679 -12.25 11.5625 C-13.11625 11.7790625 -13.11625 11.7790625 -14 12 C-14.99 11.34 -15.98 10.68 -17 10 C-17 9.34 -17 8.68 -17 8 C-18.98 7.34 -20.96 6.68 -23 6 C-23 6.99 -23 7.98 -23 9 C-24.32 8.67 -25.64 8.34 -27 8 C-27 7.01 -27 6.02 -27 5 C-25.71416016 5.06960937 -25.71416016 5.06960937 -24.40234375 5.140625 C-17.1040677 5.37101026 -13.0261198 5.05840722 -7 1 C-4.60081048 0.46684677 -2.45352815 0 0 0 Z " fill="#B1B6B2" transform="translate(203,11)"/>
<path d="M0 0 C14.19 0 28.38 0 43 0 C43 0.66 43 1.32 43 2 C43.66 2.33 44.32 2.66 45 3 C45 3.33 45 3.66 45 4 C55.89 4.495 55.89 4.495 67 5 C67 5.33 67 5.66 67 6 C62.73578576 6.14586468 58.47146763 6.28806489 54.20703125 6.42724609 C52.76429151 6.47480543 51.32158125 6.52326989 49.87890625 6.57275391 C39.58175623 6.92510052 29.30306074 7.06240077 19 7 C19 6.67 19 6.34 19 6 C21.64 5.67 24.28 5.34 27 5 C24.36 4.67 21.72 4.34 19 4 C19 3.01 19 2.02 19 1 C17.22844346 1.11429397 15.45773771 1.24183037 13.6875 1.375 C12.20830078 1.47941406 12.20830078 1.47941406 10.69921875 1.5859375 C7.78471567 1.83865472 7.78471567 1.83865472 5 4 C5 3.34 5 2.68 5 2 C3.35 1.67 1.7 1.34 0 1 C0 0.67 0 0.34 0 0 Z " fill="#CBCCC6" transform="translate(37,16)"/>
<path d="M0 0 C0.33 0 0.66 0 1 0 C1.33 5.28 1.66 10.56 2 16 C2.33 16 2.66 16 3 16 C3 28.21 3 40.42 3 53 C3.66 53 4.32 53 5 53 C5.08636719 53.60585937 5.17273438 54.21171875 5.26171875 54.8359375 C6.21221242 57.62204063 7.29218508 58.17546823 9.8125 59.625 C10.49957031 60.02976563 11.18664062 60.43453125 11.89453125 60.8515625 C13.90818601 61.94991964 15.94030627 62.9909815 18 64 C18 64.66 18 65.32 18 66 C14.35371092 64.64734437 11.17432828 62.9907517 7.875 60.9375 C5.19748052 59.27320598 3.00027598 58.00009199 0 57 C0 38.19 0 19.38 0 0 Z " fill="#656C67" transform="translate(184,74)"/>
<path d="M0 0 C0 14.85 0 29.7 0 45 C-0.33 45 -0.66 45 -1 45 C-1.66 36.09 -2.32 27.18 -3 18 C-3 29.88 -3 41.76 -3 54 C-3.33 54 -3.66 54 -4 54 C-4.37367356 43.33440256 -4.70959287 32.66819123 -5 22 C-5.03158203 20.86272461 -5.06316406 19.72544922 -5.09570312 18.55371094 C-5.16560873 15.74404323 -5.21368328 12.93527328 -5.25 10.125 C-5.27126953 9.31321289 -5.29253906 8.50142578 -5.31445312 7.66503906 C-5.328125 5.4453125 -5.328125 5.4453125 -5 2 C-2 0 -2 0 0 0 Z " fill="#8E8F8B" transform="translate(212,6)"/>
<path d="M0 0 C2.56695636 0.39491636 4.67123994 0.83561997 7 2 C6.56609441 4.92886272 6.08486437 5.92012765 3.875 8 C1.33368078 12.06611076 2.12054495 14.53261824 2.703125 19.17578125 C3.08339353 24.07424039 2.84421678 28.85089755 2.5625 33.75 C2.5106958 34.6562915 2.4588916 35.56258301 2.40551758 36.49633789 C2.27662931 38.66460796 2.1392253 40.83236913 2 43 C1.01 43.495 1.01 43.495 0 44 C-0.97460979 35.80371106 -1.30348409 27.62104758 -1.5625 19.375 C-1.60568359 18.08464844 -1.64886719 16.79429688 -1.69335938 15.46484375 C-1.79852148 12.30998067 -1.90066604 9.15505105 -2 6 C-1.34 6 -0.68 6 0 6 C-0.2784375 4.7934375 -0.2784375 4.7934375 -0.5625 3.5625 C-0.706875 2.716875 -0.85125 1.87125 -1 1 C-0.67 0.67 -0.34 0.34 0 0 Z " fill="#CDE0DD" transform="translate(29,22)"/>
<path d="M0 0 C0.33 0.66 0.66 1.32 1 2 C2.82757555 2.27919775 2.82757555 2.27919775 5 2.3125 C10.48776396 2.77054771 14.42868834 5.07133461 19 8 C19 8.99 19 9.98 19 11 C18.01 11.33 17.02 11.66 16 12 C15.4225 12.268125 14.845 12.53625 14.25 12.8125 C11.12100745 13.07324938 9.45255421 11.5443848 6.8828125 9.92578125 C3.94035377 8.47897063 1.20127641 8.73867131 -2 9 C-1.67 7.68 -1.34 6.36 -1 5 C-6.61 4.67 -12.22 4.34 -18 4 C-18 3.67 -18 3.34 -18 3 C-12.06 2.67 -6.12 2.34 0 2 C0 1.34 0 0.68 0 0 Z " fill="#BCBEB9" transform="translate(181,131)"/>
<path d="M0 0 C0.99 0 1.98 0 3 0 C3 8.58 3 17.16 3 26 C3.66 26 4.32 26 5 26 C5 26.99 5 27.98 5 29 C4.34 29 3.68 29 3 29 C3 30.32 3 31.64 3 33 C3.99 33 4.98 33 6 33 C6 32.34 6 31.68 6 31 C9.465 30.505 9.465 30.505 13 30 C11.6875 32 11.6875 32 9 34 C5.31144615 34.36089448 1.6948351 34.22933459 -2 34 C-1.67 33.01 -1.34 32.02 -1 31 C-0.84820986 28.6444552 -0.75100711 26.28524877 -0.68359375 23.92578125 C-0.66281265 23.2419487 -0.64203156 22.55811615 -0.62062073 21.8535614 C-0.55533846 19.6733079 -0.49633983 17.49293595 -0.4375 15.3125 C-0.39429447 13.83267014 -0.35067953 12.35285217 -0.30664062 10.87304688 C-0.19967917 7.24882378 -0.09835177 3.62446811 0 0 Z " fill="#A6A6A5" transform="translate(15,125)"/>
<path d="M0 0 C10.23 0.66 20.46 1.32 31 2 C31 2.33 31 2.66 31 3 C22.42 3 13.84 3 5 3 C5 3.66 5 4.32 5 5 C6.98 5 8.96 5 11 5 C7.97906785 8.02093215 4.43627928 7.46676834 0.375 7.625 C-0.42679688 7.66367188 -1.22859375 7.70234375 -2.0546875 7.7421875 C-4.03607556 7.83653931 -6.01800645 7.91936215 -8 8 C-8 8.66 -8 9.32 -8 10 C-9.32 10.33 -10.64 10.66 -12 11 C-11.67 10.01 -11.34 9.02 -11 8 C-11.33 7.34 -11.66 6.68 -12 6 C-10.38007835 5.13624104 -8.75388139 4.28424146 -7.125 3.4375 C-5.76761719 2.72400391 -5.76761719 2.72400391 -4.3828125 1.99609375 C-3.20332031 1.50302734 -3.20332031 1.50302734 -2 1 C-1.34 1.33 -0.68 1.66 0 2 C0 1.34 0 0.68 0 0 Z " fill="#C1C3BE" transform="translate(43,133)"/>
<path d="M0 0 C1.5625 1.8125 1.5625 1.8125 3 4 C2.67 4.99 2.34 5.98 2 7 C1.98351132 9.40660557 2.0271128 11.77710047 2.12109375 14.1796875 C2.17030282 15.72004254 2.21919554 17.26040771 2.26782227 18.80078125 C2.29562775 19.62529785 2.32343323 20.44981445 2.3520813 21.29931641 C2.95679979 39.5337719 3.09226292 57.75640726 3.0625 76 C3.0606369 77.19703552 3.0587738 78.39407104 3.05685425 79.62738037 C3.04477619 86.41828093 3.02621839 93.20913947 3 100 C2.34 100 1.68 100 1 100 C0.86676611 91.53895161 0.73626085 83.07786664 0.60884857 74.61672878 C0.54955003 70.68399999 0.48945556 66.75128742 0.42724609 62.81860352 C0.09670711 41.87715974 -0.07328997 20.94415842 0 0 Z " fill="#C9CBC7" transform="translate(15,25)"/>
<path d="M0 0 C0.73195587 -0.00043808 1.46391174 -0.00087616 2.2180481 -0.00132751 C4.63692926 0.00076219 7.05511691 0.02410102 9.47387695 0.04760742 C11.15110394 0.05320275 12.82833582 0.05747315 14.50556946 0.06047058 C18.91978495 0.07192439 23.33370426 0.10139606 27.74780273 0.13458252 C32.25215651 0.16527192 36.75655814 0.17897349 41.26098633 0.1940918 C50.09900708 0.22626534 58.93680801 0.27746809 67.7746582 0.34057617 C67.7746582 0.67057617 67.7746582 1.00057617 67.7746582 1.34057617 C33.1246582 1.83557617 33.1246582 1.83557617 -2.2253418 2.34057617 C1.4046582 2.67057617 5.0346582 3.00057617 8.7746582 3.34057617 C8.7746582 3.67057617 8.7746582 4.00057617 8.7746582 4.34057617 C7.89422852 4.46174805 7.01379883 4.58291992 6.10668945 4.70776367 C4.94524414 4.8753418 3.78379883 5.04291992 2.5871582 5.21557617 C0.86432617 5.45920898 0.86432617 5.45920898 -0.89331055 5.70776367 C-3.92144211 6.28286017 -6.39191009 7.17588404 -9.2253418 8.34057617 C-10.2153418 8.34057617 -11.2053418 8.34057617 -12.2253418 8.34057617 C-9.73780117 1.26065285 -7.41028039 -0.11574764 0 0 Z " fill="#ACACAB" transform="translate(44.225341796875,139.659423828125)"/>
<path d="M0 0 C6.875 0.875 6.875 0.875 8 2 C8.07319621 4.69654854 8.09242537 7.36691458 8.0625 10.0625 C8.05798828 10.82111328 8.05347656 11.57972656 8.04882812 12.36132812 C8.0370068 14.24091871 8.01907078 16.12046899 8 18 C7.34 16.68 6.68 15.36 6 14 C5.34 15.32 4.68 16.64 4 18 C3.01 18 2.02 18 1 18 C-1.22735782 14.9159661 -2.05930888 12.73994893 -1.75390625 8.9296875 C-1.24025968 5.93282543 -0.66716738 2.96625496 0 0 Z " fill="#DCDCDB" transform="translate(15,5)"/>
<path d="M0 0 C0.33 0 0.66 0 1 0 C1.06946967 8.81424692 1.12279566 17.62839978 1.15543652 26.4428606 C1.17110146 30.53565443 1.19235458 34.62826114 1.22631836 38.72094727 C1.25888267 42.66964752 1.27684677 46.61816765 1.28463173 50.56699181 C1.29018054 52.07451908 1.30101595 53.58203636 1.31719017 55.08948708 C1.3389263 57.19895459 1.34196864 59.30767509 1.34057617 61.41723633 C1.34723801 62.61858719 1.35389984 63.81993805 1.36076355 65.05769348 C1 68 1 68 -0.52128601 69.91142273 C-1.00926163 70.27065323 -1.49723724 70.62988373 -2 71 C-1.83773926 70.04585205 -1.67547852 69.0917041 -1.50830078 68.10864258 C-0.85246242 63.49167066 -0.85639246 58.91773723 -0.8671875 54.26171875 C-0.86575241 52.88050591 -0.86575241 52.88050591 -0.86428833 51.47138977 C-0.86361057 49.53081188 -0.86543656 47.59023168 -0.86962891 45.6496582 C-0.87496439 42.7071411 -0.86967962 39.76477791 -0.86328125 36.82226562 C-0.86394246 34.927083 -0.86522451 33.03190047 -0.8671875 31.13671875 C-0.86415115 29.83621834 -0.86415115 29.83621834 -0.86105347 28.50944519 C-0.88047082 23.35016663 -1.21514978 18.33942866 -1.88357544 13.22175598 C-2 11 -2 11 -1.40182495 8.83647156 C-1.26922272 8.23043594 -1.13662048 7.62440033 -1 7 C-1.66 6.34 -2.32 5.68 -3 5 C-2.34 5 -1.68 5 -1 5 C-0.67 3.35 -0.34 1.7 0 0 Z " fill="#C1CCCA" transform="translate(200,21)"/>
<path d="M0 0 C0.33 0 0.66 0 1 0 C1.56826326 16.10028853 2.09837093 32.20130721 2.1875 48.3125 C2.20039063 49.43696533 2.21328125 50.56143066 2.2265625 51.7199707 C2.22785156 52.75726318 2.22914063 53.79455566 2.23046875 54.86328125 C2.23457764 55.76344971 2.23868652 56.66361816 2.24291992 57.59106445 C1.98407081 60.15796309 1.29726537 61.79011792 0 64 C-0.33 64 -0.66 64 -1 64 C-1.02560525 57.13558764 -1.04297267 50.27118785 -1.05493164 43.40673828 C-1.05992351 41.07730652 -1.06671934 38.74787782 -1.07543945 36.41845703 C-1.16597155 11.59136091 -1.16597155 11.59136091 0 0 Z " fill="#BABBB7" transform="translate(209,9)"/>
<path d="M0 0 C0.33 0 0.66 0 1 0 C1.04739773 9.74286613 0.96981466 19.47260648 0.68261719 29.21142578 C0.64360167 30.59184771 0.60889828 31.97239709 0.578125 33.35302734 C0.53264673 35.38675881 0.47480641 37.41979923 0.4140625 39.453125 C0.3826416 40.64067383 0.3512207 41.82822266 0.31884766 43.05175781 C0 46 0 46 -2 49 C-2.99 49 -3.98 49 -5 49 C-4.67781494 48.14494873 -4.35562988 47.28989746 -4.02368164 46.40893555 C-2.97870275 42.92907858 -2.70259907 40.0791695 -2.62109375 36.45703125 C-2.58693359 35.21759766 -2.55277344 33.97816406 -2.51757812 32.70117188 C-2.49115234 31.41791016 -2.46472656 30.13464844 -2.4375 28.8125 C-1.88228022 5.64684066 -1.88228022 5.64684066 0 0 Z " fill="#E2E2E2" transform="translate(15,110)"/>
<path d="M0 0 C21.78 0 43.56 0 66 0 C66 0.33 66 0.66 66 1 C64.64974731 1.03758423 64.64974731 1.03758423 63.2722168 1.07592773 C59.07723933 1.1940697 54.88235853 1.31522208 50.6875 1.4375 C49.9331366 1.45923279 49.17877319 1.48096558 48.40155029 1.50335693 C39.63294947 1.75822138 30.88089011 2.07434995 22.125 2.625 C5.43686065 3.62457376 5.43686065 3.62457376 0 0 Z " fill="#9D9D9D" transform="translate(39,141)"/>
<path d="M0 0 C0.99 0.33 1.98 0.66 3 1 C5.06393266 5.23106195 5.04497972 8.40807669 4.28125 13.0078125 C3.91012446 15.21196633 3.91012446 15.21196633 4.125 18.3125 C3.9505614 23.45843875 2.49016398 28.0948769 1 33 C0.67 33 0.34 33 0 33 C0 22.11 0 11.22 0 0 Z " fill="#B0B6B6" transform="translate(24,90)"/>
<path d="M0 0 C0.33 0 0.66 0 1 0 C1 9.57 1 19.14 1 29 C-6 26 -6 26 -9 24 C-9 23.34 -9 22.68 -9 22 C-7.68 22 -6.36 22 -5 22 C-4.67 22.66 -4.34 23.32 -4 24 C-3.34 23.67 -2.68 23.34 -2 23 C-2.66 22.01 -3.32 21.02 -4 20 C-3.01 20 -2.02 20 -1 20 C-1.00523682 19.42967041 -1.01047363 18.85934082 -1.01586914 18.27172852 C-1.03658221 15.70199677 -1.0496419 13.13228253 -1.0625 10.5625 C-1.07087891 9.66466797 -1.07925781 8.76683594 -1.08789062 7.84179688 C-1.09111328 6.98779297 -1.09433594 6.13378906 -1.09765625 5.25390625 C-1.10289307 4.46314697 -1.10812988 3.6723877 -1.11352539 2.85766602 C-1 1 -1 1 0 0 Z " fill="#9AA7A4" transform="translate(201,109)"/>
<path d="M0 0 C0 0.66 0 1.32 0 2 C-0.99 2.495 -0.99 2.495 -2 3 C-1.7215625 4.1446875 -1.7215625 4.1446875 -1.4375 5.3125 C-1 8 -1 8 -2 11 C-1.67 11.66 -1.34 12.32 -1 13 C-0.86584528 15.6723621 -0.95681459 18.32250488 -1 21 C-1.33 21 -1.66 21 -2 21 C-2.33 30.9 -2.66 40.8 -3 51 C-3.33 51 -3.66 51 -4 51 C-4.33 35.49 -4.66 19.98 -5 4 C-6.32 3.67 -7.64 3.34 -9 3 C-2.25 0 -2.25 0 0 0 Z " fill="#D3D7D4" transform="translate(207,8)"/>
<path d="M0 0 C0.33 0 0.66 0 1 0 C1 3.63 1 7.26 1 11 C1.99 11.33 2.98 11.66 4 12 C3.68406136 12.818386 3.68406136 12.818386 3.36174011 13.65330505 C1.34280374 19.21528374 0.5376505 24.07857416 0.48828125 29.97265625 C0.47033005 30.78117538 0.45237885 31.58969452 0.43388367 32.42271423 C0.38031456 34.96925862 0.34605921 37.51562157 0.3125 40.0625 C0.27927956 41.80406144 0.24478563 43.54559908 0.20898438 45.28710938 C0.12462007 49.52460737 0.05755742 53.76205658 0 58 C-0.33 58 -0.66 58 -1 58 C-1.02544556 51.02572411 -1.04290697 44.05146028 -1.05493164 37.07714844 C-1.05994692 34.70670118 -1.06676073 32.33625699 -1.07543945 29.96582031 C-1.08762813 26.55012247 -1.09325649 23.13446569 -1.09765625 19.71875 C-1.10539818 18.14015198 -1.10539818 18.14015198 -1.11329651 16.52966309 C-1.11371996 10.92087933 -0.83850436 5.54747521 0 0 Z " fill="#D7D7D5" transform="translate(213,76)"/>
<path d="M0 0 C1.67110042 2.96178773 2.32682752 5.37071192 2.625 8.75 C2.69976563 9.54921875 2.77453125 10.3484375 2.8515625 11.171875 C2.92503906 12.07679688 2.92503906 12.07679688 3 13 C5.92824652 13.97608217 7.95613276 14.08226668 11 14 C3.28571429 20 3.28571429 20 0 20 C-0.33 20.66 -0.66 21.32 -1 22 C-2.17799662 17.53416206 -1.95279624 13.30636776 -1.625 8.75 C-1.58117187 8.0178125 -1.53734375 7.285625 -1.4921875 6.53125 C-1.13225446 1.13225446 -1.13225446 1.13225446 0 0 Z " fill="#8D9896" transform="translate(26,117)"/>
<path d="M0 0 C-1.875 6.875 -1.875 6.875 -3 8 C-4.51469448 8.23192865 -6.03754562 8.41215238 -7.5625 8.5625 C-8.38878906 8.64628906 -9.21507812 8.73007812 -10.06640625 8.81640625 C-10.70449219 8.87699219 -11.34257812 8.93757813 -12 9 C-12 6.69 -12 4.38 -12 2 C-4.71428571 -1.57142857 -4.71428571 -1.57142857 0 0 Z " fill="#CCDAD9" transform="translate(200,23)"/>
<path d="M0 0 C3.24998112 -0.02909763 6.49992857 -0.04683161 9.75 -0.0625 C10.67039062 -0.07087891 11.59078125 -0.07925781 12.5390625 -0.08789062 C13.42851563 -0.09111328 14.31796875 -0.09433594 15.234375 -0.09765625 C16.05131836 -0.10289307 16.86826172 -0.10812988 17.70996094 -0.11352539 C19.93968135 -0.00299021 21.86133755 0.37944433 24 1 C24 1.66 24 2.32 24 3 C16.57014753 4.38229813 6.67698449 6.1101632 0 2 C0 1.34 0 0.68 0 0 Z " fill="#D7D8D3" transform="translate(48,136)"/>
<path d="M0 0 C-0.020625 0.78375 -0.04125 1.5675 -0.0625 2.375 C-0.18684063 4.98114961 -0.18684063 4.98114961 1 7 C-1.8125 8.125 -1.8125 8.125 -5 9 C-5.99 8.34 -6.98 7.68 -8 7 C-8 6.34 -8 5.68 -8 5 C-9.98 4.34 -11.96 3.68 -14 3 C-14 3.99 -14 4.98 -14 6 C-15.32 5.67 -16.64 5.34 -18 5 C-18 4.01 -18 3.02 -18 2 C-16.66195312 2.03480469 -16.66195312 2.03480469 -15.296875 2.0703125 C-14.12640625 2.08835937 -12.9559375 2.10640625 -11.75 2.125 C-10.58984375 2.14820313 -9.4296875 2.17140625 -8.234375 2.1953125 C-5.22230622 2.01342429 -2.68187141 0 0 0 Z " fill="#BBBEB8" transform="translate(194,14)"/>
<path d="M0 0 C1.51400391 0.01740234 1.51400391 0.01740234 3.05859375 0.03515625 C4.07050781 0.04417969 5.08242188 0.05320312 6.125 0.0625 C7.29869141 0.07990234 7.29869141 0.07990234 8.49609375 0.09765625 C8.49609375 1.08765625 8.49609375 2.07765625 8.49609375 3.09765625 C11.46609375 3.09765625 14.43609375 3.09765625 17.49609375 3.09765625 C17.16609375 3.75765625 16.83609375 4.41765625 16.49609375 5.09765625 C13.85871229 5.46718766 11.33451248 5.70386188 8.68359375 5.84765625 C7.95849609 5.90308594 7.23339844 5.95851563 6.48632812 6.015625 C2.61836863 6.24918889 -0.23724572 6.32687341 -3.50390625 4.09765625 C-2.51390625 3.76765625 -1.52390625 3.43765625 -0.50390625 3.09765625 C-1.49390625 2.43765625 -2.48390625 1.77765625 -3.50390625 1.09765625 C-2.50390625 0.09765625 -2.50390625 0.09765625 0 0 Z " fill="#B9BAB4" transform="translate(47.50390625,16.90234375)"/>
<path d="M0 0 C11.39033006 0.74902397 22.34117437 5.3529388 30 14 C27.03 13.505 27.03 13.505 24 13 C24 12.34 24 11.68 24 11 C23.278125 10.9175 22.55625 10.835 21.8125 10.75 C18.42449019 9.84653072 16.71474554 8.18503909 14 6 C10.82078213 4.74443113 10.82078213 4.74443113 8 4 C8 3.34 8 2.68 8 2 C5.36 1.67 2.72 1.34 0 1 C0 0.67 0 0.34 0 0 Z " fill="#E2E2E2" transform="translate(176,145)"/>
<path d="M0 0 C0.99 1.32 1.98 2.64 3 4 C2.67 4.99 2.34 5.98 2 7 C1.92700115 9.51645297 1.90807632 12.00418127 1.9375 14.51953125 C1.94128662 15.25572189 1.94507324 15.99191254 1.94897461 16.75041199 C1.9652894 19.8956079 1.99333058 23.04067316 2.02050781 26.18579102 C2.03867778 28.48453156 2.05072206 30.78325045 2.0625 33.08203125 C2.07079834 33.78536087 2.07909668 34.48869049 2.08764648 35.21333313 C2.10754998 39.25383294 1.78488951 43.03653971 1 47 C0.67 47 0.34 47 0 47 C0 31.49 0 15.98 0 0 Z " fill="#D5D7D5" transform="translate(15,25)"/>
<path d="M0 0 C4.91045683 0.94431862 9.85798324 2.98520081 13 7 C13 7.66 13 8.32 13 9 C9.04 9 5.08 9 1 9 C0.67 8.34 0.34 7.68 0 7 C1.32 6.34 2.64 5.68 4 5 C4 4.34 4 3.68 4 3 C2.68 3 1.36 3 0 3 C0 2.01 0 1.02 0 0 Z " fill="#C3C3C1" transform="translate(205,150)"/>
<path d="M0 0 C9 4 9 4 11 6 C10.34 6 9.68 6 9 6 C8.67 6.66 8.34 7.32 8 8 C5.5625 7.625 5.5625 7.625 3 7 C2.67 6.34 2.34 5.68 2 5 C2.02320313 5.91523438 2.04640625 6.83046875 2.0703125 7.7734375 C2.08835937 8.96195313 2.10640625 10.15046875 2.125 11.375 C2.14820313 12.55835938 2.17140625 13.74171875 2.1953125 14.9609375 C2 18 2 18 0 20 C0 13.4 0 6.8 0 0 Z " fill="#BEBFBA" transform="translate(23,8)"/>
<path d="M0 0 C0.33 0 0.66 0 1 0 C1 3.3 1 6.6 1 10 C1.66 10 2.32 10 3 10 C3 18.25 3 26.5 3 35 C2.67 35 2.34 35 2 35 C1.67 32.69 1.34 30.38 1 28 C0.67 28 0.34 28 0 28 C0 18.76 0 9.52 0 0 Z " fill="#BBC2BE" transform="translate(201,49)"/>
<path d="M0 0 C1.32 0.66 2.64 1.32 4 2 C3.67 6.62 3.34 11.24 3 16 C-1 14 -1 14 -1.875 11.9375 C-2.05244163 7.76762164 -1.05822135 4.01424461 0 0 Z " fill="#B2B3B2" transform="translate(15,5)"/>
<path d="M0 0 C0.89203125 0.01804688 1.7840625 0.03609375 2.703125 0.0546875 C3.71632813 0.08949219 3.71632813 0.08949219 4.75 0.125 C4.75 0.455 4.75 0.785 4.75 1.125 C4.12351562 1.31835938 3.49703125 1.51171875 2.8515625 1.7109375 C2.03429687 1.97132813 1.21703125 2.23171875 0.375 2.5 C-0.43710937 2.75523437 -1.24921875 3.01046875 -2.0859375 3.2734375 C-4.41459185 4.02354283 -4.41459185 4.02354283 -6.25 6.125 C-7.24 6.125 -8.23 6.125 -9.25 6.125 C-9.25 6.785 -9.25 7.445 -9.25 8.125 C-10.24 8.455 -11.23 8.785 -12.25 9.125 C-12.58 9.785 -12.91 10.445 -13.25 11.125 C-14.57 10.795 -15.89 10.465 -17.25 10.125 C-15.58333333 8.45833333 -13.91666667 6.79166667 -12.25 5.125 C-11.734375 4.568125 -11.21875 4.01125 -10.6875 3.4375 C-7.36597442 0.40480273 -4.41780038 -0.1162579 0 0 Z " fill="#EFEFEF" transform="translate(41.25,147.875)"/>
<path d="M0 0 C0.33 0 0.66 0 1 0 C1 6.27 1 12.54 1 19 C-1.475 18.01 -1.475 18.01 -4 17 C-4 12.05 -4 7.1 -4 2 C-3.34 2 -2.68 2 -2 2 C-1.67 5.63 -1.34 9.26 -1 13 C-0.67 8.71 -0.34 4.42 0 0 Z " fill="#7B7C76" transform="translate(212,134)"/>
<path d="M0 0 C5.19525146 1.3606611 8.17555757 3.35767388 12 7 C12 7.66 12 8.32 12 9 C9.19216596 8.61002305 7.4006401 8.33156422 5.1875 6.5 C1.92341307 4.26176896 -1.08227501 4.32647708 -5 4 C-4.01 3.34 -3.02 2.68 -2 2 C-1.34 1.34 -0.68 0.68 0 0 Z " fill="#A4A5A3" transform="translate(184,139)"/>
<path d="M0 0 C1.04607422 0.15662109 1.04607422 0.15662109 2.11328125 0.31640625 C3.82725559 0.57467636 5.5388995 0.84832952 7.25 1.125 C7.25 1.455 7.25 1.785 7.25 2.125 C6.36957031 2.24617187 5.48914063 2.36734375 4.58203125 2.4921875 C3.42058594 2.65976563 2.25914063 2.82734375 1.0625 3 C-0.66033203 3.24363281 -0.66033203 3.24363281 -2.41796875 3.4921875 C-5.44610031 4.067284 -7.91656829 4.96030786 -10.75 6.125 C-11.74 6.125 -12.73 6.125 -13.75 6.125 C-12.30510204 1.5494898 -12.30510204 1.5494898 -10.15625 -0.09375 C-6.67056586 -1.22546563 -3.53446955 -0.58128327 0 0 Z " fill="#A6A6A6" transform="translate(45.75,141.875)"/>
<path d="M0 0 C1.62490954 -0.02698189 3.24994633 -0.04638757 4.875 -0.0625 C6.23238281 -0.07990234 6.23238281 -0.07990234 7.6171875 -0.09765625 C10 0 10 0 12 1 C11.67 2.32 11.34 3.64 11 5 C2.09 5 -6.82 5 -16 5 C-16 4.67 -16 4.34 -16 4 C-7.75 4 0.5 4 9 4 C8.67 3.34 8.34 2.68 8 2 C6.10466658 1.53476937 6.10466658 1.53476937 3.9375 1.375 C2.638125 1.25125 1.33875 1.1275 0 1 C0 0.67 0 0.34 0 0 Z " fill="#D3D4D0" transform="translate(168,135)"/>
<path d="M0 0 C1.8125 2.0625 1.8125 2.0625 1.8125 4.0625 C-1.1594385 2.93798273 -3.52190687 1.83956209 -6.1875 0.0625 C-8.94167318 -0.23816154 -11.61395147 -0.44675299 -14.375 -0.5625 C-15.49938477 -0.62050781 -15.49938477 -0.62050781 -16.64648438 -0.6796875 C-18.49309199 -0.77378216 -20.3402619 -0.85672319 -22.1875 -0.9375 C-22.1875 -1.2675 -22.1875 -1.5975 -22.1875 -1.9375 C-14.7236546 -3.20494545 -6.67839059 -4.05941389 0 0 Z " fill="#B9B9B9" transform="translate(190.1875,144.9375)"/>
<path d="M0 0 C0.33 0 0.66 0 1 0 C1 2.64 1 5.28 1 8 C-2.61941735 6.49760034 -5.7321794 5.17854707 -9 3 C-9 2.34 -9 1.68 -9 1 C-7.68 1 -6.36 1 -5 1 C-4.67 1.66 -4.34 2.32 -4 3 C-1.84188612 2.05270463 -1.84188612 2.05270463 0 0 Z " fill="#8C9792" transform="translate(201,130)"/>
<path d="M0 0 C-5.75 3 -5.75 3 -8 3 C-8 4.98 -8 6.96 -8 9 C-9.32 9 -10.64 9 -12 9 C-12 7.02 -12 5.04 -12 3 C-10.5682384 2.30062798 -9.12932968 1.61587282 -7.6875 0.9375 C-6.48673828 0.36322266 -6.48673828 0.36322266 -5.26171875 -0.22265625 C-3 -1 -3 -1 0 0 Z " fill="#6F7774" transform="translate(196,22)"/>
<path d="M0 0 C0.99 0.33 1.98 0.66 3 1 C3 4 3 4 2.0625 5.75 C0.63860793 8.76530084 0.37988357 11.70767573 0 15 C-0.33 15 -0.66 15 -1 15 C-1.02685412 12.68756208 -1.04632841 10.3750373 -1.0625 8.0625 C-1.07410156 6.77472656 -1.08570312 5.48695312 -1.09765625 4.16015625 C-1 1 -1 1 0 0 Z " fill="#C2CCCC" transform="translate(27,21)"/>
<path d="M0 0 C4.63655236 1.32472924 8.0542504 3.25513071 12 6 C13.3191582 6.69429379 14.64649406 7.37530495 16 8 C16 8.66 16 9.32 16 10 C12.35524815 8.63649571 9.08755513 6.998536 5.75 5 C4.44289062 4.2265625 4.44289062 4.2265625 3.109375 3.4375 C1 2 1 2 0 0 Z " fill="#454B46" transform="translate(186,130)"/>
<path d="M0 0 C0 2.64 0 5.28 0 8 C-1.65 8 -3.3 8 -5 8 C-4.74438677 5.6568787 -4.40729228 3.32156597 -4 1 C-2 0 -2 0 0 0 Z " fill="#ADBDBA" transform="translate(37,123)"/>
<path d="M0 0 C1.32 0.33 2.64 0.66 4 1 C4.05422947 2.4370809 4.09289723 3.87475462 4.125 5.3125 C4.14820313 6.11300781 4.17140625 6.91351563 4.1953125 7.73828125 C4 10 4 10 2 13 C1.67 10.69 1.34 8.38 1 6 C0.67 6 0.34 6 0 6 C0 4.02 0 2.04 0 0 Z " fill="#909B98" transform="translate(37,25)"/>
<path d="M0 0 C0.66 0.33 1.32 0.66 2 1 C2 4.96 2 8.92 2 13 C0.68 13.33 -0.64 13.66 -2 14 C-2 13.34 -2 12.68 -2 12 C-1.34 12 -0.68 12 0 12 C0 8.04 0 4.08 0 0 Z " fill="#E3E3E1" transform="translate(18,9)"/>
<path d="M0 0 C0.5625 1.9375 0.5625 1.9375 1 4 C0 5 0 5 -2.5625 5.0625 C-3.7690625 5.0315625 -3.7690625 5.0315625 -5 5 C-5.66 3.68 -6.32 2.36 -7 1 C-4.53721199 -0.231394 -2.7204945 -0.07159196 0 0 Z " fill="#C6C5C1" transform="translate(190,134)"/>
<path d="M0 0 C2.67135401 3.83883465 1.84057805 7.39895643 1.125 11.75 C1.02058594 12.44738281 0.91617187 13.14476562 0.80859375 13.86328125 C0.55032364 15.57725559 0.27667048 17.2888995 0 19 C-2 17 -2 17 -2.01171875 13.33984375 C-1.914548 11.87163362 -1.80600369 10.40414243 -1.6875 8.9375 C-1.63916016 8.19177734 -1.59082031 7.44605469 -1.54101562 6.67773438 C-1.14395028 1.14395028 -1.14395028 1.14395028 0 0 Z " fill="#9EA8A7" transform="translate(26,117)"/>
<path d="M0 0 C0.99 0.33 1.98 0.66 3 1 C2.67 1.99 2.34 2.98 2 4 C2.66 4 3.32 4 4 4 C4.33 3.01 4.66 2.02 5 1 C5.66 1.33 6.32 1.66 7 2 C7 2.99 7 3.98 7 5 C4.69 5.66 2.38 6.32 0 7 C0 4.69 0 2.38 0 0 Z " fill="#D3E1E2" transform="translate(188,25)"/>
<path d="M0 0 C3.36016893 1.12005631 4.69064913 2.37211797 7 5 C7 5.66 7 6.32 7 7 C5.35 7.33 3.7 7.66 2 8 C0 1.125 0 1.125 0 0 Z " fill="#B4B5B1" transform="translate(182,17)"/>
<path d="M0 0 C-0.33 0.99 -0.66 1.98 -1 3 C-3.64 3 -6.28 3 -9 3 C-9.33 2.01 -9.66 1.02 -10 0 C-6.22996568 -2.61002376 -4.07631429 -1.66758312 0 0 Z " fill="#B4B9B1" transform="translate(42,18)"/>
<path d="M0 0 C6.27 0 12.54 0 19 0 C19 0.33 19 0.66 19 1 C18.24074219 1.04898437 17.48148438 1.09796875 16.69921875 1.1484375 C15.70535156 1.22320313 14.71148437 1.29796875 13.6875 1.375 C12.20830078 1.47941406 12.20830078 1.47941406 10.69921875 1.5859375 C7.78471567 1.83865472 7.78471567 1.83865472 5 4 C5 3.34 5 2.68 5 2 C3.35 1.67 1.7 1.34 0 1 C0 0.67 0 0.34 0 0 Z " fill="#C3C5BE" transform="translate(37,16)"/>
<path d="M0 0 C5.19822672 1.36144033 8.09543873 3.46730171 12 7 C9.50907189 8.24546405 8.58919267 7.7767578 6 7 C6 6.34 6 5.68 6 5 C5.01 5 4.02 5 3 5 C1.3125 2.5 1.3125 2.5 0 0 Z " fill="#D6D6D7" transform="translate(194,151)"/>
<path d="M0 0 C1.58294782 -0.05437607 3.16644256 -0.09296271 4.75 -0.125 C5.63171875 -0.14820313 6.5134375 -0.17140625 7.421875 -0.1953125 C10.1135858 0.00860498 11.69904974 0.63448279 14 2 C11.45297384 3.27351308 10.5717055 2.80191925 7.875 2.0625 C7.15054688 1.86785156 6.42609375 1.67320313 5.6796875 1.47265625 C5.12539062 1.31667969 4.57109375 1.16070313 4 1 C4 1.99 4 2.98 4 4 C2.68 3.67 1.36 3.34 0 3 C0 2.01 0 1.02 0 0 Z " fill="#C6C6C0" transform="translate(176,16)"/>
<path d="M0 0 C1.258125 -0.04125 2.51625 -0.0825 3.8125 -0.125 C4.52019531 -0.14820313 5.22789063 -0.17140625 5.95703125 -0.1953125 C8 0 8 0 11 2 C10.01 2 9.02 2 8 2 C8 2.66 8 3.32 8 4 C5.33333333 3.33333333 2.66666667 2.66666667 0 2 C0 1.34 0 0.68 0 0 Z " fill="#CDCEC9" transform="translate(48,136)"/>
<path d="M0 0 C0.8353125 0.2475 0.8353125 0.2475 1.6875 0.5 C4.18691249 1.04041351 6.45045662 1.07082065 9 1 C5.8745041 3.64465038 2.91211733 4.84414715 -1 6 C-0.67 4.02 -0.34 2.04 0 0 Z " fill="#96A2A1" transform="translate(28,130)"/>
<path d="M0 0 C1.5625 1.8125 1.5625 1.8125 3 4 C2.67 4.99 2.34 5.98 2 7 C1.93197033 8.72795352 1.91504355 10.45835365 1.9375 12.1875 C1.94652344 13.08855469 1.95554687 13.98960938 1.96484375 14.91796875 C1.97644531 15.60503906 1.98804687 16.29210937 2 17 C1.67 17 1.34 17 1 17 C0.1679418 11.27959989 -0.12036664 5.77759884 0 0 Z " fill="#CECFCB" transform="translate(15,25)"/>
<path d="M0 0 C-0.639375 0.28875 -1.27875 0.5775 -1.9375 0.875 C-4.15206079 1.82823451 -4.15206079 1.82823451 -5 4 C-7.3140622 4.73075648 -9.64828869 5.40138258 -12 6 C-10.9200311 2.86809018 -9.99049526 1.99400788 -7.125 0.1875 C-4.02316031 -0.99119908 -2.9798555 -1.26070809 0 0 Z " fill="#D9D9D9" transform="translate(40,149)"/>
<path d="M0 0 C0.99 0.33 1.98 0.66 3 1 C3 2.32 3 3.64 3 5 C2.34 5 1.68 5 1 5 C1 5.66 1 6.32 1 7 C0.01 7 -0.98 7 -2 7 C-2 5.68 -2 4.36 -2 3 C-1.34 3 -0.68 3 0 3 C0 2.01 0 1.02 0 0 Z " fill="#B9B9BA" transform="translate(20,151)"/>
<path d="M0 0 C3.3 0 6.6 0 10 0 C10 0.66 10 1.32 10 2 C6.78548731 3.60725635 3.56387464 3.05748185 0 3 C0 2.01 0 1.02 0 0 Z " fill="#C6C6C3" transform="translate(168,20)"/>
<path d="M0 0 C0.99 0.33 1.98 0.66 3 1 C2.88637738 2.4800841 2.75877092 3.95910074 2.625 5.4375 C2.52058594 6.67306641 2.52058594 6.67306641 2.4140625 7.93359375 C2.27742187 8.61550781 2.14078125 9.29742187 2 10 C1.01 10.495 1.01 10.495 0 11 C0 7.37 0 3.74 0 0 Z " fill="#A0A19D" transform="translate(208,62)"/>
<path d="M0 0 C0 0.66 0 1.32 0 2 C-0.99 2.495 -0.99 2.495 -2 3 C-2.40729228 5.32156597 -2.74438677 7.6568787 -3 10 C-3.33 10 -3.66 10 -4 10 C-4.33 8.02 -4.66 6.04 -5 4 C-6.32 3.67 -7.64 3.34 -9 3 C-2.25 0 -2.25 0 0 0 Z " fill="#D0D0CE" transform="translate(207,8)"/>
<path d="M0 0 C1.875 0.25 1.875 0.25 4 1 C5.25 3.0625 5.25 3.0625 6 5 C4.35 4.67 2.7 4.34 1 4 C0.67 2.68 0.34 1.36 0 0 Z " fill="#DDDDDB" transform="translate(212,154)"/>
<path d="M0 0 C0.66 0.33 1.32 0.66 2 1 C2.125 3.875 2.125 3.875 2 7 C1.34 7.66 0.68 8.32 0 9 C-1 8 -1 8 -1.125 4.5 C-1 1 -1 1 0 0 Z " fill="#B1BFBB" transform="translate(190,123)"/>
<path d="M0 0 C0.33 0 0.66 0 1 0 C1 3.63 1 7.26 1 11 C0.34 10.34 -0.32 9.68 -1 9 C-1 8.34 -1 7.68 -1 7 C-1.66 6.34 -2.32 5.68 -3 5 C-2.34 5 -1.68 5 -1 5 C-0.67 3.35 -0.34 1.7 0 0 Z " fill="#BEC8C5" transform="translate(200,21)"/>
<path d="M0 0 C1.98 0.495 1.98 0.495 4 1 C4 1.99 4 2.98 4 4 C2.35 4 0.7 4 -1 4 C-0.67 2.68 -0.34 1.36 0 0 Z " fill="#B7B8B4" transform="translate(180,136)"/>
</svg>
