<svg width="361" height="243" viewBox="0 0 361 243" fill="none" xmlns="http://www.w3.org/2000/svg">
<path d="M28.2318 242.743C27.8162 242.743 27.4044 242.586 27.0812 242.27C26.9349 242.12 26.8156 241.951 26.7387 241.766C26.3269 241.319 25.1378 240.242 24.3219 239.507C21.4856 236.944 20.9738 236.478 20.9507 235.539C20.9392 235.093 21.1239 234.631 21.4395 234.315C22.1591 233.6 22.5516 233.53 30.691 234.15C32.0302 234.254 33.6042 234.373 34.9665 234.458C33.7504 233.315 32.2341 231.941 30.9642 230.79C24.4258 224.875 23.9409 224.271 23.9178 223.197C23.9063 222.751 24.1025 222.258 24.4142 221.943C25.4725 220.896 26.0344 220.923 37.822 225.557C39.7616 226.322 42.0398 227.215 44.0217 227.958C42.0898 226.13 39.6577 223.936 37.6257 222.093C28.3281 213.68 26.9234 212.21 26.8888 210.856C26.8772 210.409 27.0812 209.878 27.3967 209.567C28.7052 208.254 29.7442 208.574 44.6759 216.948C47.4198 218.483 50.6679 220.303 53.4041 221.77C50.7025 219.199 47.1966 216.028 44.2757 213.388C32.0494 202.328 29.8943 200.103 29.852 198.514C29.8405 198.068 30.0637 197.502 30.3754 197.186C31.8609 195.697 33.4118 196.332 51.4337 208.308C55.7131 211.152 60.9776 214.65 64.7491 216.955C59.573 211.579 49.3171 202.301 41.2586 195.008C19.7693 175.566 13.5118 169.52 13.4425 166.915C13.431 166.469 13.6927 165.776 14.0083 165.46C16.2711 163.201 20.2041 165.695 53.7235 195.197C65.7496 205.776 80.1772 218.476 86.7271 223.017C80.7275 215.855 62.0052 198.918 46.477 184.872C16.4866 157.737 3.33285 145.441 3.24049 141.55C3.22125 140.931 3.44447 140.357 3.85625 139.946C6.86183 136.975 15.4937 144.04 58.3069 184.414C76.883 201.935 99.5383 223.301 106.954 227.792C101.686 220.273 76.0132 197.044 54.9819 178.014C18.3608 144.879 1.09311 128.755 0.977659 124.067C0.958417 123.401 1.19316 122.797 1.62803 122.359C4.97611 119.03 15.6938 128.054 65.4533 176.205C88.2472 198.264 116.21 225.322 123.875 229.324C119.288 221.639 88.482 193.769 63.3829 171.06C21.2432 132.934 1.37789 114.392 1.2432 109.085C1.22011 108.193 1.60111 107.623 1.92052 107.3C5.59572 103.629 17.5642 113.938 73.127 168.524C99.2036 194.138 131.295 225.66 139.1 229.182C135.09 221.4 100.27 189.897 71.9878 164.306C25.4879 122.235 3.56377 101.777 3.42138 95.9856C3.39829 95.0582 3.79083 94.4694 4.12179 94.1345C8.24339 90.0437 25.157 105.633 81.2432 161.277C109.956 189.763 145.369 224.895 153.281 227.989C149.737 220.138 111.722 185.741 80.8968 157.86C30.9065 112.626 7.33132 90.6402 7.17739 84.4559C7.1543 83.5015 7.55836 82.8973 7.89702 82.5548C10.333 80.1303 17.1562 84.4097 33.4733 99.4337C19.877 86.1992 12.3842 77.6519 12.2957 74.2654C12.2688 73.2917 12.6806 72.676 13.0231 72.3258C13.3694 71.9833 13.9813 71.5715 14.9588 71.5715H14.9627C17.8605 71.5754 24.5066 76.4435 34.6086 85.4718C24.2757 75.062 18.6609 68.2234 18.5878 65.2448C18.5609 64.2558 18.9803 63.6246 19.3267 63.2744C19.6769 62.9281 20.3003 62.5125 21.2894 62.5125C21.2932 62.5125 21.2932 62.5125 21.2971 62.5125C24.064 62.5163 30.1522 66.8419 39.319 74.9119C30.6717 65.9722 25.9998 60.0187 25.9344 57.271C25.9074 56.2666 26.3269 55.6354 26.681 55.2775C27.035 54.9273 27.6661 54.5079 28.6667 54.5079C28.6706 54.5079 28.6706 54.5079 28.6744 54.5079C31.399 54.5156 37.2601 58.6179 46.0536 66.2954C38.5301 58.3523 34.4932 53.0031 34.4239 50.4285C34.3969 49.4164 34.8203 48.7776 35.1782 48.4197C35.5322 48.0657 36.1633 47.6462 37.1755 47.6462C37.1793 47.6462 37.1831 47.6462 37.187 47.6462C39.9001 47.6539 45.6804 51.6677 54.3277 59.1913C47.5391 51.9025 43.9024 46.9573 43.8408 44.5021C43.8139 43.4861 44.2372 42.8434 44.599 42.4817C44.9569 42.1276 45.588 41.7043 46.604 41.7043C46.6078 41.7043 46.6117 41.7043 46.6155 41.7043C49.3517 41.712 55.182 45.7682 63.8986 53.3571C57.5526 46.4763 54.166 41.7813 54.1083 39.4107C54.0814 38.3909 54.5047 37.7482 54.8664 37.3864C55.2243 37.0285 55.917 36.6245 56.883 36.6091C59.6461 36.6168 65.5495 40.7422 74.3931 48.4582C68.3011 41.8044 65.0531 37.2595 64.9915 34.935C64.9646 33.9191 65.3879 33.2725 65.7496 32.9146C66.1075 32.5606 66.7387 32.1411 67.7546 32.1411C67.7585 32.1411 67.7623 32.1411 67.7662 32.1411C70.5909 32.1488 76.7252 36.4859 85.9382 44.579C80.0656 38.1369 76.9292 33.7189 76.8714 31.4522C76.8445 30.4401 77.2678 29.7974 77.6257 29.4395C77.9798 29.0855 78.6109 28.666 79.623 28.666C79.6269 28.666 79.6269 28.666 79.6307 28.666C82.5285 28.6737 88.9246 33.261 98.584 41.8082C92.6883 35.366 89.5441 30.9519 89.4902 28.6929C89.4633 27.6847 89.8828 27.0497 90.2407 26.6918C90.5909 26.3416 91.2182 25.9221 92.2226 25.9221C92.2226 25.9221 92.2264 25.9221 92.2303 25.9221C95.2012 25.9298 101.932 30.8365 112.138 39.9533C106.011 33.3149 102.736 28.7891 102.682 26.5032C102.656 25.5065 103.071 24.8754 103.425 24.5213C103.775 24.1749 104.399 23.7593 105.388 23.7593C105.388 23.7593 105.392 23.7593 105.396 23.7593C108.482 23.7632 115.705 29.1547 126.731 39.1182C120.25 32.1834 116.783 27.4846 116.725 25.164C116.698 24.1788 117.11 23.5554 117.46 23.2052C117.807 22.8627 118.422 22.4509 119.396 22.4509C119.4 22.4509 119.4 22.4509 119.4 22.4509C122.636 22.4547 130.529 28.5083 142.686 39.6377C135.49 32.0911 131.622 27.0227 131.557 24.6021C131.534 23.6323 131.942 23.0166 132.284 22.6702C134.828 20.1495 142.063 24.8407 159.615 41.1463C151.184 32.5298 147.043 27.1998 146.977 24.6252C146.95 23.6747 147.354 23.0666 147.693 22.7279C150.499 19.9263 159.342 26.2993 182.532 48.4082C169.56 35.8394 163.244 28.5236 163.167 25.4064C163.144 24.4751 163.541 23.8825 163.872 23.5477C167.878 19.5608 184.276 34.6079 238.646 88.3466C266.177 115.555 300.066 149.051 308.174 152.626C304.129 145.118 271.499 115.601 244.984 91.6062C201.124 51.9217 180.443 32.626 180.304 27.1305C180.281 26.2223 180.67 25.645 180.993 25.3179C184.584 21.7351 196.337 31.7793 250.826 85.164C276.098 109.928 307.143 140.346 315.22 144.34C310.776 136.963 281.382 110.371 257.433 88.7006C217.137 52.2411 198.141 34.5078 198.011 29.4088C197.987 28.5275 198.365 27.9656 198.68 27.6462C202.032 24.2942 212.842 33.3956 262.971 81.9544C285.711 103.986 313.562 130.963 321.601 135.408C316.748 128.208 291.041 104.948 270.017 85.9298C233.762 53.1301 216.671 37.1709 216.552 32.522C216.537 31.8601 216.768 31.256 217.202 30.8172C220.323 27.6885 229.529 35.2929 275.12 78.7564C294.905 97.6135 319.011 120.592 326.989 125.51C321.736 118.568 300.27 99.149 282.621 83.1782C250.291 53.9267 236.113 40.6768 236.009 36.5321C235.99 35.8971 236.217 35.316 236.637 34.8965C239.465 32.0449 247.004 38.0945 287.085 75.3622C303.306 90.4439 322.894 108.658 330.745 114.035C325.199 107.546 308.844 92.753 295.263 80.4574C268.59 56.3281 256.891 45.3833 256.802 41.8621C256.787 41.2617 257.002 40.7037 257.402 40.3035C259.865 37.8521 265.63 42.2277 298.565 71.483C310.087 81.7158 323.729 93.8382 331.118 99.3914C325.78 93.9267 315.84 84.9331 307.978 77.8174C286.381 58.2792 280.093 52.2027 280.027 49.5896C280.016 49.1432 280.281 48.4467 280.593 48.1311C282.294 46.4301 284.357 47.4422 306.362 63.9364C309.74 66.4724 313.616 69.3779 317.199 71.9948C313.6 68.6506 313.239 68.0272 313.219 67.1613C313.208 66.7149 313.404 66.2184 313.72 65.899C314.355 65.264 315.386 65.2602 316.021 65.8952C316.244 66.1184 316.394 66.3916 316.46 66.6764C317.256 67.6808 320.581 70.6864 323.048 72.9223C330.087 79.2913 330.656 79.9918 330.683 81.0963C330.695 81.5427 330.495 82.0391 330.183 82.3585C328.482 84.0557 326.415 83.0474 304.41 66.5455C298.78 62.3277 291.795 57.0862 287.047 53.8459C292.388 59.3144 302.317 68.2927 310.171 75.4007C331.768 94.9389 338.057 101.015 338.122 103.628C338.134 104.075 337.868 104.771 337.556 105.087C335.101 107.535 329.34 103.167 296.41 73.919C284.053 62.9396 269.255 49.7974 262.348 44.9023C268.216 51.5908 284.164 66.0183 297.456 78.0445C324.137 102.185 335.836 113.13 335.925 116.655C335.94 117.256 335.725 117.81 335.324 118.214C332.488 121.039 324.957 115.016 284.876 77.7482C268.259 62.297 248.101 43.5515 240.658 38.7025C246.235 45.8528 267.385 64.9947 284.818 80.7653C317.156 110.021 331.337 123.278 331.441 127.423C331.461 128.058 331.234 128.639 330.814 129.062C327.67 132.187 318.453 124.552 272.888 81.1155C252.858 62.0276 228.401 38.7103 220.731 34.1923C225.861 41.5773 251.345 64.6367 272.211 83.5169C308.463 116.313 325.549 132.268 325.669 136.913C325.684 137.575 325.449 138.183 325.018 138.618C321.67 141.974 310.849 132.868 260.716 84.2981C237.803 62.1007 209.71 34.885 201.917 30.7595C206.581 38.2908 235.802 64.7253 259.635 86.2877C299.931 122.747 318.926 140.48 319.057 145.58C319.08 146.461 318.703 147.023 318.388 147.342C314.77 150.929 303.048 140.885 248.559 87.4961C223.152 62.601 191.919 31.9949 184.041 28.2581C188.278 35.8971 220.766 65.291 247.185 89.1932C291.045 128.878 311.726 148.173 311.865 153.669C311.888 154.577 311.499 155.154 311.176 155.481C307.197 159.457 290.795 144.448 236.375 90.6672C208.751 63.3629 174.72 29.732 166.785 26.3685C170.622 34.096 206.054 66.1569 234.816 92.1796C281.905 134.781 304.106 155.497 304.253 161.354C304.276 162.285 303.879 162.878 303.548 163.213C299.342 167.377 282.005 151.356 224.484 94.1307C194.947 64.7445 158.503 28.4928 150.51 25.468C153.993 33.2648 191.942 67.5923 222.698 95.4237C272.557 140.531 296.059 162.459 296.213 168.624C296.24 169.574 295.836 170.182 295.498 170.521C293.058 172.938 286.35 168.755 270.464 154.173C281.582 165.214 287.651 172.418 287.728 175.451C287.751 176.42 287.343 177.036 287 177.383C286.654 177.725 286.038 178.137 285.065 178.137C282.09 178.133 275.186 173.026 264.661 163.571C273.877 172.968 278.869 179.191 278.942 181.981C278.969 182.967 278.553 183.59 278.207 183.944C277.857 184.29 277.233 184.706 276.244 184.706C276.24 184.706 276.24 184.706 276.236 184.706C273.381 184.698 266.985 180.088 257.31 171.51C265.307 179.849 269.617 185.426 269.679 188.05C269.706 189.047 269.29 189.678 268.936 190.032C268.586 190.382 267.955 190.802 266.954 190.802C266.954 190.802 266.95 190.802 266.946 190.802C264.164 190.798 258.08 186.488 248.932 178.449C256.221 186.168 260.131 191.375 260.196 193.896C260.223 194.904 259.804 195.539 259.446 195.897C259.092 196.251 258.461 196.671 257.449 196.671C257.445 196.671 257.445 196.671 257.441 196.671C254.686 196.663 248.759 192.51 239.869 184.741C246.558 191.929 250.137 196.809 250.195 199.237C250.221 200.25 249.798 200.892 249.44 201.25C249.082 201.604 248.451 202.024 247.439 202.024C247.435 202.024 247.431 202.024 247.427 202.024C244.695 202.016 238.869 197.964 230.156 190.375C236.564 197.313 239.985 202.043 240.043 204.425C240.069 205.441 239.646 206.088 239.284 206.445C238.926 206.8 238.295 207.223 237.279 207.223C237.276 207.223 237.272 207.223 237.268 207.223C234.516 207.215 228.628 203.109 219.827 195.431C225.965 202.128 229.244 206.707 229.302 209.035C229.329 210.055 228.905 210.698 228.544 211.06C228.186 211.414 227.555 211.837 226.542 211.837C226.539 211.837 226.535 211.837 226.531 211.837C223.764 211.829 217.834 207.681 208.948 199.919C215.101 206.622 218.384 211.206 218.445 213.534C218.472 214.55 218.049 215.193 217.687 215.555C217.333 215.909 216.702 216.328 215.69 216.328C215.686 216.328 215.682 216.328 215.678 216.328C212.854 216.32 206.708 211.972 197.476 203.852C203.606 210.525 206.881 215.081 206.939 217.398C206.966 218.41 206.542 219.049 206.185 219.407C205.83 219.757 205.203 220.176 204.199 220.176C204.195 220.176 204.195 220.176 204.191 220.176C201.309 220.169 194.905 215.57 185.242 207.007C191.695 213.961 195.151 218.687 195.209 221.05C195.236 222.054 194.816 222.686 194.462 223.043C194.112 223.39 193.489 223.805 192.5 223.805C192.496 223.805 192.492 223.805 192.492 223.805C189.506 223.802 182.659 218.772 172.257 209.443C179.215 216.825 182.948 221.808 183.01 224.233C183.037 225.222 182.621 225.853 182.271 226.203C181.924 226.546 181.312 226.957 180.335 226.957H180.331C177.183 226.953 169.629 221.223 158.026 210.659C165.884 218.814 170.121 224.26 170.183 226.803C170.21 227.777 169.802 228.393 169.456 228.743C166.939 231.244 159.735 226.588 142.198 210.309C151.969 220.119 156.752 226.076 156.821 228.851C156.844 229.805 156.444 230.409 156.102 230.752C151.98 234.843 135.063 219.241 78.965 163.598C50.3561 135.22 15.0973 100.242 7.0273 96.9323C10.8179 104.56 45.7958 136.209 74.1891 161.897C120.689 203.967 142.613 224.425 142.756 230.217C142.779 231.144 142.386 231.733 142.055 232.068C138.384 235.72 126.415 225.43 70.8603 170.856C44.9261 145.383 13.0461 114.061 5.0069 110.248C9.29398 117.725 40.3273 145.803 65.5842 168.654C107.724 206.78 127.589 225.322 127.724 230.629C127.747 231.521 127.366 232.091 127.047 232.418C123.698 235.759 112.973 226.719 63.202 178.56C40.6467 156.732 13.0231 130.001 5.03385 125.583C9.89434 132.83 35.9132 156.37 57.1831 175.612C93.8004 208.743 111.068 224.868 111.184 229.555C111.203 230.221 110.972 230.829 110.533 231.264C107.528 234.258 98.8957 227.169 56.0825 186.8C37.9259 169.674 15.8786 148.878 7.96247 143.752C13.3887 150.54 32.7229 168.031 48.6821 182.47C78.6725 209.605 91.8262 221.9 91.9186 225.791C91.9378 226.411 91.7146 226.984 91.3028 227.396C89.0438 229.647 85.1108 227.161 51.5876 197.656C40.6544 188.035 27.7315 176.663 20.5505 171.264C25.8882 176.713 35.69 185.58 43.456 192.607C64.9453 212.049 71.2028 218.094 71.272 220.7C71.2836 221.146 71.0219 221.839 70.7063 222.155C69.2208 223.64 67.6661 223.009 49.648 211.037C46.196 208.739 42.1014 206.022 38.6648 203.84C41.1316 206.145 44.0102 208.754 46.477 210.983C58.7033 222.043 60.8584 224.267 60.9007 225.857C60.9122 226.303 60.689 226.869 60.3773 227.184C59.0612 228.493 58.0298 228.173 43.0981 219.799C40.5813 218.391 37.645 216.74 35.0627 215.347C36.629 216.794 38.3338 218.337 39.827 219.688C49.1208 228.096 50.5216 229.566 50.5562 230.917C50.5678 231.364 50.36 231.895 50.0483 232.21C48.9938 233.261 48.4281 233.23 36.6405 228.597C34.8703 227.9 32.8229 227.096 30.9719 226.395C31.7185 227.077 32.4766 227.762 33.1616 228.385C39.7077 234.308 40.1887 234.912 40.2157 235.986C40.2272 236.432 40.0348 236.925 39.7192 237.24C38.9958 237.96 38.6032 238.025 30.46 237.409C29.2362 237.317 27.8201 237.205 26.5501 237.125C29.3479 239.657 29.852 240.115 29.879 241.05C29.8905 241.493 29.7096 241.951 29.3979 242.27C29.0669 242.586 28.6513 242.743 28.2318 242.743ZM49.2286 114.392C59.954 124.779 73.2924 137.994 89.8251 154.512C120.658 185.31 158.738 223.344 166.719 226.08C163.56 218.179 122.994 181.477 90.1522 151.764C74.3661 137.483 60.6082 124.987 49.2286 114.392ZM64.0371 113.48C74.2161 123.494 85.8266 135.112 98.7956 148.131C131.334 180.788 171.553 221.158 179.592 223.598C176.733 215.659 134.154 177.136 99.7077 145.968C86.3654 133.896 74.4046 123.04 64.0371 113.48ZM75.9594 109.886C85.5341 119.38 96.248 130.14 108.043 142.024C141.89 176.109 183.748 218.264 191.822 220.469C189.198 212.507 145.115 172.626 109.479 140.38C97.0946 129.178 85.8728 118.995 75.9594 109.886ZM87.2736 105.749C96.4212 114.862 106.542 125.056 117.587 136.209C152.388 171.344 195.451 214.816 203.564 216.859C201.097 208.885 156.025 168.104 119.592 135.143C107.732 124.41 96.9176 114.6 87.2736 105.749ZM98.4262 101.493C107.285 110.348 117.022 120.165 127.589 130.852C163.052 166.711 206.946 211.094 215.082 213.018C212.723 205.037 166.997 163.667 130.048 130.24C118.492 119.78 107.909 110.182 98.4262 101.493ZM109.267 96.9554C117.949 105.645 127.454 115.239 137.741 125.649C173.516 161.847 217.791 206.653 225.946 208.531C223.625 200.554 177.707 159.007 140.612 125.441C129.171 115.089 118.684 105.58 109.267 96.9554ZM120.162 92.4874C128.744 101.081 138.111 110.54 148.24 120.792C184.114 157.102 228.524 202.047 236.687 203.917C234.37 195.947 188.493 154.439 151.426 120.904C140.016 110.579 129.56 101.096 120.162 92.4874ZM131.003 87.981C139.488 96.4782 148.755 105.83 158.757 115.951C194.466 152.079 238.661 196.794 246.835 198.714C244.457 190.763 199.088 149.72 162.432 116.551C150.945 106.157 140.427 96.6206 131.003 87.981ZM141.917 83.5669C150.402 92.0526 159.677 101.4 169.702 111.537C204.988 147.204 248.651 191.341 256.825 193.349C254.343 185.429 209.775 145.106 173.754 112.514C162.078 101.951 151.426 92.2873 141.917 83.5669ZM10.6794 85.2679C14.0467 92.9993 52.1841 127.5 83.0866 155.458C98.6609 169.555 111.672 181.389 122.213 191.194C112.6 181.8 101.147 170.429 87.516 156.817C56.756 126.091 18.7841 88.1619 10.6794 85.2679ZM152.584 78.9258C161.155 87.4769 170.556 96.9438 180.747 107.227C215.336 142.131 258.126 185.31 266.296 187.469C263.66 179.584 220.216 140.277 185.088 108.493C173.104 97.652 162.225 87.777 152.584 78.9258ZM15.7362 74.9774C18.7687 82.7934 59.4229 119.576 92.3342 149.351C105.569 161.323 117.379 172.049 127.558 181.443C118.291 172.283 107.916 161.901 96.4943 150.432C64.0024 117.825 23.8639 77.5327 15.7362 74.9774ZM163.229 74.2846C171.93 82.9358 181.524 92.5759 191.969 103.09C225.68 137.04 267.37 179.014 275.536 181.354C272.707 173.519 230.718 135.528 196.748 104.795C184.295 93.5265 173.062 83.336 163.229 74.2846ZM173.504 69.3087C182.471 78.183 192.45 88.1734 203.391 99.1566C235.925 131.818 276.125 172.172 284.283 174.758C281.212 166.98 241.062 130.656 208.559 101.25C195.378 89.3202 183.621 78.6525 173.504 69.3087ZM21.9936 65.8836C24.7568 73.7612 67.4006 112.345 101.89 143.552C114.281 154.762 125.473 164.918 135.309 173.965C126.388 165.095 116.514 155.174 105.734 144.317C71.9339 110.275 30.1368 68.1773 21.9936 65.8836ZM182.609 63.2436C191.765 72.2296 202.494 82.8973 215.043 95.4469C246.165 126.565 284.584 164.979 292.719 167.842C289.363 160.138 251.334 125.726 220.512 97.8444C205.526 84.2827 192.915 72.8145 182.609 63.2436ZM29.3209 57.8598C31.8801 65.7797 76.0017 105.699 111.668 137.968C123.564 148.728 134.385 158.549 144.01 167.377C135.282 158.672 125.692 149.016 115.282 138.502C80.5004 103.394 37.4718 59.9533 29.3209 57.8598ZM37.7951 50.9827C40.2118 58.9258 85.3225 99.7416 121.778 132.726C133.369 143.213 143.968 152.826 153.443 161.512C144.849 152.918 135.444 143.432 125.272 133.142C89.8251 97.3018 45.9575 52.9454 37.7951 50.9827ZM187.47 53.1416C197.845 63.1436 210.756 75.8856 226.781 91.8294C256.24 121.139 292.565 157.275 300.689 160.469C297.01 152.849 261.47 120.696 232.638 94.604C213.558 77.3518 198.565 63.6823 187.47 53.1416ZM47.2043 45.037C49.5441 53.0031 95.2821 94.3885 132.238 127.823C143.691 138.187 154.185 147.708 163.606 156.336C155.001 147.723 145.596 138.233 135.428 127.939C99.6461 91.737 55.3629 46.9227 47.2043 45.037ZM57.4641 39.9417C59.7808 47.9156 105.696 89.4588 142.794 123.024C154.212 133.357 164.68 142.851 174.085 151.464C165.484 142.851 156.09 133.365 145.927 123.082C110.044 86.7649 65.6265 41.8082 57.4641 39.9417ZM68.3511 35.4776C70.6871 43.4553 116.552 84.9562 153.612 118.487C165.076 128.858 175.575 138.387 185.011 147.027C176.302 138.314 166.766 128.689 156.44 118.245C120.72 82.1007 76.5058 37.3672 68.3511 35.4776ZM80.2388 32.0064C82.6478 39.9725 127.986 80.9923 164.622 114.138C176.26 124.668 186.896 134.315 196.413 143.04C187.597 134.227 177.903 124.46 167.389 113.827C132.076 78.1407 88.3819 33.9729 80.2388 32.0064ZM92.8691 29.274C95.3975 37.2286 139.939 77.525 175.94 110.101C187.897 120.919 198.776 130.786 208.451 139.669C199.384 130.64 189.367 120.554 178.434 109.52C143.818 74.5887 100.985 31.3637 92.8691 29.274ZM106.081 27.1305C108.774 35.0543 152.176 74.327 187.274 106.08C199.7 117.325 210.941 127.523 220.843 136.624C211.507 127.358 201.089 116.898 189.656 105.387C155.913 71.4099 114.181 29.3895 106.081 27.1305ZM120.158 25.8452C123.071 33.7382 165.007 71.6831 198.934 102.378C212.161 114.346 224.006 125.095 234.266 134.558C224.468 124.898 213.381 113.804 201.082 101.454C168.501 68.7468 128.228 28.3197 120.158 25.8452ZM135.036 25.3603C138.211 33.2071 178.288 69.4703 210.749 98.8334C225.615 112.283 238.657 124.133 249.586 134.277C239.515 124.448 227.37 112.38 212.738 97.752C181.566 66.584 143.067 28.0888 135.036 25.3603Z" fill="#5C7587"/>
<path d="M23.0222 114.009C11.5117 25.0189 95.591 -8.46574 211.377 7.73976C294.941 19.435 396.842 50.7877 339.574 123.68C281.821 197.187 152.408 231.807 92.2583 199.954L39.8242 225.485L53.001 170.969C36.6108 154.19 25.6699 134.482 23.0222 114.009Z" fill="white"/>
<path d="M39.8192 229.253C38.9764 229.253 38.1413 228.968 37.4563 228.422C36.3172 227.506 35.813 226.016 36.1555 224.596L48.8475 172.093C32.084 154.425 21.8742 134.552 19.2766 114.494C15.0626 81.9217 22.998 55.4411 42.8594 35.7836C74.5085 4.46939 134.532 -6.81794 211.895 4.00369C269.459 12.0583 341.359 29.8109 356.991 68.6256C363.879 85.7239 359.011 105.031 342.532 126.009C315.097 160.929 269.659 189.699 217.876 204.946C168.821 219.389 122.063 219.066 92.211 204.173L41.4702 228.876C40.9468 229.13 40.3849 229.253 39.8192 229.253ZM157.541 7.51729C108.486 7.51729 70.5485 18.997 48.1702 41.1443C30.0674 59.0585 22.8671 83.411 26.7617 113.525C29.2169 132.52 39.2227 151.47 55.6937 168.333C56.602 169.261 56.9676 170.592 56.6635 171.854L45.3685 218.589L90.61 196.565C91.6876 196.038 92.9652 196.061 94.0236 196.622C150.591 226.571 278.38 195.46 336.61 121.352C351.303 102.649 355.809 85.8586 350.002 71.4465C334.959 34.1057 256.367 17.8463 210.856 11.4734C191.93 8.82574 174.097 7.51729 157.541 7.51729Z" fill="#5C7587"/>
<path d="M84.008 99.8C84.008 101.4 83.7413 102.893 83.208 104.28C82.6747 105.667 81.9173 106.893 80.936 107.96C79.976 109.005 78.824 109.827 77.48 110.424C76.1573 111.021 74.7067 111.32 73.128 111.32C71.5493 111.32 70.0987 111.021 68.776 110.424C67.4533 109.827 66.3013 109.005 65.32 107.96C64.36 106.893 63.6133 105.667 63.08 104.28C62.5467 102.893 62.28 101.4 62.28 99.8C62.28 98.2 62.5467 96.7067 63.08 95.32C63.6133 93.9333 64.36 92.7173 65.32 91.672C66.3013 90.6053 67.4533 89.7733 68.776 89.176C70.0987 88.5787 71.5493 88.28 73.128 88.28C74.7067 88.28 76.1573 88.5787 77.48 89.176C78.824 89.7733 79.976 90.6053 80.936 91.672C81.9173 92.7173 82.6747 93.9333 83.208 95.32C83.7413 96.7067 84.008 98.2 84.008 99.8ZM79.848 99.8C79.848 98.3707 79.56 97.08 78.984 95.928C78.408 94.7547 77.6187 93.8267 76.616 93.144C75.6133 92.4613 74.4507 92.12 73.128 92.12C71.8053 92.12 70.6427 92.4613 69.64 93.144C68.6373 93.8267 67.848 94.744 67.272 95.896C66.7173 97.048 66.44 98.3493 66.44 99.8C66.44 101.229 66.7173 102.531 67.272 103.704C67.848 104.856 68.6373 105.773 69.64 106.456C70.6427 107.139 71.8053 107.48 73.128 107.48C74.4507 107.48 75.6133 107.139 76.616 106.456C77.6187 105.773 78.408 104.856 78.984 103.704C79.56 102.531 79.848 101.229 79.848 99.8ZM104.219 102.456C104.219 104.205 103.825 105.752 103.035 107.096C102.267 108.419 101.222 109.453 99.8993 110.2C98.5979 110.947 97.1366 111.32 95.5153 111.32C93.8939 111.32 92.4219 110.947 91.0993 110.2C89.7979 109.453 88.7526 108.419 87.9633 107.096C87.1953 105.752 86.8113 104.205 86.8113 102.456C86.8113 100.707 87.1953 99.1707 87.9633 97.848C88.7526 96.504 89.7979 95.4587 91.0993 94.712C92.4219 93.944 93.8939 93.56 95.5153 93.56C97.1366 93.56 98.5979 93.944 99.8993 94.712C101.222 95.4587 102.267 96.504 103.035 97.848C103.825 99.1707 104.219 100.707 104.219 102.456ZM100.379 102.456C100.379 101.368 100.155 100.429 99.7073 99.64C99.2806 98.8293 98.6939 98.2 97.9473 97.752C97.2219 97.304 96.4113 97.08 95.5153 97.08C94.6193 97.08 93.7979 97.304 93.0513 97.752C92.3259 98.2 91.7393 98.8293 91.2913 99.64C90.8646 100.429 90.6513 101.368 90.6513 102.456C90.6513 103.523 90.8646 104.461 91.2913 105.272C91.7393 106.061 92.3259 106.68 93.0513 107.128C93.7979 107.576 94.6193 107.8 95.5153 107.8C96.4113 107.8 97.2219 107.576 97.9473 107.128C98.6939 106.68 99.2806 106.061 99.7073 105.272C100.155 104.461 100.379 103.523 100.379 102.456ZM116.444 93.56C117.937 93.56 119.271 93.944 120.444 94.712C121.639 95.4587 122.577 96.4933 123.26 97.816C123.964 99.1387 124.316 100.675 124.316 102.424C124.316 104.173 123.964 105.72 123.26 107.064C122.577 108.387 121.649 109.432 120.476 110.2C119.324 110.947 118.023 111.32 116.572 111.32C115.719 111.32 114.919 111.181 114.172 110.904C113.425 110.627 112.764 110.275 112.188 109.848C111.633 109.421 111.196 108.995 110.876 108.568C110.577 108.12 110.428 107.747 110.428 107.448L111.42 107.032V115.448C111.42 116.003 111.239 116.461 110.876 116.824C110.513 117.208 110.055 117.4 109.5 117.4C108.945 117.4 108.487 117.219 108.124 116.856C107.761 116.493 107.58 116.024 107.58 115.448V95.832C107.58 95.2773 107.761 94.8187 108.124 94.456C108.487 94.072 108.945 93.88 109.5 93.88C110.055 93.88 110.513 94.072 110.876 94.456C111.239 94.8187 111.42 95.2773 111.42 95.832V97.4L110.876 97.112C110.876 96.8347 111.025 96.504 111.324 96.12C111.623 95.7147 112.028 95.32 112.54 94.936C113.052 94.5307 113.639 94.2 114.3 93.944C114.983 93.688 115.697 93.56 116.444 93.56ZM115.964 97.08C115.025 97.08 114.204 97.3147 113.5 97.784C112.796 98.2533 112.241 98.8933 111.836 99.704C111.452 100.493 111.26 101.4 111.26 102.424C111.26 103.427 111.452 104.344 111.836 105.176C112.241 105.987 112.796 106.627 113.5 107.096C114.204 107.565 115.025 107.8 115.964 107.8C116.903 107.8 117.713 107.565 118.396 107.096C119.1 106.627 119.644 105.987 120.028 105.176C120.433 104.344 120.636 103.427 120.636 102.424C120.636 101.4 120.433 100.493 120.028 99.704C119.644 98.8933 119.1 98.2533 118.396 97.784C117.713 97.3147 116.903 97.08 115.964 97.08ZM126.682 108.344C126.468 108.045 126.372 107.661 126.394 107.192C126.415 106.723 126.692 106.317 127.226 105.976C127.567 105.763 127.93 105.677 128.314 105.72C128.698 105.741 129.071 105.933 129.434 106.296C130.052 106.915 130.703 107.395 131.386 107.736C132.068 108.077 132.922 108.248 133.946 108.248C134.266 108.227 134.618 108.184 135.002 108.12C135.386 108.035 135.716 107.864 135.994 107.608C136.292 107.331 136.442 106.915 136.442 106.36C136.442 105.891 136.282 105.517 135.962 105.24C135.642 104.963 135.215 104.728 134.682 104.536C134.17 104.344 133.594 104.163 132.954 103.992C132.292 103.8 131.61 103.587 130.906 103.352C130.223 103.117 129.594 102.819 129.018 102.456C128.442 102.072 127.972 101.571 127.61 100.952C127.247 100.333 127.066 99.5547 127.066 98.616C127.066 97.5493 127.364 96.6427 127.962 95.896C128.559 95.1493 129.327 94.5733 130.266 94.168C131.226 93.7627 132.228 93.56 133.274 93.56C133.935 93.56 134.628 93.6453 135.354 93.816C136.079 93.9653 136.772 94.2213 137.434 94.584C138.095 94.9253 138.65 95.384 139.098 95.96C139.332 96.28 139.471 96.664 139.514 97.112C139.556 97.56 139.354 97.9653 138.906 98.328C138.586 98.584 138.212 98.7013 137.786 98.68C137.359 98.6373 137.007 98.488 136.73 98.232C136.367 97.7627 135.876 97.3893 135.258 97.112C134.66 96.8347 133.967 96.696 133.178 96.696C132.858 96.696 132.506 96.7387 132.122 96.824C131.759 96.888 131.439 97.048 131.162 97.304C130.884 97.5387 130.746 97.9227 130.746 98.456C130.746 98.9467 130.906 99.3413 131.226 99.64C131.546 99.9173 131.972 100.152 132.506 100.344C133.06 100.515 133.647 100.685 134.266 100.856C134.906 101.027 135.556 101.229 136.218 101.464C136.879 101.699 137.487 102.008 138.042 102.392C138.596 102.776 139.044 103.277 139.386 103.896C139.727 104.493 139.898 105.261 139.898 106.2C139.898 107.288 139.578 108.216 138.938 108.984C138.298 109.752 137.498 110.339 136.538 110.744C135.578 111.128 134.596 111.32 133.594 111.32C132.335 111.32 131.076 111.107 129.818 110.68C128.559 110.232 127.514 109.453 126.682 108.344ZM145.319 103.928C144.594 103.928 144.199 103.523 144.135 102.712L143.207 90.936C143.165 90.2747 143.335 89.72 143.719 89.272C144.125 88.824 144.647 88.6 145.287 88.6C145.927 88.6 146.45 88.824 146.855 89.272C147.261 89.72 147.431 90.2747 147.367 90.936L146.471 102.712C146.407 103.523 146.023 103.928 145.319 103.928ZM145.095 111C144.477 111 143.997 110.84 143.655 110.52C143.335 110.179 143.175 109.699 143.175 109.08V108.536C143.175 107.917 143.335 107.448 143.655 107.128C143.997 106.787 144.477 106.616 145.095 106.616H145.511C146.13 106.616 146.599 106.787 146.919 107.128C147.261 107.448 147.431 107.917 147.431 108.536V109.08C147.431 109.699 147.261 110.179 146.919 110.52C146.599 110.84 146.13 111 145.511 111H145.095ZM168.515 111C167.918 111 167.427 110.819 167.043 110.456C166.659 110.072 166.467 109.603 166.467 109.048V90.488H170.627V109.048C170.627 109.603 170.425 110.072 170.019 110.456C169.635 110.819 169.134 111 168.515 111ZM161.443 92.28C160.889 92.28 160.419 92.1093 160.035 91.768C159.673 91.4267 159.491 90.9787 159.491 90.424C159.491 89.8693 159.673 89.432 160.035 89.112C160.419 88.7707 160.889 88.6 161.443 88.6H175.651C176.206 88.6 176.665 88.7707 177.027 89.112C177.411 89.4533 177.603 89.9013 177.603 90.456C177.603 91.0107 177.411 91.4587 177.027 91.8C176.665 92.12 176.206 92.28 175.651 92.28H161.443ZM180.656 111C180.102 111 179.643 110.819 179.28 110.456C178.918 110.072 178.736 109.603 178.736 109.048V95.832C178.736 95.2773 178.918 94.8187 179.28 94.456C179.643 94.072 180.102 93.88 180.656 93.88C181.211 93.88 181.67 94.072 182.032 94.456C182.395 94.8187 182.576 95.2773 182.576 95.832V98.84L182.352 96.696C182.587 96.184 182.886 95.736 183.248 95.352C183.632 94.9467 184.059 94.616 184.528 94.36C184.998 94.0827 185.499 93.88 186.032 93.752C186.566 93.624 187.099 93.56 187.632 93.56C188.272 93.56 188.806 93.7413 189.232 94.104C189.68 94.4667 189.904 94.8933 189.904 95.384C189.904 96.088 189.723 96.6 189.36 96.92C188.998 97.2187 188.603 97.368 188.176 97.368C187.771 97.368 187.398 97.2933 187.056 97.144C186.736 96.9947 186.363 96.92 185.936 96.92C185.552 96.92 185.158 97.016 184.752 97.208C184.368 97.3787 184.006 97.656 183.664 98.04C183.344 98.424 183.078 98.904 182.864 99.48C182.672 100.035 182.576 100.696 182.576 101.464V109.048C182.576 109.603 182.395 110.072 182.032 110.456C181.67 110.819 181.211 111 180.656 111ZM205.315 93.88C205.87 93.88 206.329 94.072 206.691 94.456C207.054 94.8187 207.235 95.2773 207.235 95.832V109.432C207.235 111.395 206.862 112.952 206.115 114.104C205.39 115.277 204.409 116.12 203.171 116.632C201.934 117.144 200.547 117.4 199.011 117.4C198.329 117.4 197.603 117.347 196.835 117.24C196.067 117.133 195.438 116.973 194.947 116.76C194.307 116.483 193.859 116.131 193.603 115.704C193.369 115.299 193.326 114.861 193.475 114.392C193.667 113.773 193.977 113.347 194.403 113.112C194.83 112.899 195.278 112.877 195.747 113.048C196.089 113.155 196.537 113.315 197.091 113.528C197.646 113.763 198.286 113.88 199.011 113.88C199.993 113.88 200.803 113.741 201.443 113.464C202.105 113.208 202.595 112.76 202.915 112.12C203.257 111.501 203.427 110.648 203.427 109.56V107.416L204.099 108.184C203.737 108.888 203.278 109.475 202.723 109.944C202.19 110.392 201.55 110.733 200.803 110.968C200.057 111.203 199.203 111.32 198.243 111.32C197.113 111.32 196.121 111.064 195.267 110.552C194.435 110.019 193.785 109.293 193.315 108.376C192.846 107.437 192.611 106.371 192.611 105.176V95.832C192.611 95.2773 192.793 94.8187 193.155 94.456C193.518 94.072 193.977 93.88 194.531 93.88C195.086 93.88 195.545 94.072 195.907 94.456C196.27 94.8187 196.451 95.2773 196.451 95.832V104.024C196.451 105.411 196.75 106.392 197.347 106.968C197.966 107.523 198.819 107.8 199.907 107.8C200.654 107.8 201.283 107.661 201.795 107.384C202.307 107.085 202.702 106.659 202.979 106.104C203.257 105.528 203.395 104.835 203.395 104.024V95.832C203.395 95.2773 203.577 94.8187 203.939 94.456C204.302 94.072 204.761 93.88 205.315 93.88ZM228.905 93.624L221.993 109.88C221.844 110.285 221.609 110.605 221.289 110.84C220.991 111.053 220.66 111.16 220.297 111.16C219.721 111.16 219.295 111 219.017 110.68C218.74 110.36 218.601 109.965 218.601 109.496C218.601 109.304 218.633 109.101 218.697 108.888L226.665 89.752C226.836 89.3253 227.092 88.9947 227.433 88.76C227.796 88.5253 228.18 88.4293 228.585 88.472C228.969 88.472 229.321 88.5893 229.641 88.824C229.983 89.0373 230.228 89.3467 230.377 89.752L238.249 108.504C238.356 108.781 238.409 109.037 238.409 109.272C238.409 109.848 238.217 110.307 237.833 110.648C237.471 110.989 237.065 111.16 236.617 111.16C236.233 111.16 235.881 111.043 235.561 110.808C235.263 110.573 235.028 110.253 234.857 109.848L227.977 93.816L228.905 93.624ZM222.985 105.976L224.745 102.296H233.385L233.993 105.976H222.985ZM247.903 93.56C248.799 93.56 249.62 93.6987 250.367 93.976C251.113 94.2533 251.753 94.6053 252.287 95.032C252.841 95.4587 253.268 95.896 253.567 96.344C253.887 96.7707 254.047 97.1333 254.047 97.432L253.215 97.848V95.512C253.215 94.9573 253.396 94.4987 253.759 94.136C254.121 93.752 254.58 93.56 255.135 93.56C255.689 93.56 256.148 93.7413 256.511 94.104C256.873 94.4667 257.055 94.936 257.055 95.512V109.752C257.055 111.608 256.649 113.091 255.839 114.2C255.049 115.331 254.004 116.141 252.703 116.632C251.401 117.144 250.004 117.4 248.511 117.4C248.084 117.4 247.529 117.347 246.847 117.24C246.164 117.133 245.513 117.005 244.895 116.856C244.276 116.707 243.807 116.568 243.487 116.44C242.847 116.163 242.399 115.811 242.143 115.384C241.908 114.979 241.865 114.541 242.015 114.072C242.207 113.453 242.516 113.027 242.943 112.792C243.369 112.579 243.817 112.557 244.287 112.728C244.5 112.792 244.852 112.92 245.343 113.112C245.833 113.304 246.367 113.475 246.943 113.624C247.54 113.795 248.063 113.88 248.511 113.88C250.111 113.88 251.295 113.56 252.063 112.92C252.831 112.28 253.215 111.395 253.215 110.264V107.48L253.599 107.768C253.599 108.045 253.449 108.387 253.151 108.792C252.873 109.176 252.479 109.56 251.967 109.944C251.476 110.328 250.889 110.659 250.207 110.936C249.524 111.192 248.799 111.32 248.031 111.32C246.516 111.32 245.151 110.947 243.935 110.2C242.719 109.432 241.759 108.387 241.055 107.064C240.351 105.72 239.999 104.184 239.999 102.456C239.999 100.707 240.351 99.1707 241.055 97.848C241.759 96.504 242.708 95.4587 243.903 94.712C245.097 93.944 246.431 93.56 247.903 93.56ZM248.511 97.08C247.551 97.08 246.708 97.3147 245.983 97.784C245.257 98.2533 244.692 98.8933 244.287 99.704C243.881 100.515 243.679 101.432 243.679 102.456C243.679 103.459 243.881 104.365 244.287 105.176C244.692 105.987 245.257 106.627 245.983 107.096C246.708 107.565 247.551 107.8 248.511 107.8C249.492 107.8 250.345 107.565 251.071 107.096C251.796 106.627 252.361 105.987 252.767 105.176C253.172 104.365 253.375 103.459 253.375 102.456C253.375 101.432 253.172 100.515 252.767 99.704C252.361 98.8933 251.796 98.2533 251.071 97.784C250.345 97.3147 249.492 97.08 248.511 97.08ZM275.065 93.56C275.619 93.56 276.078 93.7413 276.441 94.104C276.803 94.4667 276.985 94.936 276.985 95.512V109.048C276.985 109.603 276.803 110.072 276.441 110.456C276.078 110.819 275.619 111 275.065 111C274.51 111 274.051 110.819 273.689 110.456C273.326 110.072 273.145 109.603 273.145 109.048V107.48L273.849 107.768C273.849 108.045 273.699 108.387 273.401 108.792C273.102 109.176 272.697 109.56 272.185 109.944C271.673 110.328 271.065 110.659 270.361 110.936C269.678 111.192 268.931 111.32 268.121 111.32C266.649 111.32 265.315 110.947 264.121 110.2C262.926 109.432 261.977 108.387 261.273 107.064C260.59 105.72 260.249 104.184 260.249 102.456C260.249 100.707 260.59 99.1707 261.273 97.848C261.977 96.504 262.915 95.4587 264.089 94.712C265.262 93.944 266.563 93.56 267.993 93.56C268.91 93.56 269.753 93.6987 270.521 93.976C271.289 94.2533 271.95 94.6053 272.505 95.032C273.081 95.4587 273.518 95.896 273.817 96.344C274.137 96.7707 274.297 97.1333 274.297 97.432L273.145 97.848V95.512C273.145 94.9573 273.326 94.4987 273.689 94.136C274.051 93.752 274.51 93.56 275.065 93.56ZM268.601 107.8C269.539 107.8 270.361 107.565 271.065 107.096C271.769 106.627 272.313 105.987 272.697 105.176C273.102 104.365 273.305 103.459 273.305 102.456C273.305 101.432 273.102 100.515 272.697 99.704C272.313 98.8933 271.769 98.2533 271.065 97.784C270.361 97.3147 269.539 97.08 268.601 97.08C267.683 97.08 266.873 97.3147 266.169 97.784C265.465 98.2533 264.91 98.8933 264.505 99.704C264.121 100.515 263.929 101.432 263.929 102.456C263.929 103.459 264.121 104.365 264.505 105.176C264.91 105.987 265.465 106.627 266.169 107.096C266.873 107.565 267.683 107.8 268.601 107.8ZM284.759 109.048C284.759 109.603 284.577 110.072 284.215 110.456C283.852 110.819 283.393 111 282.839 111C282.284 111 281.825 110.819 281.463 110.456C281.1 110.072 280.919 109.603 280.919 109.048V95.832C280.919 95.2773 281.1 94.8187 281.463 94.456C281.825 94.072 282.284 93.88 282.839 93.88C283.393 93.88 283.852 94.072 284.215 94.456C284.577 94.8187 284.759 95.2773 284.759 95.832V109.048ZM282.807 91.8C282.081 91.8 281.569 91.6827 281.271 91.448C280.972 91.2133 280.823 90.7973 280.823 90.2V89.592C280.823 88.9733 280.983 88.5573 281.303 88.344C281.644 88.1093 282.156 87.992 282.839 87.992C283.585 87.992 284.108 88.1093 284.407 88.344C284.705 88.5787 284.855 88.9947 284.855 89.592V90.2C284.855 90.8187 284.695 91.2453 284.375 91.48C284.055 91.6933 283.532 91.8 282.807 91.8ZM297.857 93.56C299.436 93.56 300.63 93.8907 301.441 94.552C302.273 95.2133 302.838 96.0987 303.137 97.208C303.457 98.296 303.617 99.512 303.617 100.856V109.048C303.617 109.603 303.436 110.072 303.073 110.456C302.71 110.819 302.252 111 301.697 111C301.142 111 300.684 110.819 300.321 110.456C299.958 110.072 299.777 109.603 299.777 109.048V100.856C299.777 100.152 299.681 99.5227 299.489 98.968C299.318 98.392 298.998 97.9333 298.529 97.592C298.06 97.2507 297.388 97.08 296.513 97.08C295.66 97.08 294.934 97.2507 294.337 97.592C293.761 97.9333 293.313 98.392 292.993 98.968C292.694 99.5227 292.545 100.152 292.545 100.856V109.048C292.545 109.603 292.364 110.072 292.001 110.456C291.638 110.819 291.18 111 290.625 111C290.07 111 289.612 110.819 289.249 110.456C288.886 110.072 288.705 109.603 288.705 109.048V95.832C288.705 95.2773 288.886 94.8187 289.249 94.456C289.612 94.072 290.07 93.88 290.625 93.88C291.18 93.88 291.638 94.072 292.001 94.456C292.364 94.8187 292.545 95.2773 292.545 95.832V97.208L292.065 97.112C292.257 96.7493 292.534 96.3653 292.897 95.96C293.26 95.5333 293.686 95.1387 294.177 94.776C294.668 94.4133 295.222 94.1253 295.841 93.912C296.46 93.6773 297.132 93.56 297.857 93.56Z" fill="#333F61"/>
</svg>
