<svg width="133" height="65" viewBox="0 0 133 65" fill="none" xmlns="http://www.w3.org/2000/svg">
<g filter="url(#filter0_d_1381_39034)">
<path d="M16.9336 9.18359H108.857C112.873 9.18359 116.724 11.0026 119.564 14.2405C122.404 17.4784 124 21.8699 124 26.4489V36.9867C124 41.5657 122.404 45.9572 119.564 49.1951C116.724 52.433 112.873 54.252 108.857 54.252H16.9336V9.18359Z" fill="url(#paint0_linear_1381_39034)"/>
<path d="M16.9336 11.6211H105.723C109.602 11.6211 113.323 13.4401 116.066 16.678C118.809 19.9159 120.35 24.3074 120.35 28.8865V39.4243C120.35 44.0033 118.809 48.3948 116.066 51.6326C113.323 54.8705 109.602 56.6895 105.723 56.6895H16.9336V11.6211Z" fill="url(#paint1_linear_1381_39034)"/>
<path d="M114.266 28.3616V38.7356C114.266 41.8827 113.189 44.901 111.273 47.1263C109.356 49.3517 106.757 50.6019 104.047 50.6019L8.41638 50.6019V16.4961L104.048 16.4961C105.39 16.4961 106.718 16.803 107.958 17.3993C109.198 17.9956 110.324 18.8696 111.273 19.9714C112.222 21.0732 112.974 22.3813 113.488 23.8209C114.001 25.2605 114.266 26.8034 114.266 28.3616Z" fill="url(#paint2_linear_1381_39034)"/>
<path d="M52.423 42.7305C51.975 42.7305 51.607 42.5945 51.319 42.3225C51.031 42.0345 50.887 41.6825 50.887 41.2665V29.1705L51.223 29.6985L49.471 30.9945C49.247 31.1705 48.967 31.2585 48.631 31.2585C48.247 31.2585 47.911 31.1145 47.623 30.8265C47.335 30.5385 47.191 30.1945 47.191 29.7945C47.191 29.2825 47.439 28.8665 47.935 28.5465L51.391 26.2425C51.551 26.1305 51.727 26.0505 51.919 26.0025C52.127 25.9545 52.319 25.9305 52.495 25.9305C52.959 25.9305 53.327 26.0745 53.599 26.3625C53.871 26.6345 54.007 26.9785 54.007 27.3945V41.2665C54.007 41.6825 53.855 42.0345 53.551 42.3225C53.263 42.5945 52.887 42.7305 52.423 42.7305ZM63.4071 42.9705C62.0311 42.9705 60.8631 42.6105 59.9031 41.8905C58.9591 41.1545 58.2391 40.1385 57.7431 38.8425C57.2471 37.5305 56.9991 36.0265 56.9991 34.3305C56.9991 32.6185 57.2471 31.1145 57.7431 29.8185C58.2391 28.5225 58.9591 27.5145 59.9031 26.7945C60.8631 26.0585 62.0311 25.6905 63.4071 25.6905C64.7831 25.6905 65.9431 26.0585 66.8871 26.7945C67.8471 27.5145 68.5751 28.5225 69.0711 29.8185C69.5671 31.1145 69.8151 32.6185 69.8151 34.3305C69.8151 36.0265 69.5671 37.5305 69.0711 38.8425C68.5751 40.1385 67.8471 41.1545 66.8871 41.8905C65.9431 42.6105 64.7831 42.9705 63.4071 42.9705ZM63.4071 40.0905C64.0791 40.0905 64.6551 39.8825 65.1351 39.4665C65.6311 39.0345 66.0151 38.3945 66.2871 37.5465C66.5591 36.6825 66.6951 35.6105 66.6951 34.3305C66.6951 33.0345 66.5591 31.9625 66.2871 31.1145C66.0151 30.2665 65.6311 29.6345 65.1351 29.2185C64.6551 28.7865 64.0791 28.5705 63.4071 28.5705C62.7511 28.5705 62.1751 28.7865 61.6791 29.2185C61.1831 29.6345 60.7991 30.2665 60.5271 31.1145C60.2551 31.9625 60.1191 33.0345 60.1191 34.3305C60.1191 35.6105 60.2551 36.6825 60.5271 37.5465C60.7991 38.3945 61.1831 39.0345 61.6791 39.4665C62.1751 39.8825 62.7511 40.0905 63.4071 40.0905ZM78.1493 42.9705C76.7733 42.9705 75.6053 42.6105 74.6453 41.8905C73.7013 41.1545 72.9813 40.1385 72.4853 38.8425C71.9893 37.5305 71.7413 36.0265 71.7413 34.3305C71.7413 32.6185 71.9893 31.1145 72.4853 29.8185C72.9813 28.5225 73.7013 27.5145 74.6453 26.7945C75.6053 26.0585 76.7733 25.6905 78.1493 25.6905C79.5253 25.6905 80.6853 26.0585 81.6293 26.7945C82.5893 27.5145 83.3173 28.5225 83.8133 29.8185C84.3093 31.1145 84.5573 32.6185 84.5573 34.3305C84.5573 36.0265 84.3093 37.5305 83.8133 38.8425C83.3173 40.1385 82.5893 41.1545 81.6293 41.8905C80.6853 42.6105 79.5253 42.9705 78.1493 42.9705ZM78.1493 40.0905C78.8213 40.0905 79.3973 39.8825 79.8773 39.4665C80.3733 39.0345 80.7573 38.3945 81.0293 37.5465C81.3013 36.6825 81.4373 35.6105 81.4373 34.3305C81.4373 33.0345 81.3013 31.9625 81.0293 31.1145C80.7573 30.2665 80.3733 29.6345 79.8773 29.2185C79.3973 28.7865 78.8213 28.5705 78.1493 28.5705C77.4933 28.5705 76.9173 28.7865 76.4213 29.2185C75.9253 29.6345 75.5413 30.2665 75.2693 31.1145C74.9973 31.9625 74.8613 33.0345 74.8613 34.3305C74.8613 35.6105 74.9973 36.6825 75.2693 37.5465C75.5413 38.3945 75.9253 39.0345 76.4213 39.4665C76.9173 39.8825 77.4933 40.0905 78.1493 40.0905Z" fill="white"/>
</g>
<defs>
<filter id="filter0_d_1381_39034" x="0.194812" y="0.961902" width="132.026" height="63.9512" filterUnits="userSpaceOnUse" color-interpolation-filters="sRGB">
<feFlood flood-opacity="0" result="BackgroundImageFix"/>
<feColorMatrix in="SourceAlpha" type="matrix" values="0 0 0 0 0 0 0 0 0 0 0 0 0 0 0 0 0 0 127 0" result="hardAlpha"/>
<feOffset/>
<feGaussianBlur stdDeviation="4.11085"/>
<feComposite in2="hardAlpha" operator="out"/>
<feColorMatrix type="matrix" values="0 0 0 0 0 0 0 0 0 0 0 0 0 0 0 0 0 0 0.7 0"/>
<feBlend mode="normal" in2="BackgroundImageFix" result="effect1_dropShadow_1381_39034"/>
<feBlend mode="normal" in="SourceGraphic" in2="effect1_dropShadow_1381_39034" result="shape"/>
</filter>
<linearGradient id="paint0_linear_1381_39034" x1="16.9335" y1="31.7178" x2="123.999" y2="31.7178" gradientUnits="userSpaceOnUse">
<stop stop-color="#A63A00"/>
<stop offset="0.19762" stop-color="#E8810C"/>
<stop offset="0.55347" stop-color="#E8810C"/>
<stop offset="0.67206" stop-color="#E9840C"/>
<stop offset="0.74522" stop-color="#EC8C0C"/>
<stop offset="0.80605" stop-color="#F19B0C"/>
<stop offset="0.85981" stop-color="#F7AF0D"/>
<stop offset="0.90378" stop-color="#FFC60D"/>
<stop offset="0.97305" stop-color="#D47100"/>
</linearGradient>
<linearGradient id="paint1_linear_1381_39034" x1="94.6979" y1="62.7681" x2="94.6979" y2="17.6997" gradientUnits="userSpaceOnUse">
<stop stop-color="#ED8600"/>
<stop offset="1" stop-color="#FFD52B"/>
</linearGradient>
<linearGradient id="paint2_linear_1381_39034" x1="61.341" y1="50.6019" x2="61.341" y2="16.4961" gradientUnits="userSpaceOnUse">
<stop stop-color="#782B00"/>
<stop offset="1" stop-color="#C95B0C"/>
</linearGradient>
</defs>
</svg>
